<svg width="48" height="48" viewBox="0 0 48 48" fill="none" xmlns="http://www.w3.org/2000/svg">
<path d="M7.75 39C7.75 38.3096 8.35628 37.75 9.10417 37.75H38.8958C39.6437 37.75 40.25 38.3096 40.25 39C40.25 39.6904 39.6437 40.25 38.8958 40.25H9.10417C8.35628 40.25 7.75 39.6904 7.75 39Z" fill="#666666"/>
<path d="M34 24H36.5V39H34V24Z" fill="#666666"/>
<path d="M28.1666 24H30.6666V39H28.1666V24Z" fill="#666666"/>
<path d="M17.3334 24H19.8334V39H17.3334V24Z" fill="#666666"/>
<path d="M11.5 24H14V39H11.5V24Z" fill="#666666"/>
<path fill-rule="evenodd" clip-rule="evenodd" d="M39.9557 20.6134C40.4208 20.0756 40.3242 19.2931 39.74 18.8656L24.9189 8.01983C24.6239 7.80393 24.2609 7.71988 23.914 7.75886C23.6323 7.76643 23.3508 7.85469 23.1133 8.02827L8.44429 18.75C8.03021 18.9624 7.75 19.3702 7.75 19.8385C7.75 20.5257 8.35354 21.0828 9.09803 21.0828H9.12474H9.13577H17.8259C17.7308 20.6803 17.6806 20.2622 17.6806 19.8334C17.6806 19.4081 17.7299 18.9935 17.8235 18.5942H13.0062L24.0214 10.543L35.0236 18.5942H30.1767C30.2703 18.9935 30.3196 19.4081 30.3196 19.8334C30.3196 20.2622 30.2695 20.6803 30.1743 21.0828H38.8542C39.2663 21.0945 39.6792 20.9333 39.9557 20.6134Z" fill="#666666"/>
<circle cx="24" cy="19.8334" r="2.5" fill="#BF0000"/>
</svg>
