<svg width="48" height="48" viewBox="0 0 48 48" fill="none" xmlns="http://www.w3.org/2000/svg">
<path d="M34.8134 14.178L31.7153 17.1229C31.7358 17.3419 31.7491 17.5618 31.7491 17.7862C31.7491 21.7496 28.5362 24.9625 24.5728 24.9625C20.6093 24.9625 17.3964 21.7496 17.3964 17.7862C17.3964 13.8227 20.6093 10.6098 24.5728 10.6098C25.9687 10.6098 27.2676 11.0149 28.3706 11.7048L31.101 9.10972C29.2831 7.74139 27.0228 6.92859 24.5719 6.92859C18.5751 6.92859 13.7143 11.7894 13.7143 17.7862C13.7143 17.934 13.7196 18.08 13.725 18.226C13.4632 23.0921 21.1106 32.6855 24.6217 41.2872C28.1302 32.674 35.701 23.117 35.4179 18.2206C35.4232 18.0764 35.4286 17.9322 35.4286 17.7862C35.4295 16.5211 35.2114 15.3077 34.8134 14.178Z" fill="#666666"/>
<path d="M32.4136 10.2805L24.0977 18.1851L21.6281 15.5348C21.4207 15.3131 21.0699 15.3007 20.8483 15.5072L19.6616 16.6129C19.439 16.8204 19.4274 17.1711 19.634 17.3928L23.6045 21.6527C23.8119 21.8743 24.1609 21.885 24.3808 21.6758L34.049 12.4875C33.5977 11.6827 33.0466 10.942 32.4136 10.2805Z" fill="#BF0000"/>
</svg>
