<svg width="48" height="48" viewBox="0 0 48 48" fill="none" xmlns="http://www.w3.org/2000/svg">
<path fill-rule="evenodd" clip-rule="evenodd" d="M17.4286 22.2857H31.1429V20H17.4286V22.2857Z" fill="#666666"/>
<path fill-rule="evenodd" clip-rule="evenodd" d="M17.4286 16.5715H31.1429V14.2858H17.4286V16.5715Z" fill="#666666"/>
<path fill-rule="evenodd" clip-rule="evenodd" d="M27.4495 25.7142H17.4286V27.9999H25.085L27.4495 25.7142Z" fill="#666666"/>
<path fill-rule="evenodd" clip-rule="evenodd" d="M14 8.57148H34.5714V18.8284L36.8572 16.6189V8.57148C36.8572 7.30977 35.8331 6.28577 34.5714 6.28577H14C12.7383 6.28577 11.7143 7.30977 11.7143 8.57148V36.0001C11.7143 37.2618 12.7383 38.2858 14 38.2858H19.3646L19.7255 36.0001H14V8.57148Z" fill="#666666"/>
<path d="M42.0765 24.0997L42.0765 24.0997C42.8036 24.8267 42.8036 26.0057 42.0765 26.7327L40.7718 28.0374L40.7365 28.0727L40.7011 28.0374L39.4209 26.7581L39.3855 26.7227L39.4208 26.6873L40.6902 25.418L37.1536 21.8814L35.8842 23.1507L35.8489 23.1861L35.8135 23.1507L34.5342 21.8714L34.4988 21.836L34.5342 21.8007L35.8388 20.496L42.0765 24.0997ZM42.0765 24.0997L38.4719 20.496M42.0765 24.0997L38.4719 20.496M38.4719 20.496C37.7448 19.768 36.5659 19.768 35.8388 20.496L38.4719 20.496Z" fill="#BF0000" stroke="#BF0000" stroke-width="0.1"/>
<mask id="path-7-outside-1_769_11952" maskUnits="userSpaceOnUse" x="19.8571" y="22.1157" width="20" height="20" fill="black">
<rect fill="white" x="19.8571" y="22.1157" width="20" height="20"/>
<path fill-rule="evenodd" clip-rule="evenodd" d="M24.1334 35.3138L27.2585 38.438L23.2404 39.331L24.1334 35.3138ZM28.7795 37.4002L25.1713 33.792L33.2889 25.6744L36.8972 29.2817L28.7795 37.4002ZM39.4566 29.2818L38.1763 28.0024L33.2941 23.1184L33.2896 23.1157L22.6187 33.7857L20.8571 41.7143L28.7856 39.9527L39.4566 29.2818Z"/>
</mask>
<path fill-rule="evenodd" clip-rule="evenodd" d="M24.1334 35.3138L27.2585 38.438L23.2404 39.331L24.1334 35.3138ZM28.7795 37.4002L25.1713 33.792L33.2889 25.6744L36.8972 29.2817L28.7795 37.4002ZM39.4566 29.2818L38.1763 28.0024L33.2941 23.1184L33.2896 23.1157L22.6187 33.7857L20.8571 41.7143L28.7856 39.9527L39.4566 29.2818Z" fill="#BF0000"/>
<path d="M24.1334 35.3138L24.2041 35.2431L24.0753 35.1143L24.0358 35.2921L24.1334 35.3138ZM27.2585 38.438L27.2802 38.5356L27.458 38.4961L27.3292 38.3672L27.2585 38.438ZM23.2404 39.331L23.1428 39.3093L23.1087 39.4627L23.2621 39.4286L23.2404 39.331ZM28.7795 37.4002L28.7088 37.4709L28.7795 37.5416L28.8502 37.4709L28.7795 37.4002ZM25.1713 33.792L25.1006 33.7213L25.0299 33.792L25.1006 33.8627L25.1713 33.792ZM33.2889 25.6744L33.3596 25.6036L33.2889 25.5329L33.2182 25.6036L33.2889 25.6744ZM36.8972 29.2817L36.9679 29.3524L37.0386 29.2817L36.9679 29.211L36.8972 29.2817ZM39.4566 29.2818L39.5273 29.3525L39.598 29.2817L39.5272 29.211L39.4566 29.2818ZM38.1763 28.0024L38.1056 28.0731L38.1056 28.0731L38.1763 28.0024ZM33.2941 23.1184L33.3649 23.0477L33.3562 23.039L33.3456 23.0327L33.2941 23.1184ZM33.2896 23.1157L33.3411 23.03L33.2741 22.9898L33.2189 23.045L33.2896 23.1157ZM22.6187 33.7857L22.548 33.715L22.5274 33.7356L22.5211 33.764L22.6187 33.7857ZM20.8571 41.7143L20.7595 41.6926L20.7254 41.846L20.8788 41.8119L20.8571 41.7143ZM28.7856 39.9527L28.8073 40.0503L28.8358 40.044L28.8564 40.0234L28.7856 39.9527ZM24.0627 35.3845L27.1878 38.5087L27.3292 38.3672L24.2041 35.2431L24.0627 35.3845ZM27.2368 38.3404L23.2187 39.2334L23.2621 39.4286L27.2802 38.5356L27.2368 38.3404ZM23.338 39.3527L24.231 35.3355L24.0358 35.2921L23.1428 39.3093L23.338 39.3527ZM28.8502 37.3295L25.242 33.7213L25.1006 33.8627L28.7088 37.4709L28.8502 37.3295ZM25.242 33.8627L33.3596 25.7451L33.2182 25.6036L25.1006 33.7213L25.242 33.8627ZM33.2182 25.7451L36.8265 29.3524L36.9679 29.211L33.3596 25.6036L33.2182 25.7451ZM36.8264 29.211L28.7088 37.3295L28.8502 37.4709L36.9679 29.3524L36.8264 29.211ZM39.5272 29.211L38.247 27.9317L38.1056 28.0731L39.3859 29.3525L39.5272 29.211ZM38.247 27.9317L33.3649 23.0477L33.2234 23.1891L38.1056 28.0731L38.247 27.9317ZM33.3456 23.0327L33.3411 23.03L33.2382 23.2015L33.2427 23.2042L33.3456 23.0327ZM33.2189 23.045L22.548 33.715L22.6894 33.8564L33.3603 23.1864L33.2189 23.045ZM22.5211 33.764L20.7595 41.6926L20.9547 41.7359L22.7163 33.8074L22.5211 33.764ZM20.8788 41.8119L28.8073 40.0503L28.764 39.855L20.8354 41.6166L20.8788 41.8119ZM28.8564 40.0234L39.5273 29.3525L39.3858 29.211L28.7149 39.8819L28.8564 40.0234Z" fill="#BF0000" mask="url(#path-7-outside-1_769_11952)"/>
</svg>
