<svg width="48" height="48" viewBox="0 0 48 48" fill="none" xmlns="http://www.w3.org/2000/svg">
<path d="M41.5 21.5V11.5C41.5 10.837 41.2366 10.2011 40.7678 9.73223C40.2989 9.26339 39.663 9 39 9H9C8.33696 9 7.70107 9.26339 7.23223 9.73223C6.76339 10.2011 6.5 10.837 6.5 11.5V21.5C7.16304 21.5 7.79893 21.7634 8.26777 22.2322C8.73661 22.7011 9 23.337 9 24C9 24.663 8.73661 25.2989 8.26777 25.7678C7.79893 26.2366 7.16304 26.5 6.5 26.5V36.5C6.5 37.163 6.76339 37.7989 7.23223 38.2678C7.70107 38.7366 8.33696 39 9 39H39C39.663 39 40.2989 38.7366 40.7678 38.2678C41.2366 37.7989 41.5 37.163 41.5 36.5V26.5C40.837 26.5 40.2011 26.2366 39.7322 25.7678C39.2634 25.2989 39 24.663 39 24C39 23.337 39.2634 22.7011 39.7322 22.2322C40.2011 21.7634 40.837 21.5 41.5 21.5ZM39 19.6711C38.24 20.1097 37.6088 20.7407 37.1699 21.5006C36.7311 22.2604 36.5 23.1225 36.5 24C36.5 24.8775 36.7311 25.7396 37.1699 26.4994C37.6088 27.2593 38.24 27.8903 39 28.3289V36.5H9V28.3289C9.76005 27.8903 10.3912 27.2593 10.8301 26.4994C11.2689 25.7396 11.5 24.8775 11.5 24C11.5 23.1225 11.2689 22.2604 10.8301 21.5006C10.3912 20.7407 9.76005 20.1097 9 19.6711V11.5H39V19.6711Z" fill="#666666"/>
<path d="M19 21.5H16.5V26.5H19V21.5Z" fill="#BF0000"/>
<path d="M19 14H16.5V19H19V14Z" fill="#BF0000"/>
<path d="M19 29H16.5V34H19V29Z" fill="#BF0000"/>
</svg>
