<svg width="48" height="48" viewBox="0 0 48 48" fill="none" xmlns="http://www.w3.org/2000/svg">
<path fill-rule="evenodd" clip-rule="evenodd" d="M24 17.125C24.4179 17.125 24.8082 17.3339 25.04 17.6816L26.4181 19.7488L27.9147 17.1298L30.875 17.125L27.5853 22.7452C27.3703 23.1213 26.976 23.3593 26.543 23.3743C26.11 23.3892 25.7002 23.1788 25.4599 22.8184L24 20.6285L22.54 22.8184C22.2997 23.1788 21.8899 23.3892 21.457 23.3743C21.024 23.3593 20.6296 23.1213 20.4147 22.7452L17.125 17.125L20.0853 17.1298L21.5818 19.7488L22.9599 17.6816C23.1918 17.3339 23.582 17.125 24 17.125Z" fill="#BF0000"/>
<path fill-rule="evenodd" clip-rule="evenodd" d="M17.3709 11.1469C21.032 7.48571 26.9679 7.48571 30.6291 11.1469C33.4679 13.9857 34.1297 18.5859 32.5043 22.2422C31.6093 24.2557 30.6151 26.2648 29.8423 27.7745C29.4564 28.5283 29.1269 29.1553 28.8942 29.5933L28.8773 29.625H19.1226L19.1058 29.5933C18.8731 29.1553 18.5436 28.5283 18.1577 27.7745C17.3848 26.2648 16.3906 24.2557 15.4956 22.2422C13.8703 18.5859 14.532 13.9857 17.3709 11.1469ZM29.625 30.875C30.7221 31.474 30.7221 31.4739 30.7222 31.4738L29.625 30.875ZM17.2773 31.4729L17.2759 31.4703L17.2707 31.4609L17.2511 31.4248L17.1764 31.2866C17.1114 31.166 17.0169 30.99 16.8981 30.7663C16.6604 30.319 16.3249 29.6806 15.9323 28.9137C15.1483 27.3821 14.1317 25.3286 13.2111 23.2577C11.2053 18.7454 11.966 13.0162 15.6031 9.37911C20.2406 4.74163 27.7594 4.74163 32.3969 9.37911C36.034 13.0162 36.7946 18.7454 34.7888 23.2577C33.8683 25.3286 32.8517 27.3821 32.0676 28.9137C31.6751 29.6806 31.3396 30.319 31.1019 30.7663C30.983 30.99 30.8886 31.166 30.8236 31.2866L30.7489 31.4248L30.7292 31.4609L30.7241 31.4703L30.7222 31.4738L30.3667 32.125H17.6333L17.2773 31.4729ZM18.375 30.875L17.2773 31.4729C17.2773 31.473 17.2778 31.474 18.375 30.875ZM29 36.5H19V33.9999H29V36.5ZM27.75 40.875H20.25V38.3749H27.75V40.875Z" fill="#666666"/>
</svg>
