<svg width="48" height="48" viewBox="0 0 48 48" fill="none" xmlns="http://www.w3.org/2000/svg">
<path fill-rule="evenodd" clip-rule="evenodd" d="M22.75 37.75H25.25V24H22.75V37.75ZM10.25 21.5V17.75H17.75H20.25V21.5H10.25ZM15.25 12.75C15.25 11.3712 16.3713 10.25 17.75 10.25C19.1287 10.25 20.25 11.3712 20.25 12.75V15.25H17.75C16.3713 15.25 15.25 14.1287 15.25 12.75ZM22.75 21.5H25.25V17.75H22.75V21.5ZM27.75 12.75C27.75 11.3712 28.8713 10.25 30.25 10.25C31.6287 10.25 32.75 11.3712 32.75 12.75C32.75 14.1287 31.6287 15.25 30.25 15.25H27.75V12.75ZM37.75 21.5H27.75V17.75H30.25H37.75V21.5ZM40.25 24V17.75C40.25 16.375 39.125 15.25 37.75 15.25H34.5562C34.9862 14.5125 35.25 13.665 35.25 12.75C35.25 9.98875 33.0112 7.75 30.25 7.75C27.4888 7.75 25.25 9.98875 25.25 12.75V15.25H22.75V12.75C22.75 9.98875 20.5113 7.75 17.75 7.75C14.9887 7.75 12.75 9.98875 12.75 12.75C12.75 13.665 13.0137 14.5125 13.4437 15.25H10.25C8.875 15.25 7.75 16.375 7.75 17.75V24H20.25V37.75H12.75V26.5H10.25V37.75C10.25 39.125 11.375 40.25 12.75 40.25H35.25C36.625 40.25 37.75 39.125 37.75 37.75V26.5H35.25V37.75H27.75V24H40.25Z" fill="#666666"/>
<path fill-rule="evenodd" clip-rule="evenodd" d="M34.5648 15.2353C34.9897 14.5012 35.25 13.6589 35.25 12.75C35.25 9.98875 33.0112 7.75 30.25 7.75C27.4887 7.75 25.25 9.98875 25.25 12.75V15.2353H27.75V12.75C27.75 11.3712 28.8713 10.25 30.25 10.25C31.6287 10.25 32.75 11.3712 32.75 12.75C32.75 14.0368 31.7733 15.0993 30.5222 15.2353H34.5648ZM22.75 15.2353V12.75C22.75 9.98875 20.5113 7.75 17.75 7.75C14.9887 7.75 12.75 9.98875 12.75 12.75C12.75 13.6589 13.0103 14.5012 13.4352 15.2353H17.4778C16.2267 15.0993 15.25 14.0368 15.25 12.75C15.25 11.3712 16.3712 10.25 17.75 10.25C19.1287 10.25 20.25 11.3712 20.25 12.75V15.2353H22.75Z" fill="#BF0000"/>
<rect x="20.2353" y="14.5883" width="2.52941" height="23.1765" fill="#BF0000"/>
<rect x="25.2353" y="14.5883" width="2.52941" height="23.1765" fill="#BF0000"/>
</svg>
