<svg width="48" height="48" viewBox="0 0 48 48" fill="none" xmlns="http://www.w3.org/2000/svg">
<path d="M36.5 38.1667C38.341 38.1667 39.8334 36.6743 39.8334 34.8333C39.8334 32.9924 38.341 31.5 36.5 31.5C34.6591 31.5 33.1667 32.9924 33.1667 34.8333C33.1667 36.6743 34.6591 38.1667 36.5 38.1667Z" fill="#666666"/>
<path d="M17.75 10.6471C17.75 9.96753 18.3096 9.41663 19 9.41663C19.6904 9.41663 20.25 9.96753 20.25 10.6471V34.4362C20.25 35.1157 19.6904 35.6666 19 35.6666C18.3096 35.6666 17.75 35.1157 17.75 34.4362V10.6471Z" fill="#666666"/>
<path d="M30.7808 14.2654L18.4736 8.1118C18.1412 7.94558 17.75 8.18733 17.75 8.55902V20.3068C17.75 20.6705 18.1259 20.9125 18.4569 20.762L30.7641 15.1678C31.147 14.9938 31.157 14.4535 30.7808 14.2654Z" fill="#BF0000"/>
<path fill-rule="evenodd" clip-rule="evenodd" d="M20.2495 30.2884C19.8384 30.2629 19.4209 30.25 19 30.25C16.9386 30.25 14.961 30.5591 13.4081 31.1414C12.6409 31.4291 11.8464 31.832 11.1987 32.4062C10.5539 32.9779 9.83331 33.9331 9.83331 35.25C9.83331 36.5669 10.5539 37.5221 11.1987 38.0938C11.8464 38.668 12.6409 39.0709 13.4081 39.3586C14.961 39.9409 16.9386 40.25 19 40.25C21.0613 40.25 23.0389 39.9409 24.5918 39.3586C25.3591 39.0709 26.1536 38.668 26.8013 38.0938C27.446 37.5221 28.1666 36.5669 28.1666 35.25C28.1666 33.9331 27.446 32.9779 26.8013 32.4062C26.2067 31.8791 25.4884 31.4963 24.781 31.2145L24.7798 31.2175C24.6673 31.1845 24.5481 31.1667 24.4249 31.1667C23.7299 31.1667 23.1666 31.7301 23.1666 32.4251C23.1666 32.8873 23.4158 33.2914 23.7873 33.5102C24.9506 33.9602 25.6666 34.5737 25.6666 35.25C25.6666 36.6307 22.6819 37.75 19 37.75C15.3181 37.75 12.3333 36.6307 12.3333 35.25C12.3333 33.8693 15.3181 32.75 19 32.75C19.427 32.75 19.8447 32.7651 20.2495 32.7938V30.2884Z" fill="#666666"/>
</svg>
