<svg width="48" height="48" viewBox="0 0 48 48" fill="none" xmlns="http://www.w3.org/2000/svg">
<path fill-rule="evenodd" clip-rule="evenodd" d="M24 7.75L6.5 25.25H11.5V37.75C11.5 39.13 12.62 40.25 14 40.25H24V37.75H14V25.25V22.75H12.535L24 11.285L35.4637 22.75H34V25.25V37.75H24V40.25H34C35.38 40.25 36.5 39.13 36.5 37.75V25.25H41.5L24 7.75Z" fill="#666666"/>
<path fill-rule="evenodd" clip-rule="evenodd" d="M19.6673 22.3986C18.2349 22.9919 16.9334 23.8615 15.8371 24.9578L17.1629 26.2837C18.0851 25.3615 19.1799 24.6299 20.3848 24.1308C21.5897 23.6318 22.8811 23.3749 24.1853 23.3749C25.4895 23.3749 26.7809 23.6318 27.9858 24.1308C29.1907 24.6299 30.2855 25.3615 31.2077 26.2837L32.5336 24.9578C31.4373 23.8615 30.1357 22.9919 28.7034 22.3986C27.271 21.8053 25.7357 21.4999 24.1853 21.4999C22.6349 21.4999 21.0997 21.8053 19.6673 22.3986ZM20.9353 26.0924C19.9636 26.4949 19.0808 27.0848 18.3371 27.8285L19.6629 29.1543C20.2325 28.5847 20.9086 28.1329 21.6528 27.8247C22.397 27.5165 23.1945 27.3578 24 27.3578C24.8055 27.3578 25.6031 27.5165 26.3472 27.8247C27.0914 28.1329 27.7675 28.5847 28.3371 29.1543L29.6629 27.8285C28.9193 27.0848 28.0364 26.4949 27.0648 26.0924C26.0931 25.69 25.0517 25.4828 24 25.4828C22.9483 25.4828 21.9069 25.69 20.9353 26.0924ZM20.8371 30.6648C21.2525 30.2494 21.7456 29.9199 22.2883 29.6951C22.8309 29.4703 23.4126 29.3546 24 29.3546C24.5874 29.3546 25.1691 29.4703 25.7118 29.6951C26.2545 29.9199 26.7476 30.2494 27.1629 30.6648L25.8371 31.9906C25.5958 31.7493 25.3094 31.558 24.9942 31.4274C24.679 31.2968 24.3412 31.2296 24 31.2296C23.6588 31.2296 23.321 31.2968 23.0058 31.4274C22.6906 31.558 22.4042 31.7493 22.1629 31.9906L20.8371 30.6648ZM22.75 34C22.75 33.31 23.31 32.75 24 32.75C24.69 32.75 25.25 33.31 25.25 34C25.25 34.69 24.69 35.25 24 35.25C23.31 35.25 22.75 34.69 22.75 34Z" fill="#BF0000"/>
</svg>
