<svg width="48" height="48" viewBox="0 0 48 48" fill="none" xmlns="http://www.w3.org/2000/svg">
<path fill-rule="evenodd" clip-rule="evenodd" d="M19 36.5C17.62 36.5 16.5 37.62 16.5 39C16.5 40.38 17.62 41.5 19 41.5C20.38 41.5 21.5 40.38 21.5 39C21.5 37.62 20.38 36.5 19 36.5Z" fill="#666666"/>
<path fill-rule="evenodd" clip-rule="evenodd" d="M36.5 36.5C35.12 36.5 34 37.62 34 39C34 40.38 35.12 41.5 36.5 41.5C37.88 41.5 39 40.38 39 39C39 37.62 37.88 36.5 36.5 36.5Z" fill="#666666"/>
<path fill-rule="evenodd" clip-rule="evenodd" d="M18.6663 30.435L15.555 9.6925C15.2762 7.8425 13.7175 6.5 11.8463 6.5H7.75V9H11.8463C12.47 9 12.99 9.44625 13.0825 10.0638L16.1938 30.8062C16.4725 32.6562 18.0312 34 19.9025 34H39V31.5H19.9025C19.2788 31.5 18.7587 31.0525 18.6663 30.435Z" fill="#666666"/>
<path fill-rule="evenodd" clip-rule="evenodd" d="M18.1747 10.25L18.5497 12.75H37.5647L36.8385 22.9287C36.7447 24.23 35.6485 25.25 34.3447 25.25H20.4247L20.7997 27.75H34.3447C36.9672 27.75 39.1447 25.7225 39.3322 23.1062L40.2497 10.25H18.1747Z" fill="#BF0000"/>
</svg>
