<svg width="48" height="48" viewBox="0 0 48 48" fill="none" xmlns="http://www.w3.org/2000/svg">
<path d="M21.5 27.75C21.8315 27.75 22.1494 27.8817 22.3839 28.1161C22.6183 28.3505 22.75 28.6685 22.75 29V30.25H15.8375V32.75H25.25V29C25.25 28.0054 24.8549 27.0516 24.1517 26.3483C23.4484 25.6451 22.4946 25.25 21.5 25.25H11.5L6.5 30.25L8.26247 32.0125L12.5375 27.75H21.5Z" fill="#666666"/>
<path d="M25.25 21.5001C25.25 21.5001 31.8 17.8125 33.6 13.125C33.8654 12.5357 34.0018 11.8964 34 11.25C33.9934 9.98581 33.4857 8.77577 32.5882 7.88533C31.6907 6.99489 30.4767 6.49673 29.2125 6.50006C28.4328 6.49612 27.664 6.68317 26.9733 7.04488C26.2825 7.40659 25.6909 7.93193 25.25 8.57503C24.8091 7.93193 24.2175 7.40659 23.5268 7.04488C22.836 6.68317 22.0672 6.49612 21.2875 6.50006C20.0233 6.49673 18.8093 6.99489 17.9118 7.88533C17.0144 8.77577 16.5066 9.98581 16.5 11.25C16.4983 11.8964 16.6347 12.5357 16.9 13.125C18.7 17.85 25.25 21.5001 25.25 21.5001ZM21.2875 9.00006C21.4779 9.00657 21.6667 9.03592 21.8501 9.08753C22.1261 9.17654 22.3904 9.29825 22.6375 9.45004C23.7076 10.1278 24.6028 11.0486 25.25 12.1375C25.8973 11.0486 26.7924 10.1278 27.8626 9.45004C28.1097 9.29825 28.374 9.17654 28.65 9.08753C28.8333 9.03592 29.0222 9.00657 29.2125 9.00006C29.5107 8.99676 29.8066 9.05242 30.0832 9.16386C30.3597 9.27531 30.6115 9.4403 30.8241 9.6494C31.0367 9.8585 31.2059 10.1075 31.3219 10.3822C31.4379 10.6569 31.4984 10.9519 31.5 11.25C31.4987 11.5743 31.4262 11.8944 31.2875 12.1875C31.1672 12.4993 31.0208 12.8004 30.85 13.0875V13.15C30.0071 14.4579 28.9606 15.6226 27.75 16.6C26.9524 17.2829 26.1178 17.9214 25.25 18.5125C24.3822 17.9214 23.5476 17.2829 22.75 16.6C21.5498 15.6083 20.5158 14.4309 19.6875 13.1125V13.05C19.5167 12.7629 19.3703 12.4618 19.25 12.15C19.1113 11.8569 19.0388 11.5368 19.0376 11.2125C19.0506 10.6234 19.2929 10.0625 19.7131 9.64928C20.1333 9.23608 20.6982 9.00317 21.2875 9.00006Z" fill="#BF0000"/>
<path d="M39.9375 25.6751C39.4567 25.3266 38.9001 25.0973 38.3133 25.006C37.7266 24.9147 37.1265 24.9641 36.5625 25.15L27.8125 28.0875V30.725L37.4125 27.525C37.6005 27.463 37.8005 27.4466 37.9961 27.477C38.1917 27.5075 38.3773 27.5839 38.5375 27.7C38.6991 27.8151 38.8309 27.9669 38.9222 28.1429C39.0135 28.319 39.0616 28.5142 39.0625 28.7125V29.9625L26.2625 36.5001H14.275L13.7126 37.05L11.05 39.725L12.8125 41.5001L15.3125 39.0001H26.8625L41.5625 31.5001V28.7125C41.5605 28.112 41.4112 27.5211 41.1279 26.9916C40.8447 26.4621 40.436 26.01 39.9375 25.6751Z" fill="#666666"/>
</svg>
