<svg width="48" height="48" viewBox="0 0 48 48" fill="none" xmlns="http://www.w3.org/2000/svg">
<path fill-rule="evenodd" clip-rule="evenodd" d="M27.2369 6.54512C27.5781 6.511 27.9219 6.511 28.2631 6.54512C31.935 6.91231 34.0437 10.9053 32.2767 14.1449L31.6739 15.25H40.25C40.9404 15.25 41.5 15.8097 41.5 16.5V19C41.5 21.0711 39.8211 22.75 37.75 22.75H32.75V20.25H37.75C38.4404 20.25 39 19.6904 39 19V17.75H30.25C29.5596 17.75 29 17.1904 29 16.5V15.25C29 15.0409 29.0525 14.8351 29.1526 14.6515L30.0819 12.9478C30.9922 11.2789 29.9059 9.22187 28.0143 9.03271C27.8385 9.01514 27.6615 9.01514 27.4857 9.03271C25.5941 9.22187 24.5078 11.2789 25.4181 12.9478L26.3474 14.6515C26.4475 14.8351 26.5 15.0409 26.5 15.25V16.5C26.5 17.1904 25.9404 17.75 25.25 17.75H16.5V19C16.5 19.6904 17.0596 20.25 17.75 20.25H24V24.625L21.5 23.3751V22.75H17.75C15.6789 22.75 14 21.0711 14 19V16.5C14 15.8097 14.5596 15.25 15.25 15.25H23.8261L23.2233 14.1449C21.4563 10.9053 23.565 6.91231 27.2369 6.54512Z" fill="#666666"/>
<path fill-rule="evenodd" clip-rule="evenodd" d="M31.5 39L31.5 20.25L34 20.25L34 39C34 40.3802 32.8816 41.5 31.5004 41.5L23.9996 41.5C22.6184 41.5 21.5 40.3802 21.5 39L21.5 38.375L24 35.25L24 39L26.5 39L26.5 29L29 29L29 39L31.5 39Z" fill="#666666"/>
<path d="M15.25 40.25C15.25 40.25 21.8 36.5625 23.6 31.875C23.8653 31.2856 24.0017 30.6464 24 30C23.9934 28.7358 23.4856 27.5258 22.5882 26.6353C21.6907 25.7449 20.4767 25.2467 19.2125 25.2501C18.4328 25.2461 17.664 25.4332 16.9732 25.7949C16.2825 26.1566 15.6909 26.6819 15.25 27.325C14.8091 26.6819 14.2175 26.1566 13.5268 25.7949C12.836 25.4332 12.0672 25.2461 11.2875 25.2501C10.0233 25.2467 8.8093 25.7449 7.91183 26.6353C7.01436 27.5258 6.50663 28.7358 6.50002 30C6.49828 30.6464 6.63467 31.2856 6.90002 31.875C8.70002 36.6 15.25 40.25 15.25 40.25ZM11.2875 27.7501C11.4779 27.7566 11.6667 27.7859 11.85 27.8375C12.1261 27.9265 12.3904 28.0482 12.6375 28.2C13.7076 28.8778 14.6028 29.7986 15.25 30.8875C15.8973 29.7986 16.7924 28.8778 17.8625 28.2C18.1096 28.0482 18.3739 27.9265 18.65 27.8375C18.8333 27.7859 19.0221 27.7566 19.2125 27.7501C19.5106 27.7468 19.8066 27.8024 20.0831 27.9139C20.3597 28.0253 20.6115 28.1903 20.8241 28.3994C21.0367 28.6085 21.2058 28.8575 21.3218 29.1322C21.4378 29.4069 21.4984 29.7018 21.5 30C21.4987 30.3243 21.4262 30.6444 21.2875 30.9375C21.1672 31.2493 21.0208 31.5503 20.85 31.8375V31.9C20.0071 33.2078 18.9606 34.3725 17.75 35.35C16.9524 36.0329 16.1178 36.6713 15.25 37.2625C14.3822 36.6713 13.5476 36.0329 12.75 35.35C11.5497 34.3582 10.5158 33.1809 9.6875 31.8625V31.8C9.51665 31.5128 9.37033 31.2118 9.25003 30.9C9.11134 30.6069 9.03882 30.2868 9.03755 29.9625C9.05056 29.3733 9.29292 28.8125 9.71313 28.3993C10.1333 27.9861 10.6982 27.7532 11.2875 27.7501Z" fill="#BF0000"/>
</svg>
