<svg width="48" height="48" viewBox="0 0 48 48" fill="none" xmlns="http://www.w3.org/2000/svg">
<path fill-rule="evenodd" clip-rule="evenodd" d="M17.75 38.6435L9.00001 35.9647L8.99251 18.4647L17.4663 21.036C17.56 21.0647 17.6563 21.0772 17.75 21.0997V38.6435ZM37.7575 38.1597L30.6388 35.7597C30.5113 35.7172 30.38 35.6972 30.25 35.6635V30.0172C29.6087 29.3472 28.7225 28.3835 27.75 27.2285V35.6935C27.595 35.736 27.4363 35.7647 27.285 35.8235L20.25 38.496V21.0447C20.3912 21.006 20.5363 20.9797 20.675 20.9272L22.8725 20.0935C22.4875 19.3135 22.17 18.5372 21.935 17.776L19.7887 18.5897C19.5062 18.696 19.2087 18.7497 18.9113 18.7497C18.6687 18.7497 18.4275 18.7147 18.1925 18.6435L9.7175 16.0722C9.47625 15.9997 9.23375 15.9647 8.995 15.9647C7.66375 15.9647 6.5 17.056 6.5 18.4935V35.9647C6.5 37.0822 7.22375 38.066 8.2825 38.3872L18.1925 41.3935C18.4275 41.4647 18.6687 41.4997 18.9113 41.4997C19.2087 41.4997 19.5062 41.446 19.7887 41.3385L28.1712 38.1597C28.4538 38.0535 28.7512 37.9997 29.0487 37.9997C29.3162 37.9997 29.5838 38.0435 29.84 38.1297L36.9588 40.5297C37.225 40.6185 37.4925 40.661 37.7537 40.661C39.0812 40.661 40.25 39.5722 40.25 38.131V24.0085C39.4275 25.1697 38.5662 26.261 37.7525 27.226L37.7575 38.1597Z" fill="#666666"/>
<path fill-rule="evenodd" clip-rule="evenodd" d="M32.75 9C36.1962 9 39 11.8037 39 15.25C39 17.5175 35.7563 21.995 32.75 25.3562C29.7438 21.995 26.5 17.5175 26.5 15.25C26.5 11.8037 29.3038 9 32.75 9ZM41.5 15.25C41.5 10.4175 37.5825 6.5 32.75 6.5C27.9175 6.5 24 10.4175 24 15.25C24 20.25 32.75 29 32.75 29C32.75 29 41.5 20.25 41.5 15.25Z" fill="#BF0000"/>
<path fill-rule="evenodd" clip-rule="evenodd" d="M35.875 15.25C35.875 13.5237 34.4763 12.125 32.75 12.125C31.0237 12.125 29.625 13.5237 29.625 15.25C29.625 16.9763 31.0237 18.375 32.75 18.375C34.4763 18.375 35.875 16.9763 35.875 15.25Z" fill="#BF0000"/>
</svg>
