<svg width="48" height="48" viewBox="0 0 48 48" fill="none" xmlns="http://www.w3.org/2000/svg">
<path fill-rule="evenodd" clip-rule="evenodd" d="M12 9.74038C12 8.22691 13.2269 7 14.7404 7H33.0096C34.5231 7 35.75 8.22691 35.75 9.74038V38.0577C35.75 39.5712 34.5231 40.7981 33.0096 40.7981H14.7404C13.2269 40.7981 12 39.5712 12 38.0577V9.74038ZM14.7404 9.74038V35.3173H33.0096V9.74038H14.7404ZM22.0481 37.1442C21.5436 37.1442 21.1346 37.5532 21.1346 38.0577C21.1346 38.5622 21.5436 38.9712 22.0481 38.9712H25.7019C26.2064 38.9712 26.6154 38.5622 26.6154 38.0577C26.6154 37.5532 26.2064 37.1442 25.7019 37.1442H22.0481Z" fill="#666666"/>
<g clip-path="url(#clip0_769_11953)">
<path d="M20.7906 28.6094L19.1813 27.2587H30.4655L20.7906 28.6094Z" fill="#FF008C"/>
<path d="M22.6229 26.2414V23.2557H23.9192L26.1631 26.2414H28.4632L25.7412 22.6381C26.3166 22.2302 26.7472 21.6499 26.971 20.9811C27.1948 20.3123 27.2 19.5896 26.986 18.9176C26.772 18.2456 26.3498 17.6591 25.7804 17.2428C25.2111 16.8266 24.5241 16.6022 23.8188 16.6022H20.7906V26.2414H22.6229ZM22.6229 18.4276H23.8137C24.2103 18.4276 24.5907 18.5851 24.8711 18.8656C25.1516 19.146 25.3091 19.5264 25.3091 19.923C25.3091 20.3196 25.1516 20.6999 24.8711 20.9804C24.5907 21.2608 24.2103 21.4184 23.8137 21.4184H22.6229V18.4276Z" fill="#FF008C"/>
</g>
<defs>
<clipPath id="clip0_769_11953">
<rect width="15.5288" height="15.5288" fill="white" transform="translate(16.3845 14.673)"/>
</clipPath>
</defs>
</svg>
