<svg width="48" height="48" viewBox="0 0 48 48" fill="none" xmlns="http://www.w3.org/2000/svg">
<path d="M16 21.3334C14.5334 21.3334 13.3334 22.5334 13.3334 24C13.3334 25.4667 14.5334 26.6667 16 26.6667C17.4667 26.6667 18.6667 25.4667 18.6667 24C18.6667 22.5334 17.4667 21.3334 16 21.3334ZM32 21.3334C30.5334 21.3334 29.3334 22.5334 29.3334 24C29.3334 25.4667 30.5334 26.6667 32 26.6667C33.4667 26.6667 34.6667 25.4667 34.6667 24C34.6667 22.5334 33.4667 21.3334 32 21.3334ZM24 21.3334C22.5334 21.3334 21.3334 22.5334 21.3334 24C21.3334 25.4667 22.5334 26.6667 24 26.6667C25.4667 26.6667 26.6667 25.4667 26.6667 24C26.6667 22.5334 25.4667 21.3334 24 21.3334Z" fill="#888888"/>
</svg>
