<svg width="48" height="48" viewBox="0 0 48 48" fill="none" xmlns="http://www.w3.org/2000/svg">
<path fill-rule="evenodd" clip-rule="evenodd" d="M38.9055 12.9916C39.2269 13.227 39.4169 13.6016 39.4169 14V31.3572H36.9169V15.7067L23.1669 20.0584V36.5H20.6669V19.1429C20.6669 18.5978 21.02 18.1156 21.5397 17.9511L37.7897 12.8083C38.1696 12.688 38.584 12.7561 38.9055 12.9916Z" fill="#666666"/>
<path d="M39.3308 30.6413C39.7808 32.3208 38.2913 34.1793 36.004 34.7922C33.7166 35.4051 31.4974 34.5404 31.0474 32.8608C30.5974 31.1813 32.0868 29.3228 34.3742 28.7099C36.6616 28.097 38.8807 28.9617 39.3308 30.6413Z" fill="#666666"/>
<path d="M23.0841 35.6843C23.5341 37.3638 22.0478 39.2214 19.7643 39.8332C17.4809 40.4451 15.2649 39.5796 14.8149 37.9C14.3648 36.2204 15.8511 34.3629 18.1346 33.751C20.4181 33.1392 22.6341 34.0047 23.0841 35.6843Z" fill="#666666"/>
<path fill-rule="evenodd" clip-rule="evenodd" d="M38.5345 20.1947L22.2845 25.1947L21.5493 22.8053L37.7993 17.8053L38.5345 20.1947Z" fill="#666666"/>
<path d="M11.0424 27.0665C10.0575 25.3606 9.41824 23.4774 9.16113 21.5244C8.90401 19.5714 9.03408 17.587 9.54391 15.6842C10.0537 13.7815 10.9333 11.9979 12.1325 10.4351L14.1159 11.957C13.1166 13.2593 12.3836 14.7457 11.9587 16.3313C11.5339 17.9169 11.4255 19.5706 11.6397 21.1981C11.854 22.8256 12.3867 24.3949 13.2075 25.8165L11.0424 27.0665Z" fill="#BF0000"/>
<path d="M15.3726 24.5665C14.7159 23.4292 14.2898 22.1738 14.1184 20.8718C13.947 19.5698 14.0337 18.2468 14.3736 16.9783C14.7134 15.7099 15.2998 14.5208 16.0993 13.4789L18.0827 15.0008C17.4831 15.7822 17.0433 16.674 16.7884 17.6254C16.5335 18.5767 16.4684 19.569 16.597 20.5455C16.7255 21.522 17.0452 22.4636 17.5376 23.3165L15.3726 24.5665Z" fill="#BF0000"/>
</svg>
