<svg width="48" height="48" viewBox="0 0 48 48" fill="none" xmlns="http://www.w3.org/2000/svg">
<path d="M24.9643 13.7142H12.1072V16.5714H24.9643V13.7142Z" fill="#666666"/>
<path d="M24.9643 19.4283H12.1072V22.2855H24.9643V19.4283Z" fill="#666666"/>
<path fill-rule="evenodd" clip-rule="evenodd" d="M24.9643 25.6398V25.1428H12.1072V28H23.0904C23.5975 27.1232 24.2304 26.3283 24.9643 25.6398Z" fill="#666666"/>
<path fill-rule="evenodd" clip-rule="evenodd" d="M36.932 24.1145V17.9844H30.857V6.57141H6.57147V33.1648C6.57147 35.8362 8.73521 38 11.4066 38H22.9311C22.5262 37.2456 22.2127 36.4348 22.0054 35.5824H11.4066C10.077 35.5824 8.98905 34.4945 8.98905 33.1648V8.98899H28.1784V23.5905C29.0219 23.2527 29.9205 23.0235 30.857 22.9199V20.4052H34.5106V23.1657C35.3652 23.3801 36.1773 23.7013 36.932 24.1145Z" fill="#666666"/>
<path d="M33.3843 31.2547C33.081 31.0655 32.7275 30.9723 32.3704 30.9876H31.5629V33.2036H32.3704C32.7269 33.2207 33.0803 33.1297 33.3843 32.9426C33.5149 32.8478 33.6188 32.7208 33.6859 32.574C33.7529 32.4272 33.7808 32.2655 33.7668 32.1047C33.7806 31.9422 33.7527 31.7789 33.6857 31.6301C33.6188 31.4814 33.5151 31.3522 33.3843 31.2547Z" fill="#BF0000"/>
<path d="M32 24.6428C30.3189 24.6428 28.6755 25.1413 27.2777 26.0753C25.8798 27.0093 24.7904 28.3368 24.147 29.89C23.5037 31.4432 23.3354 33.1523 23.6633 34.8011C23.9913 36.4499 24.8008 37.9645 25.9896 39.1532C27.1783 40.342 28.6929 41.1515 30.3417 41.4795C31.9906 41.8075 33.6996 41.6391 35.2528 40.9958C36.806 40.3525 38.1335 39.263 39.0675 37.8652C40.0015 36.4674 40.5 34.824 40.5 33.1428C40.5 30.8885 39.6045 28.7265 38.0104 27.1324C36.4164 25.5384 34.2543 24.6428 32 24.6428ZM34.9629 33.41C34.7176 33.7793 34.3692 34.0685 33.9611 34.2418C33.4859 34.4459 32.9724 34.5453 32.4554 34.5332H31.5629V36.8403H30.045V29.67H32.4736C32.9899 29.6591 33.5028 29.7563 33.9793 29.9553C34.3888 30.1263 34.7377 30.416 34.9811 30.7871C35.2255 31.1821 35.3479 31.6404 35.3332 32.1046C35.3427 32.5669 35.2137 33.0215 34.9629 33.41Z" fill="#BF0000"/>
</svg>
