<svg width="48" height="48" viewBox="0 0 48 48" fill="none" xmlns="http://www.w3.org/2000/svg">
<path d="M15.25 42.7501C15.25 42.7501 21.8 39.0625 23.6 34.375C23.8654 33.7857 24.0018 33.1464 24 32.5C23.9934 31.2358 23.4857 30.0258 22.5882 29.1353C21.6907 28.2449 20.4767 27.7467 19.2125 27.7501C18.4328 27.7461 17.664 27.9332 16.9733 28.2949C16.2825 28.6566 15.6909 29.1819 15.25 29.825C14.8091 29.1819 14.2175 28.6566 13.5268 28.2949C12.836 27.9332 12.0672 27.7461 11.2875 27.7501C10.0233 27.7467 8.80931 28.2449 7.91184 29.1353C7.01436 30.0258 6.50663 31.2358 6.50002 32.5C6.49828 33.1464 6.63467 33.7857 6.90003 34.375C8.70003 39.1 15.25 42.7501 15.25 42.7501ZM11.2875 30.2501C11.4779 30.2566 11.6667 30.2859 11.8501 30.3375C12.1261 30.4265 12.3904 30.5482 12.6375 30.7C13.7076 31.3778 14.6028 32.2986 15.25 33.3875C15.8973 32.2986 16.7924 31.3778 17.8626 30.7C18.1097 30.5482 18.374 30.4265 18.65 30.3375C18.8333 30.2859 19.0222 30.2566 19.2125 30.2501C19.5107 30.2468 19.8066 30.3024 20.0832 30.4139C20.3597 30.5253 20.6115 30.6903 20.8241 30.8994C21.0367 31.1085 21.2059 31.3575 21.3219 31.6322C21.4379 31.9069 21.4984 32.2019 21.5 32.5C21.4987 32.8243 21.4262 33.1444 21.2875 33.4375C21.1672 33.7493 21.0208 34.0504 20.85 34.3375V34.4C20.0071 35.7079 18.9606 36.8726 17.75 37.85C16.9524 38.5329 16.1178 39.1714 15.25 39.7625C14.3822 39.1714 13.5476 38.5329 12.75 37.85C11.5498 36.8583 10.5158 35.6809 9.6875 34.3625V34.3C9.51665 34.0129 9.37033 33.7118 9.25003 33.4C9.11135 33.1069 9.03882 32.7868 9.03755 32.4625C9.05057 31.8734 9.29293 31.3125 9.71314 30.8993C10.1333 30.4861 10.6982 30.2532 11.2875 30.2501Z" fill="#BF0000"/>
<path fill-rule="evenodd" clip-rule="evenodd" d="M22.6698 13.3759C24.1846 10.7573 27.0128 9 30.25 9C35.0825 9 39 12.9175 39 17.75L39 25.25H37.75C35.6789 25.25 34 23.5711 34 21.5L34 15.25H31.5V21.5C31.5 24.9518 34.2982 27.75 37.75 27.75H41.5V17.5H41.4973C41.3643 11.4022 36.3796 6.5 30.25 6.5C26.3478 6.5 22.9111 8.48726 20.8946 11.5H20.25H11.5C11.1685 11.5 10.8505 11.6317 10.6161 11.8661C10.3817 12.1005 10.25 12.4185 10.25 12.75V15.875C10.25 20.3623 13.8877 24 18.375 24H20.25V25.25L22.75 26.5V24C22.75 22.6193 21.6307 21.5 20.25 21.5H18.375C15.4796 21.5 13.0951 19.3123 12.7843 16.4998C14.1492 16.4814 15.25 15.3693 15.25 14H20.25H21.8125H22.3088L22.6698 13.3759ZM36.5 30.25V39H22.75L20.25 41.5H36.5C37.8807 41.5 39 40.3807 39 39V30.25H36.5ZM29 15.875C29 16.9105 28.1605 17.75 27.125 17.75C26.0895 17.75 25.25 16.9105 25.25 15.875C25.25 14.8395 26.0895 14 27.125 14C28.1605 14 29 14.8395 29 15.875Z" fill="#666666"/>
</svg>
