<svg width="48" height="48" viewBox="0 0 48 48" fill="none" xmlns="http://www.w3.org/2000/svg">
<path fill-rule="evenodd" clip-rule="evenodd" d="M6.5 6.5H9V35.25H23.0732C23.2563 36.1298 23.5519 36.9683 23.9441 37.75H9H6.5V35.25V6.5Z" fill="#666666"/>
<path d="M32.75 7.75H31.5L35 11.25L26 20.25L19.75 14L11.5 22.25L13.25 24L19.75 17.5L26 23.75L36.75 13L40.25 16.5V15.25V7.75H32.75Z" fill="#666666"/>
<path d="M34.5272 30.6833C34.2239 30.4941 33.8704 30.4009 33.5133 30.4162H32.7057V32.6322H33.5133C33.8698 32.6493 34.2232 32.5583 34.5272 32.3712C34.6578 32.2764 34.7617 32.1494 34.8288 32.0026C34.8958 31.8558 34.9237 31.6941 34.9097 31.5333C34.9234 31.3708 34.8955 31.2075 34.8286 31.0587C34.7617 30.91 34.6579 30.7808 34.5272 30.6833Z" fill="#BF0000"/>
<path d="M33.1429 24.0714C31.4617 24.0714 29.8184 24.5699 28.4205 25.5039C27.0227 26.4379 25.9333 27.7654 25.2899 29.3186C24.6466 30.8718 24.4782 32.5808 24.8062 34.2297C25.1342 35.8785 25.9437 37.3931 27.1325 38.5818C28.3212 39.7706 29.8358 40.5801 31.4846 40.9081C33.1335 41.2361 34.8425 41.0677 36.3957 40.4244C37.9489 39.781 39.2764 38.6916 40.2104 37.2938C41.1444 35.8959 41.6429 34.2526 41.6429 32.5714C41.6429 30.3171 40.7474 28.1551 39.1533 26.561C37.5592 24.9669 35.3972 24.0714 33.1429 24.0714ZM36.1057 32.8386C35.8604 33.2079 35.5121 33.4971 35.104 33.6703C34.6288 33.8745 34.1153 33.9739 33.5982 33.9618H32.7057V36.2689H31.1879V29.0986H33.6165C34.1328 29.0877 34.6457 29.1849 35.1222 29.3839C35.5317 29.5549 35.8806 29.8446 36.124 30.2157C36.3683 30.6107 36.4908 31.069 36.4761 31.5332C36.4855 31.9955 36.3566 32.4501 36.1057 32.8386Z" fill="#BF0000"/>
</svg>
