<svg width="48" height="48" viewBox="0 0 48 48" fill="none" xmlns="http://www.w3.org/2000/svg">
<path d="M4.45129 40.0225C4.45129 41.9407 6.00277 43.5204 7.94918 43.5204H40.0507C41.9689 43.5204 43.5486 41.9689 43.5486 40.0225V7.94918C43.5486 6.03098 41.9971 4.45129 40.0507 4.45129H7.94918C6.03098 4.45129 4.45129 6.03098 4.45129 7.94918V40.0225Z" fill="white"/>
<path d="M34.8039 32.9703L32.2652 40.4174C31.9549 41.3201 31.1932 41.9125 30.2906 41.9125C29.6417 41.9125 29.1058 41.6586 28.6544 41.1509L29.67 40.0789C29.8392 40.2764 29.9803 40.361 30.1777 40.361C30.4034 40.361 30.6008 40.1918 30.6573 39.9379L30.7137 39.7969L28.2595 32.9703H30.0085L31.5317 37.3991L33.055 32.9703H34.8039Z" fill="#0E0046"/>
<path d="M25.2975 39.3737C24.8461 39.9097 24.282 40.1918 23.5768 40.1918C21.7996 40.1918 20.3892 38.5275 20.3892 36.4964C20.3892 34.4654 21.856 32.8011 23.6614 32.8011C24.3384 32.8011 24.8744 33.0832 25.2975 33.6192V30.629H26.9618V39.9943H25.4949L25.2975 39.3737ZM22.0535 36.4964C22.0535 37.6812 22.7869 38.6403 23.6896 38.6403C24.6205 38.6403 25.2975 37.7658 25.2975 36.5247C25.2975 35.2835 24.6205 34.3808 23.6614 34.3808C22.7587 34.3526 22.0535 35.3117 22.0535 36.4964Z" fill="#0E0046"/>
<path d="M15.4808 32.7729V34.6065H18.7531V36.158H15.4808V38.4147H19.1762V39.9662H13.8165V31.2214H19.2044V32.7729H15.4808Z" fill="#0E0046"/>
<path d="M17.8787 29.8674L14.9167 27.4132H35.5091L17.8787 29.8674Z" fill="#BF0000"/>
<path d="M21.2074 25.5515V20.1072H23.577L27.6672 25.5515H31.8421L26.9056 18.9788C28.4571 17.8787 29.4726 16.0733 29.4726 14.0423C29.4726 10.6855 26.7645 7.97742 23.4077 7.97742H17.8788V25.5797H21.2074V25.5515ZM21.2074 11.306H23.3795C24.8746 11.306 26.1157 12.519 26.1157 14.0423C26.1157 15.5374 24.8746 16.7785 23.3795 16.7785H21.2074V11.306Z" fill="#BF0000"/>
</svg>
