<svg width="48" height="48" viewBox="0 0 48 48" fill="none" xmlns="http://www.w3.org/2000/svg">
<path d="M44 18.9255L40.7069 29.0213C40.3662 30.0826 39.5714 30.7135 38.6061 30.7135C37.9816 30.7135 37.4138 30.4841 36.988 30.0539L37.6125 29.1074C37.8964 29.3655 38.1803 29.4802 38.5494 29.4802C39.0604 29.4802 39.3159 29.2508 39.543 28.5624L39.7417 27.9888L36.5621 18.9255H37.9248L40.3663 26.1245L42.6657 18.9255H44Z" fill="#BF0000"/>
<path d="M33.979 27.1857C33.2693 28.0461 32.446 28.4477 31.3956 28.4477C28.9826 28.4477 27.336 26.4687 27.336 23.5719C27.336 20.6751 29.0109 18.7247 31.424 18.7247C32.5028 18.7247 33.2693 19.0402 34.0074 19.8146L34.2061 18.9542H35.3701V28.2182H34.2061L33.979 27.1857ZM28.7271 23.5719C28.7271 25.6656 29.8626 27.2144 31.3956 27.2144C32.9286 27.2144 34.0642 25.6943 34.0642 23.6005C34.0642 21.4781 32.9286 19.958 31.3956 19.958C29.8626 19.9293 28.7271 21.4781 28.7271 23.5719Z" fill="#BF0000"/>
<path d="M23.2761 16.6023C25.3201 16.6023 26.7963 18.0364 26.7963 20.0727C26.7963 22.1091 25.3485 23.5718 23.2761 23.5718H20.7779V28.1895H19.472V16.6023H23.2761ZM23.1909 22.3386C24.4684 22.3386 25.4053 21.3921 25.4053 20.0727C25.4053 18.7534 24.4968 17.8356 23.1909 17.8356H20.7779V22.3386H23.1909Z" fill="#BF0000"/>
<path d="M6.01561 31.1724L4 29.4802H18.1093L6.01561 31.1724Z" fill="#BF0000"/>
<path d="M8.31513 28.1895V24.4036H9.9333L12.7438 28.1895H15.6111L12.2044 23.6292C13.2548 22.8548 13.9645 21.6215 13.9645 20.2161C13.9645 17.893 12.0909 16 9.79135 16H6.01562V28.1895H8.31513ZM8.31513 18.3232H9.81974C10.8417 18.3232 11.6934 19.1836 11.6934 20.2161C11.6934 21.2487 10.8417 22.1091 9.81974 22.1091H8.31513V18.3232Z" fill="#BF0000"/>
</svg>
