<svg width="48" height="48" viewBox="0 0 48 48" fill="none" xmlns="http://www.w3.org/2000/svg">
<path d="M4.45087 40.0225C4.45087 41.9407 6.00235 43.5204 7.94875 43.5204H40.0503C41.9685 43.5204 43.5482 41.9689 43.5482 40.0225V7.94918C43.5482 6.03098 41.9967 4.45129 40.0503 4.45129H7.94875C6.03056 4.45129 4.45087 6.03098 4.45087 7.94918V40.0225Z" fill="white"/>
<path d="M37.2299 33.7603V39.9944H35.7912V33.7603H33.7038V32.4062H39.2891V33.7603H37.2299Z" fill="black"/>
<path d="M28.3163 32.4062L31.0243 37.0607V32.4062H32.463V39.9944H31.0243L28.3163 35.1143V39.9944H26.8776V32.4062H28.3163Z" fill="black"/>
<path d="M24.9585 39.9944H23.5198V32.4062H24.9585V39.9944Z" fill="black"/>
<path d="M22.1373 36.2144C22.1373 38.5839 20.8115 40.1636 18.8369 40.1636C16.8622 40.1636 15.5364 38.5839 15.5364 36.2144C15.5364 33.8448 16.8622 32.2651 18.8651 32.2651C20.8115 32.2651 22.1373 33.8448 22.1373 36.2144ZM17.0597 36.2144C17.0597 37.8223 17.7367 38.8096 18.8087 38.8096C19.8806 38.8096 20.5576 37.7941 20.5576 36.2144C20.5576 34.55 19.9088 33.6192 18.7804 33.6192C17.7085 33.6192 17.0597 34.55 17.0597 36.2144Z" fill="black"/>
<path d="M12.0675 32.4062C13.5625 32.4062 14.6909 33.5064 14.6909 34.9732C14.6909 36.4401 13.5625 37.5402 12.0675 37.5402H10.7699V39.9944H9.33124V32.4062H12.0675ZM11.9829 36.2144C12.6317 36.2144 13.1394 35.6785 13.1394 34.9732C13.1394 34.2962 12.6317 33.7603 11.9829 33.7603H10.7699V36.2144H11.9829Z" fill="black"/>
<path d="M17.8791 29.8674L14.9172 27.4132H35.5096L17.8791 29.8674Z" fill="#BF0000"/>
<path d="M21.2072 25.5515V20.1072H23.5768L27.667 25.5515H31.8419L26.9054 18.9788C28.4569 17.8787 29.4724 16.0733 29.4724 14.0423C29.4724 10.6855 26.7644 7.97742 23.4075 7.97742H17.8786V25.5797H21.2072V25.5515ZM21.2072 11.306H23.3793C24.8744 11.306 26.1156 12.519 26.1156 14.0423C26.1156 15.5374 24.8744 16.7785 23.3793 16.7785H21.2072V11.306Z" fill="#BF0000"/>
</svg>
