<svg width="48" height="48" viewBox="0 0 48 48" fill="none" xmlns="http://www.w3.org/2000/svg">
<path d="M15.25 40.25C15.25 40.25 21.8 36.5625 23.6 31.875C23.8653 31.2856 24.0017 30.6464 24 30C23.9934 28.7358 23.4856 27.5258 22.5882 26.6353C21.6907 25.7449 20.4767 25.2467 19.2125 25.2501C18.4328 25.2461 17.664 25.4332 16.9732 25.7949C16.2825 26.1566 15.6909 26.6819 15.25 27.325C14.8091 26.6819 14.2175 26.1566 13.5268 25.7949C12.836 25.4332 12.0672 25.2461 11.2875 25.2501C10.0233 25.2467 8.8093 25.7449 7.91183 26.6353C7.01436 27.5258 6.50663 28.7358 6.50002 30C6.49828 30.6464 6.63467 31.2856 6.90002 31.875C8.70002 36.6 15.25 40.25 15.25 40.25ZM11.2875 27.7501C11.4779 27.7566 11.6667 27.7859 11.85 27.8375C12.1261 27.9265 12.3904 28.0482 12.6375 28.2C13.7076 28.8778 14.6027 29.7986 15.25 30.8875C15.8972 29.7986 16.7924 28.8778 17.8625 28.2C18.1096 28.0482 18.3739 27.9265 18.65 27.8375C18.8333 27.7859 19.0221 27.7566 19.2125 27.7501C19.5106 27.7468 19.8066 27.8024 20.0831 27.9139C20.3597 28.0253 20.6115 28.1903 20.8241 28.3994C21.0367 28.6085 21.2058 28.8575 21.3218 29.1322C21.4378 29.4069 21.4984 29.7018 21.5 30C21.4987 30.3243 21.4262 30.6444 21.2875 30.9375C21.1672 31.2493 21.0208 31.5503 20.85 31.8375V31.9C20.0071 33.2078 18.9606 34.3725 17.75 35.35C16.9524 36.0329 16.1178 36.6713 15.25 37.2625C14.3822 36.6713 13.5476 36.0329 12.75 35.35C11.5497 34.3582 10.5158 33.1809 9.68749 31.8625V31.8C9.51665 31.5128 9.37033 31.2118 9.25003 30.9C9.11134 30.6069 9.03882 30.2868 9.03755 29.9625C9.05056 29.3733 9.29292 28.8125 9.71313 28.3993C10.1333 27.9861 10.6982 27.7532 11.2875 27.7501Z" fill="#BF0000"/>
<path fill-rule="evenodd" clip-rule="evenodd" d="M15.7052 9.78928C15.927 8.60685 16.9594 7.75 18.1624 7.75H34.8376C36.0407 7.75 37.0731 8.60685 37.2948 9.78928L38.6732 17.1409L39.691 16.632C40.3085 16.3232 41.0593 16.5735 41.3681 17.191C41.6768 17.8085 41.4265 18.5593 40.809 18.868L39.8602 19.3424L40.7678 20.25C41.2366 20.7188 41.5 21.3547 41.5 22.0178V29C41.5 30.3807 40.3807 31.5 39 31.5V34C39 34.6904 38.4404 35.25 37.75 35.25H35.25C34.5597 35.25 34 34.6904 34 34V31.5H26.5V29H39V22.0178L37.2323 20.25H15.7678L14 22.0178V23.375H11.5V22.0178C11.5 21.3547 11.7634 20.7188 12.2323 20.25L13.1384 19.3438L12.125 18.7588C11.5272 18.4136 11.3223 17.6491 11.6675 17.0512C12.0127 16.4534 12.7772 16.2485 13.375 16.5937L14.3264 17.143L15.7052 9.78928ZM34.8376 10.25L36.2439 17.75H16.7562L18.1624 10.25L34.8376 10.25ZM30.25 24H23.375L25.25 26.5H30.25V24ZM32.75 24.625C32.75 23.59 33.59 22.75 34.625 22.75C35.66 22.75 36.5 23.59 36.5 24.625C36.5 25.66 35.66 26.5 34.625 26.5C33.59 26.5 32.75 25.66 32.75 24.625Z" fill="#666666"/>
</svg>
