<svg width="48" height="48" viewBox="0 0 48 48" fill="none" xmlns="http://www.w3.org/2000/svg">
<g clip-path="url(#clip0_760_10695)">
<path fill-rule="evenodd" clip-rule="evenodd" d="M19.3125 15.25V12.75H37.75C39.1307 12.75 40.25 13.8693 40.25 15.25V19H37.75V15.25H19.3125Z" fill="#666666"/>
<path fill-rule="evenodd" clip-rule="evenodd" d="M10.25 19.625V11.5H12.75V19L10.25 19.625Z" fill="#666666"/>
<path fill-rule="evenodd" clip-rule="evenodd" d="M37.75 34V30.25H40.25V34C40.25 35.3807 39.1307 36.5 37.75 36.5H23.375L24.625 34H37.75Z" fill="#666666"/>
<path fill-rule="evenodd" clip-rule="evenodd" d="M10.25 11.5C10.25 9.42893 11.9289 7.75 14 7.75H34C35.3807 7.75 36.5 8.86929 36.5 10.25V14H34V10.25H14C13.3096 10.25 12.75 10.8096 12.75 11.5C12.75 12.1904 13.3096 12.75 14 12.75H24.506V15.25H14C11.9289 15.25 10.25 13.5711 10.25 11.5Z" fill="#666666"/>
<path fill-rule="evenodd" clip-rule="evenodd" d="M41.5 17.75C42.8807 17.75 44 18.8693 44 20.25V29C44 30.3807 42.8807 31.5 41.5 31.5H34.625C30.828 31.5 27.75 28.422 27.75 24.625C27.75 20.828 30.828 17.75 34.625 17.75H41.5ZM34.625 20.25C32.2088 20.25 30.25 22.2088 30.25 24.625C30.25 27.0412 32.2088 29 34.625 29H41.5V20.25H34.625Z" fill="#666666"/>
<path d="M36.5 24.625C36.5 25.6605 35.6605 26.5 34.625 26.5C33.5895 26.5 32.75 25.6605 32.75 24.625C32.75 23.5895 33.5895 22.75 34.625 22.75C35.6605 22.75 36.5 23.5895 36.5 24.625Z" fill="#BF0000"/>
<path fill-rule="evenodd" clip-rule="evenodd" d="M8.16653 23.08C9.70824 22.0498 11.5208 21.5 13.375 21.5C15.8614 21.5 18.246 22.4877 20.0041 24.2459C21.7623 26.004 22.75 28.3886 22.75 30.875C22.75 32.7292 22.2002 34.5418 21.17 36.0835C20.1399 37.6252 18.6757 38.8268 16.9627 39.5364C15.2496 40.2459 13.3646 40.4316 11.546 40.0699C9.72746 39.7081 8.05699 38.8152 6.74588 37.5041C5.43476 36.193 4.54188 34.5225 4.18014 32.704C3.81841 30.8854 4.00406 29.0004 4.71363 27.2873C5.4232 25.5743 6.62482 24.1101 8.16653 23.08ZM14.3684 26.9708C15.81 27.0886 16.9522 27.5023 17.0788 28.7319C17.1745 29.6339 16.7701 30.174 16.1341 30.4383C17.1992 30.6768 17.866 31.2657 17.7332 32.5872C17.5696 34.2276 16.2545 34.67 14.3776 34.7677V36.4914H13.2601V34.7907H12.368V36.5H11.2535V34.7763H10.454H9L9.22227 33.5352H10.0342C10.0862 33.5387 10.1384 33.5326 10.1878 33.5171C10.2372 33.5015 10.2828 33.477 10.3219 33.4449C10.361 33.4128 10.3928 33.3738 10.4155 33.3301C10.4382 33.2864 10.4513 33.239 10.454 33.1905V30.4671V28.5222C10.4333 28.3826 10.3542 28.2564 10.2339 28.1708C10.1137 28.0853 9.962 28.0474 9.81188 28.0654C9.82732 28.051 9 28.0654 9 28.0654V26.9565H10.5435H11.2535V25.25H12.371V26.9249H13.2601V25.2615H14.3684V26.9708ZM12.5946 33.5745C13.5054 33.5864 15.5136 33.6125 15.5136 32.4235C15.5164 31.2217 13.6202 31.2548 12.6752 31.2713C12.5629 31.2732 12.464 31.2749 12.3834 31.2743V33.5726C12.4441 33.5726 12.5152 33.5735 12.5946 33.5745ZM12.5689 30.2335C13.3344 30.2454 14.9981 30.2712 14.9981 29.1973C14.9981 28.0947 13.397 28.134 12.6134 28.1532C12.5252 28.1554 12.4474 28.1573 12.3834 28.1573V30.2315C12.4364 30.2315 12.4989 30.2325 12.5689 30.2335Z" fill="#BF0000"/>
</g>
<defs>
<clipPath id="clip0_760_10695">
<rect width="40" height="40" fill="white" transform="translate(4 4)"/>
</clipPath>
</defs>
</svg>
