<svg width="48" height="48" viewBox="0 0 48 48" fill="none" xmlns="http://www.w3.org/2000/svg">
<path d="M36.5 39H11.5V9H26.5V6.5H11.5C10.837 6.5 10.2011 6.76339 9.73223 7.23223C9.26339 7.70107 9 8.33696 9 9V39C9 39.663 9.26339 40.2989 9.73223 40.7678C10.2011 41.2366 10.837 41.5 11.5 41.5H36.5C37.163 41.5 37.7989 41.2366 38.2678 40.7678C38.7366 40.2989 39 39.663 39 39V19H36.5V39Z" fill="#666666"/>
<path d="M31.5 16.5H39L29 6.5V14C29 14.663 29.2634 15.2989 29.7322 15.7678C30.2011 16.2366 30.837 16.5 31.5 16.5Z" fill="#666666"/>
<path d="M15.8103 27.8452C17.2092 27.8452 18.0369 27.175 18.0369 26.1204V26.1167C18.0369 25.2708 17.5168 24.8167 16.3962 24.6006L15.8542 24.498C15.2866 24.3918 15.0376 24.2417 15.0376 23.9561V23.9524C15.0376 23.6484 15.3159 23.425 15.8103 23.425C16.2937 23.425 16.6343 23.6411 16.6746 23.989L16.6782 24.0293H17.927L17.9233 23.9524C17.8757 22.9929 17.125 22.3704 15.7993 22.3704C14.5872 22.3704 13.7046 23.0259 13.7046 24.0439V24.0476C13.7046 24.8569 14.2576 25.3733 15.3049 25.5674L15.8469 25.6699C16.4658 25.7908 16.7002 25.9299 16.7002 26.2302V26.2339C16.7002 26.5635 16.3706 26.7905 15.8359 26.7905C15.3196 26.7905 14.9241 26.5671 14.8582 26.2266L14.8508 26.1863H13.6021L13.6057 26.2522C13.6643 27.2629 14.4956 27.8452 15.8103 27.8452Z" fill="#BF0000"/>
<path d="M18.823 27.75H20.2329L20.5625 26.5891H22.2874L22.6169 27.75H24.0269L22.2471 22.4656H20.6028L18.823 27.75ZM21.4121 23.6155H21.4377L22.009 25.6223H20.8408L21.4121 23.6155Z" fill="#BF0000"/>
<path d="M25.1609 27.75H28.6912V26.6697H26.5049V22.4656H25.1609V27.75Z" fill="#BF0000"/>
<path d="M29.9314 27.75H33.5532V26.6697H31.2754V25.6003H33.4177V24.5896H31.2754V23.5459H33.5532V22.4656H29.9314V27.75Z" fill="#BF0000"/>
</svg>
