<svg width="210" height="32" viewBox="0 0 210 32" fill="none" xmlns="http://www.w3.org/2000/svg">
<path d="M120.334 11.1338C118.232 12.691 115.586 13.7032 114.807 14.0146L114.029 10.9781C117.142 9.96595 118.855 8.87593 119.555 8.33092L120.334 11.1338ZM123.992 13.3917H120.567V3.27009H123.447C123.603 2.8808 123.681 2.80294 123.992 1.79077H127.183C127.027 2.33578 126.794 2.80294 126.638 3.27009H130.53V13.3917H126.95V14.5596H136.601V17.2847H129.285C130.841 18.3747 133.41 19.7762 136.913 20.8662L135.278 23.747C134.033 23.202 130.141 21.4891 126.95 18.3747V24.1363H124.07V18.6083C121.034 21.4112 117.687 22.8905 115.663 23.747L114.107 20.8662C118.466 19.6205 121.034 17.9854 121.968 17.2847H114.418V14.5596H124.07V13.3917H123.992ZM115.975 2.64722C117.454 3.34795 119.01 4.36011 120.256 5.45014L118.543 7.86376C117.298 6.61802 115.975 5.76157 114.418 4.98299L115.975 2.64722ZM123.291 5.528V7.24089H127.806V5.528H123.291ZM123.291 9.18737V10.9781H127.806V9.18737H123.291ZM132.087 8.09734C133.254 8.64235 135.434 9.8881 137.146 11.3674L135.278 14.0146C134.344 13.0025 133.021 11.9124 130.53 10.511L132.087 8.09734ZM136.601 4.43797C135.589 5.68372 133.955 7.16303 132.787 8.09734L130.919 5.91729C133.254 4.04868 134.11 3.03651 134.577 2.4915L136.601 4.43797Z" fill="#BF0000"/>
<path d="M148.199 10.2773C148.276 9.57661 148.276 9.26518 148.276 8.40873V5.29437H138.78V2.49146H161.041V5.29437H151.312V8.33087C151.312 9.18732 151.312 9.4209 151.234 10.2773H160.341V13.0803H151.935C153.18 17.0511 157.072 19.5426 161.353 21.0997L159.563 24.1362C154.737 22.034 151.312 18.8418 149.911 15.2603C147.809 20.1654 143.451 22.6569 140.104 24.1362L138.313 21.0997C142.594 19.854 146.175 17.5182 147.576 13.0803H139.403V10.2773H148.199Z" fill="#BF0000"/>
<path d="M172.405 5.91725V8.33087H163.065V5.91725H172.405ZM171.627 2.49146V4.82722H163.688V2.49146H171.627ZM171.627 9.34304V11.6788H163.688V9.34304H171.627ZM171.627 12.9245V15.2603H163.688V12.9245H171.627ZM171.627 16.4282V23.7469H163.688V16.4282H171.627ZM168.981 18.6861H166.412V21.3333H168.981V18.6861ZM176.297 8.25301V20.7104H178.477V5.29438H172.795V2.49146H185.17V5.29438H181.434V10.9002H184.703V13.6253H181.434V20.6326H185.482V23.4355H172.328V20.6326H173.417V8.17515H176.297V8.25301Z" fill="#BF0000"/>
<path d="M209.611 9.65447V12.3017H205.33C206.809 13.6253 207.976 14.4817 210 15.2603L208.443 18.0632C207.431 17.5182 206.731 17.1289 205.563 16.2725C205.174 23.3576 204.162 24.1362 201.905 24.1362H198.48L197.858 21.2554H200.815C201.672 21.2554 201.905 20.944 202.061 20.6326C202.216 20.0097 202.45 18.219 202.528 16.9732H198.091C197.157 22.1119 193.732 23.7469 188.829 24.2919L187.661 21.6447C193.11 21.3333 194.666 19.2311 195.056 16.9732H192.02V16.0389C191.008 16.7396 190.23 17.2846 188.595 18.1411L186.961 15.4939C187.817 15.1825 189.996 14.2481 192.02 12.3017H187.194V9.65447H194.122C194.511 9.0316 194.744 8.64231 195.211 7.55228H188.128V4.98294H191.631C191.475 4.67151 190.852 3.50362 190.23 2.64718L192.954 1.63501C193.732 2.64718 194.199 3.42576 194.978 4.98294H196.067C196.457 3.50362 196.534 2.80289 196.69 1.63501L199.804 1.79073C199.492 3.50362 199.337 4.12649 199.103 4.98294H201.827C202.528 3.97078 202.683 3.58148 203.695 1.63501L206.575 2.64718C206.186 3.42576 205.719 4.28221 205.252 4.98294H208.677V7.55228H201.983C202.216 8.17516 202.372 8.64231 202.995 9.65447H209.611ZM203.306 14.4039C202.216 13.3138 201.827 12.7688 201.516 12.3017H195.756C195.133 13.0803 194.744 13.5474 193.966 14.4039H203.306ZM199.881 9.65447C199.414 8.72017 199.259 8.25301 198.947 7.55228H198.169C197.78 8.48659 197.624 8.95374 197.235 9.65447H199.881Z" fill="#BF0000"/>
<path d="M86.6308 26.8613H21.4825L26.6975 32L86.6308 26.8613Z" fill="#BF0000"/>
<path d="M27.5538 5.83947V6.61806C26.3084 5.83947 25.2965 5.37231 23.7398 5.37231C19.1475 5.37231 15.7228 9.49883 15.7228 14.6375C15.7228 19.7762 19.2254 23.9027 23.7398 23.9027C25.2187 23.9027 26.3084 23.4356 27.5538 22.657V23.4356H31.5234V5.83947H27.5538ZM23.7398 19.6983C21.4826 19.6983 19.8481 17.5183 19.8481 14.7154C19.8481 11.9125 21.4826 9.73241 23.7398 9.73241C25.9971 9.73241 27.5538 11.9125 27.5538 14.7154C27.6316 17.5183 25.9971 19.6983 23.7398 19.6983Z" fill="#BF0000"/>
<path d="M59.622 5.83936V16.1946C59.622 18.1411 58.2988 19.7761 56.3529 19.7761C54.407 19.7761 53.0838 18.1411 53.0838 16.1946V5.83936H49.0364V16.1946C49.0364 20.4768 51.9163 23.9026 56.1972 23.9026C58.1431 23.9026 59.622 22.8126 59.622 22.8126V23.4355H63.6694V5.83936H59.622Z" fill="#BF0000"/>
<path d="M96.983 23.5135V13.1582C96.983 11.2118 98.3062 9.57672 100.252 9.57672C102.198 9.57672 103.521 11.2118 103.521 13.1582V23.5135H107.569V13.1582C107.569 8.87599 104.689 5.4502 100.408 5.4502C98.4619 5.4502 96.983 6.54022 96.983 6.54022V5.83949H92.9355V23.5135H96.983Z" fill="#BF0000"/>
<path d="M4.20311 23.5135V16.662H7.16086L12.298 23.5135H17.513L11.2861 15.2605C13.232 13.859 14.4774 11.6011 14.4774 9.03178C14.4774 4.8274 11.0526 1.40161 6.84952 1.40161H0V23.4357H4.20311V23.5135ZM4.20311 5.68385H6.92735C8.7954 5.68385 10.3521 7.24103 10.3521 9.10964C10.3521 10.9783 8.7954 12.5354 6.92735 12.5354H4.20311V5.68385Z" fill="#BF0000"/>
<path d="M74.4884 19.3868C74.0993 19.6203 73.7101 19.8539 73.1652 19.8539C72.5426 19.8539 71.2972 19.3868 71.2972 17.6739V10.1216H74.722V5.83932H71.2972V1.40137H67.2498V5.83932H65.1482V10.0437H67.2498V17.6739C67.2498 21.6447 70.2075 23.9804 73.2431 23.9804C74.3328 23.9804 75.8895 23.5911 77.1349 22.8904L74.4884 19.3868Z" fill="#BF0000"/>
<path d="M41.4863 14.1703L48.4136 5.83942H42.8095L37.9837 11.9903V0H33.8584V23.5134H37.9837V16.2725L43.8992 23.5134H49.5033L41.4863 14.1703Z" fill="#BF0000"/>
<path d="M83.751 5.4502C79.0809 5.4502 75.8118 9.49886 75.8118 14.7154C75.8118 20.1655 80.0149 23.9806 84.1402 23.9806C86.2417 23.9806 88.966 23.2799 91.2232 20.0098L87.7206 17.9855C84.9963 22.0341 80.4041 20.0098 79.8592 15.9611H91.3789C92.3907 9.57672 88.2654 5.4502 83.751 5.4502ZM87.2536 12.3796H80.0149C80.8711 8.25311 86.4752 8.01954 87.2536 12.3796Z" fill="#BF0000"/>
</svg>
