<svg width="74" height="40" viewBox="0 0 74 40" fill="none" xmlns="http://www.w3.org/2000/svg">
<path d="M4.3278 6.41711C2.8852 7.48663 1.06859 8.18182 0.534296 8.39572L0 6.31016C2.13718 5.61497 3.31264 4.86631 3.7935 4.49198L4.3278 6.41711ZM6.89242 7.96791H4.54152V1.01604H6.51841C6.62527 0.748663 6.6787 0.695188 6.89242 8.15978e-07H9.08303C8.97617 0.374332 8.81588 0.695187 8.70902 1.01604H11.3805V7.96791H8.92274V8.77005H15.4946V10.6417H10.4722C11.5408 11.3904 13.304 12.3529 15.7083 13.1016L14.5863 15.0267C13.7314 14.6524 11.0599 13.4759 8.86931 11.3369V15.2941H6.89242V11.4973C4.80866 13.4225 2.51119 14.4385 1.06859 15.0802L0 13.1016C2.99206 12.246 4.75523 11.123 5.39639 10.6417H0.267148V8.77005H6.89242V7.96791ZM1.33574 0.588235C2.3509 1.06952 3.41949 1.7647 4.27437 2.51337L3.09892 4.17112C2.24404 3.31551 1.33574 2.72727 0.267148 2.19251L1.33574 0.588235ZM6.35812 2.56685V3.74332H9.45704V2.56685H6.35812ZM6.35812 5.08021V6.31016H9.45704V5.08021H6.35812ZM12.4491 4.33155C13.2505 4.70588 14.7466 5.5615 15.922 6.57754L14.6397 8.39572C13.9986 7.70053 13.0903 6.95187 11.3805 5.9893L12.4491 4.33155ZM15.548 1.81818C14.8534 2.6738 13.7314 3.68984 12.93 4.33155L11.6477 2.83422C13.2505 1.5508 13.8383 0.855615 14.1588 0.481283L15.548 1.81818Z" transform="translate(0 24.5454)" fill="#BF0000"/>
<path d="M6.73213 5.29412C6.78556 4.81283 6.78556 4.59893 6.78556 4.0107V1.92513H0.267148V8.15978e-07H15.548V1.92513H8.86932V4.0107C8.86932 4.59893 8.86931 4.75936 8.81588 5.34759H15.0671V7.27273H9.35018C10.2051 10 12.8765 11.7112 15.8152 12.7808L14.5863 14.8663C11.2736 13.4225 8.92274 11.2299 7.96101 8.77005C6.51841 12.139 3.52635 13.8503 1.22888 14.8663L-4.07635e-07 12.7808C2.93863 11.9251 5.39639 10.3209 6.35812 7.27273H0.748015V5.34759H6.73213V5.29412Z" transform="translate(16.7235 25.0802)" fill="#BF0000"/>
<path d="M6.41155 2.35294V4.01069H0V2.35294H6.41155ZM5.93069 -4.07989e-07V1.60428H0.480867V-4.07989e-07H5.93069ZM5.93069 4.70588V6.31016H0.480867V4.70588H5.93069ZM5.93069 7.16578V8.77005H0.480867V7.16578H5.93069ZM5.93069 9.57219V14.5455H0.480867V9.51872H5.93069V9.57219ZM4.11408 11.123H2.3509V12.9412H4.11408V11.123ZM9.13646 3.90374V12.4599H10.6325V1.92513H6.6787V-4.07989e-07H15.174V1.92513H12.6094V5.7754H14.8534V7.64706H12.6094V12.4599H15.3877V14.385H6.41155V12.4599H7.15957V3.90374H9.13646Z" transform="translate(33.6606 25.0267)" fill="#BF0000"/>
<path d="M15.6014 5.50802V7.3262H12.6628C13.678 8.23529 14.4794 8.82353 15.8686 9.35829L14.8 11.2834C14.1054 10.9091 13.6245 10.6417 12.8231 10.0535C12.556 14.9198 11.8614 15.4545 10.3119 15.4545H8.01444L7.587 13.4759H9.61733C10.2051 13.4759 10.3653 13.262 10.4722 13.0481C10.5791 12.6203 10.7394 11.3904 10.7928 10.5348H7.64043C6.99928 14.0642 4.64837 15.1872 1.28231 15.5615L0.480866 13.7433C4.22094 13.5294 5.28953 12.0856 5.55668 10.5348H3.47292V9.89305C2.77834 10.3743 2.24404 10.7487 1.12202 11.3369L-1.63054e-06 9.51872C0.587724 9.30481 2.08375 8.6631 3.47292 7.3262H0.160289V5.50802H4.91552C5.18267 5.08021 5.34296 4.81283 5.66354 4.06417H0.801442V2.29947H3.20577C3.09892 2.08556 2.67148 1.28342 2.24404 0.695187L4.11408 4.07989e-07C4.64838 0.695188 4.96895 1.22995 5.50325 2.29947H6.25126C6.51841 1.28342 6.57184 0.802139 6.6787 4.07989e-07L8.81588 0.106953C8.60216 1.28342 8.49531 1.71123 8.33502 2.29947H10.2051C10.6859 1.60428 10.7928 1.3369 11.4874 4.07989e-07L13.4643 0.695187C13.1971 1.22995 12.8765 1.81818 12.556 2.29947H14.9069V4.06417H10.3119C10.4722 4.49198 10.5791 4.81283 11.0065 5.50802H15.6014ZM11.2736 8.77005C10.5256 8.02139 10.2585 7.64706 10.0448 7.3262H6.03755C5.61011 7.86096 5.34296 8.18182 4.80866 8.77005H11.2736ZM8.92274 5.50802C8.60217 4.86631 8.49531 4.54545 8.28159 4.06417H7.74729C7.48014 4.70588 7.37329 5.02674 7.10614 5.50802H8.92274Z" transform="translate(50.0635 24.4385)" fill="#BF0000"/>
<path d="M44.7206 0H-2.03818e-07L3.57978 3.52941L44.7206 0Z" transform="translate(14.9068 18.4492)" fill="#BF0000"/>
<path d="M8.1213 0.320856V0.855615C7.26643 0.320856 6.57184 5.09986e-08 5.50325 5.09986e-08C2.40433 0.053476 0 2.8877 0 6.41711C0 9.94652 2.40433 12.7807 5.50325 12.7807C6.51841 12.7807 7.26643 12.4599 8.1213 11.9251V12.4599H10.8462V0.320856H8.1213ZM5.50325 9.83957C3.95379 9.83957 2.83177 8.34225 2.83177 6.41711C2.83177 4.49198 3.95379 2.99465 5.50325 2.99465C7.05271 2.99465 8.1213 4.49198 8.1213 6.41711C8.17473 8.34225 7.05271 9.83957 5.50325 9.83957Z" transform="translate(10.9531 3.68982)" fill="#BF0000"/>
<path d="M7.26643 0V7.1123C7.26643 8.4492 6.35812 9.57219 5.02238 9.57219C3.68664 9.57219 2.77834 8.4492 2.77834 7.1123V0H-4.07635e-07V7.1123C-4.07635e-07 10.0535 1.9769 12.4064 4.91552 12.4064C6.25126 12.4064 7.26643 11.6578 7.26643 11.6578V12.0856H10.0448V0H7.26643Z" transform="translate(33.8209 4.01074)" fill="#BF0000"/>
<path d="M2.77834 12.4064V5.29412C2.77834 3.95722 3.68665 2.83422 5.02239 2.83422C6.35813 2.83422 7.26643 3.95722 7.26643 5.29412V12.4064H10.0448V5.29412C10.0448 2.35294 8.06787 0 5.12924 0C3.7935 0 2.77834 0.748663 2.77834 0.748663V0.26738H-1.63054e-06V12.4064H2.77834Z" transform="translate(63.9552 3.74329)" fill="#BF0000"/>
<path d="M2.8852 15.1872V10.4813H4.91552L8.44188 15.1872H12.0217L7.74729 9.51872C9.08303 8.55615 9.93791 7.00535 9.93791 5.24064C9.93791 2.35294 7.587 -2.54993e-08 4.70181 -2.54993e-08H6.36931e-09V15.1337H2.8852V15.1872ZM2.8852 2.94118H4.75523C6.03755 2.94118 7.10614 4.01069 7.10614 5.29412C7.10614 6.57754 6.03755 7.64706 4.75523 7.64706H2.8852V2.94118Z" transform="translate(0.160431 0.962646)" fill="#BF0000"/>
<path d="M6.41155 12.3529C6.1444 12.5134 5.87726 12.6738 5.50325 12.6738C5.07581 12.6738 4.22094 12.3529 4.22094 11.1765V5.9893H6.57184V3.04813H4.22094V-2.54993e-08H1.4426V3.04813H0V5.93583H1.4426V11.1765C1.4426 13.9037 3.47292 15.508 5.55668 15.508C6.30469 15.508 7.37329 15.2406 8.22816 14.7594L6.41155 12.3529Z" transform="translate(44.8809 0.962646)" fill="#BF0000"/>
<path d="M5.2361 9.73262L9.99134 4.01069H6.09097L2.83177 8.23529V0H-4.07636e-07V16.1497H2.83177V11.1765L6.89242 16.1497H10.7394L5.2361 9.73262Z" transform="translate(23.4022)" fill="#BF0000"/>
<path d="M5.44982 0C2.24404 0 -1.63054e-06 2.78075 -1.63054e-06 6.36364C-1.63054e-06 10.107 2.8852 12.7273 5.71697 12.7273C7.15957 12.7273 9.0296 12.246 10.5791 10L8.17473 8.60963C6.30469 11.3904 3.15235 10 2.77834 7.21925H10.6859C11.3805 2.83422 8.54874 0 5.44982 0ZM7.85415 4.75936H2.8852C3.47292 1.92513 7.26643 1.76471 7.85415 4.75936Z" transform="translate(52.2007 3.74329)" fill="#BF0000"/>
</svg>
