<svg width="210" height="32" viewBox="0 0 210 32" fill="none" xmlns="http://www.w3.org/2000/svg">
<path d="M6.30467 9.34307C4.20312 10.9002 1.55671 11.9124 0.778354 12.2238L0 9.18735C3.11342 8.17518 4.8258 7.08516 5.52632 6.54015L6.30467 9.34307ZM9.96294 11.601H6.53817V1.47932H9.41809C9.57376 1.09002 9.6516 1.01217 9.96294 -3.7126e-08H13.1542C12.9985 0.545012 12.765 1.01217 12.6093 1.47932H16.5011V11.601H12.9207V12.7689H22.5723V15.4939H15.2557C16.8125 16.5839 19.381 17.9854 22.8836 19.0754L21.2491 21.9562C20.0037 21.4112 16.1119 19.6983 12.9207 16.5839V22.3455H10.0408V16.8175C7.00518 19.6204 3.65827 21.0998 1.63455 21.9562L0.0778402 19.0754C4.43662 17.8297 7.00519 16.1946 7.93921 15.4939H0.389177V12.7689H10.0408V11.601H9.96294ZM1.94589 0.856448C3.42476 1.55718 4.98147 2.56934 6.22683 3.65937L4.51446 6.07299C3.26909 4.82725 1.94589 3.9708 0.389177 3.19221L1.94589 0.856448ZM9.26241 3.73723V5.45012H13.7769V3.73723H9.26241ZM9.26241 7.39659V9.18735H13.7769V7.39659H9.26241ZM18.0578 6.30657C19.2253 6.85158 21.4047 8.09732 23.1171 9.57664L21.2491 12.2238C20.3151 11.2117 18.9918 10.1217 16.5011 8.7202L18.0578 6.30657ZM22.5723 2.6472C21.5604 3.89294 19.9259 5.37226 18.7583 6.30657L16.8903 4.12652C19.2253 2.25791 20.0815 1.24574 20.5485 0.70073L22.5723 2.6472Z" transform="translate(114.029 1.79077)" fill="#BF0000"/>
<path d="M9.8851 7.78589C9.96293 7.08516 9.96294 6.77372 9.96294 5.91728V2.80292H0.467015V3.7126e-08H22.7279V2.80292H12.9985V5.83942C12.9985 6.69586 12.9985 6.92944 12.9207 7.78589H22.0274V10.5888H13.6212C14.8666 14.5596 18.7583 17.0511 23.0393 18.6083L21.2491 21.6448C16.4233 19.5426 12.9985 16.3504 11.5975 12.7689C9.49593 17.674 5.13714 20.1655 1.79021 21.6448L-2.37535e-06 18.6083C4.28095 17.3625 7.86138 15.0268 9.26242 10.5888H1.0897V7.78589H9.8851V7.78589Z" transform="translate(138.314 2.49146)" fill="#BF0000"/>
<path d="M9.34025 3.42579V5.83942H0V3.42579H9.34025ZM8.5619 3.7126e-08V2.33577H0.622686V3.7126e-08H8.5619ZM8.5619 6.85158V9.18735H0.622686V6.85158H8.5619ZM8.5619 10.4331V12.7689H0.622686V10.4331H8.5619ZM8.5619 13.9367V21.2555H0.622686V13.9367H8.5619ZM5.9155 16.1946H3.34693V18.8419H5.9155V16.1946ZM13.232 5.76156V18.219H15.4114V2.80292H9.72943V3.7126e-08H22.1053V2.80292H18.3692V8.40876H21.6382V11.1338H18.3692V18.1411H22.4166V20.944H9.26241V18.1411H10.3521V5.6837H13.232V5.76156Z" transform="translate(163.065 2.49146)" fill="#BF0000"/>
<path d="M22.6501 8.01946V10.6667H18.3692C19.848 11.9903 21.0156 12.8467 23.0393 13.6253L21.4826 16.4282C20.4707 15.8832 19.7702 15.4939 18.6027 14.6375C18.2135 21.7226 17.2016 22.5012 14.9444 22.5012H11.5196L10.897 19.6204H13.8547C14.7109 19.6204 14.9444 19.309 15.1001 18.9976C15.2557 18.3747 15.4893 16.5839 15.5671 15.3382H11.1305C10.1964 20.4769 6.77169 22.1119 1.86806 22.6569L0.700524 20.0097C6.149 19.6983 7.70571 17.5961 8.09489 15.3382H5.0593V14.4039C4.04744 15.1046 3.26909 15.6496 1.63455 16.5061L-2.37535e-06 13.8589C0.856187 13.5474 3.03558 12.6131 5.0593 10.6667H0.233506V8.01946H7.16085C7.55003 7.39659 7.78355 7.0073 8.25056 5.91727H1.16753V3.34793H4.67012C4.51445 3.0365 3.89177 1.86861 3.26908 1.01217L5.99332 -7.4252e-08C6.77168 1.01217 7.2387 1.79075 8.01705 3.34793H9.10674C9.49592 1.86861 9.57376 1.16788 9.72943 -7.4252e-08L12.8429 0.155718C12.5315 1.86861 12.3758 2.49148 12.1423 3.34793H14.8666C15.5671 2.33577 15.7228 1.94647 16.7346 -7.4252e-08L19.6145 1.01217C19.2253 1.79075 18.7583 2.6472 18.2913 3.34793H21.7161V5.91727H15.0222C15.2557 6.54015 15.4114 7.0073 16.0341 8.01946H22.6501V8.01946ZM16.3454 12.7689C15.2558 11.6788 14.8666 11.1338 14.5552 10.6667H8.7954C8.17272 11.4453 7.78354 11.9124 7.00519 12.7689H16.3454ZM12.9207 8.01946C12.4537 7.08516 12.298 6.618 11.9867 5.91727H11.2083C10.8191 6.85158 10.6634 7.31873 10.2743 8.01946H12.9207V8.01946Z" transform="translate(186.961 1.63501)" fill="#BF0000"/>
<path d="M65.1483 0H2.96919e-07L5.21497 5.13869L65.1483 0Z" transform="translate(21.4825 26.8613)" fill="#BF0000"/>
<path d="M11.831 0.467153V1.24574C10.5856 0.467153 9.57376 7.4252e-08 8.01705 7.4252e-08C3.42476 7.4252e-08 5.93837e-07 4.12652 5.93837e-07 9.26521C5.93837e-07 14.4039 3.50259 18.5304 8.01705 18.5304C9.49592 18.5304 10.5856 18.0633 11.831 17.2847V18.0633H15.8006V0.467153H11.831ZM8.01705 14.326C5.75982 14.326 4.12528 12.146 4.12528 9.34307C4.12528 6.54015 5.75982 4.3601 8.01705 4.3601C10.2743 4.3601 11.831 6.54015 11.831 9.34307C11.9088 12.146 10.2743 14.326 8.01705 14.326Z" transform="translate(15.7228 5.37231)" fill="#BF0000"/>
<path d="M10.5856 0V10.3552C10.5856 12.3017 9.26242 13.9367 7.31653 13.9367C5.37065 13.9367 4.04744 12.3017 4.04744 10.3552V0H0V10.3552C0 14.6375 2.87991 18.0633 7.16086 18.0633C9.10674 18.0633 10.5856 16.9732 10.5856 16.9732V17.5961H14.6331V0H10.5856Z" transform="translate(49.0363 5.83948)" fill="#BF0000"/>
<path d="M4.04744 18.0633V7.70803C4.04744 5.76156 5.37065 4.12652 7.31653 4.12652C9.26242 4.12652 10.5856 5.76156 10.5856 7.70803V18.0633H14.6331V7.70803C14.6331 3.42579 11.7532 0 7.4722 0C5.52632 0 4.04744 1.09002 4.04744 1.09002V0.389294H1.18767e-06V18.0633H4.04744Z" transform="translate(92.9355 5.45007)" fill="#BF0000"/>
<path d="M4.20311 22.1119V15.2603H7.16086L12.298 22.1119H17.513L11.2861 13.8589C13.232 12.4574 14.4774 10.1995 14.4774 7.63017C14.4774 3.42579 11.0526 -3.7126e-08 6.84952 -3.7126e-08H0V22.0341H4.20311V22.1119ZM4.20311 4.28224H6.92735C8.7954 4.28224 10.3521 5.83942 10.3521 7.70803C10.3521 9.57664 8.7954 11.1338 6.92735 11.1338H4.20311V4.28224Z" transform="translate(0 1.40149)" fill="#BF0000"/>
<path d="M9.34025 17.9854C8.95107 18.219 8.5619 18.4526 8.01705 18.4526C7.39437 18.4526 6.149 17.9854 6.149 16.2725V8.72019H9.57376V4.43796H6.149V-3.7126e-08H2.10156V4.43796H-2.37535e-06V8.64234H2.10156V16.2725C2.10156 20.2433 5.0593 22.5791 8.09488 22.5791C9.18458 22.5791 10.7413 22.1898 11.9867 21.4891L9.34025 17.9854Z" transform="translate(65.1483 1.40149)" fill="#BF0000"/>
<path d="M7.62787 14.1703L14.5552 5.83942H8.95107L4.12528 11.9903V0H0V23.5134H4.12528V16.2725L10.0408 23.5134H15.6449L7.62787 14.1703Z" transform="translate(33.8584)" fill="#BF0000"/>
<path d="M7.93921 0C3.26909 0 1.18767e-06 4.04866 1.18767e-06 9.26521C1.18767e-06 14.7153 4.20311 18.5304 8.32839 18.5304C10.4299 18.5304 13.1542 17.8297 15.4114 14.5596L11.9088 12.5353C9.18458 16.5839 4.59229 14.5596 4.04744 10.5109H15.5671C16.5789 4.12652 12.4537 0 7.93921 0ZM11.4418 6.92944H4.20312C5.05931 2.80292 10.6635 2.56934 11.4418 6.92944Z" transform="translate(75.8117 5.45007)" fill="#BF0000"/>
</svg>
