<svg id="レイヤー_1" data-name="レイヤー 1" xmlns="http://www.w3.org/2000/svg" viewBox="0 0 32 32"><defs><style>.cls-1{fill:#053ace;}</style></defs><title>アートボード 1</title><path class="cls-1" d="M26.81,20.52a4.14,4.14,0,0,1-4.13,4.13H9.35a4.14,4.14,0,0,1-4.12-4.13V15.16c0-3.35,3.12-6.77,6.22-6.77h9.2c3.06,0,6.22,3.42,6.22,6.77v5.36ZM14.39,5.23c0-.07,0-.1.09-.1h3c.06,0,.09,0,.09.1V6.58H14.39Zm17.16,8.93h-3c-.55-4-4.2-7.58-7.94-7.58H19.06V5.23a1.57,1.57,0,0,0-1.54-1.55h-.78V1.55A.57.57,0,0,0,16.19,1h-.38a.57.57,0,0,0-.55.55V3.68h-.78a1.57,1.57,0,0,0-1.54,1.55V6.58H11.42c-3.71,0-7.39,3.61-7.94,7.58h-3a.44.44,0,0,0-.45.45v5.1a.44.44,0,0,0,.45.45h3v.39a5.9,5.9,0,0,0,5.9,5.9h3.49a.44.44,0,0,0-.1.23l-.45,1.58c-.1.32.09.51.42.39l5.71-2.17h4.26a5.9,5.9,0,0,0,5.9-5.9v-.39h3a.44.44,0,0,0,.45-.45V14.61A.42.42,0,0,0,31.55,14.16Z"/><path class="cls-1" d="M12.77,15.19a.72.72,0,0,0-1,0l-1.26,1.26L9.23,15.19a.74.74,0,0,0-1,1l1.26,1.25L8.19,18.74a.72.72,0,0,0,0,1,.78.78,0,0,0,.52.23.63.63,0,0,0,.52-.23l1.25-1.25,1.26,1.25a.76.76,0,0,0,.52.23.6.6,0,0,0,.51-.23.72.72,0,0,0,0-1l-1.25-1.26,1.25-1.25A.73.73,0,0,0,12.77,15.19Z"/><path class="cls-1" d="M23.81,15.19a.73.73,0,0,0-1,0l-1.25,1.26-1.26-1.26a.72.72,0,0,0-1,0,.73.73,0,0,0,0,1l1.25,1.25-1.22,1.26a.72.72,0,0,0,0,1,.76.76,0,0,0,.51.23.62.62,0,0,0,.52-.23l1.26-1.25,1.26,1.25a.76.76,0,0,0,.51.23.62.62,0,0,0,.52-.23.72.72,0,0,0,0-1l-1.26-1.26,1.26-1.25A.76.76,0,0,0,23.81,15.19Z"/></svg>