<?xml version="1.0" encoding="utf-8"?>
<!-- Generator: Adobe Illustrator 22.1.0, SVG Export Plug-In . SVG Version: 6.00 Build 0)  -->
<svg version="1.1" id="レイヤー_1" xmlns="http://www.w3.org/2000/svg" xmlns:xlink="http://www.w3.org/1999/xlink" x="0px"
	 y="0px" viewBox="0 0 1000 1000" style="enable-background:new 0 0 1000 1000;" xml:space="preserve">
<style type="text/css">
	.st0{fill:#FFFFFF;}
	.st1{fill:#053ACE;}
</style>
<path class="st0" d="M-1180.5,677.5c0,71.6-58.5,129.1-129.1,129.1h-416.7c-71.6,0-129.1-58.5-129.1-129.1V510
	c0-104.9,97.9-211.9,194.7-211.9h287.6c95.9,0,194.7,107,194.7,211.9v167.5H-1180.5z M-1569,199.2c0-2,1-3,3-3h94.8c2,0,3,1,3,3
	v42.4H-1569V199.2z M-1032.2,478.7h-94.8c-17.2-124.1-131.2-237.1-248.2-237.1h-47.4v-42.4c0-26.2-22.2-48.4-48.4-48.4h-24.2V84.2
	c0-9.1-8.1-17.2-17.2-17.2h-12.1c-9.1,0-17.2,8.1-17.2,17.2v66.6h-24.2c-26.2,0-48.4,22.2-48.4,48.4v42.4h-47.4
	c-116,0-231.1,113-248.2,237.1h-94.8c-8.1,0-14.1,6.1-14.1,14.1v159.4c0,8.1,6.1,14.1,14.1,14.1h92.8v12.1
	c0,101.9,82.7,184.6,184.6,184.6h109c-1,2-3,4-3,7.1l-14.1,49.4c-3,10.1,3,16.1,13.1,12.1l178.6-67.6h133.2
	c101.9,0,184.6-82.7,184.6-184.6v-12.1h92.8c8.1,0,14.1-6.1,14.1-14.1V492.8C-1018.1,485.7-1024.2,478.7-1032.2,478.7z M-1619.4,511
	c-9.1-9.1-23.2-9.1-32.3,0l-39.3,39.3l-39.3-39.3c-9.1-9.1-23.2-9.1-32.3,0c-9.1,9.1-9.1,23.2,0,32.3l39.3,39.3l-39.3,39.3
	c-9.1,9.1-9.1,23.2,0,32.3c4,4,10.1,7.1,16.1,7.1s12.1-2,16.1-7.1l39.3-39.3l39.3,39.3c4,4,10.1,7.1,16.1,7.1s12.1-2,16.1-7.1
	c9.1-9.1,9.1-23.2,0-32.3l-39.3-39.3l39.3-39.3C-1610.4,534.2-1610.4,520.1-1619.4,511z M-1274.4,511c-9.1-9.1-23.2-9.1-32.3,0
	l-39.3,39.3l-39.3-39.3c-9.1-9.1-23.2-9.1-32.3,0c-9.1,9.1-9.1,23.2,0,32.3l39.3,39.3l-38.3,39.3c-9.1,9.1-9.1,23.2,0,32.3
	c4,4,10.1,7.1,16.1,7.1s12.1-2,16.1-7.1l39.3-39.3l39.3,39.3c4,4,10.1,7.1,16.1,7.1s12.1-2,16.1-7.1c9.1-9.1,9.1-23.2,0-32.3
	l-39.3-39.3l39.3-39.3C-1265.3,534.2-1265.3,520.1-1274.4,511z"/>
<path class="st1" d="M-2234.5,677.5c0,71.6-58.5,129.1-129.1,129.1h-416.7c-71.6,0-129.1-58.5-129.1-129.1V510
	c0-104.9,97.9-211.9,194.7-211.9h287.6c95.9,0,194.7,107,194.7,211.9v167.5H-2234.5z M-2623,199.2c0-2,1-3,3-3h94.8c2,0,3,1,3,3
	v42.4H-2623V199.2z M-2086.2,478.7h-94.8c-17.2-124.1-131.2-237.1-248.2-237.1h-47.4v-42.4c0-26.2-22.2-48.4-48.4-48.4h-24.2V84.2
	c0-9.1-8.1-17.2-17.2-17.2h-12.1c-9.1,0-17.2,8.1-17.2,17.2v66.6h-24.2c-26.2,0-48.4,22.2-48.4,48.4v42.4h-47.4
	c-116,0-231.1,113-248.2,237.1h-94.8c-8.1,0-14.1,6.1-14.1,14.1v159.4c0,8.1,6.1,14.1,14.1,14.1h92.8v12.1
	c0,101.9,82.7,184.6,184.6,184.6h109c-1,2-3,4-3,7.1l-14.1,49.4c-3,10.1,3,16.1,13.1,12.1l178.6-67.6h133.2
	c101.9,0,184.6-82.7,184.6-184.6v-12.1h92.8c8.1,0,14.1-6.1,14.1-14.1V492.8C-2072.1,485.7-2078.2,478.7-2086.2,478.7z M-2673.4,511
	c-9.1-9.1-23.2-9.1-32.3,0l-39.3,39.3l-39.3-39.3c-9.1-9.1-23.2-9.1-32.3,0c-9.1,9.1-9.1,23.2,0,32.3l39.3,39.3l-39.3,39.3
	c-9.1,9.1-9.1,23.2,0,32.3c4,4,10.1,7.1,16.1,7.1c6.1,0,12.1-2,16.1-7.1l39.3-39.3l39.3,39.3c4,4,10.1,7.1,16.1,7.1
	c6.1,0,12.1-2,16.1-7.1c9.1-9.1,9.1-23.2,0-32.3l-39.3-39.3l39.3-39.3C-2664.4,534.2-2664.4,520.1-2673.4,511z M-2328.4,511
	c-9.1-9.1-23.2-9.1-32.3,0l-39.3,39.3l-39.3-39.3c-9.1-9.1-23.2-9.1-32.3,0c-9.1,9.1-9.1,23.2,0,32.3l39.3,39.3l-38.3,39.3
	c-9.1,9.1-9.1,23.2,0,32.3c4,4,10.1,7.1,16.1,7.1s12.1-2,16.1-7.1l39.3-39.3l39.3,39.3c4,4,10.1,7.1,16.1,7.1s12.1-2,16.1-7.1
	c9.1-9.1,9.1-23.2,0-32.3l-39.3-39.3l39.3-39.3C-2319.3,534.2-2319.3,520.1-2328.4,511z"/>
<path class="st0" d="M-1163.5,1635.5c0,71.6-58.5,129.1-129.1,129.1h-416.7c-71.6,0-129.1-58.5-129.1-129.1V1468
	c0-104.9,97.9-211.9,194.7-211.9h287.6c95.9,0,194.7,107,194.7,211.9v167.5H-1163.5z M-1552,1157.2c0-2,1-3,3-3h94.8c2,0,3,1,3,3
	v42.4H-1552V1157.2z M-1015.2,1436.7h-94.8c-17.2-124.1-131.2-237.1-248.2-237.1h-47.4v-42.4c0-26.2-22.2-48.4-48.4-48.4h-24.2
	v-66.6c0-9.1-8.1-17.2-17.2-17.2h-12.1c-9.1,0-17.2,8.1-17.2,17.2v66.6h-24.2c-26.2,0-48.4,22.2-48.4,48.4v42.4h-47.4
	c-116,0-231.1,113-248.2,237.1h-94.8c-8.1,0-14.1,6.1-14.1,14.1v159.4c0,8.1,6.1,14.1,14.1,14.1h92.8v12.1
	c0,101.9,82.7,184.6,184.6,184.6h109c-1,2-3,4-3,7.1l-14.1,49.4c-3,10.1,3,16.1,13.1,12.1l178.6-67.6h133.2
	c101.9,0,184.6-82.7,184.6-184.6v-12.1h92.8c8.1,0,14.1-6.1,14.1-14.1v-160.4C-1001.1,1443.7-1007.2,1436.7-1015.2,1436.7z
	 M-1681.1,1468c-45.4,0-82.7,37.3-82.7,82.7c0,12.1,10.1,22.2,22.2,22.2c12.1,0,22.2-10.1,22.2-22.2c0-21.2,17.2-38.3,38.3-38.3
	s38.3,17.2,38.3,38.3c0,12.1,10.1,22.2,22.2,22.2s22.2-10.1,22.2-22.2C-1597.4,1505.3-1634.7,1468-1681.1,1468z M-1322,1468
	c-45.4,0-82.7,37.3-82.7,82.7c0,12.1,10.1,22.2,22.2,22.2c12.1,0,22.2-10.1,22.2-22.2c0-21.2,17.2-38.3,38.3-38.3
	s38.3,17.2,38.3,38.3c0,12.1,10.1,22.2,22.2,22.2s22.2-10.1,22.2-22.2C-1238.2,1505.3-1275.5,1468-1322,1468z"/>
<path class="st1" d="M-2284.5,1645.5c0,71.6-58.5,129.1-129.1,129.1h-416.7c-71.6,0-129.1-58.5-129.1-129.1V1478
	c0-104.9,97.9-211.9,194.7-211.9h287.6c95.9,0,194.7,107,194.7,211.9v167.5H-2284.5z M-2673,1167.2c0-2,1-3,3-3h94.8c2,0,3,1,3,3
	v42.4H-2673V1167.2z M-2136.2,1446.7h-94.8c-17.2-124.1-131.2-237.1-248.2-237.1h-47.4v-42.4c0-26.2-22.2-48.4-48.4-48.4h-24.2
	v-66.6c0-9.1-8.1-17.2-17.2-17.2h-12.1c-9.1,0-17.2,8.1-17.2,17.2v66.6h-24.2c-26.2,0-48.4,22.2-48.4,48.4v42.4h-47.4
	c-116,0-231.1,113-248.2,237.1h-94.8c-8.1,0-14.1,6.1-14.1,14.1v159.4c0,8.1,6.1,14.1,14.1,14.1h92.8v12.1
	c0,101.9,82.7,184.6,184.6,184.6h109c-1,2-3,4-3,7.1l-14.1,49.4c-3,10.1,3,16.1,13.1,12.1l178.6-67.6h133.2
	c101.9,0,184.6-82.7,184.6-184.6v-12.1h92.8c8.1,0,14.1-6.1,14.1-14.1v-160.4C-2122.1,1453.7-2128.2,1446.7-2136.2,1446.7z
	 M-2802.1,1478c-45.4,0-82.7,37.3-82.7,82.7c0,12.1,10.1,22.2,22.2,22.2s22.2-10.1,22.2-22.2c0-21.2,17.2-38.3,38.3-38.3
	c21.2,0,38.3,17.2,38.3,38.3c0,12.1,10.1,22.2,22.2,22.2c12.1,0,22.2-10.1,22.2-22.2C-2718.4,1515.3-2755.7,1478-2802.1,1478z
	 M-2443,1478c-45.4,0-82.7,37.3-82.7,82.7c0,12.1,10.1,22.2,22.2,22.2s22.2-10.1,22.2-22.2c0-21.2,17.2-38.3,38.3-38.3
	s38.3,17.2,38.3,38.3c0,12.1,10.1,22.2,22.2,22.2c12.1,0,22.2-10.1,22.2-22.2C-2359.2,1515.3-2396.5,1478-2443,1478z"/>
<path class="st1" d="M-3900.6,1548.7c0-25.1,20.3-45.4,45.4-45.4c25.1,0,45.4,20.3,45.4,45.4c0,25.1-20.3,45.4-45.4,45.4
	C-3880.3,1594.1-3900.6,1573.8-3900.6,1548.7z M-3479.9,1594.1c25.1,0,45.4-20.3,45.4-45.4c0-25.1-20.3-45.4-45.4-45.4
	c-25.1,0-45.4,20.3-45.4,45.4C-3525.3,1573.8-3505,1594.1-3479.9,1594.1z M-3327.5,1635.5V1468c0-104.9-98.9-211.9-194.7-211.9
	h-287.6c-96.9,0-194.7,107-194.7,211.9v167.5c0,70.6,57.5,129.1,129.1,129.1h416.7c70.6,0,129.1-57.5,129.1-129.1H-3327.5z
	 M-3718,1199.6h100.9v-42.4c0-2-1-3-3-3h-94.8c-2,0-3,1-3,3V1199.6z M-3168.1,1450.8v160.4c0,8.1-6.1,14.1-14.1,14.1h-92.8v12.1
	c0,101.9-82.7,184.6-184.6,184.6h-133.2l-178.6,67.6c-10.1,4-16.1-2-13.1-12.1l14.1-49.4c0-3,2-5,3-7.1h-109
	c-101.9,0-184.6-82.7-184.6-184.6v-12.1h-92.8c-8.1,0-14.1-6.1-14.1-14.1v-159.4c0-8.1,6.1-14.1,14.1-14.1h94.8
	c17.2-124.1,132.2-237.1,248.2-237.1h47.4v-42.4c0-26.2,22.2-48.4,48.4-48.4h24.2v-66.6c0-9.1,8.1-17.2,17.2-17.2h12.1
	c9.1,0,17.2,8.1,17.2,17.2v66.6h24.2c26.2,0,48.4,22.2,48.4,48.4v42.4h47.4c117,0,231.1,113,248.2,237.1h94.8
	C-3173.2,1436.7-3167.1,1443.7-3168.1,1450.8z"/>
<path class="st0" d="M267.4,590.7c0-25.1,20.3-45.4,45.4-45.4s45.4,20.3,45.4,45.4s-20.3,45.4-45.4,45.4S267.4,615.8,267.4,590.7z
	 M688.1,636.1c25.1,0,45.4-20.3,45.4-45.4s-20.3-45.4-45.4-45.4s-45.4,20.3-45.4,45.4S663,636.1,688.1,636.1z M840.5,677.5V510
	c0-104.9-98.9-211.9-194.7-211.9H358.2c-96.9,0-194.7,107-194.7,211.9v167.5c0,70.6,57.5,129.1,129.1,129.1h416.7
	c70.6,0,129.1-57.5,129.1-129.1H840.5z M450,241.6h100.9v-42.4c0-2-1-3-3-3H453c-2,0-3,1-3,3V241.6z M999.9,492.8v160.4
	c0,8.1-6.1,14.1-14.1,14.1h-92.8v12.1c0,101.9-82.7,184.6-184.6,184.6H575.1l-178.6,67.6c-10.1,4-16.1-2-13.1-12.1l14.1-49.4
	c0-3,2-5,3-7.1h-109c-101.9,0-184.6-82.7-184.6-184.6v-12.1H14.1c-8.1,0-14.1-6.1-14.1-14.1V492.8c0-8.1,6.1-14.1,14.1-14.1H109
	c17.2-124.1,132.2-237.1,248.2-237.1h47.4v-42.4c0-26.2,22.2-48.4,48.4-48.4h24.2V84.2c0-9.1,8.1-17.2,17.2-17.2h12.1
	c9.1,0,17.2,8.1,17.2,17.2v66.6h24.2c26.2,0,48.4,22.2,48.4,48.4v42.4h47.4c117,0,231.1,113,248.2,237.1h94.8
	C994.8,478.7,1000.9,485.7,999.9,492.8z"/>
<path class="st0" d="M-1064.5,3282.5c0-25.1,20.3-45.4,45.4-45.4c25.1,0,45.4,20.3,45.4,45.4s-20.3,45.4-45.4,45.4
	C-1044.1,3327.9-1064.5,3307.6-1064.5,3282.5z M-643.7,3327.9c25.1,0,45.4-20.3,45.4-45.4s-20.3-45.4-45.4-45.4
	c-25.1,0-45.4,20.3-45.4,45.4S-668.8,3327.9-643.7,3327.9z M-491.4,3369.3v-167.5c0-104.9-98.9-211.9-194.7-211.9h-287.6
	c-96.9,0-194.7,107-194.7,211.9v168.5c0,70.6,57.5,129.1,129.1,129.1h316.8c12.1-40.4,48.4-99.9,60.5-120.1
	c4-6.1,11.1-10.1,19.2-10.1c8.1,0,15.1,3,19.2,10.1c11.1,17.2,42.4,67.6,56.5,107c43.4-21.2,73.7-65.6,73.7-117H-491.4z
	 M-604.4,3519.6c0-12.1-18.2-48.4-38.3-84.8c-21.2,35.3-38.3,71.6-38.3,84.8c0,21.2,17.2,38.3,38.3,38.3
	C-621.5,3558-604.4,3541.8-604.4,3519.6z M-881.8,2933.4h100.9V2891c0-2-1-3-3-3h-94.8c-2,0-3,1-3,3V2933.4z M-332,3184.7v160.4
	c0,8.1-6.1,14.1-14.1,14.1h-92.8v12.1c0,80.7-52.5,149.3-125.1,174.6c-10.1,34.3-42.4,59.5-79.7,59.5c-33.3,0-62.6-20.2-75.7-49.4
	h-37.3l-178.6,67.6c-10.1,4-16.1-2-13.1-12.1l14.1-49.4c0-3,2-5,3-7.1h-109c-101.9,0-184.6-82.7-184.6-184.6v-12.1h-92.8
	c-8.1,0-14.1-6.1-14.1-14.1v-159.4c0-8.1,6.1-14.1,14.1-14.1h94.8c17.2-124.1,132.2-237.1,248.2-237.1h47.4V2891
	c0-26.2,22.2-48.4,48.4-48.4h24.2V2776c0-9.1,8.1-17.2,17.2-17.2h13.1c9.1,0,17.2,8.1,17.2,17.2v66.6h24.2
	c26.2,0,48.4,22.2,48.4,48.4v42.4h47.4c116,0,230,113,247.2,237.1h94.8C-337,3170.5-330.9,3177.6-332,3184.7z"/>
<path class="st1" d="M-45.6,3295.5c0-25.1,20.3-45.4,45.4-45.4c25.1,0,45.4,20.3,45.4,45.4s-20.3,45.4-45.4,45.4
	C-25.3,3340.9-45.6,3320.6-45.6,3295.5z M375.1,3340.9c25.1,0,45.4-20.3,45.4-45.4s-20.3-45.4-45.4-45.4
	c-25.1,0-45.4,20.3-45.4,45.4S350,3340.9,375.1,3340.9z M527.5,3382.3v-167.5c0-104.9-98.9-211.9-194.7-211.9H45.2
	c-96.9,0-194.7,107-194.7,211.9v168.5c0,70.6,57.5,129.1,129.1,129.1h316.8c12.1-40.4,48.4-99.9,60.5-120.1
	c4-6.1,11.1-10.1,19.2-10.1s15.1,3,19.2,10.1c11.1,17.2,42.4,67.6,56.5,107c43.4-21.2,73.7-65.6,73.7-117H527.5z M414.5,3532.6
	c0-12.1-18.2-48.4-38.3-84.8c-21.2,35.3-38.3,71.6-38.3,84.8c0,21.2,17.2,38.3,38.3,38.3S414.5,3554.8,414.5,3532.6z M137,2946.4
	h100.9V2904c0-2-1-3-3-3H140c-2,0-3,1-3,3V2946.4z M686.9,3197.7v160.4c0,8.1-6.1,14.1-14.1,14.1h-92.8v12.1
	c0,80.7-52.5,149.3-125.1,174.6c-10.1,34.3-42.4,59.5-79.7,59.5c-33.3,0-62.6-20.2-75.7-49.4h-37.3l-178.6,67.6
	c-10.1,4-16.1-2-13.1-12.1l14.1-49.4c0-3,2-5,3-7.1h-109c-101.9,0-184.6-82.7-184.6-184.6v-12.1h-92.8c-8.1,0-14.1-6.1-14.1-14.1
	v-159.4c0-8.1,6.1-14.1,14.1-14.1h94.8c17.2-124.1,132.2-237.1,248.2-237.1h47.4V2904c0-26.2,22.2-48.4,48.4-48.4h24.2V2789
	c0-9.1,8.1-17.2,17.2-17.2h13.1c9.1,0,17.2,8.1,17.2,17.2v66.6h24.2c26.2,0,48.4,22.2,48.4,48.4v42.4h47.4
	c116,0,230,113,247.2,237.1h94.8C681.8,3183.5,687.9,3190.6,686.9,3197.7z"/>
<polygon class="st0" points="2279.3,3361.3 2213.2,3295.3 1779.3,3729.2 1345.3,3295.3 1279.3,3361.3 1713.2,3795.3 1279.3,4229.2 
	1345.3,4295.3 1779.3,3861.3 2213.2,4295.3 2279.3,4229.2 1845.3,3795.3 "/>
</svg>
