<svg id="レイヤー_1" data-name="レイヤー 1" xmlns="http://www.w3.org/2000/svg" viewBox="0 0 32 32"><defs><style>.cls-1{fill:#053ace;}</style></defs><title>アートボード 1</title><circle class="cls-1" cx="10" cy="16.74" r="1.45"/><circle class="cls-1" cx="22" cy="16.74" r="1.45"/><path class="cls-1" d="M26.81,20.52a4.18,4.18,0,0,1-2.36,3.74,20.25,20.25,0,0,0-1.8-3.42.66.66,0,0,0-.62-.32.73.73,0,0,0-.61.32,20.89,20.89,0,0,0-1.94,3.84H9.35a4.13,4.13,0,0,1-4.12-4.13V15.16c0-3.35,3.12-6.77,6.22-6.77h9.2c3.06,0,6.22,3.42,6.22,6.77v5.36Zm-4.78,6a1.22,1.22,0,0,1-1.22-1.23A8.54,8.54,0,0,1,22,22.61a10.34,10.34,0,0,1,1.23,2.71A1.21,1.21,0,0,1,22,26.55ZM14.39,5.23c0-.07,0-.1.09-.1h3c.06,0,.09,0,.09.1V6.58H14.39Zm17.16,8.93h-3c-.55-4-4.2-7.58-7.91-7.58H19.1V5.23a1.57,1.57,0,0,0-1.55-1.55h-.78V1.55A.56.56,0,0,0,16.23,1h-.42a.57.57,0,0,0-.55.55V3.68h-.78a1.57,1.57,0,0,0-1.54,1.55V6.58H11.42c-3.71,0-7.39,3.61-7.94,7.58h-3a.44.44,0,0,0-.45.45v5.1a.44.44,0,0,0,.45.45h3v.39a5.9,5.9,0,0,0,5.9,5.9h3.49a.44.44,0,0,0-.1.23l-.45,1.58c-.1.32.09.51.42.39l5.71-2.17h1.19a2.65,2.65,0,0,0,5-.32,5.93,5.93,0,0,0,4-5.58v-.39h3a.44.44,0,0,0,.45-.45V14.61A.42.42,0,0,0,31.55,14.16Z"/></svg>