<svg width="16" height="11" viewBox="0 0 16 11" fill="none" xmlns="http://www.w3.org/2000/svg">
<path d="M3.30005 10.9986H15C15.2653 10.9986 15.5196 10.8932 15.7072 10.7057C15.8947 10.5182 16 10.2638 16 9.99859V7.55859H8.21005L3.30005 10.9986Z" fill="#053ACE"/>
<path d="M15 0.06L3.29004 0L8.37004 3.56H16V1.06C16 0.794783 15.8947 0.54043 15.7071 0.352893C15.5196 0.165357 15.2653 0.06 15 0.06Z" fill="#D80000"/>
<path d="M8.18008 4.56L1.58008 0H3.29008L3.37008 0.06L8.37008 3.56L16 3.56V4.56L8.18008 4.56Z" fill="white"/>
<path d="M8.05007 6.55862L1.6001 10.9986H3.3001L8.2101 7.55859H16V6.55859H8.06005L8.05007 6.55862Z" fill="white"/>
<path d="M3.82 5.51109L0 2.87109V5.56109V8.14109L3.82 5.51109Z" fill="black"/>
<path d="M5.58 5.51016L0 1.66016V2.87016L3.82 5.51016L0 8.14016V9.35016L5.58 5.51016Z" fill="#FFD633"/>
<path d="M8.05 6.56L1.6 11H1C0.734784 11 0.48043 10.8946 0.292893 10.7071C0.105357 10.5196 0 10.2652 0 10V9.35L5.58 5.51L0 1.65V1C0 0.734784 0.105357 0.48043 0.292893 0.292893C0.48043 0.105357 0.734784 0 1 0H1.58L8.17 4.56L16.0001 4.56V6.56L8.05 6.56Z" fill="#008A00"/>
</svg>
