<svg width="16" height="11" viewBox="0 0 16 11" fill="none" xmlns="http://www.w3.org/2000/svg">
<rect width="16" height="11" rx="1" fill="white"/>
<path d="M0 1C0 0.447715 0.447715 0 1 0H15C15.5523 0 16 0.447715 16 1V7H0V1Z" fill="#D80000"/>
<path d="M7.65061 2.67C8.04242 2.67 8.36005 2.35212 8.36005 1.96C8.36005 1.56788 8.04242 1.25 7.65061 1.25C7.25879 1.25 6.94116 1.56788 6.94116 1.96C6.94116 2.35212 7.25879 2.67 7.65061 2.67Z" fill="white"/>
<path d="M6.0217 3.84969C6.41352 3.84969 6.73115 3.53181 6.73115 3.13969C6.73115 2.74757 6.41352 2.42969 6.0217 2.42969C5.62989 2.42969 5.31226 2.74757 5.31226 3.13969C5.31226 3.53181 5.62989 3.84969 6.0217 3.84969Z" fill="white"/>
<path d="M6.64157 5.74813C7.03339 5.74813 7.35102 5.43025 7.35102 5.03813C7.35102 4.646 7.03339 4.32812 6.64157 4.32812C6.24976 4.32812 5.93213 4.646 5.93213 5.03813C5.93213 5.43025 6.24976 5.74813 6.64157 5.74813Z" fill="white"/>
<path d="M8.64987 5.74813C9.04169 5.74813 9.35932 5.43025 9.35932 5.03813C9.35932 4.646 9.04169 4.32812 8.64987 4.32812C8.25806 4.32812 7.94043 4.646 7.94043 5.03813C7.94043 5.43025 8.25806 5.74813 8.64987 5.74813Z" fill="white"/>
<path d="M9.2695 3.84969C9.66132 3.84969 9.97895 3.53181 9.97895 3.13969C9.97895 2.74757 9.66132 2.42969 9.2695 2.42969C8.87769 2.42969 8.56006 2.74757 8.56006 3.13969C8.56006 3.53181 8.87769 3.84969 9.2695 3.84969Z" fill="white"/>
<path d="M3.22377 3.5C3.22686 2.946 3.43141 2.41207 3.79919 1.998C4.16697 1.58392 4.67281 1.31803 5.22221 1.25C4.88168 1.08829 4.50997 1.00296 4.13306 1C3.47053 1 2.83515 1.26339 2.36667 1.73223C1.8982 2.20107 1.63501 2.83696 1.63501 3.5C1.63501 4.16304 1.8982 4.79893 2.36667 5.26777C2.83515 5.73661 3.47053 6 4.13306 6C4.50659 5.99559 4.87474 5.9103 5.21221 5.75C4.66463 5.67973 4.16118 5.41287 3.79544 4.99902C3.42969 4.58517 3.22655 4.05249 3.22377 3.5Z" fill="white"/>
</svg>
