<svg width="16" height="11" viewBox="0 0 16 11" fill="none" xmlns="http://www.w3.org/2000/svg">
<path d="M15 0H1C0.734784 0 0.48043 0.105357 0.292893 0.292893C0.105357 0.48043 0 0.734784 0 1L0 10C0 10.2652 0.105357 10.5196 0.292893 10.7071C0.48043 10.8946 0.734784 11 1 11H15C15.2652 11 15.5196 10.8946 15.7071 10.7071C15.8946 10.5196 16 10.2652 16 10V1C16 0.734784 15.8946 0.48043 15.7071 0.292893C15.5196 0.105357 15.2652 0 15 0V0Z" fill="#D80000"/>
<path d="M16 3.5H7V0H3V3.5H0V7.5H3V11H7V7.5H16V3.5Z" fill="white"/>
<path d="M16 4.5H6V0H4V4.5H0V6.5H4V11H6V6.5H16V4.5Z" fill="#053ACE"/>
</svg>
