<svg width="16" height="11" viewBox="0 0 16 11" fill="none" xmlns="http://www.w3.org/2000/svg">
<path d="M15 0H1C0.447715 0 0 0.447715 0 1V10C0 10.5523 0.447715 11 1 11H15C15.5523 11 16 10.5523 16 10V1C16 0.447715 15.5523 0 15 0Z" fill="#D80000"/>
<path d="M16 5H0V6H16V5Z" fill="white"/>
<path d="M16 3H0V4H16V3Z" fill="white"/>
<path d="M16 1H0V2H16V1Z" fill="white"/>
<path d="M16 7H0V8H16V7Z" fill="white"/>
<path d="M16 9H0V10H16V9Z" fill="white"/>
<path d="M1 0H8.75V6H0V1C0 0.734784 0.105357 0.48043 0.292893 0.292893C0.48043 0.105357 0.734784 0 1 0Z" fill="#053ACE"/>
<path d="M5.46997 3.91016C6.02226 3.91016 6.46997 3.46244 6.46997 2.91016C6.46997 2.35787 6.02226 1.91016 5.46997 1.91016C4.91769 1.91016 4.46997 2.35787 4.46997 2.91016C4.46997 3.46244 4.91769 3.91016 5.46997 3.91016Z" fill="#FFD633"/>
<path d="M2.62003 2.91125C2.61413 2.44305 2.78132 1.98916 3.08952 1.63667C3.39772 1.28417 3.82523 1.05789 4.29003 1.00125C4.01138 0.858482 3.70311 0.783127 3.39003 0.78125C2.83042 0.78125 2.29374 1.00355 1.89803 1.39925C1.50233 1.79496 1.28003 2.33164 1.28003 2.89125C1.28003 3.45086 1.50233 3.98754 1.89803 4.38325C2.29374 4.77895 2.83042 5.00125 3.39003 5.00125C3.70182 4.99829 4.00912 4.92658 4.29003 4.79125C3.83039 4.7352 3.40704 4.51323 3.09953 4.16704C2.79201 3.82086 2.6215 3.37429 2.62003 2.91125Z" fill="#FFD633"/>
</svg>
