<svg width="16" height="11" viewBox="0 0 16 11" fill="none" xmlns="http://www.w3.org/2000/svg">
<path d="M0.803738 0C0.566734 0.0300987 0.350742 0.151306 0.201498 0.337958C0.0522549 0.524609 -0.0185222 0.762049 0.00415385 1V10C-0.0185222 10.238 0.0522549 10.4754 0.201498 10.662C0.350742 10.8487 0.566734 10.9699 0.803738 11H4.00208V0H0.803738Z" fill="#D80000"/>
<path d="M15.1964 0H11.998V11H15.1964C15.4334 10.9699 15.6494 10.8487 15.7986 10.662C15.9479 10.4754 16.0186 10.238 15.996 10V1C16.0186 0.762049 15.9479 0.524609 15.7986 0.337958C15.6494 0.151306 15.4334 0.0300987 15.1964 0Z" fill="#D80000"/>
<path d="M11.9983 0H4.00244V11H11.9983V0Z" fill="white"/>
<path d="M8.00017 2.80859L6.75082 3.64859L7.1706 4.88859L6.33103 4.47859H5.50146V5.30859L6.75082 6.55859L6.33103 6.97859H7.57039H7.58038V8.64859H8.00017H8.41995V6.97859H8.42994H9.6693L9.24952 6.55859L10.4989 5.30859V4.47859H9.6693L8.82974 4.88859L9.24952 3.64859L8.00017 2.80859Z" fill="#D80000"/>
</svg>
