<svg width="16" height="11" viewBox="0 0 16 11" fill="none" xmlns="http://www.w3.org/2000/svg">
<path d="M15 0H1C0.447715 0 0 0.447715 0 1V10C0 10.5523 0.447715 11 1 11H15C15.5523 11 16 10.5523 16 10V1C16 0.447715 15.5523 0 15 0Z" fill="#053ACE"/>
<path d="M7.99984 2.49188C8.36435 2.49188 8.65984 2.19638 8.65984 1.83188C8.65984 1.46737 8.36435 1.17188 7.99984 1.17188C7.63534 1.17188 7.33984 1.46737 7.33984 1.83188C7.33984 2.19638 7.63534 2.49188 7.99984 2.49188Z" fill="#FFD633"/>
<path d="M6.16 2.98016C6.52451 2.98016 6.82 2.68466 6.82 2.32016C6.82 1.95565 6.52451 1.66016 6.16 1.66016C5.79549 1.66016 5.5 1.95565 5.5 2.32016C5.5 2.68466 5.79549 2.98016 6.16 2.98016Z" fill="#FFD633"/>
<path d="M4.82016 4.32C5.18466 4.32 5.48016 4.02451 5.48016 3.66C5.48016 3.29549 5.18466 3 4.82016 3C4.45565 3 4.16016 3.29549 4.16016 3.66C4.16016 4.02451 4.45565 4.32 4.82016 4.32Z" fill="#FFD633"/>
<path d="M4.32992 6.16375C4.69443 6.16375 4.98992 5.86826 4.98992 5.50375C4.98992 5.13924 4.69443 4.84375 4.32992 4.84375C3.96541 4.84375 3.66992 5.13924 3.66992 5.50375C3.66992 5.86826 3.96541 6.16375 4.32992 6.16375Z" fill="#FFD633"/>
<path d="M4.82016 8.00359C5.18466 8.00359 5.48016 7.7081 5.48016 7.34359C5.48016 6.97909 5.18466 6.68359 4.82016 6.68359C4.45565 6.68359 4.16016 6.97909 4.16016 7.34359C4.16016 7.7081 4.45565 8.00359 4.82016 8.00359Z" fill="#FFD633"/>
<path d="M6.16 9.34344C6.52451 9.34344 6.82 9.04795 6.82 8.68344C6.82 8.31893 6.52451 8.02344 6.16 8.02344C5.79549 8.02344 5.5 8.31893 5.5 8.68344C5.5 9.04795 5.79549 9.34344 6.16 9.34344Z" fill="#FFD633"/>
<path d="M7.99984 9.83172C8.36435 9.83172 8.65984 9.53623 8.65984 9.17172C8.65984 8.80721 8.36435 8.51172 7.99984 8.51172C7.63534 8.51172 7.33984 8.80721 7.33984 9.17172C7.33984 9.53623 7.63534 9.83172 7.99984 9.83172Z" fill="#FFD633"/>
<path d="M9.83969 9.34344C10.2042 9.34344 10.4997 9.04795 10.4997 8.68344C10.4997 8.31893 10.2042 8.02344 9.83969 8.02344C9.47518 8.02344 9.17969 8.31893 9.17969 8.68344C9.17969 9.04795 9.47518 9.34344 9.83969 9.34344Z" fill="#FFD633"/>
<path d="M11.18 8.00359C11.5445 8.00359 11.84 7.7081 11.84 7.34359C11.84 6.97909 11.5445 6.68359 11.18 6.68359C10.8155 6.68359 10.52 6.97909 10.52 7.34359C10.52 7.7081 10.8155 8.00359 11.18 8.00359Z" fill="#FFD633"/>
<path d="M11.6698 6.16375C12.0343 6.16375 12.3298 5.86826 12.3298 5.50375C12.3298 5.13924 12.0343 4.84375 11.6698 4.84375C11.3053 4.84375 11.0098 5.13924 11.0098 5.50375C11.0098 5.86826 11.3053 6.16375 11.6698 6.16375Z" fill="#FFD633"/>
<path d="M11.18 4.32C11.5445 4.32 11.84 4.02451 11.84 3.66C11.84 3.29549 11.5445 3 11.18 3C10.8155 3 10.52 3.29549 10.52 3.66C10.52 4.02451 10.8155 4.32 11.18 4.32Z" fill="#FFD633"/>
<path d="M9.83969 2.98016C10.2042 2.98016 10.4997 2.68466 10.4997 2.32016C10.4997 1.95565 10.2042 1.66016 9.83969 1.66016C9.47518 1.66016 9.17969 1.95565 9.17969 2.32016C9.17969 2.68466 9.47518 2.98016 9.83969 2.98016Z" fill="#FFD633"/>
</svg>
