<svg width="16" height="11" viewBox="0 0 16 11" fill="none" xmlns="http://www.w3.org/2000/svg">
<path d="M0.803726 0C0.566725 0.0300987 0.350737 0.151306 0.201495 0.337958C0.0522541 0.524609 -0.0185219 0.762049 0.00415379 1V10C-0.0185219 10.238 0.0522541 10.4754 0.201495 10.662C0.350737 10.8487 0.566725 10.9699 0.803726 11H4.00202V0H0.803726Z" fill="#008A00"/>
<path d="M15.1963 0H11.998V11H15.1963C15.4333 10.9699 15.6493 10.8487 15.7986 10.662C15.9478 10.4754 16.0186 10.238 15.9959 10V1C16.0186 0.762049 15.9478 0.524609 15.7986 0.337958C15.6493 0.151306 15.4333 0.0300987 15.1963 0Z" fill="#BF0000"/>
<path d="M11.9982 0H4.00244V11H11.9982V0Z" fill="white"/>
<path d="M8.00065 5.91813C8.92247 5.91813 9.66976 5.17044 9.66976 4.24813C9.66976 3.32581 8.92247 2.57812 8.00065 2.57812C7.07883 2.57812 6.33154 3.32581 6.33154 4.24813C6.33154 5.17044 7.07883 5.91813 8.00065 5.91813Z" fill="#B87100"/>
<path d="M8 8.66813C7.33567 8.69864 6.68418 8.478 6.17497 8.05003C5.66576 7.62206 5.33609 7.0181 5.25146 6.35813H5.7512C5.83463 6.88528 6.11105 7.36254 6.52669 7.69708C6.94233 8.03162 7.46748 8.19952 8 8.16813C8.53698 8.19865 9.06587 8.02659 9.48223 7.68593C9.89858 7.34526 10.1721 6.86076 10.2488 6.32812H10.7485C10.6709 6.99354 10.3442 7.60483 9.83424 8.03898C9.32429 8.47314 8.66891 8.69793 8 8.66813Z" fill="#B87100"/>
<path d="M8.84074 5.91797H7.17163V6.74797H8.84074V5.91797Z" fill="#F59600"/>
</svg>
