<svg width="16" height="11" viewBox="0 0 16 11" fill="none" xmlns="http://www.w3.org/2000/svg">
<path d="M15 0H1C0.447715 0 0 0.447715 0 1V10C0 10.5523 0.447715 11 1 11H15C15.5523 11 16 10.5523 16 10V1C16 0.447715 15.5523 0 15 0Z" fill="#053ACE"/>
<path d="M12.1798 1.39844C12.0988 1.47593 12.0342 1.56905 11.9902 1.67217C11.9461 1.7753 11.9233 1.88629 11.9233 1.99844C11.9233 2.11059 11.9461 2.22158 11.9902 2.3247C12.0342 2.42783 12.0988 2.52095 12.1798 2.59844C12.2986 2.71761 12.45 2.79885 12.615 2.83189C12.78 2.86493 12.951 2.84826 13.1065 2.78402C13.262 2.71977 13.3949 2.61082 13.4885 2.47098C13.582 2.33113 13.6319 2.16668 13.6319 1.99844C13.6319 1.8302 13.582 1.66574 13.4885 1.5259C13.3949 1.38605 13.262 1.27711 13.1065 1.21286C12.951 1.14861 12.78 1.13195 12.615 1.16499C12.45 1.19802 12.2986 1.27927 12.1798 1.39844Z" fill="#EC0606"/>
<path d="M12.1798 7.39844C12.0988 7.47593 12.0342 7.56905 11.9902 7.67217C11.9461 7.7753 11.9233 7.88629 11.9233 7.99844C11.9233 8.11059 11.9461 8.22158 11.9902 8.3247C12.0342 8.42783 12.0988 8.52095 12.1798 8.59844C12.2986 8.71761 12.45 8.79885 12.615 8.83189C12.78 8.86493 12.951 8.84826 13.1065 8.78402C13.262 8.71977 13.3949 8.61082 13.4885 8.47098C13.582 8.33113 13.6319 8.16668 13.6319 7.99844C13.6319 7.8302 13.582 7.66574 13.4885 7.5259C13.3949 7.38605 13.262 7.27711 13.1065 7.21286C12.951 7.14861 12.78 7.13195 12.615 7.16499C12.45 7.19802 12.2986 7.27927 12.1798 7.39844Z" fill="#EC0606"/>
<path d="M13.6798 3.39844C13.5988 3.47593 13.5342 3.56905 13.4902 3.67217C13.4461 3.7753 13.4233 3.88629 13.4233 3.99844C13.4233 4.11059 13.4461 4.22158 13.4902 4.3247C13.5342 4.42783 13.5988 4.52095 13.6798 4.59844C13.7986 4.71761 13.95 4.79885 14.115 4.83189C14.28 4.86493 14.451 4.84826 14.6065 4.78402C14.762 4.71977 14.8949 4.61082 14.9885 4.47098C15.082 4.33113 15.1319 4.16668 15.1319 3.99844C15.1319 3.8302 15.082 3.66574 14.9885 3.5259C14.8949 3.38605 14.762 3.27711 14.6065 3.21286C14.451 3.14861 14.28 3.13195 14.115 3.16499C13.95 3.19802 13.7986 3.27927 13.6798 3.39844Z" fill="#EC0606"/>
<path d="M10.6798 3.39844C10.5988 3.47593 10.5342 3.56905 10.4902 3.67217C10.4461 3.7753 10.4233 3.88629 10.4233 3.99844C10.4233 4.11059 10.4461 4.22158 10.4902 4.3247C10.5342 4.42783 10.5988 4.52095 10.6798 4.59844C10.7986 4.71761 10.95 4.79885 11.115 4.83189C11.28 4.86493 11.451 4.84826 11.6065 4.78402C11.762 4.71977 11.8949 4.61082 11.9885 4.47098C12.082 4.33113 12.1319 4.16668 12.1319 3.99844C12.1319 3.8302 12.082 3.66574 11.9885 3.5259C11.8949 3.38605 11.762 3.27711 11.6065 3.21286C11.451 3.14861 11.28 3.13195 11.115 3.16499C10.95 3.19802 10.7986 3.27927 10.6798 3.39844Z" fill="#EC0606"/>
<path d="M0 1C0 0.447715 0.447715 0 1 0H9V6.5H0V1Z" fill="#053ACE"/>
<path fill-rule="evenodd" clip-rule="evenodd" d="M1.77803 0H0.9999C0.574756 0 0.211577 0.265307 0.0668945 0.63939L7.34002 6.5H8.9999V5.81931L1.77803 0Z" fill="white"/>
<path fill-rule="evenodd" clip-rule="evenodd" d="M0 5.48978V6.5H1.22264L9 0.233089V0H6.81292L0 5.48978Z" fill="white"/>
<path fill-rule="evenodd" clip-rule="evenodd" d="M0.375898 0.21875C0.238795 0.328434 0.131193 0.473455 0.0668945 0.640011L7.3393 6.50004H8.1711L0.375898 0.21875Z" fill="#D80000"/>
<path fill-rule="evenodd" clip-rule="evenodd" d="M0.408691 6.5H1.24049L9.00022 0.247285V0H8.47531L0.408691 6.5Z" fill="#D80000"/>
<rect y="2.07031" width="9" height="2.36364" fill="white"/>
<rect x="3.31982" width="2.36" height="6.5" fill="white"/>
<rect x="3.91016" width="1.18" height="6.5" fill="#D80000"/>
<rect y="2.65625" width="9" height="1.18182" fill="#D80000"/>
</svg>
