<svg width="16" height="11" viewBox="0 0 16 11" fill="none" xmlns="http://www.w3.org/2000/svg">
<path d="M15 0H1C0.447715 0 0 0.447715 0 1V10C0 10.5523 0.447715 11 1 11H15C15.5523 11 16 10.5523 16 10V1C16 0.447715 15.5523 0 15 0Z" fill="#D80000"/>
<path d="M10.2397 7.41797C10.654 7.41797 10.9897 7.08218 10.9897 6.66797C10.9897 6.25376 10.654 5.91797 10.2397 5.91797C9.82553 5.91797 9.48975 6.25376 9.48975 6.66797C9.48975 7.08218 9.82553 7.41797 10.2397 7.41797Z" fill="#FFD633"/>
<path d="M10.2397 5.07812C10.654 5.07812 10.9897 4.74234 10.9897 4.32812C10.9897 3.91391 10.654 3.57812 10.2397 3.57812C9.82553 3.57812 9.48975 3.91391 9.48975 4.32812C9.48975 4.74234 9.82553 5.07812 10.2397 5.07812Z" fill="#FFD633"/>
<path d="M9.08984 9.41797C9.50406 9.41797 9.83984 9.08218 9.83984 8.66797C9.83984 8.25376 9.50406 7.91797 9.08984 7.91797C8.67563 7.91797 8.33984 8.25376 8.33984 8.66797C8.33984 9.08218 8.67563 9.41797 9.08984 9.41797Z" fill="#FFD633"/>
<path d="M9.08984 3.07812C9.50406 3.07812 9.83984 2.74234 9.83984 2.32812C9.83984 1.91391 9.50406 1.57812 9.08984 1.57812C8.67563 1.57812 8.33984 1.91391 8.33984 2.32812C8.33984 2.74234 8.67563 3.07812 9.08984 3.07812Z" fill="#FFD633"/>
<path d="M4.47021 2.51172L5.39021 4.38172L7.47021 4.68172L5.97021 6.14172L6.32022 8.21172L4.47021 7.23172L2.61021 8.21172L2.97021 6.14172L1.47021 4.68172L3.54021 4.38172L4.47021 2.51172Z" fill="#FFD633"/>
</svg>
