<svg xmlns="http://www.w3.org/2000/svg" fill="none" viewBox="0 0 32 22"><rect width="32" height="22" fill="#fff" rx="1"/><path fill="#006C00" d="M0 15h32v6a1 1 0 0 1-1 1H1a1 1 0 0 1-1-1v-6Z"/><path fill="#F59600" d="M0 1a1 1 0 0 1 1-1h30a1 1 0 0 1 1 1v6H0V1Z"/><path fill="#fff" stroke="#0085C7" stroke-width=".7" d="M18.65 11a2.65 2.65 0 1 1-5.3 0 2.65 2.65 0 0 1 5.3 0Z"/><path fill="#0085C7" d="M18 11a2 2 0 1 1-4 0 2 2 0 0 1 4 0Z"/><path fill="#0085C7" d="M18 11a2 2 0 1 1-4 0 2 2 0 0 1 4 0Z"/></svg>