<svg xmlns="http://www.w3.org/2000/svg" fill="none" viewBox="0 0 32 22"><path fill="#009500" d="M31 0H1a1 1 0 0 0-1 1v20a1 1 0 0 0 1 1h30a1 1 0 0 0 1-1V1a1 1 0 0 0-1-1Z"/><path fill="#FFD633" d="m29.341 11-13.34 8.408L2.658 11 16 2.594 29.341 11Z"/><path fill="#001D6D" d="M16.46 10.177a12.592 12.592 0 0 0-3.667-.572 9.43 9.43 0 0 0-2.235.268A5.557 5.557 0 0 0 16 16.557a5.555 5.555 0 0 0 5.22-3.668c-1.162-1.138-2.812-2.116-4.76-2.712Z"/><path fill="#001D6D" d="M16.754 9.22c1.878.574 3.502 1.493 4.74 2.585.037-.263.064-.53.064-.805a5.557 5.557 0 0 0-10.644-2.233c1.795-.314 3.834-.162 5.84.452Z"/><path fill="#fff" d="M12.793 9.605c1.181 0 2.43.19 3.668.57 1.947.597 3.598 1.576 4.761 2.713.125-.347.217-.71.271-1.083-1.237-1.092-2.86-2.01-4.739-2.586-2.007-.614-4.045-.767-5.84-.452a5.536 5.536 0 0 0-.356 1.106 9.483 9.483 0 0 1 2.235-.268Z"/></svg>