<svg width="16" height="11" viewBox="0 0 16 11" fill="none" xmlns="http://www.w3.org/2000/svg">
<path d="M15 0H1C0.447715 0 0 0.447715 0 1V10C0 10.5523 0.447715 11 1 11H15C15.5523 11 16 10.5523 16 10V1C16 0.447715 15.5523 0 15 0Z" fill="#D80000"/>
<path d="M7.85963 5.74143C7.85963 5.74143 5.28963 3.84143 6.99963 1.79143C7.17907 1.55846 7.41147 1.37161 7.67756 1.2464C7.94364 1.12118 8.23574 1.0612 8.52963 1.07143C8.52963 1.07143 8.26963 1.07143 8.31963 1.46143C8.44271 1.80465 8.58974 2.13881 8.75963 2.46143C8.99963 3.30143 8.13963 3.60143 7.99963 4.00143C7.86839 4.57151 7.82122 5.15771 7.85963 5.74143Z" fill="white"/>
<path d="M7.85987 5.74062C7.85987 5.74062 5.25987 7.60063 3.85987 5.32063C3.69592 5.07653 3.59152 4.79738 3.55505 4.5056C3.51857 4.21383 3.55105 3.91757 3.64987 3.64062C3.64987 3.64062 3.64987 3.91062 3.94987 3.96062C4.30205 3.94911 4.65295 3.91235 4.99987 3.85062C5.88987 3.91062 5.90987 4.85062 6.19987 5.12062C6.71946 5.40831 7.2789 5.61726 7.85987 5.74062Z" fill="white"/>
<path d="M7.8598 5.74219C7.8598 5.74219 8.8598 8.80219 6.2198 9.44219C5.93571 9.52222 5.63688 9.53498 5.34701 9.47943C5.05713 9.42389 4.78419 9.30157 4.5498 9.12219C4.5498 9.12219 4.7898 9.24219 4.9498 8.93219C5.04737 8.60401 5.12419 8.27002 5.1798 7.93219C5.4998 7.10219 6.3798 7.37219 6.7498 7.18219C7.18696 6.75792 7.56079 6.27295 7.8598 5.74219Z" fill="white"/>
<path d="M7.85986 5.74219C7.85986 5.74219 11.0599 5.74219 10.8599 8.45219C10.8535 8.74577 10.7766 9.03351 10.6356 9.2911C10.4946 9.5487 10.2937 9.76858 10.0499 9.93219C10.0499 9.93219 10.2399 9.74219 9.98986 9.50219C9.69416 9.31019 9.38311 9.14295 9.05986 9.00219C8.37986 8.43219 8.89986 7.68219 8.82986 7.27219C8.58583 6.71603 8.25877 6.20015 7.85986 5.74219Z" fill="white"/>
<path d="M7.85986 5.74314C7.85986 5.74314 8.85986 2.74314 11.3599 3.74314C11.6388 3.847 11.8892 4.01526 12.0908 4.23421C12.2923 4.45316 12.4394 4.71662 12.5199 5.00314C12.5199 5.00314 12.3999 4.76314 12.0899 4.92314C11.8048 5.13818 11.5372 5.3756 11.2899 5.63314C10.5399 6.11314 9.97986 5.39314 9.56986 5.32314C8.98231 5.37829 8.40611 5.51981 7.85986 5.74314Z" fill="white"/>
</svg>
