<svg width="16" height="11" viewBox="0 0 16 11" fill="none" xmlns="http://www.w3.org/2000/svg">
<path d="M15 0H1C0.447715 0 0 0.447715 0 1V10C0 10.5523 0.447715 11 1 11H15C15.5523 11 16 10.5523 16 10V1C16 0.447715 15.5523 0 15 0Z" fill="#D80000"/>
<path d="M6.00002 5.5C5.9993 4.72722 6.28179 3.98096 6.79405 3.40236C7.30632 2.82376 8.01284 2.45293 8.78002 2.36C8.31169 2.12378 7.79455 2.00049 7.27002 2C6.34176 2 5.45152 2.36875 4.79515 3.02513C4.13877 3.6815 3.77002 4.57174 3.77002 5.5C3.77002 6.42826 4.13877 7.3185 4.79515 7.97487C5.45152 8.63125 6.34176 9 7.27002 9C7.79455 8.99951 8.31169 8.87622 8.78002 8.64C8.01284 8.54707 7.30632 8.17624 6.79405 7.59764C6.28179 7.01904 5.9993 6.27278 6.00002 5.5Z" fill="white"/>
<path d="M9.92012 3.5L10.8401 4.55L12.2301 4.39L11.5201 5.59L12.1001 6.86L10.7401 6.55L9.71012 7.5L9.59012 6.11L8.37012 5.42L9.65012 4.87L9.92012 3.5Z" fill="white"/>
</svg>
