<svg width="24" height="24" viewBox="0 0 24 24" fill="none" xmlns="http://www.w3.org/2000/svg">
<path fill-rule="evenodd" clip-rule="evenodd" d="M11.25 17.25H12.75V10.5H11.25V17.25Z" fill="#006497"/>
<path fill-rule="evenodd" clip-rule="evenodd" d="M12 6.75C11.379 6.75 10.875 7.254 10.875 7.875C10.875 8.496 11.379 9 12 9C12.621 9 13.125 8.496 13.125 7.875C13.125 7.254 12.621 6.75 12 6.75" fill="#006497"/>
<path fill-rule="evenodd" clip-rule="evenodd" d="M12 21C7.03725 21 3 16.9627 3 12C3 7.03725 7.03725 3 12 3C16.9627 3 21 7.03725 21 12C21 16.9627 16.9627 21 12 21M12 1.5C6.201 1.5 1.5 6.201 1.5 12C1.5 17.799 6.201 22.5 12 22.5C17.799 22.5 22.5 17.799 22.5 12C22.5 6.201 17.799 1.5 12 1.5" fill="#006497"/>
</svg>
