<svg width="24" height="24" viewBox="0 0 24 24" fill="none" xmlns="http://www.w3.org/2000/svg">
<circle cx="12" cy="12" r="12" fill="black"/>
<path d="M12.0001 6.26125C13.8693 6.26125 14.0905 6.26848 14.8288 6.3021C15.5113 6.33322 15.8819 6.44715 16.1287 6.54301C16.4555 6.67 16.6886 6.82171 16.9337 7.06652C17.1788 7.3116 17.3305 7.54473 17.4572 7.87151C17.5531 8.11826 17.667 8.48893 17.6981 9.17138C17.7317 9.9094 17.7389 10.1309 17.7389 12.0001C17.7389 13.8693 17.7317 14.0905 17.6981 14.8288C17.667 15.5113 17.5531 15.8819 17.4572 16.1287C17.3302 16.4555 17.1785 16.6886 16.9337 16.9337C16.6886 17.1788 16.4555 17.3305 16.1287 17.4572C15.8819 17.553 15.5113 17.667 14.8288 17.6981C14.0908 17.7317 13.8693 17.7389 12.0001 17.7389C10.1309 17.7389 9.90941 17.7317 9.17138 17.6981C8.48893 17.667 8.11826 17.553 7.87151 17.4572C7.54473 17.3302 7.3116 17.1785 7.06652 16.9337C6.82144 16.6886 6.66972 16.4555 6.54301 16.1287C6.44715 15.8819 6.33322 15.5113 6.3021 14.8288C6.26848 14.0908 6.26125 13.8693 6.26125 12.0001C6.26125 10.1309 6.26848 9.90968 6.3021 9.17138C6.33322 8.48893 6.44715 8.11826 6.54301 7.87151C6.67 7.54473 6.82172 7.3116 7.06652 7.06652C7.3116 6.82144 7.54473 6.66972 7.87151 6.54301C8.11826 6.44715 8.48893 6.33322 9.17138 6.3021C9.90968 6.26848 10.1309 6.26125 12.0001 6.26125ZM12.0001 5C10.0989 5 9.8605 5.00806 9.11386 5.04224C8.3689 5.07614 7.86012 5.19451 7.41469 5.36762C6.95426 5.54657 6.56385 5.78582 6.17483 6.17511C5.78582 6.56413 5.54629 6.95454 5.36762 7.41469C5.19451 7.86011 5.07614 8.36889 5.04224 9.11386C5.00806 9.8605 5 10.0989 5 12.0001C5 13.9013 5.00806 14.1397 5.04224 14.8863C5.07614 15.6313 5.19451 16.1401 5.36762 16.5855C5.54657 17.0459 5.78582 17.4363 6.17511 17.8254C6.56441 18.2147 6.95454 18.4539 7.41497 18.6329C7.86012 18.806 8.36917 18.9243 9.11414 18.9582C9.86078 18.9924 10.0992 19.0005 12.0004 19.0005C13.9016 19.0005 14.14 18.9924 14.8866 18.9582C15.6316 18.9243 16.1406 18.806 16.5858 18.6329C17.0462 18.4539 17.4366 18.2147 17.8256 17.8254C18.2149 17.4361 18.4542 17.0459 18.6331 16.5855C18.8062 16.1404 18.9246 15.6313 18.9585 14.8863C18.9927 14.1397 19.0008 13.9013 19.0008 12.0001C19.0008 10.0989 18.9927 9.8605 18.9585 9.11386C18.9246 8.36889 18.8062 7.85984 18.6331 7.41469C18.4542 6.95426 18.2149 6.56385 17.8256 6.17483C17.4363 5.78554 17.0462 5.54629 16.5858 5.36734C16.1401 5.19451 15.6313 5.07614 14.8863 5.04224C14.1397 5.00806 13.9013 5 12.0001 5Z" fill="white"/>
<path d="M12 8.40576C10.0147 8.40576 8.40552 10.0152 8.40552 12.0003C8.40552 13.9854 10.0149 15.5948 12 15.5948C13.9851 15.5948 15.5946 13.9854 15.5946 12.0003C15.5946 10.0152 13.9854 8.40576 12 8.40576ZM12 14.3336C10.7113 14.3336 9.66677 13.2888 9.66677 12.0003C9.66677 10.7115 10.7116 9.66701 12 9.66701C13.2885 9.66701 14.3333 10.7118 14.3333 12.0003C14.3333 13.289 13.2888 14.3336 12 14.3336Z" fill="white"/>
<path d="M15.737 9.10334C16.2009 9.10334 16.577 8.72726 16.577 8.26334C16.577 7.79942 16.2009 7.42334 15.737 7.42334C15.2731 7.42334 14.897 7.79942 14.897 8.26334C14.897 8.72726 15.2731 9.10334 15.737 9.10334Z" fill="white"/>
</svg>
