<svg width="16" height="16" viewBox="0 0 16 16" fill="none" xmlns="http://www.w3.org/2000/svg">
<path d="M14 5H12C11.45 5 11 4.55 11 4V2C11 1.45 11.45 1 12 1H14C14.55 1 15 1.45 15 2V4C15 4.55 14.55 5 14 5Z" fill="#BF0000"/>
<path d="M14 10H12C11.45 10 11 9.55 11 9V7C11 6.45 11.45 6 12 6H14C14.55 6 15 6.45 15 7V9C15 9.55 14.55 10 14 10Z" fill="#BF0000"/>
<path d="M14 15H12C11.45 15 11 14.55 11 14V12C11 11.45 11.45 11 12 11H14C14.55 11 15 11.45 15 12V14C15 14.55 14.55 15 14 15Z" fill="#BF0000"/>
<path d="M9 10H7C6.45 10 6 9.55 6 9V7C6 6.45 6.45 6 7 6H9C9.55 6 10 6.45 10 7V9C10 9.55 9.55 10 9 10Z" fill="#BF0000"/>
<path d="M9 15H7C6.45 15 6 14.55 6 14V12C6 11.45 6.45 11 7 11H9C9.55 11 10 11.45 10 12V14C10 14.55 9.55 15 9 15Z" fill="#BF0000"/>
<path d="M4 15H2C1.45 15 1 14.55 1 14V12C1 11.45 1.45 11 2 11H4C4.55 11 5 11.45 5 12V14C5 14.55 4.55 15 4 15Z" fill="#BF0000"/>
</svg>
