<svg width="24" height="24" viewBox="0 0 24 24" fill="none" xmlns="http://www.w3.org/2000/svg">
<circle cx="12" cy="12" r="12" fill="black"/>
<path fill-rule="evenodd" clip-rule="evenodd" d="M12 5.5C16.1354 5.5 19.5 8.12748 19.5 11.3561C19.5 12.6492 18.9781 13.8118 17.8932 14.9579C16.3191 16.7002 12.8 18.824 12 19.1477C11.2223 19.4624 11.3126 18.9685 11.3482 18.7739C11.3492 18.7683 11.3502 18.763 11.3511 18.758L11.4575 18.1403C11.4833 17.9553 11.509 17.6696 11.4335 17.488C11.3494 17.2882 11.0164 17.1841 10.7726 17.1329C7.16766 16.6755 4.5 14.2511 4.5 11.3561C4.5 8.12748 7.86461 5.5 12 5.5ZM7.85366 12.7625H9.34756C9.43185 12.7625 9.5 12.8312 9.5 12.9162V13.4712C9.5 13.5562 9.43185 13.6249 9.34756 13.6249H7.15244C7.11119 13.6249 7.07353 13.6087 7.04663 13.5815L7.04484 13.5797L7.04304 13.5779C7.01614 13.5508 7 13.5128 7 13.4712V10.0286C7 9.94365 7.06815 9.87494 7.15244 9.87494H7.70122C7.78551 9.87494 7.85366 9.94365 7.85366 10.0286V12.7625ZM10.6384 9.87494H10.2366C10.1749 9.87494 10.125 9.94365 10.125 10.0286V13.4712C10.125 13.5562 10.1749 13.6249 10.2366 13.6249H10.6384C10.7001 13.6249 10.75 13.5562 10.75 13.4712V10.0286C10.75 9.94365 10.7001 9.87494 10.6384 9.87494ZM13.7605 9.87675H13.3379C13.273 9.87675 13.2205 9.94542 13.2205 10.0304V12.0743L12.0161 9.94542C12.0133 9.94 12.0106 9.93458 12.0064 9.92916L12.0051 9.92735L12.0025 9.92359C12.0011 9.9214 11.9999 9.91948 11.9981 9.91831C11.9975 9.91831 11.9971 9.91786 11.9968 9.91741C11.9964 9.91696 11.9961 9.91651 11.9954 9.91651C11.994 9.9147 11.9912 9.91108 11.9885 9.90928L11.9857 9.90566C11.985 9.90476 11.984 9.90386 11.983 9.90295C11.9819 9.90205 11.9809 9.90114 11.9802 9.90024C11.9795 9.89934 11.9788 9.89889 11.9781 9.89843C11.9774 9.89798 11.9767 9.89753 11.976 9.89663C11.9752 9.89609 11.9745 9.89555 11.9739 9.89502C11.9734 9.89465 11.973 9.89428 11.9726 9.89392L11.9726 9.89392L11.9726 9.89391C11.9716 9.89301 11.9705 9.89211 11.9691 9.8912C11.9685 9.8912 11.9678 9.89075 11.9671 9.8903C11.9667 9.89009 11.9664 9.88988 11.9661 9.88972C11.9657 9.88953 11.9654 9.8894 11.965 9.8894C11.9636 9.88849 11.9626 9.88804 11.9615 9.88759C11.9605 9.88714 11.9595 9.88669 11.9581 9.88578C11.9574 9.88578 11.9567 9.88533 11.956 9.88488C11.9553 9.88443 11.9546 9.88398 11.9539 9.88398C11.9533 9.88356 11.9527 9.88324 11.9522 9.88297C11.9516 9.88266 11.9511 9.88241 11.9505 9.88217C11.9495 9.88172 11.9484 9.88127 11.947 9.88036C11.9457 9.88036 11.9443 9.88036 11.9429 9.87855C11.9415 9.87855 11.9405 9.8781 11.9394 9.87765C11.9384 9.8772 11.9374 9.87675 11.936 9.87675H11.9305C11.9291 9.87675 11.9263 9.87675 11.9249 9.87494H11.9194H11.9153H11.4926C11.4277 9.87494 11.3752 9.94361 11.3752 10.0286V13.4695C11.3752 13.5545 11.4277 13.6231 11.4926 13.6231H11.9153C11.9802 13.6231 12.0327 13.5545 12.0327 13.4695V11.4273L13.2384 13.5599C13.2467 13.5743 13.2564 13.587 13.2688 13.5978C13.2688 13.5978 13.2702 13.5978 13.2702 13.5996L13.2718 13.6008L13.2736 13.6023C13.2747 13.6033 13.2757 13.6042 13.2771 13.6051C13.2785 13.6051 13.2799 13.6069 13.2799 13.6069C13.2806 13.6078 13.2816 13.6082 13.2826 13.6087L13.2837 13.6092C13.2843 13.6095 13.2849 13.6099 13.2854 13.6105C13.2858 13.611 13.2862 13.6113 13.2867 13.6116L13.2881 13.6123C13.2892 13.6127 13.2902 13.6132 13.2909 13.6141C13.2911 13.6141 13.2913 13.6141 13.2915 13.6142C13.2917 13.6143 13.2919 13.6143 13.2921 13.6144L13.293 13.615C13.2937 13.6155 13.2944 13.6159 13.2951 13.6159C13.2964 13.6168 13.2978 13.6173 13.2992 13.6177C13.3 13.618 13.3009 13.6183 13.3017 13.6186C13.3023 13.6189 13.3028 13.6192 13.3033 13.6195H13.3047C13.3144 13.6231 13.3241 13.6249 13.3351 13.6249H13.7577C13.8227 13.6249 13.8751 13.5563 13.8751 13.4713V10.0304C13.8779 9.94542 13.8254 9.87675 13.7605 9.87675ZM16.8477 10.7356C16.9319 10.7356 17 10.6669 17 10.5819V10.0286C17 9.94365 16.9319 9.87494 16.8477 9.87494H14.6523C14.6111 9.87494 14.5735 9.89121 14.5466 9.91833L14.5448 9.92014C14.5448 9.92105 14.5444 9.9215 14.5439 9.92195C14.5435 9.9224 14.543 9.92285 14.543 9.92376C14.5161 9.95088 14.5 9.98885 14.5 10.0304V13.4712C14.5 13.5128 14.5161 13.5508 14.543 13.5779L14.5448 13.5797L14.5466 13.5815C14.5735 13.6087 14.6111 13.6249 14.6523 13.6249H16.8459C16.9301 13.6249 16.9982 13.5562 16.9982 13.4712V12.9162C16.9982 12.8312 16.9301 12.7625 16.8459 12.7625H15.353V12.1803H16.8459C16.9301 12.1803 16.9982 12.1116 16.9982 12.0266V11.4733C16.9982 11.3883 16.9301 11.3196 16.8459 11.3196H15.353V10.7374H16.8477V10.7356Z" fill="white"/>
</svg>
