<svg width="16" height="16" viewBox="0 0 16 16" fill="none" xmlns="http://www.w3.org/2000/svg">
<g id="point filled">
<path id="Fill 1" fill-rule="evenodd" clip-rule="evenodd" d="M8.52735 9.1425H7.51535V11.0475H6.39035V5.145H8.52735C9.68285 5.145 10.5598 6.0075 10.5598 7.14C10.5598 8.2725 9.68285 9.1425 8.52735 9.1425ZM7.99985 1C4.13385 1 0.999847 4.134 0.999847 8C0.999847 11.866 4.13385 15 7.99985 15C11.8663 15 14.9998 11.866 14.9998 8C14.9998 4.134 11.8663 1 7.99985 1Z" fill="#BF0000"/>
<path id="Fill 3" fill-rule="evenodd" clip-rule="evenodd" d="M8.45264 6.19434H7.51514V8.09184H8.45264C8.96264 8.09184 9.35964 7.67184 9.35964 7.13184C9.35964 6.59984 8.96964 6.19434 8.45264 6.19434Z" fill="#BF0000"/>
</g>
</svg>
