<svg width="24" height="24" viewBox="0 0 24 24" fill="none" xmlns="http://www.w3.org/2000/svg">
<circle cx="12" cy="12" r="12" fill="black"/>
<path d="M9.89251 18C15.179 18 18.0696 13.767 18.0696 10.0984C18.0696 9.97749 18.0696 9.85654 18.0636 9.74136C18.6239 9.34974 19.1126 8.86021 19.5 8.30157C18.9874 8.52042 18.4332 8.67016 17.8491 8.73927C18.4451 8.39372 18.898 7.85236 19.1126 7.20157C18.5583 7.51832 17.9444 7.74869 17.2888 7.87539C16.7644 7.33403 16.0194 7 15.1909 7C13.6056 7 12.3182 8.24398 12.3182 9.77592C12.3182 9.99476 12.3421 10.2079 12.3957 10.4094C10.0057 10.2942 7.88995 9.18848 6.47148 7.50681C6.22712 7.91571 6.08408 8.39372 6.08408 8.90052C6.08408 9.8623 6.59068 10.7147 7.36547 11.2099C6.89464 11.1984 6.4536 11.0717 6.0662 10.8644C6.0662 10.8759 6.0662 10.8874 6.0662 10.899C6.0662 12.2466 7.05556 13.3639 8.37271 13.623C8.13431 13.6864 7.87803 13.7209 7.61579 13.7209C7.43103 13.7209 7.25224 13.7037 7.07344 13.6691C7.43699 14.7749 8.49787 15.5754 9.75543 15.5984C8.77203 16.3414 7.53235 16.7848 6.1854 16.7848C5.95296 16.7848 5.72648 16.7733 5.5 16.7445C6.75756 17.5393 8.27139 18 9.89251 18Z" fill="white"/>
</svg>
