<svg width="24" height="24" viewBox="0 0 24 24" fill="none" xmlns="http://www.w3.org/2000/svg">
<path d="M22.5 21.4385L21.4395 22.5L16.0859 17.1455C16.4658 16.8195 16.8195 16.4658 17.1455 16.0859L22.5 21.4385ZM9.75 1.5C14.3062 1.5 18 5.19375 18 9.75C18 14.3062 14.3062 18 9.75 18C5.19375 18 1.5 14.3062 1.5 9.75C1.5 5.19375 5.19375 1.5 9.75 1.5ZM9.75 3C6.02775 3 3 6.02775 3 9.75C3 13.4715 6.02775 16.5 9.75 16.5C13.4715 16.5 16.5 13.4715 16.5 9.75C16.5 6.02775 13.4715 3 9.75 3ZM10.5 9H12.75V10.5H10.5V12.75H9V10.5H6.75V9H9V6.75H10.5V9Z" fill="#053AD0"/>
</svg>
