<svg width="24" height="24" viewBox="0 0 24 24" fill="none" xmlns="http://www.w3.org/2000/svg">
<g id="new user">
<path id="Fill 1" fill-rule="evenodd" clip-rule="evenodd" d="M6 16.4004V3.75237L10.5 6.45237V4.70262L6.77175 2.46612C6.52425 2.31762 6.26025 2.25012 6.003 2.25012C5.22 2.25012 4.5 2.87487 4.5 3.75237V16.4004C4.5 16.9276 4.776 17.4159 5.22825 17.6874L10.5 20.8501V19.1011L6 16.4004Z" fill="#EC0606"/>
<path id="Fill 3" fill-rule="evenodd" clip-rule="evenodd" d="M17.9971 2.25C17.7399 2.25 17.4759 2.3175 17.2284 2.466L12.0001 5.60325V21.75L18.7719 17.6873C19.2241 17.4158 19.5001 16.9275 19.5001 16.4003V3.75225C19.5001 2.87475 18.7801 2.25 17.9971 2.25Z" fill="#EC0606"/>
</g>
</svg>
