<svg width="24" height="24" viewBox="0 0 24 24" fill="none" xmlns="http://www.w3.org/2000/svg">
<circle cx="12" cy="12" r="12" fill="black"/>
<path fill-rule="evenodd" clip-rule="evenodd" d="M17.4695 7.2959C18.0717 7.45905 18.5466 7.93888 18.7073 8.54828C19 9.65351 19 11.9583 19 11.9583C19 11.9583 19 14.2632 18.7073 15.3684C18.5466 15.9778 18.0717 16.4576 17.4695 16.6208C16.3782 16.9167 12 16.9167 12 16.9167C12 16.9167 7.62182 16.9167 6.53045 16.6208C5.9283 16.4576 5.45341 15.9778 5.29273 15.3684C5 14.2632 5 11.9583 5 11.9583C5 11.9583 5 9.65351 5.29273 8.54828C5.45341 7.93888 5.9283 7.45905 6.53045 7.2959C7.62182 7 12 7 12 7C12 7 16.3782 7 17.4695 7.2959ZM14.359 11.9583L10.7 14.0512V9.86542L14.359 11.9583Z" fill="white"/>
</svg>
