<?xml version="1.0" encoding="utf-8"?>
<!-- Generator: Adobe Illustrator 22.0.1, SVG Export Plug-In . SVG Version: 6.00 Build 0)  -->
<svg version="1.1" id="レイヤー_1" xmlns="http://www.w3.org/2000/svg" xmlns:xlink="http://www.w3.org/1999/xlink" x="0px"
	 y="0px" viewBox="0 0 32 32" style="enable-background:new 0 0 32 32;" xml:space="preserve">
<style type="text/css">
	.st0{fill:#B4B4B5;}
</style>
<path class="st0" d="M31,27.3L20.5,16.8c0.2-0.3,0.3-0.5,0.4-0.8c2.7-5.4,0.5-12-4.9-14.7c-1.5-0.8-3.2-1.1-4.9-1.1
	c-4.2,0-8,2.3-9.8,6.1c-2.7,5.4-0.5,12,4.9,14.7c1.5,0.8,3.2,1.1,4.9,1.1c2,0,4-0.5,5.7-1.6L27.3,31c0.5,0.5,1.2,0.8,1.8,0.8
	s1.4-0.3,1.8-0.8C32.1,30,32.1,28.4,31,27.3z M17.9,8.8c0.6,1.8,0.5,3.8-0.4,5.5c-1.2,2.5-3.7,4-6.4,4c-1.1,0-2.2-0.3-3.2-0.8
	c-3.6-1.8-5-6.1-3.2-9.6c1.2-2.5,3.7-4,6.4-4c1.1,0,2.2,0.3,3.2,0.8C16,5.5,17.3,7,17.9,8.8z"/>
</svg>
