<?xml version="1.0" encoding="utf-8"?>
<!-- Generator: Adobe Illustrator 19.2.1, SVG Export Plug-In . SVG Version: 6.00 Build 0)  -->
<svg version="1.1" id="レイヤー_1" xmlns="http://www.w3.org/2000/svg" xmlns:xlink="http://www.w3.org/1999/xlink" x="0px"
	 y="0px" viewBox="0 0 20 24" width="20" height="24" style="enable-background:new 0 0 20 24;" xml:space="preserve">
<style type="text/css">
	.st0{fill:#848FA4;}
</style>
<path class="st0" d="M9.6,15.4c0,0-2.5-4.2-2.5-4.2C6.6,10,6.6,8.6,7.6,8L4.1,1.9C2.9,2.7-0.9,7.2,4,15.8c5.1,9.1,11,8.1,12.3,7.4
	l-3.5-5.9C11.7,17.8,11,17.1,9.6,15.4z M19.9,20.1L19.9,20.1l-2.7-4.6c-0.3-0.4-0.8-0.5-1.2-0.2l-2.1,1.2l3.5,5.9l2.1-1.2l0,0
	C19.9,21,20.1,20.6,19.9,20.1z M10.6,6.2L10.6,6.2c0.4-0.2,0.6-0.7,0.4-1.1l0,0L8.3,0.3C8,0,7.4-0.1,7.1,0.2L5,1.4l3.6,6.1L10.6,6.2
	z"/>
</svg>
