<svg width="24" height="24" viewBox="0 0 24 24" fill="none" xmlns="http://www.w3.org/2000/svg">
<path fill-rule="evenodd" clip-rule="evenodd" d="M3.33105 19.5H20.6688L12.0003 4.179L3.33105 19.5ZM22.3653 19.4535C22.7583 20.148 22.243 21 21.4278 21H2.57205C1.7568 21 1.24155 20.148 1.63455 19.4535L11.0628 2.79C11.266 2.43 11.6328 2.25 12.0003 2.25C12.367 2.25 12.7338 2.43 12.9378 2.79L22.3653 19.4535Z" fill="#333333"/>
<path fill-rule="evenodd" clip-rule="evenodd" d="M11.25 14.25H12.75V7.5H11.25V14.25Z" fill="#333333"/>
<path fill-rule="evenodd" clip-rule="evenodd" d="M10.875 16.875C10.875 17.496 11.379 18 12 18C12.621 18 13.125 17.496 13.125 16.875C13.125 16.254 12.621 15.75 12 15.75C11.379 15.75 10.875 16.254 10.875 16.875Z" fill="#333333"/>
</svg>
