<svg width="24" height="24" viewBox="0 0 24 24" fill="none" xmlns="http://www.w3.org/2000/svg">
<path fill-rule="evenodd" clip-rule="evenodd" d="M12 15.75C11.379 15.75 10.875 16.254 10.875 16.875C10.875 17.496 11.379 18 12 18C12.621 18 13.125 17.496 13.125 16.875C13.125 16.254 12.621 15.75 12 15.75Z" fill="#EC0606"/>
<path fill-rule="evenodd" clip-rule="evenodd" d="M12 21C7.03725 21 3 16.9627 3 12C3 7.03725 7.03725 3 12 3C16.9627 3 21 7.03725 21 12C21 16.9627 16.9627 21 12 21ZM12 1.5C6.201 1.5 1.5 6.201 1.5 12C1.5 17.799 6.201 22.5 12 22.5C17.799 22.5 22.5 17.799 22.5 12C22.5 6.201 17.799 1.5 12 1.5Z" fill="#EC0606"/>
<path fill-rule="evenodd" clip-rule="evenodd" d="M12 6C10.1363 6 8.625 7.51125 8.625 9.375V9.75H10.125V9.375C10.125 8.34075 10.9657 7.5 12 7.5C13.0343 7.5 13.875 8.34075 13.875 9.375C13.875 10.4093 13.0343 11.25 12 11.25C11.5852 11.25 11.25 11.5852 11.25 12V14.25H12.75V12.66C14.2515 12.318 15.375 10.9808 15.375 9.375C15.375 7.51125 13.8637 6 12 6Z" fill="#EC0606"/>
</svg>
