<svg xmlns="http://www.w3.org/2000/svg" viewBox="0 0 20.26 21.84" height="20"><defs><style>.cls-1{fill:#EC0606;}</style></defs><title>header_1</title><g id="レイヤー_2" data-name="レイヤー 2"><g id="Contents"><path class="cls-1" d="M19.95,20.88c-3.52-1.45-6.61-3.28-6.61-3.91V16.7c2.85-.55,3.32-2.44,3.37-3.32a1.18,1.18,0,0,0,.45-.92V8.18a1.18,1.18,0,0,0-1-1.15,7.19,7.19,0,0,0-1.5-5.2A5.91,5.91,0,0,0,10,0,5.58,5.58,0,0,0,5.51,1.95,7.21,7.21,0,0,0,4.08,7a1.18,1.18,0,0,0-1,1.15v4.28a1.2,1.2,0,0,0,1.2,1.2h1.1a5.61,5.61,0,0,0,1.5,2.45V17c0,.63-3.1,2.46-6.61,3.91a.5.5,0,1,0,.38.92c2.17-.9,7.23-3.16,7.23-4.83V15.89a.5.5,0,0,0-.17-.38A4.49,4.49,0,0,1,6.2,12.2V7.66c0-1.42.51-3.8,3.93-3.8s3.93,2.38,3.93,3.8V12.2a4.48,4.48,0,0,1-1.56,3.31.49.49,0,0,0-.16.31l-.43,0a1.51,1.51,0,1,0,0,1l.41,0V17c0,1.67,5.06,3.93,7.23,4.83a.51.51,0,0,0,.19,0,.5.5,0,0,0,.19-1ZM15.06,12.2V8H16a.2.2,0,0,1,.2.2v4.28a.2.2,0,0,1-.2.2H15C15.05,12.51,15.06,12.35,15.06,12.2Zm-10.74.46a.2.2,0,0,1-.2-.2V8.18a.2.2,0,0,1,.2-.2H5.2V12.2c0,.15,0,.31,0,.46Zm5.81-9.79C7.29,2.87,5.52,4.4,5.25,7H5.08a6.22,6.22,0,0,1,1.2-4.4A4.63,4.63,0,0,1,10,1a5,5,0,0,1,3.9,1.49A6.19,6.19,0,0,1,15.19,7H15C14.74,4.4,13,2.87,10.13,2.87Zm4.71,10.79h.83a2.45,2.45,0,0,1-1.82,1.88A5.59,5.59,0,0,0,14.84,13.66Zm-4.34,3.2a.51.51,0,1,1,.51-.51A.51.51,0,0,1,10.5,16.86Z"/></g></g></svg>