<?xml version="1.0" encoding="utf-8"?>
<!-- Generator: Adobe Illustrator 21.1.0, SVG Export Plug-In . SVG Version: 6.00 Build 0)  -->
<svg version="1.1" id="レイヤー_1" xmlns="http://www.w3.org/2000/svg" xmlns:xlink="http://www.w3.org/1999/xlink" x="0px"
	 y="0px" viewBox="0 0 20 20" style="enable-background:new 0 0 20 20;" xml:space="preserve" height="20">
<style type="text/css">
	.st0{fill:none;stroke:#EC0606;stroke-width:0.9974;stroke-miterlimit:10;}
	.st1{fill:none;stroke:#EC0606;stroke-width:0.9974;stroke-linecap:round;stroke-linejoin:round;stroke-dasharray:1.8043,1.8043;}
	.st2{fill:none;stroke:#EC0606;stroke-width:0.9974;stroke-linecap:round;stroke-linejoin:round;stroke-miterlimit:10;}
</style>
<g>
	<path class="st0" d="M6.9,8.6H2.2C1.3,8.6,0.6,7.9,0.6,7V2.2c0-0.9,0.7-1.6,1.6-1.6h4.7c0.9,0,1.6,0.7,1.6,1.6V7
		C8.5,7.9,7.8,8.6,6.9,8.6z"/>
	<g>
		<path class="st1" d="M17.8,19.3h-4.7c-0.9,0-1.6-0.7-1.6-1.6V13c0-0.9,0.7-1.6,1.6-1.6h4.7c0.9,0,1.6,0.7,1.6,1.6v4.7
			C19.4,18.6,18.7,19.3,17.8,19.3z"/>
	</g>
	<g>
		<polyline class="st2" points="6.9,19.5 9.3,17.8 6.9,16.1 		"/>
		<path class="st2" d="M8.8,17.8H4.2c-1.8,0-3.2-1.4-3.2-3.2v-3.2"/>
	</g>
	<g>
		<polyline class="st2" points="13.3,0.5 11,2.2 13.3,3.9 		"/>
		<path class="st2" d="M11.5,2.2h4.4c1.8,0,3.2,1.4,3.2,3.2v3.2"/>
	</g>
</g>
</svg>
