<svg xmlns="http://www.w3.org/2000/svg" viewBox="0 0 18.68 18.68" height="20"><defs><style>.cls-1{fill:#EC0606;}.cls-2,.cls-4{fill:none;stroke:#EC0606;stroke-miterlimit:10;}.cls-2{stroke-linecap:round;}.cls-3{fill:#fff;}</style></defs><title>header_2</title><g id="レイヤー_2" data-name="レイヤー 2"><g id="Contents"><path class="cls-1" d="M3.41,9.61l4,1.7,1.7,4L7.33,17l-6.22.57.57-6.22L3.41,9.61M3.18,8.42.71,10.9,0,18.68,7.78,18l2.47-2.47L8.13,10.55,3.18,8.42Z"/><path class="cls-2" d="M1.06,15.5a2.8,2.8,0,0,1,1.41.71,2.8,2.8,0,0,1,.71,1.41"/><path class="cls-3" d="M8,17.06A12,12,0,0,0,1.61,10.7L11.67.65a.5.5,0,0,1,.71,0L18,6.3A.5.5,0,0,1,18,7Z"/><path class="cls-1" d="M12,1h0l5.66,5.66L8.14,16.2a12.69,12.69,0,0,0-5.66-5.65L12,1h0m0-1a1,1,0,0,0-.71.29L.71,10.9A11.33,11.33,0,0,1,7.78,18L18.38,7.36a1,1,0,0,0,0-1.41L12.73.29A1,1,0,0,0,12,0Z"/><line class="cls-4" x1="6.5" y1="14.3" x2="16.16" y2="4.64"/><line class="cls-4" x1="4.37" y1="12.18" x2="14.04" y2="2.52"/></g></g></svg>