<svg xmlns="http://www.w3.org/2000/svg" viewBox="0 0 18 20" height="20"><defs><style>.cls-1{fill:#EC0606;}.cls-2{fill:#fff;}</style></defs><title>header_3</title><g id="レイヤー_2" data-name="レイヤー 2"><g id="Contents"><path class="cls-1" d="M9,1a6,6,0,0,1,6,6V9A6,6,0,0,1,3,9V7A6,6,0,0,1,9,1M9,0H9A7,7,0,0,0,2,7V9a7,7,0,0,0,7,7H9a7,7,0,0,0,7-7V7A7,7,0,0,0,9,0Z"/><path class="cls-1" d="M9,3a4,4,0,0,1,4,4v6a4,4,0,0,1-8,0V7A4,4,0,0,1,9,3M9,2H9A5,5,0,0,0,4,7v6a5,5,0,0,0,5,5H9a5,5,0,0,0,5-5V7A5,5,0,0,0,9,2Z"/><rect class="cls-2" x="0.5" y="8.5" width="17" height="11" rx="1.5" ry="1.5"/><path class="cls-1" d="M16,9a1,1,0,0,1,1,1v8a1,1,0,0,1-1,1H2a1,1,0,0,1-1-1V10A1,1,0,0,1,2,9H16m0-1H2a2,2,0,0,0-2,2v8a2,2,0,0,0,2,2H16a2,2,0,0,0,2-2V10a2,2,0,0,0-2-2Z"/><path class="cls-1" d="M9,10.5a2,2,0,0,1,2,2A2,2,0,0,1,10.33,14l-.33.3V16a1,1,0,0,1-2,0V14.28L7.67,14A2,2,0,0,1,7,12.5a2,2,0,0,1,2-2m0-1a3,3,0,0,0-2,5.22V16a2,2,0,0,0,4,0V14.72A3,3,0,0,0,9,9.5Z"/></g></g></svg>