<svg width="22" height="22" viewBox="0 0 22 22" fill="none" xmlns="http://www.w3.org/2000/svg">
<path d="M11 4.125C9.1025 4.125 7.5625 5.665 7.5625 7.5625C7.5625 9.46 9.1025 11 11 11C12.8975 11 14.4375 9.46 14.4375 7.5625C14.4375 5.665 12.8975 4.125 11 4.125ZM11 9.625C9.85875 9.625 8.9375 8.70375 8.9375 7.5625C8.9375 6.42125 9.85875 5.5 11 5.5C12.1413 5.5 13.0625 6.42125 13.0625 7.5625C13.0625 8.70375 12.1413 9.625 11 9.625Z" fill="#EC0606"/>
<path d="M19.25 1.375H2.75C1.99375 1.375 1.375 1.99375 1.375 2.75V4.125V12.375V20.625H2.75V13.75V12.375V4.125V2.75H19.25V12.375H4.125V13.75H19.25C20.0063 13.75 20.625 13.1313 20.625 12.375V2.75C20.625 1.99375 20.0063 1.375 19.25 1.375Z" fill="#EC0606"/>
</svg>
