<svg width="22" height="22" viewBox="0 0 22 22" fill="none" xmlns="http://www.w3.org/2000/svg">
<path fill-rule="evenodd" clip-rule="evenodd" d="M11.7563 5.43135L16.2251 1.44385L20.7626 5.43135H18.4938V16.1563H14.0251V15.9501C15.6751 14.9188 16.7751 13.1313 16.7751 11.0688C16.7751 9.00635 15.6751 7.21885 14.0251 6.1876V5.43135H11.7563ZM4.5376 16.1562L6.7376 18.5625L8.9376 16.225C9.41885 16.4312 9.9001 16.5687 10.4501 16.6375L10.0376 17.05L7.8376 19.4562L6.80635 20.5562L1.44385 14.7812H4.2626V5.77496H8.73135C7.9751 6.11871 7.35635 6.59996 6.80635 7.14996H5.56885V16.1562H4.5376ZM11.2063 10.5187C10.9857 10.4746 10.9067 10.4305 10.8602 10.4045C10.8342 10.39 10.8184 10.3812 10.7938 10.3812C10.6563 10.3125 10.6563 10.2437 10.6563 10.2437C10.6563 10.1062 10.7938 9.96871 11 9.96871C11.2063 9.96871 11.3438 10.0375 11.55 10.2437L11.6188 10.3812L12.2375 9.69371L12.1688 9.62496C11.9625 9.41871 11.6875 9.28121 11.4125 9.21246V8.86871H10.6563V9.21246C10.0375 9.34996 9.69378 9.76246 9.69378 10.2437C9.69378 10.9312 10.2438 11.2062 11 11.4125C11.0344 11.4125 11.086 11.4297 11.1375 11.4468C11.1891 11.464 11.2407 11.4812 11.275 11.4812C11.4125 11.55 11.4125 11.6187 11.4125 11.6875C11.4125 11.8937 11.2063 11.9625 11 11.9625C10.725 11.9625 10.5188 11.825 10.3125 11.6187L10.2438 11.4812L9.62503 12.1L9.69378 12.1687C9.96878 12.4437 10.3125 12.65 10.6563 12.7187V13.1312H11.4125V12.7187C11.4913 12.6925 11.55 12.6762 11.6002 12.6624C11.6813 12.6399 11.7401 12.6237 11.825 12.5812C12.1688 12.375 12.375 12.1 12.375 11.6875C12.375 11.1375 12.0313 10.7937 11.2063 10.5187ZM14.0938 11C14.0938 9.28128 12.7188 7.90628 11 7.90628C9.28128 7.90628 7.90628 9.28128 7.90628 11C7.90628 12.7188 9.28128 14.0938 11 14.0938C12.7188 14.0938 14.0938 12.7188 14.0938 11ZM6.53128 11C6.53128 8.52503 8.52503 6.53128 11 6.53128C13.475 6.53128 15.4688 8.52503 15.4688 11C15.4688 13.475 13.475 15.4688 11 15.4688C8.52503 15.4688 6.53128 13.475 6.53128 11Z" fill="#EC0606"/>
</svg>
