<svg width="22" height="22" viewBox="0 0 22 22" fill="none" xmlns="http://www.w3.org/2000/svg">
<path d="M16.7062 12.5125C15.3312 11.825 13.6812 12.4438 13.0625 13.75L11.6875 16.5V20.625H13.0625V16.8438L14.2313 14.4375C14.575 13.75 15.4 13.475 16.0875 13.8188L14.7812 16.5688H16.2938L17.9438 13.2L16.7062 12.5125Z" fill="#EC0606"/>
<path d="M19.3873 5.5C18.0811 5.5 16.9811 6.39375 16.7061 7.63125L16.0186 10.6562L17.3248 11.275L18.1498 7.8375C18.1498 7.2875 18.6998 6.875 19.2498 6.875V14.4375C19.2498 14.6438 19.1811 14.9187 19.1123 15.125L17.1873 18.5625V20.625H18.5623V18.9062L20.2811 15.7437C20.4873 15.3313 20.6248 14.9187 20.6248 14.4375V5.5H19.3873Z" fill="#EC0606"/>
<path d="M5.29414 12.5127L4.05664 13.1315L5.70664 16.5002H7.21914L5.91289 13.7502C6.60039 13.4065 7.42539 13.6815 7.76914 14.369L8.93789 16.7752V20.6252H10.3129V16.5002L9.00664 13.819C8.31914 12.444 6.66914 11.894 5.29414 12.5127Z" fill="#EC0606"/>
<path d="M2.75 14.4375V6.875C3.3 6.875 3.85 7.2875 3.9875 7.8375L4.8125 11.275L6.11875 10.6562L5.43125 7.63125C5.01875 6.39375 3.91875 5.5 2.6125 5.5H1.375V14.4375C1.375 14.9187 1.5125 15.3313 1.71875 15.7437L3.4375 18.9062V20.625H4.8125V18.5625L2.8875 15.0562C2.81875 14.85 2.75 14.6438 2.75 14.4375Z" fill="#EC0606"/>
<path d="M11 11C13.6813 11 15.8125 8.86875 15.8125 6.1875C15.8125 3.50625 13.6813 1.375 11 1.375C8.31875 1.375 6.1875 3.50625 6.1875 6.1875C6.1875 8.86875 8.31875 11 11 11ZM11 2.75C12.925 2.75 14.4375 4.2625 14.4375 6.1875C14.4375 8.1125 12.925 9.625 11 9.625C9.075 9.625 7.5625 8.1125 7.5625 6.1875C7.5625 4.2625 9.075 2.75 11 2.75Z" fill="#EC0606"/>
<path d="M10.5875 8.9375H11.4125V7.5625H13.0625V6.875H11.4125V6.325L11.55 6.1875H13.0625V5.5H12.0312L13.0625 4.125H12.0312L11 5.5L9.96875 4.125H8.9375L9.96875 5.5H8.9375V6.1875H10.45L10.5875 6.325V6.875H8.9375V7.5625H10.5875V8.9375Z" fill="#EC0606"/>
</svg>
