<svg width="22" height="22" viewBox="0 0 22 22" fill="none" xmlns="http://www.w3.org/2000/svg">
<path fill-rule="evenodd" clip-rule="evenodd" d="M19.25 1.375H2.75C1.99375 1.375 1.375 1.99375 1.375 2.75V20.625H2.75V8.25H10.5875C11.2062 8.25 11.6875 7.76875 11.6875 7.15V2.75H19.25V4.125H13.1313V5.5H19.25V6.875H13.1313V8.25H19.25V9.625H4.19375V11H19.25V12.375H4.125V13.75H19.25C20.0063 13.75 20.625 13.1313 20.625 12.375V2.75C20.625 1.99375 20.0063 1.375 19.25 1.375ZM4.12499 2.75C4.53749 2.75 4.81249 3.025 4.81249 3.4375C4.81249 3.85 4.53749 4.125 4.12499 4.125C3.71249 4.125 3.43749 3.85 3.43749 3.4375C3.43749 3.025 3.71249 2.75 4.12499 2.75ZM6.87499 2.75C7.28749 2.75 7.56249 3.025 7.56249 3.4375C7.56249 3.85 7.28749 4.125 6.87499 4.125C6.46249 4.125 6.18749 3.85 6.18749 3.4375C6.18749 3.025 6.46249 2.75 6.87499 2.75ZM9.62499 2.75C10.0375 2.75 10.3125 3.025 10.3125 3.4375C10.3125 3.85 10.0375 4.125 9.62499 4.125C9.21249 4.125 8.93749 3.85 8.93749 3.4375C8.93749 3.025 9.21249 2.75 9.62499 2.75ZM3.43749 6.1875C3.43749 6.6 3.71249 6.875 4.12499 6.875C4.53749 6.875 4.81249 6.6 4.81249 6.1875C4.81249 5.775 4.53749 5.5 4.12499 5.5C3.71249 5.5 3.43749 5.775 3.43749 6.1875ZM6.18749 6.1875C6.18749 6.6 6.46249 6.875 6.87499 6.875C7.28749 6.875 7.56249 6.6 7.56249 6.1875C7.56249 5.775 7.28749 5.5 6.87499 5.5C6.46249 5.5 6.18749 5.775 6.18749 6.1875ZM8.93749 6.1875C8.93749 6.6 9.21249 6.875 9.62499 6.875C10.0375 6.875 10.3125 6.6 10.3125 6.1875C10.3125 5.775 10.0375 5.5 9.62499 5.5C9.21249 5.5 8.93749 5.775 8.93749 6.1875Z" fill="#EC0606"/>
</svg>
