<svg width="200" height="200" viewBox="0 0 200 200" fill="none" xmlns="http://www.w3.org/2000/svg"><path d="M74.83 94a9.1 9.1 0 00-9.08 9.08c0 5 4.08 9.09 9.08 9.09s9.09-4.09 9.09-9.09S79.83 94 74.83 94zM125.17 94a9.1 9.1 0 00-9.09 9.08c0 5 4.09 9.09 9.09 9.09s9.08-4.09 9.08-9.09-4.08-9.08-9.08-9.08z" fill="#fff"/><path d="M162.17 93.25c0-30.67-22.17-56-51.34-61.17-.33-.08-.75-.08-1.08-.16-3.17-.5-6.42-.84-9.75-.84h-.08-.09c-1.91 0-3.75.09-5.66.25-1.34.17-2.67.34-4.09.59-.41.08-.75.08-1.16.16-.09 0-.09 0-.17.09a64.29 64.29 0 00-9.17 2.41c-.25.09-.66.25-1 .42a57.77 57.77 0 00-8.33 3.75c-.25.08-.42.17-.58.25a72.23 72.23 0 00-6.75 4.42c-.59.5-1.17.91-1.75 1.33-2 1.67-3.92 3.42-5.75 5.25-.75.75-1.42 1.5-2.09 2.25-1.25 1.5-2.5 3.08-3.66 4.67a48.83 48.83 0 00-2.5 3.75 39.02 39.02 0 00-2.5 4.5 34.26 34.26 0 00-1.75 3.5 53.3 53.3 0 00-2.34 6.41c-.41 1.34-.75 2.75-1.08 4.09-.33 1.5-.58 3-.83 4.5-.17 1.08-.5 2-.59 3.08h.09a62.17 62.17 0 10124 6.5zM100 143.75a50.57 50.57 0 01-50.5-50.5c0-2 .17-4 .42-6 24.33-.08 46.83-8 65.16-21.25C125.25 75 137 82.25 150 87.08h.08c.25 2 .42 4.09.42 6.09a50.6 50.6 0 01-50.5 50.58z" fill="#fff"/><path d="M197.42 88.5h-11.75C183.5 43.08 145.92 6.75 100 6.75S16.5 43.08 14.33 88.5H2.83A2.71 2.71 0 000 91.33v32.5a2.56 2.56 0 002.58 2.34H23a2.81 2.81 0 002.83-2.84V92.5c0-41 33.17-74.17 74.17-74.17s74.17 33.17 74.17 74.17v1.17a73.6 73.6 0 01-23.75 54.16c-1.92-.75-4-1.25-6.25-1.25-9.17 0-16.67 7.5-16.67 16.67 0 9.17 7.5 16.67 16.67 16.67 9.16 0 16.66-7.5 16.66-16.67 0-2.75-.75-5.25-1.91-7.5a85.97 85.97 0 0020.41-29.58h17.84a2.71 2.71 0 002.83-2.84v-32.5a2.56 2.56 0 00-2.58-2.33z" fill="#fff"/><path d="M100.52 131.02c-3.6 0-7.3-1.2-11.4-3.5a3.9 3.9 0 01-1.6-5.4c1.1-2 3.5-2.7 5.4-1.6 5.9 3.3 9.2 3.3 15.1 0 1.9-1.1 4.4-.4 5.4 1.5 1.1 1.9.4 4.4-1.5 5.4-4.1 2.4-7.8 3.6-11.4 3.6z" fill="#fff"/></svg>