<svg width="200" height="200" viewBox="0 0 200 200" fill="none" xmlns="http://www.w3.org/2000/svg"><path d="M62.5 119.96a9.07 9.07 0 100-18.15 9.07 9.07 0 000 18.15zM137.5 119.96a9.07 9.07 0 100-18.15 9.07 9.07 0 000 18.15z" fill="#fff"/><path d="M197.18 88.5h-18.95c-3.43-24.79-26.21-47.37-49.6-47.37h-9.48v-8.47a9.81 9.81 0 00-9.67-9.68h-4.84V9.68a3.53 3.53 0 00-3.43-3.43h-2.42a3.53 3.53 0 00-3.43 3.43v13.3h-4.84a9.81 9.81 0 00-9.67 9.68v8.47h-9.48c-23.18 0-46.17 22.58-49.6 47.38H2.82A2.76 2.76 0 000 91.33v31.86A2.76 2.76 0 002.82 126h18.55v2.42a36.91 36.91 0 0036.9 36.9h21.77c-.2.4-.6.8-.6 1.4l-2.83 9.88c-.6 2.02.6 3.23 2.62 2.42l35.69-13.5h26.61a36.91 36.91 0 0036.9-36.9v-2.42h18.55a2.76 2.76 0 002.82-2.82V91.33c.2-1.41-1.01-2.82-2.62-2.82zM89.92 32.67c0-.4.2-.6.6-.6h18.96c.4 0 .6.2.6.6v8.47H89.92v-8.47zm77.62 95.57c0 14.31-11.7 25.8-25.8 25.8H58.46a25.86 25.86 0 01-25.8-25.8V94.76c0-20.97 19.55-42.34 38.9-42.34h57.46c19.16 0 38.91 21.37 38.91 42.34v33.47h-.4z" fill="#fff"/></svg>