<svg width="227" height="22" viewBox="0 0 227 22" fill="none" xmlns="http://www.w3.org/2000/svg">
<g clip-path="url(#clip0_384_22272)">
<path d="M15.9805 17.8799L15.1138 21.0633H0C2.8135 18.8418 5.89067 16.3998 9.24835 13.3928C13.2624 9.81525 14.146 8.50881 14.5219 7.12795C14.9511 5.54865 14.2751 4.16779 12.3171 4.16779C9.43068 4.16779 7.19223 6.75862 6.49376 7.5717L5.88506 4.19259C7.98326 2.19159 10.6986 0.984375 13.2344 0.984375C16.4742 0.984375 19.2429 2.8834 18.1124 7.02873C17.2989 10.0137 15.2428 12.2104 8.37317 17.8826H15.9805V17.8799Z" fill="white"/>
<path d="M34.9532 4.55859H26.7932L25.6375 8.80038C26.2631 8.62674 27.1074 8.38144 28.3641 8.38144C32.4314 8.38144 34.6979 11.0219 33.6685 14.7951C32.8129 17.9289 29.6684 21.4569 23.8423 21.4569C20.5295 21.4569 18.636 20.2965 18.0273 19.952L19.8058 16.7438C21.7497 18.2734 24.0583 18.2734 24.6614 18.2734C28.6025 18.2734 29.8255 15.9059 30.1229 14.8199C30.6867 12.7473 29.3683 11.5152 27.2589 11.5152C26.2546 11.5152 25.1775 11.7853 24.2855 12.4772H21.2981L24.3219 1.37793H35.82L34.9532 4.56134V4.55859Z" fill="white"/>
<path d="M44.3898 19.473C47.6381 18.5414 49.9803 16.8546 50.777 13.9303C51.2763 12.1002 51.0855 9.58927 47.8793 9.1593C47.0911 11.1134 45.4557 15.1706 43.0883 18.2906C42.5469 19.0072 41.3519 20.57 39.6913 20.57C37.7025 20.57 36.4739 18.0398 37.3743 14.7406C38.7039 9.86213 43.3099 6.97363 47.7082 6.97363C52.1066 6.97363 54.3759 9.84284 53.2455 13.9882C51.7924 19.3159 46.7321 21.0027 45.3043 21.4878L44.3926 19.4785L44.3898 19.473ZM39.6773 14.7902C39.1583 16.692 39.6043 18.0729 40.2804 18.0729C40.5553 18.0729 40.847 18.0012 41.9999 16.1904C43.6745 13.5361 44.6984 11.1851 45.4782 9.26679C41.8147 10.1819 40.1906 12.927 39.6801 14.793L39.6773 14.7902Z" fill="white"/>
<path d="M66.859 4.59779C65.9614 7.46699 64.5728 11.9761 62.5756 15.2036C63.2292 15.8982 63.5714 16.3254 64.0988 17.0641L61.6528 19.5088C61.2208 18.7454 60.9936 18.4091 60.6373 17.8717C58.8533 19.8892 57.821 20.8318 56.3624 21.9977L54.957 19.5309C56.6878 18.4532 57.7088 17.5574 59.1114 16.0112C58.2053 15.0686 57.6303 14.5752 56.6962 13.9027C57.4844 12.6018 58.3736 11.0997 59.9921 7.17483H58.6233L59.3273 4.59503H60.9936C61.5574 3.11495 61.8155 2.32943 62.2839 0.783203L65.0413 0.962356C64.4522 2.62159 64.225 3.2059 63.6864 4.59503H66.859V4.59779ZM62.6177 7.17759C61.4087 9.93655 60.7299 11.2595 59.8799 12.7837C60.239 13.0538 60.3372 13.12 60.915 13.5913C61.779 12.1773 62.8702 10.2728 63.8519 7.17759H62.6205H62.6177ZM76.1831 0.785959L75.9138 1.77268H81.5744L80.9938 3.90322H75.3331L75.0526 4.93404H79.8465L79.364 6.70628H67.0638L67.5462 4.93404H72.3401L72.6206 3.90322H66.8478L67.4284 1.77268H73.2013L73.4706 0.785959H76.1859H76.1831ZM77.6698 11.91H76.3233C75.9026 12.6955 75.8577 12.7837 75.5688 13.255H78.444L77.8633 15.3856H63.7369L64.3176 13.255H67.3302C67.3359 12.8967 67.333 12.7396 67.3078 11.91H65.894L67.075 7.58275H78.8507L77.6698 11.91ZM75.3191 21.5291H62.9711L64.427 16.1931H76.775L75.3191 21.5291ZM73.5519 18.0536H66.5897L66.1549 19.6466H73.1171L73.5519 18.0536ZM75.8717 9.12898H69.2293L68.8927 10.3638H75.5351L75.8717 9.12898ZM72.8983 13.255C73.2882 12.5825 73.3415 12.4695 73.6304 11.91H69.9782C69.9698 12.023 69.9951 12.9408 69.9979 13.255H72.8955H72.8983Z" fill="white"/>
<path d="M86.9154 6.4665L84.0542 15.6171C83.6026 17.0696 82.9939 19.2415 85.9869 19.2415C89.238 19.2415 91.7682 16.0471 93.2184 13.6078L95.1399 14.8646C92.8482 18.3099 89.9225 21.6091 85.339 21.6091C83.5493 21.6091 81.0865 21.0716 80.9686 18.4863C80.9518 17.8772 81.0444 17.0696 81.4652 15.7246L84.3796 6.30664L86.9098 6.46926L86.9154 6.4665Z" fill="white"/>
<path d="M106.153 16.1344C104.981 18.0885 102.877 21.1203 100.686 21.1203C98.7505 21.1203 97.2246 18.6811 98.9188 12.4741C99.4041 10.6992 99.9792 9.11985 100.765 7.37793L103.062 7.79136C102.624 8.79737 101.847 10.5724 101.295 12.5982C100.262 16.3824 100.745 18.4275 101.494 18.4275C102.352 18.4275 103.794 16.1482 104.484 14.8941L106.156 16.1316L106.153 16.1344ZM110.122 18.4496C111.514 13.6786 110.588 10.9858 109.839 9.71243L112.148 8.54656C113.542 10.735 113.912 13.9294 112.793 17.7688L110.122 18.4496Z" fill="white"/>
<path d="M122.123 10.876C121.043 8.13906 120.024 6.43573 119.197 5.11275L122.075 3.18341C123.309 5.0218 124.182 6.50188 125.217 8.90253L122.123 10.876ZM118.201 18.8138C128.6 16.1679 132.075 9.53094 133.809 5.26986L136.869 6.09947C134.532 11.2343 130.4 18.1854 119.943 21.2145L118.201 18.8138ZM135.329 0.449261C136.039 1.61513 136.423 2.71486 136.875 4.48434L134.933 5.49311C134.56 3.76497 134.257 2.86921 133.514 1.41118L135.329 0.446505V0.449261ZM139.079 0C139.786 1.25683 140.109 2.33175 140.493 4.10398L138.513 5.0907C138.238 3.34052 137.89 2.2656 137.248 0.942621L139.079 0V0Z" fill="white"/>
<path d="M141.006 18.7923C147.135 16.9098 153.211 12.781 156.526 5.65069H149.519C148.335 6.97367 146.33 9.14831 142.372 11.7722L140.582 9.79878C142.72 8.40965 145.62 6.30116 148.377 2.80078H161.09C156.521 14.6194 148.577 19.1478 142.419 21.3004L141.006 18.7895V18.7923Z" fill="white"/>
<path d="M167.312 10.876C166.232 8.13906 165.214 6.43573 164.386 5.11275L167.264 3.18341C168.499 5.0218 169.371 6.50188 170.406 8.90253L167.312 10.876ZM163.391 18.8138C173.789 16.1679 177.265 9.53094 178.998 5.26986L182.058 6.09947C179.722 11.2343 175.59 18.1854 165.133 21.2145L163.391 18.8138ZM180.518 0.449261C181.228 1.61513 181.612 2.71486 182.064 4.48434L180.123 5.49311C179.75 3.76497 179.447 2.86921 178.704 1.41118L180.518 0.446505V0.449261ZM184.269 0C184.976 1.25683 185.298 2.33175 185.683 4.10398L183.702 5.0907C183.427 3.34052 183.079 2.2656 182.437 0.942621L184.269 0V0Z" fill="white"/>
<path d="M185.742 18.7923C191.871 16.9098 197.947 12.781 201.262 5.65069H194.255C193.072 6.97367 191.066 9.14831 187.108 11.7722L185.318 9.79878C187.456 8.40965 190.356 6.30116 193.114 2.80078H205.826C201.257 14.6194 193.313 19.1478 187.156 21.3004L185.742 18.7895V18.7923Z" fill="white"/>
<path d="M209.257 6.55467L211.868 6.08887L211.52 10.1074C211.492 10.3417 211.473 11.0225 211.478 11.4717C212.777 11.0583 213.31 10.915 218.107 9.73257L218.191 12.1001C209.321 13.8944 206.286 15.3828 205.807 17.1412C205.543 18.1087 205.958 19.0596 210.267 19.0596C212.676 19.0596 215.262 18.682 216.48 18.5028L216.02 20.9255C214.048 21.1956 211.739 21.3555 209.823 21.3555C207.722 21.3555 202.224 21.3003 203.316 17.3011C203.986 14.8426 206.337 13.39 208.892 12.3868C208.887 11.7418 208.923 11.0059 208.951 10.6283L209.26 6.55467H209.257Z" fill="white"/>
<path d="M226.6 6.50195L223.486 16.7109H221.385L223.86 6.50195H226.597H226.6ZM220.693 18.2516H223.341L222.642 20.8177H219.994L220.693 18.2516Z" fill="white"/>
</g>
<defs>
<clipPath id="clip0_384_22272">
<rect width="226.6" height="22" fill="white"/>
</clipPath>
</defs>
</svg>
