<?xml version="1.0" encoding="iso-8859-1"?>
<!-- Generator: Adobe Illustrator 28.7.1, SVG Export Plug-In . SVG Version: 9.03 Build 54978)  -->
<svg version="1.1" id="icon" xmlns="http://www.w3.org/2000/svg" xmlns:xlink="http://www.w3.org/1999/xlink" x="0px" y="0px"
	 viewBox="0 0 48 48" style="enable-background:new 0 0 48 48;" xml:space="preserve">
<g>
	<path style="fill:#FFFFFF;" d="M0,40.4V7.6C0,3.403,3.403,0,7.6,0h32.8C44.597,0,48,3.403,48,7.6v32.8c0,4.197-3.403,7.6-7.6,7.6
		H7.6C3.403,48,0,44.597,0,40.4z"/>
	<g>
		<g>
			<g>
				<polygon style="fill:#BF0000;" points="6.341,15 5.001,13.875 14.399,13.875 				"/>
				<path style="fill:#BF0000;" d="M7.867,13.032v-2.491h1.079l1.869,2.491h1.911l-2.258-3.006c0.704-0.505,1.166-1.327,1.166-2.257
					C11.634,6.241,10.391,5,8.863,5H6.341v8.032H7.867z M7.867,6.525h0.996c0.685,0,1.246,0.558,1.246,1.244
					c0,0.689-0.56,1.246-1.246,1.246H7.867V6.525z"/>
			</g>
		</g>
	</g>
	<g>
		<path d="M6.021,35.612c0.064-0.327,0.235-0.607,0.514-0.84c0.278-0.233,0.581-0.35,0.908-0.35s0.584,0.117,0.772,0.35
			c0.188,0.234,0.25,0.514,0.187,0.84l-0.996,5.127c-0.064,0.327-0.235,0.607-0.514,0.84s-0.582,0.35-0.909,0.35
			s-0.584-0.117-0.772-0.35c-0.188-0.233-0.251-0.514-0.187-0.84L6.021,35.612z"/>
		<path d="M16.837,39.997c-0.047,0.243-0.146,0.451-0.296,0.624s-0.372,0.339-0.664,0.497c-0.553,0.299-1.105,0.518-1.655,0.659
			c-0.55,0.14-1.077,0.21-1.581,0.21c-0.878,0-1.611-0.194-2.199-0.581c-0.588-0.388-0.998-0.929-1.232-1.625
			s-0.259-1.511-0.078-2.444c0.18-0.925,0.534-1.737,1.062-2.437c0.528-0.701,1.177-1.249,1.945-1.646s1.601-0.596,2.497-0.596
			c0.467,0,0.925,0.056,1.375,0.168s0.816,0.28,1.1,0.504c0.218,0.177,0.358,0.343,0.421,0.497c0.063,0.154,0.072,0.353,0.024,0.595
			c-0.051,0.262-0.192,0.495-0.423,0.701c-0.231,0.205-0.492,0.308-0.781,0.308c-0.215,0-0.491-0.093-0.828-0.28
			c-0.185-0.103-0.371-0.182-0.556-0.238c-0.185-0.056-0.395-0.084-0.628-0.084c-0.663,0-1.24,0.229-1.73,0.687
			s-0.808,1.06-0.953,1.807c-0.153,0.784-0.091,1.403,0.185,1.856s0.736,0.679,1.381,0.679c0.541,0,1.028-0.126,1.46-0.378
			l0.163-0.84h-0.924c-0.262,0-0.469-0.098-0.623-0.294c-0.153-0.196-0.205-0.425-0.154-0.686s0.191-0.488,0.419-0.679
			s0.474-0.287,0.735-0.287h2.059c0.308,0,0.551,0.11,0.727,0.329c0.176,0.22,0.235,0.483,0.175,0.791L16.837,39.997z"/>
		<path d="M18.776,35.5c0.058-0.299,0.215-0.553,0.471-0.763s0.533-0.315,0.832-0.315c0.299,0,0.526,0.094,0.681,0.28
			c0.155,0.187,0.225,0.416,0.21,0.686l-0.01,0.266c0.257-0.411,0.569-0.731,0.936-0.96s0.751-0.343,1.152-0.343
			c0.486,0,0.815,0.154,0.989,0.462c0.132,0.233,0.166,0.514,0.103,0.841c-0.069,0.355-0.237,0.642-0.503,0.861
			c-0.267,0.22-0.536,0.329-0.807,0.329c-0.075,0-0.15-0.009-0.226-0.028c-0.076-0.018-0.148-0.042-0.218-0.07
			c-0.129-0.056-0.273-0.084-0.432-0.084c-0.308,0-0.585,0.152-0.831,0.455c-0.246,0.304-0.418,0.707-0.516,1.212l-0.468,2.41
			c-0.064,0.327-0.235,0.607-0.514,0.84s-0.582,0.35-0.909,0.35s-0.584-0.117-0.772-0.35c-0.188-0.233-0.251-0.514-0.187-0.84
			L18.776,35.5z"/>
		<path d="M26.828,42c-0.719,0-1.336-0.163-1.852-0.49c-0.516-0.327-0.885-0.78-1.109-1.359c-0.223-0.579-0.263-1.242-0.118-1.989
			c0.145-0.747,0.442-1.41,0.891-1.989s0.994-1.032,1.637-1.359c0.642-0.327,1.323-0.49,2.043-0.49c0.719,0,1.336,0.163,1.852,0.49
			c0.515,0.327,0.885,0.78,1.109,1.359c0.224,0.579,0.263,1.242,0.118,1.989c-0.145,0.747-0.442,1.41-0.891,1.989
			c-0.449,0.579-0.994,1.032-1.637,1.359C28.227,41.837,27.547,42,26.828,42z M28.797,36.95c-0.187-0.313-0.486-0.469-0.896-0.469
			c-0.402,0-0.759,0.156-1.072,0.469c-0.313,0.313-0.517,0.717-0.613,1.212c-0.096,0.495-0.049,0.899,0.143,1.212
			c0.191,0.313,0.488,0.469,0.889,0.469c0.411,0,0.77-0.156,1.079-0.469c0.308-0.313,0.51-0.716,0.607-1.212
			C29.029,37.667,28.984,37.263,28.797,36.95z"/>
		<path d="M40.347,40.697c-0.194,0.373-0.451,0.673-0.77,0.896c-0.319,0.224-0.661,0.336-1.025,0.336
			c-0.374,0-0.679-0.112-0.915-0.336s-0.365-0.523-0.386-0.896l-0.145-2.858l-1.312,2.858c-0.164,0.364-0.411,0.661-0.74,0.889
			c-0.33,0.229-0.681,0.343-1.054,0.343c-0.355,0-0.65-0.112-0.887-0.336c-0.236-0.224-0.38-0.523-0.428-0.896l-0.521-4.525
			c-0.012-0.131-0.022-0.247-0.03-0.35c-0.008-0.103-0.004-0.196,0.012-0.28c0.062-0.318,0.226-0.588,0.494-0.812
			c0.268-0.224,0.56-0.336,0.878-0.336c0.271,0,0.495,0.084,0.672,0.252c0.178,0.168,0.269,0.383,0.274,0.645l0.133,4.286
			l1.717-4.077c0.142-0.345,0.351-0.616,0.627-0.812c0.276-0.196,0.577-0.294,0.905-0.294c0.327,0,0.59,0.098,0.79,0.294
			s0.303,0.472,0.309,0.827l0.146,4.006l1.825-4.273c0.103-0.243,0.266-0.446,0.49-0.609c0.223-0.163,0.465-0.245,0.727-0.245
			c0.289,0,0.517,0.103,0.683,0.308c0.165,0.206,0.22,0.453,0.164,0.742c-0.018,0.094-0.056,0.203-0.113,0.329
			s-0.122,0.255-0.194,0.385L40.347,40.697z"/>
		<path style="fill:#BF0000;" d="M9.148,32.52c-0.101,0.722-0.769,1.306-1.49,1.306s-1.224-0.585-1.123-1.306
			c0.101-0.722,0.769-1.306,1.49-1.306S9.249,31.799,9.148,32.52z"/>
	</g>
	<g>
		<path style="fill:#BF0000;" d="M37.886,8.468c-0.004-0.346-0.36-0.576-0.677-0.436l-9.832,4.346
			c-0.348,0.154-0.389,0.632-0.072,0.842l2.867,1.903c-0.749,1.302-1.7,2.551-2.794,3.699c-1.434,1.505-3.104,2.849-4.926,3.988
			c-1.825,1.133-3.804,2.065-5.887,2.724c-1.972,0.621-4.043,1.002-6.148,1.011c-0.201,0.001-0.369,0.149-0.391,0.349
			c-0.022,0.206,0.118,0.397,0.322,0.432c2.167,0.371,4.413,0.359,6.624,0.066c2.337-0.312,4.643-0.936,6.863-1.828
			c2.217-0.898,4.353-2.063,6.337-3.524c1.557-1.15,3.024-2.489,4.314-4.053l2.765,1.836c0.322,0.214,0.752-0.02,0.748-0.406
			L37.886,8.468z"/>
	</g>
</g>
</svg>
