<?xml version="1.0" encoding="utf-8"?>
<!-- Generator: Adobe Illustrator 22.1.0, SVG Export Plug-In . SVG Version: 6.00 Build 0)  -->
<svg version="1.1" id="レイヤー_1" xmlns="http://www.w3.org/2000/svg" xmlns:xlink="http://www.w3.org/1999/xlink" x="0px"
	 y="0px" viewBox="0 0 768.1 766.7" style="enable-background:new 0 0 768.1 766.7;" xml:space="preserve">
<style type="text/css">
	.st0{fill:#F1F2F2;}
	.st1{fill:#BF0000;}
	.st2{fill:#FFFFFF;}
</style>
<g>
	<rect x="0" y="511.4" class="st0" width="768.1" height="256.6"/>
	<path d="M325.4,600.4c-6.4,0-10.6,3.3-11.8,9.7c-2.9,14.9-5.6,29.1-8.5,44c-1,4.1,2.4,3.7,2.4,3.7l64.2,0
		c-0.7,11.2-16.6,29.2-35.3,30h-32.3c-18.8-1.2-32.2-17.5-29.1-36.1c2.8-16.6,6.2-33.1,9.5-49.6c3.8-19.1,20.7-31.8,39.7-31.7
		l28.1,0c13.6,0,29.4,11.1,30,29.9C382.3,600.4,334.2,600.4,325.4,600.4z"/>
	<rect x="0" width="768.1" height="511.4"/>
	<rect x="559.8" y="144.1" class="st0" width="48" height="208"/>
	<rect x="480" y="207.9" class="st0" width="48" height="208"/>
	<rect x="400" y="96" class="st0" width="48" height="256"/>
	<rect x="319.9" y="192" class="st0" width="47.8" height="255.6"/>
	<rect x="240.1" y="256.2" class="st0" width="48" height="127.8"/>
	<rect x="160.1" y="320.4" class="st0" width="48" height="111.5"/>
	<circle class="st1" cx="160.1" cy="159.9" r="80.1"/>
	<path class="st2" d="M177.9,170.5c0,0,12.3-7.2,12.3-25.4c-0.1-16.8-15.6-28.1-30.3-28.1c-4.8,0-26.4,0-26.4,0v85.6h16v-26.3h11.9
		l19.5,26.3h20.7L177.9,170.5z M161.5,160.3c-5.1,0-11.9,0-11.9,0v-26.6c0,0,8.2,0,12.1,0c4.2,0,11.8,5.6,11.8,13.3
		S166.9,160.3,161.5,160.3z"/>
	<polygon points="493.5,570.1 458.3,570.1 438.7,596.7 429,570.5 396,570.5 416.6,626.7 371.7,687.8 406.8,687.8 428.3,658.6 
		439.1,687.8 472.7,687.8 450.6,628.4 	"/>
</g>
</svg>
