<?xml version="1.0" encoding="utf-8"?>
<!-- Generator: Adobe Illustrator 22.1.0, SVG Export Plug-In . SVG Version: 6.00 Build 0)  -->
<svg version="1.1" id="レイヤー_1" xmlns="http://www.w3.org/2000/svg" xmlns:xlink="http://www.w3.org/1999/xlink" x="0px"
	 y="0px" viewBox="0 0 768 768" style="enable-background:new 0 0 768 768;" xml:space="preserve">
<style type="text/css">
	.st0{fill:#F1F2F2;}
	.st1{fill:#BF0000;}
	.st2{fill:#FFFFFF;}
</style>
<g>
	<rect y="511.4" class="st0" width="768.1" height="256.6"/>
	<rect x="0" width="768.1" height="511.4"/>
	<rect x="559.8" y="144.1" class="st0" width="48" height="208"/>
	<rect x="480" y="207.9" class="st0" width="48" height="208"/>
	<rect x="400" y="96" class="st0" width="48" height="256"/>
	<rect x="319.8" y="192" class="st0" width="47.8" height="255.6"/>
	<rect x="240.1" y="256.2" class="st0" width="48" height="127.8"/>
	<rect x="160.1" y="320.4" class="st0" width="48" height="111.5"/>
	<circle class="st1" cx="160" cy="159.9" r="80.1"/>
	<path class="st2" d="M177.9,170.5c0,0,12.3-7.2,12.3-25.4c-0.1-16.8-15.6-28.1-30.3-28.1c-4.8,0-26.4,0-26.4,0v85.6h16v-26.3h11.9
		l19.5,26.3h20.7L177.9,170.5z M161.5,160.3c-5.1,0-11.9,0-11.9,0v-26.6c0,0,8.2,0,12.1,0c4.2,0,11.8,5.6,11.8,13.3
		S166.8,160.3,161.5,160.3z"/>
	<g>
		<polygon points="554,592.2 479.5,592.2 483.8,569.8 557.8,569.8 		"/>
		<polygon points="542.7,637.5 546.4,615.2 476.1,615.2 462.5,688 533.4,688 537.2,665.7 488.5,665.7 493.5,637.5 		"/>
	</g>
	<g>
		<polygon points="464.2,592.2 389.7,592.2 394,569.8 467.9,569.8 		"/>
		<polygon points="452.9,637.5 456.6,615.2 386.2,615.2 372.7,688 443.6,688 447.4,665.7 398.6,665.7 403.7,637.5 		"/>
	</g>
	<polygon points="585.5,637.4 562.2,637.4 566.3,615.1 589.6,615.1 	"/>
	<path d="M631.2,569.8h-56.6l-4,22.3h61.6c5.9,0,10.4,5.4,9.3,11.2l-9.5,51.2c-1.2,6.4-6.8,11-13.3,11l-39.8,0l3.1-17l-22.5,0
		l-7.4,39.3h56.6c39.4,0,44.8-32.9,44.8-32.9l10.1-51C663.7,604.1,671,569.8,631.2,569.8z"/>
	<path d="M284.5,569.8h-58.3c-24.5,0-35.8,22.3-35.8,22.3l0,0h60.8C272,592.2,284.5,569.8,284.5,569.8L284.5,569.8z"/>
	<path d="M372,606.4c6.3-28.7-14.7-36.6-25.7-36.6h-7.8h-26.2l-20.8,22.7h51.3c5,0,8.9,4.6,8,9.5l-4.6,25c-1.1,6-6.4,10.4-12.5,10.4
		h-6.6l-3.8,22.4h4.9c19.8,0,36.7-14.1,40.3-33.6L372,606.4z"/>
	<polygon points="309.1,614.8 286.6,614.8 273.4,687.6 295.8,687.6 	"/>
	<path d="M264.3,643.8c0.8-8.1-4.4-28.9-28.9-28.6h-49.2c0,12.2,12.7,22,24.8,22h22.2c5.7,0,9.9,5.4,8.5,11l-2.2,8.5
		c-1.4,5.2-6.1,8.9-11.5,8.9h-51.6l-4.2,22.1h48.3c31.3,0,40.1-25.7,41.2-29.7C262.2,656.2,263.3,652.4,264.3,643.8z"/>
	<polygon points="107.8,615.2 140.8,615.2 127.7,687.6 105,687.6 114.8,637.3 103.3,637.3 	"/>
	<circle class="st1" cx="131.5" cy="575.7" r="16.8"/>
</g>
</svg>
