<svg xmlns="http://www.w3.org/2000/svg" width="50px" height="50px" style="display:none"><style>g {display: none;}g:target,g:target g {display: inline;}</style><g id="icon-menu" viewBox="0 0 26 25"><path d="M26 5.5c0 .6-.5 1-1 1H1c-.6 0-1-.4-1-1v-2c0-.5.4-1 1-1h24c.5 0 1 .5 1 1v2zM26 13.5c0 .6-.5 1-1 1H1c-.6 0-1-.4-1-1v-2c0-.6.4-1 1-1h24c.5 0 1 .4 1 1v2zM26 21.5c0 .6-.5 1-1 1H1c-.6 0-1-.4-1-1v-2c0-.5.4-1 1-1h24c.5 0 1 .5 1 1v2z"/></g><g id="icon-support" viewBox="0 0 20 24"><path d="M9.6 15.4l-2.5-4.2c-.5-1.2-.5-2.6.5-3.2L4.1 1.9c-1.2.8-5 5.3-.1 13.9 5.1 9.1 11 8.1 12.3 7.4l-3.5-5.9c-1.1.5-1.8-.2-3.2-1.9zm10.3 4.7l-2.7-4.6c-.3-.4-.8-.5-1.2-.2l-2.1 1.2 3.5 5.9 2.1-1.2c.4-.2.6-.6.4-1.1zM10.6 6.2c.4-.2.6-.7.4-1.1L8.3.3C8 0 7.4-.1 7.1.2L5 1.4l3.6 6.1 2-1.3z"/></g><g id="icon_blank" viewBox="0 0 8 8"><g><g><path d="M2 0h6v6H2zM0 7h6v1H0z"/><path d="M0 2h1v6H0z"/></g></g></g><g id="icon_caution_gray" viewBox="0 0 20 17"><path d="M10 1c.3 0 .7.3 1 .8l7.7 12.7c.3.3.3.7.2 1.1-.3.3-.7.4-1.1.4H2.2c-.4.1-.8-.1-1.1-.4-.1-.4 0-.8.2-1.1L9 1.8c.3-.5.7-.8 1-.8m0-1c-.8.1-1.5.5-1.8 1.3L.4 14c-1 1.7-.2 3 1.8 3h15.6c2 0 2.8-1.4 1.8-3L11.8 1.3C11.5.5 10.8.1 10 0z"/><path d="M9 6h2v5H9zM9 12h2v2H9z"/></g><g id="icon_exclamation" viewBox="0 0 180 180"><path d="M166.603 147.68L100 32.32c-5.5-9.526-14.5-9.526-20 0L13.397 147.68c-5.5 9.526-1 17.32 10 17.32h133.205c11.001 0 15.501-7.794 10.001-17.32zM100 139c0 2.75-2.25 5-5 5H85c-2.75 0-5-2.25-5-5v-10c0-2.75 2.25-5 5-5h10c2.75 0 5 2.25 5 5v10zm0-31c0 2.75-2.25 5-5 5H85c-2.75 0-5-2.25-5-5V78c0-2.75 2.25-5 5-5h10c2.75 0 5 2.25 5 5v30z"/></g><g id="icon_index" viewBox="0 0 10 15"><g><path d="M8.67 1a.33.33 0 0 1 .33.33v11.9l-3.49-2.09a1 1 0 0 0-1 0L1 13.23V1.33A.33.33 0 0 1 1.33 1h7.34m0-1H1.33A1.33 1.33 0 0 0 0 1.33V15l5-3 5 3V1.33A1.33 1.33 0 0 0 8.67 0z"/></g></g><g id="icon_minus" viewBox="0 0 10 2"><g><path d="M0 0h10v2H0z"/></g></g><g id="icon_minus_cercle" viewBox="0 0 20 20"><path d="M10 0C4.5 0 0 4.5 0 10s4.5 10 10 10 10-4.5 10-10S15.5 0 10 0zm4 11H6V9h8v2z"/></g><g id="icon_pc" viewBox="0 0 8 8"><path d="M7 0H0v6h3v1H2v1h4V7H5V6h3V0H7zm0 5H1V1h6v4z"/></g><g id="icon_plus" viewBox="0 0 10 10"><path d="M10 4H6V0H4v4H0v2h4v4h2V6h4z"/></g><g id="icon_plus_cercle" viewBox="0 0 20 20"><path d="M10 0C4.5 0 0 4.5 0 10s4.5 10 10 10 10-4.5 10-10S15.5 0 10 0zm4 11h-3v3H9v-3H6V9h3V6h2v3h3v2z"/></g><g id="s2-icon-account" viewBox="0 0 18.7 20"><path d="M18.4 6.6L12.7 1c-.2-.2-.5-.3-.7-.3-.3 0-.5.1-.7.3L3.2 9.1.7 11.6 0 19.3l7.8-.7 2.5-2.5L18.4 8c.4-.4.4-1 0-1.4zm-2.9-1.4l-7 7-.7.7-1.4 1.4c-.4-.5-.9-1-1.4-1.4l1.4-1.4.8-.8 7-7 1.3 1.5zM3.4 10.3l.8-.8L12 1.7l1.4 1.4-7.3 7.3-.8.8-1.2 1.2c-.6-.4-1.1-.8-1.8-1.1l1.1-1zm-2.3 7.9l.1-1.5c.3.1.6.3.9.5.2.3.4.6.5.9l-1.5.1zm6.2-.5l-3.7.3c-.1-.6-.4-1.1-.8-1.5-.4-.4-.9-.7-1.5-.8l.4-3.7c2.5 1.1 4.5 3.1 5.6 5.7zm2.5-2.5l-.7.7-.9.9c-.3-.6-.7-1.2-1.1-1.8l1.2-1.2.7-.6 7.3-7.3 1.4 1.4-7.9 7.9z"/></g><g id="s2-icon-login" viewBox="0 0 18 21"><path d="M16 8.5v-1c0-3.9-3.1-7-7-7s-7 3.1-7 7v1c-1.1 0-2 .9-2 2v8c0 1.1.9 2 2 2h14c1.1 0 2-.9 2-2v-8c0-1.1-.9-2-2-2zm-13-1c0-3.3 2.7-6 6-6s6 2.7 6 6v1h-1v-1c0-2.8-2.2-5-5-5s-5 2.2-5 5v1H3v-1zm10 0v1H5v-1c0-2.2 1.8-4 4-4s4 1.8 4 4zm4 11c0 .6-.4 1-1 1H2c-.6 0-1-.4-1-1v-8c0-.6.4-1 1-1h14c.6 0 1 .4 1 1v8z"/><path d="M11.2 11c-.6-.6-1.4-1-2.2-1-1.7 0-3 1.4-3 3 0 .8.3 1.5.9 2.1l.1.1v1.3c0 .2 0 .3.1.5.2.9 1 1.5 1.9 1.5s1.7-.6 1.9-1.5c0-.2.1-.3.1-.5v-1.3l.1-.1c1.1-1.1 1.2-2.9.1-4.1zM10 16.4c0 .6-.4 1.1-1 1.1s-1-.4-1-1V14.8l-.3-.3c-.5-.4-.7-.9-.7-1.5 0-1.1.9-2 2-2s2 .9 2 2c0 .6-.2 1.1-.7 1.5l-.3.3v1.6z"/></g><g id="s2-icon-menu" viewBox="0 0 22 16"><g><g><path d="M0 0h22v2H0zM0 7h22v2H0zM0 14h22v2H0z"/></g></g></g><g id="s2-icon-support" viewBox="0 0 20.26 21.84"><g><path d="M19.95 20.88c-3.52-1.45-6.61-3.28-6.61-3.91v-.27c2.85-.55 3.32-2.44 3.37-3.32a1.18 1.18 0 0 0 .45-.92V8.18a1.18 1.18 0 0 0-1-1.15 7.19 7.19 0 0 0-1.5-5.2A5.91 5.91 0 0 0 10 0a5.58 5.58 0 0 0-4.49 1.95A7.21 7.21 0 0 0 4.08 7a1.18 1.18 0 0 0-1 1.15v4.28a1.2 1.2 0 0 0 1.2 1.2h1.1a5.61 5.61 0 0 0 1.5 2.45V17c0 .63-3.1 2.46-6.61 3.91a.5.5 0 1 0 .38.92c2.17-.9 7.23-3.16 7.23-4.83v-1.11a.5.5 0 0 0-.17-.38A4.49 4.49 0 0 1 6.2 12.2V7.66c0-1.42.51-3.8 3.93-3.8s3.93 2.38 3.93 3.8v4.54a4.48 4.48 0 0 1-1.56 3.31.49.49 0 0 0-.16.31h-.43a1.51 1.51 0 1 0 0 1h.41V17c0 1.67 5.06 3.93 7.23 4.83a.51.51 0 0 0 .19 0 .5.5 0 0 0 .19-1zm-4.89-8.68V8H16a.2.2 0 0 1 .2.2v4.28a.2.2 0 0 1-.2.2h-1c.05-.17.06-.33.06-.48zm-10.74.46a.2.2 0 0 1-.2-.2V8.18a.2.2 0 0 1 .2-.2h.88v4.68zm5.81-9.79C7.29 2.87 5.52 4.4 5.25 7h-.17a6.22 6.22 0 0 1 1.2-4.4A4.63 4.63 0 0 1 10 1a5 5 0 0 1 3.9 1.49A6.19 6.19 0 0 1 15.19 7H15c-.26-2.6-2-4.13-4.87-4.13zm4.71 10.79h.83a2.45 2.45 0 0 1-1.82 1.88 5.59 5.59 0 0 0 .99-1.88zm-4.34 3.2a.51.51 0 1 1 .51-.51.51.51 0 0 1-.51.51z"/></g></g></svg>