<svg id="Sprite" xmlns="http://www.w3.org/2000/svg" viewBox="0 0 93.89 33">
	<title>icon_menu_Sprite</title>
	<polygon id="icon_menu_arrow" points="42.9 11.3 49.7 16.5 42.9 21.7 42.9 23.5 50.9 17.3 50.9 15.8 42.9 9.5 42.9 11.3" style="fill:#1428a3"/>
	<g id="icon_menu_campaign">
		<path d="M54.7,4.1A2.55,2.55,0,0,0,52.3,6L33.8,12.5H31.3a1.79,1.79,0,0,0-1.8,1.8v4.3a1.79,1.79,0,0,0,1.8,1.8H34l2,.7v2.5a.84.84,0,0,0,.4.7c.6.3,5.5,2.9,8,2.9a.75.75,0,0,0,.7-.5.6.6,0,0,0,.1-.4V24.4L52.3,27a2.46,2.46,0,0,0,2.4,1.9,2.43,2.43,0,0,0,2.4-2.4V6.6A2.46,2.46,0,0,0,54.7,4.1ZM31.1,18.6V14.3a.22.22,0,0,1,.2-.2h1.9v4.7H31.3A.22.22,0,0,1,31.1,18.6Zm3.6-4.8L52.2,7.7V25.3L34.7,18.9Zm8.9,11.7a32.64,32.64,0,0,1-6-2.4V21.6l6,2.2Zm12,.9a.9.9,0,1,1-1.8,0V6.6a.9.9,0,1,1,1.8,0Z" transform="translate(-0.1)" style="fill:#141899"/>
		<rect x="59.4" y="15.9" width="5" height="1.6" style="fill:#141899"/>
		<rect x="58.72" y="10.19" width="5" height="1.6" transform="translate(10.06 46.51) rotate(-45)" style="fill:#141899"/>
		<rect x="60.42" y="19.79" width="1.6" height="5" transform="translate(2.07 49.83) rotate(-45.01)" style="fill:#141899"/>
	</g>
	<g id="icon_menu_fx">
		<path d="M42.1,27.2l.9,2a12.27,12.27,0,0,1-9.2-10.6l-1.4.1a13.44,13.44,0,0,0,9.5,11.6l-1.3.6.6,1.3,3.9-1.7-1.7-3.9Z" transform="translate(-0.1)" style="fill:#141899"/>
		<path d="M52.1,5.8l-.8-1.9a12.29,12.29,0,0,1,8.6,10.3l1.4-.2A13.81,13.81,0,0,0,52.1,2.7l1.4-.6L52.9.8,49.1,2.5l1.7,3.9Z" transform="translate(-0.1)" style="fill:#141899"/>
		<path d="M40.8,19a8.6,8.6,0,1,0-8.6-8.6A8.6,8.6,0,0,0,40.8,19Zm0-15.7a7.1,7.1,0,1,1-7.1,7.1A7.13,7.13,0,0,1,40.8,3.3Z" transform="translate(-0.1)" style="fill:#141899"/>
		<path d="M53.2,14.5a8.6,8.6,0,1,0,8.6,8.6A8.6,8.6,0,0,0,53.2,14.5Zm0,15.7a7.1,7.1,0,1,1,7.1-7.1A7.13,7.13,0,0,1,53.2,30.2Z" transform="translate(-0.1)" style="fill:#141899"/>
		<path d="M53.4,22.5h0c-1.4-.3-1.8-.5-1.7-1,0-.2.2-.3.4-.5.6-.3,1.8-.4,3.5.5l.4-.8a7,7,0,0,0-2.2-.7V19h-1v1a2,2,0,0,0-1.1.3,1.53,1.53,0,0,0-.9,1.2c-.2,1.6,1.2,1.9,2.3,2.1h.1c1,.2,1.8.4,1.9.9a.9.9,0,0,1-.1.5c-.1.2-.4.3-.7.4a5.22,5.22,0,0,1-3.3-.8l-.5.8a6.31,6.31,0,0,0,2.3.8v1.1h1v-1h.1a1.7,1.7,0,0,0,.7-.1,1.84,1.84,0,0,0,1.3-.8,1.64,1.64,0,0,0,.2-1.2C55.8,23.1,54.5,22.8,53.4,22.5Z" transform="translate(-0.1)" style="fill:#141899"/>
		<polygon points="40.2 13.8 41.1 13.8 41.1 12.6 43.2 12.6 43.2 11.6 41.1 11.6 41.1 10.8 43.2 10.8 43.2 9.8 41.1 9.8 41.1 9.3 43.1 7.4 42.4 6.7 40.7 8.4 38.9 6.7 38.3 7.4 40.2 9.3 40.2 9.8 38.1 9.8 38.1 10.8 40.2 10.8 40.2 11.6 38.1 11.6 38.1 12.6 40.2 12.6 40.2 13.8" style="fill:#141899"/>
	</g>
	<g id="icon_menu_ideco">
		<path d="M50.7,13.5a6.81,6.81,0,0,0,6.8-6.8A6.72,6.72,0,0,0,50.7,0a6.81,6.81,0,0,0-6.8,6.8A6.72,6.72,0,0,0,50.7,13.5Zm0-11.9a5.16,5.16,0,0,1,5.2,5.2,5.2,5.2,0,1,1-10.4,0A5.16,5.16,0,0,1,50.7,1.6Z" transform="translate(-0.1)" style="fill:#141899"/>
		<path d="M59.1,20.3a10.39,10.39,0,0,0,3.5-1.7l-1-1.2A12.6,12.6,0,0,1,59,18.7a8.58,8.58,0,0,0-2.9-5.1c-.2-.1-.3-.3-.5-.4l-.9,1.3c.1.1.3.2.4.3a6.62,6.62,0,0,1,2.4,4.9c0,2.3-.4,5.2-3.8,6.9l-.6.3,1.1,4.5H51.1l-1.2-3.2-.7.1a21.52,21.52,0,0,1-5.8.1H43l-1.1,3H38.8L40,27.8l-.6-.3a6.28,6.28,0,0,1-3.5-3.7l-.2-.6H33V18.9h1.6l.2-.5a8.73,8.73,0,0,1,2.9-3.7l.7-.5-2.5-3.3a6.46,6.46,0,0,1,5,1.6l.4.4.5-.3a9.27,9.27,0,0,1,2.2-.8l-.4-1.5a12.93,12.93,0,0,0-2.1.7,8.27,8.27,0,0,0-7.3-1.1l-1,.4L36.1,14a12.31,12.31,0,0,0-2.6,3.4H31.4v7.4h3.2a8.26,8.26,0,0,0,3.5,3.7l-1,2.9a1.13,1.13,0,0,0,.2,1.1,1.05,1.05,0,0,0,.9.5h3.9a1.26,1.26,0,0,0,1.2-.9l.7-2a21.53,21.53,0,0,0,5-.1l.8,2.1A1.4,1.4,0,0,0,51,33h3.7a1.39,1.39,0,0,0,1-.5,1.23,1.23,0,0,0,.2-1L55,27.7A8.39,8.39,0,0,0,59.1,20.3Z" transform="translate(-0.1)" style="fill:#141899"/><circle cx="38.3" cy="18.5" r="1" style="fill:#141899"/>
	</g>
	<g id="icon_menu_kabuka">
		<path d="M62.7,27.8l-8.1-8.1a12.92,12.92,0,0,0,1.8-6.5A12.7,12.7,0,1,0,43.7,25.9a12.28,12.28,0,0,0,6.4-1.8l8.1,8.1a.85.85,0,0,0,.6.2,1.07,1.07,0,0,0,.6-.2l3.4-3.4A.78.78,0,0,0,62.7,27.8ZM32.6,13.3A11.1,11.1,0,1,1,43.7,24.4,11.14,11.14,0,0,1,32.6,13.3ZM58.8,30.6l-7.3-7.3A16.66,16.66,0,0,0,53.8,21l7.3,7.3Z" transform="translate(-0.1)" style="fill:#141899"/>
		<polygon points="44.6 13.4 43 10.3 38.1 17.5 39.4 18.4 42.8 13.4 44.3 16.4 47.5 12.1 48.4 13.8 49.8 12.9 47.6 9.4 44.6 13.4" style="fill:#141899"/>
	</g>
	<g id="icon_menu_kokunai">
		<path d="M58.2,5.7H35.8a2.48,2.48,0,0,0,1.1-2.1,2.45,2.45,0,0,0-4.9,0,2.37,2.37,0,0,0,1.7,2.3v26h1.5V24.2h23A3.8,3.8,0,0,0,62,20.4V9.4A3.71,3.71,0,0,0,58.2,5.7Zm-23.7-3a.9.9,0,0,1,.9.9,1,1,0,0,1-.9,1,.94.94,0,0,1-1-1C33.5,3,33.9,2.7,34.5,2.7Zm26,17.8a2.33,2.33,0,0,1-2.3,2.3h-23V7.2h23a2.33,2.33,0,0,1,2.3,2.3Z" transform="translate(-0.1)" style="fill:#141899"/>
		<path d="M48.1,9.4A5.6,5.6,0,1,0,53.7,15,5.59,5.59,0,0,0,48.1,9.4Zm0,9.6a4.1,4.1,0,0,1,0-8.2,4.1,4.1,0,1,1,0,8.2Z" transform="translate(-0.1)" style="fill:#141899"/>
	</g>
	<g id="icon_menu_Moneybridge">
		<path d="M39.8,15.7a1.88,1.88,0,0,0,.2-.8,1.15,1.15,0,0,0-.6-1.1,2.54,2.54,0,0,0-1.6-.4H35.1v5.9H38a2.67,2.67,0,0,0,1.7-.4,1.43,1.43,0,0,0,.6-1.2,1.22,1.22,0,0,0-.3-.9,1.37,1.37,0,0,0-.8-.5A1.7,1.7,0,0,0,39.8,15.7Zm-3.6-1.5h1.6a2,2,0,0,1,.9.2.75.75,0,0,1,0,1.2,2,2,0,0,1-.9.2H36.2Zm1.7,4.2H36.2V16.7H38c.9,0,1.3.3,1.3.9S38.8,18.4,37.9,18.4Z" transform="translate(-0.1)" style="fill:#141899"/>
		<path d="M40.7,19.3h1.1l.6-1.4h3l.6,1.4h1.2l-2.7-5.9H43.4ZM45,17H42.8l1.1-2.6Z" transform="translate(-0.1)" style="fill:#141899"/>
		<polygon points="48.6 13.4 47.7 13.4 47.7 19.3 48.8 19.3 48.8 15.3 52.1 19.3 53 19.3 53 13.4 51.9 13.4 51.9 17.4 48.6 13.4" style="fill:#141899"/>
		<polygon points="54.6 13.4 54.6 19.3 55.7 19.3 55.7 17.8 56.6 16.8 58.7 19.3 60 19.3 57.3 16 59.8 13.4 58.6 13.4 55.7 16.4 55.7 13.4 54.6 13.4" style="fill:#141899"/>
		<polygon points="37.9 9.3 35.3 6.4 60.5 6.4 60.5 4.9 35.3 4.9 37.9 2.1 36.8 1.1 32.6 5.7 36.8 10.3 37.9 9.3" style="fill:#141899"/>
		<polygon points="57 22.7 55.9 23.7 58.5 26.6 33.3 26.6 33.3 28.1 58.5 28.1 55.9 30.9 57 31.9 61.2 27.3 57 22.7" style="fill:#141899"/>
	</g>
	<path id="icon_menu_nisa" d="M61.6,27a25.62,25.62,0,0,0-14.3-4.7V13c2.1.9,6.5,2.7,8.9,2.7h.6a5.52,5.52,0,0,0,4.6-5.8,4.76,4.76,0,0,0-4.8-4.1,2.77,2.77,0,0,0-.9.1c-2.3.4-6.7,4.1-8.6,5.8h-.3c-1.2-1.2-6.4-6.4-8.9-7a4.87,4.87,0,0,0-1.2-.1,4.47,4.47,0,0,0-4.6,3.8,5.63,5.63,0,0,0,4.3,6.1,2.77,2.77,0,0,0,.9.1c2.4,0,6.4-1.4,8.5-2.1v9.8A17.33,17.33,0,0,0,41,23a21.46,21.46,0,0,0-8.6,4.1.78.78,0,1,0,1,1.2c.1-.1,12.4-9.9,27.4,0a.6.6,0,0,0,.4.1.75.75,0,0,0,.7-.4A.71.71,0,0,0,61.6,27ZM55.9,7.5c.2,0,.4-.1.7-.1a3,3,0,0,1,3.2,2.7,3.73,3.73,0,0,1-3.3,4h-.3c-1.7,0-4.8-1.2-7.1-2.1C51.6,9.9,54.6,7.7,55.9,7.5ZM37.3,13c-.3,0-.5,0-.6-.1a4,4,0,0,1-3.1-4.3,3,3,0,0,1,3.1-2.5,2.77,2.77,0,0,1,.9.1c1.3.4,4.2,2.8,6.6,5.1A25.61,25.61,0,0,1,37.3,13Z" transform="translate(-0.1)" style="fill:#1526a4"/>
	<g id="icon_menu_nyuusyukkinn">
		<path d="M51.8,2.1l1.5-.7L52.5,0,48.4,1.9l1.8,4.2,1.4-.6-.9-2a13,13,0,0,1,9.1,11.1l1.5-.2A14.21,14.21,0,0,0,51.8,2.1Z" transform="translate(-0.1)" style="fill:#141899"/>
		<path d="M43,27.6l.9,2.1a13.27,13.27,0,0,1-9.8-11.4l-1.5.1A14.79,14.79,0,0,0,42.8,31l-1.4.6.7,1.4,4.1-1.9-1.8-4.2Z" transform="translate(-0.1)" style="fill:#141899"/>
		<polygon points="48.2 14.4 51.6 11 50.4 10 47.4 13 44.4 10 43.3 11 46.7 14.4 46.7 15.4 42.9 15.4 42.9 17 46.7 17 46.7 18.6 42.9 18.6 42.9 20.1 46.7 20.1 46.7 22.3 48.2 22.3 48.2 20.1 51.9 20.1 51.9 18.6 48.2 18.6 48.2 17 51.9 17 51.9 15.4 48.2 15.4 48.2 14.4" style="fill:#141899"/>
	</g>
	<g id="icon_menu_pc">
		<path d="M53,8.5H39v12h6v2H43v2h8v-2H49v-2h6V8.5Zm0,2v8H41v-8" transform="translate(-0.1)" style="fill:#2659ff"/>
	</g>
	<g id="icon_menu_point">
		<path d="M48.3,15.8H44.2v9.5h1.5V22.2h2.5a3.2,3.2,0,0,0,.1-6.4Zm0,4.9H45.8V17.4h2.5A1.69,1.69,0,0,1,50,19.1,1.82,1.82,0,0,1,48.3,20.7Z" transform="translate(-0.1)" style="fill:#141899"/>
		<path d="M51.5,10.2V9.3a30.93,30.93,0,0,0,3.2-3.5,3.07,3.07,0,0,0-.3-4.2c-.9-.8-2.7-1-4.6.8A3.36,3.36,0,0,0,46.7.5,2.84,2.84,0,0,0,44,2.3C42.1.6,40.4.8,39.5,1.6a3.07,3.07,0,0,0-.3,4.2,28,28,0,0,0,3,3.3h-.4v1.4c-3.5,2.7-7.4,7.4-7.3,12.1.1,6.1,4.8,9.9,12.3,9.9,8.4,0,12.7-3.5,12.7-10.3C59.5,16.9,54,12.1,51.5,10.2ZM40.4,4.9a1.51,1.51,0,0,1,.1-2.1c.7-.5,1.7-.2,2.8.9a9.25,9.25,0,0,1-.5,1l1.4.7c.2-.5.4-.9.6-1.3.7-1.6,1-2.1,1.9-2.1.5,0,2,0,2.8,3.6L51,5.3a7.59,7.59,0,0,0-.6-1.8l.2.2c1.1-1.1,2.2-1.5,2.8-1a1.51,1.51,0,0,1,.1,2.1,34.87,34.87,0,0,1-4,4.3h-5A25.77,25.77,0,0,1,40.4,4.9ZM46.8,31c-6.7,0-10.7-3.1-10.8-8.4-.1-4.8,4.8-9.9,8.2-11.9h5.3c1.3.8,8.5,6,8.5,11.5C58,28.1,54.3,31,46.8,31Z" transform="translate(-0.1)" style="fill:#141899"/>
	</g>
	<g id="icon_menu_rakurappu">
		<path d="M45.9,3.9h-.8a13.55,13.55,0,1,0,0,27.1,13.71,13.71,0,0,0,10.6-5.1l.5-.6L45.9,17Zm8,21.6A12,12,0,1,1,44.2,5.4V17.8Z" transform="translate(-0.1)" style="fill:#1526a4"/>
		<path d="M50.5,17l-.8.1v1.2L59.3,26l.5-.6a12.15,12.15,0,0,0,2.7-7.6V17Zm8.6,6.7-6.5-5.2h8.3A9.58,9.58,0,0,1,59.1,23.7Z" transform="translate(-0.1)" style="fill:#1526a4"/>
		<path d="M61.2,14.6A12.83,12.83,0,0,0,48.5,2h-.9V15.4H61.2Zm-12-.8V3.6A11.17,11.17,0,0,1,59.6,13.9H49.2Z" transform="translate(-0.1)" style="fill:#1526a4"/>
	</g>
	<g id="icon_menu_sinntaku-search">
		<path d="M40.4,11.5a.79.79,0,0,0-.8.8v4.2a.8.8,0,1,0,1.6,0V12.3A.86.86,0,0,0,40.4,11.5Z" transform="translate(-0.1)" style="fill:#141899"/>
		<path d="M43.7,8.9a.79.79,0,0,0-.8.8v6.8a.8.8,0,0,0,1.6,0V9.8C44.4,9.4,44.1,8.9,43.7,8.9Z" transform="translate(-0.1)" style="fill:#141899"/>
		<path d="M47,9.3a.79.79,0,0,0-.8.8v6.8a.8.8,0,1,0,1.6,0v-7C47.8,9.5,47.5,9.3,47,9.3Z" transform="translate(-0.1)" style="fill:#141899"/>
		<path d="M62.8,27.8l-8.1-8.1a12.92,12.92,0,0,0,1.8-6.5A12.75,12.75,0,1,0,43.7,26a12.92,12.92,0,0,0,6.5-1.8l8.1,8.1a.85.85,0,0,0,.6.2,1.07,1.07,0,0,0,.6-.2l3.4-3.4A.91.91,0,0,0,62.8,27.8ZM32.6,13.3A11.1,11.1,0,1,1,43.7,24.4,11.18,11.18,0,0,1,32.6,13.3ZM58.8,30.6l-7.4-7.4a16.66,16.66,0,0,0,2.3-2.3l7.4,7.4Z" transform="translate(-0.1)" style="fill:#141899"/>
	</g>
	<g id="icon_menu_smartphone">
		<path d="M54.2.5H39.8a2.43,2.43,0,0,0-2.4,2.4V30.1a2.43,2.43,0,0,0,2.4,2.4H54.2a2.43,2.43,0,0,0,2.4-2.4V2.9A2.43,2.43,0,0,0,54.2.5ZM39.8,2H54.2a.9.9,0,0,1,.9.9V4.5H38.9V2.9A.9.9,0,0,1,39.8,2ZM55.1,6V25.6H38.9V6Zm-.9,25H39.8a.9.9,0,0,1-.9-.9v-3H55.1v3A.9.9,0,0,1,54.2,31Z" transform="translate(-0.1)" style="fill:#141899"/>
		<rect x="46.1" y="28.1" width="1.6" height="1.5" style="fill:#141899"/>
	</g>
	<g id="icon_menu_tesuryo">
		<path d="M47,1A15.5,15.5,0,1,0,62.5,16.5,15.51,15.51,0,0,0,47,1Zm0,29.5a14,14,0,1,1,13.9-14A13.93,13.93,0,0,1,47,30.5Z" transform="translate(-0.1)" style="fill:#141899"/>
		<polygon points="47.7 14.6 50.9 11.4 49.8 10.3 46.9 13.2 44 10.3 42.9 11.4 46.1 14.6 46.1 15.6 42.7 15.6 42.7 17.1 46.1 17.1 46.1 18.6 42.7 18.6 42.7 20.1 46.1 20.1 46.1 23 47.7 23 47.7 20.1 51.1 20.1 51.1 18.6 47.7 18.6 47.7 17.1 51.1 17.1 51.1 15.6 47.7 15.6 47.7 14.6" style="fill:#141899"/>
	</g>
	<g id="icon_menu_toushi">
		<polygon points="35 30.7 36.5 30.7 36.5 29.1 44.2 29.1 44.2 30.7 45.7 30.7 45.7 27.6 35 27.6 35 30.7" style="fill:#141899"/>
		<path d="M36.7,27h1.5V26l-.2-.2s-3.8-3.5-4.6-4.3a2.72,2.72,0,0,1-.6-1.7V10.6c.3.2.8.5.9.8a5.84,5.84,0,0,1,.2,1.8,2.22,2.22,0,0,0,.1.9,10.83,10.83,0,0,0,.7,1.8c-.1,0-.1.1-.2.1a2.85,2.85,0,0,0-.8,1.4,2.05,2.05,0,0,0,.5,1.7l3.1,3.1,1.1-1.1L35.3,18c-.1-.1-.1-.2-.1-.4s.2-.4.3-.6c.3-.3.5-.3.8,0s1.1,1.1,1.7,1.6l.7.7a1.4,1.4,0,0,0,1.4.2h.3L42.9,22c.5.4.7,2.9.6,4.9L45,27c0-1.1.1-5-1.1-6l-2.6-2.6a1.4,1.4,0,0,0-1.4-.2h-.2a3.81,3.81,0,0,0-.6-.5c-.6-.5-1.3-1.2-1.7-1.6a1.76,1.76,0,0,0-1.3-.6c-.3-.7-.6-1.4-.7-1.6a2.25,2.25,0,0,0-.1-.7A9.58,9.58,0,0,0,35,11a3.09,3.09,0,0,0-2.9-2,1.09,1.09,0,0,0-1,1.1v9.6a4.32,4.32,0,0,0,1,2.7c.7.8,3.6,3.4,4.4,4.2V27Z" transform="translate(-0.1)" style="fill:#141899"/>
		<polygon points="48.1 30.7 49.6 30.7 49.6 29.1 57.3 29.1 57.3 30.7 58.8 30.7 58.8 27.6 48.1 27.6 48.1 30.7" style="fill:#141899"/>
		<path d="M61.8,9a3.19,3.19,0,0,0-2.9,2,9.58,9.58,0,0,0-.3,2.2,1.48,1.48,0,0,1-.1.7,12.83,12.83,0,0,1-.7,1.6,1.76,1.76,0,0,0-1.3.6c-.3.3-1.1,1-1.6,1.6a2.65,2.65,0,0,1-.6.5h-.2a1.4,1.4,0,0,0-1.4.2L50.2,21c-1.2,1.1-1.2,4.9-1.1,6.1l1.5-.1c-.1-2,.2-4.5.7-4.9l2.4-2.4H54a1.7,1.7,0,0,0,1.4-.2,4.3,4.3,0,0,0,.7-.7c.6-.5,1.3-1.3,1.7-1.6s.5-.3.8,0,.5.7.2,1l-3.1,3.1,1.1,1.1,3.1-3.1a2.22,2.22,0,0,0-.2-3.1l-.2-.2a10.83,10.83,0,0,0,.7-1.8,2.22,2.22,0,0,0,.1-.9,12.37,12.37,0,0,1,.2-1.8,1.45,1.45,0,0,1,.9-.8v9.2a2.72,2.72,0,0,1-.6,1.7c-.8.8-4.6,4.3-4.6,4.3l-.2.2v1h1.5v-.3c.9-.8,3.7-3.4,4.4-4.2a4.32,4.32,0,0,0,1-2.7V10.2A1.38,1.38,0,0,0,61.8,9Z" transform="translate(-0.1)" style="fill:#141899"/>
		<path d="M55.1,10.5a8.24,8.24,0,0,0-8.2-8.2,8.15,8.15,0,0,0-8.1,8.2A8.24,8.24,0,0,0,47,18.7,8.15,8.15,0,0,0,55.1,10.5Zm-8.2,6.6a6.7,6.7,0,1,1,6.7-6.7A6.7,6.7,0,0,1,46.9,17.1Z" transform="translate(-0.1)" style="fill:#141899"/>
		<polygon points="47.3 9.5 49.1 7.8 48.4 7 46.8 8.6 45.3 7 44.6 7.8 46.3 9.5 46.3 9.9 44.5 9.9 44.5 10.9 46.3 10.9 46.3 11.5 44.5 11.5 44.5 12.5 46.3 12.5 46.3 13.6 47.3 13.6 47.3 12.5 49.2 12.5 49.2 11.5 47.3 11.5 47.3 10.9 49.2 10.9 49.2 9.9 47.3 9.9 47.3 9.5" style="fill:#141899"/>
	</g>
	<g id="icon_menu_toushiru">
		<path d="M13.2,13.2l-7-.6a1.37,1.37,0,0,1-1.3-1.5V6.9A2.42,2.42,0,0,0,2.7,4.4,2.42,2.42,0,0,0,.1,6.8V26.4a2.42,2.42,0,0,0,2.2,2.5,2.42,2.42,0,0,0,2.6-2.4V18.2a1.45,1.45,0,0,1,1.5-1.4l6.5.5a2.14,2.14,0,0,0,2.3-2h0A2.16,2.16,0,0,0,13.2,13.2Z" transform="translate(-0.1)" style="fill:#014099"/>
		<path d="M36.2,6.2H33.7A2.22,2.22,0,0,0,31.5,4h-.9a2.22,2.22,0,0,0-2.2,2.2H24.8a2.29,2.29,0,0,0-2.3,2.1h0v5.8A1.93,1.93,0,0,0,24.1,16a2.76,2.76,0,0,0,3-2.7v-.7a2.42,2.42,0,0,1,2.5-2.7H31a2.34,2.34,0,0,1,2.3,2.9L30.4,26a2.31,2.31,0,0,0,1.4,2.7,2.23,2.23,0,0,0,2.8-1.6L39,9.9h0v-1A2.78,2.78,0,0,0,36.2,6.2Z" transform="translate(-0.1)" style="fill:#014099"/>
		<path d="M54.8,5.3H49.7a2.43,2.43,0,0,0-2.4,2.4h0a2.43,2.43,0,0,0,2.4,2.4h5.1a2.41,2.41,0,0,0,2.3-2.4h0A2.35,2.35,0,0,0,54.8,5.3Z" transform="translate(-0.1)" style="fill:#014099"/>
		<path d="M54.8,11.7H49.7a2.43,2.43,0,0,0-2.4,2.4h0a2.43,2.43,0,0,0,2.4,2.4h5.1a2.43,2.43,0,0,0,2.4-2.4h0A2.43,2.43,0,0,0,54.8,11.7Z" transform="translate(-0.1)" style="fill:#014099"/>
		<path d="M59.5,13.5v9.3a1.37,1.37,0,0,1-1.4,1.4h-8a2.43,2.43,0,0,0-2.4,2.4h0A2.43,2.43,0,0,0,50.1,29h8.4c2.6,0,6.3-2.4,6.3-5.4v-10a2.75,2.75,0,0,0-2.7-2.7h0A2.65,2.65,0,0,0,59.5,13.5Z" transform="translate(-0.1)" style="fill:#014099"/>
		<path d="M93.4,21c-1.1-1.1-2.5-.3-3.9.9l-1.7,1.3A1.28,1.28,0,0,1,86,22V6.8a2.26,2.26,0,0,0-2.3-2.3h0a2.26,2.26,0,0,0-2.3,2.3v17a5.47,5.47,0,0,0,4.2,5,5.39,5.39,0,0,0,4-1l3.5-3.4C94,23.4,94.4,22.1,93.4,21Z" transform="translate(-0.1)" style="fill:#014099"/>
		<path d="M78.8,23.8V7.8a2.49,2.49,0,0,0-2.1-2.5,2.32,2.32,0,0,0-2.5,2.3V22.3a2.39,2.39,0,0,1-.5,1.4l-.5.6c-.7.8-1.2,2.7-.1,3.7a2.7,2.7,0,0,0,3.7-.4L78.2,26a3.06,3.06,0,0,0,.7-2Z" transform="translate(-0.1)" style="fill:#014099"/>
	</g>
	<g id="icon_menu_yuutai">
		<path d="M62.8,27.8l-8.1-8.1a12.92,12.92,0,0,0,1.8-6.5A12.75,12.75,0,1,0,43.7,26a12.92,12.92,0,0,0,6.5-1.8l8.1,8.1a.85.85,0,0,0,.6.2,1.07,1.07,0,0,0,.6-.2l3.4-3.4A.91.91,0,0,0,62.8,27.8ZM32.6,13.3A11.1,11.1,0,1,1,43.7,24.4,11.18,11.18,0,0,1,32.6,13.3ZM58.8,30.6l-7.4-7.4a16.66,16.66,0,0,0,2.3-2.3l7.4,7.4Z" transform="translate(-0.1)" style="fill:#141899"/>
		<path d="M47.2,10.9c-.9,0-1.8.1-1.8.1s-.6-3.1-1.5-3.1S42.4,11,42.4,11s-.9-.1-1.8-.1-1.7.1-1.6.6c.2,1,2.5,2.4,2.5,2.4s-2,3.3-.6,3.4H41c1.4,0,3-1.6,3-1.6a14.26,14.26,0,0,0,3.1,1.6h0c.7,0-.6-3.4-.6-3.4S49,12.5,49,11.5C48.9,11,48.1,10.9,47.2,10.9ZM45.9,13a1,1,0,0,0-.5,1.3,12.13,12.13,0,0,1,.5,1.4c-.4-.3-1-.6-1.4-.9a1.42,1.42,0,0,0-.6-.2.91.91,0,0,0-.7.3,7.35,7.35,0,0,1-1.7,1.2c.2-.5.5-1.1.8-1.7A1.08,1.08,0,0,0,42,13c-.5-.3-1.1-.8-1.5-1.1h.1a14.78,14.78,0,0,1,1.6.1h.1a1,1,0,0,0,1-.8,9.46,9.46,0,0,1,.5-1.8,7.76,7.76,0,0,1,.5,1.8,1,1,0,0,0,1,.8h.2a14.78,14.78,0,0,1,1.6-.1h.2A2.27,2.27,0,0,1,45.9,13Z" transform="translate(-0.1)" style="fill:#141899"/>
	</g>
</svg>