<?xml version="1.0" encoding="utf-8"?>
<!-- Generator: Adobe Illustrator 22.1.0, SVG Export Plug-In . SVG Version: 6.00 Build 0)  -->
<svg version="1.1" id="レイヤー_1" xmlns="http://www.w3.org/2000/svg" xmlns:xlink="http://www.w3.org/1999/xlink" x="0px"
	 y="0px" viewBox="0 0 768 768" style="enable-background:new 0 0 768 768;" xml:space="preserve">
<style type="text/css">
	.st0{fill:#F1F2F2;}
	.st1{fill:#BF0000;}
	.st2{fill:#FFFFFF;}
</style>
<rect x="0" y="511.4" class="st0" width="768.1" height="256.6"/>
<rect x="0" width="768.1" height="511.4"/>
<rect x="559.8" y="144.1" class="st0" width="48" height="208"/>
<rect x="480" y="207.9" class="st0" width="48" height="208"/>
<rect x="400" y="96" class="st0" width="48" height="256"/>
<rect x="319.8" y="192" class="st0" width="47.8" height="255.6"/>
<rect x="240.1" y="256.2" class="st0" width="48" height="127.8"/>
<rect x="160.1" y="320.4" class="st0" width="48" height="111.5"/>
<circle class="st1" cx="160" cy="159.9" r="80.1"/>
<path class="st2" d="M177.9,170.5c0,0,12.3-7.2,12.3-25.4c-0.1-16.8-15.6-28.1-30.3-28.1c-4.8,0-26.4,0-26.4,0v85.6h16v-26.3h11.9
	l19.5,26.3h20.7L177.9,170.5z M161.5,160.3c-5.1,0-11.9,0-11.9,0v-26.6c0,0,8.2,0,12.1,0c4.2,0,11.8,5.6,11.8,13.3
	S166.8,160.3,161.5,160.3z"/>
<polygon points="488,570.1 452.7,570.1 433.2,596.7 423.5,570.5 390.5,570.5 411.1,626.7 366.2,687.8 401.3,687.8 422.8,658.6 
	433.5,687.8 467.1,687.8 445,628.4 "/>
<polygon points="301.9,570.1 379.8,570.1 374.7,599.8 296.8,599.8 "/>
<polygon points="370.5,617.7 322.8,617.7 293.3,617.7 280.6,687.8 310.1,687.8 317.4,647.3 365.4,647.3 "/>
</svg>
