<?xml version="1.0" encoding="utf-8"?>
<!-- Generator: Adobe Illustrator 22.1.0, SVG Export Plug-In . SVG Version: 6.00 Build 0)  -->
<svg version="1.1" id="レイヤー_1" xmlns="http://www.w3.org/2000/svg" xmlns:xlink="http://www.w3.org/1999/xlink" x="0px"
	 y="0px" viewBox="0 0 768 768" style="enable-background:new 0 0 768 768;" xml:space="preserve">
<style type="text/css">
	.st0{fill:#F1F2F2;}
	.st1{fill:#BF0000;}
	.st2{fill:#FFFFFF;}
	.st3{fill:none;}
</style>
<g>
	<rect x="-0.3" y="511" class="st0" width="768.1" height="256.6"/>
	<rect x="0" width="768.1" height="511.4"/>
	<rect x="559.8" y="144.1" class="st0" width="48" height="208"/>
	<rect x="480" y="207.9" class="st0" width="48" height="208"/>
	<rect x="400" y="96" class="st0" width="48" height="256"/>
	<rect x="319.8" y="192" class="st0" width="47.8" height="255.6"/>
	<rect x="240.1" y="256.2" class="st0" width="48" height="127.8"/>
	<rect x="160.1" y="320.4" class="st0" width="48" height="111.5"/>
	<circle class="st1" cx="160" cy="159.9" r="80.1"/>
	<path class="st2" d="M177.9,170.5c0,0,12.3-7.2,12.3-25.4c-0.1-16.8-15.6-28.1-30.3-28.1c-4.8,0-26.4,0-26.4,0v85.6h16v-26.3h11.9
		l19.5,26.3h20.7L177.9,170.5z M161.5,160.3c-5.1,0-11.9,0-11.9,0v-26.6c0,0,8.2,0,12.1,0c4.2,0,11.8,5.6,11.8,13.3
		S166.8,160.3,161.5,160.3z"/>
	<polygon points="180.1,570 205.5,570 198,583.6 208.4,583.6 211,570 234.2,570 231.8,583.6 273.8,583.6 269.8,606.8 159.9,606.8 	
		"/>
	<path d="M153.6,617h118.5l-4.3,23.5h-33.9l-4.3,24.1h34.6l-4,23.2c0,0-29.3,0-37.7,0c-4.8,0-19.9-5-15.5-27.1l3.4-20.2h-8.6
		l-31.3,47.3h-25.8l31.2-47.3h-26.4L153.6,617z"/>
	<path d="M380.3,575.5l2.4-5.5h-24l-17.7,37.1l3.1-18.3h-5.8l3.3-18.7h-22.6l-3.3,18.7h-2.5l1.7-9.8h-22.1l-7.3,39.7h22.5l1.3-7.5
		h2.5l-3.1,17.9l-25,8.7l-4.1,23.6l25-8.8l-6.1,35.1H321l7.7-43.6l6.3-2.2l3.8-23.3l-6,2.1l1.7-9.5h6l0.5-3h24.3l4.6-10.4h15.9
		L342.4,622l-4.1,24.4l45.3-25.4l-0.6,4.9l-45.7,25.6l-4.4,24.2l45.7-25.6l-2.5,15.3h-16l-4.1,22.3c0,0,7.1,0,15.4,0
		c11.2,0,23.5-7.9,26.6-20.5l16.2-91.7L380.3,575.5z"/>
	<path d="M467.2,570c-28.8,0-37.4,18-39.5,24.1l0,0h64.8c3.7,0,6.5,3.3,5.9,6.9l-8.2,48.9c-1.3,8-8.2,13.8-16.3,13.8h-27.5
		c-3.8,0-6.6-3.4-5.9-7.1l8-43.5h-25.1l-5.9,34.9c-4.3,26.4,13.7,39.6,25.7,39.6h32.2c19,0,35.2-13.7,38.4-32.3l8.7-50
		c3.2-18.4-10.9-35.4-29.7-35.4H467.2z"/>
	<path class="st3" d="M587.3,666"/>
	<path d="M621.7,606.6C628,577.9,607,570,596,570h-7.8H562l-20.8,22.7h51.3c5,0,8.9,4.6,8,9.5l-4.6,25c-1.1,6-6.4,10.4-12.5,10.4
		h-6.6L573,660h4.9c19.8,0,36.7-14.1,40.3-33.6L621.7,606.6z"/>
	<polygon points="558.8,615 536.3,615 523.1,687.8 545.5,687.8 	"/>
</g>
</svg>
