<svg id="レイヤー_1" data-name="レイヤー 1" xmlns="http://www.w3.org/2000/svg" viewBox="0 0 94 24.93"><title>icon_menu_toushiru</title><path d="M4.88,3.83v3A1.5,1.5,0,0,0,6.25,8.37l6.11.72c2,.2,2.94.95,2.94,2.9s-1.23,1.84-3.31,1.6L6.69,13a1.63,1.63,0,0,0-1.84,1.34c0,.1,0,.2,0,.3v7c0,2.05-.24,3.14-2.29,3.14S0,23.64,0,21.62V3.83C0,1.78.85.68,2.43.68S4.88,1.78,4.88,3.83Z" style="fill:#014099"/><path d="M35.93,2.05H34c-.41,0-.61-.27-.75-.68C33,.48,32.14,0,30.84,0s-2.15.51-2.35,1.5a.72.72,0,0,1-.76.55H25.17A2.85,2.85,0,0,0,22,5.19v4c0,2,.58,3.15,1.74,3.15a2.82,2.82,0,0,0,3.14-3.15c0-1.87,1.09-2.9,3.14-2.9h.38c2.18,0,3.24,1.33,2.7,3.48L30.26,21.45c-.51,2.15,0,3.48,1.37,3.48a3.2,3.2,0,0,0,3.45-2.69L38.56,7.82A13.38,13.38,0,0,0,39,5.23,2.78,2.78,0,0,0,35.93,2.05Z" style="fill:#014099"/><path d="M50.52,12.53h3.41c2,0,3.14-.17,3.14-2.15S56,7.82,53.93,7.82H50.52c-2.05,0-3.15.72-3.15,2.32C47.37,12.16,48.47,12.53,50.52,12.53Z" style="fill:#014099"/><path d="M50.52,6.11h3.41c2,0,3.14-.3,3.14-2.49S56,1.37,53.93,1.37H50.52c-2.05,0-3.15.58-3.15,2.56S48.47,6.11,50.52,6.11Z" style="fill:#014099"/><path d="M93.21,17c-1-.44-1.91-.75-3.59.51l-.58.55c-1.09,1.09-1.81,1.47-2.49.72A4.11,4.11,0,0,1,86.14,17V3.89c0-2-.85-3.14-2.43-3.14s-2.42,1.09-2.42,3.14l.07,15.82a5.17,5.17,0,0,0,4.1,5,6,6,0,0,0,4.71-1.23l2.29-2.25C94.27,18.89,94.44,17.59,93.21,17Z" style="fill:#014099"/><path d="M76.54,1.4c-1.57,0-2.42,1.09-2.42,3.14v13.7c0,1.6-1.4,2-1.61,3.59v.23c0,1.06.51,2.74,1.5,2.74h0a5.28,5.28,0,0,0,5-5.13V4.54C79,2.53,78.08,1.4,76.54,1.4Z" style="fill:#014099"/><path d="M62.06,7c-1.57,0-2.43,1.09-2.43,3.14v8.44a1.53,1.53,0,0,1-1.46,1.61H51.06c-2.05,0-3.14.2-3.14,2.32s1.09,2.32,3.14,2.32l8.47,0a5.36,5.36,0,0,0,5-5V10.14C64.48,8.09,63.63,7,62.06,7Z" style="fill:#014099"/></svg>