<?xml version="1.0" encoding="utf-8"?>
<!-- Generator: Adobe Illustrator 22.1.0, SVG Export Plug-In . SVG Version: 6.00 Build 0)  -->
<svg version="1.1" id="レイヤー_1" xmlns="http://www.w3.org/2000/svg" xmlns:xlink="http://www.w3.org/1999/xlink" x="0px"
	 y="0px" viewBox="0 0 32 32" style="enable-background:new 0 0 32 32;" xml:space="preserve">
<style type="text/css">
	.st0{fill:#EC0606;}
</style>
<g>
	<path class="st0" d="M31.8,27.3l-8.1-8.1c1.1-1.9,1.8-4.1,1.8-6.5c0-7-5.7-12.7-12.7-12.7C5.7,0,0,5.7,0,12.7s5.7,12.7,12.7,12.7
		c2.4,0,4.6-0.7,6.5-1.8l8.1,8.1c0.1,0.1,0.3,0.2,0.6,0.2s0.4-0.1,0.6-0.2l3.4-3.4C32.1,28.1,32.1,27.6,31.8,27.3z M1.6,12.7
		c0-6.2,5-11.2,11.1-11.2c6.1,0,11.1,5,11.1,11.2s-5,11.2-11.1,11.2C6.6,23.9,1.6,18.9,1.6,12.7z M27.8,30.1l-7.4-7.4
		c0.8-0.7,1.6-1.4,2.3-2.3l7.4,7.4L27.8,30.1z"/>
	<path class="st0" d="M16.2,10.4c-0.9,0-1.8,0.1-1.8,0.1s-0.6-3.1-1.5-3.1s-1.5,3.1-1.5,3.1s-0.9-0.1-1.8-0.1
		c-0.9,0-1.7,0.1-1.6,0.6c0.2,1,2.5,2.4,2.5,2.4s-2,3.3-0.6,3.4c0,0,0.1,0,0.1,0c1.4,0,3-1.6,3-1.6s2.3,1.5,3.1,1.6c0,0,0,0,0,0
		c0.7,0-0.6-3.4-0.6-3.4s2.5-1.4,2.5-2.4C17.9,10.5,17.1,10.4,16.2,10.4z M14.9,12.5c-0.5,0.3-0.7,0.8-0.5,1.3
		c0.2,0.5,0.4,1,0.5,1.4c-0.4-0.3-1-0.6-1.4-0.9c-0.2-0.1-0.4-0.2-0.6-0.2c-0.3,0-0.5,0.1-0.7,0.3c-0.4,0.4-1.1,0.9-1.7,1.2
		c0.2-0.5,0.5-1.1,0.8-1.7c0.3-0.5,0.1-1.1-0.3-1.4c-0.5-0.3-1.1-0.8-1.5-1.1c0,0,0.1,0,0.1,0c0.8,0,1.6,0.1,1.6,0.1
		c0,0,0.1,0,0.1,0c0.5,0,0.9-0.3,1-0.8c0.1-0.6,0.3-1.3,0.5-1.8c0.2,0.5,0.4,1.1,0.5,1.8c0.1,0.5,0.5,0.8,1,0.8c0.1,0,0.1,0,0.2,0
		c0,0,0.8-0.1,1.6-0.1c0.1,0,0.2,0,0.2,0C16.1,11.8,15.5,12.2,14.9,12.5z"/>
</g>
</svg>
