<?xml version="1.0" encoding="utf-8"?>
<!-- Generator: Adobe Illustrator 22.1.0, SVG Export Plug-In . SVG Version: 6.00 Build 0)  -->
<svg version="1.1" id="レイヤー_1" xmlns="http://www.w3.org/2000/svg" xmlns:xlink="http://www.w3.org/1999/xlink" x="0px"
	 y="0px" viewBox="0 0 34 30" style="enable-background:new 0 0 34 30;" xml:space="preserve">
<style type="text/css">
	.st0{fill:#EC0606;}
</style>
<g>
	<polygon class="st0" points="5.1,29.2 6.6,29.2 6.6,27.6 14.3,27.6 14.3,29.2 15.8,29.2 15.8,26.1 5.1,26.1 	"/>
	<path class="st0" d="M6.7,25.5h1.5v-1l-0.2-0.2c0,0-3.8-3.5-4.6-4.3c-0.4-0.4-0.6-1.2-0.6-1.7V9.1c0.3,0.2,0.8,0.5,0.9,0.8
		c0.2,0.6,0.2,1.3,0.2,1.8c0,0.4,0,0.7,0.1,0.9c0.1,0.4,0.4,1.2,0.7,1.8c-0.1,0-0.1,0.1-0.2,0.1c-0.4,0.4-0.7,0.9-0.8,1.4
		c-0.1,0.6,0.1,1.3,0.5,1.7l3.1,3.1l1.1-1.1l-3.1-3.1c-0.1-0.1-0.1-0.2-0.1-0.4c0-0.2,0.2-0.4,0.3-0.6c0.3-0.3,0.5-0.3,0.8,0
		c0.3,0.3,1.1,1.1,1.7,1.6c0.3,0.3,0.6,0.6,0.7,0.7c0.4,0.4,0.9,0.3,1.4,0.2c0.1,0,0.2,0,0.3,0l2.5,2.5c0.5,0.4,0.7,2.9,0.6,4.9
		l1.5,0.1c0-1.1,0.1-5-1.1-6l-2.6-2.6c-0.4-0.4-0.9-0.3-1.4-0.2c-0.1,0-0.2,0-0.2,0c-0.1-0.1-0.3-0.3-0.6-0.5
		c-0.6-0.5-1.3-1.2-1.7-1.6C7,14.2,6.6,14,6.1,14c-0.3-0.7-0.6-1.4-0.7-1.6c0-0.1,0-0.4-0.1-0.7c0-0.6-0.1-1.4-0.3-2.2
		c-0.3-1.2-1.9-2.1-2.9-2c-0.6,0.1-1,0.5-1,1.1v9.6c0,0.8,0.3,1.9,1,2.7c0.7,0.8,3.6,3.4,4.4,4.2V25.5z"/>
	<polygon class="st0" points="18.2,29.2 19.7,29.2 19.7,27.6 27.4,27.6 27.4,29.2 28.9,29.2 28.9,26.1 18.2,26.1 	"/>
	<path class="st0" d="M31.8,7.5c-1-0.1-2.5,0.8-2.9,2c-0.2,0.8-0.3,1.6-0.3,2.2c0,0.3,0,0.5-0.1,0.7c0,0.2-0.4,0.9-0.7,1.6
		c-0.5,0-0.9,0.2-1.3,0.6c-0.3,0.3-1.1,1-1.6,1.6c-0.2,0.2-0.4,0.4-0.6,0.5c-0.1,0-0.2,0-0.2,0c-0.5-0.1-1-0.2-1.4,0.2l-2.5,2.6
		c-1.2,1.1-1.2,4.9-1.1,6.1l1.5-0.1c-0.1-2,0.2-4.5,0.7-4.9l2.4-2.4c0.1,0,0.2,0,0.3,0c0.5,0.1,1,0.1,1.4-0.2
		c0.1-0.1,0.4-0.3,0.7-0.7c0.6-0.5,1.3-1.3,1.7-1.6c0.3-0.3,0.5-0.3,0.8,0c0.3,0.3,0.5,0.7,0.2,1l-3.1,3.1l1.1,1.1l3.1-3.1
		c0.8-0.8,0.7-2.2-0.2-3.1c-0.1-0.1-0.1-0.1-0.2-0.2c0.3-0.6,0.6-1.4,0.7-1.8c0.1-0.2,0.1-0.5,0.1-0.9c0-0.5,0.1-1.2,0.2-1.8
		c0.1-0.3,0.5-0.7,0.9-0.8v9.2c0,0.5-0.2,1.3-0.6,1.7c-0.8,0.8-4.6,4.3-4.6,4.3l-0.2,0.2v1h1.5v-0.3c0.9-0.8,3.7-3.4,4.4-4.2
		c0.7-0.8,1-1.9,1-2.7V8.7C32.8,8.1,32.4,7.6,31.8,7.5z"/>
	<path class="st0" d="M25.1,9c0-4.5-3.7-8.2-8.2-8.2S8.8,4.5,8.8,9s3.7,8.2,8.2,8.2S25.1,13.5,25.1,9z M16.9,15.6
		c-3.7,0-6.7-3-6.7-6.7s3-6.7,6.7-6.7s6.7,3,6.7,6.7S20.6,15.6,16.9,15.6z"/>
	<polygon class="st0" points="17.4,8 19.2,6.3 18.5,5.5 16.9,7.1 15.4,5.5 14.7,6.3 16.4,8 16.4,8.4 14.6,8.4 14.6,9.4 16.4,9.4 
		16.4,10 14.6,10 14.6,11 16.4,11 16.4,12.1 17.4,12.1 17.4,11 19.3,11 19.3,10 17.4,10 17.4,9.4 19.3,9.4 19.3,8.4 17.4,8.4 	"/>
</g>
</svg>
