<svg width="1000" height="1000" viewBox="0 0 1000 1000" fill="none" xmlns="http://www.w3.org/2000/svg">
<style type="text/css">
	.st0{fill:#EC0606;}
</style>
<path class="st0" d="M281.25 937.506H62.5V662.506H281.25V937.506ZM112.5 887.506H231.25V712.506H112.5V887.506Z"/>
<path class="st0" d="M609.375 937.506H390.625V443.756H609.375V937.506ZM440.625 887.506H559.375V493.756H440.625V887.506V887.506Z"/>
<path class="st0" d="M937.5 937.506H718.75V225.006H937.5V937.506ZM768.75 887.506H887.5V275.006H768.75V887.506Z"/>
<path class="st0" d="M474.977 281.238V309.363V312.488H471.852H390.602C221.852 312.488 146.852 421.863 146.852 528.113V581.238H196.852V528.113C196.852 406.238 299.977 362.488 390.602 362.488H524.977V281.238C524.977 159.363 628.102 115.613 718.727 115.613H824.977V65.6133H718.727C549.977 65.6133 474.977 174.988 474.977 281.238Z"/>
</svg>
