<svg xmlns="http://www.w3.org/2000/svg" style="display:none"><style>g {display: none;}g:target,g:target g {display: inline;}</style><g id="icon-menu" viewBox="0 0 26 25"><path d="M26 5.5c0 .6-.5 1-1 1H1c-.6 0-1-.4-1-1v-2c0-.5.4-1 1-1h24c.5 0 1 .5 1 1v2zM26 13.5c0 .6-.5 1-1 1H1c-.6 0-1-.4-1-1v-2c0-.6.4-1 1-1h24c.5 0 1 .4 1 1v2zM26 21.5c0 .6-.5 1-1 1H1c-.6 0-1-.4-1-1v-2c0-.5.4-1 1-1h24c.5 0 1 .5 1 1v2z"/></g><g id="icon-support" viewBox="0 0 20 24"><path d="M9.6 15.4l-2.5-4.2c-.5-1.2-.5-2.6.5-3.2L4.1 1.9c-1.2.8-5 5.3-.1 13.9 5.1 9.1 11 8.1 12.3 7.4l-3.5-5.9c-1.1.5-1.8-.2-3.2-1.9zm10.3 4.7l-2.7-4.6c-.3-.4-.8-.5-1.2-.2l-2.1 1.2 3.5 5.9 2.1-1.2c.4-.2.6-.6.4-1.1zM10.6 6.2c.4-.2.6-.7.4-1.1L8.3.3C8 0 7.4-.1 7.1.2L5 1.4l3.6 6.1 2-1.3z"/></g><g id="icon_blank" viewBox="0 0 8 8"><g><g><path d="M2 0h6v6H2zM0 7h6v1H0z"/><path d="M0 2h1v6H0z"/></g></g></g><g id="icon_caution_gray" viewBox="0 0 20 17"><g><g><path d="M10 1c.33 0 .69.28 1 .77l7.7 12.72a1.25 1.25 0 0 1 .24 1.12 1.33 1.33 0 0 1-1.14.39H2.2a1.33 1.33 0 0 1-1.14-.39 1.24 1.24 0 0 1 .23-1.12L9 1.77c.3-.49.66-.77 1-.77m0-1a2.25 2.25 0 0 0-1.84 1.25L.44 14c-1 1.68-.22 3 1.76 3h15.6c2 0 2.77-1.35 1.76-3L11.84 1.25A2.25 2.25 0 0 0 10 0z"/><path d="M9 6h2v5H9zM9 12h2v2H9z"/></g></g></g><g id="icon_exclamation" viewBox="0 0 180 180"><path d="M166.603 147.68L100 32.32c-5.5-9.526-14.5-9.526-20 0L13.397 147.68c-5.5 9.526-1 17.32 10 17.32h133.205c11.001 0 15.501-7.794 10.001-17.32zM100 139c0 2.75-2.25 5-5 5H85c-2.75 0-5-2.25-5-5v-10c0-2.75 2.25-5 5-5h10c2.75 0 5 2.25 5 5v10zm0-31c0 2.75-2.25 5-5 5H85c-2.75 0-5-2.25-5-5V78c0-2.75 2.25-5 5-5h10c2.75 0 5 2.25 5 5v30z"/></g><g id="icon_index" viewBox="0 0 10 15"><g><path d="M8.67 1a.33.33 0 0 1 .33.33v11.9l-3.49-2.09a1 1 0 0 0-1 0L1 13.23V1.33A.33.33 0 0 1 1.33 1h7.34m0-1H1.33A1.33 1.33 0 0 0 0 1.33V15l5-3 5 3V1.33A1.33 1.33 0 0 0 8.67 0z"/></g></g><g id="icon_minus" viewBox="0 0 10 2"><g><path d="M0 0h10v2H0z"/></g></g><g id="icon_minus_cercle" viewBox="0 0 20 20"><g><g><circle cx="10" cy="10" r="10"/><path d="M6 9h8v2H6z"/></g></g></g><g id="icon_pc" viewBox="0 0 8 8"><g><g><path d="M2 7h4v1H2zM3 6h2v1H3zM0 0h1v6H0z"/><path d="M0 0h8v1H0z"/><path d="M7 0h1v6H7z"/><path d="M0 5h8v1H0z"/></g></g></g><g id="icon_plus" viewBox="0 0 10 10"><g><g><path d="M0 4h10v2H0z"/><path d="M4 0h2v10H4z"/></g></g></g><g id="icon_plus_cercle" viewBox="0 0 20 20"><g><g><circle cx="10" cy="10" r="10"/><path d="M6 9h8v2H6z"/><path d="M9 6h2v8H9z"/></g></g></g><g id="s2-icon-account" viewBox="0 0 18.68 18.68"><g><g><path d="M3.41 9.61l4 1.7 1.7 4L7.33 17l-6.22.57.57-6.22 1.73-1.74m-.23-1.19L.71 10.9 0 18.68 7.78 18l2.47-2.47-2.12-4.98-4.95-2.13z"/><path d="M1.06 15.5a2.8 2.8 0 0 1 1.41.71 2.8 2.8 0 0 1 .71 1.41"/><path d="M8 17.06a12 12 0 0 0-6.39-6.36L11.67.65a.5.5 0 0 1 .71 0L18 6.3a.5.5 0 0 1 0 .7z"/><path d="M12 1l5.66 5.66-9.52 9.54a12.69 12.69 0 0 0-5.66-5.65L12 1m0-1a1 1 0 0 0-.71.29L.71 10.9A11.33 11.33 0 0 1 7.78 18l10.6-10.64a1 1 0 0 0 0-1.41L12.73.29A1 1 0 0 0 12 0z"/><path d="M6.5 14.3l9.66-9.66M4.37 12.18l9.67-9.66"/></g></g></g><g id="s2-icon-login" viewBox="0 0 18 20"><g><g><path d="M9 1a6 6 0 0 1 6 6v2A6 6 0 0 1 3 9V7a6 6 0 0 1 6-6m0-1a7 7 0 0 0-7 7v2a7 7 0 0 0 7 7 7 7 0 0 0 7-7V7a7 7 0 0 0-7-7z"/><path d="M9 3a4 4 0 0 1 4 4v6a4 4 0 0 1-8 0V7a4 4 0 0 1 4-4m0-1a5 5 0 0 0-5 5v6a5 5 0 0 0 5 5 5 5 0 0 0 5-5V7a5 5 0 0 0-5-5z"/><rect x=".5" y="8.5" width="17" height="11" rx="1.5" ry="1.5"/><path d="M16 9a1 1 0 0 1 1 1v8a1 1 0 0 1-1 1H2a1 1 0 0 1-1-1v-8a1 1 0 0 1 1-1h14m0-1H2a2 2 0 0 0-2 2v8a2 2 0 0 0 2 2h14a2 2 0 0 0 2-2v-8a2 2 0 0 0-2-2z"/><path d="M9 10.5a2 2 0 0 1 2 2 2 2 0 0 1-.67 1.5l-.33.3V16a1 1 0 0 1-2 0v-1.72L7.67 14A2 2 0 0 1 7 12.5a2 2 0 0 1 2-2m0-1a3 3 0 0 0-2 5.22V16a2 2 0 0 0 4 0v-1.28A3 3 0 0 0 9 9.5z"/></g></g></g><g id="s2-icon-menu" viewBox="0 0 22 16"><g><g><path d="M0 0h22v2H0zM0 7h22v2H0zM0 14h22v2H0z"/></g></g></g><g id="s2-icon-support" viewBox="0 0 20.26 21.84"><g><path d="M19.95 20.88c-3.52-1.45-6.61-3.28-6.61-3.91v-.27c2.85-.55 3.32-2.44 3.37-3.32a1.18 1.18 0 0 0 .45-.92V8.18a1.18 1.18 0 0 0-1-1.15 7.19 7.19 0 0 0-1.5-5.2A5.91 5.91 0 0 0 10 0a5.58 5.58 0 0 0-4.49 1.95A7.21 7.21 0 0 0 4.08 7a1.18 1.18 0 0 0-1 1.15v4.28a1.2 1.2 0 0 0 1.2 1.2h1.1a5.61 5.61 0 0 0 1.5 2.45V17c0 .63-3.1 2.46-6.61 3.91a.5.5 0 1 0 .38.92c2.17-.9 7.23-3.16 7.23-4.83v-1.11a.5.5 0 0 0-.17-.38A4.49 4.49 0 0 1 6.2 12.2V7.66c0-1.42.51-3.8 3.93-3.8s3.93 2.38 3.93 3.8v4.54a4.48 4.48 0 0 1-1.56 3.31.49.49 0 0 0-.16.31h-.43a1.51 1.51 0 1 0 0 1h.41V17c0 1.67 5.06 3.93 7.23 4.83a.51.51 0 0 0 .19 0 .5.5 0 0 0 .19-1zm-4.89-8.68V8H16a.2.2 0 0 1 .2.2v4.28a.2.2 0 0 1-.2.2h-1c.05-.17.06-.33.06-.48zm-10.74.46a.2.2 0 0 1-.2-.2V8.18a.2.2 0 0 1 .2-.2h.88v4.68zm5.81-9.79C7.29 2.87 5.52 4.4 5.25 7h-.17a6.22 6.22 0 0 1 1.2-4.4A4.63 4.63 0 0 1 10 1a5 5 0 0 1 3.9 1.49A6.19 6.19 0 0 1 15.19 7H15c-.26-2.6-2-4.13-4.87-4.13zm4.71 10.79h.83a2.45 2.45 0 0 1-1.82 1.88 5.59 5.59 0 0 0 .99-1.88zm-4.34 3.2a.51.51 0 1 1 .51-.51.51.51 0 0 1-.51.51z"/></g></g></svg>