<?xml version="1.0" encoding="utf-8"?>
<!-- Generator: Adobe Illustrator 22.1.0, SVG Export Plug-In . SVG Version: 6.00 Build 0)  -->
<svg version="1.1" id="レイヤー_1" xmlns="http://www.w3.org/2000/svg" xmlns:xlink="http://www.w3.org/1999/xlink" x="0px"
	 y="0px" viewBox="0 0 29 31" style="enable-background:new 0 0 29 31;" xml:space="preserve">
<style type="text/css">
	.st0{fill:#EC0606;}
</style>
<g>
	<path class="st0" d="M7.3,14.7c0.1-0.2,0.2-0.5,0.2-0.8c0-0.5-0.2-0.9-0.6-1.1c-0.4-0.3-0.9-0.4-1.6-0.4H2.6v5.9h2.9
		c0.8,0,1.3-0.1,1.7-0.4c0.4-0.3,0.6-0.7,0.6-1.2c0-0.4-0.1-0.7-0.3-0.9c-0.2-0.3-0.5-0.4-0.8-0.5C7,15.1,7.2,14.9,7.3,14.7z
		 M3.7,13.2h1.6c0.4,0,0.7,0.1,0.9,0.2c0.2,0.1,0.3,0.3,0.3,0.6c0,0.3-0.1,0.5-0.3,0.6s-0.5,0.2-0.9,0.2H3.7V13.2z M5.4,17.4H3.7
		v-1.7h1.8c0.9,0,1.3,0.3,1.3,0.9C6.7,17.1,6.3,17.4,5.4,17.4z"/>
	<path class="st0" d="M8.2,18.3h1.1l0.6-1.4h3l0.6,1.4h1.2l-2.7-5.9h-1.1L8.2,18.3z M12.5,16h-2.2l1.1-2.6L12.5,16z"/>
	<polygon class="st0" points="16.2,12.4 15.3,12.4 15.3,18.3 16.4,18.3 16.4,14.3 19.7,18.3 20.6,18.3 20.6,12.4 19.5,12.4 
		19.5,16.4 	"/>
	<polygon class="st0" points="22.2,12.4 22.2,18.3 23.3,18.3 23.3,16.8 24.2,15.8 26.3,18.3 27.6,18.3 24.9,15 27.4,12.4 26.2,12.4 
		23.3,15.4 23.3,12.4 	"/>
	<polygon class="st0" points="5.5,8.3 2.9,5.4 28.1,5.4 28.1,3.9 2.9,3.9 5.5,1.1 4.4,0.1 0.2,4.7 4.4,9.3 	"/>
	<polygon class="st0" points="24.6,21.7 23.5,22.7 26.1,25.6 0.9,25.6 0.9,27.1 26.1,27.1 23.5,29.9 24.6,30.9 28.8,26.3 	"/>
</g>
</svg>
