<?xml version="1.0" encoding="utf-8"?>
<!-- Generator: Adobe Illustrator 22.1.0, SVG Export Plug-In . SVG Version: 6.00 Build 0)  -->
<svg version="1.1" id="レイヤー_1" xmlns="http://www.w3.org/2000/svg" xmlns:xlink="http://www.w3.org/1999/xlink" x="0px"
	 y="0px" viewBox="0 0 30 25" style="enable-background:new 0 0 30 25;" xml:space="preserve">
<style type="text/css">
	.st0{fill:#EC0606;}
</style>
<path class="st0" d="M29.6,23c-5.2-3.5-10.2-4.7-14.3-4.7V9c2.1,0.9,6.5,2.7,8.9,2.7c0.2,0,0.4,0,0.6,0c2.8-0.5,4.9-3.1,4.6-5.8
	c-0.3-2.4-2.4-4.1-4.8-4.1c-0.3,0-0.6,0-0.9,0.1C21.4,2.3,17,6,15.1,7.7h-0.3c-1.2-1.2-6.4-6.4-8.9-7C5.5,0.6,5.1,0.6,4.7,0.6
	c-2.3,0-4.3,1.5-4.6,3.8c-0.4,2.7,1.5,5.4,4.3,6.1c0.3,0.1,0.6,0.1,0.9,0.1c2.4,0,6.4-1.4,8.5-2.1v9.8C12,18.3,10.4,18.6,9,19
	c-5.2,1.3-8.5,3.9-8.6,4.1c-0.3,0.3-0.4,0.8-0.1,1.1c0.3,0.3,0.8,0.4,1.1,0.1c0.1-0.1,12.4-9.9,27.4,0c0.1,0.1,0.3,0.1,0.4,0.1
	c0.3,0,0.5-0.1,0.7-0.4C30.1,23.7,30,23.2,29.6,23z M23.9,3.5c0.2,0,0.4-0.1,0.7-0.1c1.7,0,3.1,1.1,3.2,2.7c0.2,1.9-1.2,3.7-3.3,4
	c-0.1,0-0.2,0-0.3,0c-1.7,0-4.8-1.2-7.1-2.1C19.6,5.9,22.6,3.7,23.9,3.5z M5.3,9C5,9,4.8,9,4.7,8.9c-2-0.5-3.4-2.4-3.1-4.3
	c0.2-1.5,1.5-2.5,3.1-2.5c0.3,0,0.6,0,0.9,0.1C6.9,2.6,9.8,5,12.2,7.3C10,8.1,7,9,5.3,9z"/>
</svg>
