<?xml version="1.0" encoding="utf-8"?>
<!-- Generator: Adobe Illustrator 22.1.0, SVG Export Plug-In . SVG Version: 6.00 Build 0)  -->
<svg version="1.1" id="レイヤー_1" xmlns="http://www.w3.org/2000/svg" xmlns:xlink="http://www.w3.org/1999/xlink" x="0px"
	 y="0px" viewBox="0 0 29 33" style="enable-background:new 0 0 29 33;" xml:space="preserve">
<style type="text/css">
	.st0{fill:#EC0606;}
</style>
<g>
	<path class="st0" d="M19.2,2.1l1.5-0.7L20,0l-4.1,1.9l1.8,4.2l1.4-0.6l-0.9-2c4.9,1.5,8.6,5.9,9.1,11.1l1.5-0.2
		C28.3,8.6,24.4,3.9,19.2,2.1z"/>
	<path class="st0" d="M10.5,27.6l0.9,2.1c-5.2-1.3-9.2-5.9-9.8-11.4l-1.5,0.1C0.7,24.3,4.8,29.3,10.3,31l-1.4,0.6L9.6,33l4.1-1.9
		l-1.8-4.2L10.5,27.6z"/>
	<polygon class="st0" points="15.7,14.4 19.1,11 18,10 15,13 11.9,10 10.8,11 14.2,14.4 14.2,15.4 10.5,15.4 10.5,17 14.2,17 
		14.2,18.6 10.5,18.6 10.5,20.1 14.2,20.1 14.2,22.3 15.7,22.3 15.7,20.1 19.4,20.1 19.4,18.6 15.7,18.6 15.7,17 19.4,17 19.4,15.4 
		15.7,15.4 	"/>
</g>
</svg>
