<?xml version="1.0" encoding="utf-8"?>
<!-- Generator: Adobe Illustrator 22.1.0, SVG Export Plug-In . SVG Version: 6.00 Build 0)  -->
<svg version="1.1" id="レイヤー_1" xmlns="http://www.w3.org/2000/svg" xmlns:xlink="http://www.w3.org/1999/xlink" x="0px"
	 y="0px" viewBox="0 0 31 31" style="enable-background:new 0 0 31 31;" xml:space="preserve">
<style type="text/css">
	.st0{fill:#EC0606;}
</style>
<g>
	<path class="st0" d="M15.5,0C6.9,0,0,7,0,15.5C0,24.1,6.9,31,15.5,31S31,24.1,31,15.5C31,7,24,0,15.5,0z M15.5,29.5
		c-7.7,0-13.9-6.3-13.9-13.9S7.8,1.6,15.5,1.6s13.9,6.3,13.9,13.9S23.2,29.5,15.5,29.5z"/>
	<polygon class="st0" points="16.3,13.6 19.5,10.4 18.4,9.3 15.5,12.2 12.6,9.3 11.5,10.4 14.7,13.6 14.7,14.6 11.3,14.6 11.3,16.1 
		14.7,16.1 14.7,17.6 11.3,17.6 11.3,19.1 14.7,19.1 14.7,22 16.3,22 16.3,19.1 19.7,19.1 19.7,17.6 16.3,17.6 16.3,16.1 19.7,16.1 
		19.7,14.6 16.3,14.6 	"/>
</g>
</svg>
