<?xml version="1.0" encoding="utf-8"?>
<!-- Generator: Adobe Illustrator 22.1.0, SVG Export Plug-In . SVG Version: 6.00 Build 0)  -->
<svg version="1.1" id="レイヤー_1" xmlns="http://www.w3.org/2000/svg" xmlns:xlink="http://www.w3.org/1999/xlink" x="0px"
	 y="0px" viewBox="0 0 32 32" style="enable-background:new 0 0 32 32;" xml:space="preserve">
<style type="text/css">
	.st0{fill:#EC0606;}
</style>
<g>
	<path class="st0" d="M9.4,11c-0.4,0-0.8,0.3-0.8,0.8V16c0,0.4,0.3,0.8,0.8,0.8c0.4,0,0.8-0.3,0.8-0.8v-4.2C10.2,11.3,9.8,11,9.4,11
		z"/>
	<path class="st0" d="M12.7,8.4c-0.4,0-0.8,0.3-0.8,0.8V16c0,0.4,0.3,0.8,0.8,0.8c0.4,0,0.8-0.3,0.8-0.8V9.2
		C13.4,8.8,13.1,8.4,12.7,8.4z"/>
	<path class="st0" d="M16,8.7c-0.4,0-0.8,0.3-0.8,0.8v6.8c0,0.4,0.3,0.8,0.8,0.8c0.4,0,0.8-0.3,0.8-0.8V9.4C16.8,9,16.5,8.7,16,8.7z
		"/>
	<path class="st0" d="M31.8,27.3l-8.1-8.1c1.1-1.9,1.8-4.1,1.8-6.5c0-7-5.7-12.7-12.7-12.7S0,5.7,0,12.7s5.7,12.7,12.7,12.7
		c2.4,0,4.6-0.7,6.5-1.8l8.1,8.1c0.1,0.1,0.3,0.2,0.6,0.2s0.4-0.1,0.6-0.2l3.4-3.4C32.1,28.1,32.1,27.6,31.8,27.3z M1.6,12.7
		c0-6.2,5-11.2,11.1-11.2s11.1,5,11.1,11.2s-5,11.2-11.1,11.2S1.6,18.9,1.6,12.7z M27.8,30.1l-7.4-7.4c0.8-0.7,1.6-1.4,2.3-2.3
		l7.4,7.4L27.8,30.1z"/>
</g>
</svg>
