<?xml version="1.0" encoding="utf-8"?>
<!-- Generator: Adobe Illustrator 22.1.0, SVG Export Plug-In . SVG Version: 6.00 Build 0)  -->
<svg version="1.1" id="レイヤー_1" xmlns="http://www.w3.org/2000/svg" xmlns:xlink="http://www.w3.org/1999/xlink" x="0px"
	 y="0px" viewBox="0 0 26 32" style="enable-background:new 0 0 26 32;" xml:space="preserve">
<style type="text/css">
	.st0{fill:#EC0606;}
</style>
<g>
	<path class="st0" d="M14.3,15.3h-2.5H11h-0.8v9.5h1.5v-3.1h2.5c1.8,0,3.2-1.4,3.2-3.2S16,15.3,14.3,15.3z M14.3,20.2h-2.5v-3.3h2.5
		c0.9,0,1.7,0.7,1.7,1.7C15.9,19.4,15.2,20.2,14.3,20.2z"/>
	<path class="st0" d="M17.5,9.7V8.8c1.4-1.4,2.4-2.4,3.2-3.5c1-1.4,0.9-3.2-0.3-4.2c-0.9-0.8-2.7-1-4.6,0.8C15.1,0.6,14,0,12.7,0
		c-1.4,0-2.1,0.7-2.7,1.8C8.1,0.1,6.4,0.3,5.5,1.1c-1.2,1-1.3,2.8-0.3,4.2c0.8,1,1.7,2.1,3,3.3H7.8V10c-3.5,2.7-7.4,7.4-7.3,12.1
		C0.6,28.2,5.3,32,12.8,32c8.4,0,12.7-3.5,12.7-10.3C25.5,16.4,20,11.6,17.5,9.7z M6.4,4.4C5.8,3.6,6,2.7,6.5,2.3
		c0.7-0.5,1.7-0.2,2.8,0.9c-0.1,0.3-0.3,0.6-0.5,1l1.4,0.7c0.2-0.5,0.4-0.9,0.6-1.3c0.7-1.6,1-2.1,1.9-2.1c0.5,0,2,0,2.8,3.6L17,4.8
		c-0.2-0.7-0.3-1.3-0.6-1.8l0.2,0.2c1.1-1.1,2.2-1.5,2.8-1c0.5,0.4,0.7,1.3,0.1,2.1c-0.9,1.2-2.1,2.5-4,4.3h-5
		C8.5,6.9,7.3,5.6,6.4,4.4z M12.8,30.5c-6.7,0-10.7-3.1-10.8-8.4c-0.1-4.8,4.8-9.9,8.2-11.9h5.3C16.8,11,24,16.2,24,21.7
		C24,27.6,20.3,30.5,12.8,30.5z"/>
</g>
</svg>
