<?xml version="1.0" encoding="utf-8"?>
<!-- Generator: Adobe Illustrator 22.1.0, SVG Export Plug-In . SVG Version: 6.00 Build 0)  -->
<svg version="1.1" id="レイヤー_1" xmlns="http://www.w3.org/2000/svg" xmlns:xlink="http://www.w3.org/1999/xlink" x="0px"
	 y="0px" viewBox="0 0 31 32" style="enable-background:new 0 0 31 32;" xml:space="preserve">
<style type="text/css">
	.st0{fill:#EC0606;}
</style>
<g>
	<path class="st0" d="M26.7,5.1H4.3C5,4.6,5.4,3.9,5.4,3c0-1.3-1.1-2.4-2.4-2.4C1.6,0.6,0.5,1.7,0.5,3c0,1.1,0.7,2,1.7,2.3v18.3v7.7
		h1.5v-7.7h23c2.1,0,3.8-1.7,3.8-3.8V8.8C30.5,6.7,28.8,5.1,26.7,5.1z M3,2.1c0.5,0,0.9,0.4,0.9,0.9S3.5,4,3,4C2.4,4,2,3.6,2,3
		S2.4,2.1,3,2.1z M29,19.9c0,1.2-1,2.3-2.3,2.3h-23V6.6h23c1.2,0,2.3,1,2.3,2.3V19.9z"/>
	<path class="st0" d="M16.6,8.8c-3.1,0-5.6,2.5-5.6,5.6s2.5,5.6,5.6,5.6c3.1,0,5.6-2.5,5.6-5.6S19.7,8.8,16.6,8.8z M16.6,18.4
		c-2.2,0-4.1-1.8-4.1-4.1c0-2.2,1.8-4.1,4.1-4.1s4.1,1.8,4.1,4.1C20.7,16.6,18.9,18.4,16.6,18.4z"/>
</g>
</svg>
