<?xml version="1.0" encoding="utf-8"?>
<!-- Generator: Adobe Illustrator 22.1.0, SVG Export Plug-In . SVG Version: 6.00 Build 0)  -->
<svg version="1.1" id="レイヤー_1" xmlns="http://www.w3.org/2000/svg" xmlns:xlink="http://www.w3.org/1999/xlink" x="0px"
	 y="0px" viewBox="0 0 20 32" style="enable-background:new 0 0 20 32;" xml:space="preserve">
<style type="text/css">
	.st0{fill:#EC0606;}
</style>
<g>
	<path class="st0" d="M17.2,0H2.8C1.5,0,0.4,1.1,0.4,2.4v27.2c0,1.3,1.1,2.4,2.4,2.4h14.4c1.3,0,2.4-1.1,2.4-2.4V2.4
		C19.6,1.1,18.5,0,17.2,0z M2.8,1.5h14.4c0.5,0,0.9,0.4,0.9,0.9V4H1.9V2.4C1.9,1.9,2.3,1.5,2.8,1.5z M18.1,5.5v19.6H1.9V5.5H18.1z
		 M17.2,30.5H2.8c-0.5,0-0.9-0.4-0.9-0.9v-3h16.2v3C18.1,30.1,17.7,30.5,17.2,30.5z"/>
	<rect x="9.2" y="27.6" class="st0" width="1.6" height="1.5"/>
</g>
</svg>
