<?xml version="1.0" encoding="utf-8"?>
<!-- Generator: Adobe Illustrator 22.1.0, SVG Export Plug-In . SVG Version: 6.00 Build 0)  -->
<svg version="1.1" id="レイヤー_1" xmlns="http://www.w3.org/2000/svg" xmlns:xlink="http://www.w3.org/1999/xlink" x="0px"
	 y="0px" viewBox="0 0 31 29" style="enable-background:new 0 0 31 29;" xml:space="preserve">
<style type="text/css">
	.st0{fill:#EC0606;}
</style>
<g>
	<path class="st0" d="M14.4,1.9h-0.8C6.1,1.9,0,7.9,0,15.4S6.1,29,13.6,29c4.1,0,8-1.9,10.6-5.1l0.5-0.6l-10.3-8.3V1.9z M22.4,23.5
		c-2.3,2.5-5.5,3.9-8.9,3.9c-6.6,0-12-5.4-12-12c0-6.4,5-11.6,11.2-12v12.4L22.4,23.5z"/>
	<path class="st0" d="M19,15l-0.8,0.1v1.2l9.6,7.7l0.5-0.6c1.7-2.1,2.7-4.8,2.7-7.6V15H19z M27.6,21.7l-6.5-5.2h8.3
		C29.3,18.4,28.7,20.2,27.6,21.7z"/>
	<path class="st0" d="M29.7,12.6C29.6,5.7,23.9,0,17,0l-0.9,0v13.4h13.6L29.7,12.6z M17.7,11.8V1.6c5.5,0.3,10,4.8,10.4,10.3H17.7z"
		/>
</g>
</svg>
