<?xml version="1.0" encoding="utf-8"?>
<!-- Generator: Adobe Illustrator 22.1.0, SVG Export Plug-In . SVG Version: 6.00 Build 0)  -->
<svg version="1.1" id="レイヤー_1" xmlns="http://www.w3.org/2000/svg" xmlns:xlink="http://www.w3.org/1999/xlink" x="0px"
	 y="0px" viewBox="0 0 32 33" style="enable-background:new 0 0 32 33;" xml:space="preserve">
<style type="text/css">
	.st0{fill:#EC0606;}
</style>
<g>
	<path class="st0" d="M19.7,13.5c3.7,0,6.8-3,6.8-6.8S23.4,0,19.7,0c-3.7,0-6.8,3-6.8,6.8S16,13.5,19.7,13.5z M19.7,1.6
		c2.9,0,5.2,2.3,5.2,5.2S22.6,12,19.7,12c-2.9,0-5.2-2.3-5.2-5.2S16.8,1.6,19.7,1.6z"/>
	<path class="st0" d="M28.1,20.3c1.4-0.4,2.6-1,3.5-1.7l-1-1.2c-0.7,0.5-1.6,0.9-2.6,1.3c-0.3-1.9-1.3-3.7-2.9-5.1
		c-0.2-0.1-0.3-0.3-0.5-0.4l-0.9,1.3c0.1,0.1,0.3,0.2,0.4,0.3c1.5,1.3,2.4,3.1,2.4,4.9c0,2.3-0.4,5.2-3.8,6.9l-0.6,0.3l1.1,4.5h-3.1
		l-1.2-3.2l-0.7,0.1c-2.9,0.5-5.8,0.1-5.8,0.1L12,28.4l-1.1,3H7.8L9,27.8l-0.6-0.3c-1.8-0.9-3.1-2.2-3.5-3.7l-0.2-0.6H2v-4.3h1.6
		l0.2-0.5c0.5-1.3,1.7-2.9,2.9-3.7l0.7-0.5l-2.5-3.3c1.7-0.2,3.8,0.4,5,1.6l0.4,0.4l0.5-0.3c0.5-0.3,1.4-0.6,2.2-0.8l-0.4-1.5
		c-0.7,0.2-1.5,0.4-2.1,0.7C8.6,9.6,5.4,9,3.2,9.9l-1,0.4l2.9,3.7c-1,0.9-2,2.2-2.6,3.4H0.4v7.4h3.2c0.6,1.4,1.9,2.8,3.5,3.7l-1,2.9
		c-0.1,0.4-0.1,0.7,0.2,1.1C6.5,32.8,6.8,33,7.2,33h3.9c0.5,0,1-0.3,1.2-0.9l0.7-2c1,0.1,2.9,0.2,5-0.1l0.8,2.1
		c0.2,0.5,0.7,0.9,1.2,0.9h3.7c0.4,0,0.7-0.2,1-0.5c0.2-0.3,0.3-0.7,0.2-1L24,27.7C27.6,25.6,28.1,22,28.1,20.3z"/>
	<circle class="st0" cx="7.4" cy="18.5" r="1"/>
</g>
</svg>
