<?xml version="1.0" encoding="utf-8"?>
<!-- Generator: Adobe Illustrator 22.1.0, SVG Export Plug-In . SVG Version: 6.00 Build 0)  -->
<svg version="1.1" id="レイヤー_1" xmlns="http://www.w3.org/2000/svg" xmlns:xlink="http://www.w3.org/1999/xlink" x="0px"
	 y="0px" viewBox="0 0 32 32" style="enable-background:new 0 0 32 32;" xml:space="preserve">
<style type="text/css">
	.st0{fill:#EC0606;}
</style>
<g>
	<path class="st0" d="M31.7,27.3l-8.1-8.1c1.1-1.9,1.8-4.1,1.8-6.5c0-7-5.7-12.7-12.7-12.7C5.7,0,0,5.7,0,12.7s5.7,12.7,12.7,12.7
		c2.4,0,4.6-0.7,6.4-1.8l8.1,8.1c0.1,0.1,0.3,0.2,0.6,0.2s0.4-0.1,0.6-0.2l3.4-3.4C32,28.1,32,27.6,31.7,27.3z M1.6,12.7
		c0-6.1,5-11.1,11.1-11.1c6.1,0,11.1,5,11.1,11.1s-5,11.1-11.1,11.1C6.6,23.9,1.6,18.9,1.6,12.7z M27.8,30.1l-7.3-7.3
		c0.8-0.7,1.6-1.4,2.3-2.3l7.3,7.3L27.8,30.1z"/>
	<polygon class="st0" points="13.7,12.9 12.1,9.7 7.2,17 8.5,17.9 11.9,12.8 13.4,15.8 16.6,11.6 17.5,13.2 18.9,12.4 16.7,8.8 	"/>
</g>
</svg>
