<?xml version="1.0" encoding="utf-8"?>
<!-- Generator: Adobe Illustrator 22.1.0, SVG Export Plug-In . SVG Version: 6.00 Build 0)  -->
<svg version="1.1" id="レイヤー_1" xmlns="http://www.w3.org/2000/svg" xmlns:xlink="http://www.w3.org/1999/xlink" x="0px"
	 y="0px" viewBox="0 0 30 32" style="enable-background:new 0 0 30 32;" xml:space="preserve">
<style type="text/css">
	.st0{fill:#EC0606;}
</style>
<g>
	<path class="st0" d="M10.1,26.7l0.9,2c-4.9-1.2-8.7-5.5-9.2-10.6l-1.4,0.1c0.5,5.5,4.4,10.1,9.5,11.6l-1.3,0.6l0.6,1.3l3.9-1.7
		l-1.7-3.9L10.1,26.7z"/>
	<path class="st0" d="M20.1,5.3l-0.8-1.9c4.6,1.4,8,5.4,8.6,10.3l1.4-0.2C28.7,8.3,25,3.9,20.1,2.2l1.4-0.6l-0.6-1.3L17.1,2l1.7,3.9
		L20.1,5.3z"/>
	<path class="st0" d="M8.8,18.5c4.7,0,8.6-3.8,8.6-8.6s-3.8-8.6-8.6-8.6S0.2,5.2,0.2,9.9S4,18.5,8.8,18.5z M8.8,2.8
		c3.9,0,7.1,3.2,7.1,7.1S12.7,17,8.8,17s-7.1-3.2-7.1-7.1S4.8,2.8,8.8,2.8z"/>
	<path class="st0" d="M21.2,14c-4.7,0-8.6,3.8-8.6,8.6s3.8,8.6,8.6,8.6s8.6-3.8,8.6-8.6S26,14,21.2,14z M21.2,29.7
		c-3.9,0-7.1-3.2-7.1-7.1s3.2-7.1,7.1-7.1s7.1,3.2,7.1,7.1S25.2,29.7,21.2,29.7z"/>
	<path class="st0" d="M21.4,22l-0.1,0c-1.3-0.3-1.7-0.5-1.6-1c0-0.2,0.2-0.3,0.4-0.5c0.6-0.3,1.8-0.4,3.5,0.5l0.4-0.8
		c-0.8-0.4-1.5-0.6-2.2-0.7v-1h-1v1c-0.4,0-0.8,0.1-1.1,0.3c-0.5,0.3-0.9,0.7-0.9,1.2c-0.2,1.6,1.2,1.9,2.3,2.1l0.1,0
		c1,0.2,1.8,0.4,1.9,0.9c0,0.2,0,0.3-0.1,0.5c-0.1,0.2-0.4,0.3-0.7,0.4c-0.9,0.2-2.3-0.2-3.3-0.8l-0.5,0.8c0.7,0.4,1.5,0.7,2.3,0.8
		v1.1h1v-1c0,0,0.1,0,0.1,0c0.2,0,0.5,0,0.7-0.1c0.7-0.1,1.1-0.5,1.3-0.8c0.2-0.3,0.3-0.8,0.2-1.2C23.8,22.6,22.5,22.3,21.4,22z"/>
	<polygon class="st0" points="8.3,13.3 9.2,13.3 9.2,12.1 11.3,12.1 11.3,11.1 9.2,11.1 9.2,10.3 11.3,10.3 11.3,9.3 9.2,9.3 
		9.2,8.8 11.2,6.9 10.5,6.2 8.8,7.9 7,6.2 6.4,6.9 8.3,8.8 8.3,9.3 6.2,9.3 6.2,10.3 8.3,10.3 8.3,11.1 6.2,11.1 6.2,12.1 8.3,12.1 
			"/>
</g>
</svg>
