<?xml version="1.0" encoding="utf-8"?>
<!-- Generator: Adobe Illustrator 22.1.0, SVG Export Plug-In . SVG Version: 6.00 Build 0)  -->
<svg version="1.1" id="レイヤー_1" xmlns="http://www.w3.org/2000/svg" xmlns:xlink="http://www.w3.org/1999/xlink" x="0px"
	 y="0px" viewBox="0 0 35 25" style="enable-background:new 0 0 35 25;" xml:space="preserve">
<style type="text/css">
	.st0{fill:#EC0606;}
</style>
<g>
	<path class="st0" d="M25.2,0.1c-1.1,0-2.1,0.8-2.4,1.9L4.3,8.5H1.8c-1,0-1.8,0.8-1.8,1.8v4.3c0,1,0.8,1.8,1.8,1.8h2.7l2,0.7v2.5
		c0,0.3,0.2,0.6,0.4,0.7c0.6,0.3,5.5,2.9,8,2.9c0.3,0,0.6-0.2,0.7-0.5c0.1-0.1,0.1-0.3,0.1-0.4c0-0.2,0-1,0-1.9l7.1,2.6
		c0.3,1.1,1.2,1.9,2.4,1.9c1.3,0,2.4-1.1,2.4-2.4V2.6C27.6,1.2,26.5,0.1,25.2,0.1z M1.6,14.6v-4.3c0-0.1,0.1-0.2,0.2-0.2h1.9v4.7
		H1.8C1.7,14.8,1.6,14.7,1.6,14.6z M5.2,9.8l17.5-6.1v17.6L5.2,14.9V9.8z M14.1,21.5c-1.8-0.4-4.6-1.7-6-2.4v-1.5l6,2.2
		C14.1,20.6,14.1,21.1,14.1,21.5z M26.1,22.4c0,0.5-0.4,0.9-0.9,0.9c-0.5,0-0.9-0.4-0.9-0.9V2.6c0-0.5,0.4-0.9,0.9-0.9
		c0.5,0,0.9,0.4,0.9,0.9V22.4z"/>
	<rect x="30" y="11.9" class="st0" width="5" height="1.6"/>
	<rect x="29.2" y="6.2" transform="matrix(0.7071 -0.7071 0.7071 0.7071 4.3272 24.4355)" class="st0" width="5" height="1.6"/>
	<rect x="30.9" y="15.8" transform="matrix(0.707 -0.7072 0.7072 0.707 -3.6515 27.746)" class="st0" width="1.6" height="5"/>
</g>
</svg>
