<svg width="109" height="41" viewBox="0 0 109 41" fill="none" xmlns="http://www.w3.org/2000/svg">
<g clip-path="url(#clip0_1499_2398)">
<path d="M99.3965 0.355957H9.6089C9.2422 0.355957 8.8799 0.355957 8.51417 0.357957C8.20802 0.359957 7.90431 0.365767 7.59522 0.370657C6.92373 0.378559 6.25383 0.437633 5.59132 0.547367C4.92974 0.65949 4.28889 0.870873 3.69044 1.17437C3.09272 1.48043 2.54656 1.87812 2.07179 2.35303C1.59452 2.82659 1.19668 3.37397 0.893569 3.97412C0.589619 4.57307 0.378859 5.2149 0.268569 5.87744C0.15723 6.53914 0.097317 7.20848 0.0893687 7.87944C0.0800887 8.18604 0.0791086 8.49366 0.0742188 8.8003V31.9146C0.0791086 32.2251 0.0800887 32.5259 0.0893687 32.8365C0.0973195 33.5074 0.157232 34.1767 0.268569 34.8384C0.378555 35.5013 0.589327 36.1435 0.893569 36.7427C1.19654 37.3409 1.59444 37.886 2.07179 38.357C2.54476 38.834 3.09127 39.2319 3.69044 39.5357C4.28889 39.84 4.92967 40.0526 5.59132 40.1665C6.25394 40.2753 6.92378 40.3344 7.59522 40.3433C7.90431 40.3501 8.20802 40.354 8.51417 40.354C8.87989 40.356 9.24222 40.356 9.6089 40.356H99.3965C99.7559 40.356 100.121 40.356 100.48 40.354C100.785 40.354 101.098 40.3501 101.402 40.3433C102.073 40.3349 102.741 40.2758 103.402 40.1665C104.066 40.0518 104.709 39.8392 105.311 39.5357C105.909 39.2318 106.455 38.8338 106.928 38.357C107.404 37.8842 107.803 37.3394 108.109 36.7427C108.411 36.143 108.62 35.5009 108.728 34.8384C108.84 34.1766 108.902 33.5074 108.914 32.8365C108.918 32.5259 108.918 32.2251 108.918 31.9146C108.926 31.5513 108.926 31.19 108.926 30.8208V9.89209C108.926 9.52588 108.926 9.1626 108.918 8.8003C108.918 8.49366 108.918 8.18604 108.914 7.8794C108.902 7.20838 108.84 6.53919 108.728 5.8774C108.62 5.21524 108.411 4.57346 108.109 3.97408C107.492 2.77115 106.513 1.79198 105.311 1.17428C104.709 0.871524 104.066 0.660197 103.402 0.547277C102.741 0.43706 102.073 0.377965 101.402 0.370517C101.098 0.365637 100.785 0.359777 100.48 0.357827C100.121 0.355957 99.7559 0.355957 99.3965 0.355957Z" fill="#A6A6A6"/>
<path d="M8.51909 39.481C8.21441 39.481 7.91709 39.4771 7.6148 39.4703C6.98858 39.4621 6.36382 39.4076 5.74566 39.3072C5.16925 39.2079 4.61086 39.0232 4.08892 38.7593C3.57176 38.4975 3.10007 38.1542 2.69192 37.7427C2.27786 37.3359 1.93313 36.8642 1.67141 36.3462C1.40679 35.8247 1.22367 35.2659 1.12841 34.689C1.02553 34.0691 0.96987 33.4423 0.961906 32.814C0.955566 32.6031 0.947266 31.9009 0.947266 31.9009V8.8003C0.947266 8.8003 0.956106 8.10889 0.961956 7.90576C0.969581 7.27844 1.02492 6.65261 1.12749 6.03369C1.22292 5.45521 1.40619 4.89471 1.67095 4.37159C1.93171 3.8539 2.27452 3.38182 2.68609 2.97364C3.09719 2.56158 3.57039 2.21656 4.08843 1.95117C4.60917 1.68805 5.1665 1.50469 5.74175 1.40723C6.36194 1.30579 6.98887 1.25095 7.61726 1.24317L8.51958 1.23096H100.476L101.389 1.24366C102.011 1.25106 102.633 1.30541 103.247 1.40625C103.828 1.50493 104.391 1.68957 104.918 1.9541C105.956 2.48894 106.8 3.33512 107.333 4.37403C107.594 4.89353 107.774 5.44947 107.868 6.02296C107.972 6.64696 108.03 7.27771 108.042 7.91017C108.045 8.19337 108.045 8.49757 108.045 8.80031C108.053 9.17531 108.053 9.53224 108.053 9.8921V30.8208C108.053 31.1841 108.053 31.5386 108.045 31.896C108.045 32.2212 108.045 32.5191 108.041 32.8257C108.029 33.4468 107.972 34.0663 107.87 34.6792C107.777 35.2602 107.595 35.8235 107.33 36.3492C107.067 36.8616 106.724 37.3292 106.315 37.7349C105.906 38.1486 105.434 38.4939 104.915 38.7574C104.39 39.0234 103.828 39.2087 103.247 39.3072C102.629 39.4081 102.004 39.4626 101.378 39.4703C101.085 39.4771 100.778 39.481 100.481 39.481L99.3966 39.483L8.51909 39.481Z" fill="black"/>
<path d="M41.2416 16.9105H37.19L36.217 19.7835H34.501L38.3386 9.1543H40.1216L43.9592 19.7835H42.2138L41.2416 16.9105ZM37.6096 15.5848H40.8212L39.238 10.9222H39.1937L37.6096 15.5848Z" fill="white"/>
<path d="M52.2471 15.9093C52.2471 18.3175 50.9582 19.8648 49.0131 19.8648C48.5203 19.8905 48.0303 19.777 47.5991 19.5373C47.1678 19.2975 46.8129 18.9411 46.5748 18.5089H46.538V22.3474H44.9473V12.0341H46.487V13.3231H46.5162C46.7653 12.893 47.1263 12.5385 47.5608 12.2972C47.9953 12.056 48.4871 11.9371 48.9838 11.9531C50.9507 11.953 52.2471 13.5078 52.2471 15.9093ZM50.6121 15.9093C50.6121 14.3403 49.8013 13.3088 48.5642 13.3088C47.3488 13.3088 46.5313 14.3621 46.5313 15.9093C46.5313 17.4708 47.3488 18.5165 48.5642 18.5165C49.8013 18.5165 50.6121 17.4925 50.6121 15.9093Z" fill="white"/>
<path d="M60.7768 15.9093C60.7768 18.3175 59.4875 19.8648 57.5423 19.8648C57.0496 19.8905 56.5596 19.777 56.1283 19.5373C55.6971 19.2975 55.3421 18.9411 55.104 18.5089H55.0673V22.3474H53.4766V12.0341H55.0163V13.3231H55.0455C55.2946 12.893 55.6556 12.5385 56.0901 12.2972C56.5246 12.056 57.0164 11.9371 57.5131 11.9531C59.4799 11.953 60.7768 13.5078 60.7768 15.9093ZM59.1414 15.9093C59.1414 14.3403 58.3306 13.3088 57.0935 13.3088C55.8781 13.3088 55.0606 14.3621 55.0606 15.9093C55.0606 17.4708 55.8781 18.5165 57.0935 18.5165C58.3306 18.5165 59.1414 17.4925 59.1414 15.9093Z" fill="white"/>
<path d="M66.4135 16.8219C66.5313 17.876 67.5553 18.5681 68.9546 18.5681C70.2954 18.5681 71.26 17.876 71.26 16.9256C71.26 16.1006 70.6782 15.6066 69.3007 15.268L67.9231 14.9361C65.9713 14.4647 65.0652 13.5519 65.0652 12.0707C65.0652 10.2367 66.6634 8.97705 68.932 8.97705C71.1789 8.97705 72.7186 10.2367 72.7704 12.0707H71.1647C71.0686 11.0099 70.1917 10.3697 68.9103 10.3697C67.6289 10.3697 66.752 11.0175 66.752 11.9604C66.752 12.7119 67.312 13.1541 68.6821 13.4926L69.8532 13.7801C72.034 14.2959 72.9393 15.1719 72.9393 16.7267C72.9393 18.7153 71.3561 19.9607 68.8367 19.9607C66.4795 19.9607 64.888 18.7445 64.7852 16.822L66.4135 16.8219Z" fill="white"/>
<path d="M76.3734 10.1998V12.0338H77.8471V13.2935H76.3734V17.5657C76.3734 18.2294 76.6685 18.5387 77.3163 18.5387C77.4913 18.5357 77.666 18.5234 77.8396 18.5019V19.7541C77.5484 19.8085 77.2523 19.8332 76.9561 19.8277C75.3871 19.8277 74.7752 19.2384 74.7752 17.7354V13.2934H73.6484V12.0337H74.7752V10.1997L76.3734 10.1998Z" fill="white"/>
<path d="M78.7002 15.909C78.7002 13.4707 80.1363 11.9385 82.3756 11.9385C84.6225 11.9385 86.0519 13.4707 86.0519 15.909C86.0519 18.354 84.63 19.8795 82.3756 19.8795C80.1221 19.8795 78.7002 18.354 78.7002 15.909ZM84.4311 15.909C84.4311 14.2363 83.6646 13.2492 82.3756 13.2492C81.0867 13.2492 80.3202 14.2439 80.3202 15.909C80.3202 17.5883 81.0867 18.568 82.3756 18.568C83.6646 18.568 84.4311 17.5883 84.4311 15.909Z" fill="white"/>
<path d="M87.3633 12.0341H88.8804V13.3531H88.9172C89.0198 12.9412 89.2612 12.5771 89.6006 12.3221C89.9401 12.0672 90.3569 11.9368 90.7812 11.953C90.9645 11.9524 91.1473 11.9723 91.3262 12.0124V13.5002C91.0948 13.4295 90.8534 13.3971 90.6115 13.4041C90.3804 13.3947 90.15 13.4355 89.9362 13.5236C89.7223 13.6116 89.53 13.7449 89.3726 13.9143C89.2151 14.0837 89.0961 14.2852 89.0239 14.5049C88.9516 14.7246 88.9277 14.9573 88.9539 15.1871V19.7837H87.3633V12.0341Z" fill="white"/>
<path d="M98.6605 17.5072C98.4857 18.2395 98.0511 18.8836 97.4375 19.3198C96.8238 19.7561 96.0727 19.9549 95.3236 19.8795C93.0692 19.8795 91.6699 18.369 91.6699 15.9457C91.6699 13.515 93.0767 11.9385 95.2567 11.9385C97.4008 11.9385 98.7491 13.4113 98.7491 15.761V16.306H93.2757V16.4021C93.2504 16.6874 93.2861 16.9747 93.3804 17.245C93.4747 17.5154 93.6255 17.7625 93.8227 17.9701C94.0198 18.1778 94.2589 18.341 94.5241 18.4492C94.7892 18.5573 95.0743 18.6077 95.3604 18.5972C95.7363 18.6324 96.1135 18.5454 96.436 18.349C96.7584 18.1526 97.0089 17.8574 97.1501 17.5072H98.6605ZM93.2832 15.1943H97.1576C97.1719 14.9378 97.133 14.6812 97.0434 14.4405C96.9538 14.1998 96.8154 13.9802 96.6369 13.7955C96.4584 13.6108 96.2437 13.465 96.0062 13.3673C95.7687 13.2695 95.5135 13.2219 95.2568 13.2274C94.9977 13.2259 94.7409 13.2756 94.5012 13.3739C94.2615 13.4721 94.0437 13.6168 93.8602 13.7996C93.6767 13.9825 93.5312 14.1999 93.4322 14.4393C93.3332 14.6786 93.2825 14.9352 93.2832 15.1943Z" fill="white"/>
<path d="M36.5112 31.1675L36.5771 30.3482C36.8843 30.4473 37.205 30.4984 37.5278 30.4996C37.8198 30.4996 37.9326 30.4712 38.0742 30.273C38.4185 29.5523 38.5677 28.7539 38.5068 27.9576C38.5068 27.1099 38.2437 26.8648 37.5752 26.8648C37.4243 26.8648 37.2549 26.8746 37.0664 26.8843C36.7067 28.3464 36.1088 29.7393 35.2969 31.0073L34.5151 30.5835C35.2778 29.4876 35.8359 28.2628 36.1626 26.9683C35.6468 27.0241 35.1346 27.1092 34.6284 27.2231L34.459 26.394C35.0332 26.2905 35.7202 26.1968 36.3604 26.1401C36.4919 25.515 36.5894 24.8832 36.6524 24.2476L37.5752 24.3511C37.4902 24.9253 37.3867 25.5005 37.2549 26.0649H37.6221C38.8179 26.0649 39.3921 26.6577 39.3921 27.9194C39.444 28.8822 39.2564 29.8428 38.8462 30.7153C38.7381 30.9159 38.5733 31.0801 38.3722 31.1873C38.1712 31.2945 37.943 31.3399 37.7163 31.3179C37.3101 31.3152 36.9056 31.2647 36.5112 31.1675ZM39.5425 26.0933L40.23 25.6314C41.1832 26.5509 41.7575 27.7939 41.8398 29.1158L40.936 29.2564C40.9294 28.6624 40.8025 28.0759 40.563 27.5322C40.3235 26.9886 39.9763 26.4991 39.5425 26.0933Z" fill="white"/>
<path d="M44.9617 31.2993L44.7737 30.4517C45.009 30.4712 45.3196 30.48 45.5081 30.48C47.3718 30.48 48.0779 29.9536 48.0779 29.1714C48.0779 28.5503 47.6731 28.1929 46.7693 28.1929C45.7839 28.2832 44.866 28.7322 44.1897 29.4546L43.4646 29.1343C43.3273 27.901 43.6092 26.6575 44.2649 25.604L45.1028 25.8764C44.5807 26.5814 44.3271 27.4495 44.3875 28.3247C45.1425 27.7922 46.0348 27.4881 46.9578 27.4487C48.2195 27.4487 49.0008 28.0981 49.0008 29.1528C49.0008 30.4897 47.9461 31.309 45.4139 31.309C45.2913 31.3091 45.1126 31.2993 44.9617 31.2993ZM44.0862 25.0483L44.3215 24.2192C45.574 24.4109 46.8108 24.6942 48.0217 25.0669L47.7957 25.8862C46.5869 25.4961 45.3453 25.2156 44.0862 25.0483Z" fill="white"/>
<path d="M51.7266 30.6499C52.6974 30.3303 53.5695 29.766 54.2588 29.0112C53.7128 28.5587 53.1231 28.1615 52.4985 27.8257L53.0161 27.1763C53.6459 27.4966 54.2446 27.8745 54.8047 28.3052C55.2545 27.6492 55.5683 26.9097 55.7275 26.1304H53.3267C52.775 27.024 52.0819 27.8222 51.2744 28.4937L50.5869 27.9009C51.7491 26.9422 52.6496 25.7049 53.2046 24.3042L54.1084 24.521C54.0049 24.7847 53.9014 25.0572 53.7788 25.312H56.1138L56.7823 25.6226C56.6201 26.9004 56.1153 28.1106 55.3214 29.1249C54.5275 30.1392 53.474 30.9199 52.2725 31.3843L51.7266 30.6499ZM55.6992 24.0786L56.2265 23.8237C56.4942 24.1821 56.7186 24.5709 56.895 24.9819L56.3017 25.2554C56.1524 24.8388 55.9499 24.4433 55.6992 24.0786ZM56.876 23.9839L57.4126 23.73C57.6839 24.0995 57.9144 24.4974 58.1001 24.9165L57.5068 25.1704C57.3491 24.7491 57.137 24.3503 56.876 23.9839Z" fill="white"/>
<path d="M60.9961 31.3462L60.5161 30.5835C61.4863 30.4287 62.3638 29.9173 62.9768 29.1494C63.5898 28.3816 63.8941 27.4125 63.8301 26.4321H59.876V28.3247H58.9248V25.6313H61.2881V24.2476H62.2387V25.6313H63.9995L64.8657 25.8765C64.7524 28.5503 63.8584 30.5933 60.9961 31.3462Z" fill="white"/>
<path d="M66.6973 25.6978L67.2246 24.9253C68.0482 25.3018 68.8252 25.7727 69.54 26.3286L68.9375 27.1382C68.2515 26.5695 67.4993 26.0858 66.6973 25.6978ZM66.876 30.3394C68.0279 30.166 69.1218 29.7202 70.0667 29.0389C71.0116 28.3576 71.7802 27.4605 72.3086 26.4224L72.9297 27.1196C72.356 28.1916 71.5444 29.1181 70.5572 29.8278C69.5699 30.5376 68.4333 31.0119 67.2344 31.2144L66.876 30.3394Z" fill="white"/>
<path d="M80.6455 30.7915H74.7236V25.189H80.6455V30.7915ZM75.6562 26.0552V29.9253H79.7041V26.0552H75.6562Z" fill="white"/>
<path d="M89.124 28.2769H82.4678V27.3169H89.124V28.2769Z" fill="white"/>
<path d="M91.3887 24.2759H92.3203V26.686C93.5594 27.2017 94.7611 27.8028 95.917 28.4849L95.3897 29.313C94.4102 28.6861 93.3841 28.1353 92.3203 27.6655V31.2993H91.3887V24.2759ZM93.6006 24.7847L94.1562 24.521C94.4284 24.9202 94.6529 25.3499 94.8252 25.8013L94.2129 26.0747C94.0655 25.62 93.8597 25.1863 93.6006 24.7847ZM94.6738 24.3794L95.2393 24.1157C95.525 24.5126 95.7621 24.9425 95.9453 25.396L95.333 25.6694C95.1651 25.2148 94.9438 24.7818 94.6738 24.3794Z" fill="white"/>
<path d="M24.8432 20.6568C24.854 19.8221 25.0757 19.0037 25.4877 18.2778C25.8997 17.5518 26.4887 16.9419 27.1998 16.5047C26.748 15.8596 26.1521 15.3286 25.4593 14.9541C24.7664 14.5795 23.9958 14.3717 23.2086 14.347C21.5294 14.1708 19.9014 15.3519 19.0457 15.3519C18.1734 15.3519 16.8559 14.3645 15.4372 14.3937C14.5195 14.4234 13.6252 14.6902 12.8413 15.1683C12.0574 15.6463 11.4108 16.3193 10.9643 17.1216C9.03028 20.47 10.4729 25.3911 12.3255 28.0977C13.2524 29.423 14.3357 30.9035 15.7531 30.851C17.1402 30.7934 17.6582 29.9665 19.3325 29.9665C20.9913 29.9665 21.4773 30.851 22.9235 30.8176C24.4119 30.7934 25.3497 29.4864 26.244 28.1485C26.91 27.2041 27.4225 26.1604 27.7625 25.0559C26.8977 24.6902 26.1598 24.078 25.6407 23.2957C25.1216 22.5134 24.8442 21.5956 24.8432 20.6568Z" fill="white"/>
<path d="M22.1118 12.5668C22.9233 11.5926 23.3231 10.3404 23.2263 9.07617C21.9865 9.20639 20.8412 9.79895 20.0187 10.7358C19.6166 11.1934 19.3086 11.7259 19.1123 12.3027C18.9161 12.8794 18.8355 13.4892 18.875 14.0972C19.4952 14.1036 20.1087 13.9691 20.6693 13.7041C21.23 13.439 21.7232 13.0501 22.1118 12.5668Z" fill="white"/>
</g>
<defs>
<clipPath id="clip0_1499_2398">
<rect width="109" height="41" fill="white"/>
</clipPath>
</defs>
</svg>
