<svg width="135" height="41" viewBox="0 0 135 41" fill="none" xmlns="http://www.w3.org/2000/svg">
<g clip-path="url(#clip0_1499_2388)">
<path d="M130 0.355957H5C2.23858 0.355957 0 2.59453 0 5.35596V35.356C0 38.1174 2.23858 40.356 5 40.356H130C132.761 40.356 135 38.1174 135 35.356V5.35596C135 2.59453 132.761 0.355957 130 0.355957Z" fill="black"/>
<path d="M130 1.15596C132.32 1.15596 134.2 3.03596 134.2 5.35596V35.356C134.2 37.676 132.32 39.556 130 39.556H5C2.68 39.556 0.8 37.676 0.8 35.356V5.35596C0.8 3.03596 2.68 1.15596 5 1.15596H130ZM130 0.355957H5C2.25 0.355957 0 2.60596 0 5.35596V35.356C0 38.106 2.25 40.356 5 40.356H130C132.75 40.356 135 38.106 135 35.356V5.35596C135 2.60596 132.75 0.355957 130 0.355957Z" fill="#A6A6A6"/>
<path d="M68.14 11.1058C65.79 11.1058 63.87 12.8958 63.87 15.3558C63.87 17.8158 65.79 19.6058 68.14 19.6058C70.49 19.6058 72.41 17.8058 72.41 15.3558C72.41 12.9058 70.49 11.1058 68.14 11.1058ZM68.14 17.9358C66.85 17.9358 65.74 16.8758 65.74 15.3558C65.74 13.8358 66.85 12.7758 68.14 12.7758C69.43 12.7758 70.54 13.8258 70.54 15.3558C70.54 16.8858 69.43 17.9358 68.14 17.9358ZM58.82 11.1058C56.47 11.1058 54.55 12.8958 54.55 15.3558C54.55 17.8158 56.47 19.6058 58.82 19.6058C61.17 19.6058 63.09 17.8058 63.09 15.3558C63.09 12.9058 61.17 11.1058 58.82 11.1058ZM58.82 17.9358C57.53 17.9358 56.42 16.8758 56.42 15.3558C56.42 13.8358 57.53 12.7758 58.82 12.7758C60.11 12.7758 61.22 13.8258 61.22 15.3558C61.22 16.8858 60.11 17.9358 58.82 17.9358ZM47.74 12.4158V14.2158H52.06C51.93 15.2358 51.59 15.9758 51.08 16.4858C50.45 17.1158 49.47 17.8058 47.75 17.8058C45.09 17.8058 43.01 15.6658 43.01 13.0058C43.01 10.3458 45.09 8.20576 47.75 8.20576C49.18 8.20576 50.23 8.76576 51 9.49576L52.27 8.22576C51.19 7.19576 49.76 6.40576 47.74 6.40576C44.1 6.40576 41.04 9.36576 41.04 13.0158C41.04 16.6658 44.1 19.6258 47.74 19.6258C49.71 19.6258 51.19 18.9858 52.35 17.7758C53.54 16.5858 53.91 14.9058 53.91 13.5558C53.91 13.1358 53.88 12.7458 53.81 12.4258H47.74V12.4158ZM93.05 13.8158C92.7 12.8658 91.62 11.1058 89.41 11.1058C87.2 11.1058 85.4 12.8258 85.4 15.3558C85.4 17.7358 87.2 19.6058 89.62 19.6058C91.57 19.6058 92.7 18.4158 93.16 17.7258L91.71 16.7558C91.23 17.4658 90.57 17.9358 89.62 17.9358C88.67 17.9358 87.99 17.4958 87.56 16.6458L93.25 14.2958L93.06 13.8158H93.05ZM87.25 15.2358C87.2 13.5958 88.52 12.7558 89.47 12.7558C90.21 12.7558 90.84 13.1258 91.05 13.6558L87.25 15.2358ZM82.63 19.3558H84.5V6.85576H82.63V19.3558ZM79.57 12.0558H79.51C79.09 11.5558 78.29 11.1058 77.27 11.1058C75.14 11.1058 73.19 12.9758 73.19 15.3758C73.19 17.7758 75.14 19.6158 77.27 19.6158C78.29 19.6158 79.09 19.1658 79.51 18.6458H79.57V19.2558C79.57 20.8858 78.7 21.7558 77.3 21.7558C76.16 21.7558 75.45 20.9358 75.16 20.2458L73.53 20.9258C74 22.0558 75.24 23.4358 77.3 23.4358C79.49 23.4358 81.34 22.1458 81.34 19.0058V11.3658H79.57V12.0558ZM77.42 17.9358C76.13 17.9358 75.05 16.8558 75.05 15.3758C75.05 13.8958 76.13 12.7858 77.42 12.7858C78.71 12.7858 79.69 13.8858 79.69 15.3758C79.69 16.8658 78.69 17.9358 77.42 17.9358ZM101.81 6.85576H97.34V19.3558H99.21V14.6158H101.82C103.89 14.6158 105.92 13.1158 105.92 10.7358C105.92 8.35576 103.89 6.85576 101.82 6.85576H101.81ZM101.85 12.8758H99.2V8.58576H101.85C103.25 8.58576 104.04 9.74576 104.04 10.7258C104.04 11.7058 103.25 12.8658 101.85 12.8658V12.8758ZM113.39 11.0858C112.04 11.0858 110.64 11.6858 110.06 12.9958L111.72 13.6858C112.07 12.9958 112.73 12.7658 113.42 12.7658C114.38 12.7658 115.37 13.3458 115.38 14.3758V14.5058C115.04 14.3158 114.32 14.0258 113.43 14.0258C111.64 14.0258 109.83 15.0058 109.83 16.8358C109.83 18.5058 111.29 19.5858 112.93 19.5858C114.18 19.5858 114.88 19.0258 115.31 18.3658H115.37V19.3358H117.17V14.5458C117.17 12.3258 115.51 11.0858 113.37 11.0858H113.39ZM113.16 17.9358C112.55 17.9358 111.7 17.6258 111.7 16.8758C111.7 15.9158 112.76 15.5458 113.68 15.5458C114.5 15.5458 114.89 15.7258 115.38 15.9658C115.24 17.1258 114.24 17.9458 113.16 17.9458V17.9358ZM123.74 11.3558L121.6 16.7758H121.54L119.32 11.3558H117.31L120.64 18.9358L118.74 23.1458H120.69L125.82 11.3558H123.75H123.74ZM106.94 19.3558H108.81V6.85576H106.94V19.3558Z" fill="white"/>
<path d="M20.7193 19.7761L10.0693 31.0761C10.3993 32.3061 11.5193 33.2061 12.8493 33.2061C13.3793 33.2061 13.8793 33.0661 14.3093 32.8061L14.3393 32.7861L26.3193 25.8761L20.7093 19.7661L20.7193 19.7761Z" fill="#EA4335"/>
<path d="M31.4895 17.8562H31.4795L26.3095 14.8462L20.4795 20.0362L26.3295 25.8862L31.4795 22.9162C32.3795 22.4262 32.9895 21.4762 32.9895 20.3862C32.9895 19.2962 32.3895 18.3462 31.4895 17.8662V17.8562Z" fill="#FBBC04"/>
<path d="M10.0697 9.63623C10.0097 9.87623 9.96973 10.1162 9.96973 10.3762V30.3462C9.96973 30.6062 9.99973 30.8462 10.0697 31.0862L21.0797 20.0762L10.0697 9.63623Z" fill="#4285F4"/>
<path d="M20.7993 20.3561L26.3093 14.8461L14.3393 7.90609C13.9093 7.64609 13.3993 7.49609 12.8493 7.49609C11.5193 7.49609 10.3993 8.40609 10.0693 9.62609L20.7993 20.3461V20.3561Z" fill="#34A853"/>
<path d="M42.0161 25.5897C42.4721 25.5777 42.8561 25.5537 43.0961 25.5297C43.8641 25.4457 46.1321 25.2297 48.3401 25.0377C49.6601 24.9297 50.7761 24.8577 51.5801 24.8337L51.5921 25.7937C50.8961 25.7817 49.8521 25.8057 49.2401 25.9737C47.5241 26.5257 46.4801 28.3617 46.4801 29.7777C46.4801 32.1177 48.6761 32.8737 50.6201 32.9457L50.2721 33.9297C48.0521 33.8457 45.5321 32.6697 45.5321 29.9817C45.5321 28.1217 46.6721 26.5857 47.7641 25.9377C46.4801 26.0697 43.4201 26.3697 42.1241 26.6457L42.0161 25.5897ZM49.8521 27.2577C50.1281 27.6537 50.5841 28.3977 50.8481 28.9377L50.2241 29.2137C49.9481 28.6377 49.6121 28.0257 49.2521 27.5217L49.8521 27.2577ZM51.1601 26.7537C51.4601 27.1497 51.9281 27.8817 52.2041 28.4097L51.5921 28.7097C51.3041 28.1337 50.9441 27.5337 50.5721 27.0297L51.1601 26.7537ZM62.6441 23.4297L63.3161 24.1617C61.1441 24.7977 57.5921 25.1217 54.6761 25.2417C54.6521 25.0137 54.5441 24.6537 54.4601 24.4497C57.3161 24.3177 60.8201 23.9937 62.6441 23.4297ZM54.4721 26.8137H63.8321V27.6777H54.4721V26.8137ZM53.6681 29.6337H64.5041V30.5097H53.6681V29.6337ZM58.6241 24.7017H59.5601V33.1977C59.5601 33.8337 59.3681 34.1097 58.9121 34.2537C58.4561 34.3977 57.6761 34.4217 56.4041 34.4097C56.3441 34.1577 56.1761 33.7497 56.0321 33.5097C57.0281 33.5457 57.9881 33.5337 58.2521 33.5217C58.5281 33.5217 58.6241 33.4377 58.6241 33.1857V24.7017ZM70.5401 25.3857C71.8481 25.6137 74.2841 25.5657 75.4721 25.3857V26.3577C74.1881 26.5017 71.8601 26.5017 70.5521 26.3577L70.5401 25.3857ZM71.0081 30.2817C70.9001 30.7137 70.8401 31.0497 70.8401 31.3737C70.8401 31.9257 71.2241 32.4657 72.8681 32.4657C73.9361 32.4657 74.8721 32.3697 75.8321 32.1417L75.8561 33.1497C75.1121 33.3057 74.1041 33.4017 72.8561 33.4017C70.8521 33.4017 69.9521 32.7297 69.9521 31.6017C69.9521 31.2057 70.0121 30.7737 70.1441 30.1977L71.0081 30.2817ZM68.2601 24.4617C68.1881 24.6657 68.0921 25.0497 68.0441 25.2657C67.8161 26.3817 67.4441 28.5177 67.4441 29.8737C67.4441 30.4497 67.4801 30.9537 67.5521 31.5417C67.7561 31.0017 68.0321 30.2817 68.2361 29.7897L68.7401 30.1857C68.4401 31.0377 67.9961 32.2977 67.8881 32.8737C67.8521 33.0417 67.8281 33.2697 67.8281 33.4137C67.8401 33.5337 67.8521 33.7017 67.8641 33.8337L67.0121 33.8937C66.7721 33.0417 66.5681 31.6617 66.5681 30.0297C66.5681 28.2657 66.9641 26.2137 67.1081 25.2177C67.1441 24.9417 67.1801 24.6417 67.1921 24.3777L68.2601 24.4617ZM79.8041 24.1377H83.2001V25.0497H79.8041V24.1377ZM82.7441 24.1377H83.6681C83.6681 26.2857 83.9321 30.8457 88.6721 33.6537C88.4681 33.8097 88.1081 34.1937 87.9401 34.4097C83.1401 31.5057 82.7441 26.3937 82.7441 24.1377ZM82.4081 26.4897L83.4281 26.6817C82.5641 30.3417 80.9801 32.8737 78.3281 34.4337C78.1601 34.2417 77.7521 33.8697 77.5121 33.7017C80.1761 32.3097 81.6761 29.8857 82.4081 26.4897ZM100.768 32.5737C100.12 33.2217 99.3761 33.5817 98.5601 33.5817C97.7561 33.5817 97.2281 33.0537 97.2281 32.0697C97.2281 30.7257 97.6721 28.7577 97.6721 27.5937C97.6721 26.8977 97.3241 26.5977 96.7121 26.5977C95.5841 26.5977 93.8441 28.0857 92.7161 29.4537L92.7281 28.2657C93.4721 27.4497 95.4641 25.7217 96.9401 25.7217C98.0681 25.7217 98.6201 26.3577 98.6201 27.3297C98.6201 28.5297 98.1641 30.5937 98.1641 31.8057C98.1641 32.2137 98.3681 32.5377 98.8001 32.5377C99.3641 32.5377 100 32.1897 100.612 31.5537L100.768 32.5737ZM92.7041 26.8377C92.3081 26.8977 91.0121 27.0537 90.1241 27.1977L90.0161 26.2017C90.2801 26.2137 90.5081 26.2137 90.8081 26.1897C91.4441 26.1537 92.9441 25.9737 93.4961 25.7937L93.8441 26.2017C93.6401 26.5137 93.3161 27.0297 93.1121 27.3657L92.7521 29.0097C92.2001 29.8617 91.0841 31.4817 90.3281 32.5257L89.7281 31.7097C90.4721 30.7737 92.0921 28.5777 92.5601 27.7857L92.6081 27.1617L92.7041 26.8377ZM92.5841 24.8577C92.5841 24.5817 92.5961 24.2697 92.5361 23.9697L93.6641 24.0057C93.4961 24.7857 93.1361 28.2177 93.1361 30.3297C93.1361 31.4217 93.1361 32.1537 93.1841 33.2217C93.1961 33.4257 93.2321 33.7257 93.2441 33.9537H92.2121C92.2361 33.7257 92.2481 33.4377 92.2481 33.2457C92.2481 32.0817 92.2601 31.4817 92.2721 30.1617C92.2961 29.1057 92.5841 25.3017 92.5841 24.8577ZM107.572 24.0657C107.524 24.3297 107.488 24.9057 107.476 25.2657C107.476 25.8057 107.476 26.6337 107.476 27.4617C107.476 28.7697 107.668 31.1697 107.668 32.2257C107.668 33.1977 107.068 34.0377 105.472 34.0377C103.804 34.0377 102.592 33.5217 102.592 32.1537C102.592 31.0617 103.528 30.1857 105.604 30.1857C107.98 30.1857 110.116 31.3857 111.34 32.5017L110.764 33.4017C109.564 32.2017 107.596 31.0257 105.496 31.0257C104.248 31.0257 103.54 31.4457 103.54 32.1177C103.54 32.7777 104.212 33.1497 105.376 33.1497C106.252 33.1497 106.684 32.7297 106.684 31.9017C106.684 31.0137 106.54 28.6857 106.54 27.4617C106.54 26.7657 106.528 25.7817 106.528 25.2657C106.516 24.8217 106.48 24.2937 106.432 24.0657H107.572ZM106.948 26.4897C107.776 26.4897 109.732 26.4297 111.028 26.2737L111.064 27.1737C109.768 27.2937 107.812 27.3777 106.948 27.3777V26.4897ZM121.708 29.5017C121.708 28.4817 120.892 27.7737 119.656 27.7737C118.276 27.7737 117.088 28.1697 116.392 28.3737C116.02 28.4817 115.66 28.6137 115.372 28.7337L115.072 27.6297C115.408 27.6057 115.804 27.5217 116.176 27.4497C117.016 27.2577 118.372 26.8737 119.764 26.8737C121.468 26.8737 122.728 27.8217 122.728 29.5377C122.728 32.1417 120.4 33.5937 117.292 34.0737L116.74 33.1617C119.656 32.7897 121.708 31.6497 121.708 29.5017ZM116.668 24.0897C118 24.3897 120.604 24.6417 121.768 24.6537L121.624 25.5777C120.292 25.4817 117.88 25.2417 116.524 25.0017L116.668 24.0897Z" fill="white"/>
</g>
<defs>
<clipPath id="clip0_1499_2388">
<rect width="135" height="41" fill="white"/>
</clipPath>
</defs>
</svg>
