<svg width="200" height="62" viewBox="0 0 200 62" fill="none" xmlns="http://www.w3.org/2000/svg">
<path fill-rule="evenodd" clip-rule="evenodd" d="M186.779 39.9211C186.947 39.1338 187.004 38.3505 187.004 37.6285V32.317C187.84 31.7785 188.493 31.0727 188.946 30.3507C189.766 29.0411 190.027 27.6215 190.027 26.5567C190.027 25.5654 189.802 23.8561 188.501 22.4079L188.468 22.3671C188.395 22.2855 188.313 22.1998 188.224 22.1183C188.375 21.7633 188.505 21.4288 188.607 21.1025C188.917 20.1275 188.962 19.3972 188.962 18.8628C188.962 17.5248 188.583 16.1785 187.706 15.024C186.861 13.9185 185.8 13.3106 184.952 12.9761C183.495 12.405 182.023 12.4132 181.627 12.4172C181.607 12.4172 181.586 12.4172 181.57 12.4172H174.068C173.75 12.0786 173.419 11.7972 173.109 11.5769C171.963 10.7691 170.543 10.3122 169.111 10.3122C166.407 10.3122 164.856 11.8502 164.273 12.4295C164.265 12.4336 164.261 12.4417 164.257 12.4458L164.2 12.4988L164.146 12.5559C163.836 12.8864 163.539 13.1923 163.249 13.4779C162.764 13.1883 162.311 12.9721 162.005 12.8211C161.984 12.813 161.968 12.8048 161.948 12.7926C161.425 12.5233 160.626 12.1358 159.781 11.7972C159.104 11.5279 157.689 10.9853 156.236 10.9853C153.634 10.9853 151.912 12.4825 151.035 13.8165C150.415 14.7629 150.072 15.8277 149.962 16.8068C148.832 15.9909 147.461 15.5992 146.058 15.5707C145.711 14.7385 145.193 13.9226 144.434 13.2005C142.533 11.3933 140.11 11.124 138.425 11.124H133.326C131.555 11.124 129.61 11.5769 128.019 12.9557C127.831 13.1189 127.655 13.2862 127.492 13.4616C126.982 12.5641 126.195 11.7033 125.077 11.1036C123.98 10.5162 122.809 10.3041 121.716 10.3041C120.622 10.3041 119.386 10.5407 118.281 11.1771C117.159 11.8216 116.408 12.7191 115.939 13.5962C115.286 14.8241 115.18 16.0602 115.164 16.6354C114.63 16.7986 114.054 17.0515 113.487 17.435C112.517 18.0918 111.847 18.9444 111.419 19.8786C111.362 19.8337 111.305 19.7807 111.248 19.7358C109.946 18.7772 108.421 18.3896 107.074 18.3896C104.61 18.3896 102.95 19.7644 102.436 20.1887C102.399 20.2172 102.367 20.2458 102.342 20.2621L102.302 20.2947C100.001 22.1754 97.6101 23.5787 89.8509 27.9805C89.3165 24.9821 87.7296 22.7343 85.6572 21.2493C85.9387 20.7883 86.11 20.36 86.2202 20.0581C86.4609 19.3687 86.5914 18.6303 86.5914 17.9817C86.5914 17.231 86.5057 16.1581 85.9958 15.0567C85.4165 13.8083 84.4701 12.9109 83.389 12.3642C82.4548 11.891 81.5328 11.736 80.9536 11.6625C80.3457 11.5891 79.693 11.5605 79.1627 11.5402H79.1137C77.1719 11.4871 73.5452 11.226 71.4035 10.7854H71.379L71.3545 10.7732C71.2933 10.761 71.224 10.7487 71.1506 10.7324C70.8405 10.6712 70.4489 10.5937 70.0899 10.5325C70.0777 10.5325 70.0613 10.5284 70.045 10.5244C69.7513 10.4713 68.9966 10.3367 68.3806 10.3367C67.1853 10.3367 65.9737 10.6549 64.913 11.3933C63.885 12.1072 63.2731 13.021 62.9222 13.7757C62.4531 14.7833 62.3389 15.7502 62.3103 16.2683C62.0533 16.509 61.8085 16.7782 61.5801 17.0883C61.0008 17.8756 60.6989 18.7282 60.5317 19.3809C59.3772 18.6956 58.1084 18.3855 56.9662 18.3855C54.5267 18.3855 52.8785 19.7603 52.3727 20.1846C52.336 20.2131 52.3074 20.2417 52.2829 20.258L52.2421 20.2906C49.9658 22.1672 47.6038 23.5665 39.9507 27.9519C39.4162 24.9494 37.8293 22.6975 35.757 21.2126C36.0384 20.7516 36.2139 20.3233 36.3199 20.0214C36.5606 19.332 36.6912 18.5936 36.6912 17.9449C36.6912 17.1943 36.6055 16.1214 36.0955 15.02C35.5163 13.7716 34.5698 12.8741 33.4888 12.3275C32.5546 11.8543 31.6326 11.6993 31.0533 11.6258C30.4455 11.5524 29.7927 11.5238 29.2624 11.5034H29.2135C27.2716 11.4504 23.645 11.1852 21.5032 10.7487H21.4788L21.4543 10.7365C21.3931 10.7243 21.3237 10.712 21.2503 10.6957C20.9403 10.6345 20.5486 10.557 20.1896 10.4958C20.1774 10.4958 20.1611 10.4917 20.1448 10.4876C19.851 10.4346 19.0963 10.3 18.4803 10.3C17.2728 10.3122 16.0612 10.6345 15.0005 11.3729C13.9725 12.0868 13.3606 13.0006 13.0097 13.7553C12.5406 14.7629 12.4264 15.7298 12.3978 16.2479C12.1408 16.4886 11.896 16.7578 11.6676 17.0679C10.6967 18.3855 10.4927 19.8909 10.4356 20.3314C10.4356 20.3559 10.4274 20.3804 10.4274 20.3967V20.4375L10.4152 20.4783C10.2235 22.0163 9.97461 26.7118 9.97461 28.3599C9.97461 29.5511 10.1704 31.3542 11.4024 32.9166C11.586 33.1533 11.7818 33.3654 11.9858 33.5571C11.4881 34.7647 11.4922 35.8416 11.4922 36.066V36.0864C11.4922 36.4862 11.5248 37.453 11.9654 38.5463C12.4427 39.7375 13.4666 41.1817 15.3514 41.916C16.5507 42.3892 18.2356 42.6217 19.4227 42.7482C20.822 42.8991 22.3966 42.993 23.7306 42.993C26.2966 42.993 30.1313 42.7604 33.4602 41.1368C34.4556 40.6513 35.4388 39.9986 36.3444 39.1868C37.4459 40.7329 38.9308 41.5284 39.4774 41.8099C39.9588 42.0629 40.9665 42.5279 41.7579 42.891C41.7987 42.9073 41.8354 42.9277 41.8762 42.944L42.0475 43.0215C42.4677 43.2133 42.8675 43.4009 43.2142 43.56C43.4101 43.6498 43.5773 43.7273 43.7079 43.7926C43.7731 43.8252 43.8302 43.8497 43.871 43.8701C43.8914 43.8823 43.9078 43.8864 43.92 43.8945C43.9322 43.8986 43.9363 43.9027 43.9363 43.9027L44.0016 43.9353C48.7991 46.3218 51.0509 47.9536 53.6006 49.7976C53.6536 49.8383 53.7108 49.8751 53.7638 49.9159H53.772L53.7801 49.9281C53.8005 49.9444 53.825 49.9607 53.8495 49.9811C54.543 50.4788 56.1299 51.6252 58.4226 51.6252C60.5317 51.6252 62.1838 50.6135 63.216 49.4875C64.1828 48.4309 64.9579 46.897 64.9579 45.1469C64.9579 44.5799 64.9008 43.7232 64.5092 42.7645C64.1216 41.8181 63.5423 41.1042 62.9916 40.5657C62.0452 39.6437 60.6744 38.7829 59.1569 37.8773C56.9743 36.5719 55.1263 35.5724 53.3966 34.7035C55.5832 33.4878 57.7739 32.166 59.8749 30.6648L59.9075 30.6403C59.9728 30.5954 60.0462 30.5383 60.1115 30.4894C60.3114 31.2971 60.6704 32.1538 61.2945 32.9452C61.4822 33.1818 61.6739 33.3939 61.8779 33.5857C61.3802 34.7932 61.3843 35.8702 61.3843 36.0946V36.115C61.3843 36.5148 61.4169 37.4816 61.8575 38.5749C62.3348 39.7661 63.3587 41.2102 65.2435 41.9445C66.4428 42.4178 68.1277 42.6503 69.3148 42.7768C70.7141 42.9277 72.2887 43.0215 73.6227 43.0215C76.1887 43.0215 80.0234 42.789 83.3523 41.1654C84.3558 40.6758 85.3472 40.019 86.261 39.195C87.3706 40.7329 88.8637 41.5244 89.4144 41.8058C89.8999 42.0588 90.9157 42.5238 91.7152 42.8869C91.756 42.9032 91.7968 42.9236 91.8335 42.9399L92.0049 43.0175C92.4291 43.2092 92.833 43.3968 93.1798 43.5559C93.3756 43.6457 93.5428 43.7232 93.6775 43.7885C93.7427 43.8211 93.7999 43.8456 93.8406 43.866C93.861 43.8741 93.8774 43.8823 93.8896 43.8905L93.9712 43.9313C98.8135 46.3178 101.086 47.9495 103.66 49.7935C103.713 49.8343 103.77 49.871 103.823 49.9118L103.839 49.9281C103.864 49.9444 103.884 49.9607 103.909 49.9771C104.606 50.4748 106.21 51.6211 108.527 51.6211C110.546 51.6211 112.145 50.7114 113.194 49.6548C113.704 50.1362 114.271 50.5155 114.854 50.7889C115.845 51.2458 116.804 51.3845 117.445 51.4416C118.052 51.4946 118.668 51.4946 119.072 51.4946H119.138C119.962 51.4946 120.949 51.4946 121.854 51.3845C122.466 51.311 123.266 51.1723 124.106 50.8256C124.975 51.2988 126.011 51.6007 127.203 51.6007C128.178 51.6007 129.198 51.3722 129.952 51.1723C130.813 50.9439 131.772 50.6298 132.767 50.2585C133.979 49.8016 135.313 49.2264 136.647 48.5533C137.985 49.2958 139.262 49.8995 140.408 50.3646C141.318 50.7318 142.187 51.0296 142.966 51.2417C143.663 51.4293 144.581 51.6333 145.495 51.6333C147.784 51.6333 149.485 50.5604 150.566 49.2876C151.667 50.6665 153.401 51.6333 155.592 51.6333C157.183 51.6333 159.137 51.1397 160.324 50.8133C161.589 50.4666 162.731 50.0872 163.208 49.9118C164.983 49.3203 166.594 48.7206 167.741 47.9251C168.287 47.5457 168.895 47.0153 169.389 46.2647C169.825 46.946 170.364 47.4559 170.878 47.8353C171.951 48.6267 173.382 49.1489 174.496 49.5528H174.508L174.521 49.5609C175.704 49.9811 177.193 50.4666 178.629 50.8501C179.93 51.1968 181.664 51.5966 183.124 51.5966C185.67 51.5966 187.612 50.3238 188.668 48.5655C189.521 47.1459 189.619 45.7344 189.619 45.1184C189.619 44.5024 189.558 43.1643 188.676 41.7854C188.166 40.9899 187.506 40.3739 186.755 39.917L186.779 39.9211ZM103.476 34.7035C105.683 33.4878 107.894 32.166 110.016 30.6648L110.048 30.6403C110.738 30.1426 111.656 29.4613 112.362 28.6087C112.561 28.368 112.729 28.111 112.884 27.8581C113.165 28.1069 113.463 28.3395 113.806 28.5394C113.895 28.5924 113.989 28.6454 114.079 28.6903C113.594 28.9392 112.957 29.3389 112.378 29.9305C111.203 31.138 110.644 32.7004 110.644 34.3526C110.644 35.1155 110.783 36.4944 111.505 37.8651C111.868 38.5545 112.41 39.2643 113.133 39.8559C113.002 39.9782 112.92 40.1251 112.806 40.2556C111.876 39.4479 110.648 38.6769 109.29 37.8732C107.087 36.5678 105.222 35.5683 103.476 34.6994V34.7035ZM148.273 38.5953C149.411 36.8574 150.419 34.6667 150.419 32.2395C150.419 31.7785 150.37 31.3379 150.297 30.9136C150.692 31.3624 151.186 31.8152 151.802 32.1823L151.818 37.9752C151.806 38.3138 151.822 39.2154 151.928 39.6682C151.586 39.8681 151.259 40.1741 150.949 40.533C150.913 40.4882 150.888 40.4351 150.847 40.3903C150.701 40.2148 150.329 39.7824 149.746 39.3745C149.199 38.9869 148.653 38.7544 148.273 38.6034V38.5953Z" fill="white"/>
<path d="M182.133 30.8443C182.133 29.9835 182.064 29.1554 181.647 28.47C182.443 28.6781 182.79 28.7801 183.345 28.7801C184.727 28.7801 185.18 27.3685 185.18 26.5404C185.18 26.1284 185.078 25.6796 184.801 25.3696C184.454 24.9902 184.107 24.9209 181.235 24.2681C179.608 23.9255 177.185 22.7873 175.7 20.8618C175.251 20.2417 175.214 20.1723 174.729 19.8623H179.122C179.294 19.8623 179.677 19.8949 179.677 20.1723C179.677 20.311 179.608 20.413 179.367 20.7231C178.812 21.4451 178.78 21.6532 178.78 21.9265C178.78 23.1667 180.685 23.4074 181.064 23.4074C181.998 23.4074 182.378 22.824 183.039 21.6532C184.079 19.7929 184.111 19.1729 184.111 18.7608C184.111 16.7986 181.998 16.7986 181.24 16.7986H170.51C170.58 16.6273 170.682 16.4559 170.682 16.1785C170.682 15.3178 169.646 14.665 168.675 14.665C167.879 14.665 167.463 15.0444 167.014 15.4932C166.043 16.5253 165.007 17.5574 163.726 18.4549C161.858 19.7644 161.719 19.8664 161.719 20.6578C161.719 21.7593 162.653 22.5874 163.518 22.5874C164.522 22.5874 166.635 20.8332 167.708 19.8664H171.065C170.649 20.2091 170.617 20.2784 170.098 21.0372C169.164 22.4813 167.088 23.3788 165.289 23.8928C163.314 24.4436 162.935 24.5455 162.935 25.6837C162.935 25.9244 162.935 26.5119 163.453 27.1279H159.577C159.023 27.1279 158.435 27.1605 157.88 27.2992C158.574 27.0218 159.818 26.5404 160.65 26.1651C161.723 25.647 162.417 25.235 162.417 24.2722C162.417 23.7541 162.139 22.31 160.789 22.31C160.34 22.31 160.202 22.3793 158.195 23.1014C157.57 23.3421 156.567 23.6848 154.804 24.1702C153.075 24.6516 152.52 24.823 152.52 26.1325C152.52 27.2339 153.177 28.4741 154.18 28.4741C154.874 28.4741 156.016 28.0253 157.33 27.5113C156.016 28.2701 155.808 29.5429 155.808 30.8524V37.7386C155.808 40.7003 157.191 41.4917 159.582 41.4917H162.523C162.352 41.5244 162.245 41.5611 161.899 41.6998C159.614 42.5279 158.403 42.9726 156.465 43.3193C153.87 43.8007 153.144 43.9394 153.144 45.3183C153.144 45.8364 153.385 47.3499 155.082 47.3499C156.881 47.3499 160.687 46.0771 161.242 45.869C165.048 44.5962 165.325 44.1475 165.325 43.2867C165.325 42.7686 165.015 41.9078 164.285 41.4958H173.733C173.04 41.8385 172.66 42.4586 172.66 43.25C172.66 44.2495 173.146 44.5921 175.708 45.5223C177.923 46.3137 181.211 47.3131 182.839 47.3131C184.638 47.3131 184.813 45.7303 184.813 45.3183C184.813 44.8002 184.674 43.9068 183.324 43.6661C180.868 43.2173 180.415 43.148 178.237 42.4626C177.858 42.3239 175.883 41.6345 175.467 41.4999H178.408C180.795 41.4999 182.145 40.7085 182.145 37.7468V30.8606L182.133 30.8443ZM160.157 31.085V30.5669C160.157 30.0488 160.397 29.7387 160.989 29.7387H176.911C177.466 29.7387 177.743 30.0161 177.743 30.5669V31.085H160.157ZM177.739 33.4592V34.8381H160.157V33.4592H177.739ZM166.908 27.1238C170.506 25.7123 172.032 24.0601 173.068 22.5792C174.243 24.3008 175.977 25.9203 178.327 27.1238H166.904H166.908ZM177.739 37.245V37.8651C177.739 38.4484 177.429 38.6932 176.907 38.6932H160.985C160.397 38.6932 160.153 38.3832 160.153 37.8651V37.245H177.739ZM153.895 17.3453C153.895 18.308 154.343 18.5854 154.552 18.6874C154.898 18.8955 156.697 19.6502 157.077 19.8582C158.774 20.719 158.945 20.7883 159.5 20.7883C160.365 20.7883 161.336 19.9276 161.336 18.6181C161.336 17.6879 160.818 17.3779 159.398 16.6885C158.464 16.2071 156.665 15.3463 155.694 15.3463C154.343 15.3463 153.895 16.7904 153.895 17.3412V17.3453Z" fill="#EB4767"/>
<path d="M139.759 33.2145C140.102 33.2145 140.689 33.2145 140.689 33.7652C140.689 33.8672 140.171 35.6173 136.867 38.2281C135.798 37.3714 135.423 37.0288 133.391 34.4546C132.808 33.6999 132.359 33.3205 131.6 33.3205C130.638 33.3205 129.397 34.0426 129.397 35.2746C129.397 35.6866 129.499 35.9967 129.981 36.7146C131.082 38.2608 132.151 39.4601 133.183 40.4555C131.221 41.4183 129.638 42.0017 126.986 42.7197C126.158 42.9236 125.126 43.2704 125.126 44.6411C125.126 45.6365 125.746 47.1133 127.227 47.1133C128.708 47.1133 133.151 45.5671 136.765 43.3397C140.657 45.9139 144.304 47.15 145.511 47.15C147.2 47.15 147.784 45.4325 147.784 44.5065C147.784 44.0251 147.645 43.6498 147.372 43.3397C147.029 42.9277 146.96 42.8951 143.239 41.6916C142.276 41.3816 141.416 41.0063 140.518 40.5575C143.684 37.6733 145.854 34.6912 145.854 32.2191C145.854 30.881 145.063 29.9549 144.202 29.5429C143.79 29.3716 143.272 29.2329 142.032 29.2329H129.397C128.879 29.2329 127.505 29.2329 127.505 31.2237C127.505 33.2145 128.883 33.2145 129.397 33.2145H139.759ZM123.784 34.4832C126.538 33.3491 126.986 33.0431 126.986 31.6683C126.986 30.469 126.403 29.6082 125.367 29.6082C124.988 29.6082 124.608 29.7102 123.784 30.0202V24.8719H125.126C125.954 24.8719 127.158 24.7006 127.158 22.8118C127.158 20.821 125.677 20.7883 125.126 20.7883H123.784V16.8761C123.784 16.3254 123.784 14.7466 121.72 14.7466C119.656 14.7466 119.725 16.3947 119.725 16.8761V20.7883H117.383C116.592 20.7883 115.352 20.9597 115.352 22.8485C115.352 24.8393 116.796 24.8719 117.383 24.8719H119.725V31.5623C119.207 31.7336 116.661 32.4883 116.559 32.525C115.976 32.7657 115.217 33.1084 115.217 34.3445C115.217 34.9605 115.495 36.7106 117.11 36.7106C117.559 36.7106 118.142 36.5719 119.725 36.0252V41.5856C119.725 42.6136 119.346 42.6136 118.175 42.6136C117.004 42.6136 115.801 42.7849 115.801 44.7064C115.801 47.0072 117.383 47.0072 119.174 47.0072C122.617 47.0072 123.788 46.8685 123.788 43.1643V34.4832H123.784ZM142.17 19.2789C142.17 16.5334 141.032 15.5707 138.417 15.5707H133.322C131.29 15.5707 130.258 16.5987 130.087 18.2468C129.809 20.923 129.638 22.6037 128.227 24.1825C127.195 25.3818 126.954 25.6592 126.954 26.3446C126.954 27.5807 128.125 28.6454 129.295 28.6454C130.984 28.6454 133.428 25.6592 133.873 21.7837C134.113 19.8949 134.113 19.6542 134.905 19.6542H137.14C137.899 19.6542 138.103 19.9969 138.103 20.617V23.7378C138.103 27.034 138.996 27.5807 141.926 27.5807C145.267 27.5807 146.401 27.5807 147.09 26.3813C147.674 25.4186 147.882 23.0525 147.882 21.9184C147.882 21.437 147.882 20.0296 145.883 20.0296C144.438 20.0296 144.402 20.8169 144.369 22.159C144.337 23.7052 144.198 23.8398 143.268 23.8398C142.44 23.8398 142.166 23.7011 142.166 22.7424V19.2749L142.17 19.2789Z" fill="#F58B00"/>
<path d="M89.6755 35.0665C89.6755 36.7065 90.8708 37.4163 91.6581 37.8243C92.2578 38.1506 95.4072 39.5744 96.0884 39.9293C101.306 42.5524 103.782 44.38 106.471 46.3504C107.152 46.844 107.695 47.1989 108.453 47.1989C109.624 47.1989 110.436 46.0771 110.436 45.2326C110.436 44.2495 110.028 43.7314 106.85 41.8181C102.285 39.0604 99.3194 37.7468 95.4357 36.0007C94.4852 35.5928 94.2119 35.3439 94.2119 34.936C94.2119 34.528 94.5097 34.2547 95.6519 33.6795C99.6458 31.6316 103.615 29.5552 107.258 26.932C108.674 25.8959 109.078 25.4308 109.078 24.6394C109.078 23.4359 107.964 22.8362 106.985 22.8362C106.222 22.8362 105.732 23.2442 105.165 23.7093C102.473 25.9489 99.6743 27.5888 91.7397 32.1783C90.9238 32.6433 89.6755 33.3817 89.6755 35.0747V35.0665Z" fill="#E4BB01"/>
<path d="M82.1203 17.998C82.1203 16.3091 81.2432 16.1989 79.024 16.1173C76.9679 16.0643 72.9945 15.791 70.4448 15.2729C69.7309 15.1383 68.6376 14.918 68.3072 14.918C66.7447 14.918 66.7447 16.5008 66.7447 16.664C66.7447 17.8919 67.5402 18.1652 70.0042 18.5446C76.1153 19.4462 79.5135 19.5523 80.1703 19.5523C80.7741 19.5523 81.129 19.5237 81.541 19.2259C82.0061 18.8995 82.1162 18.1897 82.1162 17.998H82.1203ZM67.8992 26.2059C67.9278 24.7046 68.0379 23.8887 68.1725 22.6894C68.2011 22.3875 68.3643 20.9148 68.3643 20.7802C68.3643 19.9072 67.8992 19.2789 66.4999 19.2789C65.1007 19.2789 64.8559 20.1234 64.7172 21.078C64.554 22.3875 64.3052 26.8872 64.3052 28.3884C64.3052 29.8897 64.8804 30.6811 66.1695 30.6811C67.1567 30.6811 67.5402 30.3262 68.3072 29.5633C68.8824 29.0167 71.7339 26.5363 76.6905 26.5363C77.0454 26.5363 79.2932 26.5363 80.5252 27.544C81.4023 28.2783 81.8143 29.1798 81.8143 30.1875C81.8143 31.7132 81.2922 33.1043 79.4849 34.0059C77.486 35.0135 74.8547 35.1236 73.4555 35.1236C71.893 35.1236 70.1144 34.9319 68.5519 34.6341C67.7319 34.4709 67.5647 34.4709 67.4301 34.4709C65.8391 34.4709 65.8391 35.9151 65.8391 36.1068C65.8391 36.3516 65.8921 37.3347 66.8263 37.6896C67.9237 38.1262 71.2933 38.4525 73.6227 38.4525C78.5018 38.4525 85.6246 37.4694 85.6246 30.216C85.6246 24.517 80.362 23.3707 77.2412 23.3707C74.7487 23.3707 71.02 23.9989 67.8951 26.2059H67.8992Z" fill="#3BB061"/>
<path d="M39.6325 35.0665C39.6325 36.7065 40.8277 37.4163 41.6151 37.8243C42.2148 38.1506 45.3641 39.5744 46.0454 39.9293C51.2631 42.5524 53.7393 44.38 56.4277 46.3504C57.109 46.844 57.6515 47.1989 58.4103 47.1989C59.5771 47.1989 60.393 46.0771 60.393 45.2326C60.393 44.2495 59.985 43.7314 56.8071 41.8181C52.2421 39.0604 49.2764 37.7468 45.3927 36.0007C44.4422 35.5928 44.1688 35.3439 44.1688 34.936C44.1688 34.528 44.4666 34.2547 45.6089 33.6795C49.6027 31.6316 53.5721 29.5552 57.215 26.932C58.6265 25.8959 59.0345 25.4308 59.0345 24.6394C59.0345 23.4359 57.9208 22.8362 56.9417 22.8362C56.1788 22.8362 55.6934 23.2442 55.1223 23.7093C52.4298 25.9489 49.6313 27.5888 41.6967 32.1783C40.8808 32.6433 39.6325 33.3817 39.6325 35.0747V35.0665Z" fill="#389F92"/>
<path d="M32.216 17.9653C32.216 16.2764 31.3389 16.1663 29.1196 16.0847C27.0636 16.0317 23.0902 15.7583 20.5405 15.2402C19.8266 15.1056 18.7333 14.8853 18.4028 14.8853C16.8404 14.8853 16.8404 16.4682 16.8404 16.6313C16.8404 17.8593 17.6359 18.1326 20.0999 18.512C26.211 19.4136 29.6092 19.5196 30.266 19.5196C30.8697 19.5196 31.2246 19.4911 31.6367 19.1933C32.1017 18.8669 32.2119 18.1571 32.2119 17.9653H32.216ZM17.9949 26.1733C18.0234 24.672 18.1336 23.8561 18.2682 22.6567C18.2968 22.3549 18.4599 20.8822 18.4599 20.7475C18.4599 19.8745 17.9949 19.2463 16.5956 19.2463C15.1963 19.2463 14.9516 20.0908 14.8129 21.0453C14.6497 22.3549 14.4009 26.8545 14.4009 28.3558C14.4009 29.857 14.9761 30.6485 16.2652 30.6485C17.2524 30.6485 17.6359 30.2935 18.4028 29.5307C18.978 28.984 21.8296 26.5037 26.7862 26.5037C27.1411 26.5037 29.3889 26.5037 30.6209 27.5113C31.498 28.2456 31.91 29.1472 31.91 30.1548C31.91 31.6806 31.3878 33.0717 29.5806 33.9732C27.5817 34.9809 24.9504 35.091 23.5511 35.091C21.9887 35.091 20.206 34.8993 18.6476 34.6015C17.8235 34.4383 17.6604 34.4383 17.5257 34.4383C15.9347 34.4383 15.9347 35.8824 15.9347 36.0742C15.9347 36.3189 15.9878 37.3021 16.922 37.657C18.0194 38.0935 21.389 38.4199 23.7184 38.4199C28.5975 38.4199 35.7202 37.4367 35.7202 30.1834C35.7202 24.4844 30.4577 23.338 27.3369 23.338C24.8443 23.338 21.1157 23.9663 17.9908 26.1733H17.9949Z" fill="#1D8BED"/>
</svg>
