<svg width="231" height="90" viewBox="0 0 231 90" fill="none" xmlns="http://www.w3.org/2000/svg">
<g clip-path="url(#clip0_1478_4302)">
<path d="M214.45 81.4572C213.311 83.6246 211.787 85.3585 209.878 86.659C208.025 87.9594 206.021 88.6097 203.869 88.6097C201.661 88.6097 199.855 87.9594 198.452 86.659C197.049 85.3585 196.282 83.6246 196.151 81.4572L195.234 64.8766L187.54 81.4572C186.577 83.5704 185.109 85.3044 183.134 86.659C181.225 87.9594 179.167 88.6097 176.959 88.6097C174.861 88.6097 173.111 87.9594 171.708 86.659C170.305 85.3585 169.455 83.6246 169.159 81.4572L165.982 55.2046C165.908 54.446 165.847 53.7687 165.797 53.1726C165.747 52.5766 165.77 52.0348 165.865 51.5471C166.223 49.7048 167.191 48.1334 168.768 46.833C170.346 45.5325 172.073 44.8823 173.95 44.8823C175.55 44.8823 176.863 45.37 177.888 46.3453C178.968 47.3206 179.526 48.5669 179.562 50.0841L180.441 74.955L190.503 51.3033C191.335 49.2984 192.551 47.727 194.152 46.5892C195.808 45.4513 197.603 44.8823 199.534 44.8823C201.466 44.8823 203.012 45.4513 204.171 46.5892C205.385 47.727 206.012 49.3255 206.054 51.3845L207 74.6299L217.697 49.8403C218.302 48.4314 219.246 47.2665 220.529 46.3453C221.878 45.37 223.325 44.8823 224.871 44.8823C226.582 44.8823 227.929 45.4784 228.912 46.6704C229.894 47.8625 230.222 49.2984 229.896 50.9781C229.791 51.52 229.554 52.1702 229.186 52.9288C228.883 53.6332 228.52 54.3647 228.097 55.1233L214.45 81.4572Z" fill="black"/>
<path d="M134.585 89.0074C130.335 89.0074 126.683 88.0592 123.629 86.1627C120.575 84.2662 118.381 81.6382 117.047 78.2788C115.713 74.9193 115.467 71.0721 116.31 66.7373C117.152 62.4025 118.894 58.5554 121.534 55.1959C124.174 51.8365 127.39 49.2085 131.181 47.312C134.972 45.4155 138.992 44.4673 143.243 44.4673C147.493 44.4673 151.145 45.4155 154.199 47.312C157.253 49.2085 159.446 51.8365 160.781 55.1959C162.115 58.5554 162.361 62.4025 161.518 66.7373C160.675 71.0721 158.934 74.9193 156.294 78.2788C153.654 81.6382 150.438 84.2662 146.647 86.1627C142.856 88.0592 138.835 89.0074 134.585 89.0074ZM146.945 66.7373C147.504 63.8655 147.211 61.5356 146.068 59.7475C144.991 57.9052 143.239 56.984 140.81 56.984C138.436 56.984 136.325 57.9052 134.477 59.7475C132.639 61.5356 131.441 63.8655 130.882 66.7373C130.324 69.6091 130.611 71.9662 131.743 73.8085C132.886 75.5966 134.644 76.4906 137.018 76.4906C139.447 76.4906 141.553 75.5966 143.335 73.8085C145.184 71.9662 146.387 69.6091 146.945 66.7373Z" fill="black"/>
<path d="M86.89 51.3005C87.2271 49.5666 88.1463 48.1036 89.6476 46.9115C91.1594 45.6653 92.7985 45.0421 94.5649 45.0421C96.3312 45.0421 97.6611 45.584 98.5544 46.6677C99.503 47.7514 99.9349 49.0789 99.8503 50.6503L99.7985 52.1946C101.311 49.8104 103.132 47.9681 105.261 46.6677C107.456 45.3131 109.741 44.6357 112.114 44.6357C114.985 44.6357 116.936 45.5298 117.969 47.3179C118.754 48.6725 118.962 50.2981 118.594 52.1946C118.194 54.2536 117.205 55.9333 115.627 57.2338C114.06 58.48 112.476 59.1031 110.875 59.1031C110.434 59.1031 109.975 59.049 109.499 58.9406C109.079 58.8322 108.664 58.6968 108.254 58.5342C107.489 58.2091 106.637 58.0465 105.699 58.0465C103.877 58.0465 102.241 58.9406 100.789 60.7287C99.3481 62.4626 98.3433 64.7926 97.7745 67.7186L95.0571 81.6983C94.6885 83.5948 93.6825 85.2203 92.0392 86.575C90.3959 87.9296 88.6083 88.6069 86.6763 88.6069C84.7443 88.6069 83.22 87.9296 82.1034 86.575C80.9867 85.2203 80.6127 83.5948 80.9813 81.6983L86.89 51.3005Z" fill="black"/>
<path d="M75.0699 76.6598C74.775 78.177 74.1686 79.4503 73.2509 80.4799C72.3332 81.5094 70.9463 82.5389 69.0902 83.5684C62.3126 87.1988 55.5015 89.014 48.6568 89.014C43.0265 89.014 38.3455 87.8219 34.6137 85.4378C30.8926 82.9995 28.2994 79.5858 26.8341 75.1968C25.3689 70.8078 25.205 65.6873 26.3425 59.8354C27.4695 54.0375 29.674 48.9442 32.9559 44.5552C36.293 40.1662 40.3841 36.7254 45.2294 34.2329C50.0746 31.7404 55.3124 30.4941 60.9427 30.4941C64.089 30.4941 67.1012 30.9005 69.9792 31.7133C72.9123 32.5261 75.2697 33.7452 77.0513 35.3708C78.2864 36.4003 79.0904 37.3756 79.4633 38.2968C79.8468 39.1637 79.9016 40.3016 79.6278 41.7104C79.3223 43.2818 78.4689 44.6906 77.0674 45.9369C75.7317 47.129 74.1807 47.725 72.4143 47.725C71.6968 47.725 70.928 47.5624 70.108 47.2373C69.3432 46.9122 68.4115 46.4516 67.313 45.8556C66.0253 45.097 64.7335 44.501 63.4378 44.0675C62.2078 43.5798 60.7924 43.336 59.1917 43.336C54.7757 43.336 50.9481 44.8532 47.7087 47.8875C44.4798 50.8677 42.3809 54.8503 41.4119 59.8354C40.4113 64.9829 40.8358 69.0468 42.6853 72.027C44.6005 74.953 47.7109 76.416 52.0164 76.416C55.8251 76.416 59.2005 75.5219 62.1424 73.7338L63.3273 67.638H56.6206C55.0198 67.638 53.7504 67.0691 52.8124 65.9312C51.8744 64.7933 51.5582 63.4387 51.8636 61.8673C52.1691 60.2959 53.0067 58.9684 54.3765 57.8847C55.7569 56.7468 57.2475 56.1779 58.8482 56.1779H72.3444C74.2212 56.1779 75.668 56.8281 76.6848 58.1285C77.7673 59.3748 78.1296 60.919 77.7715 62.7613L75.0699 76.6598Z" fill="black"/>
<path d="M6.99893 51.9516C7.36757 50.0551 8.37354 48.4295 10.0168 47.0749C11.6601 45.7203 13.4477 45.043 15.3797 45.043C17.3117 45.043 18.836 45.7203 19.9527 47.0749C21.0693 48.4295 21.4433 50.0551 21.0747 51.9516L15.2924 81.6992C14.9237 83.5956 13.9178 85.2212 12.2745 86.5758C10.6312 87.9304 8.84356 88.6077 6.91159 88.6077C4.97962 88.6077 3.4553 87.9304 2.33863 86.5758C1.22196 85.2212 0.847946 83.5956 1.21658 81.6992L6.99893 51.9516Z" fill="black"/>
<path d="M11.0986 33.7461C10.7089 35.751 11.1171 37.4849 12.3231 38.9479C13.5396 40.3567 15.1691 41.0611 17.2114 41.0611C19.309 41.0611 21.2123 40.3567 22.9213 38.9479C24.6961 37.4849 25.7783 35.751 26.168 33.7461C26.5682 31.6871 26.1601 29.9532 24.9436 28.5444C23.7822 27.1356 22.1528 26.4312 20.0552 26.4312C18.0128 26.4312 16.1095 27.1356 14.3453 28.5444C12.5811 29.9532 11.4989 31.6871 11.0986 33.7461Z" fill="#BF0000"/>
<path d="M45.4609 3.18174H45.8809C46.1049 2.69174 46.2169 2.34174 46.3429 1.78174L48.2049 1.96374L47.6869 3.18174H48.7509C49.3809 3.18174 49.5069 3.18174 49.8569 3.13974C49.8149 3.50374 49.8149 3.61574 49.8149 4.31574V7.59174C49.8149 8.24974 49.8289 8.52974 49.8569 8.80974C49.5489 8.78174 49.2129 8.76774 48.7929 8.76774H47.9529V9.56574H51.6209C52.4329 9.56574 52.9789 9.53774 53.3289 9.48174V11.2318C52.9089 11.1758 52.3629 11.1478 51.5929 11.1478H49.1709C49.8569 11.6378 50.2909 11.8898 50.9629 12.1838C51.9149 12.6038 52.5029 12.7858 53.6789 13.0518C53.2589 13.6398 53.0069 14.0738 52.6849 14.7458C51.4809 14.3818 50.9769 14.1718 50.1789 13.7238C49.2549 13.1918 48.5689 12.6598 47.9109 11.9458C47.9109 12.0718 47.9109 12.0998 47.9249 12.1978C47.9249 12.3098 47.9389 12.6738 47.9389 12.7578V13.4858C47.9389 14.1858 47.9529 14.4378 48.0509 14.9138H46.0489C46.1329 14.4518 46.1609 14.0738 46.1609 13.4858V12.7718C46.1609 12.5338 46.1749 12.3098 46.1889 11.9598C45.1669 13.1638 43.5849 14.1018 41.5689 14.7318C41.2609 14.0738 40.9809 13.6538 40.5189 13.1078C41.3589 12.9118 42.0729 12.6738 42.9409 12.3098C43.7389 11.9738 44.1869 11.7078 44.8869 11.1478H42.5769C41.8629 11.1478 41.2329 11.1758 40.8549 11.2318V9.48174C41.2609 9.53774 41.8489 9.56574 42.5769 9.56574H46.1469V8.76774H45.4329C44.9989 8.76774 44.6349 8.78174 44.3409 8.80974C44.3689 8.47374 44.3829 8.09574 44.3829 7.60574V4.30174C44.3829 3.69974 44.3829 3.67174 44.3409 3.13974C44.6769 3.18174 44.8169 3.18174 45.4609 3.18174ZM46.0069 4.55374V5.29574H48.1629V4.55374H46.0069ZM46.0069 6.65374V7.39574H48.1629V6.65374H46.0069ZM40.8409 3.75574L42.0589 2.52374C42.9269 3.20974 43.4029 3.64374 44.2009 4.51174L42.9969 5.86974C42.2689 4.95974 41.6669 4.37174 40.8409 3.75574ZM52.0689 2.50974L53.4409 3.72774C52.5029 4.73574 51.8589 5.35174 51.0609 5.98174L49.8849 4.69374C50.8929 3.89574 51.3689 3.41974 52.0689 2.50974ZM43.8509 5.77174L44.2989 7.35374C43.3749 7.95574 43.1509 8.08174 41.6389 8.80974C41.4289 8.90774 41.3869 8.93574 41.2049 9.03374L40.5609 7.31174C41.4569 7.08774 42.5349 6.58374 43.8509 5.77174ZM49.8149 7.28374L50.7389 5.89774C52.0969 6.56974 52.8249 6.97574 53.6509 7.53574L52.6989 9.07574C51.7049 8.33374 50.9349 7.84374 49.8149 7.28374ZM65.0049 8.30574H62.1629C62.6109 9.35574 63.1709 10.2098 63.8429 10.9098C64.5569 11.6238 65.4109 12.2118 66.3489 12.6178C66.7829 12.7998 67.0769 12.8978 67.7349 13.0658C67.1889 13.7938 66.9369 14.1998 66.6429 14.8998C65.0189 14.2838 63.8149 13.4858 62.7649 12.3378C62.1349 11.6378 61.5469 10.7418 61.1549 9.85974C60.6789 11.0778 60.1189 11.9178 59.1949 12.7578C58.1869 13.6958 57.1789 14.2838 55.5829 14.8438C55.2469 14.0738 54.9669 13.6118 54.5189 13.1218C56.3389 12.6038 57.4589 11.9738 58.3689 10.9518C59.0689 10.1958 59.4609 9.42574 59.7269 8.30574H57.2209C56.5489 8.30574 55.9189 8.33374 55.3169 8.38974V6.59774C55.8349 6.65374 56.4649 6.68174 57.1929 6.68174H59.9509C60.0209 5.88374 60.0209 5.88374 60.0349 4.51174H56.7729C56.0449 4.51174 55.4009 4.53974 54.8409 4.59574V2.74774C55.3449 2.80374 56.0589 2.83174 56.7729 2.83174H65.4389C66.1389 2.83174 66.8389 2.80374 67.3849 2.74774V4.59574C66.7969 4.53974 66.1669 4.51174 65.4669 4.51174H61.8969C61.8689 5.88374 61.8689 5.88374 61.8129 6.68174H64.9769C65.7049 6.68174 66.3489 6.65374 66.9089 6.59774V8.38974C66.2789 8.33374 65.6769 8.30574 65.0049 8.30574ZM77.3389 12.8698V4.21774H75.7989C75.0989 4.21774 74.5809 4.24574 74.1189 4.30174V2.42574C74.5669 2.48174 75.0709 2.50974 75.7989 2.50974H79.8589C80.5729 2.50974 81.0909 2.48174 81.5389 2.42574V4.30174C81.0769 4.24574 80.5449 4.21774 79.8729 4.21774H79.0889V7.36774H79.9849C80.6709 7.36774 80.9229 7.35374 81.3569 7.29774V9.14574C80.9369 9.08974 80.6289 9.07574 79.9849 9.07574H79.0889V12.8698H80.0549C80.6569 12.8698 81.1749 12.8418 81.6789 12.7858V14.6618C81.1749 14.6058 80.6849 14.5778 80.0129 14.5778H75.4209C74.7069 14.5778 74.2449 14.6058 73.7969 14.6618V12.8138C74.0349 12.8558 74.1749 12.8558 74.5249 12.8698V7.64774C74.5249 6.89174 74.5109 6.52774 74.4549 6.02374H76.3169C76.2609 6.45774 76.2469 6.84974 76.2469 7.64774V12.8698H77.3389ZM69.0089 3.74174V2.27174C69.3869 2.31374 69.6249 2.32774 70.2269 2.32774H72.3129C72.9149 2.32774 73.1529 2.31374 73.5309 2.27174V3.74174C73.1809 3.71374 72.8869 3.69974 72.3129 3.69974H70.2269C69.6669 3.69974 69.3589 3.71374 69.0089 3.74174ZM68.5749 5.91174V4.24574C68.9109 4.30174 69.1769 4.31574 69.7089 4.31574H72.7049C73.2789 4.31574 73.5169 4.30174 73.8389 4.25974V5.89774C73.5449 5.85574 73.3909 5.85574 72.7609 5.85574H69.7089C69.2189 5.85574 68.8969 5.86974 68.5749 5.91174ZM69.0509 7.91374V6.45774C69.2889 6.48574 69.4989 6.49974 69.9329 6.49974H72.6209C73.0689 6.49974 73.2369 6.48574 73.4749 6.45774V7.91374C73.2089 7.88574 73.0269 7.87174 72.6209 7.87174H69.9329C69.4989 7.87174 69.3169 7.88574 69.0509 7.91374ZM69.0509 9.87374V8.41774C69.3309 8.45974 69.4849 8.45974 69.9329 8.45974H72.6209C73.0829 8.45974 73.2369 8.45974 73.4749 8.41774V9.87374C73.1949 9.83174 73.0409 9.83174 72.5929 9.83174H69.9189C69.4989 9.83174 69.3169 9.84574 69.0509 9.87374ZM70.6189 15.0258H68.9389C68.9809 14.6058 69.0089 14.1438 69.0089 13.6678V11.4978C69.0089 11.0498 68.9949 10.7978 68.9529 10.4198C69.2469 10.4478 69.5829 10.4618 70.0029 10.4618H72.5649C73.0829 10.4618 73.2369 10.4618 73.4609 10.4198C73.4329 10.6858 73.4329 10.8818 73.4329 11.3998V13.7798C73.4329 14.3678 73.4329 14.5638 73.4609 14.8298H71.8649V14.4098H70.6189V15.0258ZM70.5909 11.8198V12.9818H71.8649V11.8198H70.5909ZM93.9149 8.34774H93.0469C93.8589 9.13174 94.6289 9.60774 95.8749 10.0978C95.3849 10.7418 95.2169 11.0498 94.8809 11.8618C93.9569 11.3578 93.5789 11.1058 92.9349 10.5878C92.8649 12.1138 92.6829 13.3598 92.4729 13.9058C92.1929 14.6198 91.6189 14.8718 90.3169 14.8718C89.8829 14.8718 89.6729 14.8718 89.1129 14.8438C89.0289 14.0598 88.9309 13.6818 88.6929 13.0938C89.2669 13.1638 89.7569 13.2058 90.0509 13.2058C90.6949 13.2058 90.8069 13.1358 90.8909 12.7298C90.9889 12.3098 91.0449 11.6938 91.1009 10.8818H89.1129C88.9309 11.6938 88.8189 12.0158 88.4969 12.5338C87.7129 13.8218 86.4249 14.6618 84.5209 15.1238C84.2549 14.4378 84.0029 14.0178 83.5549 13.4718C84.7169 13.2758 85.4589 12.9958 86.0889 12.5338C86.7189 12.0858 87.0409 11.6098 87.2369 10.8818C86.5369 10.8818 86.1309 10.8958 85.6969 10.9518V10.2238C85.0109 10.7978 84.5349 11.1338 83.5269 11.7358C83.2189 11.1198 82.9809 10.7978 82.3929 10.2378C83.7229 9.56574 84.3529 9.14574 85.1649 8.34774H84.3109C83.5969 8.34774 83.2189 8.36174 82.7569 8.41774V6.69574C83.1909 6.76574 83.5409 6.77974 84.3109 6.77974H86.4389C86.6629 6.42974 86.7889 6.20574 86.9849 5.79974H85.1509C84.4649 5.79974 84.0449 5.81374 83.5969 5.85574V4.11974C84.0169 4.18974 84.3529 4.20374 85.1789 4.20374C84.9409 3.72774 84.6889 3.33574 84.2409 2.71974L85.9489 2.21574C86.3689 2.84574 86.6769 3.41974 87.0269 4.20374H87.6149C87.8389 3.41974 88.0209 2.46774 88.0209 1.99174C88.0209 1.96374 88.0069 1.93574 88.0069 1.89374L89.9949 2.10374C89.9389 2.32774 89.8969 2.49574 89.8129 2.88774C89.7289 3.23774 89.6449 3.54574 89.4489 4.20374H90.6669C91.1569 3.50374 91.4509 2.95774 91.7449 2.18774L93.5789 2.70574C93.4389 2.91574 93.4389 2.91574 93.0749 3.48974C92.8929 3.76974 92.7809 3.93774 92.5849 4.20374H93.1029C93.9009 4.20374 94.2369 4.18974 94.6849 4.11974V5.85574C94.2229 5.81374 93.7889 5.79974 93.1029 5.79974H91.2689C91.4789 6.26174 91.6049 6.48574 91.7729 6.77974H93.9149C94.7269 6.77974 95.0349 6.76574 95.4969 6.69574V8.41774C95.0489 8.37574 94.6009 8.34774 93.9149 8.34774ZM86.8589 9.34174H91.6329C91.3249 8.97774 91.1289 8.72574 90.8629 8.34774H87.4189C87.1529 8.71174 86.9149 8.99174 86.6069 9.34174H86.8589ZM88.4129 6.77974H89.9529C89.7849 6.41574 89.7569 6.35974 89.5469 5.79974H88.8749C88.6929 6.20574 88.5949 6.42974 88.4129 6.77974ZM104.181 4.98774C103.901 7.29774 103.411 9.15974 102.683 10.7838C101.899 12.5618 100.975 13.3878 99.7711 13.3878C98.0351 13.3878 96.8031 11.6938 96.8031 9.28574C96.8031 7.68974 97.3491 6.23374 98.3711 5.12774C99.5751 3.81174 101.297 3.11174 103.299 3.11174C106.813 3.11174 109.053 5.21174 109.053 8.48774C109.053 11.0358 107.779 13.0098 105.539 13.8918C104.867 14.1578 104.307 14.2978 103.313 14.4658C103.019 13.5838 102.823 13.2058 102.277 12.4778C103.523 12.3798 104.391 12.1558 105.049 11.8058C106.253 11.1478 106.981 9.84574 106.981 8.36174C106.981 7.11574 106.435 6.06574 105.483 5.43574C105.077 5.16974 104.741 5.05774 104.181 4.98774ZM102.137 5.01574C101.465 5.09974 101.003 5.29574 100.457 5.71574C99.3931 6.54174 98.7351 7.89974 98.7351 9.29974C98.7351 10.3498 99.1831 11.2038 99.7291 11.2038C100.135 11.2038 100.569 10.6578 101.017 9.52374C101.535 8.27774 101.969 6.51374 102.137 5.01574ZM117.191 4.23174H116.043C115.609 4.69374 115.287 4.95974 114.615 5.43574C114.181 4.88974 113.943 4.65174 113.467 4.35774C114.531 3.69974 115.483 2.67774 115.777 1.86574L117.555 2.13174C117.205 2.69174 117.205 2.69174 117.093 2.87374H121.013C121.559 2.87374 121.853 2.85974 122.105 2.81774L123.071 3.57374C122.973 3.71374 122.959 3.71374 122.763 4.03574C122.273 4.77774 122.021 5.09974 121.461 5.67374C120.929 5.42174 120.509 5.25374 119.921 5.05774C120.355 4.73574 120.565 4.53974 120.831 4.23174H119.011C119.235 4.88974 119.585 5.28174 120.271 5.65974C121.027 6.06574 122.007 6.27574 123.351 6.31774C123.029 6.89174 122.889 7.26974 122.707 7.92774C122.189 7.84374 122.021 7.81574 121.587 7.71774C121.573 8.20774 121.573 8.37574 121.573 8.73974V11.3578C121.573 12.0858 121.587 12.6038 121.629 12.8698C121.293 12.8418 120.831 12.8278 120.187 12.8278H119.571C120.621 13.2898 121.545 13.4998 123.323 13.6398C122.903 14.1018 122.707 14.3958 122.287 15.0958C120.187 14.7458 119.249 14.4238 117.597 13.4438L118.577 12.8278H114.769L115.819 13.4438C114.237 14.4098 113.481 14.6758 111.255 15.1098C110.933 14.4938 110.737 14.2138 110.247 13.7098C112.053 13.4998 112.921 13.2898 113.859 12.8278H113.313C112.641 12.8278 112.235 12.8418 111.857 12.8698C111.885 12.5898 111.913 12.0578 111.913 11.4698V8.62774C111.913 7.98374 111.899 7.56374 111.857 7.21374C112.151 7.22774 112.599 7.24174 113.271 7.24174H114.251C114.097 6.93374 113.957 6.72374 113.691 6.37374C113.005 6.70974 112.585 6.89174 111.521 7.33974C111.255 7.45174 111.157 7.49374 110.919 7.60574L110.303 5.91174C111.199 5.74374 112.543 5.26774 113.691 4.69374L114.181 6.12174C116.085 5.78574 116.883 5.28174 117.191 4.23174ZM115.847 7.24174H120.103C119.207 6.83574 118.717 6.42974 118.129 5.60374C117.583 6.44374 116.967 6.87774 115.847 7.24174ZM113.663 8.33374V8.78174H119.809V8.33374H113.663ZM113.663 9.73374V10.2098H119.809V9.73374H113.663ZM113.663 11.1618V11.6238H119.809V11.1618H113.663ZM114.013 3.36374L112.879 4.72174C111.871 3.96574 111.465 3.71374 110.597 3.30774L111.661 2.06174C112.613 2.49574 113.061 2.74774 114.013 3.36374ZM128.111 12.1418V10.9098C127.915 11.1758 127.803 11.3298 127.495 11.6938C127.215 11.2878 127.019 11.0358 126.697 10.6718C126.431 12.6878 126.053 13.9338 125.339 15.0678C124.765 14.1858 124.569 13.9198 124.009 13.3598C124.415 12.6318 124.597 12.1838 124.779 11.4138C125.031 10.3218 125.157 8.89374 125.157 6.98974C125.157 6.37374 125.143 5.93974 125.101 5.43574C125.675 5.49174 126.095 5.50574 126.683 5.50574H128.069C127.943 5.08574 127.859 4.90374 127.649 4.46974H126.515C125.731 4.46974 125.437 4.48374 125.059 4.52574V2.81774C125.451 2.87374 125.927 2.90174 126.655 2.90174H129.945C129.945 2.50974 129.931 2.31374 129.875 1.99174H131.905C131.849 2.29974 131.821 2.49574 131.821 2.90174H135.125C135.867 2.90174 136.343 2.87374 136.763 2.81774V4.52574C136.357 4.48374 136.035 4.46974 135.251 4.46974H134.299C133.991 5.11374 133.963 5.18374 133.781 5.50574H135.503C136.231 5.50574 136.609 5.49174 137.029 5.43574V7.11574C136.595 7.05974 136.175 7.04574 135.503 7.04574H126.893C126.893 8.51574 126.879 8.97774 126.795 9.85974C127.439 9.08974 127.859 8.26374 128.237 7.10174L129.861 7.57774C129.735 7.85774 129.735 7.85774 129.609 8.16574H130.939C130.939 7.77374 130.911 7.53574 130.869 7.32574H132.731C132.689 7.60574 132.675 7.81574 132.675 8.16574H135.097C135.783 8.16574 136.063 8.15174 136.413 8.09574V9.76174C135.965 9.71974 135.783 9.71974 135.083 9.71974H132.675V10.5878H134.705C135.363 10.5878 135.629 10.5738 135.951 10.5318V12.1418C135.503 12.0998 135.349 12.0998 134.705 12.0998H132.675V13.0378H135.657C136.217 13.0378 136.609 13.0098 136.987 12.9678V14.7038C136.553 14.6618 136.133 14.6338 135.615 14.6338H127.929C127.467 14.6338 127.103 14.6478 126.557 14.7038V12.9818C126.949 13.0238 127.271 13.0378 127.887 13.0378H130.939V12.0998H129.399C128.895 12.0998 128.545 12.1138 128.111 12.1418ZM130.939 9.71974H128.881C128.699 10.0418 128.601 10.1958 128.349 10.5598C128.615 10.5878 128.881 10.5878 129.385 10.5878H130.939V9.71974ZM130.015 5.50574H131.877C132.073 5.14174 132.171 4.93174 132.339 4.46974H129.609C129.777 4.84774 129.875 5.08574 130.015 5.50574ZM148.966 2.28574L150.142 1.82374C150.59 2.35574 151.038 3.04174 151.318 3.65774L150.128 4.17574C149.778 3.44774 149.484 2.95774 148.966 2.28574ZM147.258 2.91574L148.504 2.46774C149.036 3.15374 149.288 3.57374 149.666 4.32974L148.434 4.83374C148.098 4.09174 147.734 3.51774 147.258 2.91574ZM138.564 7.53574L138.102 5.19774C138.634 5.14174 138.914 5.08574 139.838 4.88974C142.764 4.27374 143.8 4.11974 145.2 4.11974C146.586 4.11974 147.706 4.39974 148.518 4.95974C149.582 5.68774 150.17 6.86374 150.17 8.23574C150.17 10.2238 149.022 11.9038 146.992 12.8978C145.662 13.5418 144.402 13.8358 141.91 14.0878C141.686 13.1778 141.546 12.8138 141.042 11.9318C142.904 11.8758 144.15 11.7078 145.13 11.3718C146.152 11.0358 146.95 10.4898 147.44 9.78974C147.762 9.34174 147.916 8.85174 147.916 8.27774C147.916 7.68974 147.734 7.21374 147.37 6.83574C146.894 6.34574 146.208 6.12174 145.242 6.12174C143.786 6.12174 141.966 6.44374 139.726 7.11574C139.362 7.22774 138.914 7.39574 138.564 7.53574ZM158.696 2.03374L160.656 3.46174C160.306 3.69974 160.306 3.69974 158.906 4.98774C158.192 5.64574 157.1 6.49974 155.532 7.68974C155.098 8.01174 155.028 8.08174 155.028 8.23574C155.028 8.43174 155.028 8.43174 156.386 9.41174C157.744 10.4058 158.598 11.1058 160.656 12.9258C160.81 13.0658 160.894 13.1358 161.076 13.2758L159.368 15.0258C158.99 14.4938 158.514 13.9898 157.534 13.0938C156.512 12.1418 156.092 11.8058 153.894 10.0978C153.25 9.59374 152.998 9.34174 152.83 9.03374C152.718 8.79574 152.634 8.45974 152.634 8.16574C152.634 7.74574 152.816 7.29774 153.124 6.96174C153.32 6.75174 153.516 6.58374 154.37 5.93974C155.924 4.76374 156.68 4.11974 157.618 3.22374C158.29 2.57974 158.444 2.41174 158.696 2.03374ZM164.759 2.31374L166.873 2.41174C166.663 3.04174 166.537 3.74174 166.257 5.86974C166.677 4.98774 167.013 4.48374 167.503 4.02174C168.175 3.39174 168.987 3.05574 169.813 3.05574C170.975 3.05574 171.983 3.67174 172.641 4.80574C173.173 5.72974 173.397 6.72374 173.397 8.20774C173.397 11.0218 172.109 13.0238 169.617 14.0738C168.847 14.3958 167.853 14.6618 166.733 14.8438C166.439 13.9338 166.243 13.5418 165.767 12.8138C169.687 12.5058 171.311 11.0918 171.311 7.98374C171.311 6.10774 170.695 5.05774 169.589 5.05774C169.085 5.05774 168.651 5.26774 168.189 5.71574C167.041 6.83574 166.383 8.47374 166.383 10.2378C166.383 10.2798 166.383 10.3498 166.383 10.4478L164.381 10.4758C164.395 10.3778 164.395 10.3078 164.395 10.2518C164.395 10.1958 164.395 10.1958 164.381 9.45374C164.367 8.94974 164.353 8.52974 164.353 8.23574C164.353 7.04574 164.437 5.50574 164.549 4.49774C164.647 3.61574 164.703 3.05574 164.731 2.80374C164.759 2.55174 164.759 2.53774 164.759 2.31374ZM186.522 2.98574L187.642 4.23174C187.46 4.45574 187.404 4.52574 187.236 4.91774C186.284 6.98974 185.108 8.31974 183.274 9.38374C182.756 8.69774 182.462 8.41774 181.804 7.95574C181.72 9.49574 181.496 10.4198 180.992 11.3718C180.194 12.8418 178.99 13.8358 176.834 14.7598C176.386 13.8358 176.176 13.5418 175.504 12.8418C177.044 12.3658 178.038 11.7498 178.766 10.8258C179.466 9.94374 179.718 8.89374 179.718 6.94774C179.718 6.42974 179.704 6.31774 179.648 6.00974H181.902C181.86 6.27574 181.86 6.35974 181.832 7.19974C181.832 7.26974 181.832 7.45174 181.818 7.85774C183.33 7.14374 184.198 6.35974 184.912 5.02974H177.982C177.142 5.02974 176.456 5.05774 175.826 5.11374V3.01374C176.526 3.11174 176.89 3.12574 178.01 3.12574H185.234C186.032 3.12574 186.172 3.11174 186.522 2.98574ZM190.915 3.53174H197.327C197.495 3.53174 197.663 3.53174 197.929 3.50374C197.985 2.69174 198.657 2.06174 199.469 2.06174C200.337 2.06174 201.023 2.76174 201.023 3.61574C201.023 4.46974 200.337 5.16974 199.483 5.16974C199.469 5.16974 199.441 5.16974 199.427 5.16974L199.371 5.36574C198.783 7.71774 197.887 9.53774 196.599 11.0358C195.311 12.5478 193.729 13.6398 191.321 14.7178C190.859 13.8218 190.635 13.5138 189.837 12.7158C191.055 12.3378 191.825 11.9738 192.847 11.3298C195.003 9.95774 196.375 8.03974 197.019 5.49174H190.887C189.739 5.49174 189.291 5.50574 188.717 5.57574V3.43374C189.319 3.51774 189.753 3.53174 190.915 3.53174ZM199.469 2.92974C199.091 2.92974 198.783 3.23774 198.783 3.61574C198.783 3.99374 199.091 4.30174 199.469 4.30174C199.847 4.30174 200.155 3.99374 200.155 3.61574C200.155 3.23774 199.847 2.92974 199.469 2.92974ZM202.842 2.67774H205.138C205.082 3.13974 205.054 3.65774 205.054 4.58174V7.32574C205.054 8.19374 205.082 8.87974 205.124 9.25774H202.828C202.884 8.73974 202.912 8.22174 202.912 7.29774V4.58174C202.912 3.50374 202.898 3.18174 202.842 2.67774ZM209.24 2.69174H211.55C211.494 3.19574 211.48 3.48974 211.48 4.55374V6.03774C211.48 8.36174 211.424 9.21574 211.2 10.0698C210.808 11.5818 209.87 12.7158 208.316 13.5978C207.532 14.0458 206.79 14.3398 205.502 14.7038C205.166 13.8078 204.984 13.4998 204.298 12.7018C205.53 12.4498 206.258 12.2118 207.028 11.8058C208.316 11.1198 208.946 10.3078 209.17 9.00574C209.268 8.44574 209.324 7.28374 209.324 5.91174V4.58174C209.324 3.51774 209.31 3.26574 209.24 2.69174Z" fill="#1E1E1E"/>
</g>
<defs>
<clipPath id="clip0_1478_4302">
<rect width="230" height="90" fill="white" transform="translate(0.5)"/>
</clipPath>
</defs>
</svg>
