<svg width="65" height="65" viewBox="0 0 65 65" fill="none" xmlns="http://www.w3.org/2000/svg">
<g clip-path="url(#clip0_1477_10026)">
<mask id="mask0_1477_10026" style="mask-type:luminance" maskUnits="userSpaceOnUse" x="0" y="0" width="65" height="65">
<path d="M64.5 0.929932H0.5V64.9299H64.5V0.929932Z" fill="white"/>
</mask>
<g mask="url(#mask0_1477_10026)">
<path d="M2.22973 0.929932H0.5V2.65966H2.22973V0.929932Z" fill="black"/>
<path d="M3.9602 0.929932H2.23047V2.65966H3.9602V0.929932Z" fill="black"/>
<path d="M5.69067 0.929932H3.96094V2.65966H5.69067V0.929932Z" fill="black"/>
<path d="M7.41918 0.929932H5.68945V2.65966H7.41918V0.929932Z" fill="black"/>
<path d="M9.1477 0.929932H7.41797V2.65966H9.1477V0.929932Z" fill="black"/>
<path d="M10.8782 0.929932H9.14844V2.65966H10.8782V0.929932Z" fill="black"/>
<path d="M12.6086 0.929932H10.8789V2.65966H12.6086V0.929932Z" fill="black"/>
<path d="M16.0676 0.929932H14.3379V2.65966H16.0676V0.929932Z" fill="black"/>
<path d="M17.7961 0.929932H16.0664V2.65966H17.7961V0.929932Z" fill="black"/>
<path d="M19.5266 0.929932H17.7969V2.65966H19.5266V0.929932Z" fill="black"/>
<path d="M29.9055 0.929932H28.1758V2.65966H29.9055V0.929932Z" fill="black"/>
<path d="M35.095 0.929932H33.3652V2.65966H35.095V0.929932Z" fill="black"/>
<path d="M36.8235 0.929932H35.0938V2.65966H36.8235V0.929932Z" fill="black"/>
<path d="M38.5539 0.929932H36.8242V2.65966H38.5539V0.929932Z" fill="black"/>
<path d="M42.0149 0.929932H40.2852V2.65966H42.0149V0.929932Z" fill="black"/>
<path d="M47.2024 0.929932H45.4727V2.65966H47.2024V0.929932Z" fill="black"/>
<path d="M54.1204 0.929932H52.3906V2.65966H54.1204V0.929932Z" fill="black"/>
<path d="M55.8508 0.929932H54.1211V2.65966H55.8508V0.929932Z" fill="black"/>
<path d="M57.5813 0.929932H55.8516V2.65966H57.5813V0.929932Z" fill="black"/>
<path d="M59.3118 0.929932H57.582V2.65966H59.3118V0.929932Z" fill="black"/>
<path d="M61.0403 0.929932H59.3105V2.65966H61.0403V0.929932Z" fill="black"/>
<path d="M62.7688 0.929932H61.0391V2.65966H62.7688V0.929932Z" fill="black"/>
<path d="M64.4993 0.929932H62.7695V2.65966H64.4993V0.929932Z" fill="black"/>
<path d="M2.22973 2.65991H0.5V4.38964H2.22973V2.65991Z" fill="black"/>
<path d="M12.6086 2.65991H10.8789V4.38964H12.6086V2.65991Z" fill="black"/>
<path d="M16.0676 2.65991H14.3379V4.38964H16.0676V2.65991Z" fill="black"/>
<path d="M19.5266 2.65991H17.7969V4.38964H19.5266V2.65991Z" fill="black"/>
<path d="M21.2571 2.65991H19.5273V4.38964H21.2571V2.65991Z" fill="black"/>
<path d="M24.7161 2.65991H22.9863V4.38964H24.7161V2.65991Z" fill="black"/>
<path d="M26.4446 2.65991H24.7148V4.38964H26.4446V2.65991Z" fill="black"/>
<path d="M28.175 2.65991H26.4453V4.38964H28.175V2.65991Z" fill="black"/>
<path d="M31.636 2.65991H29.9062V4.38964H31.636V2.65991Z" fill="black"/>
<path d="M35.095 2.65991H33.3652V4.38964H35.095V2.65991Z" fill="black"/>
<path d="M43.7434 2.65991H42.0137V4.38964H43.7434V2.65991Z" fill="black"/>
<path d="M45.4719 2.65991H43.7422V4.38964H45.4719V2.65991Z" fill="black"/>
<path d="M47.2024 2.65991H45.4727V4.38964H47.2024V2.65991Z" fill="black"/>
<path d="M50.6633 2.65991H48.9336V4.38964H50.6633V2.65991Z" fill="black"/>
<path d="M54.1204 2.65991H52.3906V4.38964H54.1204V2.65991Z" fill="black"/>
<path d="M64.4993 2.65991H62.7695V4.38964H64.4993V2.65991Z" fill="black"/>
<path d="M2.22973 4.3894H0.5V6.11913H2.22973V4.3894Z" fill="black"/>
<path d="M5.69067 4.3894H3.96094V6.11913H5.69067V4.3894Z" fill="black"/>
<path d="M7.41918 4.3894H5.68945V6.11913H7.41918V4.3894Z" fill="black"/>
<path d="M9.1477 4.3894H7.41797V6.11913H9.1477V4.3894Z" fill="black"/>
<path d="M12.6086 4.3894H10.8789V6.11913H12.6086V4.3894Z" fill="black"/>
<path d="M17.7961 4.3894H16.0664V6.11913H17.7961V4.3894Z" fill="black"/>
<path d="M19.5266 4.3894H17.7969V6.11913H19.5266V4.3894Z" fill="black"/>
<path d="M21.2571 4.3894H19.5273V6.11913H21.2571V4.3894Z" fill="black"/>
<path d="M22.9875 4.3894H21.2578V6.11913H22.9875V4.3894Z" fill="black"/>
<path d="M24.7161 4.3894H22.9863V6.11913H24.7161V4.3894Z" fill="black"/>
<path d="M26.4446 4.3894H24.7148V6.11913H26.4446V4.3894Z" fill="black"/>
<path d="M29.9055 4.3894H28.1758V6.11913H29.9055V4.3894Z" fill="black"/>
<path d="M33.3645 4.3894H31.6348V6.11913H33.3645V4.3894Z" fill="black"/>
<path d="M35.095 4.3894H33.3652V6.11913H35.095V4.3894Z" fill="black"/>
<path d="M42.0149 4.3894H40.2852V6.11913H42.0149V4.3894Z" fill="black"/>
<path d="M47.2024 4.3894H45.4727V6.11913H47.2024V4.3894Z" fill="black"/>
<path d="M48.9329 4.3894H47.2031V6.11913H48.9329V4.3894Z" fill="black"/>
<path d="M54.1204 4.3894H52.3906V6.11913H54.1204V4.3894Z" fill="black"/>
<path d="M57.5813 4.3894H55.8516V6.11913H57.5813V4.3894Z" fill="black"/>
<path d="M59.3118 4.3894H57.582V6.11913H59.3118V4.3894Z" fill="black"/>
<path d="M61.0403 4.3894H59.3105V6.11913H61.0403V4.3894Z" fill="black"/>
<path d="M64.4993 4.3894H62.7695V6.11913H64.4993V4.3894Z" fill="black"/>
<path d="M2.22973 6.11938H0.5V7.84911H2.22973V6.11938Z" fill="black"/>
<path d="M5.69067 6.11938H3.96094V7.84911H5.69067V6.11938Z" fill="black"/>
<path d="M7.41918 6.11938H5.68945V7.84911H7.41918V6.11938Z" fill="black"/>
<path d="M9.1477 6.11938H7.41797V7.84911H9.1477V6.11938Z" fill="black"/>
<path d="M12.6086 6.11938H10.8789V7.84911H12.6086V6.11938Z" fill="black"/>
<path d="M16.0676 6.11938H14.3379V7.84911H16.0676V6.11938Z" fill="black"/>
<path d="M19.5266 6.11938H17.7969V7.84911H19.5266V6.11938Z" fill="black"/>
<path d="M21.2571 6.11938H19.5273V7.84911H21.2571V6.11938Z" fill="black"/>
<path d="M26.4446 6.11938H24.7148V7.84911H26.4446V6.11938Z" fill="black"/>
<path d="M31.636 6.11938H29.9062V7.84911H31.636V6.11938Z" fill="black"/>
<path d="M33.3645 6.11938H31.6348V7.84911H33.3645V6.11938Z" fill="black"/>
<path d="M42.0149 6.11938H40.2852V7.84911H42.0149V6.11938Z" fill="black"/>
<path d="M45.4719 6.11938H43.7422V7.84911H45.4719V6.11938Z" fill="black"/>
<path d="M48.9329 6.11938H47.2031V7.84911H48.9329V6.11938Z" fill="black"/>
<path d="M54.1204 6.11938H52.3906V7.84911H54.1204V6.11938Z" fill="black"/>
<path d="M57.5813 6.11938H55.8516V7.84911H57.5813V6.11938Z" fill="black"/>
<path d="M59.3118 6.11938H57.582V7.84911H59.3118V6.11938Z" fill="black"/>
<path d="M61.0403 6.11938H59.3105V7.84911H61.0403V6.11938Z" fill="black"/>
<path d="M64.4993 6.11938H62.7695V7.84911H64.4993V6.11938Z" fill="black"/>
<path d="M2.22973 7.84888H0.5V9.57861H2.22973V7.84888Z" fill="black"/>
<path d="M5.69067 7.84888H3.96094V9.57861H5.69067V7.84888Z" fill="black"/>
<path d="M7.41918 7.84888H5.68945V9.57861H7.41918V7.84888Z" fill="black"/>
<path d="M9.1477 7.84888H7.41797V9.57861H9.1477V7.84888Z" fill="black"/>
<path d="M12.6086 7.84888H10.8789V9.57861H12.6086V7.84888Z" fill="black"/>
<path d="M16.0676 7.84888H14.3379V9.57861H16.0676V7.84888Z" fill="black"/>
<path d="M17.7961 7.84888H16.0664V9.57861H17.7961V7.84888Z" fill="black"/>
<path d="M24.7161 7.84888H22.9863V9.57861H24.7161V7.84888Z" fill="black"/>
<path d="M26.4446 7.84888H24.7148V9.57861H26.4446V7.84888Z" fill="black"/>
<path d="M28.175 7.84888H26.4453V9.57861H28.175V7.84888Z" fill="black"/>
<path d="M33.3645 7.84888H31.6348V9.57861H33.3645V7.84888Z" fill="black"/>
<path d="M36.8235 7.84888H35.0938V9.57861H36.8235V7.84888Z" fill="black"/>
<path d="M42.0149 7.84888H40.2852V9.57861H42.0149V7.84888Z" fill="black"/>
<path d="M43.7434 7.84888H42.0137V9.57861H43.7434V7.84888Z" fill="black"/>
<path d="M45.4719 7.84888H43.7422V9.57861H45.4719V7.84888Z" fill="black"/>
<path d="M47.2024 7.84888H45.4727V9.57861H47.2024V7.84888Z" fill="black"/>
<path d="M48.9329 7.84888H47.2031V9.57861H48.9329V7.84888Z" fill="black"/>
<path d="M54.1204 7.84888H52.3906V9.57861H54.1204V7.84888Z" fill="black"/>
<path d="M57.5813 7.84888H55.8516V9.57861H57.5813V7.84888Z" fill="black"/>
<path d="M59.3118 7.84888H57.582V9.57861H59.3118V7.84888Z" fill="black"/>
<path d="M61.0403 7.84888H59.3105V9.57861H61.0403V7.84888Z" fill="black"/>
<path d="M64.4993 7.84888H62.7695V9.57861H64.4993V7.84888Z" fill="black"/>
<path d="M2.22973 9.57837H0.5V11.3081H2.22973V9.57837Z" fill="black"/>
<path d="M12.6086 9.57837H10.8789V11.3081H12.6086V9.57837Z" fill="black"/>
<path d="M16.0676 9.57837H14.3379V11.3081H16.0676V9.57837Z" fill="black"/>
<path d="M24.7161 9.57837H22.9863V11.3081H24.7161V9.57837Z" fill="black"/>
<path d="M26.4446 9.57837H24.7148V11.3081H26.4446V9.57837Z" fill="black"/>
<path d="M33.3645 9.57837H31.6348V11.3081H33.3645V9.57837Z" fill="black"/>
<path d="M36.8235 9.57837H35.0938V11.3081H36.8235V9.57837Z" fill="black"/>
<path d="M47.2024 9.57837H45.4727V11.3081H47.2024V9.57837Z" fill="black"/>
<path d="M50.6633 9.57837H48.9336V11.3081H50.6633V9.57837Z" fill="black"/>
<path d="M54.1204 9.57837H52.3906V11.3081H54.1204V9.57837Z" fill="black"/>
<path d="M64.4993 9.57837H62.7695V11.3081H64.4993V9.57837Z" fill="black"/>
<path d="M2.22973 11.3083H0.5V13.0381H2.22973V11.3083Z" fill="black"/>
<path d="M3.9602 11.3083H2.23047V13.0381H3.9602V11.3083Z" fill="black"/>
<path d="M5.69067 11.3083H3.96094V13.0381H5.69067V11.3083Z" fill="black"/>
<path d="M7.41918 11.3083H5.68945V13.0381H7.41918V11.3083Z" fill="black"/>
<path d="M9.1477 11.3083H7.41797V13.0381H9.1477V11.3083Z" fill="black"/>
<path d="M10.8782 11.3083H9.14844V13.0381H10.8782V11.3083Z" fill="black"/>
<path d="M12.6086 11.3083H10.8789V13.0381H12.6086V11.3083Z" fill="black"/>
<path d="M16.0676 11.3083H14.3379V13.0381H16.0676V11.3083Z" fill="black"/>
<path d="M19.5266 11.3083H17.7969V13.0381H19.5266V11.3083Z" fill="black"/>
<path d="M22.9875 11.3083H21.2578V13.0381H22.9875V11.3083Z" fill="black"/>
<path d="M26.4446 11.3083H24.7148V13.0381H26.4446V11.3083Z" fill="black"/>
<path d="M29.9055 11.3083H28.1758V13.0381H29.9055V11.3083Z" fill="black"/>
<path d="M33.3645 11.3083H31.6348V13.0381H33.3645V11.3083Z" fill="black"/>
<path d="M36.8235 11.3083H35.0938V13.0381H36.8235V11.3083Z" fill="black"/>
<path d="M40.2844 11.3083H38.5547V13.0381H40.2844V11.3083Z" fill="black"/>
<path d="M43.7434 11.3083H42.0137V13.0381H43.7434V11.3083Z" fill="black"/>
<path d="M47.2024 11.3083H45.4727V13.0381H47.2024V11.3083Z" fill="black"/>
<path d="M50.6633 11.3083H48.9336V13.0381H50.6633V11.3083Z" fill="black"/>
<path d="M54.1204 11.3083H52.3906V13.0381H54.1204V11.3083Z" fill="black"/>
<path d="M55.8508 11.3083H54.1211V13.0381H55.8508V11.3083Z" fill="black"/>
<path d="M57.5813 11.3083H55.8516V13.0381H57.5813V11.3083Z" fill="black"/>
<path d="M59.3118 11.3083H57.582V13.0381H59.3118V11.3083Z" fill="black"/>
<path d="M61.0403 11.3083H59.3105V13.0381H61.0403V11.3083Z" fill="black"/>
<path d="M62.7688 11.3083H61.0391V13.0381H62.7688V11.3083Z" fill="black"/>
<path d="M64.4993 11.3083H62.7695V13.0381H64.4993V11.3083Z" fill="black"/>
<path d="M17.7961 13.0378H16.0664V14.7676H17.7961V13.0378Z" fill="black"/>
<path d="M19.5266 13.0378H17.7969V14.7676H19.5266V13.0378Z" fill="black"/>
<path d="M21.2571 13.0378H19.5273V14.7676H21.2571V13.0378Z" fill="black"/>
<path d="M22.9875 13.0378H21.2578V14.7676H22.9875V13.0378Z" fill="black"/>
<path d="M24.7161 13.0378H22.9863V14.7676H24.7161V13.0378Z" fill="black"/>
<path d="M26.4446 13.0378H24.7148V14.7676H26.4446V13.0378Z" fill="black"/>
<path d="M28.175 13.0378H26.4453V14.7676H28.175V13.0378Z" fill="black"/>
<path d="M29.9055 13.0378H28.1758V14.7676H29.9055V13.0378Z" fill="black"/>
<path d="M35.095 13.0378H33.3652V14.7676H35.095V13.0378Z" fill="black"/>
<path d="M40.2844 13.0378H38.5547V14.7676H40.2844V13.0378Z" fill="black"/>
<path d="M47.2024 13.0378H45.4727V14.7676H47.2024V13.0378Z" fill="black"/>
<path d="M50.6633 13.0378H48.9336V14.7676H50.6633V13.0378Z" fill="black"/>
<path d="M7.41918 14.7678H5.68945V16.4976H7.41918V14.7678Z" fill="black"/>
<path d="M12.6086 14.7678H10.8789V16.4976H12.6086V14.7678Z" fill="black"/>
<path d="M21.2571 14.7678H19.5273V16.4976H21.2571V14.7678Z" fill="black"/>
<path d="M22.9875 14.7678H21.2578V16.4976H22.9875V14.7678Z" fill="black"/>
<path d="M24.7161 14.7678H22.9863V16.4976H24.7161V14.7678Z" fill="black"/>
<path d="M26.4446 14.7678H24.7148V16.4976H26.4446V14.7678Z" fill="black"/>
<path d="M29.9055 14.7678H28.1758V16.4976H29.9055V14.7678Z" fill="black"/>
<path d="M35.095 14.7678H33.3652V16.4976H35.095V14.7678Z" fill="black"/>
<path d="M45.4719 14.7678H43.7422V16.4976H45.4719V14.7678Z" fill="black"/>
<path d="M50.6633 14.7678H48.9336V16.4976H50.6633V14.7678Z" fill="black"/>
<path d="M55.8508 14.7678H54.1211V16.4976H55.8508V14.7678Z" fill="black"/>
<path d="M57.5813 14.7678H55.8516V16.4976H57.5813V14.7678Z" fill="black"/>
<path d="M59.3118 14.7678H57.582V16.4976H59.3118V14.7678Z" fill="black"/>
<path d="M62.7688 14.7678H61.0391V16.4976H62.7688V14.7678Z" fill="black"/>
<path d="M64.4993 14.7678H62.7695V16.4976H64.4993V14.7678Z" fill="black"/>
<path d="M5.69067 16.4973H3.96094V18.227H5.69067V16.4973Z" fill="black"/>
<path d="M7.41918 16.4973H5.68945V18.227H7.41918V16.4973Z" fill="black"/>
<path d="M9.1477 16.4973H7.41797V18.227H9.1477V16.4973Z" fill="black"/>
<path d="M10.8782 16.4973H9.14844V18.227H10.8782V16.4973Z" fill="black"/>
<path d="M16.0676 16.4973H14.3379V18.227H16.0676V16.4973Z" fill="black"/>
<path d="M17.7961 16.4973H16.0664V18.227H17.7961V16.4973Z" fill="black"/>
<path d="M21.2571 16.4973H19.5273V18.227H21.2571V16.4973Z" fill="black"/>
<path d="M24.7161 16.4973H22.9863V18.227H24.7161V16.4973Z" fill="black"/>
<path d="M28.175 16.4973H26.4453V18.227H28.175V16.4973Z" fill="black"/>
<path d="M29.9055 16.4973H28.1758V18.227H29.9055V16.4973Z" fill="black"/>
<path d="M36.8235 16.4973H35.0938V18.227H36.8235V16.4973Z" fill="black"/>
<path d="M45.4719 16.4973H43.7422V18.227H45.4719V16.4973Z" fill="black"/>
<path d="M47.2024 16.4973H45.4727V18.227H47.2024V16.4973Z" fill="black"/>
<path d="M48.9329 16.4973H47.2031V18.227H48.9329V16.4973Z" fill="black"/>
<path d="M52.3918 16.4973H50.6621V18.227H52.3918V16.4973Z" fill="black"/>
<path d="M55.8508 16.4973H54.1211V18.227H55.8508V16.4973Z" fill="black"/>
<path d="M59.3118 16.4973H57.582V18.227H59.3118V16.4973Z" fill="black"/>
<path d="M64.4993 16.4973H62.7695V18.227H64.4993V16.4973Z" fill="black"/>
<path d="M2.22973 18.2273H0.5V19.957H2.22973V18.2273Z" fill="black"/>
<path d="M5.69067 18.2273H3.96094V19.957H5.69067V18.2273Z" fill="black"/>
<path d="M7.41918 18.2273H5.68945V19.957H7.41918V18.2273Z" fill="black"/>
<path d="M12.6086 18.2273H10.8789V19.957H12.6086V18.2273Z" fill="black"/>
<path d="M17.7961 18.2273H16.0664V19.957H17.7961V18.2273Z" fill="black"/>
<path d="M19.5266 18.2273H17.7969V19.957H19.5266V18.2273Z" fill="black"/>
<path d="M21.2571 18.2273H19.5273V19.957H21.2571V18.2273Z" fill="black"/>
<path d="M22.9875 18.2273H21.2578V19.957H22.9875V18.2273Z" fill="black"/>
<path d="M28.175 18.2273H26.4453V19.957H28.175V18.2273Z" fill="black"/>
<path d="M38.5539 18.2273H36.8242V19.957H38.5539V18.2273Z" fill="black"/>
<path d="M40.2844 18.2273H38.5547V19.957H40.2844V18.2273Z" fill="black"/>
<path d="M42.0149 18.2273H40.2852V19.957H42.0149V18.2273Z" fill="black"/>
<path d="M43.7434 18.2273H42.0137V19.957H43.7434V18.2273Z" fill="black"/>
<path d="M47.2024 18.2273H45.4727V19.957H47.2024V18.2273Z" fill="black"/>
<path d="M50.6633 18.2273H48.9336V19.957H50.6633V18.2273Z" fill="black"/>
<path d="M52.3918 18.2273H50.6621V19.957H52.3918V18.2273Z" fill="black"/>
<path d="M54.1204 18.2273H52.3906V19.957H54.1204V18.2273Z" fill="black"/>
<path d="M59.3118 18.2273H57.582V19.957H59.3118V18.2273Z" fill="black"/>
<path d="M61.0403 18.2273H59.3105V19.957H61.0403V18.2273Z" fill="black"/>
<path d="M62.7688 18.2273H61.0391V19.957H62.7688V18.2273Z" fill="black"/>
<path d="M5.69067 19.9573H3.96094V21.687H5.69067V19.9573Z" fill="black"/>
<path d="M9.1477 19.9573H7.41797V21.687H9.1477V19.9573Z" fill="black"/>
<path d="M10.8782 19.9573H9.14844V21.687H10.8782V19.9573Z" fill="black"/>
<path d="M16.0676 19.9573H14.3379V21.687H16.0676V19.9573Z" fill="black"/>
<path d="M17.7961 19.9573H16.0664V21.687H17.7961V19.9573Z" fill="black"/>
<path d="M19.5266 19.9573H17.7969V21.687H19.5266V19.9573Z" fill="black"/>
<path d="M28.175 19.9573H26.4453V21.687H28.175V19.9573Z" fill="black"/>
<path d="M29.9055 19.9573H28.1758V21.687H29.9055V19.9573Z" fill="black"/>
<path d="M31.636 19.9573H29.9062V21.687H31.636V19.9573Z" fill="black"/>
<path d="M35.095 19.9573H33.3652V21.687H35.095V19.9573Z" fill="black"/>
<path d="M36.8235 19.9573H35.0938V21.687H36.8235V19.9573Z" fill="black"/>
<path d="M40.2844 19.9573H38.5547V21.687H40.2844V19.9573Z" fill="black"/>
<path d="M42.0149 19.9573H40.2852V21.687H42.0149V19.9573Z" fill="black"/>
<path d="M43.7434 19.9573H42.0137V21.687H43.7434V19.9573Z" fill="black"/>
<path d="M47.2024 19.9573H45.4727V21.687H47.2024V19.9573Z" fill="black"/>
<path d="M52.3918 19.9573H50.6621V21.687H52.3918V19.9573Z" fill="black"/>
<path d="M54.1204 19.9573H52.3906V21.687H54.1204V19.9573Z" fill="black"/>
<path d="M55.8508 19.9573H54.1211V21.687H55.8508V19.9573Z" fill="black"/>
<path d="M57.5813 19.9573H55.8516V21.687H57.5813V19.9573Z" fill="black"/>
<path d="M64.4993 19.9573H62.7695V21.687H64.4993V19.9573Z" fill="black"/>
<path d="M3.9602 21.6868H2.23047V23.4165H3.9602V21.6868Z" fill="black"/>
<path d="M7.41918 21.6868H5.68945V23.4165H7.41918V21.6868Z" fill="black"/>
<path d="M10.8782 21.6868H9.14844V23.4165H10.8782V21.6868Z" fill="black"/>
<path d="M12.6086 21.6868H10.8789V23.4165H12.6086V21.6868Z" fill="black"/>
<path d="M14.3391 21.6868H12.6094V23.4165H14.3391V21.6868Z" fill="black"/>
<path d="M19.5266 21.6868H17.7969V23.4165H19.5266V21.6868Z" fill="black"/>
<path d="M21.2571 21.6868H19.5273V23.4165H21.2571V21.6868Z" fill="black"/>
<path d="M22.9875 21.6868H21.2578V23.4165H22.9875V21.6868Z" fill="black"/>
<path d="M24.7161 21.6868H22.9863V23.4165H24.7161V21.6868Z" fill="black"/>
<path d="M36.8235 21.6868H35.0938V23.4165H36.8235V21.6868Z" fill="black"/>
<path d="M38.5539 21.6868H36.8242V23.4165H38.5539V21.6868Z" fill="black"/>
<path d="M40.2844 21.6868H38.5547V23.4165H40.2844V21.6868Z" fill="black"/>
<path d="M42.0149 21.6868H40.2852V23.4165H42.0149V21.6868Z" fill="black"/>
<path d="M45.4719 21.6868H43.7422V23.4165H45.4719V21.6868Z" fill="black"/>
<path d="M52.3918 21.6868H50.6621V23.4165H52.3918V21.6868Z" fill="black"/>
<path d="M54.1204 21.6868H52.3906V23.4165H54.1204V21.6868Z" fill="black"/>
<path d="M62.7688 21.6868H61.0391V23.4165H62.7688V21.6868Z" fill="black"/>
<path d="M64.4993 21.6868H62.7695V23.4165H64.4993V21.6868Z" fill="black"/>
<path d="M17.7961 23.4163H16.0664V25.146H17.7961V23.4163Z" fill="black"/>
<path d="M22.9875 23.4163H21.2578V25.146H22.9875V23.4163Z" fill="black"/>
<path d="M26.4446 23.4163H24.7148V25.146H26.4446V23.4163Z" fill="black"/>
<path d="M28.175 23.4163H26.4453V25.146H28.175V23.4163Z" fill="black"/>
<path d="M35.095 23.4163H33.3652V25.146H35.095V23.4163Z" fill="black"/>
<path d="M47.2024 23.4163H45.4727V25.146H47.2024V23.4163Z" fill="black"/>
<path d="M48.9329 23.4163H47.2031V25.146H48.9329V23.4163Z" fill="black"/>
<path d="M50.6633 23.4163H48.9336V25.146H50.6633V23.4163Z" fill="black"/>
<path d="M52.3918 23.4163H50.6621V25.146H52.3918V23.4163Z" fill="black"/>
<path d="M57.5813 23.4163H55.8516V25.146H57.5813V23.4163Z" fill="black"/>
<path d="M59.3118 23.4163H57.582V25.146H59.3118V23.4163Z" fill="black"/>
<path d="M61.0403 23.4163H59.3105V25.146H61.0403V23.4163Z" fill="black"/>
<path d="M62.7688 23.4163H61.0391V25.146H62.7688V23.4163Z" fill="black"/>
<path d="M2.22973 25.1462H0.5V26.876H2.22973V25.1462Z" fill="black"/>
<path d="M3.9602 25.1462H2.23047V26.876H3.9602V25.1462Z" fill="black"/>
<path d="M5.69067 25.1462H3.96094V26.876H5.69067V25.1462Z" fill="black"/>
<path d="M7.41918 25.1462H5.68945V26.876H7.41918V25.1462Z" fill="black"/>
<path d="M9.1477 25.1462H7.41797V26.876H9.1477V25.1462Z" fill="black"/>
<path d="M10.8782 25.1462H9.14844V26.876H10.8782V25.1462Z" fill="black"/>
<path d="M12.6086 25.1462H10.8789V26.876H12.6086V25.1462Z" fill="black"/>
<path d="M16.0676 25.1462H14.3379V26.876H16.0676V25.1462Z" fill="black"/>
<path d="M17.7961 25.1462H16.0664V26.876H17.7961V25.1462Z" fill="black"/>
<path d="M19.5266 25.1462H17.7969V26.876H19.5266V25.1462Z" fill="black"/>
<path d="M21.2571 25.1462H19.5273V26.876H21.2571V25.1462Z" fill="black"/>
<path d="M22.9875 25.1462H21.2578V26.876H22.9875V25.1462Z" fill="black"/>
<path d="M24.7161 25.1462H22.9863V26.876H24.7161V25.1462Z" fill="black"/>
<path d="M28.175 25.1462H26.4453V26.876H28.175V25.1462Z" fill="black"/>
<path d="M29.9055 25.1462H28.1758V26.876H29.9055V25.1462Z" fill="black"/>
<path d="M33.3645 25.1462H31.6348V26.876H33.3645V25.1462Z" fill="black"/>
<path d="M36.8235 25.1462H35.0938V26.876H36.8235V25.1462Z" fill="black"/>
<path d="M38.5539 25.1462H36.8242V26.876H38.5539V25.1462Z" fill="black"/>
<path d="M40.2844 25.1462H38.5547V26.876H40.2844V25.1462Z" fill="black"/>
<path d="M42.0149 25.1462H40.2852V26.876H42.0149V25.1462Z" fill="black"/>
<path d="M45.4719 25.1462H43.7422V26.876H45.4719V25.1462Z" fill="black"/>
<path d="M47.2024 25.1462H45.4727V26.876H47.2024V25.1462Z" fill="black"/>
<path d="M50.6633 25.1462H48.9336V26.876H50.6633V25.1462Z" fill="black"/>
<path d="M54.1204 25.1462H52.3906V26.876H54.1204V25.1462Z" fill="black"/>
<path d="M57.5813 25.1462H55.8516V26.876H57.5813V25.1462Z" fill="black"/>
<path d="M62.7688 25.1462H61.0391V26.876H62.7688V25.1462Z" fill="black"/>
<path d="M64.4993 25.1462H62.7695V26.876H64.4993V25.1462Z" fill="black"/>
<path d="M2.22973 26.8757H0.5V28.6055H2.22973V26.8757Z" fill="black"/>
<path d="M5.69067 26.8757H3.96094V28.6055H5.69067V26.8757Z" fill="black"/>
<path d="M14.3391 26.8757H12.6094V28.6055H14.3391V26.8757Z" fill="black"/>
<path d="M17.7961 26.8757H16.0664V28.6055H17.7961V26.8757Z" fill="black"/>
<path d="M21.2571 26.8757H19.5273V28.6055H21.2571V26.8757Z" fill="black"/>
<path d="M22.9875 26.8757H21.2578V28.6055H22.9875V26.8757Z" fill="black"/>
<path d="M24.7161 26.8757H22.9863V28.6055H24.7161V26.8757Z" fill="black"/>
<path d="M26.4446 26.8757H24.7148V28.6055H26.4446V26.8757Z" fill="black"/>
<path d="M28.175 26.8757H26.4453V28.6055H28.175V26.8757Z" fill="black"/>
<path d="M29.9055 26.8757H28.1758V28.6055H29.9055V26.8757Z" fill="black"/>
<path d="M31.636 26.8757H29.9062V28.6055H31.636V26.8757Z" fill="black"/>
<path d="M35.095 26.8757H33.3652V28.6055H35.095V26.8757Z" fill="black"/>
<path d="M36.8235 26.8757H35.0938V28.6055H36.8235V26.8757Z" fill="black"/>
<path d="M38.5539 26.8757H36.8242V28.6055H38.5539V26.8757Z" fill="black"/>
<path d="M42.0149 26.8757H40.2852V28.6055H42.0149V26.8757Z" fill="black"/>
<path d="M43.7434 26.8757H42.0137V28.6055H43.7434V26.8757Z" fill="black"/>
<path d="M45.4719 26.8757H43.7422V28.6055H45.4719V26.8757Z" fill="black"/>
<path d="M50.6633 26.8757H48.9336V28.6055H50.6633V26.8757Z" fill="black"/>
<path d="M52.3918 26.8757H50.6621V28.6055H52.3918V26.8757Z" fill="black"/>
<path d="M54.1204 26.8757H52.3906V28.6055H54.1204V26.8757Z" fill="black"/>
<path d="M59.3118 26.8757H57.582V28.6055H59.3118V26.8757Z" fill="black"/>
<path d="M61.0403 26.8757H59.3105V28.6055H61.0403V26.8757Z" fill="black"/>
<path d="M64.4993 26.8757H62.7695V28.6055H64.4993V26.8757Z" fill="black"/>
<path d="M2.22973 28.6057H0.5V30.3354H2.22973V28.6057Z" fill="black"/>
<path d="M3.9602 28.6057H2.23047V30.3354H3.9602V28.6057Z" fill="black"/>
<path d="M5.69067 28.6057H3.96094V30.3354H5.69067V28.6057Z" fill="black"/>
<path d="M12.6086 28.6057H10.8789V30.3354H12.6086V28.6057Z" fill="black"/>
<path d="M14.3391 28.6057H12.6094V30.3354H14.3391V28.6057Z" fill="black"/>
<path d="M16.0676 28.6057H14.3379V30.3354H16.0676V28.6057Z" fill="black"/>
<path d="M19.5266 28.6057H17.7969V30.3354H19.5266V28.6057Z" fill="black"/>
<path d="M22.9875 28.6057H21.2578V30.3354H22.9875V28.6057Z" fill="black"/>
<path d="M28.175 28.6057H26.4453V30.3354H28.175V28.6057Z" fill="black"/>
<path d="M29.9055 28.6057H28.1758V30.3354H29.9055V28.6057Z" fill="black"/>
<path d="M33.3645 28.6057H31.6348V30.3354H33.3645V28.6057Z" fill="black"/>
<path d="M35.095 28.6057H33.3652V30.3354H35.095V28.6057Z" fill="black"/>
<path d="M40.2844 28.6057H38.5547V30.3354H40.2844V28.6057Z" fill="black"/>
<path d="M42.0149 28.6057H40.2852V30.3354H42.0149V28.6057Z" fill="black"/>
<path d="M43.7434 28.6057H42.0137V30.3354H43.7434V28.6057Z" fill="black"/>
<path d="M45.4719 28.6057H43.7422V30.3354H45.4719V28.6057Z" fill="black"/>
<path d="M54.1204 28.6057H52.3906V30.3354H54.1204V28.6057Z" fill="black"/>
<path d="M55.8508 28.6057H54.1211V30.3354H55.8508V28.6057Z" fill="black"/>
<path d="M61.0403 28.6057H59.3105V30.3354H61.0403V28.6057Z" fill="black"/>
<path d="M62.7688 28.6057H61.0391V30.3354H62.7688V28.6057Z" fill="black"/>
<path d="M64.4993 28.6057H62.7695V30.3354H64.4993V28.6057Z" fill="black"/>
<path d="M7.41918 30.3352H5.68945V32.0649H7.41918V30.3352Z" fill="black"/>
<path d="M16.0676 30.3352H14.3379V32.0649H16.0676V30.3352Z" fill="black"/>
<path d="M17.7961 30.3352H16.0664V32.0649H17.7961V30.3352Z" fill="black"/>
<path d="M19.5266 30.3352H17.7969V32.0649H19.5266V30.3352Z" fill="black"/>
<path d="M21.2571 30.3352H19.5273V32.0649H21.2571V30.3352Z" fill="black"/>
<path d="M22.9875 30.3352H21.2578V32.0649H22.9875V30.3352Z" fill="black"/>
<path d="M24.7161 30.3352H22.9863V32.0649H24.7161V30.3352Z" fill="black"/>
<path d="M26.4446 30.3352H24.7148V32.0649H26.4446V30.3352Z" fill="black"/>
<path d="M28.175 30.3352H26.4453V32.0649H28.175V30.3352Z" fill="black"/>
<path d="M29.9055 30.3352H28.1758V32.0649H29.9055V30.3352Z" fill="black"/>
<path d="M31.636 30.3352H29.9062V32.0649H31.636V30.3352Z" fill="black"/>
<path d="M33.3645 30.3352H31.6348V32.0649H33.3645V30.3352Z" fill="black"/>
<path d="M36.8235 30.3352H35.0938V32.0649H36.8235V30.3352Z" fill="black"/>
<path d="M45.4719 30.3352H43.7422V32.0649H45.4719V30.3352Z" fill="black"/>
<path d="M48.9329 30.3352H47.2031V32.0649H48.9329V30.3352Z" fill="black"/>
<path d="M52.3918 30.3352H50.6621V32.0649H52.3918V30.3352Z" fill="black"/>
<path d="M2.22973 32.0652H0.5V33.7949H2.22973V32.0652Z" fill="black"/>
<path d="M5.69067 32.0652H3.96094V33.7949H5.69067V32.0652Z" fill="black"/>
<path d="M9.1477 32.0652H7.41797V33.7949H9.1477V32.0652Z" fill="black"/>
<path d="M12.6086 32.0652H10.8789V33.7949H12.6086V32.0652Z" fill="black"/>
<path d="M14.3391 32.0652H12.6094V33.7949H14.3391V32.0652Z" fill="black"/>
<path d="M19.5266 32.0652H17.7969V33.7949H19.5266V32.0652Z" fill="black"/>
<path d="M22.9875 32.0652H21.2578V33.7949H22.9875V32.0652Z" fill="black"/>
<path d="M24.7161 32.0652H22.9863V33.7949H24.7161V32.0652Z" fill="black"/>
<path d="M29.9055 32.0652H28.1758V33.7949H29.9055V32.0652Z" fill="black"/>
<path d="M33.3645 32.0652H31.6348V33.7949H33.3645V32.0652Z" fill="black"/>
<path d="M42.0149 32.0652H40.2852V33.7949H42.0149V32.0652Z" fill="black"/>
<path d="M43.7434 32.0652H42.0137V33.7949H43.7434V32.0652Z" fill="black"/>
<path d="M45.4719 32.0652H43.7422V33.7949H45.4719V32.0652Z" fill="black"/>
<path d="M52.3918 32.0652H50.6621V33.7949H52.3918V32.0652Z" fill="black"/>
<path d="M54.1204 32.0652H52.3906V33.7949H54.1204V32.0652Z" fill="black"/>
<path d="M59.3118 32.0652H57.582V33.7949H59.3118V32.0652Z" fill="black"/>
<path d="M62.7688 32.0652H61.0391V33.7949H62.7688V32.0652Z" fill="black"/>
<path d="M64.4993 32.0652H62.7695V33.7949H64.4993V32.0652Z" fill="black"/>
<path d="M2.22973 33.7947H0.5V35.5244H2.22973V33.7947Z" fill="black"/>
<path d="M7.41918 33.7947H5.68945V35.5244H7.41918V33.7947Z" fill="black"/>
<path d="M9.1477 33.7947H7.41797V35.5244H9.1477V33.7947Z" fill="black"/>
<path d="M10.8782 33.7947H9.14844V35.5244H10.8782V33.7947Z" fill="black"/>
<path d="M14.3391 33.7947H12.6094V35.5244H14.3391V33.7947Z" fill="black"/>
<path d="M21.2571 33.7947H19.5273V35.5244H21.2571V33.7947Z" fill="black"/>
<path d="M29.9055 33.7947H28.1758V35.5244H29.9055V33.7947Z" fill="black"/>
<path d="M33.3645 33.7947H31.6348V35.5244H33.3645V33.7947Z" fill="black"/>
<path d="M40.2844 33.7947H38.5547V35.5244H40.2844V33.7947Z" fill="black"/>
<path d="M42.0149 33.7947H40.2852V35.5244H42.0149V33.7947Z" fill="black"/>
<path d="M43.7434 33.7947H42.0137V35.5244H43.7434V33.7947Z" fill="black"/>
<path d="M47.2024 33.7947H45.4727V35.5244H47.2024V33.7947Z" fill="black"/>
<path d="M54.1204 33.7947H52.3906V35.5244H54.1204V33.7947Z" fill="black"/>
<path d="M59.3118 33.7947H57.582V35.5244H59.3118V33.7947Z" fill="black"/>
<path d="M61.0403 33.7947H59.3105V35.5244H61.0403V33.7947Z" fill="black"/>
<path d="M62.7688 33.7947H61.0391V35.5244H62.7688V33.7947Z" fill="black"/>
<path d="M64.4993 33.7947H62.7695V35.5244H64.4993V33.7947Z" fill="black"/>
<path d="M2.22973 35.5247H0.5V37.2544H2.22973V35.5247Z" fill="black"/>
<path d="M3.9602 35.5247H2.23047V37.2544H3.9602V35.5247Z" fill="black"/>
<path d="M12.6086 35.5247H10.8789V37.2544H12.6086V35.5247Z" fill="black"/>
<path d="M16.0676 35.5247H14.3379V37.2544H16.0676V35.5247Z" fill="black"/>
<path d="M17.7961 35.5247H16.0664V37.2544H17.7961V35.5247Z" fill="black"/>
<path d="M19.5266 35.5247H17.7969V37.2544H19.5266V35.5247Z" fill="black"/>
<path d="M21.2571 35.5247H19.5273V37.2544H21.2571V35.5247Z" fill="black"/>
<path d="M26.4446 35.5247H24.7148V37.2544H26.4446V35.5247Z" fill="black"/>
<path d="M31.636 35.5247H29.9062V37.2544H31.636V35.5247Z" fill="black"/>
<path d="M38.5539 35.5247H36.8242V37.2544H38.5539V35.5247Z" fill="black"/>
<path d="M42.0149 35.5247H40.2852V37.2544H42.0149V35.5247Z" fill="black"/>
<path d="M43.7434 35.5247H42.0137V37.2544H43.7434V35.5247Z" fill="black"/>
<path d="M52.3918 35.5247H50.6621V37.2544H52.3918V35.5247Z" fill="black"/>
<path d="M54.1204 35.5247H52.3906V37.2544H54.1204V35.5247Z" fill="black"/>
<path d="M61.0403 35.5247H59.3105V37.2544H61.0403V35.5247Z" fill="black"/>
<path d="M62.7688 35.5247H61.0391V37.2544H62.7688V35.5247Z" fill="black"/>
<path d="M2.22973 37.2542H0.5V38.9838H2.22973V37.2542Z" fill="black"/>
<path d="M3.9602 37.2542H2.23047V38.9838H3.9602V37.2542Z" fill="black"/>
<path d="M5.69067 37.2542H3.96094V38.9838H5.69067V37.2542Z" fill="black"/>
<path d="M7.41918 37.2542H5.68945V38.9838H7.41918V37.2542Z" fill="black"/>
<path d="M10.8782 37.2542H9.14844V38.9838H10.8782V37.2542Z" fill="black"/>
<path d="M14.3391 37.2542H12.6094V38.9838H14.3391V37.2542Z" fill="black"/>
<path d="M16.0676 37.2542H14.3379V38.9838H16.0676V37.2542Z" fill="black"/>
<path d="M17.7961 37.2542H16.0664V38.9838H17.7961V37.2542Z" fill="black"/>
<path d="M24.7161 37.2542H22.9863V38.9838H24.7161V37.2542Z" fill="black"/>
<path d="M28.175 37.2542H26.4453V38.9838H28.175V37.2542Z" fill="black"/>
<path d="M29.9055 37.2542H28.1758V38.9838H29.9055V37.2542Z" fill="black"/>
<path d="M31.636 37.2542H29.9062V38.9838H31.636V37.2542Z" fill="black"/>
<path d="M33.3645 37.2542H31.6348V38.9838H33.3645V37.2542Z" fill="black"/>
<path d="M36.8235 37.2542H35.0938V38.9838H36.8235V37.2542Z" fill="black"/>
<path d="M45.4719 37.2542H43.7422V38.9838H45.4719V37.2542Z" fill="black"/>
<path d="M52.3918 37.2542H50.6621V38.9838H52.3918V37.2542Z" fill="black"/>
<path d="M62.7688 37.2542H61.0391V38.9838H62.7688V37.2542Z" fill="black"/>
<path d="M3.9602 38.9841H2.23047V40.7139H3.9602V38.9841Z" fill="black"/>
<path d="M5.69067 38.9841H3.96094V40.7139H5.69067V38.9841Z" fill="black"/>
<path d="M12.6086 38.9841H10.8789V40.7139H12.6086V38.9841Z" fill="black"/>
<path d="M16.0676 38.9841H14.3379V40.7139H16.0676V38.9841Z" fill="black"/>
<path d="M17.7961 38.9841H16.0664V40.7139H17.7961V38.9841Z" fill="black"/>
<path d="M19.5266 38.9841H17.7969V40.7139H19.5266V38.9841Z" fill="black"/>
<path d="M22.9875 38.9841H21.2578V40.7139H22.9875V38.9841Z" fill="black"/>
<path d="M24.7161 38.9841H22.9863V40.7139H24.7161V38.9841Z" fill="black"/>
<path d="M26.4446 38.9841H24.7148V40.7139H26.4446V38.9841Z" fill="black"/>
<path d="M28.175 38.9841H26.4453V40.7139H28.175V38.9841Z" fill="black"/>
<path d="M36.8235 38.9841H35.0938V40.7139H36.8235V38.9841Z" fill="black"/>
<path d="M38.5539 38.9841H36.8242V40.7139H38.5539V38.9841Z" fill="black"/>
<path d="M42.0149 38.9841H40.2852V40.7139H42.0149V38.9841Z" fill="black"/>
<path d="M47.2024 38.9841H45.4727V40.7139H47.2024V38.9841Z" fill="black"/>
<path d="M50.6633 38.9841H48.9336V40.7139H50.6633V38.9841Z" fill="black"/>
<path d="M54.1204 38.9841H52.3906V40.7139H54.1204V38.9841Z" fill="black"/>
<path d="M61.0403 38.9841H59.3105V40.7139H61.0403V38.9841Z" fill="black"/>
<path d="M62.7688 38.9841H61.0391V40.7139H62.7688V38.9841Z" fill="black"/>
<path d="M64.4993 38.9841H62.7695V40.7139H64.4993V38.9841Z" fill="black"/>
<path d="M3.9602 40.7136H2.23047V42.4434H3.9602V40.7136Z" fill="black"/>
<path d="M5.69067 40.7136H3.96094V42.4434H5.69067V40.7136Z" fill="black"/>
<path d="M9.1477 40.7136H7.41797V42.4434H9.1477V40.7136Z" fill="black"/>
<path d="M10.8782 40.7136H9.14844V42.4434H10.8782V40.7136Z" fill="black"/>
<path d="M14.3391 40.7136H12.6094V42.4434H14.3391V40.7136Z" fill="black"/>
<path d="M22.9875 40.7136H21.2578V42.4434H22.9875V40.7136Z" fill="black"/>
<path d="M24.7161 40.7136H22.9863V42.4434H24.7161V40.7136Z" fill="black"/>
<path d="M28.175 40.7136H26.4453V42.4434H28.175V40.7136Z" fill="black"/>
<path d="M31.636 40.7136H29.9062V42.4434H31.636V40.7136Z" fill="black"/>
<path d="M33.3645 40.7136H31.6348V42.4434H33.3645V40.7136Z" fill="black"/>
<path d="M35.095 40.7136H33.3652V42.4434H35.095V40.7136Z" fill="black"/>
<path d="M40.2844 40.7136H38.5547V42.4434H40.2844V40.7136Z" fill="black"/>
<path d="M43.7434 40.7136H42.0137V42.4434H43.7434V40.7136Z" fill="black"/>
<path d="M45.4719 40.7136H43.7422V42.4434H45.4719V40.7136Z" fill="black"/>
<path d="M50.6633 40.7136H48.9336V42.4434H50.6633V40.7136Z" fill="black"/>
<path d="M52.3918 40.7136H50.6621V42.4434H52.3918V40.7136Z" fill="black"/>
<path d="M54.1204 40.7136H52.3906V42.4434H54.1204V40.7136Z" fill="black"/>
<path d="M57.5813 40.7136H55.8516V42.4434H57.5813V40.7136Z" fill="black"/>
<path d="M61.0403 40.7136H59.3105V42.4434H61.0403V40.7136Z" fill="black"/>
<path d="M64.4993 40.7136H62.7695V42.4434H64.4993V40.7136Z" fill="black"/>
<path d="M7.41918 42.4436H5.68945V44.1733H7.41918V42.4436Z" fill="black"/>
<path d="M10.8782 42.4436H9.14844V44.1733H10.8782V42.4436Z" fill="black"/>
<path d="M12.6086 42.4436H10.8789V44.1733H12.6086V42.4436Z" fill="black"/>
<path d="M14.3391 42.4436H12.6094V44.1733H14.3391V42.4436Z" fill="black"/>
<path d="M17.7961 42.4436H16.0664V44.1733H17.7961V42.4436Z" fill="black"/>
<path d="M19.5266 42.4436H17.7969V44.1733H19.5266V42.4436Z" fill="black"/>
<path d="M24.7161 42.4436H22.9863V44.1733H24.7161V42.4436Z" fill="black"/>
<path d="M26.4446 42.4436H24.7148V44.1733H26.4446V42.4436Z" fill="black"/>
<path d="M28.175 42.4436H26.4453V44.1733H28.175V42.4436Z" fill="black"/>
<path d="M29.9055 42.4436H28.1758V44.1733H29.9055V42.4436Z" fill="black"/>
<path d="M35.095 42.4436H33.3652V44.1733H35.095V42.4436Z" fill="black"/>
<path d="M36.8235 42.4436H35.0938V44.1733H36.8235V42.4436Z" fill="black"/>
<path d="M38.5539 42.4436H36.8242V44.1733H38.5539V42.4436Z" fill="black"/>
<path d="M40.2844 42.4436H38.5547V44.1733H40.2844V42.4436Z" fill="black"/>
<path d="M43.7434 42.4436H42.0137V44.1733H43.7434V42.4436Z" fill="black"/>
<path d="M45.4719 42.4436H43.7422V44.1733H45.4719V42.4436Z" fill="black"/>
<path d="M54.1204 42.4436H52.3906V44.1733H54.1204V42.4436Z" fill="black"/>
<path d="M55.8508 42.4436H54.1211V44.1733H55.8508V42.4436Z" fill="black"/>
<path d="M59.3118 42.4436H57.582V44.1733H59.3118V42.4436Z" fill="black"/>
<path d="M61.0403 42.4436H59.3105V44.1733H61.0403V42.4436Z" fill="black"/>
<path d="M62.7688 42.4436H61.0391V44.1733H62.7688V42.4436Z" fill="black"/>
<path d="M64.4993 42.4436H62.7695V44.1733H64.4993V42.4436Z" fill="black"/>
<path d="M3.9602 44.1731H2.23047V45.9028H3.9602V44.1731Z" fill="black"/>
<path d="M7.41918 44.1731H5.68945V45.9028H7.41918V44.1731Z" fill="black"/>
<path d="M9.1477 44.1731H7.41797V45.9028H9.1477V44.1731Z" fill="black"/>
<path d="M16.0676 44.1731H14.3379V45.9028H16.0676V44.1731Z" fill="black"/>
<path d="M17.7961 44.1731H16.0664V45.9028H17.7961V44.1731Z" fill="black"/>
<path d="M22.9875 44.1731H21.2578V45.9028H22.9875V44.1731Z" fill="black"/>
<path d="M24.7161 44.1731H22.9863V45.9028H24.7161V44.1731Z" fill="black"/>
<path d="M28.175 44.1731H26.4453V45.9028H28.175V44.1731Z" fill="black"/>
<path d="M29.9055 44.1731H28.1758V45.9028H29.9055V44.1731Z" fill="black"/>
<path d="M36.8235 44.1731H35.0938V45.9028H36.8235V44.1731Z" fill="black"/>
<path d="M38.5539 44.1731H36.8242V45.9028H38.5539V44.1731Z" fill="black"/>
<path d="M40.2844 44.1731H38.5547V45.9028H40.2844V44.1731Z" fill="black"/>
<path d="M42.0149 44.1731H40.2852V45.9028H42.0149V44.1731Z" fill="black"/>
<path d="M48.9329 44.1731H47.2031V45.9028H48.9329V44.1731Z" fill="black"/>
<path d="M52.3918 44.1731H50.6621V45.9028H52.3918V44.1731Z" fill="black"/>
<path d="M54.1204 44.1731H52.3906V45.9028H54.1204V44.1731Z" fill="black"/>
<path d="M55.8508 44.1731H54.1211V45.9028H55.8508V44.1731Z" fill="black"/>
<path d="M59.3118 44.1731H57.582V45.9028H59.3118V44.1731Z" fill="black"/>
<path d="M61.0403 44.1731H59.3105V45.9028H61.0403V44.1731Z" fill="black"/>
<path d="M64.4993 44.1731H62.7695V45.9028H64.4993V44.1731Z" fill="black"/>
<path d="M2.22973 45.9026H0.5V47.6323H2.22973V45.9026Z" fill="black"/>
<path d="M5.69067 45.9026H3.96094V47.6323H5.69067V45.9026Z" fill="black"/>
<path d="M7.41918 45.9026H5.68945V47.6323H7.41918V45.9026Z" fill="black"/>
<path d="M12.6086 45.9026H10.8789V47.6323H12.6086V45.9026Z" fill="black"/>
<path d="M14.3391 45.9026H12.6094V47.6323H14.3391V45.9026Z" fill="black"/>
<path d="M17.7961 45.9026H16.0664V47.6323H17.7961V45.9026Z" fill="black"/>
<path d="M19.5266 45.9026H17.7969V47.6323H19.5266V45.9026Z" fill="black"/>
<path d="M22.9875 45.9026H21.2578V47.6323H22.9875V45.9026Z" fill="black"/>
<path d="M29.9055 45.9026H28.1758V47.6323H29.9055V45.9026Z" fill="black"/>
<path d="M31.636 45.9026H29.9062V47.6323H31.636V45.9026Z" fill="black"/>
<path d="M33.3645 45.9026H31.6348V47.6323H33.3645V45.9026Z" fill="black"/>
<path d="M36.8235 45.9026H35.0938V47.6323H36.8235V45.9026Z" fill="black"/>
<path d="M42.0149 45.9026H40.2852V47.6323H42.0149V45.9026Z" fill="black"/>
<path d="M43.7434 45.9026H42.0137V47.6323H43.7434V45.9026Z" fill="black"/>
<path d="M45.4719 45.9026H43.7422V47.6323H45.4719V45.9026Z" fill="black"/>
<path d="M54.1204 45.9026H52.3906V47.6323H54.1204V45.9026Z" fill="black"/>
<path d="M55.8508 45.9026H54.1211V47.6323H55.8508V45.9026Z" fill="black"/>
<path d="M57.5813 45.9026H55.8516V47.6323H57.5813V45.9026Z" fill="black"/>
<path d="M59.3118 45.9026H57.582V47.6323H59.3118V45.9026Z" fill="black"/>
<path d="M62.7688 45.9026H61.0391V47.6323H62.7688V45.9026Z" fill="black"/>
<path d="M64.4993 45.9026H62.7695V47.6323H64.4993V45.9026Z" fill="black"/>
<path d="M3.9602 47.6326H2.23047V49.3623H3.9602V47.6326Z" fill="black"/>
<path d="M5.69067 47.6326H3.96094V49.3623H5.69067V47.6326Z" fill="black"/>
<path d="M7.41918 47.6326H5.68945V49.3623H7.41918V47.6326Z" fill="black"/>
<path d="M10.8782 47.6326H9.14844V49.3623H10.8782V47.6326Z" fill="black"/>
<path d="M14.3391 47.6326H12.6094V49.3623H14.3391V47.6326Z" fill="black"/>
<path d="M17.7961 47.6326H16.0664V49.3623H17.7961V47.6326Z" fill="black"/>
<path d="M19.5266 47.6326H17.7969V49.3623H19.5266V47.6326Z" fill="black"/>
<path d="M24.7161 47.6326H22.9863V49.3623H24.7161V47.6326Z" fill="black"/>
<path d="M26.4446 47.6326H24.7148V49.3623H26.4446V47.6326Z" fill="black"/>
<path d="M28.175 47.6326H26.4453V49.3623H28.175V47.6326Z" fill="black"/>
<path d="M33.3645 47.6326H31.6348V49.3623H33.3645V47.6326Z" fill="black"/>
<path d="M35.095 47.6326H33.3652V49.3623H35.095V47.6326Z" fill="black"/>
<path d="M36.8235 47.6326H35.0938V49.3623H36.8235V47.6326Z" fill="black"/>
<path d="M38.5539 47.6326H36.8242V49.3623H38.5539V47.6326Z" fill="black"/>
<path d="M40.2844 47.6326H38.5547V49.3623H40.2844V47.6326Z" fill="black"/>
<path d="M42.0149 47.6326H40.2852V49.3623H42.0149V47.6326Z" fill="black"/>
<path d="M54.1204 47.6326H52.3906V49.3623H54.1204V47.6326Z" fill="black"/>
<path d="M55.8508 47.6326H54.1211V49.3623H55.8508V47.6326Z" fill="black"/>
<path d="M62.7688 47.6326H61.0391V49.3623H62.7688V47.6326Z" fill="black"/>
<path d="M64.4993 47.6326H62.7695V49.3623H64.4993V47.6326Z" fill="black"/>
<path d="M2.22973 49.3625H0.5V51.0924H2.22973V49.3625Z" fill="black"/>
<path d="M3.9602 49.3625H2.23047V51.0924H3.9602V49.3625Z" fill="black"/>
<path d="M9.1477 49.3625H7.41797V51.0924H9.1477V49.3625Z" fill="black"/>
<path d="M10.8782 49.3625H9.14844V51.0924H10.8782V49.3625Z" fill="black"/>
<path d="M12.6086 49.3625H10.8789V51.0924H12.6086V49.3625Z" fill="black"/>
<path d="M14.3391 49.3625H12.6094V51.0924H14.3391V49.3625Z" fill="black"/>
<path d="M21.2571 49.3625H19.5273V51.0924H21.2571V49.3625Z" fill="black"/>
<path d="M29.9055 49.3625H28.1758V51.0924H29.9055V49.3625Z" fill="black"/>
<path d="M33.3645 49.3625H31.6348V51.0924H33.3645V49.3625Z" fill="black"/>
<path d="M35.095 49.3625H33.3652V51.0924H35.095V49.3625Z" fill="black"/>
<path d="M40.2844 49.3625H38.5547V51.0924H40.2844V49.3625Z" fill="black"/>
<path d="M50.6633 49.3625H48.9336V51.0924H50.6633V49.3625Z" fill="black"/>
<path d="M52.3918 49.3625H50.6621V51.0924H52.3918V49.3625Z" fill="black"/>
<path d="M54.1204 49.3625H52.3906V51.0924H54.1204V49.3625Z" fill="black"/>
<path d="M55.8508 49.3625H54.1211V51.0924H55.8508V49.3625Z" fill="black"/>
<path d="M57.5813 49.3625H55.8516V51.0924H57.5813V49.3625Z" fill="black"/>
<path d="M61.0403 49.3625H59.3105V51.0924H61.0403V49.3625Z" fill="black"/>
<path d="M62.7688 49.3625H61.0391V51.0924H62.7688V49.3625Z" fill="black"/>
<path d="M64.4993 49.3625H62.7695V51.0924H64.4993V49.3625Z" fill="black"/>
<path d="M16.0676 51.092H14.3379V52.8218H16.0676V51.092Z" fill="black"/>
<path d="M17.7961 51.092H16.0664V52.8218H17.7961V51.092Z" fill="black"/>
<path d="M19.5266 51.092H17.7969V52.8218H19.5266V51.092Z" fill="black"/>
<path d="M24.7161 51.092H22.9863V52.8218H24.7161V51.092Z" fill="black"/>
<path d="M28.175 51.092H26.4453V52.8218H28.175V51.092Z" fill="black"/>
<path d="M29.9055 51.092H28.1758V52.8218H29.9055V51.092Z" fill="black"/>
<path d="M31.636 51.092H29.9062V52.8218H31.636V51.092Z" fill="black"/>
<path d="M35.095 51.092H33.3652V52.8218H35.095V51.092Z" fill="black"/>
<path d="M38.5539 51.092H36.8242V52.8218H38.5539V51.092Z" fill="black"/>
<path d="M40.2844 51.092H38.5547V52.8218H40.2844V51.092Z" fill="black"/>
<path d="M45.4719 51.092H43.7422V52.8218H45.4719V51.092Z" fill="black"/>
<path d="M50.6633 51.092H48.9336V52.8218H50.6633V51.092Z" fill="black"/>
<path d="M57.5813 51.092H55.8516V52.8218H57.5813V51.092Z" fill="black"/>
<path d="M62.7688 51.092H61.0391V52.8218H62.7688V51.092Z" fill="black"/>
<path d="M2.22973 52.822H0.5V54.5518H2.22973V52.822Z" fill="black"/>
<path d="M3.9602 52.822H2.23047V54.5518H3.9602V52.822Z" fill="black"/>
<path d="M5.69067 52.822H3.96094V54.5518H5.69067V52.822Z" fill="black"/>
<path d="M7.41918 52.822H5.68945V54.5518H7.41918V52.822Z" fill="black"/>
<path d="M9.1477 52.822H7.41797V54.5518H9.1477V52.822Z" fill="black"/>
<path d="M10.8782 52.822H9.14844V54.5518H10.8782V52.822Z" fill="black"/>
<path d="M12.6086 52.822H10.8789V54.5518H12.6086V52.822Z" fill="black"/>
<path d="M17.7961 52.822H16.0664V54.5518H17.7961V52.822Z" fill="black"/>
<path d="M19.5266 52.822H17.7969V54.5518H19.5266V52.822Z" fill="black"/>
<path d="M21.2571 52.822H19.5273V54.5518H21.2571V52.822Z" fill="black"/>
<path d="M22.9875 52.822H21.2578V54.5518H22.9875V52.822Z" fill="black"/>
<path d="M24.7161 52.822H22.9863V54.5518H24.7161V52.822Z" fill="black"/>
<path d="M28.175 52.822H26.4453V54.5518H28.175V52.822Z" fill="black"/>
<path d="M35.095 52.822H33.3652V54.5518H35.095V52.822Z" fill="black"/>
<path d="M36.8235 52.822H35.0938V54.5518H36.8235V52.822Z" fill="black"/>
<path d="M40.2844 52.822H38.5547V54.5518H40.2844V52.822Z" fill="black"/>
<path d="M42.0149 52.822H40.2852V54.5518H42.0149V52.822Z" fill="black"/>
<path d="M43.7434 52.822H42.0137V54.5518H43.7434V52.822Z" fill="black"/>
<path d="M45.4719 52.822H43.7422V54.5518H45.4719V52.822Z" fill="black"/>
<path d="M47.2024 52.822H45.4727V54.5518H47.2024V52.822Z" fill="black"/>
<path d="M48.9329 52.822H47.2031V54.5518H48.9329V52.822Z" fill="black"/>
<path d="M50.6633 52.822H48.9336V54.5518H50.6633V52.822Z" fill="black"/>
<path d="M54.1204 52.822H52.3906V54.5518H54.1204V52.822Z" fill="black"/>
<path d="M57.5813 52.822H55.8516V54.5518H57.5813V52.822Z" fill="black"/>
<path d="M64.4993 52.822H62.7695V54.5518H64.4993V52.822Z" fill="black"/>
<path d="M2.22973 54.5515H0.5V56.2812H2.22973V54.5515Z" fill="black"/>
<path d="M12.6086 54.5515H10.8789V56.2812H12.6086V54.5515Z" fill="black"/>
<path d="M17.7961 54.5515H16.0664V56.2812H17.7961V54.5515Z" fill="black"/>
<path d="M19.5266 54.5515H17.7969V56.2812H19.5266V54.5515Z" fill="black"/>
<path d="M21.2571 54.5515H19.5273V56.2812H21.2571V54.5515Z" fill="black"/>
<path d="M28.175 54.5515H26.4453V56.2812H28.175V54.5515Z" fill="black"/>
<path d="M29.9055 54.5515H28.1758V56.2812H29.9055V54.5515Z" fill="black"/>
<path d="M31.636 54.5515H29.9062V56.2812H31.636V54.5515Z" fill="black"/>
<path d="M36.8235 54.5515H35.0938V56.2812H36.8235V54.5515Z" fill="black"/>
<path d="M40.2844 54.5515H38.5547V56.2812H40.2844V54.5515Z" fill="black"/>
<path d="M43.7434 54.5515H42.0137V56.2812H43.7434V54.5515Z" fill="black"/>
<path d="M45.4719 54.5515H43.7422V56.2812H45.4719V54.5515Z" fill="black"/>
<path d="M50.6633 54.5515H48.9336V56.2812H50.6633V54.5515Z" fill="black"/>
<path d="M57.5813 54.5515H55.8516V56.2812H57.5813V54.5515Z" fill="black"/>
<path d="M59.3118 54.5515H57.582V56.2812H59.3118V54.5515Z" fill="black"/>
<path d="M62.7688 54.5515H61.0391V56.2812H62.7688V54.5515Z" fill="black"/>
<path d="M64.4993 54.5515H62.7695V56.2812H64.4993V54.5515Z" fill="black"/>
<path d="M2.22973 56.2815H0.5V58.0112H2.22973V56.2815Z" fill="black"/>
<path d="M5.69067 56.2815H3.96094V58.0112H5.69067V56.2815Z" fill="black"/>
<path d="M7.41918 56.2815H5.68945V58.0112H7.41918V56.2815Z" fill="black"/>
<path d="M9.1477 56.2815H7.41797V58.0112H9.1477V56.2815Z" fill="black"/>
<path d="M12.6086 56.2815H10.8789V58.0112H12.6086V56.2815Z" fill="black"/>
<path d="M17.7961 56.2815H16.0664V58.0112H17.7961V56.2815Z" fill="black"/>
<path d="M24.7161 56.2815H22.9863V58.0112H24.7161V56.2815Z" fill="black"/>
<path d="M28.175 56.2815H26.4453V58.0112H28.175V56.2815Z" fill="black"/>
<path d="M29.9055 56.2815H28.1758V58.0112H29.9055V56.2815Z" fill="black"/>
<path d="M42.0149 56.2815H40.2852V58.0112H42.0149V56.2815Z" fill="black"/>
<path d="M43.7434 56.2815H42.0137V58.0112H43.7434V56.2815Z" fill="black"/>
<path d="M45.4719 56.2815H43.7422V58.0112H45.4719V56.2815Z" fill="black"/>
<path d="M47.2024 56.2815H45.4727V58.0112H47.2024V56.2815Z" fill="black"/>
<path d="M48.9329 56.2815H47.2031V58.0112H48.9329V56.2815Z" fill="black"/>
<path d="M50.6633 56.2815H48.9336V58.0112H50.6633V56.2815Z" fill="black"/>
<path d="M52.3918 56.2815H50.6621V58.0112H52.3918V56.2815Z" fill="black"/>
<path d="M54.1204 56.2815H52.3906V58.0112H54.1204V56.2815Z" fill="black"/>
<path d="M55.8508 56.2815H54.1211V58.0112H55.8508V56.2815Z" fill="black"/>
<path d="M57.5813 56.2815H55.8516V58.0112H57.5813V56.2815Z" fill="black"/>
<path d="M61.0403 56.2815H59.3105V58.0112H61.0403V56.2815Z" fill="black"/>
<path d="M64.4993 56.2815H62.7695V58.0112H64.4993V56.2815Z" fill="black"/>
<path d="M2.22973 58.011H0.5V59.7407H2.22973V58.011Z" fill="black"/>
<path d="M5.69067 58.011H3.96094V59.7407H5.69067V58.011Z" fill="black"/>
<path d="M7.41918 58.011H5.68945V59.7407H7.41918V58.011Z" fill="black"/>
<path d="M9.1477 58.011H7.41797V59.7407H9.1477V58.011Z" fill="black"/>
<path d="M12.6086 58.011H10.8789V59.7407H12.6086V58.011Z" fill="black"/>
<path d="M16.0676 58.011H14.3379V59.7407H16.0676V58.011Z" fill="black"/>
<path d="M17.7961 58.011H16.0664V59.7407H17.7961V58.011Z" fill="black"/>
<path d="M19.5266 58.011H17.7969V59.7407H19.5266V58.011Z" fill="black"/>
<path d="M22.9875 58.011H21.2578V59.7407H22.9875V58.011Z" fill="black"/>
<path d="M24.7161 58.011H22.9863V59.7407H24.7161V58.011Z" fill="black"/>
<path d="M33.3645 58.011H31.6348V59.7407H33.3645V58.011Z" fill="black"/>
<path d="M36.8235 58.011H35.0938V59.7407H36.8235V58.011Z" fill="black"/>
<path d="M42.0149 58.011H40.2852V59.7407H42.0149V58.011Z" fill="black"/>
<path d="M45.4719 58.011H43.7422V59.7407H45.4719V58.011Z" fill="black"/>
<path d="M48.9329 58.011H47.2031V59.7407H48.9329V58.011Z" fill="black"/>
<path d="M50.6633 58.011H48.9336V59.7407H50.6633V58.011Z" fill="black"/>
<path d="M52.3918 58.011H50.6621V59.7407H52.3918V58.011Z" fill="black"/>
<path d="M57.5813 58.011H55.8516V59.7407H57.5813V58.011Z" fill="black"/>
<path d="M2.22973 59.7405H0.5V61.4702H2.22973V59.7405Z" fill="black"/>
<path d="M5.69067 59.7405H3.96094V61.4702H5.69067V59.7405Z" fill="black"/>
<path d="M7.41918 59.7405H5.68945V61.4702H7.41918V59.7405Z" fill="black"/>
<path d="M9.1477 59.7405H7.41797V61.4702H9.1477V59.7405Z" fill="black"/>
<path d="M12.6086 59.7405H10.8789V61.4702H12.6086V59.7405Z" fill="black"/>
<path d="M19.5266 59.7405H17.7969V61.4702H19.5266V59.7405Z" fill="black"/>
<path d="M22.9875 59.7405H21.2578V61.4702H22.9875V59.7405Z" fill="black"/>
<path d="M31.636 59.7405H29.9062V61.4702H31.636V59.7405Z" fill="black"/>
<path d="M33.3645 59.7405H31.6348V61.4702H33.3645V59.7405Z" fill="black"/>
<path d="M35.095 59.7405H33.3652V61.4702H35.095V59.7405Z" fill="black"/>
<path d="M36.8235 59.7405H35.0938V61.4702H36.8235V59.7405Z" fill="black"/>
<path d="M38.5539 59.7405H36.8242V61.4702H38.5539V59.7405Z" fill="black"/>
<path d="M47.2024 59.7405H45.4727V61.4702H47.2024V59.7405Z" fill="black"/>
<path d="M54.1204 59.7405H52.3906V61.4702H54.1204V59.7405Z" fill="black"/>
<path d="M59.3118 59.7405H57.582V61.4702H59.3118V59.7405Z" fill="black"/>
<path d="M61.0403 59.7405H59.3105V61.4702H61.0403V59.7405Z" fill="black"/>
<path d="M64.4993 59.7405H62.7695V61.4702H64.4993V59.7405Z" fill="black"/>
<path d="M2.22973 61.4705H0.5V63.2002H2.22973V61.4705Z" fill="black"/>
<path d="M12.6086 61.4705H10.8789V63.2002H12.6086V61.4705Z" fill="black"/>
<path d="M17.7961 61.4705H16.0664V63.2002H17.7961V61.4705Z" fill="black"/>
<path d="M22.9875 61.4705H21.2578V63.2002H22.9875V61.4705Z" fill="black"/>
<path d="M29.9055 61.4705H28.1758V63.2002H29.9055V61.4705Z" fill="black"/>
<path d="M36.8235 61.4705H35.0938V63.2002H36.8235V61.4705Z" fill="black"/>
<path d="M38.5539 61.4705H36.8242V63.2002H38.5539V61.4705Z" fill="black"/>
<path d="M40.2844 61.4705H38.5547V63.2002H40.2844V61.4705Z" fill="black"/>
<path d="M42.0149 61.4705H40.2852V63.2002H42.0149V61.4705Z" fill="black"/>
<path d="M47.2024 61.4705H45.4727V63.2002H47.2024V61.4705Z" fill="black"/>
<path d="M48.9329 61.4705H47.2031V63.2002H48.9329V61.4705Z" fill="black"/>
<path d="M52.3918 61.4705H50.6621V63.2002H52.3918V61.4705Z" fill="black"/>
<path d="M55.8508 61.4705H54.1211V63.2002H55.8508V61.4705Z" fill="black"/>
<path d="M59.3118 61.4705H57.582V63.2002H59.3118V61.4705Z" fill="black"/>
<path d="M62.7688 61.4705H61.0391V63.2002H62.7688V61.4705Z" fill="black"/>
<path d="M64.4993 61.4705H62.7695V63.2002H64.4993V61.4705Z" fill="black"/>
<path d="M2.22973 63.2H0.5V64.9297H2.22973V63.2Z" fill="black"/>
<path d="M3.9602 63.2H2.23047V64.9297H3.9602V63.2Z" fill="black"/>
<path d="M5.69067 63.2H3.96094V64.9297H5.69067V63.2Z" fill="black"/>
<path d="M7.41918 63.2H5.68945V64.9297H7.41918V63.2Z" fill="black"/>
<path d="M9.1477 63.2H7.41797V64.9297H9.1477V63.2Z" fill="black"/>
<path d="M10.8782 63.2H9.14844V64.9297H10.8782V63.2Z" fill="black"/>
<path d="M12.6086 63.2H10.8789V64.9297H12.6086V63.2Z" fill="black"/>
<path d="M17.7961 63.2H16.0664V64.9297H17.7961V63.2Z" fill="black"/>
<path d="M21.2571 63.2H19.5273V64.9297H21.2571V63.2Z" fill="black"/>
<path d="M22.9875 63.2H21.2578V64.9297H22.9875V63.2Z" fill="black"/>
<path d="M24.7161 63.2H22.9863V64.9297H24.7161V63.2Z" fill="black"/>
<path d="M29.9055 63.2H28.1758V64.9297H29.9055V63.2Z" fill="black"/>
<path d="M31.636 63.2H29.9062V64.9297H31.636V63.2Z" fill="black"/>
<path d="M45.4719 63.2H43.7422V64.9297H45.4719V63.2Z" fill="black"/>
<path d="M50.6633 63.2H48.9336V64.9297H50.6633V63.2Z" fill="black"/>
<path d="M52.3918 63.2H50.6621V64.9297H52.3918V63.2Z" fill="black"/>
<path d="M57.5813 63.2H55.8516V64.9297H57.5813V63.2Z" fill="black"/>
<path d="M59.3118 63.2H57.582V64.9297H59.3118V63.2Z" fill="black"/>
<path d="M62.7688 63.2H61.0391V64.9297H62.7688V63.2Z" fill="black"/>
<path d="M64.4993 63.2H62.7695V64.9297H64.4993V63.2Z" fill="black"/>
</g>
</g>
<defs>
<clipPath id="clip0_1477_10026">
<rect width="65" height="65" fill="white"/>
</clipPath>
</defs>
</svg>
