<svg width="46" height="43" viewBox="0 0 46 43" fill="none" xmlns="http://www.w3.org/2000/svg">
<path d="M0 7H5V43H1.8C1.32261 43 0.864773 42.8104 0.527208 42.4728C0.189642 42.1352 0 41.6774 0 41.2V7Z" fill="#EC0606"/>
<path d="M41 7H46V41.2C46 41.6774 45.8104 42.1352 45.4728 42.4728C45.1352 42.8104 44.6774 43 44.2 43H41V7Z" fill="#EC0606"/>
<path d="M18.5 22.5V18H14.03V22.5H18.5Z" fill="#EC0606"/>
<path d="M11.8 22.5V18H7.33V22.5H11.8Z" fill="#EC0606"/>
<path d="M25.3 18H20.8V22.47H25.3V18Z" fill="#EC0606"/>
<path d="M38.7 18H34.2V22.47H38.7V18Z" fill="#EC0606"/>
<path d="M32 18H27.5V22.47H32V18Z" fill="#EC0606"/>
<path d="M18.5 28.8V24.3H14.03V28.8H18.5Z" fill="#EC0606"/>
<path d="M11.8 28.7V24.2H7.33V28.7H11.8Z" fill="#EC0606"/>
<path d="M25.3 24.3H20.8V28.77H25.3V24.3Z" fill="#EC0606"/>
<path d="M38.7 24.3H34.2V28.77H38.7V24.3Z" fill="#EC0606"/>
<path d="M32 24.3H27.5V28.77H32V24.3Z" fill="#EC0606"/>
<path d="M18.6 35.1V30.6H14.13V35.1H18.6Z" fill="#EC0606"/>
<path d="M11.8 35V30.5H7.33V35H11.8Z" fill="#EC0606"/>
<path d="M25.3 30.5H20.8V34.97H25.3V30.5Z" fill="#EC0606"/>
<path d="M38.7 30.5H34.2V34.97H38.7V30.5Z" fill="#EC0606"/>
<path d="M32 30.5H27.5V34.97H32V30.5Z" fill="#EC0606"/>
<path d="M44.2 38H1.8C0.805887 38 0 38.8059 0 39.8V41.2C0 42.1941 0.805887 43 1.8 43H44.2C45.1941 43 46 42.1941 46 41.2V39.8C46 38.8059 45.1941 38 44.2 38Z" fill="#EC0606"/>
<path d="M8.5 2.4V6.6C8.5 7.92548 9.56332 9 10.875 9C12.1867 9 13.25 7.92548 13.25 6.6V2.4C13.25 1.07452 12.1867 0 10.875 0C9.56332 0 8.5 1.07452 8.5 2.4Z" fill="#EC0606"/>
<path d="M8.5 6.6C8.5 7.23652 8.75286 7.84697 9.20294 8.29706C9.65303 8.74714 10.2635 9 10.9 9C11.5365 9 12.147 8.74714 12.5971 8.29706C13.0471 7.84697 13.3 7.23652 13.3 6.6V4H8.5V6.6Z" fill="#EC0606"/>
<path d="M35.1 0C34.4635 0 33.853 0.252856 33.4029 0.702944C32.9529 1.15303 32.7 1.76348 32.7 2.4V6.6C32.7 6.91517 32.7621 7.22726 32.8827 7.51844C33.0033 7.80962 33.1801 8.0742 33.4029 8.29706C33.6258 8.51992 33.8904 8.6967 34.1816 8.81731C34.4727 8.93792 34.7848 9 35.1 9C35.4152 9 35.7273 8.93792 36.0184 8.81731C36.3096 8.6967 36.5742 8.51992 36.7971 8.29706C37.0199 8.0742 37.1967 7.80962 37.3173 7.51844C37.4379 7.22726 37.5 6.91517 37.5 6.6V2.4C37.5 1.76348 37.2471 1.15303 36.7971 0.702944C36.347 0.252856 35.7365 0 35.1 0Z" fill="#EC0606"/>
<path d="M44.2 4H39.5V6.6C39.5 7.76695 39.0364 8.88611 38.2113 9.71127C37.3861 10.5364 36.267 11 35.1 11C33.933 11 32.8139 10.5364 31.9887 9.71127C31.1636 8.88611 30.7 7.76695 30.7 6.6V4H15.3V6.6C15.3 7.76695 14.8364 8.88611 14.0113 9.71127C13.1861 10.5364 12.067 11 10.9 11C9.73305 11 8.61389 10.5364 7.78873 9.71127C6.96357 8.88611 6.5 7.76695 6.5 6.6V4H1.8C1.32261 4 0.864773 4.18964 0.527208 4.52721C0.189642 4.86477 0 5.32261 0 5.8L0 13.2C0 13.4364 0.0465584 13.6704 0.137017 13.8888C0.227475 14.1072 0.360062 14.3056 0.527208 14.4728C0.694353 14.6399 0.892784 14.7725 1.11117 14.863C1.32956 14.9534 1.56362 15 1.8 15H44.2C44.4364 15 44.6704 14.9534 44.8888 14.863C45.1072 14.7725 45.3056 14.6399 45.4728 14.4728C45.6399 14.3056 45.7725 14.1072 45.863 13.8888C45.9534 13.6704 46 13.4364 46 13.2V5.8C46 5.32261 45.8104 4.86477 45.4728 4.52721C45.1352 4.18964 44.6774 4 44.2 4Z" fill="#EC0606"/>
</svg>
