<svg width="52" height="48" viewBox="0 0 52 48" fill="none" xmlns="http://www.w3.org/2000/svg">
<g clip-path="url(#clip0_5_108)">
<path d="M4.555 14.435L0.354996 22.885L10.305 21.915L4.555 14.435Z" fill="#EC0606"/>
<path d="M44.625 7.01499C39.155 1.54499 31.665 -0.705009 24.525 0.234991L25.445 4.13499C31.275 3.48499 37.345 5.38499 41.805 9.84499C49.605 17.645 49.605 30.335 41.805 38.135C34.005 45.935 21.315 45.935 13.515 38.135C9.025 33.645 6.925 27.205 7.895 20.915L3.945 20.305C2.775 27.845 5.295 35.575 10.695 40.965C15.375 45.645 21.525 47.985 27.665 47.985C33.805 47.985 39.955 45.645 44.635 40.965C53.995 31.605 53.995 16.385 44.635 7.02499L44.625 7.01499Z" fill="#EC0606"/>
<path d="M13.745 4.46499L15.995 7.77499C16.885 7.13499 17.805 6.56499 18.765 6.09499L17.045 2.48499C15.905 3.04499 14.805 3.71499 13.745 4.46499Z" fill="#EC0606"/>
<path d="M18.865 1.665L20.595 5.295C21.535 4.945 22.485 4.665 23.455 4.455L22.545 0.565002C21.295 0.835002 20.065 1.195 18.865 1.665Z" fill="#EC0606"/>
<path d="M10.685 7.015L13.515 9.845C13.805 9.555 14.115 9.295 14.415 9.025L12.145 5.685C11.645 6.105 11.145 6.535 10.675 7.005L10.685 7.015Z" fill="#EC0606"/>
<path d="M16.385 29.285L22.275 21.485C22.575 21.085 22.815 20.675 22.985 20.245C23.155 19.815 23.235 19.425 23.235 19.055V19.035C23.235 18.465 23.065 18.025 22.715 17.715C22.365 17.405 21.875 17.245 21.235 17.245C20.595 17.245 20.115 17.435 19.745 17.815C19.375 18.195 19.135 18.735 19.055 19.425L16.175 19.435C16.285 18.395 16.555 17.525 16.995 16.795C17.435 16.065 18.015 15.515 18.725 15.135C19.435 14.755 20.275 14.565 21.205 14.565C22.245 14.565 23.135 14.735 23.865 15.085C24.595 15.435 25.155 15.935 25.545 16.605C25.935 17.275 26.125 18.065 26.125 19.005C26.125 19.705 25.995 20.405 25.735 21.105C25.475 21.805 25.115 22.475 24.655 23.095L20.085 29.095H26.225V31.775H16.385V29.295V29.285Z" fill="#EC0606"/>
<path d="M27.315 26.655L32.795 14.745H35.845L30.505 26.515H38.505V29.165H27.315V26.655ZM34.435 21.755H37.205V31.785H34.435V21.755Z" fill="#EC0606"/>
</g>
<defs>
<clipPath id="clip0_5_108">
<rect width="51.29" height="47.95" fill="white" transform="translate(0.354996 0.0249939)"/>
</clipPath>
</defs>
</svg>
