<svg width="72" height="72" viewBox="0 0 72 72" fill="none" xmlns="http://www.w3.org/2000/svg">
<path d="M23 35C24.65 35 26 36.35 26 38C26 39.65 24.65 41 23 41C21.35 41 20 39.65 20 38C20 36.35 21.35 35 23 35ZM23 33C20.24 33 18 35.24 18 38C18 40.76 20.24 43 23 43C25.76 43 28 40.76 28 38C28 35.24 25.76 33 23 33Z" fill="#EC0606"/>
<path d="M1 36H0V40H1V36Z" fill="#EC0606"/>
<path d="M4 36H2V40H4V36Z" fill="#EC0606"/>
<path d="M10 36H6V40H10V36Z" fill="#EC0606"/>
<path d="M19 36H12V40H19V36Z" fill="#EC0606"/>
<path d="M25 42H21V62H25V42Z" fill="#EC0606"/>
<path d="M24 27H22V29H24V27Z" fill="#EC0606"/>
<path d="M24 20H22V22H24V20Z" fill="#EC0606"/>
<path d="M24 13H22V15H24V13Z" fill="#EC0606"/>
<path d="M31 37H29V39H31V37Z" fill="#EC0606"/>
<path d="M38 37H36V39H38V37Z" fill="#EC0606"/>
<path d="M38 13H36V15H38V13Z" fill="#EC0606"/>
<path d="M31 13H29V15H31V13Z" fill="#EC0606"/>
<path d="M42 19V9L47 14L42 19Z" fill="#EC0606"/>
<path d="M42 43V33L47 38L42 43Z" fill="#EC0606"/>
<path d="M42 58H25V62H42V58Z" fill="#EC0606"/>
<path d="M42 65V55L47 60L42 65Z" fill="#EC0606"/>
<path d="M51 3V19H65V3H51ZM57 8H53V5H57V8ZM63 8H59V5H63V8ZM57 13H53V10H57V13ZM63 13H59V10H63V13Z" fill="#EC0606"/>
<path d="M50 53V69H68V53H50ZM66 57H52V55H66V57ZM66 61H52V59H66V61ZM66 65H52V63H66V65ZM60 50H68V53H60V50Z" fill="#EC0606"/>
<path d="M52 44H49V29H51V33H52V44ZM69 33H68V44H71V29H69V33ZM55 33H66V39H54V33H55ZM57 37H63V35H57V37ZM66 41H63V44H66V41ZM57 41H54V44H57V41ZM58 41V44H62V41H58ZM52 29H53V27H52V25H68V27H67V29H68V31H52V29ZM55 29H57V27H55V29ZM63 29H65V27H63V29ZM61 27H59V29H61V27Z" fill="#EC0606"/>
</svg>
