<svg width="54" height="55" viewBox="0 0 54 55" fill="none" xmlns="http://www.w3.org/2000/svg">
<g clip-path="url(#clip0_6_926)">
<path d="M27 49L13 55H41L27 49Z" fill="#EC0606"/>
<path d="M21 18.51L4.84 29.83L6.56 32.28L21 22.17V18.51Z" fill="#EC0606"/>
<path d="M33 13.77L49.16 2.46L47.44 0L33 10.11V13.77Z" fill="#EC0606"/>
<path d="M31 9H23V23H31V9Z" fill="#EC0606"/>
<path d="M21 43H0V46H21V43Z" fill="#EC0606"/>
<path d="M17 39.5C17 40.88 15.88 42 14.5 42C13.12 42 12 40.88 12 39.5C12 38.12 13.12 37 14.5 37C15.88 37 17 38.12 17 39.5ZM15 38V39H14V38H13V40H14V41H15V40H16V38H15Z" fill="#EC0606"/>
<path d="M9 39.5C9 40.88 7.88 42 6.5 42C5.12 42 4 40.88 4 39.5C4 38.12 5.12 37 6.5 37C7.88 37 9 38.12 9 39.5ZM7 38V39H6V38H5V40H6V41H7V40H8V38H7Z" fill="#EC0606"/>
<path d="M54 30H33V33H54V30Z" fill="#EC0606"/>
<path d="M51 21.5C51 25.64 47.64 29 43.5 29C39.36 29 36 25.64 36 21.5C36 17.36 39.36 14 43.5 14C47.64 14 51 17.36 51 21.5ZM48 22V21H46L47.98 17H46L43.5 20L41 17H39L41 21H39V22H42V23H39V24H42V26H45V24H48V23H45V22H48Z" fill="#EC0606"/>
<path d="M29 25H25V47H29V25Z" fill="#EC0606"/>
<path d="M12 28H9V36H12V28Z" fill="#EC0606"/>
<path d="M45 5H42V13H45V5Z" fill="#EC0606"/>
</g>
<defs>
<clipPath id="clip0_6_926">
<rect width="54" height="55" fill="white"/>
</clipPath>
</defs>
</svg>
