<svg width="46" height="44" viewBox="0 0 46 44" fill="none" xmlns="http://www.w3.org/2000/svg">
<g clip-path="url(#clip0_6_909)">
<path d="M37.905 19.6099H0.594971V22.8099H37.905V19.6099Z" fill="#EC0606"/>
<path d="M37.905 0.419922H0.594971V3.61992H37.905V0.419922Z" fill="#EC0606"/>
<path d="M3.79497 1.24988H0.594971V42.7299H3.79497V1.24988Z" fill="#EC0606"/>
<path d="M37.905 0.739868H34.705V22.5599H37.905V0.739868Z" fill="#EC0606"/>
<path d="M17.405 37.73C19.0618 37.73 20.405 36.3868 20.405 34.73C20.405 33.0731 19.0618 31.73 17.405 31.73C15.7481 31.73 14.405 33.0731 14.405 34.73C14.405 36.3868 15.7481 37.73 17.405 37.73Z" fill="#EC0606"/>
<path d="M31.405 37.73C33.0618 37.73 34.405 36.3868 34.405 34.73C34.405 33.0731 33.0618 31.73 31.405 31.73C29.7481 31.73 28.405 33.0731 28.405 34.73C28.405 36.3868 29.7481 37.73 31.405 37.73Z" fill="#EC0606"/>
<path d="M42.405 29.73C44.0618 29.73 45.405 28.3868 45.405 26.73C45.405 25.0731 44.0618 23.73 42.405 23.73C40.7481 23.73 39.405 25.0731 39.405 26.73C39.405 28.3868 40.7481 29.73 42.405 29.73Z" fill="#EC0606"/>
<path d="M18.405 33.73L24.405 28.73L31.405 34.73L42.405 26.73" stroke="#EC0606" stroke-width="2" stroke-miterlimit="10"/>
<path d="M18.405 41.73L24.405 36.73L31.405 42.73L42.405 34.73" stroke="#EC0606" stroke-width="2" stroke-miterlimit="10"/>
<path d="M19.245 16.6099C21.9843 16.6099 24.205 14.3893 24.205 11.6499C24.205 8.91061 21.9843 6.68994 19.245 6.68994C16.5056 6.68994 14.285 8.91061 14.285 11.6499C14.285 14.3893 16.5056 16.6099 19.245 16.6099Z" fill="#EC0606"/>
</g>
<defs>
<clipPath id="clip0_6_909">
<rect width="44.81" height="43.58" fill="white" transform="translate(0.594971 0.419922)"/>
</clipPath>
</defs>
</svg>
