<svg width="40" height="47" viewBox="0 0 40 47" fill="none" xmlns="http://www.w3.org/2000/svg">
<path d="M34.6 17L32.8 42H7.2L5.4 17H34.6ZM40 12H0L2.6 47H37.4L40 12Z" fill="#EC0606"/>
<path d="M34 4C34.4 4 35 4.7 35 5.8C35 6.9 34.4 7.6 34 7.6H33.4L32.8 7.8L23.3 10.8C24.4 8.6 28.1 4.8 29.8 4H34ZM34 0H29.4C26.6 0 19 8 19 11.2V16.3L34 11.6C36.8 11.6 39 9 39 5.8C39 2.6 36.8 0 34 0Z" fill="#EC0606"/>
<path d="M10.2 4C11.9 4.8 15.6 8.6 16.7 10.8L7.2 7.8L6.6 7.6H6C5.6 7.6 5 6.9 5 5.8C5 4.7 5.6 4 6 4H10.2ZM10.6 0H6C3.2 0 1 2.6 1 5.8C1 9 3.2 11.6 6 11.6L21 16.3V11.2C21 8 13.4 0 10.6 0Z" fill="#EC0606"/>
<path d="M37 22H3V26H37V22Z" fill="#EC0606"/>
</svg>
