<?xml version="1.0" encoding="UTF-8"?><svg id="_レイヤー_2" xmlns="http://www.w3.org/2000/svg" viewBox="0 0 39.93 37.89"><defs><style>.cls-1{fill:#ec0606;}</style></defs><g id="_レイヤー_2-2"><g><path class="cls-1" d="M3.14,35.12c-1.96-1.85-2.95-4.43-2.95-7.75V10.52C.19,7.2,1.18,4.61,3.15,2.76,5.12,.92,8,0,11.78,0s6.68,.92,8.65,2.75,2.95,4.43,2.95,7.77V27.37c0,3.33-.99,5.92-2.96,7.76-1.97,1.84-4.85,2.76-8.63,2.76s-6.68-.93-8.65-2.78Zm13.74-3.04c1.09-1.1,1.63-2.66,1.63-4.7V10.52c0-2.05-.54-3.63-1.63-4.71-1.09-1.09-2.79-1.63-5.1-1.63s-4.01,.54-5.1,1.63-1.63,2.66-1.63,4.71V27.37c0,2.04,.54,3.61,1.63,4.7s2.79,1.64,5.1,1.64,4.01-.55,5.1-1.64Z"/><path class="cls-1" d="M38.31,31.09h-9.7v5.76h-1.62v-13.6h12.94v12.19c0,.77-.41,1.41-1.49,1.41h-2.65l-.29-1.54h2.35c.33,0,.45-.12,.45-.42v-3.79Zm-9.7-1.46h4.02v-4.92h-4.02v4.92Zm5.59,0h4.09v-4.92h-4.09v4.92Z"/><polygon class="cls-1" points="23 10.43 1.48 29.36 0 27.87 21.52 8.94 23 10.43"/></g></g></svg>