<svg width="44" height="50" viewBox="0 0 44 50" fill="none" xmlns="http://www.w3.org/2000/svg">
<g clip-path="url(#clip0_22_104)">
<path d="M27.365 35.86C27.055 36.44 26.635 36.92 26.095 37.32C25.555 37.71 24.915 38.01 24.165 38.2C23.835 38.28 23.495 38.34 23.145 38.39V40.57H20.545V38.43C19.805 38.37 19.095 38.25 18.425 38.07C17.405 37.79 16.075 36.66 16.075 36.66C15.965 36.59 15.885 36.48 15.865 36.35C15.845 36.22 15.895 36.09 15.985 35.99L17.295 34.68C17.435 34.54 17.655 34.51 17.825 34.62C17.825 34.62 18.805 35.47 19.545 35.67C20.285 35.87 21.015 35.97 21.755 35.97C22.675 35.97 23.445 35.81 24.045 35.48C24.655 35.15 24.955 34.64 24.955 33.95C24.955 33.45 24.805 33.06 24.505 32.77C24.205 32.48 23.705 32.3 22.995 32.22L20.655 32.02C19.275 31.89 18.205 31.5 17.455 30.87C16.705 30.24 16.325 29.27 16.325 27.99C16.325 27.28 16.465 26.64 16.755 26.09C17.045 25.53 17.435 25.06 17.935 24.68C18.435 24.3 19.015 24.01 19.685 23.82C19.965 23.74 20.255 23.69 20.545 23.64V21.76H23.145V23.6C23.755 23.66 24.335 23.76 24.865 23.91C25.775 24.16 26.735 24.91 26.735 24.91C26.855 24.97 26.935 25.09 26.955 25.22C26.975 25.36 26.935 25.49 26.835 25.59L25.615 26.83C25.485 26.96 25.285 27 25.115 26.91C25.115 26.91 24.385 26.39 23.765 26.23C23.135 26.07 22.485 25.99 21.785 25.99C20.885 25.99 20.215 26.16 19.775 26.51C19.345 26.86 19.125 27.31 19.125 27.87C19.125 28.37 19.275 28.76 19.585 29.02C19.895 29.29 20.415 29.46 21.145 29.54L23.195 29.72C24.715 29.85 25.865 30.26 26.645 30.93C27.425 31.6 27.815 32.59 27.815 33.87C27.815 34.64 27.665 35.31 27.355 35.89L27.365 35.86Z" fill="#EC0606"/>
<path d="M42.505 31.48C40.645 24.41 35.705 18.01 33.705 15.63C34.095 15.36 34.355 14.9 34.355 14.38C34.355 13.78 34.005 13.27 33.495 13.02L37.595 3.07002C37.645 2.95002 37.635 2.82002 37.585 2.71002C37.525 2.60002 37.425 2.52002 37.305 2.49002C37.305 2.49002 32.735 0.710022 30.155 0.710022C28.445 0.710022 26.645 1.11002 24.575 2.14002C23.745 2.56002 22.885 2.72002 21.995 2.74002C21.105 2.72002 20.245 2.55002 19.415 2.14002C17.345 1.11002 15.545 0.710022 13.835 0.710022C11.255 0.710022 6.68501 2.49002 6.68501 2.49002C6.56501 2.52002 6.46501 2.60002 6.40501 2.71002C6.34501 2.82002 6.34501 2.95002 6.39501 3.07002L10.495 13.02C9.98501 13.27 9.63501 13.78 9.63501 14.38C9.63501 14.9 9.89501 15.35 10.285 15.63C8.28501 18.02 3.34501 24.42 1.48501 31.48C-1.19499 41.68 4.78501 49.3 21.765 49.3C21.835 49.3 21.915 49.3 21.985 49.3C22.055 49.3 22.125 49.3 22.205 49.3C39.185 49.3 45.175 41.68 42.485 31.48H42.505ZM13.845 4.50002C15.085 4.50002 16.315 4.83002 17.725 5.53002C18.985 6.16002 20.385 6.49002 21.885 6.52002C21.885 6.52002 21.965 6.52002 22.005 6.52002C22.045 6.52002 22.085 6.52002 22.125 6.52002C23.625 6.47002 25.025 6.14002 26.285 5.51002C27.685 4.81002 28.925 4.48002 30.165 4.48002C30.995 4.48002 31.845 4.63002 32.745 4.87002L29.465 12.84H14.555L11.275 4.87002C12.175 4.63002 13.025 4.48002 13.855 4.48002L13.845 4.50002ZM37.825 40.67C35.425 43.79 29.885 45.5 22.215 45.5C22.185 45.5 22.145 45.5 22.115 45.5C22.115 45.5 22.035 45.5 21.995 45.5C21.955 45.5 21.915 45.5 21.875 45.5C21.875 45.5 21.805 45.5 21.775 45.5C14.115 45.5 8.57501 43.78 6.16501 40.67C4.59501 38.64 4.25501 35.87 5.15501 32.44C7.23501 24.54 13.875 17.28 13.935 17.21L15.155 15.9H28.815L30.035 17.21C30.095 17.28 36.735 24.54 38.815 32.44C39.715 35.86 39.375 38.63 37.805 40.67H37.825Z" fill="#EC0606"/>
</g>
<defs>
<clipPath id="clip0_22_104">
<rect width="42.23" height="48.6" fill="white" transform="translate(0.88501 0.700012)"/>
</clipPath>
</defs>
</svg>
