<?xml version="1.0" encoding="UTF-8"?><svg id="_レイヤー_2" xmlns="http://www.w3.org/2000/svg" viewBox="0 0 56.38 37.82"><defs><style>.cls-1{fill:#ec0606;}</style></defs><g id="_レイヤー_2-2"><g><path class="cls-1" d="M5.63,36.71c-1.58-.74-2.85-1.82-3.81-3.24-.96-1.42-1.57-3.13-1.82-5.13H4.48c.19,1.16,.57,2.12,1.15,2.91,.58,.78,1.33,1.37,2.25,1.76s2,.59,3.22,.59c1.97,0,3.5-.52,4.57-1.57s1.62-2.53,1.62-4.45v-1.12c0-1.97-.52-3.5-1.55-4.57-1.04-1.08-2.5-1.62-4.38-1.62h-2.62v-4.18h2.62c1.7,0,3.01-.47,3.94-1.4,.93-.93,1.39-2.25,1.39-3.95v-1.15c0-1.71-.49-3.04-1.47-3.96-.98-.93-2.36-1.39-4.14-1.39-1.02,0-1.93,.19-2.74,.57-.81,.38-1.49,.96-2.05,1.72-.56,.76-.97,1.7-1.22,2.8H.61c.34-1.95,.98-3.63,1.92-5.03,.94-1.4,2.14-2.47,3.59-3.2,1.45-.73,3.11-1.1,4.96-1.1,3.19,0,5.67,.84,7.42,2.52,1.75,1.68,2.62,4.05,2.62,7.11v.87c0,1.8-.45,3.36-1.36,4.69-.91,1.32-2.2,2.29-3.89,2.9,1.87,.43,3.31,1.39,4.33,2.89s1.53,3.42,1.53,5.75v.87c0,2.16-.42,4-1.25,5.53-.83,1.53-2.04,2.69-3.63,3.49-1.59,.8-3.5,1.2-5.75,1.2-2.07,0-3.9-.37-5.48-1.11Z"/><g><path class="cls-1" d="M32.41,22.66h1.53v1.58h6.3v1.56h-6.3v1.7h5.07v6.49c0,.36,0,1.61-1.37,1.61h-2.17l-.27-1.61h1.89c.31,0,.36-.15,.36-.45v-4.57h-3.51v7.86h-1.53v-7.86h-3.41v6.81h-1.58v-8.28h4.98v-1.7h-6.24v-1.56h6.24v-1.58Z"/><path class="cls-1" d="M48.58,31.96c-1.14,.97-1.96,1.3-2.5,1.53l-.36-.53c-1.91,.82-2.82,1.11-3.53,1.32l-.15-1.63c.34-.08,1.38-.38,1.62-.45v-4.95h-1.47v-1.48h1.47v-3.04h1.51v3.04h1.12v1.48h-1.12v4.47c.67-.21,.76-.24,1.14-.39l.06,.68c1.41-.69,1.99-1.41,2.46-2.06h-2.54v-1.18h10.08v1.18h-6.06c-.2,.32-.3,.5-.55,.83h6.19c0,.16-.06,4.18-.48,5.1-.39,.86-.98,.86-1.44,.86h-2.02l-.32-1.47h1.96c.45,0,.5-.2,.57-.58,.12-.62,.2-2.37,.21-2.71h-.72c-1.25,2.74-3.15,4.08-4.79,4.87l-.92-1.2c2.01-.84,3.12-1.71,4.3-3.67h-1.06c-1.65,2.26-3.6,3.16-5.19,3.73l-.73-1.1c.88-.27,2.73-.86,4.44-2.64h-1.2Zm-1.54-8.79h8.37v4.88h-8.37v-4.88Zm1.41,1.12v.87h5.52v-.87h-5.52Zm0,1.83v.88h5.52v-.88h-5.52Z"/></g></g></g></svg>