<svg width="61" height="56" viewBox="0 0 61 56" fill="none" xmlns="http://www.w3.org/2000/svg">
<path d="M26.0257 44.8183C26.0257 44.8183 25.9869 44.8261 25.9636 44.8338C25.9869 44.8338 26.0024 44.8261 26.0257 44.8183Z" fill="#EC0606"/>
<path d="M11.2718 44.8183C11.2718 44.8183 11.233 44.8261 11.2097 44.8338C11.233 44.8338 11.2485 44.8261 11.2718 44.8183Z" fill="#EC0606"/>
<path d="M26.0257 40.9593C26.0257 40.9593 25.9869 40.9671 25.9636 40.9748C25.9869 40.9748 26.0024 40.9671 26.0257 40.9593Z" fill="#EC0606"/>
<path d="M18.4936 44.8263C18.4936 44.8263 18.4548 44.8185 18.4315 44.8107C18.4548 44.8107 18.4703 44.8185 18.4936 44.8263Z" fill="#EC0606"/>
<path d="M40.7805 44.8183C40.7805 44.8183 40.7417 44.8261 40.7184 44.8338C40.7417 44.8338 40.7572 44.8261 40.7805 44.8183Z" fill="#EC0606"/>
<path d="M3.73919 44.8263C3.73919 44.8263 3.70036 44.8185 3.67706 44.8107C3.70036 44.8107 3.71589 44.8185 3.73919 44.8263Z" fill="#EC0606"/>
<path d="M18.4936 40.9663C18.4936 40.9663 18.4548 40.9586 18.4315 40.9508C18.4548 40.9508 18.4703 40.9586 18.4936 40.9663Z" fill="#EC0606"/>
<path d="M24.2554 45.1349C24.2554 45.1349 24.1933 45.135 24.1622 45.1427C24.1933 45.1427 24.2244 45.1427 24.2554 45.1349Z" fill="#EC0606"/>
<path d="M9.50127 45.1349C9.50127 45.1349 9.43914 45.135 9.40808 45.1427C9.43914 45.1427 9.4702 45.1427 9.50127 45.1349Z" fill="#EC0606"/>
<path d="M23.3778 45.2122C23.3001 45.2122 23.2225 45.22 23.1448 45.2278C23.2225 45.2278 23.3001 45.22 23.3778 45.2122Z" fill="#EC0606"/>
<path d="M24.2554 41.2755C24.2554 41.2755 24.1933 41.2755 24.1622 41.2832C24.1933 41.2832 24.2244 41.2832 24.2554 41.2755Z" fill="#EC0606"/>
<path d="M39.0098 45.1349C39.0098 45.1349 38.9477 45.135 38.9166 45.1427C38.9477 45.1427 38.9787 45.1427 39.0098 45.1349Z" fill="#EC0606"/>
<path d="M39.0098 37.4165C39.0098 37.4165 38.9477 37.4165 38.9166 37.4243C38.9477 37.4243 38.9787 37.4243 39.0098 37.4165Z" fill="#EC0606"/>
<path d="M8.62365 45.2122C8.54599 45.2122 8.46834 45.22 8.39069 45.2278C8.46834 45.2278 8.54599 45.22 8.62365 45.2122Z" fill="#EC0606"/>
<path d="M23.3778 41.3528C23.3001 41.3528 23.2225 41.3605 23.1448 41.3683C23.2225 41.3683 23.3001 41.3605 23.3778 41.3528Z" fill="#EC0606"/>
<path d="M20.3027 45.1427C20.3027 45.1427 20.2406 45.1427 20.2095 45.1349C20.2406 45.1349 20.2717 45.135 20.3027 45.1427Z" fill="#EC0606"/>
<path d="M38.1322 45.2122C38.0545 45.2122 37.9769 45.22 37.8992 45.2278C37.9769 45.2278 38.0545 45.22 38.1322 45.2122Z" fill="#EC0606"/>
<path d="M38.1322 37.4933C38.0545 37.4933 37.9769 37.5011 37.8992 37.5089C37.9769 37.5089 38.0545 37.5011 38.1322 37.4933Z" fill="#EC0606"/>
<path d="M21.3122 45.2278C21.2345 45.2278 21.1569 45.22 21.0792 45.2122C21.1569 45.2122 21.2345 45.22 21.3122 45.2278Z" fill="#EC0606"/>
<path d="M5.54832 45.1427C5.54832 45.1427 5.4862 45.1427 5.45514 45.1349C5.4862 45.1349 5.51726 45.135 5.54832 45.1427Z" fill="#EC0606"/>
<path d="M20.3027 41.2832C20.3027 41.2832 20.2406 41.2832 20.2095 41.2755C20.2406 41.2755 20.2717 41.2755 20.3027 41.2832Z" fill="#EC0606"/>
<path d="M35.0571 45.1427C35.0571 45.1427 34.995 45.1427 34.9639 45.1349C34.995 45.1349 35.0261 45.135 35.0571 45.1427Z" fill="#EC0606"/>
<path d="M35.0571 37.4243C35.0571 37.4243 34.995 37.4243 34.9639 37.4165C34.995 37.4165 35.0261 37.4165 35.0571 37.4243Z" fill="#EC0606"/>
<path d="M6.55828 45.2278C6.48063 45.2278 6.40297 45.22 6.32532 45.2122C6.40297 45.2122 6.48063 45.22 6.55828 45.2278Z" fill="#EC0606"/>
<path d="M21.3122 41.3683C21.2345 41.3683 21.1569 41.3605 21.0792 41.3528C21.1569 41.3528 21.2345 41.3605 21.3122 41.3683Z" fill="#EC0606"/>
<path d="M36.0668 45.2278C35.9892 45.2278 35.9115 45.22 35.8339 45.2122C35.9115 45.2122 35.9892 45.22 36.0668 45.2278Z" fill="#EC0606"/>
<path d="M36.0668 37.5089C35.9892 37.5089 35.9115 37.5011 35.8339 37.4933C35.9115 37.4933 35.9892 37.5011 36.0668 37.5089Z" fill="#EC0606"/>
<path d="M14.2934 43.1434C14.2934 43.1434 14.2772 43.1677 14.2692 43.1758C14.2692 43.1677 14.2853 43.1515 14.2934 43.1434Z" fill="#EC0606"/>
<path d="M29.0476 43.1434C29.0476 43.1434 29.0314 43.1677 29.0233 43.1758C29.0233 43.1677 29.0395 43.1515 29.0476 43.1434Z" fill="#EC0606"/>
<path d="M43.802 43.1434C43.802 43.1434 43.7858 43.1677 43.7777 43.1758C43.7777 43.1677 43.7939 43.1515 43.802 43.1434Z" fill="#EC0606"/>
<path d="M14.0772 43.429C14.0772 43.429 14.0772 43.429 14.0672 43.439C14.0672 43.439 14.0672 43.439 14.0772 43.429Z" fill="#EC0606"/>
<path d="M28.8316 43.429C28.8316 43.429 28.8316 43.429 28.8216 43.439C28.8216 43.439 28.8216 43.439 28.8316 43.429Z" fill="#EC0606"/>
<path d="M43.5855 43.429C43.5855 43.429 43.5855 43.429 43.5755 43.439C43.5755 43.439 43.5755 43.439 43.5855 43.429Z" fill="#EC0606"/>
<path d="M14.4163 42.8423C14.4163 42.8423 14.401 42.8805 14.3934 42.8958C14.3934 42.8805 14.4086 42.8576 14.4163 42.8423Z" fill="#EC0606"/>
<path d="M29.1702 42.8423C29.1702 42.8423 29.1549 42.8805 29.1473 42.8958C29.1473 42.8805 29.1626 42.8576 29.1702 42.8423Z" fill="#EC0606"/>
<path d="M43.9251 42.8423C43.9251 42.8423 43.9098 42.8805 43.9022 42.8958C43.9022 42.8805 43.9174 42.8576 43.9251 42.8423Z" fill="#EC0606"/>
<path d="M24.1547 45.143C23.8984 45.1741 23.6421 45.1896 23.3781 45.2129C23.6421 45.1974 23.9062 45.1741 24.1547 45.143Z" fill="#EC0606"/>
<path d="M12.7082 44.3324C12.4986 44.425 12.2734 44.5099 12.0327 44.5948C12.2734 44.5176 12.4986 44.425 12.7082 44.3324Z" fill="#EC0606"/>
<path d="M27.4626 44.3324C27.253 44.425 27.0278 44.5099 26.787 44.5948C27.0278 44.5176 27.253 44.425 27.4626 44.3324Z" fill="#EC0606"/>
<path d="M42.2168 44.3324C42.0071 44.425 41.7819 44.5099 41.5412 44.5948C41.7819 44.5176 42.0071 44.425 42.2168 44.3324Z" fill="#EC0606"/>
<path d="M25.0942 45.0115C24.8224 45.0581 24.5429 45.1047 24.2478 45.1358C24.5351 45.1047 24.8147 45.0581 25.0942 45.0115Z" fill="#EC0606"/>
<path d="M9.40026 45.143C9.144 45.1741 8.88774 45.1896 8.62372 45.2129C8.88774 45.1974 9.15177 45.1741 9.40026 45.143Z" fill="#EC0606"/>
<path d="M24.1547 41.2835C23.8984 41.3146 23.6421 41.3301 23.3781 41.3534C23.6421 41.3379 23.9062 41.3146 24.1547 41.2835Z" fill="#EC0606"/>
<path d="M38.9086 45.143C38.6523 45.1741 38.396 45.1896 38.132 45.2129C38.396 45.1974 38.6601 45.1741 38.9086 45.143Z" fill="#EC0606"/>
<path d="M38.9086 37.4245C38.6523 37.4556 38.396 37.4711 38.132 37.4944C38.396 37.4789 38.6601 37.4556 38.9086 37.4245Z" fill="#EC0606"/>
<path d="M14.4632 42.5492C14.4632 42.6495 14.4477 42.7499 14.4166 42.8425C14.4477 42.7422 14.4632 42.6495 14.4632 42.5492Z" fill="#EC0606"/>
<path d="M29.2174 42.5492C29.2174 42.6495 29.2018 42.7499 29.1708 42.8425C29.2018 42.7422 29.2174 42.6495 29.2174 42.5492Z" fill="#EC0606"/>
<path d="M43.9719 42.5492C43.9719 42.6495 43.9564 42.7499 43.9254 42.8425C43.9564 42.7422 43.9719 42.6495 43.9719 42.5492Z" fill="#EC0606"/>
<path d="M26.7791 44.5948C26.5384 44.672 26.2899 44.7492 26.0259 44.811C26.2899 44.7415 26.5462 44.672 26.7791 44.5948Z" fill="#EC0606"/>
<path d="M10.3398 45.0115C10.068 45.0581 9.78849 45.1047 9.49341 45.1358C9.78073 45.1047 10.0603 45.0581 10.3398 45.0115Z" fill="#EC0606"/>
<path d="M25.0942 41.152C24.8224 41.1986 24.5429 41.2452 24.2478 41.2762C24.5351 41.2452 24.8147 41.1986 25.0942 41.152Z" fill="#EC0606"/>
<path d="M25.9641 44.8264C25.7312 44.8807 25.4905 44.9351 25.2342 44.9817C25.4827 44.9351 25.7312 44.8807 25.9641 44.8264Z" fill="#EC0606"/>
<path d="M39.8484 45.0115C39.5766 45.0581 39.297 45.1047 39.002 45.1358C39.2893 45.1047 39.5688 45.0581 39.8484 45.0115Z" fill="#EC0606"/>
<path d="M39.8484 37.293C39.5766 37.3396 39.297 37.3862 39.002 37.4173C39.2893 37.3862 39.5688 37.3396 39.8484 37.293Z" fill="#EC0606"/>
<path d="M14.4011 42.8965C14.3701 42.9815 14.339 43.0586 14.2924 43.1358C14.339 43.0586 14.3701 42.9737 14.4011 42.8965Z" fill="#EC0606"/>
<path d="M29.1553 42.8965C29.1242 42.9815 29.0932 43.0586 29.0466 43.1358C29.0932 43.0586 29.1242 42.9737 29.1553 42.8965Z" fill="#EC0606"/>
<path d="M43.9097 42.8965C43.8786 42.9815 43.8476 43.0586 43.801 43.1358C43.8476 43.0586 43.8786 42.9737 43.9097 42.8965Z" fill="#EC0606"/>
<path d="M12.0247 44.5948C11.784 44.672 11.5355 44.7492 11.2715 44.811C11.5355 44.7415 11.7918 44.672 12.0247 44.5948Z" fill="#EC0606"/>
<path d="M26.7791 40.7354C26.5384 40.8126 26.2899 40.8898 26.0259 40.9515C26.2899 40.8821 26.5462 40.8126 26.7791 40.7354Z" fill="#EC0606"/>
<path d="M41.5335 44.5948C41.2928 44.672 41.0443 44.7492 40.7803 44.811C41.0443 44.7415 41.3006 44.672 41.5335 44.5948Z" fill="#EC0606"/>
<path d="M11.2095 44.8264C10.9765 44.8807 10.7358 44.9351 10.4796 44.9817C10.728 44.9351 10.9765 44.8807 11.2095 44.8264Z" fill="#EC0606"/>
<path d="M20.2019 45.1358C19.9146 45.1047 19.635 45.0581 19.3555 45.0115C19.6273 45.0581 19.9068 45.1047 20.2019 45.1358Z" fill="#EC0606"/>
<path d="M25.9641 40.9673C25.7312 41.0216 25.4905 41.076 25.2342 41.1226C25.4827 41.076 25.7312 41.0216 25.9641 40.9673Z" fill="#EC0606"/>
<path d="M40.718 44.8264C40.4851 44.8807 40.2444 44.9351 39.9881 44.9817C40.2366 44.9351 40.4851 44.8807 40.718 44.8264Z" fill="#EC0606"/>
<path d="M19.2233 44.9896C18.9748 44.943 18.7263 44.8886 18.4933 44.8343C18.7263 44.8886 18.967 44.943 19.2233 44.9896Z" fill="#EC0606"/>
<path d="M21.0795 45.2129C20.8154 45.1974 20.5514 45.1741 20.3029 45.143C20.5592 45.1741 20.8154 45.1896 21.0795 45.2129Z" fill="#EC0606"/>
<path d="M12.7161 44.3327C13.3062 44.078 13.7644 43.777 14.0595 43.4451C13.9741 43.5377 13.8809 43.6226 13.7799 43.7075C13.5004 43.9313 13.1432 44.1475 12.7161 44.3327Z" fill="#EC0606"/>
<path d="M27.4702 44.3327C28.0604 44.078 28.5185 43.777 28.8136 43.4451C28.7282 43.5377 28.635 43.6226 28.5341 43.7075C28.2545 43.9313 27.8973 44.1475 27.4702 44.3327Z" fill="#EC0606"/>
<path d="M42.2246 44.3327C42.8148 44.078 43.2729 43.777 43.568 43.4451C43.4826 43.5377 43.3894 43.6226 43.2885 43.7075C43.0089 43.9313 42.6517 44.1475 42.2246 44.3327Z" fill="#EC0606"/>
<path d="M18.4313 44.819C18.1673 44.7496 17.9111 44.6801 17.6781 44.6029C17.9188 44.6801 18.1673 44.7573 18.4313 44.819Z" fill="#EC0606"/>
<path d="M5.4475 45.1358C5.16018 45.1047 4.88063 45.0581 4.60107 45.0115C4.87286 45.0581 5.15242 45.1047 5.4475 45.1358Z" fill="#EC0606"/>
<path d="M20.2019 41.2762C19.9146 41.2452 19.635 41.1986 19.3555 41.152C19.6273 41.1986 19.9068 41.2452 20.2019 41.2762Z" fill="#EC0606"/>
<path d="M34.9562 45.1358C34.6689 45.1047 34.3894 45.0581 34.1098 45.0115C34.3816 45.0581 34.6611 45.1047 34.9562 45.1358Z" fill="#EC0606"/>
<path d="M34.9562 37.4173C34.6689 37.3862 34.3894 37.3396 34.1098 37.293C34.3816 37.3396 34.6611 37.3862 34.9562 37.4173Z" fill="#EC0606"/>
<path d="M4.46915 44.9896C4.22065 44.943 3.97216 44.8886 3.7392 44.8343C3.97216 44.8886 4.21289 44.943 4.46915 44.9896Z" fill="#EC0606"/>
<path d="M19.2233 41.1297C18.9748 41.0831 18.7263 41.0287 18.4933 40.9744C18.7263 41.0287 18.967 41.0831 19.2233 41.1297Z" fill="#EC0606"/>
<path d="M6.32506 45.2129C6.06104 45.1974 5.79702 45.1741 5.54852 45.143C5.80478 45.1741 6.06104 45.1896 6.32506 45.2129Z" fill="#EC0606"/>
<path d="M21.0795 41.3534C20.8154 41.3379 20.5514 41.3146 20.3029 41.2835C20.5592 41.3146 20.8154 41.3301 21.0795 41.3534Z" fill="#EC0606"/>
<path d="M35.8336 45.2129C35.5696 45.1974 35.3056 45.1741 35.0571 45.143C35.3133 45.1741 35.5696 45.1896 35.8336 45.2129Z" fill="#EC0606"/>
<path d="M35.8336 37.4944C35.5696 37.4789 35.3056 37.4556 35.0571 37.4245C35.3133 37.4556 35.5696 37.4711 35.8336 37.4944Z" fill="#EC0606"/>
<path d="M3.67701 44.819C3.41299 44.7496 3.15673 44.6801 2.92377 44.6029C3.16449 44.6801 3.41299 44.7573 3.67701 44.819Z" fill="#EC0606"/>
<path d="M26.0257 44.8183C26.0257 44.8183 25.9869 44.8261 25.9636 44.8338C25.9869 44.8338 26.0024 44.8261 26.0257 44.8183Z" fill="#EC0606"/>
<path d="M18.4313 40.9591C18.1673 40.8896 17.9111 40.8202 17.6781 40.743C17.9188 40.8202 18.1673 40.8974 18.4313 40.9591Z" fill="#EC0606"/>
<path d="M18.4936 44.8263C18.4936 44.8263 18.4548 44.8185 18.4315 44.8107C18.4548 44.8107 18.4703 44.8185 18.4936 44.8263Z" fill="#EC0606"/>
<path d="M24.2554 45.1349C24.2554 45.1349 24.1933 45.135 24.1622 45.1427C24.1933 45.1427 24.2244 45.1427 24.2554 45.1349Z" fill="#EC0606"/>
<path d="M23.3778 45.2122C23.3001 45.2122 23.2225 45.22 23.1448 45.2278C23.2225 45.2278 23.3001 45.22 23.3778 45.2122Z" fill="#EC0606"/>
<path d="M20.3027 45.1427C20.3027 45.1427 20.2406 45.1427 20.2095 45.1349C20.2406 45.1349 20.2717 45.135 20.3027 45.1427Z" fill="#EC0606"/>
<path d="M0 46.1317V48.3932C0 49.8829 3.12946 51.0948 6.98887 51.0948C10.8483 51.0948 13.9777 49.8829 13.9777 48.3932V46.1317C12.6499 47.3666 9.80772 48.0073 6.98887 48.0073C4.17003 48.0073 1.32789 47.3666 0 46.1317Z" fill="#EC0606"/>
<path d="M31.0699 46.1317V48.3932C31.0699 49.8829 34.1994 51.0948 38.0588 51.0948C41.9182 51.0948 45.0477 49.8829 45.0477 48.3932V46.1317C43.7198 47.3666 40.8777 48.0073 38.0588 48.0073C35.24 48.0073 32.3978 47.3666 31.0699 46.1317Z" fill="#EC0606"/>
<path d="M46.3136 46.1317V48.3932C46.3136 49.8829 49.4431 51.0948 53.3025 51.0948C57.1619 51.0948 60.2913 49.8829 60.2913 48.3932V46.1317C58.9635 47.3666 56.1213 48.0073 53.3025 48.0073C50.4836 48.0073 47.6415 47.3666 46.3136 46.1317Z" fill="#EC0606"/>
<path d="M15.535 46.1317V48.3932C15.535 49.8829 18.6644 51.0948 22.5238 51.0948C26.3833 51.0948 29.5127 49.8829 29.5127 48.3932V46.1317C28.1848 47.3666 25.3427 48.0073 22.5238 48.0073C19.705 48.0073 16.8629 47.3666 15.535 46.1317Z" fill="#EC0606"/>
<path d="M0 50.4745V52.7361C0 54.2258 3.12946 55.4377 6.98887 55.4377C10.8483 55.4377 13.9777 54.2258 13.9777 52.7361V50.4745C12.6499 51.7095 9.80772 52.3502 6.98887 52.3502C4.17003 52.3502 1.32789 51.7095 0 50.4745Z" fill="#EC0606"/>
<path d="M31.0699 50.4745V52.7361C31.0699 54.2258 34.1994 55.4377 38.0588 55.4377C41.9182 55.4377 45.0477 54.2258 45.0477 52.7361V50.4745C43.7198 51.7095 40.8777 52.3502 38.0588 52.3502C35.24 52.3502 32.3978 51.7095 31.0699 50.4745Z" fill="#EC0606"/>
<path d="M46.3136 50.4745V52.7361C46.3136 54.2258 49.4431 55.4377 53.3025 55.4377C57.1619 55.4377 60.2913 54.2258 60.2913 52.7361V50.4745C58.9635 51.7095 56.1213 52.3502 53.3025 52.3502C50.4836 52.3502 47.6415 51.7095 46.3136 50.4745Z" fill="#EC0606"/>
<path d="M15.535 50.4745V52.7361C15.535 54.2258 18.6644 55.4377 22.5238 55.4377C26.3833 55.4377 29.5127 54.2258 29.5127 52.7361V50.4745C28.1848 51.7095 25.3427 52.3502 22.5238 52.3502C19.705 52.3502 16.8629 51.7095 15.535 50.4745Z" fill="#EC0606"/>
<path d="M21.3122 45.2278C21.2345 45.2278 21.1569 45.22 21.0792 45.2122C21.1569 45.2122 21.2345 45.22 21.3122 45.2278Z" fill="#EC0606"/>
<path d="M11.2718 44.8183C11.2718 44.8183 11.233 44.8261 11.2097 44.8338C11.233 44.8338 11.2485 44.8261 11.2718 44.8183Z" fill="#EC0606"/>
<path d="M26.0257 40.9593C26.0257 40.9593 25.9869 40.9671 25.9636 40.9748C25.9869 40.9748 26.0024 40.9671 26.0257 40.9593Z" fill="#EC0606"/>
<path d="M40.7805 44.8183C40.7805 44.8183 40.7417 44.8261 40.7184 44.8338C40.7417 44.8338 40.7572 44.8261 40.7805 44.8183Z" fill="#EC0606"/>
<path d="M3.73919 44.8263C3.73919 44.8263 3.70036 44.8185 3.67706 44.8107C3.70036 44.8107 3.71589 44.8185 3.73919 44.8263Z" fill="#EC0606"/>
<path d="M18.4936 40.9663C18.4936 40.9663 18.4548 40.9586 18.4315 40.9508C18.4548 40.9508 18.4703 40.9586 18.4936 40.9663Z" fill="#EC0606"/>
<path d="M9.50127 45.1349C9.50127 45.1349 9.43914 45.135 9.40808 45.1427C9.43914 45.1427 9.4702 45.1427 9.50127 45.1349Z" fill="#EC0606"/>
<path d="M24.2554 41.2755C24.2554 41.2755 24.1933 41.2755 24.1622 41.2832C24.1933 41.2832 24.2244 41.2832 24.2554 41.2755Z" fill="#EC0606"/>
<path d="M39.0098 45.1349C39.0098 45.1349 38.9477 45.135 38.9166 45.1427C38.9477 45.1427 38.9787 45.1427 39.0098 45.1349Z" fill="#EC0606"/>
<path d="M39.0098 37.4165C39.0098 37.4165 38.9477 37.4165 38.9166 37.4243C38.9477 37.4243 38.9787 37.4243 39.0098 37.4165Z" fill="#EC0606"/>
<path d="M8.62365 45.2122C8.54599 45.2122 8.46834 45.22 8.39069 45.2278C8.46834 45.2278 8.54599 45.22 8.62365 45.2122Z" fill="#EC0606"/>
<path d="M23.3778 41.3528C23.3001 41.3528 23.2225 41.3605 23.1448 41.3683C23.2225 41.3683 23.3001 41.3605 23.3778 41.3528Z" fill="#EC0606"/>
<path d="M38.1322 45.2122C38.0545 45.2122 37.9769 45.22 37.8992 45.2278C37.9769 45.2278 38.0545 45.22 38.1322 45.2122Z" fill="#EC0606"/>
<path d="M38.1322 37.4933C38.0545 37.4933 37.9769 37.5011 37.8992 37.5089C37.9769 37.5089 38.0545 37.5011 38.1322 37.4933Z" fill="#EC0606"/>
<path d="M5.54832 45.1427C5.54832 45.1427 5.4862 45.1427 5.45514 45.1349C5.4862 45.1349 5.51726 45.135 5.54832 45.1427Z" fill="#EC0606"/>
<path d="M20.3027 41.2832C20.3027 41.2832 20.2406 41.2832 20.2095 41.2755C20.2406 41.2755 20.2717 41.2755 20.3027 41.2832Z" fill="#EC0606"/>
<path d="M24.1547 45.143C23.8984 45.1741 23.6421 45.1896 23.3781 45.2129C23.6421 45.1974 23.9062 45.1741 24.1547 45.143Z" fill="#EC0606"/>
<path d="M35.0571 45.1427C35.0571 45.1427 34.995 45.1427 34.9639 45.1349C34.995 45.1349 35.0261 45.135 35.0571 45.1427Z" fill="#EC0606"/>
<path d="M35.0571 37.4243C35.0571 37.4243 34.995 37.4243 34.9639 37.4165C34.995 37.4165 35.0261 37.4165 35.0571 37.4243Z" fill="#EC0606"/>
<path d="M6.55828 45.2278C6.48063 45.2278 6.40297 45.22 6.32532 45.2122C6.40297 45.2122 6.48063 45.22 6.55828 45.2278Z" fill="#EC0606"/>
<path d="M21.3122 41.3683C21.2345 41.3683 21.1569 41.3605 21.0792 41.3528C21.1569 41.3528 21.2345 41.3605 21.3122 41.3683Z" fill="#EC0606"/>
<path d="M36.0668 45.2278C35.9892 45.2278 35.9115 45.22 35.8339 45.2122C35.9115 45.2122 35.9892 45.22 36.0668 45.2278Z" fill="#EC0606"/>
<path d="M36.0668 37.5089C35.9892 37.5089 35.9115 37.5011 35.8339 37.4933C35.9115 37.4933 35.9892 37.5011 36.0668 37.5089Z" fill="#EC0606"/>
<path d="M25.0942 45.0115C24.8224 45.0581 24.5429 45.1047 24.2478 45.1358C24.5351 45.1047 24.8147 45.0581 25.0942 45.0115Z" fill="#EC0606"/>
<path d="M14.2934 43.1434C14.2934 43.1434 14.2772 43.1677 14.2692 43.1758C14.2692 43.1677 14.2853 43.1515 14.2934 43.1434Z" fill="#EC0606"/>
<path d="M29.0476 43.1434C29.0476 43.1434 29.0314 43.1677 29.0233 43.1758C29.0233 43.1677 29.0395 43.1515 29.0476 43.1434Z" fill="#EC0606"/>
<path d="M43.802 43.1434C43.802 43.1434 43.7858 43.1677 43.7777 43.1758C43.7777 43.1677 43.7939 43.1515 43.802 43.1434Z" fill="#EC0606"/>
<path d="M14.0772 43.429C14.0772 43.429 14.0772 43.429 14.0672 43.439C14.0672 43.439 14.0672 43.439 14.0772 43.429Z" fill="#EC0606"/>
<path d="M28.8316 43.429C28.8316 43.429 28.8316 43.429 28.8216 43.439C28.8216 43.439 28.8216 43.439 28.8316 43.429Z" fill="#EC0606"/>
<path d="M43.5855 43.429C43.5855 43.429 43.5855 43.429 43.5755 43.439C43.5755 43.439 43.5755 43.439 43.5855 43.429Z" fill="#EC0606"/>
<path d="M14.4163 42.8423C14.4163 42.8423 14.401 42.8805 14.3934 42.8958C14.3934 42.8805 14.4086 42.8576 14.4163 42.8423Z" fill="#EC0606"/>
<path d="M26.7791 44.5948C26.5384 44.672 26.2899 44.7492 26.0259 44.811C26.2899 44.7415 26.5462 44.672 26.7791 44.5948Z" fill="#EC0606"/>
<path d="M29.1702 42.8423C29.1702 42.8423 29.1549 42.8805 29.1473 42.8958C29.1473 42.8805 29.1626 42.8576 29.1702 42.8423Z" fill="#EC0606"/>
<path d="M43.9251 42.8423C43.9251 42.8423 43.9098 42.8805 43.9022 42.8958C43.9022 42.8805 43.9174 42.8576 43.9251 42.8423Z" fill="#EC0606"/>
<path d="M25.9641 44.8264C25.7312 44.8807 25.4905 44.9351 25.2342 44.9817C25.4827 44.9351 25.7312 44.8807 25.9641 44.8264Z" fill="#EC0606"/>
<path d="M12.7082 44.3324C12.4986 44.425 12.2734 44.5099 12.0327 44.5948C12.2734 44.5176 12.4986 44.425 12.7082 44.3324Z" fill="#EC0606"/>
<path d="M27.4626 44.3324C27.253 44.425 27.0278 44.5099 26.787 44.5948C27.0278 44.5176 27.253 44.425 27.4626 44.3324Z" fill="#EC0606"/>
<path d="M42.2168 44.3324C42.0071 44.425 41.7819 44.5099 41.5412 44.5948C41.7819 44.5176 42.0071 44.425 42.2168 44.3324Z" fill="#EC0606"/>
<path d="M9.40026 45.143C9.144 45.1741 8.88774 45.1896 8.62372 45.2129C8.88774 45.1974 9.15177 45.1741 9.40026 45.143Z" fill="#EC0606"/>
<path d="M24.1547 41.2835C23.8984 41.3146 23.6421 41.3301 23.3781 41.3534C23.6421 41.3379 23.9062 41.3146 24.1547 41.2835Z" fill="#EC0606"/>
<path d="M20.2019 45.1358C19.9146 45.1047 19.635 45.0581 19.3555 45.0115C19.6273 45.0581 19.9068 45.1047 20.2019 45.1358Z" fill="#EC0606"/>
<path d="M38.9086 45.143C38.6523 45.1741 38.396 45.1896 38.132 45.2129C38.396 45.1974 38.6601 45.1741 38.9086 45.143Z" fill="#EC0606"/>
<path d="M38.9086 37.4245C38.6523 37.4556 38.396 37.4711 38.132 37.4944C38.396 37.4789 38.6601 37.4556 38.9086 37.4245Z" fill="#EC0606"/>
<path d="M14.4632 42.5492C14.4632 42.6495 14.4477 42.7499 14.4166 42.8425C14.4477 42.7422 14.4632 42.6495 14.4632 42.5492Z" fill="#EC0606"/>
<path d="M19.2233 44.9896C18.9748 44.943 18.7263 44.8886 18.4933 44.8343C18.7263 44.8886 18.967 44.943 19.2233 44.9896Z" fill="#EC0606"/>
<path d="M29.2174 42.5492C29.2174 42.6495 29.2018 42.7499 29.1708 42.8425C29.2018 42.7422 29.2174 42.6495 29.2174 42.5492Z" fill="#EC0606"/>
<path d="M21.0795 45.2129C20.8154 45.1974 20.5514 45.1741 20.3029 45.143C20.5592 45.1741 20.8154 45.1896 21.0795 45.2129Z" fill="#EC0606"/>
<path d="M43.9719 42.5492C43.9719 42.6495 43.9564 42.7499 43.9254 42.8425C43.9564 42.7422 43.9719 42.6495 43.9719 42.5492Z" fill="#EC0606"/>
<path d="M10.3398 45.0115C10.068 45.0581 9.78849 45.1047 9.49341 45.1358C9.78073 45.1047 10.0603 45.0581 10.3398 45.0115Z" fill="#EC0606"/>
<path d="M25.0942 41.152C24.8224 41.1986 24.5429 41.2452 24.2478 41.2762C24.5351 41.2452 24.8147 41.1986 25.0942 41.152Z" fill="#EC0606"/>
<path d="M39.8484 45.0115C39.5766 45.0581 39.297 45.1047 39.002 45.1358C39.2893 45.1047 39.5688 45.0581 39.8484 45.0115Z" fill="#EC0606"/>
<path d="M39.8484 37.293C39.5766 37.3396 39.297 37.3862 39.002 37.4173C39.2893 37.3862 39.5688 37.3396 39.8484 37.293Z" fill="#EC0606"/>
<path d="M18.4313 44.819C18.1673 44.7496 17.9111 44.6801 17.6781 44.6029C17.9188 44.6801 18.1673 44.7573 18.4313 44.819Z" fill="#EC0606"/>
<path d="M14.4011 42.8965C14.3701 42.9815 14.339 43.0586 14.2924 43.1358C14.339 43.0586 14.3701 42.9737 14.4011 42.8965Z" fill="#EC0606"/>
<path d="M29.1553 42.8965C29.1242 42.9815 29.0932 43.0586 29.0466 43.1358C29.0932 43.0586 29.1242 42.9737 29.1553 42.8965Z" fill="#EC0606"/>
<path d="M43.9097 42.8965C43.8786 42.9815 43.8476 43.0586 43.801 43.1358C43.8476 43.0586 43.8786 42.9737 43.9097 42.8965Z" fill="#EC0606"/>
<path d="M12.0247 44.5948C11.784 44.672 11.5355 44.7492 11.2715 44.811C11.5355 44.7415 11.7918 44.672 12.0247 44.5948Z" fill="#EC0606"/>
<path d="M26.7791 40.7354C26.5384 40.8126 26.2899 40.8898 26.0259 40.9515C26.2899 40.8821 26.5462 40.8126 26.7791 40.7354Z" fill="#EC0606"/>
<path d="M41.5335 44.5948C41.2928 44.672 41.0443 44.7492 40.7803 44.811C41.0443 44.7415 41.3006 44.672 41.5335 44.5948Z" fill="#EC0606"/>
<path d="M11.2095 44.8264C10.9765 44.8807 10.7358 44.9351 10.4796 44.9817C10.728 44.9351 10.9765 44.8807 11.2095 44.8264Z" fill="#EC0606"/>
<path d="M25.9641 40.9673C25.7312 41.0216 25.4905 41.076 25.2342 41.1226C25.4827 41.076 25.7312 41.0216 25.9641 40.9673Z" fill="#EC0606"/>
<path d="M40.718 44.8264C40.4851 44.8807 40.2444 44.9351 39.9881 44.9817C40.2366 44.9351 40.4851 44.8807 40.718 44.8264Z" fill="#EC0606"/>
<path d="M12.7161 44.3327C13.3062 44.078 13.7644 43.777 14.0595 43.4451C13.9741 43.5377 13.8809 43.6226 13.7799 43.7075C13.5004 43.9313 13.1432 44.1475 12.7161 44.3327Z" fill="#EC0606"/>
<path d="M27.4702 44.3327C28.0604 44.078 28.5185 43.777 28.8136 43.4451C28.7282 43.5377 28.635 43.6226 28.5341 43.7075C28.2545 43.9313 27.8973 44.1475 27.4702 44.3327Z" fill="#EC0606"/>
<path d="M42.2246 44.3327C42.8148 44.078 43.2729 43.777 43.568 43.4451C43.4826 43.5377 43.3894 43.6226 43.2885 43.7075C43.0089 43.9313 42.6517 44.1475 42.2246 44.3327Z" fill="#EC0606"/>
<path d="M5.4475 45.1358C5.16018 45.1047 4.88063 45.0581 4.60107 45.0115C4.87286 45.0581 5.15242 45.1047 5.4475 45.1358Z" fill="#EC0606"/>
<path d="M20.2019 41.2762C19.9146 41.2452 19.635 41.1986 19.3555 41.152C19.6273 41.1986 19.9068 41.2452 20.2019 41.2762Z" fill="#EC0606"/>
<path d="M34.9562 45.1358C34.6689 45.1047 34.3894 45.0581 34.1098 45.0115C34.3816 45.0581 34.6611 45.1047 34.9562 45.1358Z" fill="#EC0606"/>
<path d="M34.9562 37.4173C34.6689 37.3862 34.3894 37.3396 34.1098 37.293C34.3816 37.3396 34.6611 37.3862 34.9562 37.4173Z" fill="#EC0606"/>
<path d="M4.46915 44.9896C4.22065 44.943 3.97216 44.8886 3.7392 44.8343C3.97216 44.8886 4.21289 44.943 4.46915 44.9896Z" fill="#EC0606"/>
<path d="M19.2233 41.1297C18.9748 41.0831 18.7263 41.0287 18.4933 40.9744C18.7263 41.0287 18.967 41.0831 19.2233 41.1297Z" fill="#EC0606"/>
<path d="M6.32506 45.2129C6.06104 45.1974 5.79702 45.1741 5.54852 45.143C5.80478 45.1741 6.06104 45.1896 6.32506 45.2129Z" fill="#EC0606"/>
<path d="M21.0795 41.3534C20.8154 41.3379 20.5514 41.3146 20.3029 41.2835C20.5592 41.3146 20.8154 41.3301 21.0795 41.3534Z" fill="#EC0606"/>
<path d="M35.8336 45.2129C35.5696 45.1974 35.3056 45.1741 35.0571 45.143C35.3133 45.1741 35.5696 45.1896 35.8336 45.2129Z" fill="#EC0606"/>
<path d="M35.8336 37.4944C35.5696 37.4789 35.3056 37.4556 35.0571 37.4245C35.3133 37.4556 35.5696 37.4711 35.8336 37.4944Z" fill="#EC0606"/>
<path d="M3.67701 44.819C3.41299 44.7496 3.15673 44.6801 2.92377 44.6029C3.16449 44.6801 3.41299 44.7573 3.67701 44.819Z" fill="#EC0606"/>
<path d="M18.4313 40.9591C18.1673 40.8896 17.9111 40.8202 17.6781 40.743C17.9188 40.8202 18.1673 40.8974 18.4313 40.9591Z" fill="#EC0606"/>
<path d="M12.8052 42.5768C11.3142 43.3101 9.14766 43.6883 6.98887 43.6883C4.83009 43.6883 2.66354 43.3101 1.17258 42.5768C0.714418 42.353 0.318382 42.0983 0 41.8127V44.0743C0 44.1746 0.0155308 44.2749 0.0465925 44.3676C0.0465925 44.383 0.0621233 44.4062 0.0698887 44.4216C0.10095 44.5065 0.132012 44.5837 0.178605 44.6609C0.178605 44.6763 0.194135 44.684 0.201901 44.6918C0.256259 44.7767 0.318382 44.8616 0.396036 44.9465C0.396036 44.9465 0.396036 44.9465 0.403802 44.9542C0.489221 45.0468 0.582406 45.1317 0.683356 45.2166C0.962911 45.4405 1.32012 45.6566 1.74722 45.8418C1.74722 45.8418 1.74722 45.8418 1.75498 45.8418C1.96465 45.9345 2.18985 46.0194 2.43057 46.1043C2.6713 46.1815 2.9198 46.2586 3.18382 46.3204C3.20712 46.3204 3.22265 46.3281 3.24594 46.3358C3.47891 46.3899 3.71963 46.4439 3.97589 46.4902C4.02248 46.4979 4.06908 46.5056 4.11567 46.5134C4.38746 46.5597 4.66701 46.606 4.9621 46.6369C4.99316 46.6369 5.02422 46.6369 5.05529 46.6446C5.31154 46.6755 5.5678 46.6909 5.83183 46.714C5.90948 46.714 5.98713 46.7218 6.06479 46.7295C6.36764 46.7449 6.67049 46.7526 6.98111 46.7526C7.29172 46.7526 7.59458 46.7449 7.89743 46.7295C7.97508 46.7295 8.05274 46.7218 8.13039 46.714C8.39441 46.6986 8.65844 46.6755 8.90693 46.6446C8.93799 46.6446 8.96905 46.6446 9.00012 46.6369C9.28744 46.606 9.56699 46.5597 9.84655 46.5134C9.89314 46.5056 9.93973 46.4979 9.98632 46.4902C10.2348 46.4439 10.4833 46.3899 10.7163 46.3358C10.7396 46.3358 10.7551 46.3281 10.7784 46.3204C11.0424 46.2509 11.2987 46.1815 11.5316 46.1043C11.7724 46.0271 11.9976 45.9345 12.2072 45.8418C12.2072 45.8418 12.2072 45.8418 12.215 45.8418C12.6421 45.6566 12.9993 45.4482 13.2789 45.2166C13.3876 45.1317 13.4808 45.0391 13.5584 44.9542C13.5584 44.9542 13.5584 44.9542 13.5662 44.9465C13.6438 44.8616 13.706 44.7767 13.7603 44.6918C13.7603 44.6763 13.7758 44.6686 13.7836 44.6609C13.8302 44.5837 13.8613 44.4988 13.8923 44.4216C13.8923 44.4062 13.9079 44.383 13.9156 44.3676C13.9467 44.2672 13.9622 44.1746 13.9622 44.0743V41.8127C13.6516 42.0983 13.2478 42.353 12.7896 42.5768H12.8052Z" fill="#EC0606"/>
<path d="M43.8751 42.5768C42.3842 43.3101 40.2176 43.6883 38.0588 43.6883C35.9 43.6883 33.7335 43.3101 32.2425 42.5768C31.7844 42.353 31.3883 42.0983 31.0699 41.8127V44.0743C31.0699 44.1746 31.0855 44.2749 31.1165 44.3676C31.1165 44.383 31.1321 44.4062 31.1398 44.4216C31.1709 44.5065 31.202 44.5837 31.2486 44.6609C31.2486 44.6763 31.2641 44.684 31.2718 44.6918C31.3262 44.7767 31.3883 44.8616 31.466 44.9465C31.466 44.9465 31.466 44.9465 31.4737 44.9542C31.5592 45.0468 31.6524 45.1317 31.7533 45.2166C32.0329 45.4405 32.3901 45.6566 32.8172 45.8418C32.8172 45.8418 32.8172 45.8418 32.8249 45.8418C33.0346 45.9345 33.2598 46.0194 33.5005 46.1043C33.7412 46.1815 33.9897 46.2586 34.2538 46.3204C34.2771 46.3204 34.2926 46.3281 34.3159 46.3358C34.5489 46.3899 34.7896 46.4439 35.0458 46.4902C35.0924 46.4979 35.139 46.5056 35.1856 46.5134C35.4574 46.5597 35.737 46.606 36.032 46.6369C36.0631 46.6369 36.0942 46.6369 36.1252 46.6446C36.3815 46.6755 36.6377 46.6909 36.9018 46.714C36.9794 46.714 37.0571 46.7218 37.1347 46.7295C37.4376 46.7449 37.7404 46.7526 38.0511 46.7526C38.3617 46.7526 38.6645 46.7449 38.9674 46.7295C39.045 46.7295 39.1227 46.7218 39.2003 46.714C39.4644 46.6986 39.7284 46.6755 39.9769 46.6446C40.0079 46.6446 40.039 46.6446 40.0701 46.6369C40.3574 46.606 40.6369 46.5597 40.9165 46.5134C40.9631 46.5056 41.0097 46.4979 41.0563 46.4902C41.3048 46.4439 41.5533 46.3899 41.7862 46.3358C41.8095 46.3358 41.825 46.3281 41.8483 46.3204C42.1124 46.2509 42.3686 46.1815 42.6016 46.1043C42.8423 46.0271 43.0675 45.9345 43.2772 45.8418C43.2772 45.8418 43.2772 45.8418 43.2849 45.8418C43.712 45.6566 44.0693 45.4482 44.3488 45.2166C44.4575 45.1317 44.5507 45.0391 44.6284 44.9542C44.6284 44.9542 44.6284 44.9542 44.6361 44.9465C44.7138 44.8616 44.7759 44.7767 44.8303 44.6918C44.8303 44.6763 44.8458 44.6686 44.8536 44.6609C44.9001 44.5837 44.9312 44.4988 44.9623 44.4216C44.9623 44.4062 44.9778 44.383 44.9856 44.3676C45.0166 44.2672 45.0322 44.1746 45.0322 44.0743V41.8127C44.7215 42.0983 44.3177 42.353 43.8596 42.5768H43.8751Z" fill="#EC0606"/>
<path d="M59.1188 42.5768C57.6278 43.3101 55.4613 43.6883 53.3025 43.6883C51.1437 43.6883 48.9771 43.3101 47.4862 42.5768C47.028 42.353 46.632 42.0983 46.3136 41.8127V44.0743C46.3136 44.1746 46.3291 44.2749 46.3602 44.3676C46.3602 44.383 46.3757 44.4062 46.3835 44.4216C46.4145 44.5065 46.4456 44.5837 46.4922 44.6609C46.4922 44.6763 46.5077 44.684 46.5155 44.6918C46.5699 44.7767 46.632 44.8616 46.7096 44.9465C46.7096 44.9465 46.7096 44.9465 46.7174 44.9542C46.8028 45.0468 46.896 45.1317 46.997 45.2166C47.2765 45.4405 47.6337 45.6566 48.0608 45.8418C48.0608 45.8418 48.0608 45.8418 48.0686 45.8418C48.2782 45.9345 48.5034 46.0194 48.7442 46.1043C48.9849 46.1815 49.2334 46.2586 49.4974 46.3204C49.5207 46.3204 49.5362 46.3281 49.5595 46.3358C49.7925 46.3899 50.0332 46.4439 50.2895 46.4902C50.3361 46.4979 50.3827 46.5056 50.4293 46.5134C50.7011 46.5597 50.9806 46.606 51.2757 46.6369C51.3068 46.6369 51.3378 46.6369 51.3689 46.6446C51.6251 46.6755 51.8814 46.6909 52.1454 46.714C52.2231 46.714 52.3007 46.7218 52.3784 46.7295C52.6812 46.7449 52.9841 46.7526 53.2947 46.7526C53.6053 46.7526 53.9082 46.7449 54.211 46.7295C54.2887 46.7295 54.3663 46.7218 54.444 46.714C54.708 46.6986 54.972 46.6755 55.2205 46.6446C55.2516 46.6446 55.2827 46.6446 55.3137 46.6369C55.601 46.606 55.8806 46.5597 56.1601 46.5134C56.2067 46.5056 56.2533 46.4979 56.2999 46.4902C56.5484 46.4439 56.7969 46.3899 57.0299 46.3358C57.0532 46.3358 57.0687 46.3281 57.092 46.3204C57.356 46.2509 57.6123 46.1815 57.8452 46.1043C58.086 46.0271 58.3112 45.9345 58.5208 45.8418C58.5208 45.8418 58.5208 45.8418 58.5286 45.8418C58.9557 45.6566 59.3129 45.4482 59.5925 45.2166C59.7012 45.1317 59.7944 45.0391 59.872 44.9542C59.872 44.9542 59.872 44.9542 59.8798 44.9465C59.9574 44.8616 60.0196 44.7767 60.0739 44.6918C60.0739 44.6763 60.0894 44.6686 60.0972 44.6609C60.1438 44.5837 60.1749 44.4988 60.2059 44.4216C60.2059 44.4062 60.2215 44.383 60.2292 44.3676C60.2603 44.2672 60.2758 44.1746 60.2758 44.0743V41.8127C59.9652 42.0983 59.5614 42.353 59.1032 42.5768H59.1188Z" fill="#EC0606"/>
<path d="M43.8751 38.1713C42.3842 38.9045 40.2176 39.2827 38.0588 39.2827C35.9 39.2827 33.7335 38.9045 32.2425 38.1713C31.7844 37.9474 31.3883 37.6927 31.0699 37.4071V39.6687C31.0699 39.769 31.0855 39.8694 31.1165 39.962C31.1165 39.9774 31.1321 40.0006 31.1398 40.016C31.1709 40.1009 31.202 40.1781 31.2486 40.2553C31.2486 40.2707 31.2641 40.2785 31.2718 40.2862C31.3262 40.3711 31.3883 40.456 31.466 40.5409C31.466 40.5409 31.466 40.5409 31.4737 40.5486C31.5592 40.6412 31.6524 40.7261 31.7533 40.811C32.0329 41.0349 32.3901 41.251 32.8172 41.4363C32.8172 41.4363 32.8172 41.4363 32.8249 41.4363C33.0346 41.5289 33.2598 41.6138 33.5005 41.6987C33.7412 41.7759 33.9897 41.8531 34.2538 41.9148C34.2771 41.9148 34.2926 41.9225 34.3159 41.9303C34.5489 41.9843 34.7896 42.0383 35.0458 42.0846C35.0924 42.0923 35.139 42.1001 35.1856 42.1078C35.4574 42.1541 35.737 42.2004 36.032 42.2313C36.0631 42.2313 36.0942 42.2313 36.1252 42.239C36.3815 42.2699 36.6377 42.2853 36.9018 42.3085C36.9794 42.3085 37.0571 42.3162 37.1347 42.3239C37.4376 42.3393 37.7404 42.3471 38.0511 42.3471C38.3617 42.3471 38.6645 42.3393 38.9674 42.3239C39.045 42.3239 39.1227 42.3162 39.2003 42.3085C39.4644 42.293 39.7284 42.2699 39.9769 42.239C40.0079 42.239 40.039 42.239 40.0701 42.2313C40.3574 42.2004 40.6369 42.1541 40.9165 42.1078C40.9631 42.1001 41.0097 42.0923 41.0563 42.0846C41.3048 42.0383 41.5533 41.9843 41.7862 41.9303C41.8095 41.9303 41.825 41.9225 41.8483 41.9148C42.1124 41.8454 42.3686 41.7759 42.6016 41.6987C42.8423 41.6215 43.0675 41.5289 43.2772 41.4363C43.2772 41.4363 43.2772 41.4363 43.2849 41.4363C43.712 41.251 44.0693 41.0426 44.3488 40.811C44.4575 40.7261 44.5507 40.6335 44.6284 40.5486C44.6284 40.5486 44.6284 40.5486 44.6361 40.5409C44.7138 40.456 44.7759 40.3711 44.8303 40.2862C44.8303 40.2707 44.8458 40.263 44.8536 40.2553C44.9001 40.1781 44.9312 40.0932 44.9623 40.016C44.9623 40.0006 44.9778 39.9774 44.9856 39.962C45.0166 39.8616 45.0322 39.769 45.0322 39.6687V37.4071C44.7215 37.6927 44.3177 37.9474 43.8596 38.1713H43.8751Z" fill="#EC0606"/>
<path d="M59.1188 38.1713C57.6278 38.9045 55.4613 39.2827 53.3025 39.2827C51.1437 39.2827 48.9771 38.9045 47.4862 38.1713C47.028 37.9474 46.632 37.6927 46.3136 37.4071V39.6687C46.3136 39.769 46.3291 39.8694 46.3602 39.962C46.3602 39.9774 46.3757 40.0006 46.3835 40.016C46.4145 40.1009 46.4456 40.1781 46.4922 40.2553C46.4922 40.2707 46.5077 40.2785 46.5155 40.2862C46.5699 40.3711 46.632 40.456 46.7096 40.5409C46.7096 40.5409 46.7096 40.5409 46.7174 40.5486C46.8028 40.6412 46.896 40.7261 46.997 40.811C47.2765 41.0349 47.6337 41.251 48.0608 41.4363C48.0608 41.4363 48.0608 41.4363 48.0686 41.4363C48.2782 41.5289 48.5034 41.6138 48.7442 41.6987C48.9849 41.7759 49.2334 41.8531 49.4974 41.9148C49.5207 41.9148 49.5362 41.9225 49.5595 41.9303C49.7925 41.9843 50.0332 42.0383 50.2895 42.0846C50.3361 42.0923 50.3827 42.1001 50.4293 42.1078C50.7011 42.1541 50.9806 42.2004 51.2757 42.2313C51.3068 42.2313 51.3378 42.2313 51.3689 42.239C51.6251 42.2699 51.8814 42.2853 52.1454 42.3085C52.2231 42.3085 52.3007 42.3162 52.3784 42.3239C52.6812 42.3393 52.9841 42.3471 53.2947 42.3471C53.6053 42.3471 53.9082 42.3393 54.211 42.3239C54.2887 42.3239 54.3663 42.3162 54.444 42.3085C54.708 42.293 54.972 42.2699 55.2205 42.239C55.2516 42.239 55.2827 42.239 55.3137 42.2313C55.601 42.2004 55.8806 42.1541 56.1601 42.1078C56.2067 42.1001 56.2533 42.0923 56.2999 42.0846C56.5484 42.0383 56.7969 41.9843 57.0299 41.9303C57.0532 41.9303 57.0687 41.9225 57.092 41.9148C57.356 41.8454 57.6123 41.7759 57.8452 41.6987C58.086 41.6215 58.3112 41.5289 58.5208 41.4363C58.5208 41.4363 58.5208 41.4363 58.5286 41.4363C58.9557 41.251 59.3129 41.0426 59.5925 40.811C59.7012 40.7261 59.7944 40.6335 59.872 40.5486C59.872 40.5486 59.872 40.5486 59.8798 40.5409C59.9574 40.456 60.0196 40.3711 60.0739 40.2862C60.0739 40.2707 60.0894 40.263 60.0972 40.2553C60.1438 40.1781 60.1749 40.0932 60.2059 40.016C60.2059 40.0006 60.2215 39.9774 60.2292 39.962C60.2603 39.8616 60.2758 39.769 60.2758 39.6687V37.4071C59.9652 37.6927 59.5614 37.9474 59.1032 38.1713H59.1188Z" fill="#EC0606"/>
<path d="M43.8751 33.8283C42.3842 34.5616 40.2176 34.9398 38.0588 34.9398C35.9 34.9398 33.7335 34.5616 32.2425 33.8283C31.7844 33.6045 31.3883 33.3497 31.0699 33.0641V35.3257C31.0699 35.4261 31.0855 35.5264 31.1165 35.619C31.1165 35.6345 31.1321 35.6576 31.1398 35.6731C31.1709 35.758 31.202 35.8352 31.2486 35.9123C31.2486 35.9278 31.2641 35.9355 31.2718 35.9432C31.3262 36.0281 31.3883 36.113 31.466 36.1979C31.466 36.1979 31.466 36.1979 31.4737 36.2057C31.5592 36.2983 31.6524 36.3832 31.7533 36.4681C32.0329 36.6919 32.3901 36.9081 32.8172 37.0933C32.8172 37.0933 32.8172 37.0933 32.8249 37.0933C33.0346 37.1859 33.2598 37.2708 33.5005 37.3557C33.7412 37.4329 33.9897 37.5101 34.2538 37.5719C34.2771 37.5719 34.2926 37.5796 34.3159 37.5873C34.5489 37.6413 34.7896 37.6954 35.0458 37.7417C35.0924 37.7494 35.139 37.7571 35.1856 37.7648C35.4574 37.8111 35.737 37.8575 36.032 37.8883C36.0631 37.8883 36.0942 37.8883 36.1252 37.896C36.3815 37.9269 36.6377 37.9424 36.9018 37.9655C36.9794 37.9655 37.0571 37.9732 37.1347 37.981C37.4376 37.9964 37.7404 38.0041 38.0511 38.0041C38.3617 38.0041 38.6645 37.9964 38.9674 37.981C39.045 37.981 39.1227 37.9732 39.2003 37.9655C39.4644 37.9501 39.7284 37.9269 39.9769 37.896C40.0079 37.896 40.039 37.896 40.0701 37.8883C40.3574 37.8575 40.6369 37.8111 40.9165 37.7648C40.9631 37.7571 41.0097 37.7494 41.0563 37.7417C41.3048 37.6954 41.5533 37.6413 41.7862 37.5873C41.8095 37.5873 41.825 37.5796 41.8483 37.5719C42.1124 37.5024 42.3686 37.4329 42.6016 37.3557C42.8423 37.2786 43.0675 37.1859 43.2772 37.0933C43.2772 37.0933 43.2772 37.0933 43.2849 37.0933C43.712 36.9081 44.0693 36.6996 44.3488 36.4681C44.4575 36.3832 44.5507 36.2906 44.6284 36.2057C44.6284 36.2057 44.6284 36.2057 44.6361 36.1979C44.7138 36.113 44.7759 36.0281 44.8303 35.9432C44.8303 35.9278 44.8458 35.9201 44.8536 35.9123C44.9001 35.8352 44.9312 35.7503 44.9623 35.6731C44.9623 35.6576 44.9778 35.6345 44.9856 35.619C45.0166 35.5187 45.0322 35.4261 45.0322 35.3257V33.0641C44.7215 33.3497 44.3177 33.6045 43.8596 33.8283H43.8751Z" fill="#EC0606"/>
<path d="M59.1188 33.8283C57.6278 34.5616 55.4613 34.9398 53.3025 34.9398C51.1437 34.9398 48.9771 34.5616 47.4862 33.8283C47.028 33.6045 46.632 33.3497 46.3136 33.0641V35.3257C46.3136 35.4261 46.3291 35.5264 46.3602 35.619C46.3602 35.6345 46.3757 35.6576 46.3835 35.6731C46.4145 35.758 46.4456 35.8352 46.4922 35.9123C46.4922 35.9278 46.5077 35.9355 46.5155 35.9432C46.5699 36.0281 46.632 36.113 46.7096 36.1979C46.7096 36.1979 46.7096 36.1979 46.7174 36.2057C46.8028 36.2983 46.896 36.3832 46.997 36.4681C47.2765 36.6919 47.6337 36.9081 48.0608 37.0933C48.0608 37.0933 48.0608 37.0933 48.0686 37.0933C48.2782 37.1859 48.5034 37.2708 48.7442 37.3557C48.9849 37.4329 49.2334 37.5101 49.4974 37.5719C49.5207 37.5719 49.5362 37.5796 49.5595 37.5873C49.7925 37.6413 50.0332 37.6954 50.2895 37.7417C50.3361 37.7494 50.3827 37.7571 50.4293 37.7648C50.7011 37.8111 50.9806 37.8575 51.2757 37.8883C51.3068 37.8883 51.3378 37.8883 51.3689 37.896C51.6251 37.9269 51.8814 37.9424 52.1454 37.9655C52.2231 37.9655 52.3007 37.9732 52.3784 37.981C52.6812 37.9964 52.9841 38.0041 53.2947 38.0041C53.6053 38.0041 53.9082 37.9964 54.211 37.981C54.2887 37.981 54.3663 37.9732 54.444 37.9655C54.708 37.9501 54.972 37.9269 55.2205 37.896C55.2516 37.896 55.2827 37.896 55.3137 37.8883C55.601 37.8575 55.8806 37.8111 56.1601 37.7648C56.2067 37.7571 56.2533 37.7494 56.2999 37.7417C56.5484 37.6954 56.7969 37.6413 57.0299 37.5873C57.0532 37.5873 57.0687 37.5796 57.092 37.5719C57.356 37.5024 57.6123 37.4329 57.8452 37.3557C58.086 37.2786 58.3112 37.1859 58.5208 37.0933C58.5208 37.0933 58.5208 37.0933 58.5286 37.0933C58.9557 36.9081 59.3129 36.6996 59.5925 36.4681C59.7012 36.3832 59.7944 36.2906 59.872 36.2057C59.872 36.2057 59.872 36.2057 59.8798 36.1979C59.9574 36.113 60.0196 36.0281 60.0739 35.9432C60.0739 35.9278 60.0894 35.9201 60.0972 35.9123C60.1438 35.8352 60.1749 35.7503 60.2059 35.6731C60.2059 35.6576 60.2215 35.6345 60.2292 35.619C60.2603 35.5187 60.2758 35.4261 60.2758 35.3257V33.0641C59.9652 33.3497 59.5614 33.6045 59.1032 33.8283H59.1188Z" fill="#EC0606"/>
<path d="M59.1188 29.2922C57.6278 30.0254 55.4613 30.4037 53.3025 30.4037C51.1437 30.4037 48.9771 30.0254 47.4862 29.2922C47.028 29.0683 46.632 28.8136 46.3136 28.528V30.7896C46.3136 30.8899 46.3291 30.9903 46.3602 31.0829C46.3602 31.0983 46.3757 31.1215 46.3835 31.1369C46.4145 31.2218 46.4456 31.299 46.4922 31.3762C46.4922 31.3916 46.5077 31.3994 46.5155 31.4071C46.5699 31.492 46.632 31.5769 46.7096 31.6618C46.7096 31.6618 46.7096 31.6618 46.7174 31.6695C46.8028 31.7621 46.896 31.8471 46.997 31.932C47.2765 32.1558 47.6337 32.3719 48.0608 32.5572C48.0608 32.5572 48.0608 32.5572 48.0686 32.5572C48.2782 32.6498 48.5034 32.7347 48.7442 32.8196C48.9849 32.8968 49.2334 32.974 49.4974 33.0357C49.5207 33.0357 49.5362 33.0434 49.5595 33.0512C49.7925 33.1052 50.0332 33.1592 50.2895 33.2055C50.3361 33.2133 50.3827 33.221 50.4293 33.2287C50.7011 33.275 50.9806 33.3213 51.2757 33.3522C51.3068 33.3522 51.3378 33.3522 51.3689 33.3599C51.6251 33.3908 51.8814 33.4062 52.1454 33.4294C52.2231 33.4294 52.3007 33.4371 52.3784 33.4448C52.6812 33.4603 52.9841 33.468 53.2947 33.468C53.6053 33.468 53.9082 33.4603 54.211 33.4448C54.2887 33.4448 54.3663 33.4371 54.444 33.4294C54.708 33.4139 54.972 33.3908 55.2205 33.3599C55.2516 33.3599 55.2827 33.3599 55.3137 33.3522C55.601 33.3213 55.8806 33.275 56.1601 33.2287C56.2067 33.221 56.2533 33.2133 56.2999 33.2055C56.5484 33.1592 56.7969 33.1052 57.0299 33.0512C57.0532 33.0512 57.0687 33.0434 57.092 33.0357C57.356 32.9663 57.6123 32.8968 57.8452 32.8196C58.086 32.7424 58.3112 32.6498 58.5208 32.5572C58.5208 32.5572 58.5208 32.5572 58.5286 32.5572C58.9557 32.3719 59.3129 32.1635 59.5925 31.932C59.7012 31.8471 59.7944 31.7544 59.872 31.6695C59.872 31.6695 59.872 31.6695 59.8798 31.6618C59.9574 31.5769 60.0196 31.492 60.0739 31.4071C60.0739 31.3916 60.0894 31.3839 60.0972 31.3762C60.1438 31.299 60.1749 31.2141 60.2059 31.1369C60.2059 31.1215 60.2215 31.0983 60.2292 31.0829C60.2603 30.9826 60.2758 30.8899 60.2758 30.7896V28.528C59.9652 28.8136 59.5614 29.0683 59.1032 29.2922H59.1188Z" fill="#EC0606"/>
<path d="M28.3401 42.5768C26.8492 43.3101 24.6826 43.6883 22.5238 43.6883C20.3651 43.6883 18.1985 43.3101 16.7076 42.5768C16.2494 42.353 15.8534 42.0983 15.535 41.8127V44.0743C15.535 44.1746 15.5505 44.2749 15.5816 44.3676C15.5816 44.383 15.5971 44.4062 15.6049 44.4216C15.6359 44.5065 15.667 44.5837 15.7136 44.6609C15.7136 44.6763 15.7291 44.684 15.7369 44.6918C15.7912 44.7767 15.8534 44.8616 15.931 44.9465C15.931 44.9465 15.931 44.9465 15.9388 44.9542C16.0242 45.0468 16.1174 45.1317 16.2183 45.2166C16.4979 45.4405 16.8551 45.6566 17.2822 45.8418C17.2822 45.8418 17.2822 45.8418 17.29 45.8418C17.4996 45.9345 17.7248 46.0194 17.9655 46.1043C18.2063 46.1815 18.4548 46.2586 18.7188 46.3204C18.7421 46.3204 18.7576 46.3281 18.7809 46.3358C19.0139 46.3899 19.2546 46.4439 19.5109 46.4902C19.5575 46.4979 19.6041 46.5056 19.6506 46.5134C19.9224 46.5597 20.202 46.606 20.4971 46.6369C20.5281 46.6369 20.5592 46.6369 20.5903 46.6446C20.8465 46.6755 21.1028 46.6909 21.3668 46.714C21.4445 46.714 21.5221 46.7218 21.5998 46.7295C21.9026 46.7449 22.2055 46.7526 22.5161 46.7526C22.8267 46.7526 23.1295 46.7449 23.4324 46.7295C23.5101 46.7295 23.5877 46.7218 23.6654 46.714C23.9294 46.6986 24.1934 46.6755 24.4419 46.6446C24.473 46.6446 24.504 46.6446 24.5351 46.6369C24.8224 46.606 25.102 46.5597 25.3815 46.5134C25.4281 46.5056 25.4747 46.4979 25.5213 46.4902C25.7698 46.4439 26.0183 46.3899 26.2512 46.3358C26.2745 46.3358 26.2901 46.3281 26.3134 46.3204C26.5774 46.2509 26.8337 46.1815 27.0666 46.1043C27.3073 46.0271 27.5325 45.9345 27.7422 45.8418C27.7422 45.8418 27.7422 45.8418 27.75 45.8418C28.1771 45.6566 28.5343 45.4482 28.8138 45.2166C28.9225 45.1317 29.0157 45.0391 29.0934 44.9542C29.0934 44.9542 29.0934 44.9542 29.1012 44.9465C29.1788 44.8616 29.2409 44.7767 29.2953 44.6918C29.2953 44.6763 29.3108 44.6686 29.3186 44.6609C29.3652 44.5837 29.3962 44.4988 29.4273 44.4216C29.4273 44.4062 29.4428 44.383 29.4506 44.3676C29.4817 44.2672 29.4972 44.1746 29.4972 44.0743V41.8127C29.1866 42.0983 28.7828 42.353 28.3246 42.5768H28.3401Z" fill="#EC0606"/>
<path d="M28.3401 38.1713C26.8492 38.9045 24.6826 39.2827 22.5238 39.2827C20.3651 39.2827 18.1985 38.9045 16.7076 38.1713C16.2494 37.9474 15.8534 37.6927 15.535 37.4071V39.6687C15.535 39.769 15.5505 39.8694 15.5816 39.962C15.5816 39.9774 15.5971 40.0006 15.6049 40.016C15.6359 40.1009 15.667 40.1781 15.7136 40.2553C15.7136 40.2707 15.7291 40.2785 15.7369 40.2862C15.7912 40.3711 15.8534 40.456 15.931 40.5409C15.931 40.5409 15.931 40.5409 15.9388 40.5486C16.0242 40.6412 16.1174 40.7261 16.2183 40.811C16.4979 41.0349 16.8551 41.251 17.2822 41.4363C17.2822 41.4363 17.2822 41.4363 17.29 41.4363C17.4996 41.5289 17.7248 41.6138 17.9655 41.6987C18.2063 41.7759 18.4548 41.8531 18.7188 41.9148C18.7421 41.9148 18.7576 41.9225 18.7809 41.9303C19.0139 41.9843 19.2546 42.0383 19.5109 42.0846C19.5575 42.0923 19.6041 42.1001 19.6506 42.1078C19.9224 42.1541 20.202 42.2004 20.4971 42.2313C20.5281 42.2313 20.5592 42.2313 20.5903 42.239C20.8465 42.2699 21.1028 42.2853 21.3668 42.3085C21.4445 42.3085 21.5221 42.3162 21.5998 42.3239C21.9026 42.3393 22.2055 42.3471 22.5161 42.3471C22.8267 42.3471 23.1295 42.3393 23.4324 42.3239C23.5101 42.3239 23.5877 42.3162 23.6654 42.3085C23.9294 42.293 24.1934 42.2699 24.4419 42.239C24.473 42.239 24.504 42.239 24.5351 42.2313C24.8224 42.2004 25.102 42.1541 25.3815 42.1078C25.4281 42.1001 25.4747 42.0923 25.5213 42.0846C25.7698 42.0383 26.0183 41.9843 26.2512 41.9303C26.2745 41.9303 26.2901 41.9225 26.3134 41.9148C26.5774 41.8454 26.8337 41.7759 27.0666 41.6987C27.3073 41.6215 27.5325 41.5289 27.7422 41.4363C27.7422 41.4363 27.7422 41.4363 27.75 41.4363C28.1771 41.251 28.5343 41.0426 28.8138 40.811C28.9225 40.7261 29.0157 40.6335 29.0934 40.5486C29.0934 40.5486 29.0934 40.5486 29.1012 40.5409C29.1788 40.456 29.2409 40.3711 29.2953 40.2862C29.2953 40.2707 29.3108 40.263 29.3186 40.2553C29.3652 40.1781 29.3962 40.0932 29.4273 40.016C29.4273 40.0006 29.4428 39.9774 29.4506 39.962C29.4817 39.8616 29.4972 39.769 29.4972 39.6687V37.4071C29.1866 37.6927 28.7828 37.9474 28.3246 38.1713H28.3401Z" fill="#EC0606"/>
<path d="M6.98887 36.9872C3.12946 36.9872 0 38.199 0 39.6887C0 40.1055 0.248493 40.4915 0.683356 40.8465C1.04057 41.1321 1.53755 41.3946 2.11996 41.6107C3.37796 42.0892 5.08635 42.3903 6.98887 42.3903C8.8914 42.3903 10.5998 42.0892 11.8578 41.6107C12.4402 41.3868 12.9372 41.1321 13.2944 40.8465C13.7293 40.4915 13.9777 40.1055 13.9777 39.6887C13.9777 38.199 10.8483 36.9872 6.98887 36.9872Z" fill="#EC0606"/>
<path d="M38.0588 28.2387C34.1994 28.2387 31.0699 29.4505 31.0699 30.9402C31.0699 31.3571 31.3184 31.743 31.7533 32.0981C32.1105 32.3836 32.6075 32.6461 33.1899 32.8622C34.4479 33.3408 36.1563 33.6418 38.0588 33.6418C39.9613 33.6418 41.6697 33.3408 42.9277 32.8622C43.5101 32.6384 44.0071 32.3836 44.3643 32.0981C44.7992 31.743 45.0477 31.3571 45.0477 30.9402C45.0477 29.4505 41.9182 28.2387 38.0588 28.2387Z" fill="#EC0606"/>
<path d="M53.4966 23.6064C49.6372 23.6064 46.5078 24.8183 46.5078 26.308C46.5078 26.7248 46.7562 27.1107 47.1911 27.4658C47.5483 27.7514 48.0453 28.0138 48.6277 28.2299C49.8857 28.7085 51.5941 29.0095 53.4966 29.0095C55.3992 29.0095 57.1075 28.7085 58.3655 28.2299C58.9479 28.0061 59.4449 27.7514 59.8021 27.4658C60.237 27.1107 60.4855 26.7248 60.4855 26.308C60.4855 24.8183 57.356 23.6064 53.4966 23.6064Z" fill="#EC0606"/>
<path d="M28.8287 36.2866C29.2636 35.9315 29.5127 35.5456 29.5127 35.1288C29.5127 34.1031 28.0288 33.2095 25.8449 32.7522V32.9222C25.8449 33.4048 25.3572 36.0801 22.5238 36.0801C19.6905 36.0801 19.0364 33.9659 18.9551 32.7523L18.4941 32.9222C16.7038 33.4118 15.535 34.2183 15.535 35.1288C15.535 35.5456 15.7834 35.9315 16.2182 36.2866C16.5754 36.5721 17.0722 36.8348 17.6545 37.0509C18.9125 37.5295 20.6213 37.8303 22.5238 37.8303C24.4262 37.8303 26.1345 37.5294 27.3924 37.0509C27.9747 36.8271 28.4715 36.5721 28.8287 36.2866Z" fill="#EC0606"/>
<path d="M19.4852 7.50031C19.4187 7.50031 19.3522 7.50031 19.2524 7.50031C17.3239 7.36697 15.8609 5.70031 15.9939 3.76698C16.0604 2.83364 16.4594 1.96697 17.1909 1.36697C17.8227 0.800307 18.6539 0.500305 19.4852 0.500305C20.3164 0.500305 19.6514 0.500305 19.7179 0.500305C20.6489 0.566972 21.5134 0.966972 22.1119 1.66697C22.7437 2.36697 23.0429 3.26697 22.9764 4.20031C22.9099 5.13364 22.5109 6.00031 21.8127 6.60031C21.1809 7.16698 20.3497 7.46697 19.4852 7.46697V7.50031Z" fill="#EC0606"/>
<path d="M19.8324 25.9755C19.8324 25.9755 20.1405 31.7386 20.3369 33.1636C20.5333 34.5886 21.4 34.9802 22.5818 34.9802C23.7636 34.9802 24.2723 34.4295 24.2723 32.8627L23.7677 25.6746C23.6668 24.3038 23.0614 23.0334 22.0187 22.1307L19.5297 19.9241L21.0096 14.3742L21.9178 15.2769C22.6914 16.0459 23.7005 16.4805 24.7768 16.4805C25.4159 16.4805 26.0549 16.3468 26.6267 16.0459L29.7885 14.4077C30.2257 14.1737 30.5621 13.8059 30.6966 13.3378C30.8312 12.8698 30.7975 12.4017 30.5621 11.9671C30.3266 11.5324 29.9566 11.1981 29.4857 11.0644C29.3176 10.9641 29.2503 10.9641 28.9476 10.9641C28.6449 10.9641 28.3758 11.0309 28.1067 11.1647L24.945 12.8029C24.9113 12.8363 24.8777 12.8363 24.7768 12.8363C24.6759 12.8363 24.575 12.8029 24.5077 12.736L21.9178 10.1283C21.7832 9.99452 21.5814 9.8608 21.3796 9.7605C21.1778 9.62677 20.976 9.52646 20.7405 9.49303L15.5607 8.35631H15.4262C15.2243 8.32288 15.3589 8.32288 14.8544 8.32288C14.3498 8.32288 13.8789 8.38975 13.408 8.59035C10.7845 9.6602 8.36273 11.3319 6.47915 13.4381L6.10916 13.8728C5.7728 14.2405 5.63826 14.7086 5.63826 15.1766C5.6719 15.6447 5.87372 16.0793 6.24371 16.4137C6.58006 16.7146 6.95004 16.8817 7.45457 16.8817C7.9591 16.8817 8.46363 16.6811 8.79999 16.2799L9.16998 15.8453C10.5827 14.2405 12.399 12.9366 14.3835 12.1008L12.6681 18.3528L10.6163 24.0364H10.5827L5.43645 23.3343H5.16737C4.73011 23.3343 4.32649 23.468 3.99013 23.7355C3.55287 24.0698 3.28379 24.5379 3.21652 25.0394C3.08198 26.1092 3.82196 27.1122 4.89829 27.246L10.0445 27.948C10.2127 27.9815 8.9009 27.9815 10.5827 27.9815C12.2644 27.9815 13.778 26.9451 14.3498 25.3737L15.6616 21.7629L19.3951 25.0728C19.6642 25.3068 19.8324 25.6077 19.8324 25.9755Z" fill="#EC0606"/>
<path d="M49.855 4.61087L58.9854 9.13043L57.7985 -2.98023e-06L49.855 4.61087Z" fill="#EC0606"/>
<path d="M55.0724 5.86993C49.2028 18.9134 41.3767 22.8265 28.9854 21.5221" stroke="#EC0606" stroke-width="3.91304" stroke-linejoin="round"/>
</svg>
