<svg width="50" height="50" viewBox="0 0 50 50" fill="none" xmlns="http://www.w3.org/2000/svg">
<g clip-path="url(#clip0_2201_325)">
<path d="M41.605 8.02507C38.025 4.44507 33.585 2.26507 28.945 1.44507C29.215 1.68507 29.505 1.92507 29.765 2.18507C37.385 9.80507 37.385 22.1451 29.765 29.7651C22.145 37.3851 9.80501 37.3851 2.18501 29.7651C1.92501 29.5051 1.68501 29.2151 1.44501 28.9451C2.26501 33.5851 4.44501 38.0251 8.02501 41.6051C17.295 50.8751 32.335 50.8751 41.605 41.6051C50.875 32.3351 50.875 17.2951 41.605 8.02507Z" fill="#EC0606" stroke="#EC0606" stroke-linecap="square" stroke-linejoin="round"/>
<path d="M17.755 1.7251L19.175 4.6151L22.355 5.0751L20.055 7.3151L20.595 10.4851L17.755 8.9851L14.915 10.4851L15.455 7.3151L13.155 5.0751L16.335 4.6151L17.755 1.7251Z" fill="#EC0606"/>
<path d="M7.15501 11.7251L8.57501 14.6051L11.755 15.0651L9.45501 17.3051L10.005 20.4751L7.15501 18.9751L4.31501 20.4751L4.85501 17.3051L2.55501 15.0651L5.73501 14.6051L7.15501 11.7251Z" fill="#EC0606"/>
<path d="M21.415 17.2251L22.835 20.1051L26.015 20.5651L23.715 22.8051L24.265 25.9751L21.415 24.4751L18.575 25.9751L19.115 22.8051L16.815 20.5651L19.995 20.1051L21.415 17.2251Z" fill="#EC0606"/>
</g>
<defs>
<clipPath id="clip0_2201_325">
<rect width="48.11" height="48.11" fill="white" transform="translate(0.945007 0.945068)"/>
</clipPath>
</defs>
</svg>
