<svg width="41" height="64" viewBox="0 0 41 64" fill="none" xmlns="http://www.w3.org/2000/svg">
<path d="M38.1804 1.17019C37.1593 0.344176 36.3218 0.0114746 34.8763 0.0114746C33.4308 0.0114746 31.7214 0.160617 29.6334 2.74192C27.5454 5.32323 20.3636 14.4668 20.3636 14.4668V63.11C20.7078 63.11 21.3273 62.7544 22.1877 61.8251C23.0482 60.8958 35.6794 44.5705 37.1937 42.5973C38.7081 40.624 39.58 39.362 39.58 35.7482V5.34617C39.58 3.63677 39.2014 1.99621 38.1804 1.15872V1.17019Z" fill="#00ADA0"/>
<path d="M20.3636 22.1419C20.3636 22.1419 20.8111 19.9965 21.9698 17.7479C23.14 15.4993 23.8742 14.5815 25.3656 12.5968C26.857 10.612 29.8169 6.88348 31.2051 5.05936C32.5933 3.23524 33.6832 3.01726 34.9222 3.01726C36.1612 3.01726 37.4232 4.32512 37.4232 6.39016V34.1994C37.4232 36.2759 36.4251 37.492 35.6679 38.5475L20.9372 57.5V62.915C20.9372 62.915 21.3158 62.7658 22.1763 61.8366C23.0367 60.9073 35.6679 44.582 37.1823 42.6087C38.6966 40.6355 40.7158 39.3735 40.7158 35.7597V5.34617C40.7158 3.63677 39.1899 1.99621 38.1689 1.15872C37.1478 0.332701 36.3104 0 34.8648 0C33.4193 0 31.7099 0.149142 29.6219 2.73045C27.5339 5.31175 20.3522 14.4553 20.3522 14.4553C20.3522 14.4553 13.1704 5.30028 11.0824 2.73045C9.00588 0.160614 7.30796 0.0114725 5.86243 0.0114725C4.4169 0.0114725 3.57941 0.332701 2.55836 1.17019C1.52584 1.99621 0 3.63677 0 5.34617V35.7482C0 39.362 2.01915 40.624 3.53352 42.5973C5.04788 44.5705 17.6791 60.8958 18.5395 61.8251C19.3999 62.7544 19.7785 62.9035 19.7785 62.9035V57.4885L5.04788 38.536C4.2907 37.4805 3.2926 36.2759 3.2926 34.1879V6.39016C3.2926 4.32512 4.55457 3.01726 5.79359 3.01726C7.03262 3.01726 8.11103 3.23524 9.51067 5.05936C10.8988 6.88348 13.8587 10.612 15.3502 12.5968C16.8416 14.5815 17.5758 15.4993 18.746 17.7479C19.9162 19.9965 20.3522 22.1419 20.3522 22.1419H20.3636Z" fill="#00ADA0"/>
</svg>
