<?xml version="1.0" encoding="UTF-8"?><svg id="_レイヤー_2" xmlns="http://www.w3.org/2000/svg" viewBox="0 0 47.54 37.44"><defs><style>.cls-1{fill:#ec0606;}</style></defs><g id="_レイヤー_2-2"><path class="cls-1" d="M14.65,19.04l-.03,.92c-.39,.76-1.06,1.33-2,1.71-.94,.37-2.06,.56-3.35,.56-1.83,0-3.45-.45-4.85-1.35s-2.49-2.17-3.26-3.81c-.77-1.64-1.16-3.54-1.16-5.7v-.03c0-2.4,.4-4.44,1.21-6.14,.81-1.7,1.99-2.99,3.54-3.87,1.55-.88,3.42-1.33,5.59-1.33s4.04,.45,5.58,1.35c1.55,.9,2.72,2.21,3.53,3.92s1.21,3.78,1.21,6.19v.03c0,1.33-.17,2.74-.51,4.24-.34,1.5-.82,2.99-1.45,4.47-.1,.22-.2,.45-.31,.67s-.21,.46-.33,.68l-7.9,15.88H5.33L14.65,19.04Zm.05-2.74c1.02-1.21,1.53-2.93,1.53-5.13v-.03c0-2.19-.51-3.89-1.54-5.1s-2.48-1.81-4.34-1.81-3.34,.6-4.37,1.81c-1.03,1.21-1.54,2.91-1.54,5.12v.03c0,2.21,.51,3.92,1.54,5.12,1.03,1.21,2.48,1.81,4.37,1.81s3.34-.61,4.36-1.82Z"/><g><path class="cls-1" d="M25.43,23.29v12.49h-4.68v-12.49h4.68Zm-1.43,1.51h-1.81v3.92h1.81v-3.92Zm0,5.33h-1.81v4.18h1.81v-4.18Zm8.94,5.07c0,1.12-.36,1.53-1.61,1.53h-2.21l-.3-1.53h2.13c.21,0,.44,0,.44-.45v-3.22h-5.38v-1.44h5.38v-1.49h-5.5v-1.46h3.51v-1.74h-2.99v-1.44h2.99v-1.27h1.51v1.27h3.09v1.44h-3.09v1.74h3.55v1.46h-1.53v1.49h1.41v1.44h-1.41v3.67Zm-4.83-.01c-.84-1.3-1.04-1.61-1.93-2.54l1.21-.87c.97,.9,1.42,1.46,2.02,2.42l-1.3,.99Z"/><path class="cls-1" d="M47.54,29.65c-1.15,1.89-2.63,2.06-3.3,2.06-.98,0-1.43-.3-2.65-1.11-1.07-.69-1.38-.81-1.91-.81-1.33,0-1.91,.97-2.16,1.42l-1.09-1.4c1.24-2.02,2.93-2.02,3.3-2.02,.98,0,1.37,.24,2.82,1.18,.79,.51,1.14,.72,1.74,.72,1.29,0,1.88-.97,2.17-1.42l1.08,1.38Z"/></g></g></svg>