<svg width="58" height="56" viewBox="0 0 58 56" fill="none" xmlns="http://www.w3.org/2000/svg">
<path d="M29 49.5L15 55.5H43L29 49.5Z" fill="#EC0606"/>
<path d="M33 1.5H25V15.5H33V1.5Z" fill="#EC0606"/>
<path d="M31 18H27V47H31V18Z" fill="#EC0606"/>
<path d="M7 11H23V14H7V11Z" fill="#EC0606"/>
<path d="M51 11H35V14H51V11Z" fill="#EC0606"/>
<path d="M9 37.5C13.9706 37.5 18 33.4706 18 28.5H0C0 33.4706 4.02944 37.5 9 37.5Z" fill="#EC0606"/>
<path d="M49 37.5C53.9706 37.5 58 33.4706 58 28.5H40C40 33.4706 44.0294 37.5 49 37.5Z" fill="#EC0606"/>
<path d="M8 11.5L1 29.5" stroke="#EC0606" stroke-width="2"/>
<path d="M48 11.5L41 29.5" stroke="#EC0606" stroke-width="2"/>
<path d="M10 11.5L17 29.5" stroke="#EC0606" stroke-width="2"/>
<path d="M50 11.5L57 29.5" stroke="#EC0606" stroke-width="2"/>
</svg>
