<svg width="68" height="60" viewBox="0 0 68 60" fill="none" xmlns="http://www.w3.org/2000/svg">
<g clip-path="url(#clip0_215_482)">
<path d="M63.225 26.045C62.025 25.135 60.315 25.425 59.485 26.695L55.975 32.035C56.045 32.285 56.015 32.545 55.885 32.785C55.785 32.965 53.375 37.265 48.615 39.435C48.485 39.495 48.345 39.525 48.215 39.525C47.835 39.525 47.475 39.305 47.315 38.935C47.095 38.425 47.315 37.835 47.815 37.605C50.795 36.245 52.755 33.885 53.625 32.635C51.845 31.925 49.855 31.885 48.055 32.635C46.195 33.405 44.005 34.605 42.225 36.415C38.265 40.435 37.275 48.715 37.275 48.715V59.515H47.165V49.475C49.145 44.455 57.055 43.445 57.055 43.445L63.995 29.355C64.565 28.205 64.235 26.815 63.225 26.045Z" fill="#EC0606"/>
<path d="M1.32499 26.045C2.52499 25.135 4.23499 25.425 5.06499 26.695L8.57499 32.035C8.50499 32.285 8.53499 32.545 8.66499 32.785C8.76499 32.965 11.175 37.265 15.935 39.435C16.065 39.495 16.205 39.525 16.335 39.525C16.715 39.525 17.075 39.305 17.235 38.935C17.455 38.425 17.235 37.835 16.735 37.605C13.755 36.245 11.795 33.885 10.925 32.635C12.705 31.925 14.695 31.885 16.495 32.635C18.355 33.405 20.545 34.605 22.325 36.415C26.285 40.435 27.275 48.715 27.275 48.715V49.465V56.745V59.505H17.385V49.465C15.405 44.445 7.49499 43.435 7.49499 43.435L0.554993 29.355C-0.0150065 28.205 0.314993 26.815 1.32499 26.045Z" fill="#EC0606"/>
<path d="M17.095 23.265L9.46499 15.705C7.54499 13.805 7.54499 10.715 9.46499 8.805C11.385 6.905 14.505 6.905 16.425 8.805L17.095 9.465L17.765 8.805C19.685 6.905 22.805 6.905 24.725 8.805C26.645 10.705 26.645 13.795 24.725 15.705L17.095 23.265Z" stroke="#EC0606" stroke-width="3" stroke-miterlimit="10"/>
<path d="M37.225 21.585C38.8818 21.585 40.225 20.2418 40.225 18.585C40.225 16.9281 38.8818 15.585 37.225 15.585C35.5681 15.585 34.225 16.9281 34.225 18.585C34.225 20.2418 35.5681 21.585 37.225 21.585Z" fill="#EC0606"/>
<path d="M50.775 21.585C52.4318 21.585 53.775 20.2418 53.775 18.585C53.775 16.9281 52.4318 15.585 50.775 15.585C49.1181 15.585 47.775 16.9281 47.775 18.585C47.775 20.2418 49.1181 21.585 50.775 21.585Z" fill="#EC0606"/>
<path d="M38.225 17.585L43.225 12.585L50.245 18.585L63.755 4.59497" stroke="#EC0606" stroke-width="2" stroke-miterlimit="10"/>
<path d="M65.225 10.485L67.725 0.484985L57.725 2.98499L65.225 10.485Z" fill="#EC0606"/>
</g>
<defs>
<clipPath id="clip0_215_482">
<rect width="67.45" height="59.03" fill="white" transform="translate(0.274994 0.484985)"/>
</clipPath>
</defs>
</svg>
