<svg width="42" height="54" viewBox="0 0 42 54" fill="none" xmlns="http://www.w3.org/2000/svg">
<path d="M40.2449 25.4996C40.002 23.6808 38.6362 22.2593 36.9061 21.8752V17.581C36.9061 8.81216 29.7722 1.67493 21 1.67493C12.2278 1.67493 5.09389 8.81216 5.09389 17.581V21.8752C3.36376 22.256 1.99803 23.6776 1.75509 25.4996C1.26264 29.17 1 33.0439 1 37.0492C1 41.0544 1.24622 44.646 1.70584 48.195C1.97505 50.2764 3.67892 51.8752 5.77347 51.9737C10.7209 52.2035 15.8063 52.325 21 52.325C26.1937 52.325 31.2823 52.2035 36.2265 51.9737C38.3211 51.8752 40.025 50.2764 40.2942 48.195C40.7538 44.6428 41 40.9067 41 37.0492C41 33.1917 40.7374 29.1733 40.2449 25.4996ZM22.74 39.9021V45.3584C22.74 45.8049 22.3789 46.1661 21.9324 46.1661H20.0676C19.6211 46.1661 19.26 45.8049 19.26 45.3584V43.3887V39.9021C17.1162 39.1766 15.5765 37.151 15.5765 34.7642C15.5765 31.7669 18.0059 29.3374 21.0033 29.3374C24.0007 29.3374 26.4301 31.7669 26.4301 34.7642C26.4301 37.151 24.8871 39.1766 22.7466 39.9021H22.74ZM30.5601 21.7701H11.4399V17.581C11.4399 12.3085 15.7275 8.02095 21 8.02095C26.2725 8.02095 30.5601 12.3085 30.5601 17.581V21.7701Z" fill="#EC0606"/>
</svg>
