<?xml version="1.0" encoding="UTF-8"?><svg id="_レイヤー_2" xmlns="http://www.w3.org/2000/svg" viewBox="0 0 39.78 49"><defs><style>.cls-1{fill:#ec0606;}</style></defs><g id="_レイヤー_2-2"><g><g><path class="cls-1" d="M35.57,24.92l-7.18,.78c-3.06,.33-3.71-.12-3.8-.94-.1-.94,1.25-2.76,1.54-3.39,.29-.63,2.31-2.87,2.46-5.87,.15-3-3.62-4.73-4.58-2.6-.57,1.26-1.96,4.98-3.91,6.75-3.62,3.27-6.2,9.81-10.3,10.26v15.45c3.38-.37,13.12,2.55,15.89,2.8,3.14,.28,7.3,1.2,9.11-1.93,1.12-1.93,2.42-9.07,3.43-14.15,3.5-4.19,.41-7.5-2.66-7.17Z"/><path class="cls-1" d="M0,32.46v13.51c0,1.67,1.35,3.02,3.02,3.02h1.72c1.11,0,2.02-.9,2.02-2.02V29.44H3.02c-1.67,0-3.02,1.35-3.02,3.02Z"/></g><polygon class="cls-1" points="25.5 0 23.17 0 25.5 8.89 27.83 0 25.5 0"/><polygon class="cls-1" points="16.15 2.92 14 3.83 19.63 11.09 18.29 2 16.15 2.92"/><polygon class="cls-1" points="34.85 2.92 37 3.83 31.37 11.09 32.71 2 34.85 2.92"/></g></g></svg>