<svg width="45" height="44" viewBox="0 0 45 44" fill="none" xmlns="http://www.w3.org/2000/svg">
<g clip-path="url(#clip0_669_40)">
<path d="M16.81 37.31C18.4669 37.31 19.81 35.9669 19.81 34.31C19.81 32.6531 18.4669 31.31 16.81 31.31C15.1531 31.31 13.81 32.6531 13.81 34.31C13.81 35.9669 15.1531 37.31 16.81 37.31Z" fill="#EC0606"/>
<path d="M30.81 37.31C32.4669 37.31 33.81 35.9669 33.81 34.31C33.81 32.6531 32.4669 31.31 30.81 31.31C29.1531 31.31 27.81 32.6531 27.81 34.31C27.81 35.9669 29.1531 37.31 30.81 37.31Z" fill="#EC0606"/>
<path d="M41.81 29.31C43.4669 29.31 44.81 27.9669 44.81 26.31C44.81 24.6531 43.4669 23.31 41.81 23.31C40.1531 23.31 38.81 24.6531 38.81 26.31C38.81 27.9669 40.1531 29.31 41.81 29.31Z" fill="#EC0606"/>
<path d="M17.81 33.31L23.81 28.31L30.81 34.31L41.81 26.31" stroke="#EC0606" stroke-width="2" stroke-miterlimit="10"/>
<path d="M17.81 41.31L23.81 36.31L30.81 42.31L41.81 34.31" stroke="#EC0606" stroke-width="2" stroke-miterlimit="10"/>
<path d="M37.31 14.39H0V17.59H37.31V14.39Z" fill="#EC0606"/>
<path d="M37.31 9.58997H21.32V12.79H37.31V9.58997Z" fill="#EC0606"/>
<path d="M37.31 4.79999H21.32V7.99999H37.31V4.79999Z" fill="#EC0606"/>
<path d="M37.31 19.19H0V22.39H37.31V19.19Z" fill="#EC0606"/>
<path d="M37.31 0H0V3.2H37.31V0Z" fill="#EC0606"/>
<path d="M3.2 0.829956H0V42.31H3.2V0.829956Z" fill="#EC0606"/>
<path d="M37.31 0.320007H34.11V22.14H37.31V0.320007Z" fill="#EC0606"/>
<path d="M21.3203 0.830078V16.2598H2.12988V0.830078H21.3203ZM5.50977 11.0996L3.95996 11.3203L5.08008 12.4199L4.80957 13.96L6.2002 13.2305L7.58008 13.96L7.32031 12.4199L8.44043 11.3203L6.88965 11.0996L6.2002 9.7002L5.50977 11.0996ZM10.8799 11.0996L9.33008 11.3203L10.4502 12.4199L10.1904 13.96L11.5703 13.2305L12.96 13.96L12.6904 12.4199L13.8096 11.3203L12.2598 11.0996L11.5703 9.7002L10.8799 11.0996ZM16.25 11.0996L14.71 11.3203L15.8301 12.4199L15.5596 13.96L16.9502 13.2305L18.3301 13.96L18.0703 12.4199L19.1904 11.3203L17.6396 11.0996L16.9502 9.7002L16.25 11.0996ZM8.19043 4.37012L6.65039 4.58984L7.76953 5.67969L7.5 7.21973L8.88965 6.5L10.2695 7.21973L10 5.67969L11.1201 4.58984L9.58008 4.37012L8.88965 2.95996L8.19043 4.37012ZM13.5703 4.37012L12.0195 4.58984L13.1396 5.67969L12.8799 7.21973L14.2598 6.5L15.6396 7.21973L15.3799 5.67969L16.5 4.58984L14.9502 4.37012L14.2598 2.95996L13.5703 4.37012Z" fill="#EC0606"/>
</g>
<defs>
<clipPath id="clip0_669_40">
<rect width="45" height="44" fill="white"/>
</clipPath>
</defs>
</svg>
