<svg width="48" height="43" viewBox="0 0 48 43" fill="none" xmlns="http://www.w3.org/2000/svg">
<g clip-path="url(#clip0_133_1355)">
<path d="M20.67 37.37V39.41C20.67 40.75 23.47 41.84 26.93 41.84C30.39 41.84 33.19 40.75 33.19 39.41V37.37C32 38.48 29.46 39.06 26.93 39.06C24.4 39.06 21.86 38.48 20.67 37.37Z" fill="#EC0606"/>
<path d="M30.33 37.97C30.33 37.97 30.29 37.97 30.28 37.98C30.3 37.98 30.32 37.98 30.33 37.97Z" fill="#EC0606"/>
<path d="M23.59 37.98C23.59 37.98 23.55 37.98 23.54 37.97C23.56 37.97 23.58 37.97 23.59 37.98Z" fill="#EC0606"/>
<path d="M27.96 38.33C27.89 38.33 27.82 38.33 27.75 38.34C27.82 38.34 27.89 38.34 27.96 38.33Z" fill="#EC0606"/>
<path d="M24.36 38.15C24.36 38.15 24.28 38.13 24.24 38.13C24.28 38.13 24.32 38.15 24.36 38.15Z" fill="#EC0606"/>
<path d="M29.62 38.12C29.62 38.12 29.54 38.14 29.5 38.14C29.54 38.14 29.58 38.12 29.62 38.12Z" fill="#EC0606"/>
<path d="M26.11 38.34C26.04 38.34 25.97 38.34 25.9 38.33C25.97 38.33 26.04 38.33 26.11 38.34Z" fill="#EC0606"/>
<path d="M33.04 36.46C33.04 36.46 33.03 36.48 33.02 36.49C33.02 36.48 33.03 36.47 33.04 36.46Z" fill="#EC0606"/>
<path d="M33.15 36.2C33.15 36.2 33.14 36.23 33.13 36.25C33.13 36.23 33.14 36.22 33.15 36.2Z" fill="#EC0606"/>
<path d="M20.85 36.49C20.85 36.49 20.84 36.47 20.83 36.46C20.83 36.47 20.84 36.48 20.85 36.49Z" fill="#EC0606"/>
<path d="M20.73 36.24C20.73 36.24 20.72 36.21 20.71 36.19C20.71 36.21 20.72 36.22 20.73 36.24Z" fill="#EC0606"/>
<path d="M28.66 38.27C28.43 38.3 28.2 38.32 27.96 38.33C28.2 38.31 28.43 38.29 28.66 38.27Z" fill="#EC0606"/>
<path d="M33.19 35.93C33.19 36.02 33.18 36.11 33.15 36.2C33.17 36.11 33.19 36.02 33.19 35.93Z" fill="#EC0606"/>
<path d="M29.5 38.15C29.26 38.19 29 38.23 28.74 38.26C29 38.23 29.25 38.19 29.5 38.15Z" fill="#EC0606"/>
<path d="M33.13 36.24C33.1 36.31 33.07 36.39 33.03 36.46C33.07 36.39 33.1 36.32 33.13 36.24Z" fill="#EC0606"/>
<path d="M33.02 36.49C32.97 36.57 32.92 36.65 32.85 36.72C32.92 36.64 32.97 36.57 33.02 36.49Z" fill="#EC0606"/>
<path d="M31.01 37.77C30.8 37.84 30.57 37.91 30.33 37.97C30.57 37.91 30.79 37.84 31.01 37.77Z" fill="#EC0606"/>
<path d="M27.75 38.34C27.48 38.35 27.21 38.36 26.93 38.36C27.21 38.36 27.48 38.36 27.75 38.34Z" fill="#EC0606"/>
<path d="M20.83 36.46C20.79 36.39 20.76 36.32 20.73 36.24C20.75 36.31 20.79 36.39 20.83 36.46Z" fill="#EC0606"/>
<path d="M31.63 37.53C32.16 37.3 32.57 37.03 32.84 36.73C32.77 36.81 32.68 36.89 32.59 36.97C32.34 37.17 32.02 37.36 31.64 37.53H31.63Z" fill="#EC0606"/>
<path d="M21.03 36.73C21.3 37.03 21.71 37.3 22.24 37.53C21.86 37.36 21.54 37.17 21.29 36.97C21.2 36.89 21.11 36.81 21.04 36.73H21.03Z" fill="#EC0606"/>
<path d="M21.02 36.72C20.95 36.64 20.9 36.57 20.85 36.49C20.9 36.57 20.96 36.65 21.02 36.72Z" fill="#EC0606"/>
<path d="M25.12 38.26C24.86 38.23 24.61 38.19 24.36 38.15C24.6 38.19 24.86 38.23 25.12 38.26Z" fill="#EC0606"/>
<path d="M25.9 38.33C25.66 38.31 25.43 38.3 25.2 38.27C25.43 38.3 25.66 38.32 25.9 38.33Z" fill="#EC0606"/>
<path d="M26.93 38.36C26.65 38.36 26.38 38.36 26.11 38.34C26.38 38.35 26.65 38.36 26.93 38.36Z" fill="#EC0606"/>
<path d="M23.53 37.97C23.29 37.91 23.07 37.84 22.85 37.77C23.06 37.84 23.29 37.91 23.53 37.97Z" fill="#EC0606"/>
<path d="M32.15 34.58C30.81 35.24 28.87 35.58 26.94 35.58C25.01 35.58 23.06 35.24 21.73 34.58C21.32 34.38 20.96 34.15 20.68 33.89V35.93C20.68 36.02 20.69 36.11 20.72 36.2C20.72 36.22 20.73 36.23 20.74 36.25C20.77 36.32 20.8 36.4 20.84 36.47C20.84 36.48 20.85 36.49 20.86 36.5C20.91 36.58 20.96 36.66 21.03 36.73C21.1 36.81 21.19 36.89 21.28 36.97C21.53 37.17 21.85 37.36 22.23 37.53C22.42 37.61 22.62 37.69 22.84 37.76C23.05 37.83 23.28 37.9 23.52 37.96C23.54 37.96 23.56 37.96 23.57 37.97C23.78 38.02 24 38.07 24.22 38.11C24.26 38.11 24.3 38.13 24.34 38.13C24.58 38.17 24.84 38.21 25.1 38.24C25.13 38.24 25.16 38.24 25.19 38.24C25.42 38.27 25.65 38.29 25.89 38.3C25.96 38.3 26.03 38.3 26.1 38.31C26.37 38.32 26.64 38.33 26.92 38.33C27.2 38.33 27.47 38.33 27.74 38.31C27.81 38.31 27.88 38.31 27.95 38.3C28.19 38.28 28.42 38.27 28.65 38.24C28.68 38.24 28.71 38.24 28.74 38.24C29 38.21 29.25 38.17 29.5 38.13C29.54 38.13 29.58 38.11 29.62 38.11C29.84 38.07 30.06 38.02 30.27 37.97C30.29 37.97 30.31 37.97 30.32 37.96C30.56 37.9 30.78 37.83 31 37.76C31.22 37.69 31.42 37.61 31.61 37.53C31.99 37.36 32.31 37.17 32.56 36.97C32.65 36.89 32.74 36.81 32.81 36.73C32.88 36.65 32.93 36.58 32.98 36.5C32.98 36.49 32.99 36.48 33 36.47C33.04 36.4 33.07 36.33 33.1 36.25C33.1 36.23 33.11 36.22 33.12 36.2C33.15 36.11 33.16 36.02 33.16 35.93V33.89C32.88 34.15 32.52 34.38 32.11 34.58H32.15Z" fill="#EC0606"/>
<path d="M26.93 30.02C23.47 30.02 20.67 31.11 20.67 32.45C20.67 32.82 20.89 33.18 21.28 33.49C21.6 33.75 22.04 33.98 22.57 34.18C23.7 34.61 25.23 34.88 26.93 34.88C28.63 34.88 30.17 34.61 31.29 34.18C31.81 33.98 32.26 33.75 32.58 33.49C32.97 33.17 33.19 32.82 33.19 32.45C33.19 31.11 30.39 30.02 26.93 30.02Z" fill="#EC0606"/>
<path d="M16.55 41.45C16.55 41.45 16.51 41.45 16.5 41.46C16.52 41.46 16.54 41.46 16.55 41.45Z" fill="#EC0606"/>
<path d="M9.81 41.46C9.81 41.46 9.77 41.46 9.76 41.45C9.78 41.45 9.8 41.45 9.81 41.46Z" fill="#EC0606"/>
<path d="M14.18 41.81C14.11 41.81 14.04 41.81 13.97 41.82C14.04 41.82 14.11 41.82 14.18 41.81Z" fill="#EC0606"/>
<path d="M10.58 41.63C10.58 41.63 10.5 41.61 10.46 41.61C10.5 41.61 10.54 41.63 10.58 41.63Z" fill="#EC0606"/>
<path d="M15.84 41.6C15.84 41.6 15.76 41.62 15.72 41.62C15.76 41.62 15.8 41.6 15.84 41.6Z" fill="#EC0606"/>
<path d="M12.33 41.82C12.26 41.82 12.19 41.82 12.12 41.81C12.19 41.81 12.26 41.81 12.33 41.82Z" fill="#EC0606"/>
<path d="M19.26 39.94C19.26 39.94 19.25 39.96 19.24 39.97C19.24 39.96 19.25 39.95 19.26 39.94Z" fill="#EC0606"/>
<path d="M19.37 39.67C19.37 39.67 19.36 39.7 19.35 39.72C19.35 39.7 19.36 39.69 19.37 39.67Z" fill="#EC0606"/>
<path d="M7.07 39.97C7.07 39.97 7.06 39.95 7.05 39.94C7.05 39.95 7.06 39.96 7.07 39.97Z" fill="#EC0606"/>
<path d="M6.95 39.72C6.95 39.72 6.94 39.69 6.93 39.67C6.93 39.69 6.94 39.7 6.95 39.72Z" fill="#EC0606"/>
<path d="M14.88 41.75C14.65 41.78 14.42 41.8 14.18 41.81C14.42 41.79 14.65 41.77 14.88 41.75Z" fill="#EC0606"/>
<path d="M19.41 39.41C19.41 39.5 19.4 39.59 19.37 39.68C19.39 39.59 19.41 39.5 19.41 39.41Z" fill="#EC0606"/>
<path d="M15.72 41.63C15.48 41.67 15.22 41.71 14.96 41.74C15.22 41.71 15.47 41.67 15.72 41.63Z" fill="#EC0606"/>
<path d="M19.35 39.72C19.32 39.79 19.29 39.87 19.25 39.94C19.29 39.87 19.32 39.8 19.35 39.72Z" fill="#EC0606"/>
<path d="M19.24 39.97C19.19 40.05 19.14 40.13 19.07 40.2C19.14 40.12 19.19 40.05 19.24 39.97Z" fill="#EC0606"/>
<path d="M17.23 41.25C17.02 41.32 16.79 41.39 16.55 41.45C16.79 41.39 17.01 41.32 17.23 41.25Z" fill="#EC0606"/>
<path d="M13.97 41.82C13.7 41.83 13.43 41.84 13.15 41.84C13.43 41.84 13.7 41.84 13.97 41.82Z" fill="#EC0606"/>
<path d="M7.05 39.94C7.01 39.87 6.98 39.8 6.95 39.72C6.97 39.79 7.01 39.87 7.05 39.94Z" fill="#EC0606"/>
<path d="M17.85 41.01C18.38 40.78 18.79 40.51 19.06 40.21C18.99 40.29 18.9 40.37 18.81 40.45C18.56 40.65 18.24 40.84 17.86 41.01H17.85Z" fill="#EC0606"/>
<path d="M7.25 40.21C7.52 40.51 7.93 40.78 8.46 41.01C8.08 40.84 7.76 40.65 7.51 40.45C7.42 40.37 7.33 40.29 7.26 40.21H7.25Z" fill="#EC0606"/>
<path d="M7.24 40.2C7.17 40.12 7.12 40.05 7.07 39.97C7.12 40.05 7.18 40.13 7.24 40.2Z" fill="#EC0606"/>
<path d="M11.34 41.74C11.08 41.71 10.83 41.67 10.58 41.63C10.82 41.67 11.08 41.71 11.34 41.74Z" fill="#EC0606"/>
<path d="M12.12 41.81C11.88 41.79 11.65 41.78 11.42 41.75C11.65 41.78 11.88 41.8 12.12 41.81Z" fill="#EC0606"/>
<path d="M13.15 41.84C12.87 41.84 12.6 41.84 12.33 41.82C12.6 41.83 12.87 41.84 13.15 41.84Z" fill="#EC0606"/>
<path d="M9.75 41.45C9.51 41.39 9.29 41.32 9.07 41.25C9.28 41.32 9.51 41.39 9.75 41.45Z" fill="#EC0606"/>
<path d="M18.37 38.06C17.03 38.72 15.09 39.06 13.16 39.06C11.23 39.06 9.28 38.72 7.95 38.06C7.54 37.86 7.18 37.63 6.9 37.37V39.41C6.9 39.5 6.91 39.59 6.94 39.68C6.94 39.7 6.95 39.71 6.96 39.73C6.99 39.8 7.02 39.88 7.06 39.95C7.06 39.96 7.07 39.97 7.08 39.98C7.13 40.06 7.18 40.14 7.25 40.21C7.32 40.29 7.41 40.37 7.5 40.45C7.75 40.65 8.07 40.84 8.45 41.01C8.64 41.09 8.84 41.17 9.06 41.24C9.27 41.31 9.5 41.38 9.74 41.44C9.76 41.44 9.78 41.44 9.79 41.45C10 41.5 10.22 41.55 10.44 41.59C10.48 41.59 10.52 41.61 10.56 41.61C10.8 41.65 11.06 41.69 11.32 41.72C11.35 41.72 11.38 41.72 11.41 41.72C11.64 41.75 11.87 41.77 12.11 41.78C12.18 41.78 12.25 41.78 12.32 41.79C12.59 41.8 12.86 41.81 13.14 41.81C13.42 41.81 13.69 41.81 13.96 41.79C14.03 41.79 14.1 41.79 14.17 41.78C14.41 41.76 14.64 41.75 14.87 41.72C14.9 41.72 14.93 41.72 14.96 41.72C15.22 41.69 15.47 41.65 15.72 41.61C15.76 41.61 15.8 41.59 15.84 41.59C16.06 41.55 16.28 41.5 16.49 41.45C16.51 41.45 16.53 41.45 16.54 41.44C16.78 41.38 17 41.31 17.22 41.24C17.44 41.17 17.64 41.09 17.83 41.01C18.21 40.84 18.53 40.65 18.78 40.45C18.87 40.37 18.96 40.29 19.03 40.21C19.1 40.13 19.15 40.06 19.2 39.98C19.2 39.97 19.21 39.96 19.22 39.95C19.26 39.88 19.29 39.81 19.32 39.73C19.32 39.71 19.33 39.7 19.34 39.68C19.37 39.59 19.38 39.5 19.38 39.41V37.37C19.1 37.63 18.74 37.86 18.33 38.06H18.37Z" fill="#EC0606"/>
<path d="M13.15 33.49C9.69 33.49 6.89 34.58 6.89 35.92C6.89 36.29 7.11 36.65 7.5 36.96C7.82 37.22 8.26 37.45 8.79 37.65C9.92 38.08 11.45 38.35 13.15 38.35C14.85 38.35 16.39 38.08 17.51 37.65C18.03 37.45 18.48 37.22 18.8 36.96C19.19 36.64 19.41 36.29 19.41 35.92C19.41 34.58 16.61 33.49 13.15 33.49Z" fill="#EC0606"/>
<path d="M40.84 39.06C38.9 39.06 36.96 38.72 35.63 38.06C35.22 37.86 34.86 37.63 34.58 37.37V39.41C34.58 39.5 34.59 39.59 34.62 39.68C34.62 39.7 34.63 39.71 34.64 39.73C34.67 39.8 34.7 39.88 34.74 39.95C34.74 39.96 34.75 39.97 34.76 39.98C34.81 40.06 34.86 40.14 34.93 40.21C35 40.29 35.09 40.37 35.18 40.45C35.21 40.47 35.24 40.5 35.27 40.52C35.3 40.54 35.33 40.57 35.37 40.59C35.49 40.67 35.61 40.75 35.75 40.82C35.84 40.87 35.93 40.91 36.03 40.96C36.07 40.98 36.12 41 36.17 41.02C36.53 41.18 36.93 41.32 37.38 41.43C37.38 41.43 37.39 41.43 37.4 41.43C37.69 41.51 38.01 41.57 38.33 41.63C38.4 41.64 38.47 41.65 38.55 41.67C38.82 41.71 39.11 41.75 39.4 41.77C39.49 41.77 39.59 41.79 39.68 41.8C40.05 41.83 40.44 41.85 40.83 41.85C41.22 41.85 41.61 41.83 41.98 41.8C42.08 41.8 42.17 41.78 42.26 41.77C42.55 41.74 42.83 41.71 43.11 41.67C43.18 41.66 43.26 41.65 43.33 41.63C43.66 41.57 43.97 41.51 44.26 41.43C44.26 41.43 44.27 41.43 44.28 41.43C44.73 41.31 45.13 41.17 45.49 41.02C45.54 41 45.58 40.98 45.63 40.96C45.72 40.92 45.82 40.87 45.91 40.83C46.05 40.76 46.18 40.68 46.29 40.6C46.32 40.58 46.36 40.55 46.39 40.53C46.42 40.51 46.46 40.49 46.48 40.46C46.57 40.38 46.66 40.3 46.73 40.22C46.8 40.14 46.85 40.07 46.9 39.99C46.9 39.98 46.91 39.97 46.92 39.96C46.96 39.89 46.99 39.82 47.02 39.74C47.02 39.72 47.03 39.71 47.04 39.69C47.07 39.6 47.08 39.51 47.08 39.42V37.38C46.8 37.64 46.44 37.87 46.03 38.07C44.69 38.73 42.75 39.07 40.82 39.07L40.84 39.06Z" fill="#EC0606"/>
<path d="M40.84 35.58C38.9 35.58 36.96 35.24 35.63 34.58C35.22 34.38 34.86 34.15 34.58 33.89V35.93C34.58 36.02 34.59 36.11 34.62 36.2C34.62 36.22 34.63 36.23 34.64 36.25C34.67 36.32 34.7 36.4 34.74 36.47C34.74 36.48 34.75 36.49 34.76 36.5C34.81 36.58 34.86 36.66 34.93 36.73C35 36.81 35.08 36.89 35.17 36.96C35.17 36.96 35.19 36.97 35.2 36.98C35.3 37.06 35.42 37.14 35.55 37.22C35.58 37.24 35.62 37.26 35.65 37.28C35.8 37.36 35.95 37.44 36.12 37.52C36.22 37.56 36.34 37.6 36.44 37.64C36.53 37.68 36.62 37.72 36.72 37.75C36.93 37.82 37.16 37.89 37.4 37.95C37.42 37.95 37.44 37.95 37.45 37.96C37.66 38.01 37.88 38.06 38.1 38.1C38.14 38.1 38.18 38.12 38.22 38.12C38.46 38.16 38.72 38.2 38.98 38.23C39.01 38.23 39.04 38.23 39.07 38.23C39.3 38.26 39.53 38.28 39.77 38.29C39.84 38.29 39.91 38.29 39.98 38.3C40.25 38.31 40.52 38.32 40.8 38.32C41.08 38.32 41.35 38.32 41.62 38.3C41.69 38.3 41.76 38.3 41.83 38.29C42.07 38.27 42.3 38.26 42.53 38.23C42.56 38.23 42.59 38.23 42.62 38.23C42.88 38.2 43.13 38.16 43.38 38.12C43.42 38.12 43.46 38.1 43.5 38.1C43.72 38.06 43.94 38.01 44.15 37.96C44.17 37.96 44.19 37.96 44.2 37.95C44.44 37.89 44.66 37.82 44.88 37.75C44.98 37.72 45.07 37.68 45.16 37.64C45.27 37.6 45.38 37.56 45.48 37.52C45.65 37.44 45.81 37.36 45.95 37.28C45.98 37.26 46.02 37.24 46.05 37.22C46.18 37.14 46.29 37.06 46.4 36.98C46.4 36.98 46.42 36.97 46.43 36.96C46.52 36.89 46.6 36.81 46.67 36.73C46.74 36.65 46.79 36.58 46.84 36.5C46.84 36.49 46.85 36.48 46.86 36.47C46.9 36.4 46.93 36.33 46.96 36.25C46.96 36.23 46.97 36.22 46.98 36.2C47.01 36.11 47.02 36.02 47.02 35.93V33.89C46.74 34.15 46.38 34.38 45.97 34.58C44.63 35.24 42.69 35.58 40.76 35.58H40.84Z" fill="#EC0606"/>
<path d="M40.84 32.1C38.9 32.1 36.96 31.76 35.63 31.1C35.22 30.9 34.86 30.67 34.58 30.41V32.45C34.58 32.54 34.59 32.63 34.62 32.72C34.62 32.73 34.62 32.74 34.63 32.75C34.63 32.75 34.63 32.76 34.63 32.77C34.66 32.84 34.68 32.91 34.73 32.99C34.73 33 34.74 33.01 34.75 33.02C34.75 33.03 34.77 33.04 34.78 33.06C34.82 33.13 34.87 33.19 34.93 33.25C35 33.33 35.08 33.4 35.17 33.48C35.2 33.5 35.24 33.53 35.27 33.55C35.36 33.62 35.45 33.68 35.55 33.74C35.58 33.76 35.62 33.78 35.65 33.8C35.66 33.8 35.68 33.82 35.7 33.82C35.76 33.85 35.81 33.88 35.87 33.91C35.95 33.95 36.03 34 36.12 34.04C36.22 34.08 36.34 34.12 36.44 34.16C36.53 34.2 36.62 34.24 36.72 34.27C36.93 34.34 37.16 34.41 37.4 34.47C37.42 34.47 37.44 34.47 37.45 34.48C37.66 34.53 37.88 34.58 38.1 34.62C38.14 34.62 38.18 34.64 38.22 34.64C38.26 34.64 38.31 34.65 38.35 34.66C38.39 34.66 38.43 34.67 38.47 34.68C38.63 34.71 38.8 34.73 38.97 34.75C39 34.75 39.03 34.75 39.06 34.75C39.17 34.76 39.28 34.77 39.39 34.78C39.48 34.78 39.56 34.8 39.65 34.8C39.68 34.8 39.72 34.8 39.75 34.8C39.82 34.8 39.89 34.8 39.96 34.81C40.23 34.82 40.5 34.83 40.78 34.83C41.06 34.83 41.33 34.83 41.6 34.81C41.67 34.81 41.74 34.81 41.81 34.8C41.84 34.8 41.88 34.8 41.91 34.8C42 34.8 42.09 34.78 42.17 34.78C42.28 34.78 42.39 34.76 42.5 34.75C42.53 34.75 42.56 34.75 42.59 34.75C42.76 34.73 42.92 34.7 43.09 34.68C43.13 34.68 43.17 34.67 43.21 34.66C43.25 34.66 43.3 34.65 43.34 34.64C43.38 34.64 43.42 34.62 43.46 34.62C43.68 34.58 43.9 34.53 44.11 34.48C44.13 34.48 44.15 34.48 44.16 34.47C44.4 34.41 44.62 34.34 44.84 34.27C44.94 34.24 45.03 34.2 45.12 34.16C45.23 34.12 45.34 34.08 45.44 34.04C45.61 33.96 45.77 33.88 45.91 33.8C45.94 33.78 45.98 33.76 46.01 33.74C46.11 33.68 46.2 33.61 46.29 33.55C46.32 33.53 46.36 33.5 46.39 33.48C46.48 33.41 46.56 33.33 46.63 33.25C46.69 33.19 46.73 33.12 46.78 33.06C46.78 33.05 46.8 33.04 46.81 33.02C46.81 33.01 46.82 33 46.83 32.99C46.87 32.92 46.9 32.85 46.93 32.78C46.93 32.78 46.93 32.77 46.93 32.76C46.93 32.75 46.93 32.74 46.94 32.73C46.97 32.64 46.98 32.55 46.98 32.46V30.42C46.7 30.68 46.34 30.91 45.93 31.11C44.59 31.77 42.65 32.11 40.72 32.11L40.84 32.1Z" fill="#EC0606"/>
<path d="M35.19 30.02C35.51 30.28 35.95 30.51 36.48 30.71C37.61 31.14 39.14 31.41 40.84 31.41C42.54 31.41 44.08 31.14 45.2 30.71C45.72 30.51 46.17 30.28 46.49 30.02C46.88 29.7 47.1 29.35 47.1 28.98C47.1 27.64 44.3 26.55 40.84 26.55C37.38 26.55 34.58 27.64 34.58 28.98C34.58 29.35 34.8 29.71 35.19 30.02Z" fill="#EC0606"/>
<path d="M37.31 14.39H0V17.59H37.31V14.39Z" fill="#EC0606"/>
<path d="M37.31 9.59H21.32V12.79H37.31V9.59Z" fill="#EC0606"/>
<path d="M37.31 4.79999H21.32V7.99999H37.31V4.79999Z" fill="#EC0606"/>
<path d="M37.31 19.19H0V22.39H37.31V19.19Z" fill="#EC0606"/>
<path d="M37.31 0H0V3.2H37.31V0Z" fill="#EC0606"/>
<path d="M3.2 0.829987H0V42.31H3.2V0.829987Z" fill="#EC0606"/>
<path d="M37.31 0.320007H34.11V22.14H37.31V0.320007Z" fill="#EC0606"/>
<path d="M21.3203 0.830078V16.2598H2.12988V0.830078H21.3203ZM5.50977 11.0996L3.95996 11.3203L5.08008 12.4199L4.80957 13.96L6.2002 13.2305L7.58008 13.96L7.32031 12.4199L8.44043 11.3203L6.88965 11.0996L6.2002 9.7002L5.50977 11.0996ZM10.8799 11.0996L9.33008 11.3203L10.4502 12.4199L10.1904 13.96L11.5703 13.2305L12.96 13.96L12.6904 12.4199L13.8096 11.3203L12.2598 11.0996L11.5703 9.7002L10.8799 11.0996ZM16.25 11.0996L14.71 11.3203L15.8301 12.4199L15.5596 13.96L16.9502 13.2305L18.3301 13.96L18.0703 12.4199L19.1904 11.3203L17.6396 11.0996L16.9502 9.7002L16.25 11.0996ZM8.19043 4.37012L6.65039 4.58984L7.76953 5.67969L7.5 7.21973L8.88965 6.5L10.2695 7.21973L10 5.67969L11.1201 4.58984L9.58008 4.37012L8.88965 2.95996L8.19043 4.37012ZM13.5703 4.37012L12.0195 4.58984L13.1396 5.67969L12.8799 7.21973L14.2598 6.5L15.6396 7.21973L15.3799 5.67969L16.5 4.58984L14.9502 4.37012L14.2598 2.95996L13.5703 4.37012Z" fill="#EC0606"/>
</g>
<defs>
<clipPath id="clip0_133_1355">
<rect width="48" height="43" fill="white"/>
</clipPath>
</defs>
</svg>
