<svg width="68" height="55" viewBox="0 0 68 55" fill="none" xmlns="http://www.w3.org/2000/svg">
<g clip-path="url(#clip0_574_2562)">
<path d="M20.54 26.28L46.55 38.2L33.46 43.73L7.45 31.81L20.54 26.28ZM20.59 23L0 31.69L33.41 47L54 38.31L20.59 23Z" fill="#EC0606"/>
<path d="M33.21 55L0 39.51V35.88L33.28 50.82L54 42.46V46.15L33.21 55Z" fill="#EC0606"/>
<path d="M31.96 32.37L31.05 32.96C31.34 33.23 31.59 33.49 31.81 33.76C32.17 34.21 32.3 34.81 32.3 34.85C32.33 34.92 32.31 34.99 32.26 35.04C32.19 35.09 32.11 35.12 32.01 35.11L30.75 35.01C30.66 35.01 30.58 34.97 30.52 34.93C30.49 34.9 30.46 34.87 30.44 34.84C30.44 34.82 30.31 34.38 30.07 34.07C29.82 33.76 29.5 33.47 29.14 33.19C28.67 32.82 28.22 32.6 27.83 32.54C27.43 32.48 27.1 32.54 26.82 32.72C26.58 32.88 26.46 33.07 26.49 33.28C26.52 33.49 26.71 33.76 27.06 34.09L28.05 34.98C28.79 35.64 29.2 36.24 29.27 36.78C29.34 37.32 29.07 37.79 28.43 38.21C28.05 38.46 27.63 38.61 27.19 38.67C26.74 38.73 26.28 38.72 25.8 38.62C25.32 38.53 24.84 38.36 24.34 38.12C24.13 38.01 23.92 37.89 23.72 37.77L22.64 38.47L21.26 37.41L22.32 36.72C21.96 36.4 21.64 36.07 21.38 35.74C20.98 35.23 20.84 34.37 20.83 34.33C20.81 34.26 20.83 34.19 20.88 34.14C20.93 34.1 21.03 34.07 21.12 34.07L22.45 34.18C22.54 34.18 22.61 34.22 22.67 34.27C22.71 34.3 22.74 34.34 22.76 34.38C22.76 34.41 22.85 35.05 23.14 35.42C23.43 35.79 23.77 36.12 24.16 36.42C24.65 36.8 25.13 37.06 25.61 37.2C26.09 37.34 26.49 37.3 26.84 37.07C27.08 36.91 27.2 36.72 27.19 36.51C27.17 36.3 27 36.03 26.66 35.72L25.53 34.7C24.87 34.09 24.49 33.53 24.41 33.03C24.33 32.52 24.6 32.05 25.24 31.63C25.59 31.4 25.98 31.26 26.4 31.19C26.83 31.13 27.27 31.14 27.72 31.21C28.17 31.29 28.63 31.43 29.07 31.64C29.26 31.73 29.44 31.83 29.62 31.93L30.54 31.33L31.92 32.39L31.96 32.37Z" fill="#EC0606"/>
<path d="M34.54 3.28L60.55 15.2L47.46 20.73L21.45 8.81L34.54 3.28ZM34.59 0L14 8.69L47.41 24L68 15.31L34.59 0Z" fill="#EC0606"/>
<path d="M52.09 11.93L44.59 12.57L46.66 13.53L45 14.22L41.94 12.79L41.43 12.84L40.86 13.07L44.11 14.58L42.43 15.28L39.19 13.76L36.36 14.93L33.84 13.76L36.67 12.59L33.42 11.07L35.1 10.38L38.35 11.9L38.91 11.66L39.05 11.44L35.99 10.02L37.65 9.32999L39.71 10.29L41.64 7.04999L44.45 8.35999L42.58 11.26L49.28 10.62L52.09 11.93Z" fill="#EC0606"/>
<path d="M47.21 32L14 16.51V12.88L47.28 27.82L68 19.46V23.15L47.21 32Z" fill="#EC0606"/>
</g>
<defs>
<clipPath id="clip0_574_2562">
<rect width="68" height="55" fill="white"/>
</clipPath>
</defs>
</svg>
