<svg width="40" height="48" viewBox="0 0 40 48" fill="none" xmlns="http://www.w3.org/2000/svg">
<g clip-path="url(#clip0_133_1353)">
<path d="M20.04 2.83C25.38 2.83 29.72 7.17 29.72 12.51C29.72 17.85 25.38 22.19 20.04 22.19C14.7 22.19 10.36 17.85 10.36 12.51C10.36 7.17 14.7 2.83 20.04 2.83ZM20.04 0.410004C13.36 0.410004 7.94 5.83 7.94 12.51C7.94 19.19 13.36 24.61 20.04 24.61C26.72 24.61 32.14 19.19 32.14 12.51C32.14 5.83 26.72 0.410004 20.04 0.410004Z" fill="#EC0606"/>
<path d="M16.76 7.47H18.63V17.41H16.76V7.47ZM17.61 11.75H20.79C21.01 11.75 21.21 11.7 21.38 11.6C21.55 11.5 21.68 11.35 21.78 11.17C21.88 10.98 21.92 10.77 21.92 10.53C21.92 10.29 21.87 10.07 21.78 9.88C21.69 9.69 21.55 9.55 21.38 9.44C21.21 9.33 21.01 9.29 20.78 9.29H17.6V7.49H20.73C21.35 7.49 21.9 7.62 22.37 7.87C22.84 8.12 23.21 8.48 23.47 8.94C23.73 9.4 23.86 9.93 23.86 10.54C23.86 11.15 23.73 11.68 23.47 12.14C23.21 12.6 22.84 12.95 22.37 13.2C21.9 13.45 21.35 13.58 20.73 13.58H17.6V11.78L17.61 11.75Z" fill="#EC0606"/>
<path d="M17.63 32.35H24.15C25.46 32.35 26.52 31.29 26.52 29.98C26.52 28.67 25.46 27.61 24.15 27.61H14.66C8.73001 27.61 6.85001 30.08 4.78001 32.15L1.01001 35.44C0.77001 35.65 0.62001 35.96 0.62001 36.28V47.21C0.62001 47.36 0.71001 47.49 0.84001 47.55C0.97001 47.61 1.13001 47.59 1.24001 47.49L8.52001 41.25C8.78001 41.03 9.12001 40.94 9.45001 41L20.79 43.06C21.58 43.21 22.4 43.02 23.05 42.56C23.05 42.56 37.53 32.49 38.59 31.6C39.61 30.67 39.6 29.31 38.66 28.29C37.72 27.27 35.98 27.49 34.81 28.35C33.74 29.24 26.46 34.03 26.46 34.03H17.58C17.11 34.03 16.75 33.64 16.76 33.17C16.78 32.7 17.17 32.34 17.63 32.35Z" fill="#EC0606"/>
</g>
<defs>
<clipPath id="clip0_133_1353">
<rect width="38.74" height="47.18" fill="white" transform="translate(0.630005 0.410004)"/>
</clipPath>
</defs>
</svg>
