<svg width="70" height="62" viewBox="0 0 70 62" fill="none" xmlns="http://www.w3.org/2000/svg">
<g clip-path="url(#clip0_219_500)">
<path d="M61.74 46.04H61.73C57.4663 46.04 54.01 49.4964 54.01 53.76V53.77C54.01 58.0337 57.4663 61.49 61.73 61.49H61.74C66.0036 61.49 69.46 58.0337 69.46 53.77V53.76C69.46 49.4964 66.0036 46.04 61.74 46.04Z" fill="#EC0606"/>
<path d="M69.46 24.04H54.01V39.49H69.46V24.04Z" fill="#EC0606"/>
<path d="M23.55 28.76C25.2 28.76 26.55 30.11 26.55 31.76C26.55 33.41 25.2 34.76 23.55 34.76C21.9 34.76 20.55 33.41 20.55 31.76C20.55 30.11 21.9 28.76 23.55 28.76ZM23.55 26.76C20.79 26.76 18.55 29 18.55 31.76C18.55 34.52 20.79 36.76 23.55 36.76C26.31 36.76 28.55 34.52 28.55 31.76C28.55 29 26.31 26.76 23.55 26.76Z" fill="#EC0606"/>
<path d="M1.54999 29.76H0.549988V33.76H1.54999V29.76Z" fill="#EC0606"/>
<path d="M4.54999 29.76H2.54999V33.76H4.54999V29.76Z" fill="#EC0606"/>
<path d="M10.55 29.76H6.54999V33.76H10.55V29.76Z" fill="#EC0606"/>
<path d="M19.55 29.76H12.55V33.76H19.55V29.76Z" fill="#EC0606"/>
<path d="M25.55 35.76H21.55V55.76H25.55V35.76Z" fill="#EC0606"/>
<path d="M24.55 20.76H22.55V22.76H24.55V20.76Z" fill="#EC0606"/>
<path d="M24.55 13.76H22.55V15.76H24.55V13.76Z" fill="#EC0606"/>
<path d="M24.55 6.76001H22.55V8.76001H24.55V6.76001Z" fill="#EC0606"/>
<path d="M31.55 30.76H29.55V32.76H31.55V30.76Z" fill="#EC0606"/>
<path d="M38.55 30.76H36.55V32.76H38.55V30.76Z" fill="#EC0606"/>
<path d="M38.55 6.76001H36.55V8.76001H38.55V6.76001Z" fill="#EC0606"/>
<path d="M31.55 6.76001H29.55V8.76001H31.55V6.76001Z" fill="#EC0606"/>
<path d="M42.55 12.76V2.76001L47.55 7.76001L42.55 12.76Z" fill="#EC0606"/>
<path d="M42.55 36.76V26.76L47.55 31.76L42.55 36.76Z" fill="#EC0606"/>
<path d="M42.55 51.76H25.55V55.76H42.55V51.76Z" fill="#EC0606"/>
<path d="M42.55 58.76V48.76L47.55 53.76L42.55 58.76Z" fill="#EC0606"/>
<path d="M69.45 13.54H54.01L61.73 0.52002L69.45 13.54Z" fill="#EC0606"/>
</g>
<defs>
<clipPath id="clip0_219_500">
<rect width="68.9" height="60.96" fill="white" transform="translate(0.549988 0.52002)"/>
</clipPath>
</defs>
</svg>
