<svg width="60" height="40" viewBox="0 0 60 40" fill="none" xmlns="http://www.w3.org/2000/svg">
<g clip-path="url(#clip0_4040_3570)">
<path d="M12.9482 39.3882C10.0843 39.3882 7.72933 38.5687 5.8833 36.9297C4.05452 35.2734 2.90723 32.9443 2.44141 29.9424V29.9165H6.94434V29.9424C7.16862 31.5641 7.79834 32.8322 8.8335 33.7466C9.8859 34.6437 11.2575 35.0923 12.9482 35.0923C14.8805 35.0923 16.3729 34.5057 17.4253 33.3325C18.495 32.1593 19.0298 30.5031 19.0298 28.3638V24.042C19.0298 21.9372 18.5467 20.3154 17.5806 19.1768C16.6144 18.0381 15.2428 17.4688 13.4658 17.4688C12.2581 17.4688 11.1281 17.7965 10.0757 18.4521C9.04053 19.0905 8.11751 20.0049 7.30664 21.1953H3.26953V1.37207H22.4458V5.61621H7.77246V15.502C8.58333 14.7601 9.48047 14.1908 10.4639 13.7939C11.4473 13.3799 12.4997 13.1729 13.6211 13.1729C16.7783 13.1729 19.2196 14.1217 20.9448 16.0195C22.6701 17.9173 23.5327 20.5915 23.5327 24.042V28.3638C23.5327 31.866 22.6097 34.5833 20.7637 36.5156C18.9176 38.4307 16.3125 39.3882 12.9482 39.3882Z" fill="#EC0606"/>
<path d="M34.22 24.25H35.75V25.83H42.05V27.39H35.75V29.09H40.82V35.58C40.82 35.94 40.82 37.19 39.45 37.19H37.28L37.01 35.58H38.9C39.21 35.58 39.26 35.43 39.26 35.13V30.56H35.75V38.42H34.22V30.56H30.81V37.37H29.23V29.09H34.21V27.39H27.97V25.83H34.21V24.25H34.22Z" fill="#EC0606"/>
<path d="M50.3901 33.5501C49.2501 34.5201 48.4301 34.8501 47.8901 35.0801L47.5301 34.5501C45.6201 35.3701 44.7101 35.6601 44.0001 35.8701L43.8501 34.2401C44.1901 34.1601 45.2301 33.8601 45.4701 33.7901V28.8401H44.0001V27.3601H45.4701V24.3201H46.9801V27.3601H48.1001V28.8401H46.9801V33.3101C47.6501 33.1001 47.7401 33.0701 48.1201 32.9201L48.1801 33.6001C49.5901 32.9101 50.1701 32.1901 50.6401 31.5401H48.1001V30.3601H58.1801V31.5401H52.1201C51.9201 31.8601 51.8201 32.0401 51.5701 32.3701H57.7601C57.7601 32.5301 57.7001 36.5501 57.2801 37.4701C56.8901 38.3301 56.3001 38.3301 55.8401 38.3301H53.8201L53.5001 36.8601H55.4601C55.9101 36.8601 55.9601 36.6601 56.0301 36.2801C56.1501 35.6601 56.2301 33.9101 56.2401 33.5701H55.5201C54.2701 36.3101 52.3701 37.6501 50.7301 38.4401L49.8101 37.2401C51.8201 36.4001 52.9301 35.5301 54.1101 33.5701H53.0501C51.4001 35.8301 49.4501 36.7301 47.8601 37.3001L47.1301 36.2001C48.0101 35.9301 49.8601 35.3401 51.5701 33.5601H50.3701L50.3901 33.5501ZM48.8501 24.7601H57.2201V29.6401H48.8501V24.7601ZM50.2601 25.8801V26.7501H55.7801V25.8801H50.2601ZM50.2601 27.7101V28.5901H55.7801V27.7101H50.2601Z" fill="#EC0606"/>
</g>
<defs>
<clipPath id="clip0_4040_3570">
<rect width="60" height="40" fill="white"/>
</clipPath>
</defs>
</svg>
