<svg width="52" height="32" viewBox="0 0 52 32" fill="none" xmlns="http://www.w3.org/2000/svg">
<g clip-path="url(#clip0_292_5)">
<path d="M1.67501 1.55995C0.725007 2.50995 0.195007 3.79995 0.195007 5.13995V26.8599C0.195007 29.6499 2.46501 31.9299 5.26501 31.9299H46.735C49.525 31.9299 51.805 29.6599 51.805 26.8599V5.13995C51.805 2.33995 49.525 0.0699463 46.735 0.0699463H5.26501C3.92501 0.0699463 2.62501 0.599946 1.67501 1.54995V1.55995ZM46.735 7.14995V9.24995H5.26501V7.13995H46.735V7.14995ZM12.715 18.9099V21.0099H5.26501V18.8999H12.715V18.9099ZM46.725 18.9099V25.0799H30.275V18.8999H46.725V18.9099ZM12.715 23.0499V25.1499H5.26501V23.0399H12.715V23.0499Z" fill="#EC0606"/>
</g>
<defs>
<clipPath id="clip0_292_5">
<rect width="51.61" height="31.86" fill="white" transform="translate(0.195007 0.0699463)"/>
</clipPath>
</defs>
</svg>
