<svg width="69" height="69" viewBox="0 0 69 69" fill="none" xmlns="http://www.w3.org/2000/svg">
<path d="M54.3449 48.1158C53.5948 47.5479 52.526 47.7289 52.0073 48.5213L49.8134 51.8533C49.8571 52.0093 49.8384 52.1716 49.7571 52.3213C49.6946 52.4336 48.1883 55.1167 45.2131 56.4707C45.1319 56.5081 45.0444 56.5269 44.9631 56.5269C44.7256 56.5269 44.5006 56.3896 44.4006 56.1587C44.2631 55.8405 44.4006 55.4724 44.7131 55.3288C46.5757 54.4802 47.8008 53.0077 48.3446 52.2277C47.232 51.7847 45.9882 51.7597 44.8631 52.2277C43.7006 52.7082 42.3317 53.4569 41.2192 54.5863C38.744 57.0947 38.1252 62.2611 38.1252 62.2611V69H44.3068V62.7354C45.5444 59.603 50.4884 58.9728 50.4884 58.9728L54.8262 50.1811C55.1824 49.4635 54.9762 48.5962 54.3449 48.1158Z" fill="#EC0606"/>
<path d="M15.6551 48.1158C16.4052 47.5479 17.474 47.7289 17.9928 48.5213L20.1866 51.8533C20.1429 52.0093 20.1616 52.1716 20.2429 52.3213C20.3054 52.4336 21.8117 55.1167 24.7869 56.4707C24.8682 56.5081 24.9557 56.5269 25.0369 56.5269C25.2744 56.5269 25.4994 56.3896 25.5994 56.1587C25.737 55.8405 25.5994 55.4724 25.2869 55.3288C23.4243 54.4802 22.1993 53.0077 21.6555 52.2277C22.768 51.7847 24.0119 51.7597 25.1369 52.2277C26.2995 52.7082 27.6683 53.4569 28.7809 54.5863C31.256 57.0947 31.8748 62.2611 31.8748 62.2611V62.7291V67.2716V68.9938H25.6932V62.7291C24.4556 59.5968 19.5116 58.9666 19.5116 58.9666L15.1739 50.1811C14.8176 49.4635 15.0239 48.5962 15.6551 48.1158Z" fill="#EC0606"/>
<path d="M69 45.8647H29V25.605H69V45.8647ZM61.8737 28.6594H65.9404V32.7191H67.5438V27.0587H61.8737V28.6594ZM32.0596 32.7191V28.6594H36.1263V27.0587H30.4562V32.7191H32.0596ZM36.1263 42.8103H32.0596V38.8976H30.4562V44.411H36.1263V42.8103ZM65.9404 38.8976V42.8103H61.8737V44.411H67.5438V38.8976H65.9404Z" fill="#EC0606"/>
<path d="M52.6058 38.8569C52.3984 39.2444 52.1173 39.565 51.7559 39.8323C51.3946 40.0928 50.9663 40.2932 50.4644 40.4202C50.2435 40.4736 50.016 40.5137 49.7818 40.5471V42.0035H48.0418V40.5738C47.5466 40.5337 47.0715 40.4536 46.6231 40.3333C45.9405 40.1462 45.0504 39.3913 45.0504 39.3913C44.9768 39.3446 44.9233 39.2711 44.9099 39.1842C44.8965 39.0974 44.93 39.0105 44.9902 38.9437L45.8669 38.0685C45.9606 37.975 46.1078 37.955 46.2216 38.0285C46.2216 38.0285 46.8774 38.5963 47.3726 38.7299C47.8678 38.8636 48.3563 38.9304 48.8516 38.9304C49.4672 38.9304 49.9825 38.8235 50.3841 38.603C50.7923 38.3825 50.993 38.0418 50.993 37.5809C50.993 37.2468 50.8927 36.9863 50.6919 36.7925C50.4911 36.5988 50.1565 36.4785 49.6814 36.4251L48.1154 36.2915C47.1919 36.2046 46.4759 35.9441 45.974 35.5232C45.472 35.1023 45.2177 34.4543 45.2177 33.5992C45.2177 33.1248 45.3114 32.6973 45.5055 32.3298C45.6996 31.9557 45.9606 31.6417 46.2952 31.3878C46.6298 31.134 47.0179 30.9402 47.4663 30.8133C47.6537 30.7599 47.8477 30.7264 48.0418 30.693V29.4371H49.7818V30.6663C50.19 30.7064 50.5781 30.7732 50.9328 30.8734C51.5418 31.0404 52.1842 31.5415 52.1842 31.5415C52.2645 31.5816 52.3181 31.6617 52.3315 31.7486C52.3448 31.8421 52.3181 31.929 52.2512 31.9958L51.4347 32.8242C51.3477 32.911 51.2139 32.9378 51.1001 32.8776C51.1001 32.8776 50.6116 32.5302 50.1967 32.4233C49.7751 32.3165 49.3401 32.263 48.8716 32.263C48.2694 32.263 47.821 32.3766 47.5265 32.6104C47.2388 32.8442 47.0915 33.1449 47.0915 33.519C47.0915 33.853 47.1919 34.1136 47.3994 34.2873C47.6068 34.4676 47.9548 34.5812 48.4433 34.6347L49.8152 34.7549C50.8324 34.8418 51.602 35.1157 52.124 35.5633C52.646 36.0109 52.907 36.6723 52.907 37.5274C52.907 38.0418 52.8066 38.4894 52.5991 38.8769L52.6058 38.8569Z" fill="white"/>
<path d="M40 20.2598H0V0H40V20.2598ZM32.8737 3.05443H36.9404V7.11412H38.5438V1.45375H32.8737V3.05443ZM3.05964 7.11412V3.05443H7.12626V1.45375H1.45624V7.11412H3.05964ZM7.12626 17.2053H3.05964V13.2926H1.45624V18.806H7.12626V17.2053ZM36.9404 13.2926V17.2053H32.8737V18.806H38.5438V13.2926H36.9404Z" fill="#EC0606"/>
<path d="M8.86 14.3663H7.023V5.4563H9.047L11.478 9.4053L13.898 5.4563H15.823V14.3663H13.986V8.1513L11.434 12.2653L8.86 8.1513V14.3663ZM18.8296 14.3663H16.9926V5.4563H19.0166L21.4476 9.4053L23.8676 5.4563H25.7926V14.3663H23.9556V8.1513L21.4036 12.2653L18.8296 8.1513V14.3663ZM28.8212 14.3663H26.9622V5.4563H32.7592V7.1173H28.8212V9.1193H32.3412V10.7913H28.8212V14.3663Z" fill="#F5F5F5"/>
<path d="M19.9998 37.5084L12.5076 37.5084L12.5074 27.0001" stroke="#EC0606" stroke-width="2" stroke-miterlimit="10"/>
<path d="M19.6285 41.5603L26.4999 37.4473L19.6385 33.3163L19.6285 41.5603Z" fill="#EC0606"/>
<path d="M16.7439 29.3858L12.6554 22.4997L8.49998 29.3464L16.7439 29.3858Z" fill="#EC0606"/>
<path fill-rule="evenodd" clip-rule="evenodd" d="M53.6216 17.4257C53.4472 20.6087 53.2728 20.6087 53.086 17.4257C52.9117 14.2427 51.1306 11.3954 48.0169 11.2338C44.5544 11.1965 44.6665 10.9727 48.0169 10.7364C51.1431 10.6742 52.9117 7.71504 53.086 4.54446C53.2604 3.01513 53.4348 3.01513 53.6216 4.54446C53.7959 7.72748 55.577 10.6742 58.9398 10.7364C62.3026 10.8981 62.3026 11.0721 58.9398 11.2338C55.577 11.3954 53.7959 14.2427 53.6216 17.4257Z" fill="#EC0606"/>
</svg>
