<svg width="47" height="58" viewBox="0 0 47 58" fill="none" xmlns="http://www.w3.org/2000/svg">
<g clip-path="url(#clip0_22_1308)">
<path d="M35.57 33.78L28.39 34.56C25.33 34.89 24.68 34.44 24.59 33.62C24.49 32.68 25.84 30.86 26.13 30.23C26.42 29.6 28.44 27.36 28.59 24.36C28.74 21.36 24.97 19.63 24.01 21.76C23.44 23.02 22.05 26.74 20.1 28.51C16.48 31.78 13.9 38.32 9.79999 38.77V54.22C13.18 53.85 22.92 56.77 25.69 57.02C28.83 57.3 32.99 58.22 34.8 55.09C35.92 53.16 37.22 46.02 38.23 40.94C41.73 36.75 38.64 33.44 35.57 33.77V33.78Z" fill="#EC0606"/>
<path d="M0 41.32V54.83C0 56.5 1.35 57.85 3.02 57.85H4.74C5.85 57.85 6.76 56.95 6.76 55.83V38.29H3.03C1.36 38.29 0.01 39.64 0.01 41.31L0 41.32Z" fill="#EC0606"/>
<path d="M6.75998 7L8.82998 11.2L13.47 11.88L10.12 15.15L10.91 19.77L6.75998 17.59L2.60998 19.77L3.39998 15.15L0.039978 11.88L4.67998 11.2L6.75998 7Z" fill="#EC0606"/>
<path d="M23.27 0L25.34 4.2L29.98 4.88L26.63 8.15L27.42 12.77L23.27 10.59L19.12 12.77L19.91 8.15L16.55 4.88L21.19 4.2L23.27 0Z" fill="#EC0606"/>
<path d="M39.78 7L41.86 11.2L46.5 11.88L43.14 15.15L43.93 19.77L39.78 17.59L35.63 19.77L36.42 15.15L33.07 11.88L37.71 11.2L39.78 7Z" fill="#EC0606"/>
</g>
<defs>
<clipPath id="clip0_22_1308">
<rect width="46.5" height="57.85" fill="white"/>
</clipPath>
</defs>
</svg>
