<svg width="68" height="52" viewBox="0 0 68 52" fill="none" xmlns="http://www.w3.org/2000/svg">
<g clip-path="url(#clip0_2201_335)">
<path d="M24 37H0V40H24V37Z" fill="#EC0606"/>
<path d="M11 32C11 29.24 8.99 26 6.5 26C4.01 26 2 29.24 2 32C2 34.76 4.01 36 6.5 36C8.99 36 11 34.76 11 32Z" fill="#EC0606"/>
<path d="M22 32C22 29.24 19.99 26 17.5 26C15.01 26 13 29.24 13 32C13 34.76 15.01 36 17.5 36C19.99 36 22 34.76 22 32Z" fill="#EC0606"/>
<path d="M12 26.96C12.85 25.29 14.18 23.9 15.79 23.31C15.26 21.07 13.76 19 12 19C10.24 19 8.74002 21.07 8.21002 23.31C9.82002 23.9 11.15 25.29 12 26.96Z" fill="#EC0606"/>
<path d="M46 49H22V52H46V49Z" fill="#EC0606"/>
<path d="M38 44C38 41.24 35.99 38 33.5 38C31.01 38 29 41.24 29 44C29 46.76 31.01 48 33.5 48C35.99 48 38 46.76 38 44Z" fill="#EC0606"/>
<path d="M68 37H44V40H68V37Z" fill="#EC0606"/>
<path d="M55 32C55 29.24 52.99 26 50.5 26C48.01 26 46 29.24 46 32C46 34.76 48.01 36 50.5 36C52.99 36 55 34.76 55 32Z" fill="#EC0606"/>
<path d="M66 32C66 29.24 63.99 26 61.5 26C59.01 26 57 29.24 57 32C57 34.76 59.01 36 61.5 36C63.99 36 66 34.76 66 32Z" fill="#EC0606"/>
<path d="M40 11H29V13H40V11Z" fill="#EC0606"/>
<path d="M40 14H29V16H40V14Z" fill="#EC0606"/>
<path d="M34 13H37L40 7H37L34 13Z" fill="#EC0606"/>
<path d="M35 13H32L29 7H32L35 13Z" fill="#EC0606"/>
<path d="M36 11H33V18H36V11Z" fill="#EC0606"/>
<path d="M34.5 3C39.19 3 43 6.81 43 11.5C43 16.19 39.19 20 34.5 20C29.81 20 26 16.19 26 11.5C26 6.81 29.81 3 34.5 3ZM34.5 0C28.15 0 23 5.15 23 11.5C23 17.85 28.15 23 34.5 23C40.85 23 46 17.85 46 11.5C46 5.15 40.85 0 34.5 0Z" fill="#EC0606"/>
</g>
<defs>
<clipPath id="clip0_2201_335">
<rect width="68" height="52" fill="white"/>
</clipPath>
</defs>
</svg>
