<svg width="78" height="32" viewBox="0 0 78 32" fill="none" xmlns="http://www.w3.org/2000/svg">
<path d="M42.621 31.9736C39.6418 31.9736 37.4075 31.1787 35.9179 29.5889C34.4426 27.9847 33.705 25.8219 33.705 23.1006V8.89941C33.705 6.13509 34.4569 3.96517 35.9608 2.38965C37.4647 0.814128 39.6848 0.0263672 42.621 0.0263672C45.5715 0.0263672 47.7916 0.814128 49.2812 2.38965C50.7851 3.95085 51.537 6.12077 51.537 8.89941V23.1006C51.537 25.8649 50.7851 28.0348 49.2812 29.6104C47.7916 31.1859 45.5715 31.9736 42.621 31.9736ZM42.621 28.4502C44.4543 28.4502 45.772 27.9775 46.5741 27.0322C47.3905 26.0726 47.7987 24.762 47.7987 23.1006V8.89941C47.7987 7.22363 47.3905 5.91309 46.5741 4.96777C45.772 4.02246 44.4543 3.5498 42.621 3.5498C40.802 3.5498 39.4843 4.02246 38.6679 4.96777C37.8515 5.91309 37.4433 7.22363 37.4433 8.89941V23.1006C37.4433 24.762 37.8515 26.0726 38.6679 27.0322C39.4843 27.9775 40.802 28.4502 42.621 28.4502Z" fill="#EC0606"/>
<path d="M21.8432 31.9736C18.864 31.9736 16.6296 31.1787 15.14 29.5889C13.6648 27.9847 12.9271 25.8219 12.9271 23.1006V8.89941C12.9271 6.13509 13.6791 3.96517 15.183 2.38965C16.6869 0.814128 18.907 0.0263672 21.8432 0.0263672C24.7937 0.0263672 27.0137 0.814128 28.5033 2.38965C30.0072 3.95085 30.7592 6.12077 30.7592 8.89941V23.1006C30.7592 25.8649 30.0072 28.0348 28.5033 29.6104C27.0137 31.1859 24.7937 31.9736 21.8432 31.9736ZM21.8432 28.4502C23.6765 28.4502 24.9942 27.9775 25.7963 27.0322C26.6127 26.0726 27.0209 24.762 27.0209 23.1006V8.89941C27.0209 7.22363 26.6127 5.91309 25.7963 4.96777C24.9942 4.02246 23.6765 3.5498 21.8432 3.5498C20.0241 3.5498 18.7064 4.02246 17.89 4.96777C17.0736 5.91309 16.6654 7.22363 16.6654 8.89941V23.1006C16.6654 24.762 17.0736 26.0726 17.89 27.0322C18.7064 27.9775 20.0241 28.4502 21.8432 28.4502Z" fill="#EC0606"/>
<path d="M8.89591 0.413147V31.6514H5.15763V4.10846L0.0658302 7.26666V3.37799L4.5131 0.413147H8.89591Z" fill="#EC0606"/>
<path d="M75.5503 26.0837C75.1983 26.0837 74.8783 26.009 74.5903 25.8597C74.313 25.7104 74.0517 25.5397 73.8064 25.3477C73.5717 25.1557 73.337 24.985 73.1024 24.8357C72.8784 24.6864 72.6383 24.6117 72.3823 24.6117C72.1263 24.6117 71.8863 24.7024 71.6623 24.8837C71.4383 25.0544 71.2303 25.321 71.0383 25.6837L70.0303 24.9637C70.393 24.3557 70.7824 23.9184 71.1984 23.6517C71.6144 23.385 72.025 23.2517 72.4303 23.2517C72.793 23.2517 73.113 23.3317 73.3904 23.4917C73.6677 23.641 73.9237 23.8117 74.1583 24.0037C74.4037 24.185 74.6384 24.3504 74.8624 24.4997C75.097 24.649 75.337 24.7237 75.5823 24.7237C75.8383 24.7237 76.0784 24.6384 76.3024 24.4677C76.5264 24.297 76.7397 24.025 76.9423 23.6517L77.9344 24.4037C77.5717 25.001 77.1823 25.433 76.7663 25.6997C76.361 25.9557 75.9557 26.0837 75.5503 26.0837Z" fill="#EC0606"/>
<path d="M54.9582 18.1641H67.5022V19.6681H56.4782V31.9561H54.9582V18.1641ZM66.7982 18.1641H68.3182V30.0841C68.3182 30.5214 68.2595 30.8627 68.1422 31.1081C68.0355 31.3534 67.8275 31.5401 67.5182 31.6681C67.2302 31.7961 66.8462 31.8761 66.3662 31.9081C65.8862 31.9401 65.2888 31.9561 64.5742 31.9561C64.5528 31.8067 64.5102 31.6414 64.4462 31.4601C64.3822 31.2787 64.3128 31.0974 64.2382 30.9161C64.1635 30.7347 64.0835 30.5747 63.9982 30.4361C64.3502 30.4467 64.6862 30.4574 65.0062 30.4681C65.3262 30.4681 65.6088 30.4681 65.8542 30.4681C66.1102 30.4574 66.2862 30.4521 66.3822 30.4521C66.5315 30.4521 66.6382 30.4254 66.7022 30.3721C66.7662 30.3081 66.7982 30.2067 66.7982 30.0681V18.1641ZM55.7902 24.0841H67.5182V25.5881H55.7902V24.0841ZM60.7822 18.9481H62.2862V24.8361H60.7822V18.9481Z" fill="#EC0606"/>
<path d="M51.002 9.70125L35.082 23.5813L33.912 22.4113L49.832 8.53125L51.002 9.70125Z" fill="#EC0606"/>
<path d="M30.1026 9.70125L14.1826 23.5813L13.0126 22.4113L28.9326 8.53125L30.1026 9.70125Z" fill="#EC0606"/>
</svg>
