<svg width="54" height="48" viewBox="0 0 54 48" fill="none" xmlns="http://www.w3.org/2000/svg">
<path d="M20.54 3.28L46.55 15.2L33.46 20.73L7.45 8.81L20.54 3.28ZM20.59 0L0 8.69L33.41 24L54 15.31L20.59 0Z" fill="#EC0606"/>
<path d="M38.09 11.93L30.59 12.57L32.66 13.53L31 14.22L27.94 12.79L27.43 12.84L26.86 13.07L30.11 14.58L28.43 15.28L25.19 13.76L22.36 14.93L19.84 13.76L22.67 12.59L19.42 11.07L21.1 10.38L24.35 11.9L24.91 11.66L25.05 11.44L21.99 10.02L23.65 9.32999L25.71 10.29L27.64 7.04999L30.45 8.35999L28.58 11.26L35.28 10.62L38.09 11.93Z" fill="#EC0606"/>
<path d="M33.21 32L0 16.51V12.88L33.28 27.82L54 19.46V23.15L33.21 32Z" fill="#EC0606"/>
<path d="M33.21 40L0 24.51V20.88L33.28 35.82L54 27.46V31.15L33.21 40Z" fill="#EC0606"/>
<path d="M33.21 48L0 32.51V28.88L33.28 43.82L54 35.46V39.15L33.21 48Z" fill="#EC0606"/>
</svg>
