<svg width="40" height="50" viewBox="0 0 40 50" fill="none" xmlns="http://www.w3.org/2000/svg">
<g clip-path="url(#clip0_492_13)">
<path d="M37.2428 6.94696C33.1472 5.95304 24.8362 3.67127 20.0019 0.5C15.1638 3.67127 6.85276 5.95691 2.75718 6.94696C1.33398 7.29116 0.332321 8.5674 0.332321 10.0331V29.3431C0.332321 34.2315 2.67597 38.8144 6.62845 41.6878C9.93895 44.0934 14.4677 46.9746 19.9981 49.5C25.5285 46.9746 30.0572 44.0972 33.3677 41.6878C37.3202 38.8144 39.6638 34.2276 39.6638 29.3431V10.0331C39.6638 8.5674 38.6622 7.29503 37.239 6.94696H37.2428ZM17.929 37.0006L6.5163 27.1L11.6909 21.1403L17.2754 25.9862L29.0826 12.9956L34.9224 18.3055L17.929 37.0006Z" fill="#EC0606"/>
</g>
<defs>
<clipPath id="clip0_492_13">
<rect width="39.3354" height="49" fill="white" transform="translate(0.332321 0.5)"/>
</clipPath>
</defs>
</svg>
