<svg width="61" height="49" viewBox="0 0 61 49" fill="none" xmlns="http://www.w3.org/2000/svg">
<g clip-path="url(#clip0_1016_26425)">
<path d="M22.97 29.6098C21.46 28.0498 20.7 25.8698 20.7 23.0798V8.87977C20.7 6.06977 21.46 3.88977 22.98 2.33977C24.5 0.789766 26.71 0.00976562 29.62 0.00976562C32.53 0.00976562 34.76 0.779766 36.27 2.32977C37.78 3.87977 38.54 6.05977 38.54 8.87977V23.0798C38.54 25.8898 37.78 28.0698 36.26 29.6198C34.74 31.1698 32.53 31.9498 29.62 31.9498C26.71 31.9498 24.48 31.1698 22.97 29.6098ZM33.54 27.0398C34.38 26.1198 34.8 24.7898 34.8 23.0798V8.87977C34.8 7.14977 34.38 5.81977 33.54 4.90977C32.7 3.98977 31.39 3.52977 29.62 3.52977C27.85 3.52977 26.54 3.98977 25.7 4.90977C24.86 5.82977 24.44 7.14977 24.44 8.87977V23.0798C24.44 24.7998 24.86 26.1198 25.7 27.0398C26.54 27.9598 27.84 28.4298 29.62 28.4298C31.4 28.4298 32.7 27.9698 33.54 27.0398Z" fill="#EC0606"/>
<path d="M44.37 29.6098C42.86 28.0498 42.1 25.8698 42.1 23.0798V8.87977C42.1 6.06977 42.86 3.88977 44.38 2.33977C45.9 0.789766 48.11 0.00976562 51.02 0.00976562C53.93 0.00976562 56.16 0.779766 57.67 2.32977C59.18 3.87977 59.94 6.05977 59.94 8.87977V23.0798C59.94 25.8898 59.18 28.0698 57.66 29.6198C56.14 31.1698 53.93 31.9498 51.02 31.9498C48.11 31.9498 45.88 31.1698 44.37 29.6098ZM54.94 27.0398C55.78 26.1198 56.2 24.7898 56.2 23.0798V8.87977C56.2 7.14977 55.78 5.81977 54.94 4.90977C54.1 3.98977 52.79 3.52977 51.02 3.52977C49.25 3.52977 47.94 3.98977 47.1 4.90977C46.26 5.82977 45.84 7.14977 45.84 8.87977V23.0798C45.84 24.7998 46.26 26.1198 47.1 27.0398C47.94 27.9598 49.24 28.4298 51.02 28.4298C52.8 28.4298 54.1 27.9698 54.94 27.0398Z" fill="#EC0606"/>
<path d="M36.34 47.2601C34.54 47.7101 31.56 48.0701 30.24 48.1601L30.04 46.7201C30.94 46.6401 31.46 46.6001 32.54 46.4701V42.3901H30.14V41.0001H32.54V39.6701H31.12V38.7401C30.79 39.0201 30.66 39.1301 30.33 39.3501L29.85 37.8501C31.56 36.5501 32.11 35.2901 32.43 34.4601H34.18C34.47 35.1201 34.87 35.9001 36.43 37.1501L35.4 38.3501C34.33 37.3001 34.2 37.1201 33.33 35.8601C33.01 36.4601 32.58 37.2401 31.61 38.2801H35.21V39.6701H33.95V41.0001H36.08V42.3901H33.95V46.2901C35 46.1401 35.49 46.0601 36.35 45.9001V47.2701L36.34 47.2601ZM30.7 45.9601C30.66 44.7701 30.45 43.8001 30.36 43.4101L31.54 43.2401C31.75 44.0201 31.9 45.0801 31.96 45.7901L30.7 45.9601ZM34.41 45.3901C34.56 44.7201 34.72 43.6701 34.79 43.0101L35.96 43.2201C35.92 43.7701 35.76 44.8901 35.55 45.6701L34.41 45.4001V45.3901ZM43.59 35.7301V37.0201C43.27 37.8301 42.57 39.5501 40.35 41.6501H43.8V48.2301H37.65V43.7001C37.29 43.9101 37.13 44.0001 36.75 44.2101L35.92 42.8901C37.41 42.2301 38.25 41.6101 39.28 40.6801C38.26 39.8001 37.72 39.4801 37.32 39.2401C37.05 39.5101 36.88 39.6601 36.49 39.9901L35.5 38.7801C36.96 37.6401 37.88 36.4101 38.59 34.3901L40.24 34.4501C40.06 34.9801 39.97 35.2401 39.76 35.7301H43.59ZM39 37.1701C38.7 37.6501 38.4 38.0301 38.29 38.1701C38.72 38.4401 39.64 39.0001 40.3 39.6401C41.3 38.4401 41.6 37.8901 41.92 37.1601H39V37.1701ZM42.31 43.0701H39.1V46.8201H42.31V43.0701Z" fill="#EC0606"/>
<path d="M45.87 43.1999C47.46 41.1199 47.83 38.9899 47.89 38.6399H46.1V37.2299H47.96V34.4399H49.38V37.2299H51.01V38.6399H49.38V39.0099C49.76 40.1499 50.31 41.1299 51.41 42.1499L50.66 43.4999C49.89 42.5499 49.56 41.7099 49.38 41.2099V48.4999H47.96V41.9699C47.5 43.6499 46.78 44.7499 46.38 45.3099L45.86 43.1999H45.87ZM53.04 44.2499V48.4999H51.57V37.9899H54.86V36.2899H51.03V34.8299H60.21V36.2899H56.37V37.9899H59.76V46.8799C59.76 47.7299 59.61 48.4999 58.22 48.4999H56.45L56.18 46.9699H57.65C58.28 46.9699 58.28 46.5199 58.28 46.1899V44.1699L57.42 45.5199C56.63 44.5299 56 43.4199 55.73 42.1799C55.16 44.0899 54.26 45.0499 53.84 45.4799L53.05 44.2699L53.04 44.2499ZM53.04 39.4399V43.9799C54.47 42.3199 54.65 41.3999 54.8 39.4399H53.04ZM58.28 39.4399H56.37C56.7 41.4599 57.23 42.8299 58.28 44.0699V39.4399Z" fill="#EC0606"/>
<path d="M38.38 9.44979L22.46 23.3298L21.29 22.1598L37.21 8.27979L38.38 9.44979Z" fill="#EC0606"/>
<path d="M59.51 9.44979L43.59 23.3298L42.42 22.1598L58.34 8.27979L59.51 9.44979Z" fill="#EC0606"/>
<path d="M4.65485 31.0026C3.34852 30.3776 2.29849 29.4655 1.50477 28.2663C0.711044 27.0671 0.206699 25.6229 0 23.9339H3.70404C3.86113 24.9135 4.17531 25.7243 4.65485 26.3915C5.1344 27.0502 5.75449 27.5485 6.51514 27.8778C7.27579 28.2072 8.16873 28.3761 9.17742 28.3761C10.8062 28.3761 12.0712 27.9369 12.9559 27.0502C13.8405 26.1634 14.2953 24.9135 14.2953 23.292V22.3462C14.2953 20.6825 13.8653 19.3903 13.0137 18.4867C12.1539 17.5746 10.9468 17.1186 9.39239 17.1186H7.22619V13.5884H9.39239C10.7979 13.5884 11.881 13.1915 12.65 12.4061C13.4189 11.6207 13.7992 10.5059 13.7992 9.07022V8.09901C13.7992 6.65487 13.3941 5.53165 12.5838 4.75469C11.7736 3.96928 10.6326 3.58079 9.16089 3.58079C8.31756 3.58079 7.56517 3.74125 6.89547 4.06217C6.22576 4.38309 5.66354 4.87292 5.20054 5.51476C4.73753 6.1566 4.39855 6.95045 4.19185 7.87943H0.504345C0.785455 6.23261 1.3146 4.8138 2.09179 3.63146C2.86898 2.44913 3.86113 1.54548 5.05998 0.928979C6.25884 0.312475 7.63132 0 9.16089 0C11.7984 0 13.8488 0.709402 15.2957 2.12821C16.7426 3.54701 17.4619 5.54854 17.4619 8.13279V8.86753C17.4619 10.3877 17.0898 11.7051 16.3375 12.8284C15.5851 13.9431 14.5185 14.7623 13.1212 15.2775C14.6673 15.6406 15.8579 16.4514 16.7013 17.7182C17.5446 18.985 17.9662 20.6065 17.9662 22.5742V23.3089C17.9662 25.1331 17.619 26.687 16.9328 27.9792C16.2465 29.2713 15.2461 30.2509 13.9315 30.9266C12.6169 31.6022 11.0377 31.94 9.17742 31.94C7.46596 31.94 5.95292 31.6275 4.64659 31.0026H4.65485Z" fill="#EC0606"/>
</g>
<defs>
<clipPath id="clip0_1016_26425">
<rect width="60.21" height="48.5" fill="white"/>
</clipPath>
</defs>
</svg>
