<svg width="37" height="44" viewBox="0 0 37 44" fill="none" xmlns="http://www.w3.org/2000/svg">
<path d="M35.3508 1.50998C30.6924 0.269983 24.1278 0.759983 20.1014 8.97998C19.6733 9.97998 19.1228 10.38 19.1228 10.38C18.8986 10.71 18.552 10.9 18.1952 10.9C17.8385 10.9 17.4919 10.71 17.2676 10.38C17.2676 10.38 16.7172 9.96998 16.2891 8.97998C12.2627 0.769983 5.69811 0.269983 1.03972 1.50998C1.03972 1.50998 0.458691 7.68998 5.69811 10.98C12.0486 14.97 16.2891 11.98 16.2891 14.97V21.69H20.1014V14.97C20.1014 11.98 24.3419 14.97 30.6924 10.98C35.9318 7.69998 35.3508 1.51998 35.3508 1.51998V1.50998Z" fill="#EC0606"/>
<path d="M35.2998 18.23H1.0907C0.488321 18.23 0 18.709 0 19.3V23.31C0 23.9009 0.488321 24.38 1.0907 24.38H35.2998C35.9022 24.38 36.3905 23.9009 36.3905 23.31V19.3C36.3905 18.709 35.9022 18.23 35.2998 18.23Z" fill="#EC0606"/>
<path d="M29.4284 43.23H6.94169C6.18738 43.23 5.55539 42.7 5.43307 41.97L2.7522 25.99H33.3324L30.937 41.95C30.8249 42.68 30.1827 43.23 29.4284 43.23Z" fill="#EC0606"/>
</svg>
