<svg width="48" height="48" viewBox="0 0 48 48" fill="none" xmlns="http://www.w3.org/2000/svg">
<g clip-path="url(#clip0_447_1515)">
<g clip-path="url(#clip1_447_1515)">
<path d="M0.49 35.59C1.44 36.54 2.73 37.07 4.07 37.07H43.66C46.45 37.07 48.73 34.8 48.73 32V7.07C48.73 4.28 46.46 2 43.66 2H4.07C1.27 2 -1 4.27 -1 7.07V32C-1 33.34 -0.47 34.64 0.48 35.59H0.49ZM3.86 7H43.86V32.07H3.86V7Z" fill="#EC0606"/>
<path d="M28.8604 35.07H18.8604V42.07H28.8604V35.07Z" fill="#EC0606"/>
<path d="M36.8604 41.07H10.8604C9.75578 41.07 8.86035 41.9654 8.86035 43.07C8.86035 44.1746 9.75578 45.07 10.8604 45.07H36.8604C37.9649 45.07 38.8604 44.1746 38.8604 43.07C38.8604 41.9654 37.9649 41.07 36.8604 41.07Z" fill="#EC0606"/>
<path d="M15.8604 17.07L23.8604 26.07L33.8604 13.07L23.8604 21.07L18.8604 15.07L15.8604 17.07Z" fill="#EC0606"/>
</g>
</g>
<defs>
<clipPath id="clip0_447_1515">
<rect width="48" height="48" fill="white"/>
</clipPath>
<clipPath id="clip1_447_1515">
<rect width="49.73" height="43.07" fill="white" transform="translate(-1 2)"/>
</clipPath>
</defs>
</svg>
