<svg width="39" height="51" viewBox="0 0 39 51" fill="none" xmlns="http://www.w3.org/2000/svg">
<g clip-path="url(#clip0_447_1472)">
<path d="M17.0002 35.13H23.5202C24.8302 35.13 25.8902 34.07 25.8902 32.76C25.8902 31.45 24.8302 30.39 23.5202 30.39H14.0302C8.10023 30.39 6.22023 32.86 4.15023 34.93L0.380234 38.22C0.140234 38.43 -0.00976562 38.74 -0.00976562 39.06V49.99C-0.00976562 50.14 0.0802344 50.27 0.210234 50.33C0.340234 50.39 0.500234 50.37 0.610234 50.27L7.89023 44.03C8.15023 43.81 8.49023 43.72 8.82023 43.78L20.1602 45.84C20.9502 45.99 21.7702 45.8 22.4202 45.34C22.4202 45.34 36.9002 35.27 37.9602 34.38C38.9802 33.45 38.9702 32.09 38.0302 31.07C37.0902 30.05 35.3502 30.27 34.1802 31.13C33.1102 32.02 25.8302 36.81 25.8302 36.81H16.9502C16.4802 36.81 16.1202 36.42 16.1302 35.95C16.1502 35.48 16.5402 35.12 17.0002 35.13Z" fill="#EC0606"/>
<path d="M19.3701 24.07L8.77008 13.57C6.10008 10.92 6.10008 6.63001 8.77008 3.99001C11.4401 1.35001 15.7701 1.35001 18.4501 3.99001L19.3801 4.91001L20.3101 3.99001C22.9801 1.35001 27.3101 1.35001 29.9901 3.99001C32.6601 6.64001 32.6601 10.93 29.9901 13.57L19.3901 24.07H19.3701Z" stroke="#EC0606" stroke-width="4" stroke-miterlimit="10"/>
</g>
<defs>
<clipPath id="clip0_447_1472">
<rect width="38.74" height="50.37" fill="white"/>
</clipPath>
</defs>
</svg>
