<svg width="34" height="50" viewBox="0 0 34 50" fill="none" xmlns="http://www.w3.org/2000/svg">
<g clip-path="url(#clip0_421_40)">
<path d="M1.48 1.62501C0.53 2.57501 0 3.86501 0 5.20501V44.795C0 47.585 2.27 49.865 5.07 49.865H28.93C31.72 49.865 34 47.595 34 44.795V5.20501C34 2.40501 31.73 0.13501 28.93 0.13501H5.07C3.73 0.13501 2.43 0.66501 1.48 1.61501V1.62501ZM18.82 44.795C18.38 45.305 17.72 45.615 17 45.615C16.28 45.615 15.63 45.295 15.18 44.795C14.81 44.375 14.58 43.815 14.58 43.215C14.58 41.885 15.66 40.805 16.99 40.805C18.32 40.805 19.4 41.885 19.4 43.215C19.4 43.825 19.18 44.375 18.81 44.795H18.82ZM28.93 5.20501V37.315H5.07V5.20501H28.88H28.93Z" fill="#EC0606"/>
<g clip-path="url(#clip1_421_40)">
<path d="M24 19.726H10V22.2714H24V19.726Z" fill="#EC0606"/>
<path d="M24 23.5441H10V26.0895H24V23.5441Z" fill="#EC0606"/>
<path d="M16.3636 22.2714H20.1818L24 14.635H20.1818L16.3636 22.2714Z" fill="#EC0606"/>
<path d="M17.6364 22.2714H13.8182L10 14.635H13.8182L17.6364 22.2714Z" fill="#EC0606"/>
<path d="M18.9091 19.726H15.0909V28.635H18.9091V19.726Z" fill="#EC0606"/>
</g>
</g>
<defs>
<clipPath id="clip0_421_40">
<rect width="34" height="49.73" fill="white" transform="translate(0 0.13501)"/>
</clipPath>
<clipPath id="clip1_421_40">
<rect width="14" height="14" fill="white" transform="translate(10 14.635)"/>
</clipPath>
</defs>
</svg>
