<svg width="55" height="56" viewBox="0 0 55 56" fill="none" xmlns="http://www.w3.org/2000/svg">
<g clip-path="url(#clip0_574_2570)">
<path d="M41.62 37.48C39.76 30.41 34.82 24.01 32.82 21.63C33.21 21.36 33.47 20.9 33.47 20.38C33.47 19.78 33.12 19.27 32.61 19.02L36.71 9.07002C36.76 8.95002 36.75 8.82002 36.7 8.71002C36.64 8.60002 36.54 8.52002 36.42 8.49002C36.42 8.49002 31.85 6.71002 29.27 6.71002C27.56 6.71002 25.76 7.11002 23.69 8.14002C22.86 8.56002 22 8.72002 21.11 8.74002C20.22 8.72002 19.36 8.55002 18.53 8.14002C16.46 7.11002 14.66 6.71002 12.95 6.71002C10.37 6.71002 5.80001 8.49002 5.80001 8.49002C5.68001 8.52002 5.58001 8.60002 5.52001 8.71002C5.46001 8.82002 5.46001 8.95002 5.51001 9.07002L9.61001 19.02C9.10001 19.27 8.75001 19.78 8.75001 20.38C8.75001 20.9 9.01001 21.35 9.40001 21.63C7.40001 24.02 2.46001 30.42 0.600013 37.48C-2.07999 47.68 3.90001 55.3 20.88 55.3C20.95 55.3 21.03 55.3 21.1 55.3C21.17 55.3 21.24 55.3 21.32 55.3C38.3 55.3 44.29 47.68 41.6 37.48H41.62ZM12.96 10.5C14.2 10.5 15.43 10.83 16.84 11.53C18.1 12.16 19.5 12.49 21 12.52C21 12.52 21.08 12.52 21.12 12.52C21.16 12.52 21.2 12.52 21.24 12.52C22.74 12.47 24.14 12.14 25.4 11.51C26.8 10.81 28.04 10.48 29.28 10.48C30.11 10.48 30.96 10.63 31.86 10.87L28.58 18.84H13.67L10.39 10.87C11.29 10.63 12.14 10.48 12.97 10.48L12.96 10.5ZM36.94 46.67C34.54 49.79 29 51.5 21.33 51.5C21.3 51.5 21.26 51.5 21.23 51.5C21.23 51.5 21.15 51.5 21.11 51.5C21.07 51.5 21.03 51.5 20.99 51.5C20.99 51.5 20.92 51.5 20.89 51.5C13.23 51.5 7.69001 49.78 5.28001 46.67C3.71001 44.64 3.37001 41.87 4.27001 38.44C6.35001 30.54 12.99 23.28 13.05 23.21L14.27 21.9H27.93L29.15 23.21C29.21 23.28 35.85 30.54 37.93 38.44C38.83 41.86 38.49 44.63 36.92 46.67H36.94Z" fill="#EC0606"/>
<path d="M17.45 28.92C19.47 28.92 21.09 30.58 21.09 32.98C21.09 35.38 19.49 37.04 17.45 37.04C15.41 37.04 13.79 35.38 13.79 32.98C13.79 30.58 15.43 28.92 17.45 28.92ZM25.48 29.21H28.06L17.92 43.9H15.34L25.48 29.21ZM17.45 35.04C18.01 35.04 18.58 34.44 18.58 32.98C18.58 31.52 18.05 30.92 17.45 30.92C16.76 30.92 16.3 31.76 16.3 32.98C16.3 34.2 16.74 35.04 17.45 35.04ZM26.95 36.08C28.99 36.08 30.59 37.75 30.59 40.14C30.59 42.53 29.01 44.2 26.95 44.2C24.89 44.2 23.29 42.53 23.29 40.14C23.29 37.75 24.91 36.08 26.95 36.08ZM26.95 42.2C27.53 42.2 28.08 41.56 28.08 40.12C28.08 38.77 27.57 38.08 26.95 38.08C26.28 38.08 25.8 38.86 25.8 40.14C25.8 41.42 26.27 42.2 26.95 42.2Z" fill="#EC0606"/>
<path d="M42.44 30V31H50.44V30H42.44Z" fill="#EC0606"/>
<path d="M42.44 27V29H50.44V27H42.44Z" fill="#EC0606"/>
<path d="M42.44 21V25H50.44V21H42.44Z" fill="#EC0606"/>
<path d="M42.44 12V19H50.44V12H42.44Z" fill="#EC0606"/>
<path d="M54.44 12H38.44L46.44 0L54.44 12Z" fill="#EC0606"/>
</g>
<defs>
<clipPath id="clip0_574_2570">
<rect width="54.44" height="55.3" fill="white"/>
</clipPath>
</defs>
</svg>
