<svg width="56" height="52" viewBox="0 0 56 52" fill="none" xmlns="http://www.w3.org/2000/svg">
<g clip-path="url(#clip0_133_1333)">
<path d="M0 0V52H28V0H0ZM12 40H4V34H12V40ZM24 40H16V34H24V40ZM24 24V30H16V24H24ZM12 24V30H4V24H12ZM4 4H12V10H4V4ZM4 14H12V20H4V14ZM16 20V14H24V20H16ZM16 10V4H24V10H16Z" fill="#EC0606"/>
<path d="M45.04 6V12H30.08V52H55.99V6H45.03H45.04ZM52 44H34.09V40H52V44ZM34.09 28V24H52V28H34.09ZM52 32V36H34.09V32H52ZM34.09 20V16H52V20H34.09Z" fill="#EC0606"/>
</g>
<defs>
<clipPath id="clip0_133_1333">
<rect width="56" height="52" fill="white"/>
</clipPath>
</defs>
</svg>
