<svg width="50" height="44" viewBox="0 0 50 44" fill="none" xmlns="http://www.w3.org/2000/svg">
<g clip-path="url(#clip0_3_1930)">
<path d="M1.49 33.59C2.44 34.54 3.73 35.07 5.07 35.07H44.66C47.45 35.07 49.73 32.8 49.73 30V5.07C49.73 2.28 47.46 0 44.66 0H5.07C2.27 0 0 2.27 0 5.07V30C0 31.34 0.53 32.64 1.48 33.59H1.49ZM4.86 5H44.86V30.07H4.86V5Z" fill="#EC0606"/>
<path d="M29.86 33.0699H19.86V40.0699H29.86V33.0699Z" fill="#EC0606"/>
<path d="M37.86 39.0699H11.86C10.7554 39.0699 9.85999 39.9654 9.85999 41.0699C9.85999 42.1745 10.7554 43.0699 11.86 43.0699H37.86C38.9646 43.0699 39.86 42.1745 39.86 41.0699C39.86 39.9654 38.9646 39.0699 37.86 39.0699Z" fill="#EC0606"/>
<path d="M12.2 21.23C13.8568 21.23 15.2 19.8868 15.2 18.23C15.2 16.5731 13.8568 15.23 12.2 15.23C10.5431 15.23 9.19995 16.5731 9.19995 18.23C9.19995 19.8868 10.5431 21.23 12.2 21.23Z" fill="#EC0606"/>
<path d="M26.2 21.23C27.8569 21.23 29.2 19.8868 29.2 18.23C29.2 16.5731 27.8569 15.23 26.2 15.23C24.5432 15.23 23.2 16.5731 23.2 18.23C23.2 19.8868 24.5432 21.23 26.2 21.23Z" fill="#EC0606"/>
<path d="M37.2 13.23C38.8569 13.23 40.2 11.8868 40.2 10.23C40.2 8.57313 38.8569 7.22998 37.2 7.22998C35.5432 7.22998 34.2 8.57313 34.2 10.23C34.2 11.8868 35.5432 13.23 37.2 13.23Z" fill="#EC0606"/>
<path d="M13.2 17.23L19.2 12.23L26.2 18.23L37.2 10.23" stroke="#EC0606" stroke-width="2" stroke-miterlimit="10"/>
<path d="M13.2 25.23L19.2 20.23L26.2 26.23L37.2 18.23" stroke="#EC0606" stroke-width="2" stroke-miterlimit="10"/>
</g>
<defs>
<clipPath id="clip0_3_1930">
<rect width="49.73" height="43.07" fill="white"/>
</clipPath>
</defs>
</svg>
