<svg width="50" height="50" viewBox="0 0 50 50" fill="none" xmlns="http://www.w3.org/2000/svg">
<g clip-path="url(#clip0_2204_321)">
<path d="M5.04498 0H0.0449829V50H5.04498V0Z" fill="#EC0606"/>
<path d="M49.955 45H0.0449829V50H49.955V45Z" fill="#EC0606"/>
<path d="M7.375 19.04L16.135 28.96L24.995 20.15L42.835 37.88" stroke="#EC0606" stroke-width="2" stroke-miterlimit="10"/>
<path d="M39.295 41.42L46.365 34.35V41.42H39.295Z" fill="#EC0606"/>
<path d="M31.915 13.73L35.455 17.27L30.155 19.04L31.915 13.73Z" fill="#EC0606"/>
<path d="M40.055 0C34.585 0 30.155 4.43 30.155 9.9C30.155 15.37 34.585 19.8 40.055 19.8C45.525 19.8 49.955 15.37 49.955 9.9C49.955 4.43 45.525 0 40.055 0ZM34.895 5.43H39.385V4.68H40.795V5.43H45.285V6.7H40.795V7.39H44.725V8.55H35.485V7.39H39.395V6.7H34.905V5.43H34.895ZM35.385 15.12L34.775 13.74C36.795 13.29 37.755 12.82 37.765 10.59H39.185C39.095 13.57 37.785 14.61 35.375 15.11L35.385 15.12ZM36.535 10.24V11.34H35.115V9.06H45.065V11.35H43.645V10.24H36.535ZM44.105 14.91H41.675C41.065 14.91 40.655 14.61 40.655 13.95V10.59H42.045V13.31C42.045 13.53 42.095 13.6 42.295 13.6H43.555C43.795 13.6 43.875 13.39 43.945 12.2L45.335 12.51C45.235 13.75 45.135 14.91 44.115 14.91H44.105Z" fill="#EC0606"/>
</g>
<defs>
<clipPath id="clip0_2204_321">
<rect width="49.91" height="50" fill="white" transform="translate(0.0449829)"/>
</clipPath>
</defs>
</svg>
