<svg width="60" height="60" viewBox="0 0 60 60" fill="none" xmlns="http://www.w3.org/2000/svg">
<g clip-path="url(#clip0_205_1689)">
<path d="M19.1309 17.9747C21.5057 17.9747 23.4308 16.0495 23.4308 13.6748C23.4308 11.3 21.5057 9.37488 19.1309 9.37488C16.7562 9.37488 14.8311 11.3 14.8311 13.6748C14.8311 16.0495 16.7562 17.9747 19.1309 17.9747Z" fill="#EC0606"/>
<path d="M34.1806 21.1996H4.0813V23.3495H34.1806V21.1996Z" fill="#EC0606"/>
<path d="M34.1806 4L4.0813 4V6.14995L34.1806 6.14995V4Z" fill="#EC0606"/>
<path d="M6.23125 4H4.0813L4.0813 23.3495H6.23125V4Z" fill="#EC0606"/>
<path d="M34.1806 4H32.0306V23.3495H34.1806V4Z" fill="#EC0606"/>
<path d="M57.5996 26.1805H27.5004V28.3304H57.5996V26.1805Z" fill="#EC0606"/>
<path d="M56.5246 21.8806H43.6249V24.0306H56.5246V21.8806Z" fill="#EC0606"/>
<path d="M57.5995 17.5807H43.6249V19.7306H57.5995V17.5807Z" fill="#EC0606"/>
<path d="M57.5996 30.4804H27.5004V32.6304H57.5996V30.4804Z" fill="#EC0606"/>
<path d="M57.5996 13.2808H27.5004V15.4308H57.5996V13.2808Z" fill="#EC0606"/>
<path d="M44.6999 13.2808H27.5004V28.3305H44.6999V13.2808Z" fill="#EC0606"/>
<path d="M29.6503 13.2808H27.5004V32.6303H29.6503V13.2808Z" fill="#EC0606"/>
<path d="M57.5995 13.2808H55.4496V32.6303H57.5995V13.2808Z" fill="#EC0606"/>
<path d="M32.0031 21.2772L32.5594 22.4059L33.8091 22.5833L32.9061 23.4702L33.1157 24.7118L32.0031 24.1232L30.8824 24.7118L31.1001 23.4702L30.1971 22.5833L31.4468 22.4059L32.0031 21.2772Z" fill="#F5F5F5"/>
<path d="M40.6701 21.2772L41.2264 22.4059L42.476 22.5833L41.5731 23.4702L41.7827 24.7118L40.6701 24.1232L39.5494 24.7118L39.7671 23.4702L38.8641 22.5833L40.1057 22.4059L40.6701 21.2772Z" fill="#F5F5F5"/>
<path d="M36.3323 21.2772L36.8886 22.4059L38.1383 22.5833L37.2353 23.4702L37.453 24.7118L36.3323 24.1232L35.2197 24.7118L35.4293 23.4702L34.5264 22.5833L35.776 22.4059L36.3323 21.2772Z" fill="#F5F5F5"/>
<path d="M38.5013 15.8433L39.0576 16.9801L40.3072 17.1575L39.4042 18.0363L39.6139 19.2779L38.5013 18.6974L37.3887 19.2779L37.5983 18.0363L36.6953 17.1575L37.945 16.9801L38.5013 15.8433Z" fill="#F5F5F5"/>
<path d="M34.1719 15.8433L34.7282 16.9801L35.9698 17.1575L35.0668 18.0363L35.2845 19.2779L34.1719 18.6974L33.0513 19.2779L33.2689 18.0363L32.366 17.1575L33.6076 16.9801L34.1719 15.8433Z" fill="#F5F5F5"/>
<path d="M52.8046 45.6759H39.4639L41.5703 38.3991H50.6981L52.8046 45.6759Z" fill="#EC0606"/>
<path d="M45.5278 54.1654H32.1871L34.2936 46.8887H43.4214L45.5278 54.1654Z" fill="#EC0606"/>
<path d="M60.0812 54.1654H46.7405L48.8469 46.8887H57.9747L60.0812 54.1654Z" fill="#EC0606"/>
<path d="M16.1661 51.5098L17.2812 52.0731L18.2163 50.2078L20.3814 51.2854L20.4033 51.3053L20.4247 51.3147L20.7776 50.6072L20.787 50.5859L18.5891 49.4785L18.9897 48.6746L21.1548 49.7522L21.1767 49.772L21.1871 49.7715L21.5604 49.0526L21.1636 48.8521L20.3359 48.3899L19.8944 48.1288L21.213 47.4898L22.4601 46.8857L23.2376 46.5238L23.2267 46.5139L23.247 46.5025L21.8103 45.7768L20.0524 46.6357L19.8274 46.7407L19.2143 47.0423L19.0915 47.1005L19.0811 47.101L18.9265 46.2821L18.8732 46.0441L18.5082 44.1159L17.6182 43.6672L17.1032 43.3992L17.0923 43.3892L17.0933 43.4101L17.0719 43.4007L17.4928 45.619L17.6753 46.5831L17.7451 46.9458L17.7651 47.1436L16.0708 46.2839L16.0603 46.2844L16.039 46.275L15.6766 47.0038L17.8746 48.1112L17.4636 48.9156L15.2979 47.8276L15.287 47.8176L15.2656 47.8082L14.9033 48.537L17.1012 49.6444L16.1661 51.5098Z" fill="#EC0606"/>
<path d="M8.94315 39.4633C10.1383 39.301 10.7582 38.7062 10.9276 38.5306L9.32762 36.8086C8.51924 37.1823 7.26173 37.787 6.22428 36.6654C5.57327 35.9646 5.24349 34.767 6.23765 33.4742L5.70799 32.9035L6.17836 32.4624L6.68615 33.0132C6.93649 32.7815 7.49136 32.3572 8.41065 32.114L9.04208 33.2761C8.25494 33.4396 7.8297 33.7321 7.54754 33.955L9.02613 35.5469C10.0705 35.0781 11.2376 34.551 12.286 35.6825C12.8152 36.2428 13.4089 37.4903 12.2374 39.0114L12.8442 39.6621L12.3738 40.1032L11.7999 39.4823C11.4696 39.7912 10.7469 40.4223 9.50354 40.6706L8.94365 39.4737L8.94315 39.4633ZM11.3427 38.0294C11.8482 37.2309 11.3846 36.7302 11.3076 36.6503C10.9435 36.2599 10.3735 36.3711 9.95216 36.5274L11.3532 38.0289L11.3427 38.0294ZM7.12043 34.4254C6.67359 35.1374 7.1058 35.6396 7.18339 35.73C7.56932 36.1402 8.04184 35.9605 8.41101 35.8067L7.12043 34.4254Z" fill="#EC0606"/>
<path d="M19.2873 55.7108C23.5296 55.5061 26.8027 51.9011 26.598 47.6588C26.3933 43.4165 22.7882 40.1435 18.546 40.3482C14.3037 40.5529 11.0306 44.1579 11.2353 48.4002C11.44 52.6425 15.0451 55.9156 19.2873 55.7108Z" stroke="#EC0606" stroke-width="2.32194" stroke-miterlimit="10"/>
<path d="M8.07511 43.8046C3.86472 43.265 0.885749 39.4127 1.42528 35.2023C1.96482 30.9919 5.80669 28.0135 10.0171 28.553C14.2275 29.0925 17.2065 32.9448 16.6669 37.1552" stroke="#EC0606" stroke-width="2.32194" stroke-miterlimit="10"/>
</g>
<defs>
<clipPath id="clip0_205_1689">
<rect width="60" height="60" fill="white"/>
</clipPath>
</defs>
</svg>
