<svg width="60" height="47" viewBox="0 0 60 47" fill="none" xmlns="http://www.w3.org/2000/svg">
<g clip-path="url(#clip0_4_370)">
<path d="M54.1001 12.8V10.694L59.5001 5.29395L54.4061 0.199951L51.4001 3.20595V1.99995C31.9781 1.99995 28.5041 9.96495 28.0001 14.051C27.4961 9.97395 24.0221 1.99995 4.6001 1.99995V7.43595C3.7271 7.41795 2.8361 7.39995 1.9001 7.39995V14.717L0.100098 14.6V45.2L27.1001 47V46.1089C27.8201 46.5229 27.9641 46.847 27.9911 46.955C28.0181 46.838 28.1711 46.5139 28.8821 46.1089V47L55.8821 45.2V14.6L54.0821 14.717V12.8H54.1001ZM29.8001 43.706C32.2841 41.24 38.2061 38.261 52.3001 38.018V41.5999C42.2561 41.6629 35.0201 42.2929 30.7811 43.4629C30.4301 43.562 30.1061 43.6609 29.8001 43.76V43.697V43.706ZM52.3001 14.609V36.2179C39.7001 36.4249 33.1751 38.8279 29.8001 41.3209V39.9709C32.3291 36.3169 38.1521 32.6089 51.4001 32.6089V13.394L52.3001 12.494V14.609ZM54.4061 2.74695L56.9531 5.29395L39.1331 23.1139L36.5861 20.5669L54.4061 2.74695ZM31.8341 9.65895C34.8671 6.06795 40.9871 4.06095 49.6001 3.81795V5.00595L34.0481 20.558L31.5011 28.199L39.1421 25.652L49.6091 15.185V30.818C41.6531 31.025 35.5871 32.645 31.5551 35.6329C30.8981 36.1189 30.3131 36.632 29.8091 37.145V16.391C29.8091 16.292 29.8001 16.175 29.7821 16.076C29.7551 15.941 29.2511 12.728 31.8431 9.65895H31.8341ZM6.4001 3.82695C15.0131 4.06995 21.1331 6.07695 24.1661 9.66795C26.7581 12.737 26.2541 15.95 26.2271 16.076C26.2091 16.184 26.2001 16.292 26.2001 16.409V37.1629C25.6871 36.6499 25.1111 36.137 24.4541 35.651C20.4311 32.6629 14.3651 31.043 6.4001 30.836V3.82695ZM3.7001 14.609V9.21795C4.0061 9.21795 4.3031 9.23595 4.6001 9.24495V32.6089C17.8481 32.6089 23.6711 36.3169 26.2001 39.9709V41.3209C22.8251 38.8279 16.3001 36.4249 3.7001 36.2179V14.609ZM26.2001 43.706V43.769C25.8941 43.6609 25.5611 43.562 25.2191 43.472C20.9801 42.302 13.7531 41.681 3.7001 41.6089V38.027C17.7941 38.2609 23.7161 41.2489 26.2001 43.7149V43.706Z" fill="#EC0606"/>
</g>
<defs>
<clipPath id="clip0_4_370">
<rect width="59.4" height="46.8" fill="white" transform="translate(0.100098 0.199951)"/>
</clipPath>
</defs>
</svg>
