<svg width="40" height="58" viewBox="0 0 40 58" fill="none" xmlns="http://www.w3.org/2000/svg">
<g clip-path="url(#clip0_2204_329)">
<path d="M17.24 42.07H23.76C25.07 42.07 26.13 41.01 26.13 39.7C26.13 38.39 25.07 37.33 23.76 37.33H14.27C8.34 37.33 6.46 39.8 4.39 41.87L0.619996 45.16C0.379996 45.37 0.229996 45.68 0.229996 46V56.93C0.229996 57.08 0.319996 57.21 0.449996 57.27C0.579996 57.33 0.739996 57.31 0.849996 57.21L8.13 50.97C8.39 50.75 8.73 50.66 9.06 50.72L20.4 52.78C21.19 52.93 22.01 52.74 22.66 52.28C22.66 52.28 37.14 42.21 38.2 41.32C39.22 40.39 39.21 39.03 38.27 38.01C37.33 36.99 35.59 37.21 34.42 38.07C33.35 38.96 26.07 43.75 26.07 43.75H17.19C16.72 43.75 16.36 43.36 16.37 42.89C16.39 42.42 16.78 42.06 17.24 42.07Z" fill="#EC0606"/>
<path d="M20.26 11.1899C25.77 11.1899 30.26 15.6799 30.26 21.1899C30.26 26.6999 25.77 31.1899 20.26 31.1899C14.75 31.1899 10.26 26.6999 10.26 21.1899C10.26 15.6799 14.75 11.1899 20.26 11.1899ZM20.26 8.68994C13.36 8.68994 7.75999 14.2899 7.75999 21.1899C7.75999 28.0899 13.36 33.6899 20.26 33.6899C27.16 33.6899 32.76 28.0899 32.76 21.1899C32.76 14.2899 27.16 8.68994 20.26 8.68994Z" fill="#EC0606"/>
<path d="M21.76 21.6899H18.76L14.76 15.6899H17.76L21.76 21.6899Z" fill="#EC0606"/>
<path d="M18.76 21.6899H21.76L25.76 15.6899H22.76L18.76 21.6899Z" fill="#EC0606"/>
<path d="M25.76 19.6899H14.76V21.6899H25.76V19.6899Z" fill="#EC0606"/>
<path d="M25.76 22.6899H14.76V24.6899H25.76V22.6899Z" fill="#EC0606"/>
<path d="M21.76 20.6899H18.76V27.6899H21.76V20.6899Z" fill="#EC0606"/>
<path d="M34.76 13.1899L39.76 5.68994H29.76L34.76 13.1899Z" fill="#EC0606"/>
<path d="M36.76 0.689941H32.76V5.68994H36.76V0.689941Z" fill="#EC0606"/>
</g>
<defs>
<clipPath id="clip0_2204_329">
<rect width="39.52" height="56.62" fill="white" transform="translate(0.239998 0.689941)"/>
</clipPath>
</defs>
</svg>
