<svg width="58" height="62" viewBox="0 0 58 62" fill="none" xmlns="http://www.w3.org/2000/svg">
<g clip-path="url(#clip0_6_122)">
<path d="M35 17.73H32V41.73H35V17.73Z" fill="#EC0606"/>
<path d="M54 38.73H32V41.73H54V38.73Z" fill="#EC0606"/>
<path d="M39 21.73L41.46 26.73L47.96 29.23L50 34.73" stroke="#EC0606" stroke-width="2" stroke-miterlimit="10"/>
<path d="M50 36.73C51.1046 36.73 52 35.8345 52 34.73C52 33.6254 51.1046 32.73 50 32.73C48.8954 32.73 48 33.6254 48 34.73C48 35.8345 48.8954 36.73 50 36.73Z" fill="#EC0606"/>
<path d="M39 23.73C40.1046 23.73 41 22.8345 41 21.73C41 20.6254 40.1046 19.73 39 19.73C37.8954 19.73 37 20.6254 37 21.73C37 22.8345 37.8954 23.73 39 23.73Z" fill="#EC0606"/>
<path d="M7 17.73H4V41.73H7V17.73Z" fill="#EC0606"/>
<path d="M26 38.73H4V41.73H26V38.73Z" fill="#EC0606"/>
<path d="M11 34.73L13.15 26.79L19.11 29.34L22 21.73" stroke="#EC0606" stroke-width="2" stroke-miterlimit="10"/>
<path d="M22 23.73C23.1046 23.73 24 22.8345 24 21.73C24 20.6254 23.1046 19.73 22 19.73C20.8954 19.73 20 20.6254 20 21.73C20 22.8345 20.8954 23.73 22 23.73Z" fill="#EC0606"/>
<path d="M11 36.73C12.1046 36.73 13 35.8345 13 34.73C13 33.6254 12.1046 32.73 11 32.73C9.89543 32.73 9 33.6254 9 34.73C9 35.8345 9.89543 36.73 11 36.73Z" fill="#EC0606"/>
<path d="M1 4.63H0V12.63H1V4.63Z" fill="#EC0606"/>
<path d="M4 4.63H2V12.63H4V4.63Z" fill="#EC0606"/>
<path d="M10 4.63H6V12.63H10V4.63Z" fill="#EC0606"/>
<path d="M19 4.63H12V12.63H19V4.63Z" fill="#EC0606"/>
<path d="M19 16.63V0.630005L31 8.63L19 16.63Z" fill="#EC0606"/>
<path d="M57 57.36H58V49.36H57V57.36Z" fill="#EC0606"/>
<path d="M54 57.36H56V49.36H54V57.36Z" fill="#EC0606"/>
<path d="M48 57.36H52V49.36H48V57.36Z" fill="#EC0606"/>
<path d="M39 57.36H46V49.36H39V57.36Z" fill="#EC0606"/>
<path d="M39 45.37V61.37L27 53.37L39 45.37Z" fill="#EC0606"/>
</g>
<defs>
<clipPath id="clip0_6_122">
<rect width="58" height="60.74" fill="white" transform="translate(0 0.630005)"/>
</clipPath>
</defs>
</svg>
