<svg width="58" height="40" viewBox="0 0 58 40" fill="none" xmlns="http://www.w3.org/2000/svg">
<g clip-path="url(#clip0_295_20)">
<path fill-rule="evenodd" clip-rule="evenodd" d="M51.59 18.25C51.45 20.81 51.31 20.81 51.16 18.25C51.02 15.69 49.59 13.4 47.09 13.27C44.31 13.24 44.4 13.06 47.09 12.87C49.6 12.82 51.02 10.44 51.16 7.89003C51.3 6.66003 51.44 6.66003 51.59 7.89003C51.73 10.45 53.16 12.82 55.86 12.87C58.56 13 58.56 13.14 55.86 13.27C53.16 13.4 51.73 15.69 51.59 18.25Z" fill="#EC0606"/>
<path fill-rule="evenodd" clip-rule="evenodd" d="M6.65997 12.06C6.51997 14.62 6.37997 14.62 6.22997 12.06C6.08997 9.49997 4.65997 7.20997 2.15997 7.07997C-0.62003 7.04997 -0.53003 6.86997 2.15997 6.67997C4.66997 6.62997 6.08997 4.24997 6.22997 1.69997C6.36997 0.469966 6.50997 0.469966 6.65997 1.69997C6.79997 4.25997 8.22997 6.62997 10.93 6.67997C13.63 6.80997 13.63 6.94997 10.93 7.07997C8.22997 7.20997 6.79997 9.49997 6.65997 12.06Z" fill="#EC0606"/>
<path d="M38.0599 22.37H19.6799L22.1399 7.78003H35.5999L38.0599 22.37Z" stroke="#EC0606" stroke-width="4" stroke-miterlimit="10"/>
<path d="M26.95 37.23H8.57996L11.04 22.64H24.49L26.95 37.23Z" stroke="#EC0606" stroke-width="4" stroke-miterlimit="10"/>
<path d="M49.01 37.23H30.64L33.1 22.64H46.55L49.01 37.23Z" stroke="#EC0606" stroke-width="4" stroke-miterlimit="10"/>
</g>
<defs>
<clipPath id="clip0_295_20">
<rect width="57.78" height="38.46" fill="white" transform="translate(0.109985 0.77002)"/>
</clipPath>
</defs>
</svg>
