<svg width="60" height="42" viewBox="0 0 60 42" fill="none" xmlns="http://www.w3.org/2000/svg">
<path d="M0.276855 30.9248L12.9058 2.89795H17.564L5.24561 30.6143H24.4736V34.729H0.276855V30.9248ZM16.8911 18.3735H21.2646V40.5259H16.8911V18.3735Z" fill="#EC0606"/>
<path d="M35.22 25.25H36.75V26.83H43.05V28.39H36.75V30.09H41.82V36.58C41.82 36.94 41.82 38.19 40.45 38.19H38.28L38.01 36.58H39.9C40.21 36.58 40.26 36.43 40.26 36.13V31.56H36.75V39.42H35.22V31.56H31.81V38.37H30.23V30.09H35.21V28.39H28.97V26.83H35.21V25.25H35.22Z" fill="#EC0606"/>
<path d="M51.39 34.5499C50.25 35.5199 49.43 35.8499 48.89 36.0799L48.53 35.5499C46.62 36.3699 45.71 36.6599 45 36.8699L44.85 35.2399C45.19 35.1599 46.23 34.8599 46.47 34.7899V29.8399H45V28.3599H46.47V25.3199H47.98V28.3599H49.1V29.8399H47.98V34.3099C48.65 34.0999 48.74 34.0699 49.12 33.9199L49.18 34.5999C50.59 33.9099 51.17 33.1899 51.64 32.5399H49.1V31.3599H59.18V32.5399H53.12C52.92 32.8599 52.82 33.0399 52.57 33.3699H58.76C58.76 33.5299 58.7 37.5499 58.28 38.4699C57.89 39.3299 57.3 39.3299 56.84 39.3299H54.82L54.5 37.8599H56.46C56.91 37.8599 56.96 37.6599 57.03 37.2799C57.15 36.6599 57.23 34.9099 57.24 34.5699H56.52C55.27 37.3099 53.37 38.6499 51.73 39.4399L50.81 38.2399C52.82 37.3999 53.93 36.5299 55.11 34.5699H54.05C52.4 36.8299 50.45 37.7299 48.86 38.2999L48.13 37.1999C49.01 36.9299 50.86 36.3399 52.57 34.5599H51.37L51.39 34.5499ZM49.85 25.7599H58.22V30.6399H49.85V25.7599ZM51.26 26.8799V27.7499H56.78V26.8799H51.26ZM51.26 28.7099V29.5899H56.78V28.7099H51.26Z" fill="#EC0606"/>
</svg>
