<svg width="45" height="39" viewBox="0 0 45 39" fill="none" xmlns="http://www.w3.org/2000/svg">
<path d="M11.47 38.05H7.04V5.38L1 9.13V4.52L6.27 1H11.47V38.05Z" fill="#EC0606" stroke="#EC0606" stroke-miterlimit="10"/>
<path d="M24.64 28.08C24.25 29.08 23.93 29.54 23.65 29.97L22.15 29.1C22.27 28.95 22.44 28.74 22.57 28.53H20.74V29.78C21.25 30.7 22.1 31.61 22.79 32.31L21.84 33.66C21.39 33.13 21.12 32.7 20.73 31.98V38.41H19.31V31.44C18.92 32.77 18.32 34.08 17.54 35.23L16.85 33.34C18.03 31.74 18.71 29.91 19.1 28.53H17.15V27.04H19.31V24.33H20.73V27.04H22.56V28.51C22.98 27.85 23.4 27.05 23.95 24.82L25.51 25.04C25.42 25.46 25.3 25.96 25.11 26.59H26.26V24.32H27.75V26.59H30.92V28.07H27.75V30.17H31.21V31.67H28.22C29.27 33.59 30.07 34.49 31.45 35.62L30.67 37.27C30.12 36.76 28.71 35.49 27.75 33.39V38.42H26.26V33.44C25.34 34.93 24.37 36.02 22.87 37.18L21.9 35.8C23.22 34.92 24.69 33.68 25.84 31.69H22.56V30.19H26.26V28.09H24.63L24.64 28.08Z" fill="#EC0606"/>
<path d="M44.04 31.26C42.89 33.15 41.41 33.32 40.74 33.32C39.76 33.32 39.31 33.02 38.09 32.21C37.02 31.52 36.71 31.4 36.18 31.4C34.85 31.4 34.27 32.37 34.02 32.82L32.93 31.42C34.17 29.4 35.86 29.4 36.23 29.4C37.21 29.4 37.6 29.64 39.05 30.58C39.84 31.09 40.19 31.3 40.79 31.3C42.08 31.3 42.67 30.33 42.96 29.88L44.04 31.26Z" fill="#EC0606"/>
</svg>
