<svg width="48" height="48" viewBox="0 0 48 48" fill="none" xmlns="http://www.w3.org/2000/svg">
<g clip-path="url(#clip0_133_1323)">
<circle cx="24" cy="24" r="21.5" stroke="#EC0606" stroke-width="5"/>
<path d="M19.4531 23.0625H26.7188C27.2292 23.0625 27.6771 22.9479 28.0625 22.7188C28.4583 22.4792 28.7656 22.1458 28.9844 21.7188C29.2031 21.2917 29.3125 20.8021 29.3125 20.25C29.3125 19.6875 29.2031 19.1927 28.9844 18.7656C28.776 18.3281 28.474 17.9948 28.0781 17.7656C27.6927 17.526 27.2396 17.4062 26.7188 17.4062H19.4531V13.2812H26.6094C28.026 13.2812 29.2708 13.5729 30.3438 14.1562C31.4271 14.7292 32.2656 15.5417 32.8594 16.5938C33.4531 17.6458 33.75 18.8646 33.75 20.25C33.75 21.6354 33.4531 22.8542 32.8594 23.9062C32.2656 24.9479 31.4271 25.7552 30.3438 26.3281C29.2708 26.901 28.026 27.1875 26.6094 27.1875H19.4531V23.0625ZM17.5 13.2812H21.7812V36H17.5V13.2812Z" fill="#EC0606"/>
</g>
<defs>
<clipPath id="clip0_133_1323">
<rect width="48" height="48" fill="white"/>
</clipPath>
</defs>
</svg>
