<svg width="16" height="16" viewBox="0 0 16 16" fill="none" xmlns="http://www.w3.org/2000/svg">
<path fill-rule="evenodd" clip-rule="evenodd" d="M6.5 11C4.0185 11 2 8.981 2 6.5C2 4.0185 4.0185 2 6.5 2C8.981 2 11 4.0185 11 6.5C11 8.981 8.981 11 6.5 11ZM6.5 1C3.4625 1 1 3.4625 1 6.5C1 9.5375 3.4625 12 6.5 12C9.5375 12 12 9.5375 12 6.5C12 3.4625 9.5375 1 6.5 1Z" fill="#BF0000"/>
<path fill-rule="evenodd" clip-rule="evenodd" d="M11.4306 10.7236C11.2131 10.9771 10.9771 11.2131 10.7236 11.4306L14.2931 15.0001L15.0001 14.2926L11.4306 10.7236Z" fill="#BF0000"/>
</svg>
