<svg width="56" height="56" viewBox="0 0 56 56" fill="none" xmlns="http://www.w3.org/2000/svg">
<path d="M8.86667 0.5H47.1333C51.7537 0.5 55.5 4.24631 55.5 8.86667V47.1333C55.5 51.7537 51.7537 55.5 47.1333 55.5H8.86667C4.24631 55.5 0.5 51.7537 0.5 47.1333V8.86667C0.5 4.24631 4.24631 0.5 8.86667 0.5Z" fill="white" stroke="#EBEBEB"/>
<path d="M41.2299 50.1666L39.6666 48.8553H50.6309L41.2299 50.1666Z" fill="#BF0000"/>
<path d="M43.0103 47.8707V44.9645H44.2703L46.4508 47.8707H48.6803L46.0459 44.3637C46.8673 43.7745 47.4063 42.8155 47.4063 41.7305C47.4063 39.9478 45.9561 38.5 44.1734 38.5H41.2299V47.8707H43.0103ZM43.0103 40.2792H44.1723C44.9714 40.2792 45.626 40.9302 45.626 41.7305C45.626 42.5343 44.9726 43.1842 44.1723 43.1842H43.0103V40.2792Z" fill="#BF0000"/>
<path d="M23.667 22.022H22.6916C22.4886 22.022 22.3895 21.8867 22.3206 21.6848C22.204 21.2473 21.7991 21.0105 21.1598 21.0105C20.503 21.0105 20.1005 21.2637 19.999 21.7513C19.9651 21.903 19.831 22.0208 19.628 22.0208H18.3668C17.3565 22.0208 16.8198 22.5598 16.8035 23.5702V25.5243C16.8035 26.5347 17.0893 27.0737 17.6621 27.0737C18.6701 27.0737 19.2091 26.5347 19.2091 25.5243C19.2091 24.598 19.7481 24.0928 20.7585 24.0928H20.958C22.036 24.0928 22.5563 24.7497 22.288 25.8113L20.8926 31.5887C20.6395 32.6503 20.8926 33.3072 21.5658 33.3072C22.491 33.3072 23.0615 32.8697 23.2633 31.976L24.9806 24.8687C25.1323 24.178 25.1976 23.8408 25.1976 23.5888C25.214 22.5785 24.675 22.0395 23.667 22.022Z" fill="#002896"/>
<path d="M29.9026 27.1962H31.5838C32.5941 27.1962 33.1331 27.1122 33.1331 26.1345C33.1331 25.1242 32.5941 24.871 31.5838 24.871H29.9026C28.8923 24.871 28.3533 25.2245 28.3533 26.0167C28.3533 27.027 28.8923 27.1962 29.9026 27.1962Z" fill="#002896"/>
<path d="M29.9026 24.0286H31.5838C32.5941 24.0286 33.1331 23.877 33.1331 22.8153C33.1331 21.805 32.5941 21.7035 31.5838 21.7035H29.9026C28.8923 21.7035 28.3533 21.9893 28.3533 22.967C28.3533 23.9785 28.8923 24.0286 29.9026 24.0286Z" fill="#002896"/>
<path d="M49.7664 29.4046C49.2951 29.1853 48.8249 29.0348 48.0001 29.6578L47.7143 29.9273C47.1753 30.4663 46.8381 30.6343 46.4846 30.2808C46.3504 30.0451 46.2816 29.7418 46.2816 29.3883V22.9378C46.2816 21.9275 45.8616 21.3885 45.0881 21.3885C44.3146 21.3885 43.8923 21.9275 43.8923 22.9378L43.9098 30.737C43.9098 31.9165 44.8023 32.977 45.9293 33.1963C46.7541 33.3981 47.6443 33.0283 48.2498 32.5896L49.3768 31.4778C50.3054 30.3321 50.3883 29.6916 49.7664 29.4046Z" fill="#002896"/>
<path d="M41.572 21.7046C40.7985 21.7046 40.3785 22.2436 40.3785 23.254V30.0078C40.3785 30.8 39.6878 30.9843 39.5875 31.7765V31.8943C39.57 32.4158 39.8383 33.2581 40.3272 33.2581C41.6397 33.2581 42.6838 32.0786 42.7667 30.7311V23.2528C42.7667 22.26 42.3303 21.7046 41.572 21.7046Z" fill="#002896"/>
<path d="M35.5869 24.4638C34.8134 24.4638 34.3934 25.0028 34.3934 26.0132V30.1735C34.3934 30.6448 34.0563 30.9657 33.6024 30.9657H30.1701C29.1598 30.9657 28.6208 31.0672 28.6208 32.1113C28.6208 33.1217 29.1598 33.257 30.1701 33.257L34.3421 33.2407C35.6546 33.1567 36.6988 32.0787 36.7816 30.765V26.0155C36.7828 25.0028 36.3628 24.4638 35.5869 24.4638Z" fill="#002896"/>
<path d="M8.82224 22.8981V24.381C8.82224 24.7846 9.09291 25.1055 9.49541 25.1393L12.5077 25.4928C13.4831 25.5943 13.9544 25.9641 13.9544 26.9243C13.9544 27.8343 13.3466 27.8343 12.3222 27.7165L9.71474 27.4283C9.20957 27.3781 8.80474 27.7141 8.80474 28.2368V31.6726C8.80474 32.683 8.68807 33.222 7.67774 33.222C6.66741 33.222 6.41657 32.6678 6.41657 31.6738V22.8981C6.41657 21.8878 6.83657 21.3488 7.61241 21.3488C8.40224 21.3488 8.82224 21.8878 8.82224 22.8981Z" fill="#002896"/>
</svg>
