<svg width="100" height="100" viewBox="0 0 100 100" fill="none" xmlns="http://www.w3.org/2000/svg">
<g clip-path="url(#clip0_14601_38783)">
<path d="M0.5 84.1667V15.8333C0.5 7.35948 7.35948 0.5 15.8333 0.5H84.1667C92.6405 0.5 99.5 7.35948 99.5 15.8333V84.1667C99.5 92.6405 92.6405 99.5 84.1667 99.5H15.8333C7.35948 99.5 0.5 92.6405 0.5 84.1667Z" fill="white" stroke="#D1D1D1"/>
<path d="M13.2057 31.2503L10.4141 28.917H29.9974L13.2057 31.2503Z" fill="#BF0000"/>
<path d="M16.3971 27.1465V21.959H18.6471L22.543 27.1465H26.5221L21.8138 20.8757C23.2721 19.8132 24.2513 18.1048 24.2513 16.1673C24.2513 12.9798 21.668 10.3965 18.4805 10.3965H13.2305V27.1257H16.418L16.3971 27.1465ZM16.3971 13.6048H18.4805C19.918 13.6048 21.0846 14.7715 21.0846 16.1882C21.0846 17.6048 19.918 18.7923 18.4805 18.7923H16.3971V13.6048Z" fill="#BF0000"/>
<path d="M12.5361 74.1882C12.6611 73.5007 13.0361 72.9173 13.5986 72.4382C14.182 71.959 14.807 71.709 15.4945 71.709C16.182 71.709 16.7028 71.959 17.0986 72.4382C17.4945 72.9173 17.6195 73.5007 17.4945 74.1882L15.4111 84.8757C15.2861 85.5632 14.9111 86.1465 14.3486 86.6257C13.7861 87.1048 13.1403 87.3548 12.4528 87.3548C11.7653 87.3548 11.2445 87.1048 10.8486 86.6257C10.4528 86.1465 10.3278 85.5632 10.4528 84.8757L12.5361 74.1882Z" fill="black"/>
<path d="M35.0813 83.3346C34.9771 83.8346 34.7688 84.2721 34.4563 84.6263C34.1438 84.9805 33.6854 85.3346 33.0813 85.668C31.9354 86.293 30.7896 86.7513 29.6438 87.043C28.4979 87.3346 27.3938 87.4805 26.3521 87.4805C24.5188 87.4805 22.9979 87.0846 21.7688 86.2721C20.5396 85.4596 19.6854 84.3346 19.2063 82.8971C18.7271 81.4596 18.6646 79.7513 19.0396 77.8138C19.4146 75.8971 20.1438 74.1888 21.2479 72.7305C22.3521 71.2721 23.7063 70.1263 25.2896 69.293C26.8729 68.4596 28.6229 68.043 30.4979 68.043C31.4771 68.043 32.4354 68.168 33.3729 68.3971C34.3104 68.6263 35.0813 68.9805 35.6646 69.4388C36.1229 69.8138 36.4146 70.1471 36.5396 70.4805C36.6646 70.793 36.6854 71.2096 36.5813 71.7305C36.4771 72.2721 36.1854 72.7513 35.7063 73.1888C35.2271 73.6263 34.6854 73.8346 34.0813 73.8346C33.6229 73.8346 33.0604 73.6471 32.3521 73.2513C31.9563 73.043 31.5813 72.8763 31.1854 72.7513C30.7896 72.6263 30.3521 72.5846 29.8729 72.5846C28.4979 72.5846 27.2896 73.0638 26.2688 74.0221C25.2479 74.9805 24.5813 76.2305 24.2896 77.793C23.9771 79.418 24.1021 80.7096 24.6854 81.668C25.2688 82.6263 26.2271 83.0846 27.5604 83.0846C28.6854 83.0846 29.7063 82.8138 30.6021 82.293L30.9354 80.543H29.0188C28.4771 80.543 28.0396 80.3346 27.7271 79.9388C27.4146 79.5221 27.3104 79.0638 27.4146 78.5013C27.5188 77.9388 27.8104 77.4805 28.2896 77.0846C28.7688 76.6888 29.2688 76.4805 29.8104 76.4805H34.1021C34.7479 76.4805 35.2479 76.7096 35.6229 77.168C35.9979 77.6263 36.1229 78.168 35.9771 78.8138L35.1021 83.3555L35.0813 83.3346Z" fill="black"/>
<path d="M39.1221 73.9596C39.2471 73.3346 39.5804 72.8138 40.1012 72.3763C40.6221 71.9388 41.2054 71.7305 41.8304 71.7305C42.4554 71.7305 42.9346 71.918 43.2471 72.3138C43.5804 72.7096 43.7262 73.1888 43.6846 73.7513V74.3138C44.2054 73.4596 44.8512 72.793 45.6221 72.3138C46.3929 71.8346 47.1846 71.6055 48.0179 71.6055C49.0387 71.6055 49.7262 71.918 50.0804 72.5638C50.3512 73.043 50.4346 73.6263 50.2887 74.3138C50.1429 75.043 49.7887 75.6471 49.2471 76.1055C48.6846 76.5638 48.1221 76.793 47.5596 76.793C47.3929 76.793 47.2471 76.793 47.0804 76.7305C46.9137 76.6888 46.7679 76.6471 46.6221 76.5846C46.3512 76.4596 46.0596 76.418 45.7262 76.418C45.0804 76.418 44.5179 76.7305 43.9971 77.3763C43.4762 78.0013 43.1221 78.8555 42.9137 79.8971L41.9346 84.918C41.8096 85.6055 41.4346 86.1888 40.8721 86.668C40.3096 87.1471 39.6637 87.3971 38.9762 87.3971C38.2887 87.3971 37.7679 87.1471 37.3721 86.668C36.9762 86.1888 36.8512 85.6055 36.9762 84.918L39.1012 74.0013L39.1221 73.9596Z" fill="black"/>
<path d="M55.8915 87.501C54.3915 87.501 53.0998 87.1676 52.0373 86.4801C50.954 85.7926 50.1832 84.8551 49.7248 83.6468C49.2665 82.4385 49.1832 81.0635 49.4748 79.501C49.7873 77.9385 50.3915 76.5635 51.329 75.3551C52.2665 74.1468 53.3915 73.2093 54.7457 72.5218C56.079 71.8343 57.4957 71.501 58.9957 71.501C60.4957 71.501 61.7873 71.8343 62.8498 72.5218C63.9123 73.2093 64.704 74.1468 65.1623 75.3551C65.6207 76.5635 65.704 77.9385 65.4123 79.501C65.0998 81.0635 64.4957 82.4385 63.5582 83.6468C62.6207 84.8551 61.4957 85.7926 60.1415 86.4801C58.8082 87.1676 57.3915 87.501 55.8915 87.501ZM59.9957 76.9801C59.5998 76.3343 58.9748 76.001 58.1207 76.001C57.2665 76.001 56.5373 76.3343 55.8915 76.9801C55.2457 77.626 54.8082 78.4801 54.6207 79.501C54.4123 80.5218 54.5165 81.376 54.9123 82.0218C55.3082 82.6676 55.9332 83.001 56.7665 83.001C57.5998 83.001 58.3707 82.6676 59.0165 82.0218C59.6623 81.376 60.079 80.5218 60.2873 79.501C60.4748 78.4593 60.3915 77.626 59.9957 76.9801Z" fill="black"/>
<path d="M84.056 84.7917C83.6602 85.5625 83.1185 86.1875 82.4518 86.6667C81.7852 87.125 81.0768 87.375 80.306 87.375C79.5352 87.375 78.8893 87.1458 78.3893 86.6667C77.8893 86.1875 77.6185 85.5833 77.5768 84.7917L77.2643 78.8333L74.5352 84.7917C74.2018 85.5417 73.681 86.1667 72.9935 86.6458C72.306 87.125 71.5768 87.3542 70.806 87.3542C70.0352 87.3542 69.4518 87.125 68.9518 86.6458C68.4518 86.1875 68.1602 85.5625 68.056 84.7708L66.9727 75.3333C66.9518 75.0625 66.931 74.8125 66.9102 74.6042C66.9102 74.3958 66.9102 74.1875 66.931 74.0208C67.056 73.3542 67.4102 72.7917 67.9518 72.3333C68.5143 71.875 69.1185 71.625 69.7852 71.625C70.3477 71.625 70.806 71.7917 71.181 72.1458C71.556 72.5 71.7435 72.9375 71.7435 73.5L72.0143 82.4375L75.5977 73.9375C75.8893 73.2083 76.3268 72.6458 76.9102 72.25C77.4935 71.8333 78.1185 71.6458 78.7852 71.6458C79.4518 71.6458 80.0143 71.8542 80.431 72.25C80.8477 72.6458 81.056 73.2292 81.0768 73.9792L81.3893 82.3333L85.2018 73.4375C85.4102 72.9375 85.7643 72.5 86.2227 72.1667C86.681 71.8333 87.2018 71.6667 87.7435 71.6667C88.3477 71.6667 88.8268 71.875 89.1602 72.3125C89.5143 72.75 89.6185 73.25 89.4935 73.8542C89.4518 74.0417 89.3685 74.2708 89.2643 74.5417C89.1602 74.8125 89.0143 75.0833 88.8685 75.3333L84.0143 84.7917H84.056Z" fill="black"/>
<path d="M19.0617 67.7507C18.8533 69.2507 17.4575 70.4798 15.9575 70.4798C14.4575 70.4798 13.4158 69.2715 13.6242 67.7507C13.8325 66.2507 15.2283 65.0215 16.7283 65.0215C18.2283 65.0215 19.27 66.2298 19.0617 67.7507Z" fill="#BF0000"/>
<path d="M78.9362 17.6459C78.9362 16.9168 78.1862 16.4376 77.5196 16.7293L57.0404 25.7918C56.3112 26.1043 56.2279 27.1043 56.8946 27.5418L62.8738 31.5001C61.3113 34.2084 59.3321 36.8126 57.0612 39.2084C54.0821 42.3334 50.6029 45.1459 46.7904 47.5209C42.9779 49.8751 38.8737 51.8334 34.5196 53.1876C30.4154 54.4793 26.1029 55.2709 21.7071 55.2918C21.2904 55.2918 20.9363 55.6043 20.8946 56.0209C20.8529 56.4584 21.1446 56.8543 21.5613 56.9168C26.0821 57.6876 30.7487 57.6668 35.3529 57.0626C40.2279 56.4168 45.0196 55.1043 49.6446 53.2501C54.2696 51.3751 58.7071 48.9584 62.8529 45.9168C66.1029 43.5209 69.1446 40.7293 71.8321 37.4793L77.5821 41.3126C78.2488 41.7501 79.1446 41.2709 79.1446 40.4584L78.9154 17.6459H78.9362Z" fill="#BF0000"/>
</g>
<defs>
<clipPath id="clip0_14601_38783">
<rect width="100" height="100" fill="white"/>
</clipPath>
</defs>
</svg>
