<svg width="24" height="24" viewBox="0 0 24 24" fill="none" xmlns="http://www.w3.org/2000/svg">
<path d="M22.5 0H1.5C0.671573 0 0 0.671573 0 1.5V22.5C0 23.3284 0.671573 24 1.5 24H22.5C23.3284 24 24 23.3284 24 22.5V1.5C24 0.671573 23.3284 0 22.5 0Z" fill="#014099"/>
<path fill-rule="evenodd" clip-rule="evenodd" d="M20.4 19.0277C20.2003 18.9117 19.9674 18.8664 19.7388 18.8991C19.5102 18.9317 19.2993 19.0405 19.14 19.2077L18.9375 19.4027C18.555 19.7852 18.3075 19.9127 18.06 19.6577C17.9622 19.4623 17.9133 19.2461 17.9175 19.0277V14.4152C17.9175 13.6652 17.6175 13.3052 17.0625 13.3052C16.5075 13.3052 16.2075 13.6952 16.2075 14.4152V19.9802C16.2106 20.3961 16.3559 20.7984 16.6192 21.1204C16.8825 21.4424 17.248 21.6646 17.655 21.7502C17.9464 21.7988 18.2447 21.7851 18.5303 21.7101C18.816 21.6352 19.0826 21.5006 19.3125 21.3152L20.1225 20.5202C20.775 19.7102 20.8725 19.2527 20.4 19.0202" fill="white"/>
<path fill-rule="evenodd" clip-rule="evenodd" d="M14.55 13.2227C13.995 13.2227 13.695 13.6052 13.695 14.3252V19.1477C13.695 19.7102 13.1925 19.8377 13.125 20.4002V20.4827C13.125 20.8652 13.305 21.4502 13.65 21.4502C14.112 21.424 14.5472 21.2252 14.8695 20.8932C15.1918 20.5612 15.3776 20.1202 15.39 19.6577V14.3252C15.39 13.5752 15.0825 13.2227 14.55 13.2227Z" fill="white"/>
<path d="M6.44261 3.63023V4.72523C6.44416 4.8589 6.49593 4.9871 6.58763 5.08436C6.67933 5.18162 6.80426 5.24083 6.93761 5.25023L9.18761 5.50524C9.90011 5.58024 10.2526 5.85024 10.2526 6.56274C10.2526 7.27524 9.81011 7.23024 9.05261 7.14774L7.11011 6.96024C7.02538 6.94811 6.93903 6.95472 6.85714 6.97961C6.77525 7.0045 6.69981 7.04705 6.63616 7.10427C6.57251 7.16148 6.52218 7.23197 6.48874 7.31075C6.4553 7.38954 6.43955 7.4747 6.44261 7.56024V10.0802C6.44261 10.8302 6.35261 11.2202 5.61011 11.2202C4.86761 11.2202 4.67261 10.8227 4.67261 10.0802V3.63023C4.67261 2.88023 4.98761 2.49023 5.55761 2.49023C6.12761 2.49023 6.44261 2.88773 6.44261 3.63023Z" fill="white"/>
<path d="M17.1751 2.74482C17.1871 2.81048 17.2211 2.87009 17.2716 2.91374C17.322 2.9574 17.3859 2.98248 17.4526 2.98482H18.1576C18.3125 2.96927 18.4689 2.98859 18.6153 3.04136C18.7617 3.09413 18.8944 3.17901 19.0038 3.28978C19.1131 3.40055 19.1962 3.53439 19.2471 3.68148C19.2979 3.82857 19.3152 3.98519 19.2976 4.13982C19.2797 4.45662 19.2294 4.77075 19.1476 5.07732L17.8801 10.3273C17.8338 10.6203 17.6779 10.8847 17.4439 11.0671C17.21 11.2495 16.9156 11.3363 16.6201 11.3098C16.1251 11.3098 15.9376 10.8223 16.1251 10.0423L17.1526 5.79732C17.2226 5.64557 17.2501 5.47765 17.2321 5.31151C17.2141 5.14536 17.1513 4.98722 17.0504 4.85399C16.9495 4.72075 16.8143 4.61743 16.6593 4.55505C16.5042 4.49267 16.3352 4.47358 16.1701 4.49982H16.0276C15.2776 4.49982 14.8876 4.87482 14.8876 5.55732C14.9057 5.71139 14.8886 5.86753 14.8377 6.01405C14.7868 6.16057 14.7033 6.29366 14.5936 6.40335C14.484 6.51303 14.3509 6.59645 14.2044 6.64737C14.0578 6.69828 13.9017 6.71536 13.7476 6.69732C13.3351 6.69732 13.1176 6.29982 13.1176 5.55732V4.12482C13.105 3.97324 13.1256 3.82072 13.1782 3.67798C13.2307 3.53523 13.3139 3.40571 13.4218 3.29851C13.5297 3.19131 13.6598 3.10902 13.8029 3.05742C13.946 3.00582 14.0986 2.98617 14.2501 2.99982H15.1726C15.2335 3.00508 15.2943 2.98828 15.3439 2.95249C15.3934 2.9167 15.4285 2.86429 15.4426 2.80482C15.5176 2.44482 15.8176 2.25732 16.2976 2.25732C16.7776 2.25732 17.0926 2.41482 17.1751 2.74482Z" fill="white"/>
<path d="M6.28497 13.2598C7.03497 13.2598 7.42497 13.3273 7.42497 14.0698C7.42497 14.8123 7.02747 14.9998 6.28497 14.9998H5.04747C4.29747 14.9998 3.90747 14.9548 3.90747 14.2123C3.90747 13.4698 4.30497 13.2898 5.04747 13.2898L6.28497 13.2598ZM6.28497 15.5773C7.03497 15.5773 7.42497 15.7648 7.42497 16.5073C7.42497 17.2498 7.02747 17.2573 6.28497 17.2573H5.04747C4.29747 17.2573 3.90747 17.1298 3.90747 16.3948C3.90747 15.8098 4.30497 15.5473 5.04747 15.5473L6.28497 15.5773ZM10.1175 16.4248V19.9123C10.0947 20.3859 9.89881 20.8347 9.56699 21.1734C9.23517 21.5121 8.79053 21.7172 8.31747 21.7498H5.24997C4.49997 21.7498 4.10997 21.6523 4.10997 20.9098C4.10997 20.1673 4.49997 20.0698 5.24997 20.0698H7.76997C7.84764 20.0729 7.92513 20.06 7.99754 20.0317C8.06995 20.0034 8.13572 19.9604 8.19069 19.9055C8.24566 19.8505 8.28863 19.7847 8.31691 19.7123C8.34519 19.6399 8.35815 19.5624 8.35497 19.4848V16.4248C8.35497 15.6748 8.66997 15.2848 9.23997 15.2848C9.80997 15.2848 10.1175 15.6823 10.1175 16.4248Z" fill="white"/>
</svg>
