<svg width="16" height="16" viewBox="0 0 16 16" fill="none" xmlns="http://www.w3.org/2000/svg">
<path d="M14.3878 5.08588C14.2348 4.5055 13.7825 4.04851 13.209 3.89314C12.1696 3.61133 7.99992 3.61133 7.99992 3.61133C7.99992 3.61133 3.83022 3.61133 2.79083 3.89314C2.21734 4.04851 1.76507 4.5055 1.61204 5.08588C1.33325 6.13848 1.33325 8.33355 1.33325 8.33355C1.33325 8.33355 1.33325 10.5286 1.61204 11.5812C1.76507 12.1616 2.21734 12.6186 2.79083 12.774C3.83022 13.0558 7.99992 13.0558 7.99992 13.0558C7.99992 13.0558 12.1696 13.0558 13.209 12.774C13.7825 12.6186 14.2348 12.1616 14.3878 11.5812C14.6666 10.5286 14.6666 8.33355 14.6666 8.33355C14.6666 8.33355 14.6666 6.13848 14.3878 5.08588Z" fill="#FF0000"/>
<path d="M6.63623 10.3268L10.1211 8.33357L6.63623 6.34033V10.3268Z" fill="white"/>
</svg>
