<?xml version="1.0" encoding="utf-8"?>
<!-- Generator: Adobe Illustrator 19.2.1, SVG Export Plug-In . SVG Version: 6.00 Build 0)  -->
<svg version="1.1" id="レイヤー_1" xmlns="http://www.w3.org/2000/svg" xmlns:xlink="http://www.w3.org/1999/xlink" x="0px"
	 y="0px" viewBox="0 0 26 25" style="enable-background:new 0 0 26 25;" xml:space="preserve">
<style type="text/css">
	.st0{fill:#003399;}
</style>
<g>
	<path class="st0" d="M26,5.5c0,0.6-0.5,1-1,1H1c-0.6,0-1-0.4-1-1v-2c0-0.5,0.4-1,1-1h24c0.5,0,1,0.5,1,1V5.5z"/>
</g>
<g>
	<path class="st0" d="M26,13.5c0,0.6-0.5,1-1,1H1c-0.6,0-1-0.4-1-1v-2c0-0.6,0.4-1,1-1h24c0.5,0,1,0.4,1,1V13.5z"/>
</g>
<g>
	<path class="st0" d="M26,21.5c0,0.6-0.5,1-1,1H1c-0.6,0-1-0.4-1-1v-2c0-0.5,0.4-1,1-1h24c0.5,0,1,0.5,1,1V21.5z"/>
</g>
</svg>
