<?xml version="1.0" encoding="utf-8"?>
<!-- Generator: Adobe Illustrator 16.0.3, SVG Export Plug-In . SVG Version: 6.00 Build 0)  -->
<!DOCTYPE svg PUBLIC "-//W3C//DTD SVG 1.1//EN" "http://www.w3.org/Graphics/SVG/1.1/DTD/svg11.dtd">
<svg version="1.1" id="レイヤー_1" xmlns="http://www.w3.org/2000/svg" xmlns:xlink="http://www.w3.org/1999/xlink" x="0px"
	 y="0px" viewBox="0 0 180 180" enable-background="new 0 0 180 180" xml:space="preserve">
<path d="M166.603,147.68L100,32.32c-5.5-9.526-14.5-9.526-20,0L13.397,147.68c-5.5,9.526-1,17.32,10,17.32h133.205
	C167.603,165,172.103,157.206,166.603,147.68z M100,139c0,2.75-2.25,5-5,5H85c-2.75,0-5-2.25-5-5v-10c0-2.75,2.25-5,5-5h10
	c2.75,0,5,2.25,5,5V139z M100,108c0,2.75-2.25,5-5,5H85c-2.75,0-5-2.25-5-5V78c0-2.75,2.25-5,5-5h10c2.75,0,5,2.25,5,5V108z" fill="#ffa000"/>
</svg>
