<?xml version="1.0" encoding="utf-8"?>
<!-- Generator: Adobe Illustrator 22.1.0, SVG Export Plug-In . SVG Version: 6.00 Build 0)  -->
<svg version="1.1" id="レイヤー_1" xmlns="http://www.w3.org/2000/svg" xmlns:xlink="http://www.w3.org/1999/xlink" x="0px"
	 y="0px" viewBox="0 0 20 17" style="enable-background:new 0 0 20 17;" xml:space="preserve">
<style type="text/css">
	.st0{fill:#888888;}
</style>
<title>icon_caution_gray</title>
<g>
	<path class="st0" d="M10,1c0.3,0,0.7,0.3,1,0.8l7.7,12.7c0.3,0.3,0.3,0.7,0.2,1.1c-0.3,0.3-0.7,0.4-1.1,0.4H2.2
		c-0.4,0.1-0.8-0.1-1.1-0.4c-0.1-0.4,0-0.8,0.2-1.1L9,1.8C9.3,1.3,9.7,1,10,1 M10,0C9.2,0.1,8.5,0.5,8.2,1.3L0.4,14
		c-1,1.7-0.2,3,1.8,3h15.6c2,0,2.8-1.4,1.8-3L11.8,1.3C11.5,0.5,10.8,0.1,10,0z"/>
	<rect x="9" y="6" class="st0" width="2" height="5"/>
	<rect x="9" y="12" class="st0" width="2" height="2"/>
</g>
</svg>
