<?xml version="1.0" encoding="utf-8"?>
<!-- Generator: Adobe Illustrator 22.1.0, SVG Export Plug-In . SVG Version: 6.00 Build 0)  -->
<svg version="1.1" id="レイヤー_1" xmlns="http://www.w3.org/2000/svg" xmlns:xlink="http://www.w3.org/1999/xlink" x="0px"
	 y="0px" viewBox="0 0 18 21" style="enable-background:new 0 0 18 21;" xml:space="preserve">
<style type="text/css">
	.st0{fill:#0029B5;}
</style>
<title>header_3</title>
<path class="st0" d="M16,8.5v-1c0-3.9-3.1-7-7-7s-7,3.1-7,7v1c-1.1,0-2,0.9-2,2v8c0,1.1,0.9,2,2,2h14c1.1,0,2-0.9,2-2v-8
	C18,9.4,17.1,8.5,16,8.5z M3,7.5c0-3.3,2.7-6,6-6s6,2.7,6,6v1h-1v-1c0-2.8-2.2-5-5-5s-5,2.2-5,5v1H3V7.5z M13,7.5v1H5v-1
	c0-2.2,1.8-4,4-4S13,5.3,13,7.5z M17,18.5c0,0.6-0.4,1-1,1H2c-0.6,0-1-0.4-1-1v-8c0-0.6,0.4-1,1-1h1h1h1h8h1h1h1c0.6,0,1,0.4,1,1
	V18.5z"/>
<g>
	<path class="st0" d="M11.2,11c-0.6-0.6-1.4-1-2.2-1c-1.7,0-3,1.4-3,3c0,0.8,0.3,1.5,0.9,2.1c0,0,0.1,0.1,0.1,0.1v1v0.3
		c0,0.2,0,0.3,0.1,0.5c0.2,0.9,1,1.5,1.9,1.5s1.7-0.6,1.9-1.5c0-0.2,0.1-0.3,0.1-0.5v-0.3v-1c0,0,0.1-0.1,0.1-0.1
		C12.2,14,12.3,12.2,11.2,11z M10,16.4L10,16.4c0,0.6-0.4,1.1-1,1.1s-1-0.4-1-1v-0.1v-1v-0.6l-0.3-0.3C7.2,14.1,7,13.6,7,13
		c0-1.1,0.9-2,2-2s2,0.9,2,2c0,0.6-0.2,1.1-0.7,1.5L10,14.8v0.6V16.4z"/>
</g>
</svg>
