<?xml version="1.0" encoding="utf-8"?>
<!-- Generator: Adobe Illustrator 22.1.0, SVG Export Plug-In . SVG Version: 6.00 Build 0)  -->
<svg version="1.1" id="レイヤー_1" xmlns="http://www.w3.org/2000/svg" xmlns:xlink="http://www.w3.org/1999/xlink" x="0px"
	 y="0px" viewBox="0 0 18.7 20" style="enable-background:new 0 0 18.7 20;" xml:space="preserve">
<style type="text/css">
	.st0{fill:#0029B5;}
</style>
<title>header_2</title>
<path class="st0" d="M18.4,6.6L12.7,1c-0.2-0.2-0.5-0.3-0.7-0.3c-0.3,0-0.5,0.1-0.7,0.3L3.2,9.1l-2.5,2.5L0,19.3l7.8-0.7l2.5-2.5
	L18.4,8C18.8,7.6,18.8,7,18.4,6.6z M15.5,5.2l-7,7l-0.7,0.7l-1.4,1.4c-0.4-0.5-0.9-1-1.4-1.4l1.4-1.4l0.8-0.8l7-7L15.5,5.2z
	 M3.4,10.3l0.8-0.8L12,1.7l1.4,1.4l-7.3,7.3l-0.8,0.8l-1.2,1.2c-0.6-0.4-1.1-0.8-1.8-1.1L3.4,10.3z M1.1,18.2l0.1-1.5
	c0.3,0.1,0.6,0.3,0.9,0.5c0.2,0.3,0.4,0.6,0.5,0.9L1.1,18.2z M7.3,17.7L3.6,18c-0.1-0.6-0.4-1.1-0.8-1.5c-0.4-0.4-0.9-0.7-1.5-0.8
	L1.7,12l0,0C4.2,13.1,6.2,15.1,7.3,17.7L7.3,17.7z M9.8,15.2l-0.7,0.7l-0.9,0.9c-0.3-0.6-0.7-1.2-1.1-1.8l1.2-1.2L9,13.2l7.3-7.3
	l1.4,1.4L9.8,15.2z"/>
</svg>
