<svg width="247" height="25" viewBox="0 0 247 25" fill="none" xmlns="http://www.w3.org/2000/svg">
<g clip-path="url(#clip0_388_24174)">
<path d="M17.4192 19.8347L16.4744 23.3662H0C3.06678 20.9018 6.42099 18.1927 10.0809 14.8569C14.4564 10.8881 15.4195 9.4388 15.8293 7.90694C16.2971 6.15493 15.5602 4.62306 13.426 4.62306C10.2797 4.62306 7.83972 7.49722 7.07837 8.39922L6.41487 4.65058C8.70196 2.43076 11.6617 1.09152 14.4258 1.09152C17.9574 1.09152 20.9752 3.19822 19.743 7.79687C18.8563 11.1083 16.6151 13.5452 9.12697 19.8377H17.4192V19.8347Z" fill="white"/>
<path d="M38.1 5.05647H29.2054L27.9457 9.76214C28.6275 9.56951 29.5479 9.29738 30.9177 9.29738C35.3512 9.29738 37.8218 12.2266 36.6996 16.4124C35.7671 19.8889 32.3395 23.8027 25.9888 23.8027C22.3778 23.8027 20.3139 22.5154 19.6504 22.1332L21.5889 18.5742C23.7078 20.2711 26.2243 20.2712 26.8816 20.2712C31.1776 20.2712 32.5107 17.6447 32.8348 16.44C33.4494 14.1406 32.0123 12.7739 29.713 12.7739C28.6184 12.7739 27.4442 13.0735 26.4719 13.841H23.2156L26.5117 1.52798H39.0448L38.1 5.05953V5.05647Z" fill="white"/>
<path d="M48.3863 21.6023C51.927 20.5688 54.4801 18.6976 55.3485 15.4535C55.8927 13.4232 55.6848 10.6377 52.19 10.1607C51.3308 12.3286 49.5482 16.8294 46.9676 20.2906C46.3775 21.0856 45.0749 22.8192 43.2648 22.8192C41.097 22.8192 39.7577 20.0124 40.7392 16.3524C42.1885 10.9404 47.2091 7.73605 52.0035 7.73605C56.7978 7.73605 59.2714 10.919 58.0392 15.5177C56.4553 21.428 50.9394 23.2993 49.3831 23.8374L48.3894 21.6084L48.3863 21.6023ZM43.2495 16.4074C42.6839 18.5172 43.17 20.0491 43.9069 20.0491C44.2065 20.0491 44.5245 19.9696 45.7812 17.9607C47.6066 15.0162 48.7226 12.4081 49.5727 10.28C45.5794 11.2951 43.8091 14.3405 43.2526 16.4105L43.2495 16.4074Z" fill="white"/>
<path d="M72.8777 5.10048C71.8993 8.28345 70.3858 13.2857 68.2088 16.8662C68.9212 17.6367 69.2942 18.1106 69.8691 18.9301L67.2028 21.6422C66.7319 20.7952 66.4843 20.4222 66.096 19.8259C64.1513 22.0641 63.0261 23.1098 61.4362 24.4032L59.9043 21.6666C61.7908 20.4711 62.9038 19.4774 64.4326 17.762C63.445 16.7163 62.8182 16.169 61.8 15.423C62.6592 13.9798 63.6285 12.3134 65.3927 7.95935H63.9006L64.6681 5.09742H66.4843C67.0989 3.45548 67.3802 2.58406 67.8908 0.868744L70.8964 1.06749C70.2543 2.90817 70.0066 3.55638 69.4196 5.09742H72.8777V5.10048ZM68.2546 7.9624C66.9368 11.0231 66.1969 12.4907 65.2704 14.1816C65.6618 14.4812 65.7688 14.5546 66.3987 15.0775C67.3404 13.5089 68.5298 11.3961 69.6 7.9624H68.2577H68.2546ZM83.0412 0.871802L82.7477 1.96643H88.918L88.285 4.32996H82.1148L81.809 5.47351H87.0345L86.5086 7.43955H73.101L73.6269 5.47351H78.8523L79.1581 4.32996H72.8655L73.4984 1.96643H79.791L80.0845 0.871802H83.0443H83.0412ZM84.6618 13.2123H83.1941C82.7355 14.0837 82.6866 14.1816 82.3716 14.7044H85.5057L84.8728 17.068H69.4746L70.1075 14.7044H73.3914C73.3975 14.3069 73.3945 14.1327 73.367 13.2123H71.8259L73.1132 8.41187H85.949L84.6618 13.2123ZM82.0995 23.8834H68.6399L70.2268 17.9639H83.6864L82.0995 23.8834ZM80.1732 20.0277H72.5842L72.1103 21.795H79.6993L80.1732 20.0277ZM82.7019 10.1272H75.4614L75.0945 11.497H82.3349L82.7019 10.1272ZM79.4608 14.7044C79.8858 13.9584 79.9439 13.833 80.2588 13.2123H76.2778C76.2686 13.3377 76.2962 14.3559 76.2992 14.7044H79.4577H79.4608Z" fill="white"/>
<path d="M94.74 7.17342L91.6213 17.3247C91.129 18.9361 90.4655 21.3455 93.7279 21.3455C97.2717 21.3455 100.03 17.8017 101.61 15.0957L103.705 16.49C101.207 20.312 98.0178 23.9719 93.0216 23.9719C91.0709 23.9719 88.3863 23.3757 88.2579 20.5077C88.2395 19.8319 88.3404 18.9361 88.7991 17.4439L91.9759 6.99608L94.7339 7.17648L94.74 7.17342Z" fill="white"/>
<path d="M115.71 17.8979C114.432 20.0657 112.139 23.4291 109.751 23.4291C107.641 23.4291 105.978 20.7231 107.825 13.8374C108.353 11.8683 108.98 10.1163 109.836 8.18387L112.341 8.64251C111.864 9.75854 111.017 11.7276 110.414 13.975C109.289 18.1731 109.815 20.4418 110.631 20.4418C111.567 20.4418 113.139 17.9132 113.891 16.522L115.713 17.8948L115.71 17.8979ZM120.037 20.4663C121.553 15.1736 120.544 12.1863 119.728 10.7737L122.244 9.4803C123.764 11.908 124.167 15.4518 122.947 19.7111L120.037 20.4663Z" fill="white"/>
<path d="M133.116 12.0653C131.939 9.02913 130.829 7.13952 129.927 5.67187L133.064 3.53154C134.41 5.57097 135.361 7.21291 136.489 9.87609L133.116 12.0653ZM128.842 20.8713C140.176 17.936 143.965 10.5732 145.854 5.84615L149.19 6.76649C146.643 12.4628 142.139 20.1741 130.741 23.5344L128.842 20.8713ZM147.512 0.498391C148.285 1.79176 148.704 3.01175 149.196 4.97473L147.08 6.09382C146.674 4.1767 146.344 3.18297 145.533 1.5655L147.512 0.495333V0.498391ZM151.6 0C152.37 1.39427 152.722 2.58674 153.141 4.55278L150.982 5.64741C150.682 3.70583 150.303 2.51336 149.603 1.0457L151.6 0V0Z" fill="white"/>
<path d="M153.7 20.8462C160.381 18.7579 167.004 14.1776 170.618 6.26753H162.98C161.69 7.73518 159.503 10.1476 155.189 13.0585L153.238 10.8692C155.568 9.3282 158.73 6.98912 161.735 3.10596H175.592C170.612 16.217 161.952 21.2406 155.241 23.6286L153.7 20.8432V20.8462Z" fill="white"/>
<path d="M182.374 12.0653C181.197 9.02913 180.087 7.13952 179.185 5.67187L182.322 3.53154C183.668 5.57097 184.618 7.21291 185.747 9.87609L182.374 12.0653ZM178.1 20.8713C189.434 17.936 193.223 10.5732 195.112 5.84615L198.448 6.76649C195.901 12.4628 191.397 20.1741 179.998 23.5344L178.1 20.8713ZM196.769 0.498391C197.543 1.79176 197.962 3.01175 198.454 4.97473L196.338 6.09382C195.932 4.1767 195.601 3.18297 194.791 1.5655L196.769 0.495333V0.498391ZM200.857 0C201.628 1.39427 201.98 2.58674 202.398 4.55278L200.24 5.64741C199.94 3.70583 199.561 2.51336 198.861 1.0457L200.857 0V0Z" fill="white"/>
<path d="M202.464 20.8462C209.145 18.7579 215.767 14.1776 219.381 6.26753H211.743C210.453 7.73518 208.267 10.1476 203.953 13.0585L202.002 10.8692C204.332 9.3282 207.493 6.98912 210.499 3.10596H224.356C219.375 16.217 210.716 21.2406 204.005 23.6286L202.464 20.8432V20.8462Z" fill="white"/>
<path d="M228.095 7.27064L230.942 6.75391L230.563 11.2119C230.532 11.4718 230.511 12.227 230.517 12.7254C231.933 12.2668 232.514 12.1078 237.742 10.7961L237.834 13.4226C228.166 15.4131 224.857 17.0642 224.335 19.0149C224.047 20.0881 224.5 21.143 229.196 21.143C231.823 21.143 234.642 20.7241 235.969 20.5254L235.467 23.213C233.318 23.5127 230.801 23.69 228.713 23.69C226.423 23.69 220.43 23.6289 221.619 19.1923C222.35 16.4649 224.912 14.8535 227.698 13.7405C227.692 13.0251 227.732 12.2087 227.762 11.7898L228.098 7.27064H228.095Z" fill="white"/>
<path d="M247 7.21333L243.606 18.5387H241.315L244.012 7.21333H246.996H247ZM240.56 20.2479H243.447L242.685 23.0946H239.799L240.56 20.2479Z" fill="white"/>
</g>
<defs>
<clipPath id="clip0_388_24174">
<rect width="247" height="24.4059" fill="white"/>
</clipPath>
</defs>
</svg>
