<svg width="65" height="65" viewBox="0 0 65 65" fill="none" xmlns="http://www.w3.org/2000/svg">
<g clip-path="url(#clip0_36_29169)">
<path d="M1.80612 0.929932H0.5V2.23605H1.80612V0.929932Z" fill="black"/>
<path d="M3.11081 0.929932H1.80469V2.23605H3.11081V0.929932Z" fill="black"/>
<path d="M4.4194 0.929932H3.11328V2.23605H4.4194V0.929932Z" fill="black"/>
<path d="M5.72409 0.929932H4.41797V2.23605H5.72409V0.929932Z" fill="black"/>
<path d="M7.03073 0.929932H5.72461V2.23605H7.03073V0.929932Z" fill="black"/>
<path d="M8.33737 0.929932H7.03125V2.23605H8.33737V0.929932Z" fill="black"/>
<path d="M9.64206 0.929932H8.33594V2.23605H9.64206V0.929932Z" fill="black"/>
<path d="M12.2553 0.929932H10.9492V2.23605H12.2553V0.929932Z" fill="black"/>
<path d="M14.8667 0.929932H13.5605V2.23605H14.8667V0.929932Z" fill="black"/>
<path d="M17.48 0.929932H16.1738V2.23605H17.48V0.929932Z" fill="black"/>
<path d="M18.7866 0.929932H17.4805V2.23605H18.7866V0.929932Z" fill="black"/>
<path d="M22.7046 0.929932H21.3984V2.23605H22.7046V0.929932Z" fill="black"/>
<path d="M24.0092 0.929932H22.7031V2.23605H24.0092V0.929932Z" fill="black"/>
<path d="M27.9272 0.929932H26.6211V2.23605H27.9272V0.929932Z" fill="black"/>
<path d="M30.5405 0.929932H29.2344V2.23605H30.5405V0.929932Z" fill="black"/>
<path d="M31.8471 0.929932H30.541V2.23605H31.8471V0.929932Z" fill="black"/>
<path d="M33.1538 0.929932H31.8477V2.23605H33.1538V0.929932Z" fill="black"/>
<path d="M34.4585 0.929932H33.1523V2.23605H34.4585V0.929932Z" fill="black"/>
<path d="M35.7651 0.929932H34.459V2.23605H35.7651V0.929932Z" fill="black"/>
<path d="M37.0717 0.929932H35.7656V2.23605H37.0717V0.929932Z" fill="black"/>
<path d="M42.2944 0.929932H40.9883V2.23605H42.2944V0.929932Z" fill="black"/>
<path d="M43.603 0.929932H42.2969V2.23605H43.603V0.929932Z" fill="black"/>
<path d="M46.2143 0.929932H44.9082V2.23605H46.2143V0.929932Z" fill="black"/>
<path d="M50.1323 0.929932H48.8262V2.23605H50.1323V0.929932Z" fill="black"/>
<path d="M54.0522 0.929932H52.7461V2.23605H54.0522V0.929932Z" fill="black"/>
<path d="M56.6635 0.929932H55.3574V2.23605H56.6635V0.929932Z" fill="black"/>
<path d="M57.9702 0.929932H56.6641V2.23605H57.9702V0.929932Z" fill="black"/>
<path d="M59.2749 0.929932H57.9688V2.23605H59.2749V0.929932Z" fill="black"/>
<path d="M60.5815 0.929932H59.2754V2.23605H60.5815V0.929932Z" fill="black"/>
<path d="M61.8882 0.929932H60.582V2.23605H61.8882V0.929932Z" fill="black"/>
<path d="M63.1928 0.929932H61.8867V2.23605H63.1928V0.929932Z" fill="black"/>
<path d="M64.5014 0.929932H63.1953V2.23605H64.5014V0.929932Z" fill="black"/>
<path d="M1.80612 2.23608H0.5V3.54221H1.80612V2.23608Z" fill="black"/>
<path d="M9.64206 2.23608H8.33594V3.54221H9.64206V2.23608Z" fill="black"/>
<path d="M12.2553 2.23608H10.9492V3.54221H12.2553V2.23608Z" fill="black"/>
<path d="M16.1733 2.23608H14.8672V3.54221H16.1733V2.23608Z" fill="black"/>
<path d="M17.48 2.23608H16.1738V3.54221H17.48V2.23608Z" fill="black"/>
<path d="M22.7046 2.23608H21.3984V3.54221H22.7046V2.23608Z" fill="black"/>
<path d="M25.3178 2.23608H24.0117V3.54221H25.3178V2.23608Z" fill="black"/>
<path d="M27.9272 2.23608H26.6211V3.54221H27.9272V2.23608Z" fill="black"/>
<path d="M29.2358 2.23608H27.9297V3.54221H29.2358V2.23608Z" fill="black"/>
<path d="M31.8471 2.23608H30.541V3.54221H31.8471V2.23608Z" fill="black"/>
<path d="M33.1538 2.23608H31.8477V3.54221H33.1538V2.23608Z" fill="black"/>
<path d="M35.7651 2.23608H34.459V3.54221H35.7651V2.23608Z" fill="black"/>
<path d="M40.9897 2.23608H39.6836V3.54221H40.9897V2.23608Z" fill="black"/>
<path d="M43.603 2.23608H42.2969V3.54221H43.603V2.23608Z" fill="black"/>
<path d="M47.521 2.23608H46.2148V3.54221H47.521V2.23608Z" fill="black"/>
<path d="M48.8257 2.23608H47.5195V3.54221H48.8257V2.23608Z" fill="black"/>
<path d="M50.1323 2.23608H48.8262V3.54221H50.1323V2.23608Z" fill="black"/>
<path d="M51.4389 2.23608H50.1328V3.54221H51.4389V2.23608Z" fill="black"/>
<path d="M52.7456 2.23608H51.4395V3.54221H52.7456V2.23608Z" fill="black"/>
<path d="M54.0522 2.23608H52.7461V3.54221H54.0522V2.23608Z" fill="black"/>
<path d="M56.6635 2.23608H55.3574V3.54221H56.6635V2.23608Z" fill="black"/>
<path d="M64.5014 2.23608H63.1953V3.54221H64.5014V2.23608Z" fill="black"/>
<path d="M1.80612 3.54224H0.5V4.84836H1.80612V3.54224Z" fill="black"/>
<path d="M4.4194 3.54224H3.11328V4.84836H4.4194V3.54224Z" fill="black"/>
<path d="M5.72409 3.54224H4.41797V4.84836H5.72409V3.54224Z" fill="black"/>
<path d="M7.03073 3.54224H5.72461V4.84836H7.03073V3.54224Z" fill="black"/>
<path d="M9.64206 3.54224H8.33594V4.84836H9.64206V3.54224Z" fill="black"/>
<path d="M12.2553 3.54224H10.9492V4.84836H12.2553V3.54224Z" fill="black"/>
<path d="M16.1733 3.54224H14.8672V4.84836H16.1733V3.54224Z" fill="black"/>
<path d="M17.48 3.54224H16.1738V4.84836H17.48V3.54224Z" fill="black"/>
<path d="M21.3979 3.54224H20.0918V4.84836H21.3979V3.54224Z" fill="black"/>
<path d="M22.7046 3.54224H21.3984V4.84836H22.7046V3.54224Z" fill="black"/>
<path d="M24.0092 3.54224H22.7031V4.84836H24.0092V3.54224Z" fill="black"/>
<path d="M27.9272 3.54224H26.6211V4.84836H27.9272V3.54224Z" fill="black"/>
<path d="M30.5405 3.54224H29.2344V4.84836H30.5405V3.54224Z" fill="black"/>
<path d="M31.8471 3.54224H30.541V4.84836H31.8471V3.54224Z" fill="black"/>
<path d="M35.7651 3.54224H34.459V4.84836H35.7651V3.54224Z" fill="black"/>
<path d="M37.0717 3.54224H35.7656V4.84836H37.0717V3.54224Z" fill="black"/>
<path d="M39.685 3.54224H38.3789V4.84836H39.685V3.54224Z" fill="black"/>
<path d="M48.8257 3.54224H47.5195V4.84836H48.8257V3.54224Z" fill="black"/>
<path d="M52.7456 3.54224H51.4395V4.84836H52.7456V3.54224Z" fill="black"/>
<path d="M54.0522 3.54224H52.7461V4.84836H54.0522V3.54224Z" fill="black"/>
<path d="M56.6635 3.54224H55.3574V4.84836H56.6635V3.54224Z" fill="black"/>
<path d="M59.2749 3.54224H57.9688V4.84836H59.2749V3.54224Z" fill="black"/>
<path d="M60.5815 3.54224H59.2754V4.84836H60.5815V3.54224Z" fill="black"/>
<path d="M61.8882 3.54224H60.582V4.84836H61.8882V3.54224Z" fill="black"/>
<path d="M64.5014 3.54224H63.1953V4.84836H64.5014V3.54224Z" fill="black"/>
<path d="M1.80612 4.84839H0.5V6.15451H1.80612V4.84839Z" fill="black"/>
<path d="M4.4194 4.84839H3.11328V6.15451H4.4194V4.84839Z" fill="black"/>
<path d="M5.72409 4.84839H4.41797V6.15451H5.72409V4.84839Z" fill="black"/>
<path d="M7.03073 4.84839H5.72461V6.15451H7.03073V4.84839Z" fill="black"/>
<path d="M9.64206 4.84839H8.33594V6.15451H9.64206V4.84839Z" fill="black"/>
<path d="M17.48 4.84839H16.1738V6.15451H17.48V4.84839Z" fill="black"/>
<path d="M18.7866 4.84839H17.4805V6.15451H18.7866V4.84839Z" fill="black"/>
<path d="M20.0913 4.84839H18.7852V6.15451H20.0913V4.84839Z" fill="black"/>
<path d="M21.3979 4.84839H20.0918V6.15451H21.3979V4.84839Z" fill="black"/>
<path d="M22.7046 4.84839H21.3984V6.15451H22.7046V4.84839Z" fill="black"/>
<path d="M24.0092 4.84839H22.7031V6.15451H24.0092V4.84839Z" fill="black"/>
<path d="M35.7651 4.84839H34.459V6.15451H35.7651V4.84839Z" fill="black"/>
<path d="M37.0717 4.84839H35.7656V6.15451H37.0717V4.84839Z" fill="black"/>
<path d="M38.3764 4.84839H37.0703V6.15451H38.3764V4.84839Z" fill="black"/>
<path d="M42.2944 4.84839H40.9883V6.15451H42.2944V4.84839Z" fill="black"/>
<path d="M44.9077 4.84839H43.6016V6.15451H44.9077V4.84839Z" fill="black"/>
<path d="M46.2143 4.84839H44.9082V6.15451H46.2143V4.84839Z" fill="black"/>
<path d="M48.8257 4.84839H47.5195V6.15451H48.8257V4.84839Z" fill="black"/>
<path d="M52.7456 4.84839H51.4395V6.15451H52.7456V4.84839Z" fill="black"/>
<path d="M56.6635 4.84839H55.3574V6.15451H56.6635V4.84839Z" fill="black"/>
<path d="M59.2749 4.84839H57.9688V6.15451H59.2749V4.84839Z" fill="black"/>
<path d="M60.5815 4.84839H59.2754V6.15451H60.5815V4.84839Z" fill="black"/>
<path d="M61.8882 4.84839H60.582V6.15451H61.8882V4.84839Z" fill="black"/>
<path d="M64.5014 4.84839H63.1953V6.15451H64.5014V4.84839Z" fill="black"/>
<path d="M1.80612 6.15454H0.5V7.46066H1.80612V6.15454Z" fill="black"/>
<path d="M4.4194 6.15454H3.11328V7.46066H4.4194V6.15454Z" fill="black"/>
<path d="M5.72409 6.15454H4.41797V7.46066H5.72409V6.15454Z" fill="black"/>
<path d="M7.03073 6.15454H5.72461V7.46066H7.03073V6.15454Z" fill="black"/>
<path d="M9.64206 6.15454H8.33594V7.46066H9.64206V6.15454Z" fill="black"/>
<path d="M13.56 6.15454H12.2539V7.46066H13.56V6.15454Z" fill="black"/>
<path d="M14.8667 6.15454H13.5605V7.46066H14.8667V6.15454Z" fill="black"/>
<path d="M16.1733 6.15454H14.8672V7.46066H16.1733V6.15454Z" fill="black"/>
<path d="M18.7866 6.15454H17.4805V7.46066H18.7866V6.15454Z" fill="black"/>
<path d="M20.0913 6.15454H18.7852V7.46066H20.0913V6.15454Z" fill="black"/>
<path d="M25.3178 6.15454H24.0117V7.46066H25.3178V6.15454Z" fill="black"/>
<path d="M26.6225 6.15454H25.3164V7.46066H26.6225V6.15454Z" fill="black"/>
<path d="M27.9272 6.15454H26.6211V7.46066H27.9272V6.15454Z" fill="black"/>
<path d="M30.5405 6.15454H29.2344V7.46066H30.5405V6.15454Z" fill="black"/>
<path d="M31.8471 6.15454H30.541V7.46066H31.8471V6.15454Z" fill="black"/>
<path d="M33.1538 6.15454H31.8477V7.46066H33.1538V6.15454Z" fill="black"/>
<path d="M34.4585 6.15454H33.1523V7.46066H34.4585V6.15454Z" fill="black"/>
<path d="M35.7651 6.15454H34.459V7.46066H35.7651V6.15454Z" fill="black"/>
<path d="M37.0717 6.15454H35.7656V7.46066H37.0717V6.15454Z" fill="black"/>
<path d="M47.521 6.15454H46.2148V7.46066H47.521V6.15454Z" fill="black"/>
<path d="M56.6635 6.15454H55.3574V7.46066H56.6635V6.15454Z" fill="black"/>
<path d="M59.2749 6.15454H57.9688V7.46066H59.2749V6.15454Z" fill="black"/>
<path d="M60.5815 6.15454H59.2754V7.46066H60.5815V6.15454Z" fill="black"/>
<path d="M61.8882 6.15454H60.582V7.46066H61.8882V6.15454Z" fill="black"/>
<path d="M64.5014 6.15454H63.1953V7.46066H64.5014V6.15454Z" fill="black"/>
<path d="M1.80612 7.46021H0.5V8.76633H1.80612V7.46021Z" fill="black"/>
<path d="M9.64206 7.46021H8.33594V8.76633H9.64206V7.46021Z" fill="black"/>
<path d="M12.2553 7.46021H10.9492V8.76633H12.2553V7.46021Z" fill="black"/>
<path d="M13.56 7.46021H12.2539V8.76633H13.56V7.46021Z" fill="black"/>
<path d="M14.8667 7.46021H13.5605V8.76633H14.8667V7.46021Z" fill="black"/>
<path d="M16.1733 7.46021H14.8672V8.76633H16.1733V7.46021Z" fill="black"/>
<path d="M17.48 7.46021H16.1738V8.76633H17.48V7.46021Z" fill="black"/>
<path d="M20.0913 7.46021H18.7852V8.76633H20.0913V7.46021Z" fill="black"/>
<path d="M25.3178 7.46021H24.0117V8.76633H25.3178V7.46021Z" fill="black"/>
<path d="M26.6225 7.46021H25.3164V8.76633H26.6225V7.46021Z" fill="black"/>
<path d="M27.9272 7.46021H26.6211V8.76633H27.9272V7.46021Z" fill="black"/>
<path d="M29.2358 7.46021H27.9297V8.76633H29.2358V7.46021Z" fill="black"/>
<path d="M30.5405 7.46021H29.2344V8.76633H30.5405V7.46021Z" fill="black"/>
<path d="M35.7651 7.46021H34.459V8.76633H35.7651V7.46021Z" fill="black"/>
<path d="M39.685 7.46021H38.3789V8.76633H39.685V7.46021Z" fill="black"/>
<path d="M40.9897 7.46021H39.6836V8.76633H40.9897V7.46021Z" fill="black"/>
<path d="M47.521 7.46021H46.2148V8.76633H47.521V7.46021Z" fill="black"/>
<path d="M48.8257 7.46021H47.5195V8.76633H48.8257V7.46021Z" fill="black"/>
<path d="M51.4389 7.46021H50.1328V8.76633H51.4389V7.46021Z" fill="black"/>
<path d="M56.6635 7.46021H55.3574V8.76633H56.6635V7.46021Z" fill="black"/>
<path d="M64.5014 7.46021H63.1953V8.76633H64.5014V7.46021Z" fill="black"/>
<path d="M1.80612 8.76685H0.5V10.073H1.80612V8.76685Z" fill="black"/>
<path d="M3.11081 8.76685H1.80469V10.073H3.11081V8.76685Z" fill="black"/>
<path d="M4.4194 8.76685H3.11328V10.073H4.4194V8.76685Z" fill="black"/>
<path d="M5.72409 8.76685H4.41797V10.073H5.72409V8.76685Z" fill="black"/>
<path d="M7.03073 8.76685H5.72461V10.073H7.03073V8.76685Z" fill="black"/>
<path d="M8.33737 8.76685H7.03125V10.073H8.33737V8.76685Z" fill="black"/>
<path d="M9.64206 8.76685H8.33594V10.073H9.64206V8.76685Z" fill="black"/>
<path d="M12.2553 8.76685H10.9492V10.073H12.2553V8.76685Z" fill="black"/>
<path d="M14.8667 8.76685H13.5605V10.073H14.8667V8.76685Z" fill="black"/>
<path d="M17.48 8.76685H16.1738V10.073H17.48V8.76685Z" fill="black"/>
<path d="M20.0913 8.76685H18.7852V10.073H20.0913V8.76685Z" fill="black"/>
<path d="M22.7046 8.76685H21.3984V10.073H22.7046V8.76685Z" fill="black"/>
<path d="M25.3178 8.76685H24.0117V10.073H25.3178V8.76685Z" fill="black"/>
<path d="M27.9272 8.76685H26.6211V10.073H27.9272V8.76685Z" fill="black"/>
<path d="M30.5405 8.76685H29.2344V10.073H30.5405V8.76685Z" fill="black"/>
<path d="M33.1538 8.76685H31.8477V10.073H33.1538V8.76685Z" fill="black"/>
<path d="M35.7651 8.76685H34.459V10.073H35.7651V8.76685Z" fill="black"/>
<path d="M38.3764 8.76685H37.0703V10.073H38.3764V8.76685Z" fill="black"/>
<path d="M40.9897 8.76685H39.6836V10.073H40.9897V8.76685Z" fill="black"/>
<path d="M43.603 8.76685H42.2969V10.073H43.603V8.76685Z" fill="black"/>
<path d="M46.2143 8.76685H44.9082V10.073H46.2143V8.76685Z" fill="black"/>
<path d="M48.8257 8.76685H47.5195V10.073H48.8257V8.76685Z" fill="black"/>
<path d="M51.4389 8.76685H50.1328V10.073H51.4389V8.76685Z" fill="black"/>
<path d="M54.0522 8.76685H52.7461V10.073H54.0522V8.76685Z" fill="black"/>
<path d="M56.6635 8.76685H55.3574V10.073H56.6635V8.76685Z" fill="black"/>
<path d="M57.9702 8.76685H56.6641V10.073H57.9702V8.76685Z" fill="black"/>
<path d="M59.2749 8.76685H57.9688V10.073H59.2749V8.76685Z" fill="black"/>
<path d="M60.5815 8.76685H59.2754V10.073H60.5815V8.76685Z" fill="black"/>
<path d="M61.8882 8.76685H60.582V10.073H61.8882V8.76685Z" fill="black"/>
<path d="M63.1928 8.76685H61.8867V10.073H63.1928V8.76685Z" fill="black"/>
<path d="M64.5014 8.76685H63.1953V10.073H64.5014V8.76685Z" fill="black"/>
<path d="M12.2553 10.073H10.9492V11.3791H12.2553V10.073Z" fill="black"/>
<path d="M13.56 10.073H12.2539V11.3791H13.56V10.073Z" fill="black"/>
<path d="M16.1733 10.073H14.8672V11.3791H16.1733V10.073Z" fill="black"/>
<path d="M18.7866 10.073H17.4805V11.3791H18.7866V10.073Z" fill="black"/>
<path d="M22.7046 10.073H21.3984V11.3791H22.7046V10.073Z" fill="black"/>
<path d="M30.5405 10.073H29.2344V11.3791H30.5405V10.073Z" fill="black"/>
<path d="M35.7651 10.073H34.459V11.3791H35.7651V10.073Z" fill="black"/>
<path d="M37.0717 10.073H35.7656V11.3791H37.0717V10.073Z" fill="black"/>
<path d="M40.9897 10.073H39.6836V11.3791H40.9897V10.073Z" fill="black"/>
<path d="M42.2944 10.073H40.9883V11.3791H42.2944V10.073Z" fill="black"/>
<path d="M43.603 10.073H42.2969V11.3791H43.603V10.073Z" fill="black"/>
<path d="M48.8257 10.073H47.5195V11.3791H48.8257V10.073Z" fill="black"/>
<path d="M50.1323 10.073H48.8262V11.3791H50.1323V10.073Z" fill="black"/>
<path d="M4.4194 11.3787H3.11328V12.6848H4.4194V11.3787Z" fill="black"/>
<path d="M5.72409 11.3787H4.41797V12.6848H5.72409V11.3787Z" fill="black"/>
<path d="M7.03073 11.3787H5.72461V12.6848H7.03073V11.3787Z" fill="black"/>
<path d="M9.64206 11.3787H8.33594V12.6848H9.64206V11.3787Z" fill="black"/>
<path d="M12.2553 11.3787H10.9492V12.6848H12.2553V11.3787Z" fill="black"/>
<path d="M16.1733 11.3787H14.8672V12.6848H16.1733V11.3787Z" fill="black"/>
<path d="M18.7866 11.3787H17.4805V12.6848H18.7866V11.3787Z" fill="black"/>
<path d="M21.3979 11.3787H20.0918V12.6848H21.3979V11.3787Z" fill="black"/>
<path d="M26.6225 11.3787H25.3164V12.6848H26.6225V11.3787Z" fill="black"/>
<path d="M27.9272 11.3787H26.6211V12.6848H27.9272V11.3787Z" fill="black"/>
<path d="M29.2358 11.3787H27.9297V12.6848H29.2358V11.3787Z" fill="black"/>
<path d="M30.5405 11.3787H29.2344V12.6848H30.5405V11.3787Z" fill="black"/>
<path d="M31.8471 11.3787H30.541V12.6848H31.8471V11.3787Z" fill="black"/>
<path d="M33.1538 11.3787H31.8477V12.6848H33.1538V11.3787Z" fill="black"/>
<path d="M34.4585 11.3787H33.1523V12.6848H34.4585V11.3787Z" fill="black"/>
<path d="M35.7651 11.3787H34.459V12.6848H35.7651V11.3787Z" fill="black"/>
<path d="M37.0717 11.3787H35.7656V12.6848H37.0717V11.3787Z" fill="black"/>
<path d="M38.3764 11.3787H37.0703V12.6848H38.3764V11.3787Z" fill="black"/>
<path d="M39.685 11.3787H38.3789V12.6848H39.685V11.3787Z" fill="black"/>
<path d="M44.9077 11.3787H43.6016V12.6848H44.9077V11.3787Z" fill="black"/>
<path d="M46.2143 11.3787H44.9082V12.6848H46.2143V11.3787Z" fill="black"/>
<path d="M47.521 11.3787H46.2148V12.6848H47.521V11.3787Z" fill="black"/>
<path d="M51.4389 11.3787H50.1328V12.6848H51.4389V11.3787Z" fill="black"/>
<path d="M55.3569 11.3787H54.0508V12.6848H55.3569V11.3787Z" fill="black"/>
<path d="M56.6635 11.3787H55.3574V12.6848H56.6635V11.3787Z" fill="black"/>
<path d="M57.9702 11.3787H56.6641V12.6848H57.9702V11.3787Z" fill="black"/>
<path d="M61.8882 11.3787H60.582V12.6848H61.8882V11.3787Z" fill="black"/>
<path d="M63.1928 11.3787H61.8867V12.6848H63.1928V11.3787Z" fill="black"/>
<path d="M64.5014 11.3787H63.1953V12.6848H64.5014V11.3787Z" fill="black"/>
<path d="M7.03073 12.6853H5.72461V13.9914H7.03073V12.6853Z" fill="black"/>
<path d="M12.2553 12.6853H10.9492V13.9914H12.2553V12.6853Z" fill="black"/>
<path d="M17.48 12.6853H16.1738V13.9914H17.48V12.6853Z" fill="black"/>
<path d="M18.7866 12.6853H17.4805V13.9914H18.7866V12.6853Z" fill="black"/>
<path d="M22.7046 12.6853H21.3984V13.9914H22.7046V12.6853Z" fill="black"/>
<path d="M24.0092 12.6853H22.7031V13.9914H24.0092V12.6853Z" fill="black"/>
<path d="M25.3178 12.6853H24.0117V13.9914H25.3178V12.6853Z" fill="black"/>
<path d="M26.6225 12.6853H25.3164V13.9914H26.6225V12.6853Z" fill="black"/>
<path d="M29.2358 12.6853H27.9297V13.9914H29.2358V12.6853Z" fill="black"/>
<path d="M31.8471 12.6853H30.541V13.9914H31.8471V12.6853Z" fill="black"/>
<path d="M34.4585 12.6853H33.1523V13.9914H34.4585V12.6853Z" fill="black"/>
<path d="M46.2143 12.6853H44.9082V13.9914H46.2143V12.6853Z" fill="black"/>
<path d="M51.4389 12.6853H50.1328V13.9914H51.4389V12.6853Z" fill="black"/>
<path d="M59.2749 12.6853H57.9688V13.9914H59.2749V12.6853Z" fill="black"/>
<path d="M64.5014 12.6853H63.1953V13.9914H64.5014V12.6853Z" fill="black"/>
<path d="M3.11081 13.991H1.80469V15.2971H3.11081V13.991Z" fill="black"/>
<path d="M5.72409 13.991H4.41797V15.2971H5.72409V13.991Z" fill="black"/>
<path d="M7.03073 13.991H5.72461V15.2971H7.03073V13.991Z" fill="black"/>
<path d="M8.33737 13.991H7.03125V15.2971H8.33737V13.991Z" fill="black"/>
<path d="M9.64206 13.991H8.33594V15.2971H9.64206V13.991Z" fill="black"/>
<path d="M16.1733 13.991H14.8672V15.2971H16.1733V13.991Z" fill="black"/>
<path d="M17.48 13.991H16.1738V15.2971H17.48V13.991Z" fill="black"/>
<path d="M18.7866 13.991H17.4805V15.2971H18.7866V13.991Z" fill="black"/>
<path d="M21.3979 13.991H20.0918V15.2971H21.3979V13.991Z" fill="black"/>
<path d="M26.6225 13.991H25.3164V15.2971H26.6225V13.991Z" fill="black"/>
<path d="M29.2358 13.991H27.9297V15.2971H29.2358V13.991Z" fill="black"/>
<path d="M30.5405 13.991H29.2344V15.2971H30.5405V13.991Z" fill="black"/>
<path d="M33.1538 13.991H31.8477V15.2971H33.1538V13.991Z" fill="black"/>
<path d="M34.4585 13.991H33.1523V15.2971H34.4585V13.991Z" fill="black"/>
<path d="M35.7651 13.991H34.459V15.2971H35.7651V13.991Z" fill="black"/>
<path d="M40.9897 13.991H39.6836V15.2971H40.9897V13.991Z" fill="black"/>
<path d="M42.2944 13.991H40.9883V15.2971H42.2944V13.991Z" fill="black"/>
<path d="M46.2143 13.991H44.9082V15.2971H46.2143V13.991Z" fill="black"/>
<path d="M47.521 13.991H46.2148V15.2971H47.521V13.991Z" fill="black"/>
<path d="M51.4389 13.991H50.1328V15.2971H51.4389V13.991Z" fill="black"/>
<path d="M52.7456 13.991H51.4395V15.2971H52.7456V13.991Z" fill="black"/>
<path d="M54.0522 13.991H52.7461V15.2971H54.0522V13.991Z" fill="black"/>
<path d="M55.3569 13.991H54.0508V15.2971H55.3569V13.991Z" fill="black"/>
<path d="M56.6635 13.991H55.3574V15.2971H56.6635V13.991Z" fill="black"/>
<path d="M57.9702 13.991H56.6641V15.2971H57.9702V13.991Z" fill="black"/>
<path d="M60.5815 13.991H59.2754V15.2971H60.5815V13.991Z" fill="black"/>
<path d="M61.8882 13.991H60.582V15.2971H61.8882V13.991Z" fill="black"/>
<path d="M63.1928 13.991H61.8867V15.2971H63.1928V13.991Z" fill="black"/>
<path d="M1.80612 15.2971H0.5V16.6032H1.80612V15.2971Z" fill="black"/>
<path d="M3.11081 15.2971H1.80469V16.6032H3.11081V15.2971Z" fill="black"/>
<path d="M4.4194 15.2971H3.11328V16.6032H4.4194V15.2971Z" fill="black"/>
<path d="M5.72409 15.2971H4.41797V16.6032H5.72409V15.2971Z" fill="black"/>
<path d="M7.03073 15.2971H5.72461V16.6032H7.03073V15.2971Z" fill="black"/>
<path d="M13.56 15.2971H12.2539V16.6032H13.56V15.2971Z" fill="black"/>
<path d="M14.8667 15.2971H13.5605V16.6032H14.8667V15.2971Z" fill="black"/>
<path d="M16.1733 15.2971H14.8672V16.6032H16.1733V15.2971Z" fill="black"/>
<path d="M17.48 15.2971H16.1738V16.6032H17.48V15.2971Z" fill="black"/>
<path d="M20.0913 15.2971H18.7852V16.6032H20.0913V15.2971Z" fill="black"/>
<path d="M22.7046 15.2971H21.3984V16.6032H22.7046V15.2971Z" fill="black"/>
<path d="M25.3178 15.2971H24.0117V16.6032H25.3178V15.2971Z" fill="black"/>
<path d="M29.2358 15.2971H27.9297V16.6032H29.2358V15.2971Z" fill="black"/>
<path d="M33.1538 15.2971H31.8477V16.6032H33.1538V15.2971Z" fill="black"/>
<path d="M35.7651 15.2971H34.459V16.6032H35.7651V15.2971Z" fill="black"/>
<path d="M37.0717 15.2971H35.7656V16.6032H37.0717V15.2971Z" fill="black"/>
<path d="M38.3764 15.2971H37.0703V16.6032H38.3764V15.2971Z" fill="black"/>
<path d="M39.685 15.2971H38.3789V16.6032H39.685V15.2971Z" fill="black"/>
<path d="M47.521 15.2971H46.2148V16.6032H47.521V15.2971Z" fill="black"/>
<path d="M50.1323 15.2971H48.8262V16.6032H50.1323V15.2971Z" fill="black"/>
<path d="M55.3569 15.2971H54.0508V16.6032H55.3569V15.2971Z" fill="black"/>
<path d="M56.6635 15.2971H55.3574V16.6032H56.6635V15.2971Z" fill="black"/>
<path d="M57.9702 15.2971H56.6641V16.6032H57.9702V15.2971Z" fill="black"/>
<path d="M59.2749 15.2971H57.9688V16.6032H59.2749V15.2971Z" fill="black"/>
<path d="M60.5815 15.2971H59.2754V16.6032H60.5815V15.2971Z" fill="black"/>
<path d="M61.8882 15.2971H60.582V16.6032H61.8882V15.2971Z" fill="black"/>
<path d="M1.80612 16.6033H0.5V17.9094H1.80612V16.6033Z" fill="black"/>
<path d="M3.11081 16.6033H1.80469V17.9094H3.11081V16.6033Z" fill="black"/>
<path d="M8.33737 16.6033H7.03125V17.9094H8.33737V16.6033Z" fill="black"/>
<path d="M9.64206 16.6033H8.33594V17.9094H9.64206V16.6033Z" fill="black"/>
<path d="M10.9487 16.6033H9.64258V17.9094H10.9487V16.6033Z" fill="black"/>
<path d="M14.8667 16.6033H13.5605V17.9094H14.8667V16.6033Z" fill="black"/>
<path d="M16.1733 16.6033H14.8672V17.9094H16.1733V16.6033Z" fill="black"/>
<path d="M18.7866 16.6033H17.4805V17.9094H18.7866V16.6033Z" fill="black"/>
<path d="M22.7046 16.6033H21.3984V17.9094H22.7046V16.6033Z" fill="black"/>
<path d="M25.3178 16.6033H24.0117V17.9094H25.3178V16.6033Z" fill="black"/>
<path d="M30.5405 16.6033H29.2344V17.9094H30.5405V16.6033Z" fill="black"/>
<path d="M31.8471 16.6033H30.541V17.9094H31.8471V16.6033Z" fill="black"/>
<path d="M38.3764 16.6033H37.0703V17.9094H38.3764V16.6033Z" fill="black"/>
<path d="M39.685 16.6033H38.3789V17.9094H39.685V16.6033Z" fill="black"/>
<path d="M44.9077 16.6033H43.6016V17.9094H44.9077V16.6033Z" fill="black"/>
<path d="M46.2143 16.6033H44.9082V17.9094H46.2143V16.6033Z" fill="black"/>
<path d="M48.8257 16.6033H47.5195V17.9094H48.8257V16.6033Z" fill="black"/>
<path d="M51.4389 16.6033H50.1328V17.9094H51.4389V16.6033Z" fill="black"/>
<path d="M54.0522 16.6033H52.7461V17.9094H54.0522V16.6033Z" fill="black"/>
<path d="M57.9702 16.6033H56.6641V17.9094H57.9702V16.6033Z" fill="black"/>
<path d="M59.2749 16.6033H57.9688V17.9094H59.2749V16.6033Z" fill="black"/>
<path d="M61.8882 16.6033H60.582V17.9094H61.8882V16.6033Z" fill="black"/>
<path d="M63.1928 16.6033H61.8867V17.9094H63.1928V16.6033Z" fill="black"/>
<path d="M64.5014 16.6033H63.1953V17.9094H64.5014V16.6033Z" fill="black"/>
<path d="M1.80612 17.9094H0.5V19.2155H1.80612V17.9094Z" fill="black"/>
<path d="M3.11081 17.9094H1.80469V19.2155H3.11081V17.9094Z" fill="black"/>
<path d="M4.4194 17.9094H3.11328V19.2155H4.4194V17.9094Z" fill="black"/>
<path d="M5.72409 17.9094H4.41797V19.2155H5.72409V17.9094Z" fill="black"/>
<path d="M7.03073 17.9094H5.72461V19.2155H7.03073V17.9094Z" fill="black"/>
<path d="M8.33737 17.9094H7.03125V19.2155H8.33737V17.9094Z" fill="black"/>
<path d="M10.9487 17.9094H9.64258V19.2155H10.9487V17.9094Z" fill="black"/>
<path d="M12.2553 17.9094H10.9492V19.2155H12.2553V17.9094Z" fill="black"/>
<path d="M18.7866 17.9094H17.4805V19.2155H18.7866V17.9094Z" fill="black"/>
<path d="M20.0913 17.9094H18.7852V19.2155H20.0913V17.9094Z" fill="black"/>
<path d="M21.3979 17.9094H20.0918V19.2155H21.3979V17.9094Z" fill="black"/>
<path d="M22.7046 17.9094H21.3984V19.2155H22.7046V17.9094Z" fill="black"/>
<path d="M25.3178 17.9094H24.0117V19.2155H25.3178V17.9094Z" fill="black"/>
<path d="M26.6225 17.9094H25.3164V19.2155H26.6225V17.9094Z" fill="black"/>
<path d="M29.2358 17.9094H27.9297V19.2155H29.2358V17.9094Z" fill="black"/>
<path d="M33.1538 17.9094H31.8477V19.2155H33.1538V17.9094Z" fill="black"/>
<path d="M37.0717 17.9094H35.7656V19.2155H37.0717V17.9094Z" fill="black"/>
<path d="M38.3764 17.9094H37.0703V19.2155H38.3764V17.9094Z" fill="black"/>
<path d="M43.603 17.9094H42.2969V19.2155H43.603V17.9094Z" fill="black"/>
<path d="M44.9077 17.9094H43.6016V19.2155H44.9077V17.9094Z" fill="black"/>
<path d="M46.2143 17.9094H44.9082V19.2155H46.2143V17.9094Z" fill="black"/>
<path d="M47.521 17.9094H46.2148V19.2155H47.521V17.9094Z" fill="black"/>
<path d="M50.1323 17.9094H48.8262V19.2155H50.1323V17.9094Z" fill="black"/>
<path d="M52.7456 17.9094H51.4395V19.2155H52.7456V17.9094Z" fill="black"/>
<path d="M55.3569 17.9094H54.0508V19.2155H55.3569V17.9094Z" fill="black"/>
<path d="M56.6635 17.9094H55.3574V19.2155H56.6635V17.9094Z" fill="black"/>
<path d="M59.2749 17.9094H57.9688V19.2155H59.2749V17.9094Z" fill="black"/>
<path d="M63.1928 17.9094H61.8867V19.2155H63.1928V17.9094Z" fill="black"/>
<path d="M4.4194 19.2156H3.11328V20.5217H4.4194V19.2156Z" fill="black"/>
<path d="M5.72409 19.2156H4.41797V20.5217H5.72409V19.2156Z" fill="black"/>
<path d="M7.03073 19.2156H5.72461V20.5217H7.03073V19.2156Z" fill="black"/>
<path d="M9.64206 19.2156H8.33594V20.5217H9.64206V19.2156Z" fill="black"/>
<path d="M12.2553 19.2156H10.9492V20.5217H12.2553V19.2156Z" fill="black"/>
<path d="M14.8667 19.2156H13.5605V20.5217H14.8667V19.2156Z" fill="black"/>
<path d="M17.48 19.2156H16.1738V20.5217H17.48V19.2156Z" fill="black"/>
<path d="M21.3979 19.2156H20.0918V20.5217H21.3979V19.2156Z" fill="black"/>
<path d="M22.7046 19.2156H21.3984V20.5217H22.7046V19.2156Z" fill="black"/>
<path d="M24.0092 19.2156H22.7031V20.5217H24.0092V19.2156Z" fill="black"/>
<path d="M27.9272 19.2156H26.6211V20.5217H27.9272V19.2156Z" fill="black"/>
<path d="M29.2358 19.2156H27.9297V20.5217H29.2358V19.2156Z" fill="black"/>
<path d="M30.5405 19.2156H29.2344V20.5217H30.5405V19.2156Z" fill="black"/>
<path d="M34.4585 19.2156H33.1523V20.5217H34.4585V19.2156Z" fill="black"/>
<path d="M35.7651 19.2156H34.459V20.5217H35.7651V19.2156Z" fill="black"/>
<path d="M39.685 19.2156H38.3789V20.5217H39.685V19.2156Z" fill="black"/>
<path d="M42.2944 19.2156H40.9883V20.5217H42.2944V19.2156Z" fill="black"/>
<path d="M43.603 19.2156H42.2969V20.5217H43.603V19.2156Z" fill="black"/>
<path d="M44.9077 19.2156H43.6016V20.5217H44.9077V19.2156Z" fill="black"/>
<path d="M47.521 19.2156H46.2148V20.5217H47.521V19.2156Z" fill="black"/>
<path d="M48.8257 19.2156H47.5195V20.5217H48.8257V19.2156Z" fill="black"/>
<path d="M50.1323 19.2156H48.8262V20.5217H50.1323V19.2156Z" fill="black"/>
<path d="M54.0522 19.2156H52.7461V20.5217H54.0522V19.2156Z" fill="black"/>
<path d="M55.3569 19.2156H54.0508V20.5217H55.3569V19.2156Z" fill="black"/>
<path d="M56.6635 19.2156H55.3574V20.5217H56.6635V19.2156Z" fill="black"/>
<path d="M60.5815 19.2156H59.2754V20.5217H60.5815V19.2156Z" fill="black"/>
<path d="M61.8882 19.2156H60.582V20.5217H61.8882V19.2156Z" fill="black"/>
<path d="M63.1928 19.2156H61.8867V20.5217H63.1928V19.2156Z" fill="black"/>
<path d="M3.11081 20.5217H1.80469V21.8279H3.11081V20.5217Z" fill="black"/>
<path d="M5.72409 20.5217H4.41797V21.8279H5.72409V20.5217Z" fill="black"/>
<path d="M7.03073 20.5217H5.72461V21.8279H7.03073V20.5217Z" fill="black"/>
<path d="M10.9487 20.5217H9.64258V21.8279H10.9487V20.5217Z" fill="black"/>
<path d="M12.2553 20.5217H10.9492V21.8279H12.2553V20.5217Z" fill="black"/>
<path d="M13.56 20.5217H12.2539V21.8279H13.56V20.5217Z" fill="black"/>
<path d="M16.1733 20.5217H14.8672V21.8279H16.1733V20.5217Z" fill="black"/>
<path d="M20.0913 20.5217H18.7852V21.8279H20.0913V20.5217Z" fill="black"/>
<path d="M21.3979 20.5217H20.0918V21.8279H21.3979V20.5217Z" fill="black"/>
<path d="M26.6225 20.5217H25.3164V21.8279H26.6225V20.5217Z" fill="black"/>
<path d="M31.8471 20.5217H30.541V21.8279H31.8471V20.5217Z" fill="black"/>
<path d="M35.7651 20.5217H34.459V21.8279H35.7651V20.5217Z" fill="black"/>
<path d="M37.0717 20.5217H35.7656V21.8279H37.0717V20.5217Z" fill="black"/>
<path d="M38.3764 20.5217H37.0703V21.8279H38.3764V20.5217Z" fill="black"/>
<path d="M44.9077 20.5217H43.6016V21.8279H44.9077V20.5217Z" fill="black"/>
<path d="M47.521 20.5217H46.2148V21.8279H47.521V20.5217Z" fill="black"/>
<path d="M55.3569 20.5217H54.0508V21.8279H55.3569V20.5217Z" fill="black"/>
<path d="M56.6635 20.5217H55.3574V21.8279H56.6635V20.5217Z" fill="black"/>
<path d="M57.9702 20.5217H56.6641V21.8279H57.9702V20.5217Z" fill="black"/>
<path d="M59.2749 20.5217H57.9688V21.8279H59.2749V20.5217Z" fill="black"/>
<path d="M60.5815 20.5217H59.2754V21.8279H60.5815V20.5217Z" fill="black"/>
<path d="M61.8882 20.5217H60.582V21.8279H61.8882V20.5217Z" fill="black"/>
<path d="M3.11081 21.8279H1.80469V23.134H3.11081V21.8279Z" fill="black"/>
<path d="M5.72409 21.8279H4.41797V23.134H5.72409V21.8279Z" fill="black"/>
<path d="M7.03073 21.8279H5.72461V23.134H7.03073V21.8279Z" fill="black"/>
<path d="M8.33737 21.8279H7.03125V23.134H8.33737V21.8279Z" fill="black"/>
<path d="M9.64206 21.8279H8.33594V23.134H9.64206V21.8279Z" fill="black"/>
<path d="M13.56 21.8279H12.2539V23.134H13.56V21.8279Z" fill="black"/>
<path d="M14.8667 21.8279H13.5605V23.134H14.8667V21.8279Z" fill="black"/>
<path d="M17.48 21.8279H16.1738V23.134H17.48V21.8279Z" fill="black"/>
<path d="M18.7866 21.8279H17.4805V23.134H18.7866V21.8279Z" fill="black"/>
<path d="M21.3979 21.8279H20.0918V23.134H21.3979V21.8279Z" fill="black"/>
<path d="M22.7046 21.8279H21.3984V23.134H22.7046V21.8279Z" fill="black"/>
<path d="M25.3178 21.8279H24.0117V23.134H25.3178V21.8279Z" fill="black"/>
<path d="M29.2358 21.8279H27.9297V23.134H29.2358V21.8279Z" fill="black"/>
<path d="M30.5405 21.8279H29.2344V23.134H30.5405V21.8279Z" fill="black"/>
<path d="M34.4585 21.8279H33.1523V23.134H34.4585V21.8279Z" fill="black"/>
<path d="M35.7651 21.8279H34.459V23.134H35.7651V21.8279Z" fill="black"/>
<path d="M38.3764 21.8279H37.0703V23.134H38.3764V21.8279Z" fill="black"/>
<path d="M39.685 21.8279H38.3789V23.134H39.685V21.8279Z" fill="black"/>
<path d="M40.9897 21.8279H39.6836V23.134H40.9897V21.8279Z" fill="black"/>
<path d="M43.603 21.8279H42.2969V23.134H43.603V21.8279Z" fill="black"/>
<path d="M48.8257 21.8279H47.5195V23.134H48.8257V21.8279Z" fill="black"/>
<path d="M55.3569 21.8279H54.0508V23.134H55.3569V21.8279Z" fill="black"/>
<path d="M57.9702 21.8279H56.6641V23.134H57.9702V21.8279Z" fill="black"/>
<path d="M59.2749 21.8279H57.9688V23.134H59.2749V21.8279Z" fill="black"/>
<path d="M61.8882 21.8279H60.582V23.134H61.8882V21.8279Z" fill="black"/>
<path d="M63.1928 21.8279H61.8867V23.134H63.1928V21.8279Z" fill="black"/>
<path d="M64.5014 21.8279H63.1953V23.134H64.5014V21.8279Z" fill="black"/>
<path d="M1.80612 23.134H0.5V24.4402H1.80612V23.134Z" fill="black"/>
<path d="M3.11081 23.134H1.80469V24.4402H3.11081V23.134Z" fill="black"/>
<path d="M4.4194 23.134H3.11328V24.4402H4.4194V23.134Z" fill="black"/>
<path d="M7.03073 23.134H5.72461V24.4402H7.03073V23.134Z" fill="black"/>
<path d="M8.33737 23.134H7.03125V24.4402H8.33737V23.134Z" fill="black"/>
<path d="M10.9487 23.134H9.64258V24.4402H10.9487V23.134Z" fill="black"/>
<path d="M12.2553 23.134H10.9492V24.4402H12.2553V23.134Z" fill="black"/>
<path d="M13.56 23.134H12.2539V24.4402H13.56V23.134Z" fill="black"/>
<path d="M16.1733 23.134H14.8672V24.4402H16.1733V23.134Z" fill="black"/>
<path d="M22.7046 23.134H21.3984V24.4402H22.7046V23.134Z" fill="black"/>
<path d="M26.6225 23.134H25.3164V24.4402H26.6225V23.134Z" fill="black"/>
<path d="M27.9272 23.134H26.6211V24.4402H27.9272V23.134Z" fill="black"/>
<path d="M29.2358 23.134H27.9297V24.4402H29.2358V23.134Z" fill="black"/>
<path d="M30.5405 23.134H29.2344V24.4402H30.5405V23.134Z" fill="black"/>
<path d="M37.0717 23.134H35.7656V24.4402H37.0717V23.134Z" fill="black"/>
<path d="M39.685 23.134H38.3789V24.4402H39.685V23.134Z" fill="black"/>
<path d="M42.2944 23.134H40.9883V24.4402H42.2944V23.134Z" fill="black"/>
<path d="M44.9077 23.134H43.6016V24.4402H44.9077V23.134Z" fill="black"/>
<path d="M52.7456 23.134H51.4395V24.4402H52.7456V23.134Z" fill="black"/>
<path d="M54.0522 23.134H52.7461V24.4402H54.0522V23.134Z" fill="black"/>
<path d="M56.6635 23.134H55.3574V24.4402H56.6635V23.134Z" fill="black"/>
<path d="M59.2749 23.134H57.9688V24.4402H59.2749V23.134Z" fill="black"/>
<path d="M1.80612 24.4402H0.5V25.7463H1.80612V24.4402Z" fill="black"/>
<path d="M3.11081 24.4402H1.80469V25.7463H3.11081V24.4402Z" fill="black"/>
<path d="M5.72409 24.4402H4.41797V25.7463H5.72409V24.4402Z" fill="black"/>
<path d="M9.64206 24.4402H8.33594V25.7463H9.64206V24.4402Z" fill="black"/>
<path d="M10.9487 24.4402H9.64258V25.7463H10.9487V24.4402Z" fill="black"/>
<path d="M13.56 24.4402H12.2539V25.7463H13.56V24.4402Z" fill="black"/>
<path d="M14.8667 24.4402H13.5605V25.7463H14.8667V24.4402Z" fill="black"/>
<path d="M21.3979 24.4402H20.0918V25.7463H21.3979V24.4402Z" fill="black"/>
<path d="M27.9272 24.4402H26.6211V25.7463H27.9272V24.4402Z" fill="black"/>
<path d="M30.5405 24.4402H29.2344V25.7463H30.5405V24.4402Z" fill="black"/>
<path d="M31.8471 24.4402H30.541V25.7463H31.8471V24.4402Z" fill="black"/>
<path d="M34.4585 24.4402H33.1523V25.7463H34.4585V24.4402Z" fill="black"/>
<path d="M47.521 24.4402H46.2148V25.7463H47.521V24.4402Z" fill="black"/>
<path d="M48.8257 24.4402H47.5195V25.7463H48.8257V24.4402Z" fill="black"/>
<path d="M52.7456 24.4402H51.4395V25.7463H52.7456V24.4402Z" fill="black"/>
<path d="M54.0522 24.4402H52.7461V25.7463H54.0522V24.4402Z" fill="black"/>
<path d="M55.3569 24.4402H54.0508V25.7463H55.3569V24.4402Z" fill="black"/>
<path d="M57.9702 24.4402H56.6641V25.7463H57.9702V24.4402Z" fill="black"/>
<path d="M60.5815 24.4402H59.2754V25.7463H60.5815V24.4402Z" fill="black"/>
<path d="M63.1928 24.4402H61.8867V25.7463H63.1928V24.4402Z" fill="black"/>
<path d="M3.11081 25.7463H1.80469V27.0525H3.11081V25.7463Z" fill="black"/>
<path d="M4.4194 25.7463H3.11328V27.0525H4.4194V25.7463Z" fill="black"/>
<path d="M5.72409 25.7463H4.41797V27.0525H5.72409V25.7463Z" fill="black"/>
<path d="M7.03073 25.7463H5.72461V27.0525H7.03073V25.7463Z" fill="black"/>
<path d="M10.9487 25.7463H9.64258V27.0525H10.9487V25.7463Z" fill="black"/>
<path d="M12.2553 25.7463H10.9492V27.0525H12.2553V25.7463Z" fill="black"/>
<path d="M13.56 25.7463H12.2539V27.0525H13.56V25.7463Z" fill="black"/>
<path d="M14.8667 25.7463H13.5605V27.0525H14.8667V25.7463Z" fill="black"/>
<path d="M16.1733 25.7463H14.8672V27.0525H16.1733V25.7463Z" fill="black"/>
<path d="M17.48 25.7463H16.1738V27.0525H17.48V25.7463Z" fill="black"/>
<path d="M20.0913 25.7463H18.7852V27.0525H20.0913V25.7463Z" fill="black"/>
<path d="M24.0092 25.7463H22.7031V27.0525H24.0092V25.7463Z" fill="black"/>
<path d="M25.3178 25.7463H24.0117V27.0525H25.3178V25.7463Z" fill="black"/>
<path d="M27.9272 25.7463H26.6211V27.0525H27.9272V25.7463Z" fill="black"/>
<path d="M31.8471 25.7463H30.541V27.0525H31.8471V25.7463Z" fill="black"/>
<path d="M33.1538 25.7463H31.8477V27.0525H33.1538V25.7463Z" fill="black"/>
<path d="M34.4585 25.7463H33.1523V27.0525H34.4585V25.7463Z" fill="black"/>
<path d="M35.7651 25.7463H34.459V27.0525H35.7651V25.7463Z" fill="black"/>
<path d="M40.9897 25.7463H39.6836V27.0525H40.9897V25.7463Z" fill="black"/>
<path d="M43.603 25.7463H42.2969V27.0525H43.603V25.7463Z" fill="black"/>
<path d="M48.8257 25.7463H47.5195V27.0525H48.8257V25.7463Z" fill="black"/>
<path d="M55.3569 25.7463H54.0508V27.0525H55.3569V25.7463Z" fill="black"/>
<path d="M56.6635 25.7463H55.3574V27.0525H56.6635V25.7463Z" fill="black"/>
<path d="M60.5815 25.7463H59.2754V27.0525H60.5815V25.7463Z" fill="black"/>
<path d="M61.8882 25.7463H60.582V27.0525H61.8882V25.7463Z" fill="black"/>
<path d="M1.80612 27.0525H0.5V28.3586H1.80612V27.0525Z" fill="black"/>
<path d="M9.64206 27.0525H8.33594V28.3586H9.64206V27.0525Z" fill="black"/>
<path d="M13.56 27.0525H12.2539V28.3586H13.56V27.0525Z" fill="black"/>
<path d="M14.8667 27.0525H13.5605V28.3586H14.8667V27.0525Z" fill="black"/>
<path d="M16.1733 27.0525H14.8672V28.3586H16.1733V27.0525Z" fill="black"/>
<path d="M17.48 27.0525H16.1738V28.3586H17.48V27.0525Z" fill="black"/>
<path d="M21.3979 27.0525H20.0918V28.3586H21.3979V27.0525Z" fill="black"/>
<path d="M24.0092 27.0525H22.7031V28.3586H24.0092V27.0525Z" fill="black"/>
<path d="M25.3178 27.0525H24.0117V28.3586H25.3178V27.0525Z" fill="black"/>
<path d="M30.5405 27.0525H29.2344V28.3586H30.5405V27.0525Z" fill="black"/>
<path d="M31.8471 27.0525H30.541V28.3586H31.8471V27.0525Z" fill="black"/>
<path d="M33.1538 27.0525H31.8477V28.3586H33.1538V27.0525Z" fill="black"/>
<path d="M37.0717 27.0525H35.7656V28.3586H37.0717V27.0525Z" fill="black"/>
<path d="M40.9897 27.0525H39.6836V28.3586H40.9897V27.0525Z" fill="black"/>
<path d="M42.2944 27.0525H40.9883V28.3586H42.2944V27.0525Z" fill="black"/>
<path d="M43.603 27.0525H42.2969V28.3586H43.603V27.0525Z" fill="black"/>
<path d="M44.9077 27.0525H43.6016V28.3586H44.9077V27.0525Z" fill="black"/>
<path d="M46.2143 27.0525H44.9082V28.3586H46.2143V27.0525Z" fill="black"/>
<path d="M47.521 27.0525H46.2148V28.3586H47.521V27.0525Z" fill="black"/>
<path d="M48.8257 27.0525H47.5195V28.3586H48.8257V27.0525Z" fill="black"/>
<path d="M50.1323 27.0525H48.8262V28.3586H50.1323V27.0525Z" fill="black"/>
<path d="M51.4389 27.0525H50.1328V28.3586H51.4389V27.0525Z" fill="black"/>
<path d="M54.0522 27.0525H52.7461V28.3586H54.0522V27.0525Z" fill="black"/>
<path d="M55.3569 27.0525H54.0508V28.3586H55.3569V27.0525Z" fill="black"/>
<path d="M57.9702 27.0525H56.6641V28.3586H57.9702V27.0525Z" fill="black"/>
<path d="M61.8882 27.0525H60.582V28.3586H61.8882V27.0525Z" fill="black"/>
<path d="M64.5014 27.0525H63.1953V28.3586H64.5014V27.0525Z" fill="black"/>
<path d="M1.80612 28.3586H0.5V29.6648H1.80612V28.3586Z" fill="black"/>
<path d="M3.11081 28.3586H1.80469V29.6648H3.11081V28.3586Z" fill="black"/>
<path d="M12.2553 28.3586H10.9492V29.6648H12.2553V28.3586Z" fill="black"/>
<path d="M13.56 28.3586H12.2539V29.6648H13.56V28.3586Z" fill="black"/>
<path d="M14.8667 28.3586H13.5605V29.6648H14.8667V28.3586Z" fill="black"/>
<path d="M18.7866 28.3586H17.4805V29.6648H18.7866V28.3586Z" fill="black"/>
<path d="M21.3979 28.3586H20.0918V29.6648H21.3979V28.3586Z" fill="black"/>
<path d="M22.7046 28.3586H21.3984V29.6648H22.7046V28.3586Z" fill="black"/>
<path d="M24.0092 28.3586H22.7031V29.6648H24.0092V28.3586Z" fill="black"/>
<path d="M29.2358 28.3586H27.9297V29.6648H29.2358V28.3586Z" fill="black"/>
<path d="M30.5405 28.3586H29.2344V29.6648H30.5405V28.3586Z" fill="black"/>
<path d="M33.1538 28.3586H31.8477V29.6648H33.1538V28.3586Z" fill="black"/>
<path d="M34.4585 28.3586H33.1523V29.6648H34.4585V28.3586Z" fill="black"/>
<path d="M35.7651 28.3586H34.459V29.6648H35.7651V28.3586Z" fill="black"/>
<path d="M37.0717 28.3586H35.7656V29.6648H37.0717V28.3586Z" fill="black"/>
<path d="M38.3764 28.3586H37.0703V29.6648H38.3764V28.3586Z" fill="black"/>
<path d="M42.2944 28.3586H40.9883V29.6648H42.2944V28.3586Z" fill="black"/>
<path d="M43.603 28.3586H42.2969V29.6648H43.603V28.3586Z" fill="black"/>
<path d="M46.2143 28.3586H44.9082V29.6648H46.2143V28.3586Z" fill="black"/>
<path d="M51.4389 28.3586H50.1328V29.6648H51.4389V28.3586Z" fill="black"/>
<path d="M52.7456 28.3586H51.4395V29.6648H52.7456V28.3586Z" fill="black"/>
<path d="M55.3569 28.3586H54.0508V29.6648H55.3569V28.3586Z" fill="black"/>
<path d="M56.6635 28.3586H55.3574V29.6648H56.6635V28.3586Z" fill="black"/>
<path d="M57.9702 28.3586H56.6641V29.6648H57.9702V28.3586Z" fill="black"/>
<path d="M59.2749 28.3586H57.9688V29.6648H59.2749V28.3586Z" fill="black"/>
<path d="M64.5014 28.3586H63.1953V29.6648H64.5014V28.3586Z" fill="black"/>
<path d="M3.11081 29.6648H1.80469V30.9709H3.11081V29.6648Z" fill="black"/>
<path d="M7.03073 29.6648H5.72461V30.9709H7.03073V29.6648Z" fill="black"/>
<path d="M8.33737 29.6648H7.03125V30.9709H8.33737V29.6648Z" fill="black"/>
<path d="M9.64206 29.6648H8.33594V30.9709H9.64206V29.6648Z" fill="black"/>
<path d="M10.9487 29.6648H9.64258V30.9709H10.9487V29.6648Z" fill="black"/>
<path d="M12.2553 29.6648H10.9492V30.9709H12.2553V29.6648Z" fill="black"/>
<path d="M13.56 29.6648H12.2539V30.9709H13.56V29.6648Z" fill="black"/>
<path d="M17.48 29.6648H16.1738V30.9709H17.48V29.6648Z" fill="black"/>
<path d="M20.0913 29.6648H18.7852V30.9709H20.0913V29.6648Z" fill="black"/>
<path d="M21.3979 29.6648H20.0918V30.9709H21.3979V29.6648Z" fill="black"/>
<path d="M22.7046 29.6648H21.3984V30.9709H22.7046V29.6648Z" fill="black"/>
<path d="M24.0092 29.6648H22.7031V30.9709H24.0092V29.6648Z" fill="black"/>
<path d="M25.3178 29.6648H24.0117V30.9709H25.3178V29.6648Z" fill="black"/>
<path d="M30.5405 29.6648H29.2344V30.9709H30.5405V29.6648Z" fill="black"/>
<path d="M31.8471 29.6648H30.541V30.9709H31.8471V29.6648Z" fill="black"/>
<path d="M33.1538 29.6648H31.8477V30.9709H33.1538V29.6648Z" fill="black"/>
<path d="M34.4585 29.6648H33.1523V30.9709H34.4585V29.6648Z" fill="black"/>
<path d="M35.7651 29.6648H34.459V30.9709H35.7651V29.6648Z" fill="black"/>
<path d="M39.685 29.6648H38.3789V30.9709H39.685V29.6648Z" fill="black"/>
<path d="M42.2944 29.6648H40.9883V30.9709H42.2944V29.6648Z" fill="black"/>
<path d="M43.603 29.6648H42.2969V30.9709H43.603V29.6648Z" fill="black"/>
<path d="M44.9077 29.6648H43.6016V30.9709H44.9077V29.6648Z" fill="black"/>
<path d="M47.521 29.6648H46.2148V30.9709H47.521V29.6648Z" fill="black"/>
<path d="M48.8257 29.6648H47.5195V30.9709H48.8257V29.6648Z" fill="black"/>
<path d="M51.4389 29.6648H50.1328V30.9709H51.4389V29.6648Z" fill="black"/>
<path d="M54.0522 29.6648H52.7461V30.9709H54.0522V29.6648Z" fill="black"/>
<path d="M55.3569 29.6648H54.0508V30.9709H55.3569V29.6648Z" fill="black"/>
<path d="M56.6635 29.6648H55.3574V30.9709H56.6635V29.6648Z" fill="black"/>
<path d="M57.9702 29.6648H56.6641V30.9709H57.9702V29.6648Z" fill="black"/>
<path d="M59.2749 29.6648H57.9688V30.9709H59.2749V29.6648Z" fill="black"/>
<path d="M60.5815 29.6648H59.2754V30.9709H60.5815V29.6648Z" fill="black"/>
<path d="M61.8882 29.6648H60.582V30.9709H61.8882V29.6648Z" fill="black"/>
<path d="M63.1928 29.6648H61.8867V30.9709H63.1928V29.6648Z" fill="black"/>
<path d="M64.5014 29.6648H63.1953V30.9709H64.5014V29.6648Z" fill="black"/>
<path d="M3.11081 30.9709H1.80469V32.2771H3.11081V30.9709Z" fill="black"/>
<path d="M4.4194 30.9709H3.11328V32.2771H4.4194V30.9709Z" fill="black"/>
<path d="M5.72409 30.9709H4.41797V32.2771H5.72409V30.9709Z" fill="black"/>
<path d="M7.03073 30.9709H5.72461V32.2771H7.03073V30.9709Z" fill="black"/>
<path d="M12.2553 30.9709H10.9492V32.2771H12.2553V30.9709Z" fill="black"/>
<path d="M14.8667 30.9709H13.5605V32.2771H14.8667V30.9709Z" fill="black"/>
<path d="M20.0913 30.9709H18.7852V32.2771H20.0913V30.9709Z" fill="black"/>
<path d="M21.3979 30.9709H20.0918V32.2771H21.3979V30.9709Z" fill="black"/>
<path d="M22.7046 30.9709H21.3984V32.2771H22.7046V30.9709Z" fill="black"/>
<path d="M30.5405 30.9709H29.2344V32.2771H30.5405V30.9709Z" fill="black"/>
<path d="M35.7651 30.9709H34.459V32.2771H35.7651V30.9709Z" fill="black"/>
<path d="M39.685 30.9709H38.3789V32.2771H39.685V30.9709Z" fill="black"/>
<path d="M44.9077 30.9709H43.6016V32.2771H44.9077V30.9709Z" fill="black"/>
<path d="M47.521 30.9709H46.2148V32.2771H47.521V30.9709Z" fill="black"/>
<path d="M54.0522 30.9709H52.7461V32.2771H54.0522V30.9709Z" fill="black"/>
<path d="M59.2749 30.9709H57.9688V32.2771H59.2749V30.9709Z" fill="black"/>
<path d="M3.11081 32.2771H1.80469V33.5832H3.11081V32.2771Z" fill="black"/>
<path d="M7.03073 32.2771H5.72461V33.5832H7.03073V32.2771Z" fill="black"/>
<path d="M9.64206 32.2771H8.33594V33.5832H9.64206V32.2771Z" fill="black"/>
<path d="M12.2553 32.2771H10.9492V33.5832H12.2553V32.2771Z" fill="black"/>
<path d="M13.56 32.2771H12.2539V33.5832H13.56V32.2771Z" fill="black"/>
<path d="M14.8667 32.2771H13.5605V33.5832H14.8667V32.2771Z" fill="black"/>
<path d="M16.1733 32.2771H14.8672V33.5832H16.1733V32.2771Z" fill="black"/>
<path d="M18.7866 32.2771H17.4805V33.5832H18.7866V32.2771Z" fill="black"/>
<path d="M20.0913 32.2771H18.7852V33.5832H20.0913V32.2771Z" fill="black"/>
<path d="M21.3979 32.2771H20.0918V33.5832H21.3979V32.2771Z" fill="black"/>
<path d="M22.7046 32.2771H21.3984V33.5832H22.7046V32.2771Z" fill="black"/>
<path d="M25.3178 32.2771H24.0117V33.5832H25.3178V32.2771Z" fill="black"/>
<path d="M26.6225 32.2771H25.3164V33.5832H26.6225V32.2771Z" fill="black"/>
<path d="M30.5405 32.2771H29.2344V33.5832H30.5405V32.2771Z" fill="black"/>
<path d="M33.1538 32.2771H31.8477V33.5832H33.1538V32.2771Z" fill="black"/>
<path d="M35.7651 32.2771H34.459V33.5832H35.7651V32.2771Z" fill="black"/>
<path d="M37.0717 32.2771H35.7656V33.5832H37.0717V32.2771Z" fill="black"/>
<path d="M42.2944 32.2771H40.9883V33.5832H42.2944V32.2771Z" fill="black"/>
<path d="M43.603 32.2771H42.2969V33.5832H43.603V32.2771Z" fill="black"/>
<path d="M44.9077 32.2771H43.6016V33.5832H44.9077V32.2771Z" fill="black"/>
<path d="M46.2143 32.2771H44.9082V33.5832H46.2143V32.2771Z" fill="black"/>
<path d="M47.521 32.2771H46.2148V33.5832H47.521V32.2771Z" fill="black"/>
<path d="M51.4389 32.2771H50.1328V33.5832H51.4389V32.2771Z" fill="black"/>
<path d="M54.0522 32.2771H52.7461V33.5832H54.0522V32.2771Z" fill="black"/>
<path d="M56.6635 32.2771H55.3574V33.5832H56.6635V32.2771Z" fill="black"/>
<path d="M59.2749 32.2771H57.9688V33.5832H59.2749V32.2771Z" fill="black"/>
<path d="M61.8882 32.2771H60.582V33.5832H61.8882V32.2771Z" fill="black"/>
<path d="M3.11081 33.5828H1.80469V34.8889H3.11081V33.5828Z" fill="black"/>
<path d="M4.4194 33.5828H3.11328V34.8889H4.4194V33.5828Z" fill="black"/>
<path d="M7.03073 33.5828H5.72461V34.8889H7.03073V33.5828Z" fill="black"/>
<path d="M12.2553 33.5828H10.9492V34.8889H12.2553V33.5828Z" fill="black"/>
<path d="M17.48 33.5828H16.1738V34.8889H17.48V33.5828Z" fill="black"/>
<path d="M20.0913 33.5828H18.7852V34.8889H20.0913V33.5828Z" fill="black"/>
<path d="M22.7046 33.5828H21.3984V34.8889H22.7046V33.5828Z" fill="black"/>
<path d="M24.0092 33.5828H22.7031V34.8889H24.0092V33.5828Z" fill="black"/>
<path d="M26.6225 33.5828H25.3164V34.8889H26.6225V33.5828Z" fill="black"/>
<path d="M29.2358 33.5828H27.9297V34.8889H29.2358V33.5828Z" fill="black"/>
<path d="M30.5405 33.5828H29.2344V34.8889H30.5405V33.5828Z" fill="black"/>
<path d="M35.7651 33.5828H34.459V34.8889H35.7651V33.5828Z" fill="black"/>
<path d="M37.0717 33.5828H35.7656V34.8889H37.0717V33.5828Z" fill="black"/>
<path d="M38.3764 33.5828H37.0703V34.8889H38.3764V33.5828Z" fill="black"/>
<path d="M39.685 33.5828H38.3789V34.8889H39.685V33.5828Z" fill="black"/>
<path d="M43.603 33.5828H42.2969V34.8889H43.603V33.5828Z" fill="black"/>
<path d="M46.2143 33.5828H44.9082V34.8889H46.2143V33.5828Z" fill="black"/>
<path d="M50.1323 33.5828H48.8262V34.8889H50.1323V33.5828Z" fill="black"/>
<path d="M51.4389 33.5828H50.1328V34.8889H51.4389V33.5828Z" fill="black"/>
<path d="M52.7456 33.5828H51.4395V34.8889H52.7456V33.5828Z" fill="black"/>
<path d="M54.0522 33.5828H52.7461V34.8889H54.0522V33.5828Z" fill="black"/>
<path d="M59.2749 33.5828H57.9688V34.8889H59.2749V33.5828Z" fill="black"/>
<path d="M3.11081 34.8889H1.80469V36.195H3.11081V34.8889Z" fill="black"/>
<path d="M4.4194 34.8889H3.11328V36.195H4.4194V34.8889Z" fill="black"/>
<path d="M5.72409 34.8889H4.41797V36.195H5.72409V34.8889Z" fill="black"/>
<path d="M7.03073 34.8889H5.72461V36.195H7.03073V34.8889Z" fill="black"/>
<path d="M8.33737 34.8889H7.03125V36.195H8.33737V34.8889Z" fill="black"/>
<path d="M9.64206 34.8889H8.33594V36.195H9.64206V34.8889Z" fill="black"/>
<path d="M10.9487 34.8889H9.64258V36.195H10.9487V34.8889Z" fill="black"/>
<path d="M12.2553 34.8889H10.9492V36.195H12.2553V34.8889Z" fill="black"/>
<path d="M16.1733 34.8889H14.8672V36.195H16.1733V34.8889Z" fill="black"/>
<path d="M21.3979 34.8889H20.0918V36.195H21.3979V34.8889Z" fill="black"/>
<path d="M22.7046 34.8889H21.3984V36.195H22.7046V34.8889Z" fill="black"/>
<path d="M29.2358 34.8889H27.9297V36.195H29.2358V34.8889Z" fill="black"/>
<path d="M30.5405 34.8889H29.2344V36.195H30.5405V34.8889Z" fill="black"/>
<path d="M31.8471 34.8889H30.541V36.195H31.8471V34.8889Z" fill="black"/>
<path d="M33.1538 34.8889H31.8477V36.195H33.1538V34.8889Z" fill="black"/>
<path d="M34.4585 34.8889H33.1523V36.195H34.4585V34.8889Z" fill="black"/>
<path d="M35.7651 34.8889H34.459V36.195H35.7651V34.8889Z" fill="black"/>
<path d="M38.3764 34.8889H37.0703V36.195H38.3764V34.8889Z" fill="black"/>
<path d="M39.685 34.8889H38.3789V36.195H39.685V34.8889Z" fill="black"/>
<path d="M40.9897 34.8889H39.6836V36.195H40.9897V34.8889Z" fill="black"/>
<path d="M42.2944 34.8889H40.9883V36.195H42.2944V34.8889Z" fill="black"/>
<path d="M43.603 34.8889H42.2969V36.195H43.603V34.8889Z" fill="black"/>
<path d="M46.2143 34.8889H44.9082V36.195H46.2143V34.8889Z" fill="black"/>
<path d="M47.521 34.8889H46.2148V36.195H47.521V34.8889Z" fill="black"/>
<path d="M48.8257 34.8889H47.5195V36.195H48.8257V34.8889Z" fill="black"/>
<path d="M51.4389 34.8889H50.1328V36.195H51.4389V34.8889Z" fill="black"/>
<path d="M54.0522 34.8889H52.7461V36.195H54.0522V34.8889Z" fill="black"/>
<path d="M55.3569 34.8889H54.0508V36.195H55.3569V34.8889Z" fill="black"/>
<path d="M56.6635 34.8889H55.3574V36.195H56.6635V34.8889Z" fill="black"/>
<path d="M57.9702 34.8889H56.6641V36.195H57.9702V34.8889Z" fill="black"/>
<path d="M59.2749 34.8889H57.9688V36.195H59.2749V34.8889Z" fill="black"/>
<path d="M61.8882 34.8889H60.582V36.195H61.8882V34.8889Z" fill="black"/>
<path d="M63.1928 34.8889H61.8867V36.195H63.1928V34.8889Z" fill="black"/>
<path d="M1.80612 36.1951H0.5V37.5012H1.80612V36.1951Z" fill="black"/>
<path d="M5.72409 36.1951H4.41797V37.5012H5.72409V36.1951Z" fill="black"/>
<path d="M8.33737 36.1951H7.03125V37.5012H8.33737V36.1951Z" fill="black"/>
<path d="M10.9487 36.1951H9.64258V37.5012H10.9487V36.1951Z" fill="black"/>
<path d="M12.2553 36.1951H10.9492V37.5012H12.2553V36.1951Z" fill="black"/>
<path d="M14.8667 36.1951H13.5605V37.5012H14.8667V36.1951Z" fill="black"/>
<path d="M18.7866 36.1951H17.4805V37.5012H18.7866V36.1951Z" fill="black"/>
<path d="M24.0092 36.1951H22.7031V37.5012H24.0092V36.1951Z" fill="black"/>
<path d="M25.3178 36.1951H24.0117V37.5012H25.3178V36.1951Z" fill="black"/>
<path d="M29.2358 36.1951H27.9297V37.5012H29.2358V36.1951Z" fill="black"/>
<path d="M33.1538 36.1951H31.8477V37.5012H33.1538V36.1951Z" fill="black"/>
<path d="M35.7651 36.1951H34.459V37.5012H35.7651V36.1951Z" fill="black"/>
<path d="M37.0717 36.1951H35.7656V37.5012H37.0717V36.1951Z" fill="black"/>
<path d="M38.3764 36.1951H37.0703V37.5012H38.3764V36.1951Z" fill="black"/>
<path d="M39.685 36.1951H38.3789V37.5012H39.685V36.1951Z" fill="black"/>
<path d="M42.2944 36.1951H40.9883V37.5012H42.2944V36.1951Z" fill="black"/>
<path d="M47.521 36.1951H46.2148V37.5012H47.521V36.1951Z" fill="black"/>
<path d="M50.1323 36.1951H48.8262V37.5012H50.1323V36.1951Z" fill="black"/>
<path d="M52.7456 36.1951H51.4395V37.5012H52.7456V36.1951Z" fill="black"/>
<path d="M54.0522 36.1951H52.7461V37.5012H54.0522V36.1951Z" fill="black"/>
<path d="M56.6635 36.1951H55.3574V37.5012H56.6635V36.1951Z" fill="black"/>
<path d="M57.9702 36.1951H56.6641V37.5012H57.9702V36.1951Z" fill="black"/>
<path d="M60.5815 36.1951H59.2754V37.5012H60.5815V36.1951Z" fill="black"/>
<path d="M3.11081 37.5012H1.80469V38.8073H3.11081V37.5012Z" fill="black"/>
<path d="M5.72409 37.5012H4.41797V38.8073H5.72409V37.5012Z" fill="black"/>
<path d="M9.64206 37.5012H8.33594V38.8073H9.64206V37.5012Z" fill="black"/>
<path d="M10.9487 37.5012H9.64258V38.8073H10.9487V37.5012Z" fill="black"/>
<path d="M16.1733 37.5012H14.8672V38.8073H16.1733V37.5012Z" fill="black"/>
<path d="M20.0913 37.5012H18.7852V38.8073H20.0913V37.5012Z" fill="black"/>
<path d="M21.3979 37.5012H20.0918V38.8073H21.3979V37.5012Z" fill="black"/>
<path d="M22.7046 37.5012H21.3984V38.8073H22.7046V37.5012Z" fill="black"/>
<path d="M24.0092 37.5012H22.7031V38.8073H24.0092V37.5012Z" fill="black"/>
<path d="M25.3178 37.5012H24.0117V38.8073H25.3178V37.5012Z" fill="black"/>
<path d="M26.6225 37.5012H25.3164V38.8073H26.6225V37.5012Z" fill="black"/>
<path d="M30.5405 37.5012H29.2344V38.8073H30.5405V37.5012Z" fill="black"/>
<path d="M37.0717 37.5012H35.7656V38.8073H37.0717V37.5012Z" fill="black"/>
<path d="M38.3764 37.5012H37.0703V38.8073H38.3764V37.5012Z" fill="black"/>
<path d="M46.2143 37.5012H44.9082V38.8073H46.2143V37.5012Z" fill="black"/>
<path d="M47.521 37.5012H46.2148V38.8073H47.521V37.5012Z" fill="black"/>
<path d="M50.1323 37.5012H48.8262V38.8073H50.1323V37.5012Z" fill="black"/>
<path d="M51.4389 37.5012H50.1328V38.8073H51.4389V37.5012Z" fill="black"/>
<path d="M54.0522 37.5012H52.7461V38.8073H54.0522V37.5012Z" fill="black"/>
<path d="M55.3569 37.5012H54.0508V38.8073H55.3569V37.5012Z" fill="black"/>
<path d="M56.6635 37.5012H55.3574V38.8073H56.6635V37.5012Z" fill="black"/>
<path d="M57.9702 37.5012H56.6641V38.8073H57.9702V37.5012Z" fill="black"/>
<path d="M60.5815 37.5012H59.2754V38.8073H60.5815V37.5012Z" fill="black"/>
<path d="M61.8882 37.5012H60.582V38.8073H61.8882V37.5012Z" fill="black"/>
<path d="M63.1928 37.5012H61.8867V38.8073H63.1928V37.5012Z" fill="black"/>
<path d="M64.5014 37.5012H63.1953V38.8073H64.5014V37.5012Z" fill="black"/>
<path d="M7.03073 38.8074H5.72461V40.1135H7.03073V38.8074Z" fill="black"/>
<path d="M8.33737 38.8074H7.03125V40.1135H8.33737V38.8074Z" fill="black"/>
<path d="M12.2553 38.8074H10.9492V40.1135H12.2553V38.8074Z" fill="black"/>
<path d="M16.1733 38.8074H14.8672V40.1135H16.1733V38.8074Z" fill="black"/>
<path d="M17.48 38.8074H16.1738V40.1135H17.48V38.8074Z" fill="black"/>
<path d="M18.7866 38.8074H17.4805V40.1135H18.7866V38.8074Z" fill="black"/>
<path d="M24.0092 38.8074H22.7031V40.1135H24.0092V38.8074Z" fill="black"/>
<path d="M25.3178 38.8074H24.0117V40.1135H25.3178V38.8074Z" fill="black"/>
<path d="M31.8471 38.8074H30.541V40.1135H31.8471V38.8074Z" fill="black"/>
<path d="M33.1538 38.8074H31.8477V40.1135H33.1538V38.8074Z" fill="black"/>
<path d="M34.4585 38.8074H33.1523V40.1135H34.4585V38.8074Z" fill="black"/>
<path d="M35.7651 38.8074H34.459V40.1135H35.7651V38.8074Z" fill="black"/>
<path d="M39.685 38.8074H38.3789V40.1135H39.685V38.8074Z" fill="black"/>
<path d="M40.9897 38.8074H39.6836V40.1135H40.9897V38.8074Z" fill="black"/>
<path d="M43.603 38.8074H42.2969V40.1135H43.603V38.8074Z" fill="black"/>
<path d="M59.2749 38.8074H57.9688V40.1135H59.2749V38.8074Z" fill="black"/>
<path d="M63.1928 38.8074H61.8867V40.1135H63.1928V38.8074Z" fill="black"/>
<path d="M64.5014 38.8074H63.1953V40.1135H64.5014V38.8074Z" fill="black"/>
<path d="M3.11081 40.1135H1.80469V41.4196H3.11081V40.1135Z" fill="black"/>
<path d="M8.33737 40.1135H7.03125V41.4196H8.33737V40.1135Z" fill="black"/>
<path d="M9.64206 40.1135H8.33594V41.4196H9.64206V40.1135Z" fill="black"/>
<path d="M17.48 40.1135H16.1738V41.4196H17.48V40.1135Z" fill="black"/>
<path d="M20.0913 40.1135H18.7852V41.4196H20.0913V40.1135Z" fill="black"/>
<path d="M21.3979 40.1135H20.0918V41.4196H21.3979V40.1135Z" fill="black"/>
<path d="M24.0092 40.1135H22.7031V41.4196H24.0092V40.1135Z" fill="black"/>
<path d="M25.3178 40.1135H24.0117V41.4196H25.3178V40.1135Z" fill="black"/>
<path d="M26.6225 40.1135H25.3164V41.4196H26.6225V40.1135Z" fill="black"/>
<path d="M29.2358 40.1135H27.9297V41.4196H29.2358V40.1135Z" fill="black"/>
<path d="M31.8471 40.1135H30.541V41.4196H31.8471V40.1135Z" fill="black"/>
<path d="M34.4585 40.1135H33.1523V41.4196H34.4585V40.1135Z" fill="black"/>
<path d="M35.7651 40.1135H34.459V41.4196H35.7651V40.1135Z" fill="black"/>
<path d="M38.3764 40.1135H37.0703V41.4196H38.3764V40.1135Z" fill="black"/>
<path d="M42.2944 40.1135H40.9883V41.4196H42.2944V40.1135Z" fill="black"/>
<path d="M44.9077 40.1135H43.6016V41.4196H44.9077V40.1135Z" fill="black"/>
<path d="M48.8257 40.1135H47.5195V41.4196H48.8257V40.1135Z" fill="black"/>
<path d="M50.1323 40.1135H48.8262V41.4196H50.1323V40.1135Z" fill="black"/>
<path d="M51.4389 40.1135H50.1328V41.4196H51.4389V40.1135Z" fill="black"/>
<path d="M52.7456 40.1135H51.4395V41.4196H52.7456V40.1135Z" fill="black"/>
<path d="M55.3569 40.1135H54.0508V41.4196H55.3569V40.1135Z" fill="black"/>
<path d="M56.6635 40.1135H55.3574V41.4196H56.6635V40.1135Z" fill="black"/>
<path d="M59.2749 40.1135H57.9688V41.4196H59.2749V40.1135Z" fill="black"/>
<path d="M61.8882 40.1135H60.582V41.4196H61.8882V40.1135Z" fill="black"/>
<path d="M64.5014 40.1135H63.1953V41.4196H64.5014V40.1135Z" fill="black"/>
<path d="M1.80612 41.4197H0.5V42.7258H1.80612V41.4197Z" fill="black"/>
<path d="M4.4194 41.4197H3.11328V42.7258H4.4194V41.4197Z" fill="black"/>
<path d="M5.72409 41.4197H4.41797V42.7258H5.72409V41.4197Z" fill="black"/>
<path d="M7.03073 41.4197H5.72461V42.7258H7.03073V41.4197Z" fill="black"/>
<path d="M14.8667 41.4197H13.5605V42.7258H14.8667V41.4197Z" fill="black"/>
<path d="M16.1733 41.4197H14.8672V42.7258H16.1733V41.4197Z" fill="black"/>
<path d="M18.7866 41.4197H17.4805V42.7258H18.7866V41.4197Z" fill="black"/>
<path d="M24.0092 41.4197H22.7031V42.7258H24.0092V41.4197Z" fill="black"/>
<path d="M26.6225 41.4197H25.3164V42.7258H26.6225V41.4197Z" fill="black"/>
<path d="M33.1538 41.4197H31.8477V42.7258H33.1538V41.4197Z" fill="black"/>
<path d="M37.0717 41.4197H35.7656V42.7258H37.0717V41.4197Z" fill="black"/>
<path d="M38.3764 41.4197H37.0703V42.7258H38.3764V41.4197Z" fill="black"/>
<path d="M39.685 41.4197H38.3789V42.7258H39.685V41.4197Z" fill="black"/>
<path d="M40.9897 41.4197H39.6836V42.7258H40.9897V41.4197Z" fill="black"/>
<path d="M42.2944 41.4197H40.9883V42.7258H42.2944V41.4197Z" fill="black"/>
<path d="M44.9077 41.4197H43.6016V42.7258H44.9077V41.4197Z" fill="black"/>
<path d="M47.521 41.4197H46.2148V42.7258H47.521V41.4197Z" fill="black"/>
<path d="M48.8257 41.4197H47.5195V42.7258H48.8257V41.4197Z" fill="black"/>
<path d="M50.1323 41.4197H48.8262V42.7258H50.1323V41.4197Z" fill="black"/>
<path d="M52.7456 41.4197H51.4395V42.7258H52.7456V41.4197Z" fill="black"/>
<path d="M55.3569 41.4197H54.0508V42.7258H55.3569V41.4197Z" fill="black"/>
<path d="M57.9702 41.4197H56.6641V42.7258H57.9702V41.4197Z" fill="black"/>
<path d="M60.5815 41.4197H59.2754V42.7258H60.5815V41.4197Z" fill="black"/>
<path d="M3.11081 42.7258H1.80469V44.032H3.11081V42.7258Z" fill="black"/>
<path d="M7.03073 42.7258H5.72461V44.032H7.03073V42.7258Z" fill="black"/>
<path d="M8.33737 42.7258H7.03125V44.032H8.33737V42.7258Z" fill="black"/>
<path d="M9.64206 42.7258H8.33594V44.032H9.64206V42.7258Z" fill="black"/>
<path d="M12.2553 42.7258H10.9492V44.032H12.2553V42.7258Z" fill="black"/>
<path d="M14.8667 42.7258H13.5605V44.032H14.8667V42.7258Z" fill="black"/>
<path d="M16.1733 42.7258H14.8672V44.032H16.1733V42.7258Z" fill="black"/>
<path d="M18.7866 42.7258H17.4805V44.032H18.7866V42.7258Z" fill="black"/>
<path d="M20.0913 42.7258H18.7852V44.032H20.0913V42.7258Z" fill="black"/>
<path d="M21.3979 42.7258H20.0918V44.032H21.3979V42.7258Z" fill="black"/>
<path d="M26.6225 42.7258H25.3164V44.032H26.6225V42.7258Z" fill="black"/>
<path d="M30.5405 42.7258H29.2344V44.032H30.5405V42.7258Z" fill="black"/>
<path d="M33.1538 42.7258H31.8477V44.032H33.1538V42.7258Z" fill="black"/>
<path d="M34.4585 42.7258H33.1523V44.032H34.4585V42.7258Z" fill="black"/>
<path d="M35.7651 42.7258H34.459V44.032H35.7651V42.7258Z" fill="black"/>
<path d="M44.9077 42.7258H43.6016V44.032H44.9077V42.7258Z" fill="black"/>
<path d="M46.2143 42.7258H44.9082V44.032H46.2143V42.7258Z" fill="black"/>
<path d="M48.8257 42.7258H47.5195V44.032H48.8257V42.7258Z" fill="black"/>
<path d="M50.1323 42.7258H48.8262V44.032H50.1323V42.7258Z" fill="black"/>
<path d="M51.4389 42.7258H50.1328V44.032H51.4389V42.7258Z" fill="black"/>
<path d="M52.7456 42.7258H51.4395V44.032H52.7456V42.7258Z" fill="black"/>
<path d="M54.0522 42.7258H52.7461V44.032H54.0522V42.7258Z" fill="black"/>
<path d="M55.3569 42.7258H54.0508V44.032H55.3569V42.7258Z" fill="black"/>
<path d="M56.6635 42.7258H55.3574V44.032H56.6635V42.7258Z" fill="black"/>
<path d="M61.8882 42.7258H60.582V44.032H61.8882V42.7258Z" fill="black"/>
<path d="M63.1928 42.7258H61.8867V44.032H63.1928V42.7258Z" fill="black"/>
<path d="M64.5014 42.7258H63.1953V44.032H64.5014V42.7258Z" fill="black"/>
<path d="M1.80612 44.032H0.5V45.3381H1.80612V44.032Z" fill="black"/>
<path d="M3.11081 44.032H1.80469V45.3381H3.11081V44.032Z" fill="black"/>
<path d="M4.4194 44.032H3.11328V45.3381H4.4194V44.032Z" fill="black"/>
<path d="M7.03073 44.032H5.72461V45.3381H7.03073V44.032Z" fill="black"/>
<path d="M10.9487 44.032H9.64258V45.3381H10.9487V44.032Z" fill="black"/>
<path d="M12.2553 44.032H10.9492V45.3381H12.2553V44.032Z" fill="black"/>
<path d="M13.56 44.032H12.2539V45.3381H13.56V44.032Z" fill="black"/>
<path d="M17.48 44.032H16.1738V45.3381H17.48V44.032Z" fill="black"/>
<path d="M18.7866 44.032H17.4805V45.3381H18.7866V44.032Z" fill="black"/>
<path d="M22.7046 44.032H21.3984V45.3381H22.7046V44.032Z" fill="black"/>
<path d="M25.3178 44.032H24.0117V45.3381H25.3178V44.032Z" fill="black"/>
<path d="M26.6225 44.032H25.3164V45.3381H26.6225V44.032Z" fill="black"/>
<path d="M27.9272 44.032H26.6211V45.3381H27.9272V44.032Z" fill="black"/>
<path d="M30.5405 44.032H29.2344V45.3381H30.5405V44.032Z" fill="black"/>
<path d="M31.8471 44.032H30.541V45.3381H31.8471V44.032Z" fill="black"/>
<path d="M34.4585 44.032H33.1523V45.3381H34.4585V44.032Z" fill="black"/>
<path d="M42.2944 44.032H40.9883V45.3381H42.2944V44.032Z" fill="black"/>
<path d="M46.2143 44.032H44.9082V45.3381H46.2143V44.032Z" fill="black"/>
<path d="M47.521 44.032H46.2148V45.3381H47.521V44.032Z" fill="black"/>
<path d="M48.8257 44.032H47.5195V45.3381H48.8257V44.032Z" fill="black"/>
<path d="M54.0522 44.032H52.7461V45.3381H54.0522V44.032Z" fill="black"/>
<path d="M57.9702 44.032H56.6641V45.3381H57.9702V44.032Z" fill="black"/>
<path d="M63.1928 44.032H61.8867V45.3381H63.1928V44.032Z" fill="black"/>
<path d="M64.5014 44.032H63.1953V45.3381H64.5014V44.032Z" fill="black"/>
<path d="M3.11081 45.3381H1.80469V46.6443H3.11081V45.3381Z" fill="black"/>
<path d="M8.33737 45.3381H7.03125V46.6443H8.33737V45.3381Z" fill="black"/>
<path d="M9.64206 45.3381H8.33594V46.6443H9.64206V45.3381Z" fill="black"/>
<path d="M10.9487 45.3381H9.64258V46.6443H10.9487V45.3381Z" fill="black"/>
<path d="M13.56 45.3381H12.2539V46.6443H13.56V45.3381Z" fill="black"/>
<path d="M17.48 45.3381H16.1738V46.6443H17.48V45.3381Z" fill="black"/>
<path d="M18.7866 45.3381H17.4805V46.6443H18.7866V45.3381Z" fill="black"/>
<path d="M21.3979 45.3381H20.0918V46.6443H21.3979V45.3381Z" fill="black"/>
<path d="M25.3178 45.3381H24.0117V46.6443H25.3178V45.3381Z" fill="black"/>
<path d="M26.6225 45.3381H25.3164V46.6443H26.6225V45.3381Z" fill="black"/>
<path d="M44.9077 45.3381H43.6016V46.6443H44.9077V45.3381Z" fill="black"/>
<path d="M46.2143 45.3381H44.9082V46.6443H46.2143V45.3381Z" fill="black"/>
<path d="M48.8257 45.3381H47.5195V46.6443H48.8257V45.3381Z" fill="black"/>
<path d="M52.7456 45.3381H51.4395V46.6443H52.7456V45.3381Z" fill="black"/>
<path d="M56.6635 45.3381H55.3574V46.6443H56.6635V45.3381Z" fill="black"/>
<path d="M57.9702 45.3381H56.6641V46.6443H57.9702V45.3381Z" fill="black"/>
<path d="M59.2749 45.3381H57.9688V46.6443H59.2749V45.3381Z" fill="black"/>
<path d="M61.8882 45.3381H60.582V46.6443H61.8882V45.3381Z" fill="black"/>
<path d="M4.4194 46.6443H3.11328V47.9504H4.4194V46.6443Z" fill="black"/>
<path d="M8.33737 46.6443H7.03125V47.9504H8.33737V46.6443Z" fill="black"/>
<path d="M12.2553 46.6443H10.9492V47.9504H12.2553V46.6443Z" fill="black"/>
<path d="M14.8667 46.6443H13.5605V47.9504H14.8667V46.6443Z" fill="black"/>
<path d="M16.1733 46.6443H14.8672V47.9504H16.1733V46.6443Z" fill="black"/>
<path d="M17.48 46.6443H16.1738V47.9504H17.48V46.6443Z" fill="black"/>
<path d="M21.3979 46.6443H20.0918V47.9504H21.3979V46.6443Z" fill="black"/>
<path d="M25.3178 46.6443H24.0117V47.9504H25.3178V46.6443Z" fill="black"/>
<path d="M26.6225 46.6443H25.3164V47.9504H26.6225V46.6443Z" fill="black"/>
<path d="M27.9272 46.6443H26.6211V47.9504H27.9272V46.6443Z" fill="black"/>
<path d="M31.8471 46.6443H30.541V47.9504H31.8471V46.6443Z" fill="black"/>
<path d="M33.1538 46.6443H31.8477V47.9504H33.1538V46.6443Z" fill="black"/>
<path d="M35.7651 46.6443H34.459V47.9504H35.7651V46.6443Z" fill="black"/>
<path d="M39.685 46.6443H38.3789V47.9504H39.685V46.6443Z" fill="black"/>
<path d="M42.2944 46.6443H40.9883V47.9504H42.2944V46.6443Z" fill="black"/>
<path d="M43.603 46.6443H42.2969V47.9504H43.603V46.6443Z" fill="black"/>
<path d="M50.1323 46.6443H48.8262V47.9504H50.1323V46.6443Z" fill="black"/>
<path d="M52.7456 46.6443H51.4395V47.9504H52.7456V46.6443Z" fill="black"/>
<path d="M54.0522 46.6443H52.7461V47.9504H54.0522V46.6443Z" fill="black"/>
<path d="M55.3569 46.6443H54.0508V47.9504H55.3569V46.6443Z" fill="black"/>
<path d="M56.6635 46.6443H55.3574V47.9504H56.6635V46.6443Z" fill="black"/>
<path d="M57.9702 46.6443H56.6641V47.9504H57.9702V46.6443Z" fill="black"/>
<path d="M1.80612 47.9504H0.5V49.2566H1.80612V47.9504Z" fill="black"/>
<path d="M4.4194 47.9504H3.11328V49.2566H4.4194V47.9504Z" fill="black"/>
<path d="M5.72409 47.9504H4.41797V49.2566H5.72409V47.9504Z" fill="black"/>
<path d="M8.33737 47.9504H7.03125V49.2566H8.33737V47.9504Z" fill="black"/>
<path d="M9.64206 47.9504H8.33594V49.2566H9.64206V47.9504Z" fill="black"/>
<path d="M13.56 47.9504H12.2539V49.2566H13.56V47.9504Z" fill="black"/>
<path d="M16.1733 47.9504H14.8672V49.2566H16.1733V47.9504Z" fill="black"/>
<path d="M17.48 47.9504H16.1738V49.2566H17.48V47.9504Z" fill="black"/>
<path d="M20.0913 47.9504H18.7852V49.2566H20.0913V47.9504Z" fill="black"/>
<path d="M22.7046 47.9504H21.3984V49.2566H22.7046V47.9504Z" fill="black"/>
<path d="M26.6225 47.9504H25.3164V49.2566H26.6225V47.9504Z" fill="black"/>
<path d="M27.9272 47.9504H26.6211V49.2566H27.9272V47.9504Z" fill="black"/>
<path d="M29.2358 47.9504H27.9297V49.2566H29.2358V47.9504Z" fill="black"/>
<path d="M34.4585 47.9504H33.1523V49.2566H34.4585V47.9504Z" fill="black"/>
<path d="M38.3764 47.9504H37.0703V49.2566H38.3764V47.9504Z" fill="black"/>
<path d="M39.685 47.9504H38.3789V49.2566H39.685V47.9504Z" fill="black"/>
<path d="M40.9897 47.9504H39.6836V49.2566H40.9897V47.9504Z" fill="black"/>
<path d="M44.9077 47.9504H43.6016V49.2566H44.9077V47.9504Z" fill="black"/>
<path d="M46.2143 47.9504H44.9082V49.2566H46.2143V47.9504Z" fill="black"/>
<path d="M47.521 47.9504H46.2148V49.2566H47.521V47.9504Z" fill="black"/>
<path d="M51.4389 47.9504H50.1328V49.2566H51.4389V47.9504Z" fill="black"/>
<path d="M55.3569 47.9504H54.0508V49.2566H55.3569V47.9504Z" fill="black"/>
<path d="M56.6635 47.9504H55.3574V49.2566H56.6635V47.9504Z" fill="black"/>
<path d="M57.9702 47.9504H56.6641V49.2566H57.9702V47.9504Z" fill="black"/>
<path d="M59.2749 47.9504H57.9688V49.2566H59.2749V47.9504Z" fill="black"/>
<path d="M63.1928 47.9504H61.8867V49.2566H63.1928V47.9504Z" fill="black"/>
<path d="M64.5014 47.9504H63.1953V49.2566H64.5014V47.9504Z" fill="black"/>
<path d="M3.11081 49.2566H1.80469V50.5627H3.11081V49.2566Z" fill="black"/>
<path d="M5.72409 49.2566H4.41797V50.5627H5.72409V49.2566Z" fill="black"/>
<path d="M12.2553 49.2566H10.9492V50.5627H12.2553V49.2566Z" fill="black"/>
<path d="M13.56 49.2566H12.2539V50.5627H13.56V49.2566Z" fill="black"/>
<path d="M17.48 49.2566H16.1738V50.5627H17.48V49.2566Z" fill="black"/>
<path d="M21.3979 49.2566H20.0918V50.5627H21.3979V49.2566Z" fill="black"/>
<path d="M24.0092 49.2566H22.7031V50.5627H24.0092V49.2566Z" fill="black"/>
<path d="M25.3178 49.2566H24.0117V50.5627H25.3178V49.2566Z" fill="black"/>
<path d="M27.9272 49.2566H26.6211V50.5627H27.9272V49.2566Z" fill="black"/>
<path d="M31.8471 49.2566H30.541V50.5627H31.8471V49.2566Z" fill="black"/>
<path d="M38.3764 49.2566H37.0703V50.5627H38.3764V49.2566Z" fill="black"/>
<path d="M39.685 49.2566H38.3789V50.5627H39.685V49.2566Z" fill="black"/>
<path d="M42.2944 49.2566H40.9883V50.5627H42.2944V49.2566Z" fill="black"/>
<path d="M43.603 49.2566H42.2969V50.5627H43.603V49.2566Z" fill="black"/>
<path d="M44.9077 49.2566H43.6016V50.5627H44.9077V49.2566Z" fill="black"/>
<path d="M46.2143 49.2566H44.9082V50.5627H46.2143V49.2566Z" fill="black"/>
<path d="M54.0522 49.2566H52.7461V50.5627H54.0522V49.2566Z" fill="black"/>
<path d="M57.9702 49.2566H56.6641V50.5627H57.9702V49.2566Z" fill="black"/>
<path d="M59.2749 49.2566H57.9688V50.5627H59.2749V49.2566Z" fill="black"/>
<path d="M64.5014 49.2566H63.1953V50.5627H64.5014V49.2566Z" fill="black"/>
<path d="M3.11081 50.5627H1.80469V51.8689H3.11081V50.5627Z" fill="black"/>
<path d="M8.33737 50.5627H7.03125V51.8689H8.33737V50.5627Z" fill="black"/>
<path d="M9.64206 50.5627H8.33594V51.8689H9.64206V50.5627Z" fill="black"/>
<path d="M10.9487 50.5627H9.64258V51.8689H10.9487V50.5627Z" fill="black"/>
<path d="M14.8667 50.5627H13.5605V51.8689H14.8667V50.5627Z" fill="black"/>
<path d="M16.1733 50.5627H14.8672V51.8689H16.1733V50.5627Z" fill="black"/>
<path d="M17.48 50.5627H16.1738V51.8689H17.48V50.5627Z" fill="black"/>
<path d="M18.7866 50.5627H17.4805V51.8689H18.7866V50.5627Z" fill="black"/>
<path d="M20.0913 50.5627H18.7852V51.8689H20.0913V50.5627Z" fill="black"/>
<path d="M22.7046 50.5627H21.3984V51.8689H22.7046V50.5627Z" fill="black"/>
<path d="M26.6225 50.5627H25.3164V51.8689H26.6225V50.5627Z" fill="black"/>
<path d="M29.2358 50.5627H27.9297V51.8689H29.2358V50.5627Z" fill="black"/>
<path d="M31.8471 50.5627H30.541V51.8689H31.8471V50.5627Z" fill="black"/>
<path d="M38.3764 50.5627H37.0703V51.8689H38.3764V50.5627Z" fill="black"/>
<path d="M42.2944 50.5627H40.9883V51.8689H42.2944V50.5627Z" fill="black"/>
<path d="M48.8257 50.5627H47.5195V51.8689H48.8257V50.5627Z" fill="black"/>
<path d="M50.1323 50.5627H48.8262V51.8689H50.1323V50.5627Z" fill="black"/>
<path d="M51.4389 50.5627H50.1328V51.8689H51.4389V50.5627Z" fill="black"/>
<path d="M52.7456 50.5627H51.4395V51.8689H52.7456V50.5627Z" fill="black"/>
<path d="M55.3569 50.5627H54.0508V51.8689H55.3569V50.5627Z" fill="black"/>
<path d="M56.6635 50.5627H55.3574V51.8689H56.6635V50.5627Z" fill="black"/>
<path d="M57.9702 50.5627H56.6641V51.8689H57.9702V50.5627Z" fill="black"/>
<path d="M59.2749 50.5627H57.9688V51.8689H59.2749V50.5627Z" fill="black"/>
<path d="M60.5815 50.5627H59.2754V51.8689H60.5815V50.5627Z" fill="black"/>
<path d="M61.8882 50.5627H60.582V51.8689H61.8882V50.5627Z" fill="black"/>
<path d="M63.1928 50.5627H61.8867V51.8689H63.1928V50.5627Z" fill="black"/>
<path d="M64.5014 50.5627H63.1953V51.8689H64.5014V50.5627Z" fill="black"/>
<path d="M3.11081 51.8689H1.80469V53.175H3.11081V51.8689Z" fill="black"/>
<path d="M4.4194 51.8689H3.11328V53.175H4.4194V51.8689Z" fill="black"/>
<path d="M5.72409 51.8689H4.41797V53.175H5.72409V51.8689Z" fill="black"/>
<path d="M12.2553 51.8689H10.9492V53.175H12.2553V51.8689Z" fill="black"/>
<path d="M13.56 51.8689H12.2539V53.175H13.56V51.8689Z" fill="black"/>
<path d="M14.8667 51.8689H13.5605V53.175H14.8667V51.8689Z" fill="black"/>
<path d="M17.48 51.8689H16.1738V53.175H17.48V51.8689Z" fill="black"/>
<path d="M18.7866 51.8689H17.4805V53.175H18.7866V51.8689Z" fill="black"/>
<path d="M20.0913 51.8689H18.7852V53.175H20.0913V51.8689Z" fill="black"/>
<path d="M21.3979 51.8689H20.0918V53.175H21.3979V51.8689Z" fill="black"/>
<path d="M22.7046 51.8689H21.3984V53.175H22.7046V51.8689Z" fill="black"/>
<path d="M24.0092 51.8689H22.7031V53.175H24.0092V51.8689Z" fill="black"/>
<path d="M25.3178 51.8689H24.0117V53.175H25.3178V51.8689Z" fill="black"/>
<path d="M27.9272 51.8689H26.6211V53.175H27.9272V51.8689Z" fill="black"/>
<path d="M30.5405 51.8689H29.2344V53.175H30.5405V51.8689Z" fill="black"/>
<path d="M35.7651 51.8689H34.459V53.175H35.7651V51.8689Z" fill="black"/>
<path d="M43.603 51.8689H42.2969V53.175H43.603V51.8689Z" fill="black"/>
<path d="M46.2143 51.8689H44.9082V53.175H46.2143V51.8689Z" fill="black"/>
<path d="M50.1323 51.8689H48.8262V53.175H50.1323V51.8689Z" fill="black"/>
<path d="M51.4389 51.8689H50.1328V53.175H51.4389V51.8689Z" fill="black"/>
<path d="M52.7456 51.8689H51.4395V53.175H52.7456V51.8689Z" fill="black"/>
<path d="M56.6635 51.8689H55.3574V53.175H56.6635V51.8689Z" fill="black"/>
<path d="M63.1928 51.8689H61.8867V53.175H63.1928V51.8689Z" fill="black"/>
<path d="M1.80612 53.1746H0.5V54.4807H1.80612V53.1746Z" fill="black"/>
<path d="M3.11081 53.1746H1.80469V54.4807H3.11081V53.1746Z" fill="black"/>
<path d="M4.4194 53.1746H3.11328V54.4807H4.4194V53.1746Z" fill="black"/>
<path d="M9.64206 53.1746H8.33594V54.4807H9.64206V53.1746Z" fill="black"/>
<path d="M10.9487 53.1746H9.64258V54.4807H10.9487V53.1746Z" fill="black"/>
<path d="M12.2553 53.1746H10.9492V54.4807H12.2553V53.1746Z" fill="black"/>
<path d="M13.56 53.1746H12.2539V54.4807H13.56V53.1746Z" fill="black"/>
<path d="M14.8667 53.1746H13.5605V54.4807H14.8667V53.1746Z" fill="black"/>
<path d="M20.0913 53.1746H18.7852V54.4807H20.0913V53.1746Z" fill="black"/>
<path d="M24.0092 53.1746H22.7031V54.4807H24.0092V53.1746Z" fill="black"/>
<path d="M25.3178 53.1746H24.0117V54.4807H25.3178V53.1746Z" fill="black"/>
<path d="M26.6225 53.1746H25.3164V54.4807H26.6225V53.1746Z" fill="black"/>
<path d="M27.9272 53.1746H26.6211V54.4807H27.9272V53.1746Z" fill="black"/>
<path d="M30.5405 53.1746H29.2344V54.4807H30.5405V53.1746Z" fill="black"/>
<path d="M31.8471 53.1746H30.541V54.4807H31.8471V53.1746Z" fill="black"/>
<path d="M33.1538 53.1746H31.8477V54.4807H33.1538V53.1746Z" fill="black"/>
<path d="M34.4585 53.1746H33.1523V54.4807H34.4585V53.1746Z" fill="black"/>
<path d="M35.7651 53.1746H34.459V54.4807H35.7651V53.1746Z" fill="black"/>
<path d="M38.3764 53.1746H37.0703V54.4807H38.3764V53.1746Z" fill="black"/>
<path d="M44.9077 53.1746H43.6016V54.4807H44.9077V53.1746Z" fill="black"/>
<path d="M46.2143 53.1746H44.9082V54.4807H46.2143V53.1746Z" fill="black"/>
<path d="M47.521 53.1746H46.2148V54.4807H47.521V53.1746Z" fill="black"/>
<path d="M51.4389 53.1746H50.1328V54.4807H51.4389V53.1746Z" fill="black"/>
<path d="M52.7456 53.1746H51.4395V54.4807H52.7456V53.1746Z" fill="black"/>
<path d="M54.0522 53.1746H52.7461V54.4807H54.0522V53.1746Z" fill="black"/>
<path d="M55.3569 53.1746H54.0508V54.4807H55.3569V53.1746Z" fill="black"/>
<path d="M56.6635 53.1746H55.3574V54.4807H56.6635V53.1746Z" fill="black"/>
<path d="M57.9702 53.1746H56.6641V54.4807H57.9702V53.1746Z" fill="black"/>
<path d="M59.2749 53.1746H57.9688V54.4807H59.2749V53.1746Z" fill="black"/>
<path d="M63.1928 53.1746H61.8867V54.4807H63.1928V53.1746Z" fill="black"/>
<path d="M64.5014 53.1746H63.1953V54.4807H64.5014V53.1746Z" fill="black"/>
<path d="M12.2553 54.4812H10.9492V55.7873H12.2553V54.4812Z" fill="black"/>
<path d="M17.48 54.4812H16.1738V55.7873H17.48V54.4812Z" fill="black"/>
<path d="M20.0913 54.4812H18.7852V55.7873H20.0913V54.4812Z" fill="black"/>
<path d="M30.5405 54.4812H29.2344V55.7873H30.5405V54.4812Z" fill="black"/>
<path d="M35.7651 54.4812H34.459V55.7873H35.7651V54.4812Z" fill="black"/>
<path d="M39.685 54.4812H38.3789V55.7873H39.685V54.4812Z" fill="black"/>
<path d="M42.2944 54.4812H40.9883V55.7873H42.2944V54.4812Z" fill="black"/>
<path d="M43.603 54.4812H42.2969V55.7873H43.603V54.4812Z" fill="black"/>
<path d="M46.2143 54.4812H44.9082V55.7873H46.2143V54.4812Z" fill="black"/>
<path d="M50.1323 54.4812H48.8262V55.7873H50.1323V54.4812Z" fill="black"/>
<path d="M51.4389 54.4812H50.1328V55.7873H51.4389V54.4812Z" fill="black"/>
<path d="M54.0522 54.4812H52.7461V55.7873H54.0522V54.4812Z" fill="black"/>
<path d="M59.2749 54.4812H57.9688V55.7873H59.2749V54.4812Z" fill="black"/>
<path d="M63.1928 54.4812H61.8867V55.7873H63.1928V54.4812Z" fill="black"/>
<path d="M64.5014 54.4812H63.1953V55.7873H64.5014V54.4812Z" fill="black"/>
<path d="M1.80612 55.7869H0.5V57.093H1.80612V55.7869Z" fill="black"/>
<path d="M3.11081 55.7869H1.80469V57.093H3.11081V55.7869Z" fill="black"/>
<path d="M4.4194 55.7869H3.11328V57.093H4.4194V55.7869Z" fill="black"/>
<path d="M5.72409 55.7869H4.41797V57.093H5.72409V55.7869Z" fill="black"/>
<path d="M7.03073 55.7869H5.72461V57.093H7.03073V55.7869Z" fill="black"/>
<path d="M8.33737 55.7869H7.03125V57.093H8.33737V55.7869Z" fill="black"/>
<path d="M9.64206 55.7869H8.33594V57.093H9.64206V55.7869Z" fill="black"/>
<path d="M16.1733 55.7869H14.8672V57.093H16.1733V55.7869Z" fill="black"/>
<path d="M18.7866 55.7869H17.4805V57.093H18.7866V55.7869Z" fill="black"/>
<path d="M26.6225 55.7869H25.3164V57.093H26.6225V55.7869Z" fill="black"/>
<path d="M27.9272 55.7869H26.6211V57.093H27.9272V55.7869Z" fill="black"/>
<path d="M30.5405 55.7869H29.2344V57.093H30.5405V55.7869Z" fill="black"/>
<path d="M33.1538 55.7869H31.8477V57.093H33.1538V55.7869Z" fill="black"/>
<path d="M35.7651 55.7869H34.459V57.093H35.7651V55.7869Z" fill="black"/>
<path d="M37.0717 55.7869H35.7656V57.093H37.0717V55.7869Z" fill="black"/>
<path d="M38.3764 55.7869H37.0703V57.093H38.3764V55.7869Z" fill="black"/>
<path d="M42.2944 55.7869H40.9883V57.093H42.2944V55.7869Z" fill="black"/>
<path d="M44.9077 55.7869H43.6016V57.093H44.9077V55.7869Z" fill="black"/>
<path d="M48.8257 55.7869H47.5195V57.093H48.8257V55.7869Z" fill="black"/>
<path d="M54.0522 55.7869H52.7461V57.093H54.0522V55.7869Z" fill="black"/>
<path d="M56.6635 55.7869H55.3574V57.093H56.6635V55.7869Z" fill="black"/>
<path d="M59.2749 55.7869H57.9688V57.093H59.2749V55.7869Z" fill="black"/>
<path d="M60.5815 55.7869H59.2754V57.093H60.5815V55.7869Z" fill="black"/>
<path d="M61.8882 55.7869H60.582V57.093H61.8882V55.7869Z" fill="black"/>
<path d="M1.80612 57.093H0.5V58.3991H1.80612V57.093Z" fill="black"/>
<path d="M9.64206 57.093H8.33594V58.3991H9.64206V57.093Z" fill="black"/>
<path d="M13.56 57.093H12.2539V58.3991H13.56V57.093Z" fill="black"/>
<path d="M14.8667 57.093H13.5605V58.3991H14.8667V57.093Z" fill="black"/>
<path d="M17.48 57.093H16.1738V58.3991H17.48V57.093Z" fill="black"/>
<path d="M18.7866 57.093H17.4805V58.3991H18.7866V57.093Z" fill="black"/>
<path d="M20.0913 57.093H18.7852V58.3991H20.0913V57.093Z" fill="black"/>
<path d="M21.3979 57.093H20.0918V58.3991H21.3979V57.093Z" fill="black"/>
<path d="M22.7046 57.093H21.3984V58.3991H22.7046V57.093Z" fill="black"/>
<path d="M24.0092 57.093H22.7031V58.3991H24.0092V57.093Z" fill="black"/>
<path d="M25.3178 57.093H24.0117V58.3991H25.3178V57.093Z" fill="black"/>
<path d="M26.6225 57.093H25.3164V58.3991H26.6225V57.093Z" fill="black"/>
<path d="M27.9272 57.093H26.6211V58.3991H27.9272V57.093Z" fill="black"/>
<path d="M29.2358 57.093H27.9297V58.3991H29.2358V57.093Z" fill="black"/>
<path d="M30.5405 57.093H29.2344V58.3991H30.5405V57.093Z" fill="black"/>
<path d="M35.7651 57.093H34.459V58.3991H35.7651V57.093Z" fill="black"/>
<path d="M37.0717 57.093H35.7656V58.3991H37.0717V57.093Z" fill="black"/>
<path d="M40.9897 57.093H39.6836V58.3991H40.9897V57.093Z" fill="black"/>
<path d="M42.2944 57.093H40.9883V58.3991H42.2944V57.093Z" fill="black"/>
<path d="M47.521 57.093H46.2148V58.3991H47.521V57.093Z" fill="black"/>
<path d="M54.0522 57.093H52.7461V58.3991H54.0522V57.093Z" fill="black"/>
<path d="M59.2749 57.093H57.9688V58.3991H59.2749V57.093Z" fill="black"/>
<path d="M60.5815 57.093H59.2754V58.3991H60.5815V57.093Z" fill="black"/>
<path d="M61.8882 57.093H60.582V58.3991H61.8882V57.093Z" fill="black"/>
<path d="M63.1928 57.093H61.8867V58.3991H63.1928V57.093Z" fill="black"/>
<path d="M1.80612 58.3997H0.5V59.7058H1.80612V58.3997Z" fill="black"/>
<path d="M4.4194 58.3997H3.11328V59.7058H4.4194V58.3997Z" fill="black"/>
<path d="M5.72409 58.3997H4.41797V59.7058H5.72409V58.3997Z" fill="black"/>
<path d="M7.03073 58.3997H5.72461V59.7058H7.03073V58.3997Z" fill="black"/>
<path d="M9.64206 58.3997H8.33594V59.7058H9.64206V58.3997Z" fill="black"/>
<path d="M12.2553 58.3997H10.9492V59.7058H12.2553V58.3997Z" fill="black"/>
<path d="M13.56 58.3997H12.2539V59.7058H13.56V58.3997Z" fill="black"/>
<path d="M14.8667 58.3997H13.5605V59.7058H14.8667V58.3997Z" fill="black"/>
<path d="M17.48 58.3997H16.1738V59.7058H17.48V58.3997Z" fill="black"/>
<path d="M22.7046 58.3997H21.3984V59.7058H22.7046V58.3997Z" fill="black"/>
<path d="M30.5405 58.3997H29.2344V59.7058H30.5405V58.3997Z" fill="black"/>
<path d="M31.8471 58.3997H30.541V59.7058H31.8471V58.3997Z" fill="black"/>
<path d="M33.1538 58.3997H31.8477V59.7058H33.1538V58.3997Z" fill="black"/>
<path d="M34.4585 58.3997H33.1523V59.7058H34.4585V58.3997Z" fill="black"/>
<path d="M35.7651 58.3997H34.459V59.7058H35.7651V58.3997Z" fill="black"/>
<path d="M37.0717 58.3997H35.7656V59.7058H37.0717V58.3997Z" fill="black"/>
<path d="M38.3764 58.3997H37.0703V59.7058H38.3764V58.3997Z" fill="black"/>
<path d="M44.9077 58.3997H43.6016V59.7058H44.9077V58.3997Z" fill="black"/>
<path d="M46.2143 58.3997H44.9082V59.7058H46.2143V58.3997Z" fill="black"/>
<path d="M47.521 58.3997H46.2148V59.7058H47.521V58.3997Z" fill="black"/>
<path d="M51.4389 58.3997H50.1328V59.7058H51.4389V58.3997Z" fill="black"/>
<path d="M52.7456 58.3997H51.4395V59.7058H52.7456V58.3997Z" fill="black"/>
<path d="M54.0522 58.3997H52.7461V59.7058H54.0522V58.3997Z" fill="black"/>
<path d="M55.3569 58.3997H54.0508V59.7058H55.3569V58.3997Z" fill="black"/>
<path d="M56.6635 58.3997H55.3574V59.7058H56.6635V58.3997Z" fill="black"/>
<path d="M57.9702 58.3997H56.6641V59.7058H57.9702V58.3997Z" fill="black"/>
<path d="M59.2749 58.3997H57.9688V59.7058H59.2749V58.3997Z" fill="black"/>
<path d="M60.5815 58.3997H59.2754V59.7058H60.5815V58.3997Z" fill="black"/>
<path d="M63.1928 58.3997H61.8867V59.7058H63.1928V58.3997Z" fill="black"/>
<path d="M64.5014 58.3997H63.1953V59.7058H64.5014V58.3997Z" fill="black"/>
<path d="M1.80612 59.7053H0.5V61.0114H1.80612V59.7053Z" fill="black"/>
<path d="M4.4194 59.7053H3.11328V61.0114H4.4194V59.7053Z" fill="black"/>
<path d="M5.72409 59.7053H4.41797V61.0114H5.72409V59.7053Z" fill="black"/>
<path d="M7.03073 59.7053H5.72461V61.0114H7.03073V59.7053Z" fill="black"/>
<path d="M9.64206 59.7053H8.33594V61.0114H9.64206V59.7053Z" fill="black"/>
<path d="M12.2553 59.7053H10.9492V61.0114H12.2553V59.7053Z" fill="black"/>
<path d="M13.56 59.7053H12.2539V61.0114H13.56V59.7053Z" fill="black"/>
<path d="M14.8667 59.7053H13.5605V61.0114H14.8667V59.7053Z" fill="black"/>
<path d="M16.1733 59.7053H14.8672V61.0114H16.1733V59.7053Z" fill="black"/>
<path d="M17.48 59.7053H16.1738V61.0114H17.48V59.7053Z" fill="black"/>
<path d="M18.7866 59.7053H17.4805V61.0114H18.7866V59.7053Z" fill="black"/>
<path d="M20.0913 59.7053H18.7852V61.0114H20.0913V59.7053Z" fill="black"/>
<path d="M22.7046 59.7053H21.3984V61.0114H22.7046V59.7053Z" fill="black"/>
<path d="M24.0092 59.7053H22.7031V61.0114H24.0092V59.7053Z" fill="black"/>
<path d="M29.2358 59.7053H27.9297V61.0114H29.2358V59.7053Z" fill="black"/>
<path d="M30.5405 59.7053H29.2344V61.0114H30.5405V59.7053Z" fill="black"/>
<path d="M31.8471 59.7053H30.541V61.0114H31.8471V59.7053Z" fill="black"/>
<path d="M35.7651 59.7053H34.459V61.0114H35.7651V59.7053Z" fill="black"/>
<path d="M38.3764 59.7053H37.0703V61.0114H38.3764V59.7053Z" fill="black"/>
<path d="M40.9897 59.7053H39.6836V61.0114H40.9897V59.7053Z" fill="black"/>
<path d="M43.603 59.7053H42.2969V61.0114H43.603V59.7053Z" fill="black"/>
<path d="M44.9077 59.7053H43.6016V61.0114H44.9077V59.7053Z" fill="black"/>
<path d="M50.1323 59.7053H48.8262V61.0114H50.1323V59.7053Z" fill="black"/>
<path d="M51.4389 59.7053H50.1328V61.0114H51.4389V59.7053Z" fill="black"/>
<path d="M55.3569 59.7053H54.0508V61.0114H55.3569V59.7053Z" fill="black"/>
<path d="M56.6635 59.7053H55.3574V61.0114H56.6635V59.7053Z" fill="black"/>
<path d="M57.9702 59.7053H56.6641V61.0114H57.9702V59.7053Z" fill="black"/>
<path d="M63.1928 59.7053H61.8867V61.0114H63.1928V59.7053Z" fill="black"/>
<path d="M64.5014 59.7053H63.1953V61.0114H64.5014V59.7053Z" fill="black"/>
<path d="M1.80612 61.0115H0.5V62.3176H1.80612V61.0115Z" fill="black"/>
<path d="M4.4194 61.0115H3.11328V62.3176H4.4194V61.0115Z" fill="black"/>
<path d="M5.72409 61.0115H4.41797V62.3176H5.72409V61.0115Z" fill="black"/>
<path d="M7.03073 61.0115H5.72461V62.3176H7.03073V61.0115Z" fill="black"/>
<path d="M9.64206 61.0115H8.33594V62.3176H9.64206V61.0115Z" fill="black"/>
<path d="M12.2553 61.0115H10.9492V62.3176H12.2553V61.0115Z" fill="black"/>
<path d="M13.56 61.0115H12.2539V62.3176H13.56V61.0115Z" fill="black"/>
<path d="M18.7866 61.0115H17.4805V62.3176H18.7866V61.0115Z" fill="black"/>
<path d="M20.0913 61.0115H18.7852V62.3176H20.0913V61.0115Z" fill="black"/>
<path d="M21.3979 61.0115H20.0918V62.3176H21.3979V61.0115Z" fill="black"/>
<path d="M24.0092 61.0115H22.7031V62.3176H24.0092V61.0115Z" fill="black"/>
<path d="M27.9272 61.0115H26.6211V62.3176H27.9272V61.0115Z" fill="black"/>
<path d="M29.2358 61.0115H27.9297V62.3176H29.2358V61.0115Z" fill="black"/>
<path d="M31.8471 61.0115H30.541V62.3176H31.8471V61.0115Z" fill="black"/>
<path d="M37.0717 61.0115H35.7656V62.3176H37.0717V61.0115Z" fill="black"/>
<path d="M42.2944 61.0115H40.9883V62.3176H42.2944V61.0115Z" fill="black"/>
<path d="M48.8257 61.0115H47.5195V62.3176H48.8257V61.0115Z" fill="black"/>
<path d="M50.1323 61.0115H48.8262V62.3176H50.1323V61.0115Z" fill="black"/>
<path d="M51.4389 61.0115H50.1328V62.3176H51.4389V61.0115Z" fill="black"/>
<path d="M57.9702 61.0115H56.6641V62.3176H57.9702V61.0115Z" fill="black"/>
<path d="M60.5815 61.0115H59.2754V62.3176H60.5815V61.0115Z" fill="black"/>
<path d="M61.8882 61.0115H60.582V62.3176H61.8882V61.0115Z" fill="black"/>
<path d="M64.5014 61.0115H63.1953V62.3176H64.5014V61.0115Z" fill="black"/>
<path d="M1.80612 62.3176H0.5V63.6237H1.80612V62.3176Z" fill="black"/>
<path d="M9.64206 62.3176H8.33594V63.6237H9.64206V62.3176Z" fill="black"/>
<path d="M16.1733 62.3176H14.8672V63.6237H16.1733V62.3176Z" fill="black"/>
<path d="M17.48 62.3176H16.1738V63.6237H17.48V62.3176Z" fill="black"/>
<path d="M18.7866 62.3176H17.4805V63.6237H18.7866V62.3176Z" fill="black"/>
<path d="M22.7046 62.3176H21.3984V63.6237H22.7046V62.3176Z" fill="black"/>
<path d="M24.0092 62.3176H22.7031V63.6237H24.0092V62.3176Z" fill="black"/>
<path d="M25.3178 62.3176H24.0117V63.6237H25.3178V62.3176Z" fill="black"/>
<path d="M26.6225 62.3176H25.3164V63.6237H26.6225V62.3176Z" fill="black"/>
<path d="M29.2358 62.3176H27.9297V63.6237H29.2358V62.3176Z" fill="black"/>
<path d="M31.8471 62.3176H30.541V63.6237H31.8471V62.3176Z" fill="black"/>
<path d="M34.4585 62.3176H33.1523V63.6237H34.4585V62.3176Z" fill="black"/>
<path d="M38.3764 62.3176H37.0703V63.6237H38.3764V62.3176Z" fill="black"/>
<path d="M40.9897 62.3176H39.6836V63.6237H40.9897V62.3176Z" fill="black"/>
<path d="M42.2944 62.3176H40.9883V63.6237H42.2944V62.3176Z" fill="black"/>
<path d="M43.603 62.3176H42.2969V63.6237H43.603V62.3176Z" fill="black"/>
<path d="M47.521 62.3176H46.2148V63.6237H47.521V62.3176Z" fill="black"/>
<path d="M50.1323 62.3176H48.8262V63.6237H50.1323V62.3176Z" fill="black"/>
<path d="M52.7456 62.3176H51.4395V63.6237H52.7456V62.3176Z" fill="black"/>
<path d="M54.0522 62.3176H52.7461V63.6237H54.0522V62.3176Z" fill="black"/>
<path d="M55.3569 62.3176H54.0508V63.6237H55.3569V62.3176Z" fill="black"/>
<path d="M59.2749 62.3176H57.9688V63.6237H59.2749V62.3176Z" fill="black"/>
<path d="M61.8882 62.3176H60.582V63.6237H61.8882V62.3176Z" fill="black"/>
<path d="M63.1928 62.3176H61.8867V63.6237H63.1928V62.3176Z" fill="black"/>
<path d="M1.80612 63.6238H0.5V64.9299H1.80612V63.6238Z" fill="black"/>
<path d="M3.11081 63.6238H1.80469V64.9299H3.11081V63.6238Z" fill="black"/>
<path d="M4.4194 63.6238H3.11328V64.9299H4.4194V63.6238Z" fill="black"/>
<path d="M5.72409 63.6238H4.41797V64.9299H5.72409V63.6238Z" fill="black"/>
<path d="M7.03073 63.6238H5.72461V64.9299H7.03073V63.6238Z" fill="black"/>
<path d="M8.33737 63.6238H7.03125V64.9299H8.33737V63.6238Z" fill="black"/>
<path d="M9.64206 63.6238H8.33594V64.9299H9.64206V63.6238Z" fill="black"/>
<path d="M16.1733 63.6238H14.8672V64.9299H16.1733V63.6238Z" fill="black"/>
<path d="M21.3979 63.6238H20.0918V64.9299H21.3979V63.6238Z" fill="black"/>
<path d="M24.0092 63.6238H22.7031V64.9299H24.0092V63.6238Z" fill="black"/>
<path d="M26.6225 63.6238H25.3164V64.9299H26.6225V63.6238Z" fill="black"/>
<path d="M31.8471 63.6238H30.541V64.9299H31.8471V63.6238Z" fill="black"/>
<path d="M33.1538 63.6238H31.8477V64.9299H33.1538V63.6238Z" fill="black"/>
<path d="M35.7651 63.6238H34.459V64.9299H35.7651V63.6238Z" fill="black"/>
<path d="M37.0717 63.6238H35.7656V64.9299H37.0717V63.6238Z" fill="black"/>
<path d="M38.3764 63.6238H37.0703V64.9299H38.3764V63.6238Z" fill="black"/>
<path d="M39.685 63.6238H38.3789V64.9299H39.685V63.6238Z" fill="black"/>
<path d="M46.2143 63.6238H44.9082V64.9299H46.2143V63.6238Z" fill="black"/>
<path d="M48.8257 63.6238H47.5195V64.9299H48.8257V63.6238Z" fill="black"/>
<path d="M51.4389 63.6238H50.1328V64.9299H51.4389V63.6238Z" fill="black"/>
<path d="M57.9702 63.6238H56.6641V64.9299H57.9702V63.6238Z" fill="black"/>
<path d="M61.8882 63.6238H60.582V64.9299H61.8882V63.6238Z" fill="black"/>
<path d="M63.1928 63.6238H61.8867V64.9299H63.1928V63.6238Z" fill="black"/>
<path d="M64.5014 63.6238H63.1953V64.9299H64.5014V63.6238Z" fill="black"/>
</g>
<defs>
<clipPath id="clip0_36_29169">
<rect width="64" height="64" fill="white" transform="translate(0.5 0.929932)"/>
</clipPath>
</defs>
</svg>
